%TF.GenerationSoftware,KiCad,Pcbnew,6.0.9-8da3e8f707~117~ubuntu22.04.1*%
%TF.CreationDate,2022-12-08T12:31:12-05:00*%
%TF.ProjectId,kicad_circular_tracks_test,6b696361-645f-4636-9972-63756c61725f,rev?*%
%TF.SameCoordinates,Original*%
%TF.FileFunction,Copper,L3,Inr*%
%TF.FilePolarity,Positive*%
%FSLAX46Y46*%
G04 Gerber Fmt 4.6, Leading zero omitted, Abs format (unit mm)*
G04 Created by KiCad (PCBNEW 6.0.9-8da3e8f707~117~ubuntu22.04.1) date 2022-12-08 12:31:12*
%MOMM*%
%LPD*%
G01*
G04 APERTURE LIST*
%TA.AperFunction,ComponentPad*%
%ADD10C,1.750000*%
%TD*%
%TA.AperFunction,ComponentPad*%
%ADD11O,3.500000X2.700000*%
%TD*%
%TA.AperFunction,ComponentPad*%
%ADD12O,1.000000X1.000000*%
%TD*%
%TA.AperFunction,ComponentPad*%
%ADD13R,1.000000X1.000000*%
%TD*%
%TA.AperFunction,ViaPad*%
%ADD14C,0.800000*%
%TD*%
G04 APERTURE END LIST*
D10*
%TO.N,ENC_SW_RAW*%
%TO.C,S1*%
X143100000Y-97500000D03*
%TO.N,GND*%
X143100000Y-102500000D03*
%TO.N,ENC_A_RAW*%
X158000000Y-102500000D03*
%TO.N,GND*%
X158000000Y-100000000D03*
%TO.N,ENC_B_RAW*%
X158000000Y-97500000D03*
D11*
%TO.N,GND*%
X150000000Y-94300000D03*
X150000000Y-105700000D03*
%TD*%
D12*
%TO.N,INT*%
%TO.C,J4*%
X133000000Y-107420000D03*
%TO.N,I2C_SDA*%
X133000000Y-108690000D03*
%TO.N,I2C_SCL*%
X133000000Y-109960000D03*
%TO.N,+3.3V*%
X133000000Y-111230000D03*
D13*
%TO.N,GND*%
X133000000Y-112500000D03*
%TD*%
%TO.N,GND*%
%TO.C,J1*%
X166500000Y-112500000D03*
D12*
%TO.N,+3.3V*%
X166500000Y-111230000D03*
%TO.N,I2C_SCL*%
X166500000Y-109960000D03*
%TO.N,I2C_SDA*%
X166500000Y-108690000D03*
%TO.N,INT*%
X166500000Y-107420000D03*
%TD*%
D14*
%TO.N,A*%
X153250000Y-113500000D03*
X142822754Y-87979752D03*
X136326396Y-102923604D03*
X156000000Y-99500000D03*
X162825273Y-105575273D03*
X159243935Y-89506065D03*
%TO.N,B*%
X161246763Y-109746763D03*
X146459489Y-85526787D03*
X136265922Y-105734078D03*
X151157645Y-114842355D03*
X155000000Y-100000000D03*
X151250000Y-112000000D03*
X162821488Y-92428512D03*
%TO.N,C*%
X143200000Y-114000000D03*
X152750000Y-102000000D03*
X134267089Y-98767089D03*
X165421170Y-96561033D03*
X139748788Y-87998788D03*
X158531054Y-113281054D03*
X146000000Y-111500000D03*
%TO.N,GND*%
X141250000Y-93250000D03*
X150750000Y-99250000D03*
X143500000Y-94250000D03*
X151800000Y-107200000D03*
X161100000Y-101900000D03*
X157000000Y-106750000D03*
X154500000Y-111000000D03*
X149250000Y-99250000D03*
X147600000Y-113800000D03*
X146500000Y-109800000D03*
X143750000Y-89750000D03*
X150750000Y-100750000D03*
X154500000Y-95300000D03*
X143000000Y-104750000D03*
X156800000Y-115800000D03*
X131750000Y-87000000D03*
X155750000Y-109750000D03*
X146500000Y-116500000D03*
X149250000Y-100750000D03*
X150000000Y-88250000D03*
%TO.N,+3.3V*%
X141500000Y-104750000D03*
X154700000Y-97000000D03*
X144500000Y-95500000D03*
%TO.N,D*%
X157765710Y-85234290D03*
X149085034Y-83335034D03*
X153775500Y-102000000D03*
X134235653Y-94488717D03*
X147000000Y-111750000D03*
X157771113Y-114771113D03*
X140222278Y-113527722D03*
%TO.N,E*%
X134861405Y-91023268D03*
X167441220Y-102191220D03*
X148000000Y-112000000D03*
X135936128Y-110563872D03*
X154500000Y-101000000D03*
X155944075Y-83444075D03*
X167583282Y-100083282D03*
%TO.N,I2C_SDA*%
X147500000Y-115325999D03*
X151113233Y-116525500D03*
%TO.N,I2C_SCL*%
X148500000Y-117250000D03*
X132000000Y-103750000D03*
%TO.N,SWDIO*%
X141250000Y-90750000D03*
X134000000Y-87500000D03*
%TO.N,INT*%
X144500000Y-104000000D03*
X162250000Y-101250000D03*
X150500000Y-108000000D03*
%TO.N,SWCLK*%
X135500000Y-88500000D03*
X140750000Y-91750000D03*
%TO.N,~{RESET}*%
X134750000Y-89500000D03*
X140195576Y-92581637D03*
%TD*%
%TA.AperFunction,Conductor*%
%TO.N,GND*%
G36*
X167470018Y-81010000D02*
G01*
X167484851Y-81012310D01*
X167484855Y-81012310D01*
X167493724Y-81013691D01*
X167508981Y-81011696D01*
X167534302Y-81010953D01*
X167703285Y-81023039D01*
X167721064Y-81025596D01*
X167911392Y-81066999D01*
X167928641Y-81072063D01*
X168111150Y-81140136D01*
X168127502Y-81147604D01*
X168298458Y-81240952D01*
X168313582Y-81250672D01*
X168469514Y-81367402D01*
X168483100Y-81379175D01*
X168620825Y-81516900D01*
X168632598Y-81530486D01*
X168749328Y-81686418D01*
X168759048Y-81701542D01*
X168852396Y-81872498D01*
X168859864Y-81888850D01*
X168927937Y-82071359D01*
X168933001Y-82088607D01*
X168974404Y-82278936D01*
X168976961Y-82296715D01*
X168987708Y-82446971D01*
X168988540Y-82458601D01*
X168987793Y-82476565D01*
X168987692Y-82484845D01*
X168986309Y-82493724D01*
X168987474Y-82502630D01*
X168990436Y-82525283D01*
X168991500Y-82541621D01*
X168991500Y-117450633D01*
X168990000Y-117470018D01*
X168987690Y-117484851D01*
X168987690Y-117484855D01*
X168986309Y-117493724D01*
X168988136Y-117507693D01*
X168988304Y-117508976D01*
X168989047Y-117534302D01*
X168978224Y-117685637D01*
X168976962Y-117703279D01*
X168974404Y-117721064D01*
X168948173Y-117841647D01*
X168933001Y-117911392D01*
X168927937Y-117928641D01*
X168859864Y-118111150D01*
X168852396Y-118127502D01*
X168759048Y-118298458D01*
X168749328Y-118313582D01*
X168632598Y-118469514D01*
X168620825Y-118483100D01*
X168483100Y-118620825D01*
X168469514Y-118632598D01*
X168313582Y-118749328D01*
X168298458Y-118759048D01*
X168127502Y-118852396D01*
X168111150Y-118859864D01*
X167928641Y-118927937D01*
X167911393Y-118933001D01*
X167721064Y-118974404D01*
X167703285Y-118976961D01*
X167541395Y-118988540D01*
X167523435Y-118987793D01*
X167515155Y-118987692D01*
X167506276Y-118986309D01*
X167474714Y-118990436D01*
X167458379Y-118991500D01*
X132549367Y-118991500D01*
X132529982Y-118990000D01*
X132515149Y-118987690D01*
X132515145Y-118987690D01*
X132506276Y-118986309D01*
X132491019Y-118988304D01*
X132465698Y-118989047D01*
X132296715Y-118976961D01*
X132278936Y-118974404D01*
X132088607Y-118933001D01*
X132071359Y-118927937D01*
X131888850Y-118859864D01*
X131872498Y-118852396D01*
X131701542Y-118759048D01*
X131686418Y-118749328D01*
X131530486Y-118632598D01*
X131516900Y-118620825D01*
X131379175Y-118483100D01*
X131367402Y-118469514D01*
X131250672Y-118313582D01*
X131240952Y-118298458D01*
X131147604Y-118127502D01*
X131140136Y-118111150D01*
X131072063Y-117928641D01*
X131066999Y-117911392D01*
X131051827Y-117841647D01*
X131025596Y-117721064D01*
X131023038Y-117703278D01*
X131021777Y-117685637D01*
X131011719Y-117545011D01*
X131012805Y-117522245D01*
X131012334Y-117522203D01*
X131012770Y-117517345D01*
X131013576Y-117512552D01*
X131013729Y-117500000D01*
X131009773Y-117472376D01*
X131008500Y-117454514D01*
X131008500Y-117250000D01*
X147586496Y-117250000D01*
X147587186Y-117256565D01*
X147601380Y-117391609D01*
X147606458Y-117439928D01*
X147665473Y-117621556D01*
X147760960Y-117786944D01*
X147765378Y-117791851D01*
X147765379Y-117791852D01*
X147810215Y-117841647D01*
X147888747Y-117928866D01*
X148043248Y-118041118D01*
X148049276Y-118043802D01*
X148049278Y-118043803D01*
X148178691Y-118101421D01*
X148217712Y-118118794D01*
X148311112Y-118138647D01*
X148398056Y-118157128D01*
X148398061Y-118157128D01*
X148404513Y-118158500D01*
X148595487Y-118158500D01*
X148601939Y-118157128D01*
X148601944Y-118157128D01*
X148688888Y-118138647D01*
X148782288Y-118118794D01*
X148821309Y-118101421D01*
X148950722Y-118043803D01*
X148950724Y-118043802D01*
X148956752Y-118041118D01*
X149111253Y-117928866D01*
X149189785Y-117841647D01*
X149234621Y-117791852D01*
X149234622Y-117791851D01*
X149239040Y-117786944D01*
X149334527Y-117621556D01*
X149393542Y-117439928D01*
X149398621Y-117391609D01*
X149412814Y-117256565D01*
X149413504Y-117250000D01*
X149402469Y-117145009D01*
X149394232Y-117066635D01*
X149394232Y-117066633D01*
X149393542Y-117060072D01*
X149334527Y-116878444D01*
X149239040Y-116713056D01*
X149196782Y-116666123D01*
X149115675Y-116576045D01*
X149115674Y-116576044D01*
X149111253Y-116571134D01*
X149048443Y-116525500D01*
X150199729Y-116525500D01*
X150200419Y-116532065D01*
X150209780Y-116621126D01*
X150219691Y-116715428D01*
X150278706Y-116897056D01*
X150282009Y-116902778D01*
X150282010Y-116902779D01*
X150315919Y-116961510D01*
X150374193Y-117062444D01*
X150378611Y-117067351D01*
X150378612Y-117067352D01*
X150412446Y-117104928D01*
X150501980Y-117204366D01*
X150656481Y-117316618D01*
X150662509Y-117319302D01*
X150662511Y-117319303D01*
X150761041Y-117363171D01*
X150830945Y-117394294D01*
X150924346Y-117414147D01*
X151011289Y-117432628D01*
X151011294Y-117432628D01*
X151017746Y-117434000D01*
X151208720Y-117434000D01*
X151215172Y-117432628D01*
X151215177Y-117432628D01*
X151302120Y-117414147D01*
X151395521Y-117394294D01*
X151465425Y-117363171D01*
X151563955Y-117319303D01*
X151563957Y-117319302D01*
X151569985Y-117316618D01*
X151724486Y-117204366D01*
X151814020Y-117104928D01*
X151847854Y-117067352D01*
X151847855Y-117067351D01*
X151852273Y-117062444D01*
X151910547Y-116961510D01*
X151944456Y-116902779D01*
X151944457Y-116902778D01*
X151947760Y-116897056D01*
X152006775Y-116715428D01*
X152016687Y-116621126D01*
X152026047Y-116532065D01*
X152026737Y-116525500D01*
X152013444Y-116399020D01*
X152009096Y-116357655D01*
X164489858Y-116357655D01*
X164525104Y-116616638D01*
X164526412Y-116621124D01*
X164526412Y-116621126D01*
X164546098Y-116688664D01*
X164598243Y-116867567D01*
X164707668Y-117104928D01*
X164710231Y-117108837D01*
X164848410Y-117319596D01*
X164848414Y-117319601D01*
X164850976Y-117323509D01*
X164883334Y-117359763D01*
X165010845Y-117502626D01*
X165025018Y-117518506D01*
X165225970Y-117685637D01*
X165229973Y-117688066D01*
X165445422Y-117818804D01*
X165445426Y-117818806D01*
X165449419Y-117821229D01*
X165690455Y-117922303D01*
X165943783Y-117986641D01*
X165948434Y-117987109D01*
X165948438Y-117987110D01*
X166141308Y-118006531D01*
X166160867Y-118008500D01*
X166316354Y-118008500D01*
X166318679Y-118008327D01*
X166318685Y-118008327D01*
X166506000Y-117994407D01*
X166506004Y-117994406D01*
X166510652Y-117994061D01*
X166515200Y-117993032D01*
X166515206Y-117993031D01*
X166701601Y-117950853D01*
X166765577Y-117936377D01*
X166769931Y-117934684D01*
X167004824Y-117843340D01*
X167004827Y-117843339D01*
X167009177Y-117841647D01*
X167236098Y-117711951D01*
X167441357Y-117550138D01*
X167620443Y-117359763D01*
X167769424Y-117145009D01*
X167808074Y-117066635D01*
X167882960Y-116914781D01*
X167882961Y-116914778D01*
X167885025Y-116910593D01*
X167964707Y-116661665D01*
X168006721Y-116403693D01*
X168009438Y-116196165D01*
X168010081Y-116147022D01*
X168010081Y-116147019D01*
X168010142Y-116142345D01*
X167974896Y-115883362D01*
X167968945Y-115862943D01*
X167918906Y-115691270D01*
X167901757Y-115632433D01*
X167792332Y-115395072D01*
X167738500Y-115312965D01*
X167651590Y-115180404D01*
X167651586Y-115180399D01*
X167649024Y-115176491D01*
X167474982Y-114981494D01*
X167274030Y-114814363D01*
X167057137Y-114682749D01*
X167054578Y-114681196D01*
X167054574Y-114681194D01*
X167050581Y-114678771D01*
X166809545Y-114577697D01*
X166556217Y-114513359D01*
X166551566Y-114512891D01*
X166551562Y-114512890D01*
X166342271Y-114491816D01*
X166339133Y-114491500D01*
X166183646Y-114491500D01*
X166181321Y-114491673D01*
X166181315Y-114491673D01*
X165994000Y-114505593D01*
X165993996Y-114505594D01*
X165989348Y-114505939D01*
X165984800Y-114506968D01*
X165984794Y-114506969D01*
X165852326Y-114536944D01*
X165734423Y-114563623D01*
X165730071Y-114565315D01*
X165730069Y-114565316D01*
X165495176Y-114656660D01*
X165495173Y-114656661D01*
X165490823Y-114658353D01*
X165486769Y-114660670D01*
X165486767Y-114660671D01*
X165450856Y-114681196D01*
X165263902Y-114788049D01*
X165058643Y-114949862D01*
X164879557Y-115140237D01*
X164824477Y-115219634D01*
X164750689Y-115325999D01*
X164730576Y-115354991D01*
X164728510Y-115359181D01*
X164728508Y-115359184D01*
X164627053Y-115564916D01*
X164614975Y-115589407D01*
X164613553Y-115593850D01*
X164613552Y-115593852D01*
X164546925Y-115801997D01*
X164535293Y-115838335D01*
X164493279Y-116096307D01*
X164492525Y-116153944D01*
X164490052Y-116342872D01*
X164489858Y-116357655D01*
X152009096Y-116357655D01*
X152007465Y-116342135D01*
X152007465Y-116342133D01*
X152006775Y-116335572D01*
X151947760Y-116153944D01*
X151852273Y-115988556D01*
X151724486Y-115846634D01*
X151663049Y-115801997D01*
X151619695Y-115745774D01*
X151613620Y-115675038D01*
X151646752Y-115612246D01*
X151663049Y-115598125D01*
X151763554Y-115525104D01*
X151763556Y-115525102D01*
X151768898Y-115521221D01*
X151833045Y-115449979D01*
X151892266Y-115384207D01*
X151892267Y-115384206D01*
X151896685Y-115379299D01*
X151992172Y-115213911D01*
X152051187Y-115032283D01*
X152071149Y-114842355D01*
X152063661Y-114771113D01*
X156857609Y-114771113D01*
X156858299Y-114777678D01*
X156876878Y-114954443D01*
X156877571Y-114961041D01*
X156936586Y-115142669D01*
X157032073Y-115308057D01*
X157036491Y-115312964D01*
X157036492Y-115312965D01*
X157114245Y-115399318D01*
X157159860Y-115449979D01*
X157314361Y-115562231D01*
X157320389Y-115564915D01*
X157320391Y-115564916D01*
X157426697Y-115612246D01*
X157488825Y-115639907D01*
X157582225Y-115659760D01*
X157669169Y-115678241D01*
X157669174Y-115678241D01*
X157675626Y-115679613D01*
X157866600Y-115679613D01*
X157873052Y-115678241D01*
X157873057Y-115678241D01*
X157960001Y-115659760D01*
X158053401Y-115639907D01*
X158115529Y-115612246D01*
X158221835Y-115564916D01*
X158221837Y-115564915D01*
X158227865Y-115562231D01*
X158382366Y-115449979D01*
X158427981Y-115399318D01*
X158505734Y-115312965D01*
X158505735Y-115312964D01*
X158510153Y-115308057D01*
X158605640Y-115142669D01*
X158664655Y-114961041D01*
X158665349Y-114954443D01*
X158683927Y-114777678D01*
X158684617Y-114771113D01*
X158675330Y-114682749D01*
X158665345Y-114587748D01*
X158665345Y-114587746D01*
X158664655Y-114581185D01*
X158605640Y-114399557D01*
X158586645Y-114366657D01*
X158569906Y-114297662D01*
X158593125Y-114230570D01*
X158648932Y-114186682D01*
X158669566Y-114180409D01*
X158749166Y-114163489D01*
X158813342Y-114149848D01*
X158819373Y-114147163D01*
X158981776Y-114074857D01*
X158981778Y-114074856D01*
X158987806Y-114072172D01*
X159016621Y-114051237D01*
X159087142Y-114000000D01*
X159142307Y-113959920D01*
X159194171Y-113902319D01*
X159265675Y-113822906D01*
X159265676Y-113822905D01*
X159270094Y-113817998D01*
X159365581Y-113652610D01*
X159424596Y-113470982D01*
X159438595Y-113337794D01*
X159443868Y-113287619D01*
X159444558Y-113281054D01*
X159436690Y-113206197D01*
X159425286Y-113097689D01*
X159425286Y-113097687D01*
X159424596Y-113091126D01*
X159409501Y-113044669D01*
X165492001Y-113044669D01*
X165492371Y-113051490D01*
X165497895Y-113102352D01*
X165501521Y-113117604D01*
X165546676Y-113238054D01*
X165555214Y-113253649D01*
X165631715Y-113355724D01*
X165644276Y-113368285D01*
X165746351Y-113444786D01*
X165761946Y-113453324D01*
X165882394Y-113498478D01*
X165897649Y-113502105D01*
X165948514Y-113507631D01*
X165955328Y-113508000D01*
X166227885Y-113508000D01*
X166243124Y-113503525D01*
X166244329Y-113502135D01*
X166246000Y-113494452D01*
X166246000Y-113489884D01*
X166754000Y-113489884D01*
X166758475Y-113505123D01*
X166759865Y-113506328D01*
X166767548Y-113507999D01*
X167044669Y-113507999D01*
X167051490Y-113507629D01*
X167102352Y-113502105D01*
X167117604Y-113498479D01*
X167238054Y-113453324D01*
X167253649Y-113444786D01*
X167355724Y-113368285D01*
X167368285Y-113355724D01*
X167444786Y-113253649D01*
X167453324Y-113238054D01*
X167498478Y-113117606D01*
X167502105Y-113102351D01*
X167507631Y-113051486D01*
X167508000Y-113044672D01*
X167508000Y-112772115D01*
X167503525Y-112756876D01*
X167502135Y-112755671D01*
X167494452Y-112754000D01*
X166772115Y-112754000D01*
X166756876Y-112758475D01*
X166755671Y-112759865D01*
X166754000Y-112767548D01*
X166754000Y-113489884D01*
X166246000Y-113489884D01*
X166246000Y-112772115D01*
X166241525Y-112756876D01*
X166240135Y-112755671D01*
X166232452Y-112754000D01*
X165510116Y-112754000D01*
X165494877Y-112758475D01*
X165493672Y-112759865D01*
X165492001Y-112767548D01*
X165492001Y-113044669D01*
X159409501Y-113044669D01*
X159365581Y-112909498D01*
X159342081Y-112868794D01*
X159279190Y-112759865D01*
X159270094Y-112744110D01*
X159214845Y-112682749D01*
X159146729Y-112607099D01*
X159146728Y-112607098D01*
X159142307Y-112602188D01*
X158987806Y-112489936D01*
X158981778Y-112487252D01*
X158981776Y-112487251D01*
X158819373Y-112414945D01*
X158819372Y-112414945D01*
X158813342Y-112412260D01*
X158719942Y-112392407D01*
X158632998Y-112373926D01*
X158632993Y-112373926D01*
X158626541Y-112372554D01*
X158435567Y-112372554D01*
X158429115Y-112373926D01*
X158429110Y-112373926D01*
X158342167Y-112392407D01*
X158248766Y-112412260D01*
X158242736Y-112414945D01*
X158242735Y-112414945D01*
X158080332Y-112487251D01*
X158080330Y-112487252D01*
X158074302Y-112489936D01*
X157919801Y-112602188D01*
X157915380Y-112607098D01*
X157915379Y-112607099D01*
X157847264Y-112682749D01*
X157792014Y-112744110D01*
X157782918Y-112759865D01*
X157720028Y-112868794D01*
X157696527Y-112909498D01*
X157637512Y-113091126D01*
X157636822Y-113097687D01*
X157636822Y-113097689D01*
X157625418Y-113206197D01*
X157617550Y-113281054D01*
X157618240Y-113287619D01*
X157623514Y-113337794D01*
X157637512Y-113470982D01*
X157696527Y-113652610D01*
X157714284Y-113683365D01*
X157715522Y-113685510D01*
X157732261Y-113754505D01*
X157709042Y-113821597D01*
X157653235Y-113865485D01*
X157632601Y-113871758D01*
X157606628Y-113877279D01*
X157488825Y-113902319D01*
X157482795Y-113905004D01*
X157482794Y-113905004D01*
X157320391Y-113977310D01*
X157320389Y-113977311D01*
X157314361Y-113979995D01*
X157309020Y-113983875D01*
X157309019Y-113983876D01*
X157277791Y-114006565D01*
X157159860Y-114092247D01*
X157155439Y-114097157D01*
X157155438Y-114097158D01*
X157091292Y-114168400D01*
X157032073Y-114234169D01*
X156936586Y-114399557D01*
X156877571Y-114581185D01*
X156876881Y-114587746D01*
X156876881Y-114587748D01*
X156866896Y-114682749D01*
X156857609Y-114771113D01*
X152063661Y-114771113D01*
X152053450Y-114673955D01*
X152051877Y-114658990D01*
X152051877Y-114658988D01*
X152051187Y-114652427D01*
X151992172Y-114470799D01*
X151984324Y-114457205D01*
X151904438Y-114318840D01*
X151896685Y-114305411D01*
X151832539Y-114234169D01*
X151773320Y-114168400D01*
X151773319Y-114168399D01*
X151768898Y-114163489D01*
X151646907Y-114074857D01*
X151619739Y-114055118D01*
X151619738Y-114055117D01*
X151614397Y-114051237D01*
X151608369Y-114048553D01*
X151608367Y-114048552D01*
X151445964Y-113976246D01*
X151445963Y-113976246D01*
X151439933Y-113973561D01*
X151346532Y-113953708D01*
X151259589Y-113935227D01*
X151259584Y-113935227D01*
X151253132Y-113933855D01*
X151062158Y-113933855D01*
X151055706Y-113935227D01*
X151055701Y-113935227D01*
X150968758Y-113953708D01*
X150875357Y-113973561D01*
X150869327Y-113976246D01*
X150869326Y-113976246D01*
X150706923Y-114048552D01*
X150706921Y-114048553D01*
X150700893Y-114051237D01*
X150695552Y-114055117D01*
X150695551Y-114055118D01*
X150668383Y-114074857D01*
X150546392Y-114163489D01*
X150541971Y-114168399D01*
X150541970Y-114168400D01*
X150482752Y-114234169D01*
X150418605Y-114305411D01*
X150410852Y-114318840D01*
X150330967Y-114457205D01*
X150323118Y-114470799D01*
X150264103Y-114652427D01*
X150263413Y-114658988D01*
X150263413Y-114658990D01*
X150261840Y-114673955D01*
X150244141Y-114842355D01*
X150264103Y-115032283D01*
X150323118Y-115213911D01*
X150418605Y-115379299D01*
X150423023Y-115384206D01*
X150423024Y-115384207D01*
X150482245Y-115449979D01*
X150546392Y-115521221D01*
X150587062Y-115550769D01*
X150607829Y-115565858D01*
X150651183Y-115622081D01*
X150657258Y-115692817D01*
X150624126Y-115755609D01*
X150607829Y-115769730D01*
X150513403Y-115838335D01*
X150501980Y-115846634D01*
X150374193Y-115988556D01*
X150278706Y-116153944D01*
X150219691Y-116335572D01*
X150219001Y-116342133D01*
X150219001Y-116342135D01*
X150213022Y-116399020D01*
X150199729Y-116525500D01*
X149048443Y-116525500D01*
X148956752Y-116458882D01*
X148950724Y-116456198D01*
X148950722Y-116456197D01*
X148788319Y-116383891D01*
X148788318Y-116383891D01*
X148782288Y-116381206D01*
X148671490Y-116357655D01*
X148601944Y-116342872D01*
X148601939Y-116342872D01*
X148595487Y-116341500D01*
X148404513Y-116341500D01*
X148398061Y-116342872D01*
X148398056Y-116342872D01*
X148328510Y-116357655D01*
X148217712Y-116381206D01*
X148211682Y-116383891D01*
X148211681Y-116383891D01*
X148049278Y-116456197D01*
X148049276Y-116456198D01*
X148043248Y-116458882D01*
X147888747Y-116571134D01*
X147884326Y-116576044D01*
X147884325Y-116576045D01*
X147803219Y-116666123D01*
X147760960Y-116713056D01*
X147665473Y-116878444D01*
X147606458Y-117060072D01*
X147605768Y-117066633D01*
X147605768Y-117066635D01*
X147597531Y-117145009D01*
X147586496Y-117250000D01*
X131008500Y-117250000D01*
X131008500Y-115325999D01*
X146586496Y-115325999D01*
X146587186Y-115332564D01*
X146599011Y-115445068D01*
X146606458Y-115515927D01*
X146665473Y-115697555D01*
X146760960Y-115862943D01*
X146888747Y-116004865D01*
X146987843Y-116076863D01*
X147014606Y-116096307D01*
X147043248Y-116117117D01*
X147049276Y-116119801D01*
X147049278Y-116119802D01*
X147211681Y-116192108D01*
X147217712Y-116194793D01*
X147311113Y-116214646D01*
X147398056Y-116233127D01*
X147398061Y-116233127D01*
X147404513Y-116234499D01*
X147595487Y-116234499D01*
X147601939Y-116233127D01*
X147601944Y-116233127D01*
X147688887Y-116214646D01*
X147782288Y-116194793D01*
X147788319Y-116192108D01*
X147950722Y-116119802D01*
X147950724Y-116119801D01*
X147956752Y-116117117D01*
X147985395Y-116096307D01*
X148012157Y-116076863D01*
X148111253Y-116004865D01*
X148239040Y-115862943D01*
X148334527Y-115697555D01*
X148393542Y-115515927D01*
X148400990Y-115445068D01*
X148412814Y-115332564D01*
X148413504Y-115325999D01*
X148394384Y-115144084D01*
X148394232Y-115142634D01*
X148394232Y-115142632D01*
X148393542Y-115136071D01*
X148334527Y-114954443D01*
X148239040Y-114789055D01*
X148141924Y-114681196D01*
X148115675Y-114652044D01*
X148115674Y-114652043D01*
X148111253Y-114647133D01*
X147956752Y-114534881D01*
X147950724Y-114532197D01*
X147950722Y-114532196D01*
X147788319Y-114459890D01*
X147788318Y-114459890D01*
X147782288Y-114457205D01*
X147677117Y-114434850D01*
X147601944Y-114418871D01*
X147601939Y-114418871D01*
X147595487Y-114417499D01*
X147404513Y-114417499D01*
X147398061Y-114418871D01*
X147398056Y-114418871D01*
X147322883Y-114434850D01*
X147217712Y-114457205D01*
X147211682Y-114459890D01*
X147211681Y-114459890D01*
X147049278Y-114532196D01*
X147049276Y-114532197D01*
X147043248Y-114534881D01*
X146888747Y-114647133D01*
X146884326Y-114652043D01*
X146884325Y-114652044D01*
X146858077Y-114681196D01*
X146760960Y-114789055D01*
X146665473Y-114954443D01*
X146606458Y-115136071D01*
X146605768Y-115142632D01*
X146605768Y-115142634D01*
X146605616Y-115144084D01*
X146586496Y-115325999D01*
X131008500Y-115325999D01*
X131008500Y-113527722D01*
X139308774Y-113527722D01*
X139309464Y-113534287D01*
X139325133Y-113683365D01*
X139328736Y-113717650D01*
X139387751Y-113899278D01*
X139483238Y-114064666D01*
X139487656Y-114069573D01*
X139487657Y-114069574D01*
X139596024Y-114189928D01*
X139611025Y-114206588D01*
X139648987Y-114234169D01*
X139747043Y-114305411D01*
X139765526Y-114318840D01*
X139771554Y-114321524D01*
X139771556Y-114321525D01*
X139933959Y-114393831D01*
X139939990Y-114396516D01*
X140033390Y-114416369D01*
X140120334Y-114434850D01*
X140120339Y-114434850D01*
X140126791Y-114436222D01*
X140317765Y-114436222D01*
X140324217Y-114434850D01*
X140324222Y-114434850D01*
X140411166Y-114416369D01*
X140504566Y-114396516D01*
X140510597Y-114393831D01*
X140673000Y-114321525D01*
X140673002Y-114321524D01*
X140679030Y-114318840D01*
X140697514Y-114305411D01*
X140795569Y-114234169D01*
X140833531Y-114206588D01*
X140848532Y-114189928D01*
X140956899Y-114069574D01*
X140956900Y-114069573D01*
X140961318Y-114064666D01*
X140998653Y-114000000D01*
X142286496Y-114000000D01*
X142287186Y-114006565D01*
X142305458Y-114180409D01*
X142306458Y-114189928D01*
X142365473Y-114371556D01*
X142368776Y-114377278D01*
X142368777Y-114377279D01*
X142386803Y-114408500D01*
X142460960Y-114536944D01*
X142465378Y-114541851D01*
X142465379Y-114541852D01*
X142572364Y-114660671D01*
X142588747Y-114678866D01*
X142687843Y-114750864D01*
X142724750Y-114777678D01*
X142743248Y-114791118D01*
X142749276Y-114793802D01*
X142749278Y-114793803D01*
X142873074Y-114848920D01*
X142917712Y-114868794D01*
X143011112Y-114888647D01*
X143098056Y-114907128D01*
X143098061Y-114907128D01*
X143104513Y-114908500D01*
X143295487Y-114908500D01*
X143301939Y-114907128D01*
X143301944Y-114907128D01*
X143388888Y-114888647D01*
X143482288Y-114868794D01*
X143526926Y-114848920D01*
X143650722Y-114793803D01*
X143650724Y-114793802D01*
X143656752Y-114791118D01*
X143675251Y-114777678D01*
X143712157Y-114750864D01*
X143811253Y-114678866D01*
X143827636Y-114660671D01*
X143934621Y-114541852D01*
X143934622Y-114541851D01*
X143939040Y-114536944D01*
X144013197Y-114408500D01*
X144031223Y-114377279D01*
X144031224Y-114377278D01*
X144034527Y-114371556D01*
X144093542Y-114189928D01*
X144094543Y-114180409D01*
X144112814Y-114006565D01*
X144113504Y-114000000D01*
X144109700Y-113963803D01*
X144094232Y-113816635D01*
X144094232Y-113816633D01*
X144093542Y-113810072D01*
X144034527Y-113628444D01*
X143960370Y-113500000D01*
X152336496Y-113500000D01*
X152356458Y-113689928D01*
X152415473Y-113871556D01*
X152418776Y-113877278D01*
X152418777Y-113877279D01*
X152434784Y-113905004D01*
X152510960Y-114036944D01*
X152515378Y-114041851D01*
X152515379Y-114041852D01*
X152629323Y-114168400D01*
X152638747Y-114178866D01*
X152793248Y-114291118D01*
X152799276Y-114293802D01*
X152799278Y-114293803D01*
X152959799Y-114365271D01*
X152967712Y-114368794D01*
X153061113Y-114388647D01*
X153148056Y-114407128D01*
X153148061Y-114407128D01*
X153154513Y-114408500D01*
X153345487Y-114408500D01*
X153351939Y-114407128D01*
X153351944Y-114407128D01*
X153438887Y-114388647D01*
X153532288Y-114368794D01*
X153540201Y-114365271D01*
X153700722Y-114293803D01*
X153700724Y-114293802D01*
X153706752Y-114291118D01*
X153861253Y-114178866D01*
X153870677Y-114168400D01*
X153984621Y-114041852D01*
X153984622Y-114041851D01*
X153989040Y-114036944D01*
X154065216Y-113905004D01*
X154081223Y-113877279D01*
X154081224Y-113877278D01*
X154084527Y-113871556D01*
X154143542Y-113689928D01*
X154163504Y-113500000D01*
X154157701Y-113444786D01*
X154144232Y-113316635D01*
X154144232Y-113316633D01*
X154143542Y-113310072D01*
X154084527Y-113128444D01*
X154063990Y-113092872D01*
X154036159Y-113044669D01*
X153989040Y-112963056D01*
X153861253Y-112821134D01*
X153706752Y-112708882D01*
X153700724Y-112706198D01*
X153700722Y-112706197D01*
X153538319Y-112633891D01*
X153538318Y-112633891D01*
X153532288Y-112631206D01*
X153438887Y-112611353D01*
X153351944Y-112592872D01*
X153351939Y-112592872D01*
X153345487Y-112591500D01*
X153154513Y-112591500D01*
X153148061Y-112592872D01*
X153148056Y-112592872D01*
X153061113Y-112611353D01*
X152967712Y-112631206D01*
X152961682Y-112633891D01*
X152961681Y-112633891D01*
X152799278Y-112706197D01*
X152799276Y-112706198D01*
X152793248Y-112708882D01*
X152638747Y-112821134D01*
X152510960Y-112963056D01*
X152463841Y-113044669D01*
X152436011Y-113092872D01*
X152415473Y-113128444D01*
X152356458Y-113310072D01*
X152355768Y-113316633D01*
X152355768Y-113316635D01*
X152342299Y-113444786D01*
X152336496Y-113500000D01*
X143960370Y-113500000D01*
X143939040Y-113463056D01*
X143811253Y-113321134D01*
X143656752Y-113208882D01*
X143650724Y-113206198D01*
X143650722Y-113206197D01*
X143488319Y-113133891D01*
X143488318Y-113133891D01*
X143482288Y-113131206D01*
X143388888Y-113111353D01*
X143301944Y-113092872D01*
X143301939Y-113092872D01*
X143295487Y-113091500D01*
X143104513Y-113091500D01*
X143098061Y-113092872D01*
X143098056Y-113092872D01*
X143011112Y-113111353D01*
X142917712Y-113131206D01*
X142911682Y-113133891D01*
X142911681Y-113133891D01*
X142749278Y-113206197D01*
X142749276Y-113206198D01*
X142743248Y-113208882D01*
X142588747Y-113321134D01*
X142460960Y-113463056D01*
X142365473Y-113628444D01*
X142306458Y-113810072D01*
X142305768Y-113816633D01*
X142305768Y-113816635D01*
X142290300Y-113963803D01*
X142286496Y-114000000D01*
X140998653Y-114000000D01*
X141056805Y-113899278D01*
X141115820Y-113717650D01*
X141119424Y-113683365D01*
X141135092Y-113534287D01*
X141135782Y-113527722D01*
X141132868Y-113500000D01*
X141116510Y-113344357D01*
X141116510Y-113344355D01*
X141115820Y-113337794D01*
X141056805Y-113156166D01*
X141043945Y-113133891D01*
X140964619Y-112996496D01*
X140961318Y-112990778D01*
X140833531Y-112848856D01*
X140706932Y-112756876D01*
X140684372Y-112740485D01*
X140684371Y-112740484D01*
X140679030Y-112736604D01*
X140673002Y-112733920D01*
X140673000Y-112733919D01*
X140510597Y-112661613D01*
X140510596Y-112661613D01*
X140504566Y-112658928D01*
X140386777Y-112633891D01*
X140324222Y-112620594D01*
X140324217Y-112620594D01*
X140317765Y-112619222D01*
X140126791Y-112619222D01*
X140120339Y-112620594D01*
X140120334Y-112620594D01*
X140057779Y-112633891D01*
X139939990Y-112658928D01*
X139933960Y-112661613D01*
X139933959Y-112661613D01*
X139771556Y-112733919D01*
X139771554Y-112733920D01*
X139765526Y-112736604D01*
X139760185Y-112740484D01*
X139760184Y-112740485D01*
X139737624Y-112756876D01*
X139611025Y-112848856D01*
X139483238Y-112990778D01*
X139479937Y-112996496D01*
X139400612Y-113133891D01*
X139387751Y-113156166D01*
X139328736Y-113337794D01*
X139328046Y-113344355D01*
X139328046Y-113344357D01*
X139311688Y-113500000D01*
X139308774Y-113527722D01*
X131008500Y-113527722D01*
X131008500Y-113044669D01*
X131992001Y-113044669D01*
X131992371Y-113051490D01*
X131997895Y-113102352D01*
X132001521Y-113117604D01*
X132046676Y-113238054D01*
X132055214Y-113253649D01*
X132131715Y-113355724D01*
X132144276Y-113368285D01*
X132246351Y-113444786D01*
X132261946Y-113453324D01*
X132382394Y-113498478D01*
X132397649Y-113502105D01*
X132448514Y-113507631D01*
X132455328Y-113508000D01*
X132727885Y-113508000D01*
X132743124Y-113503525D01*
X132744329Y-113502135D01*
X132746000Y-113494452D01*
X132746000Y-113489884D01*
X133254000Y-113489884D01*
X133258475Y-113505123D01*
X133259865Y-113506328D01*
X133267548Y-113507999D01*
X133544669Y-113507999D01*
X133551490Y-113507629D01*
X133602352Y-113502105D01*
X133617604Y-113498479D01*
X133738054Y-113453324D01*
X133753649Y-113444786D01*
X133855724Y-113368285D01*
X133868285Y-113355724D01*
X133944786Y-113253649D01*
X133953324Y-113238054D01*
X133998478Y-113117606D01*
X134002105Y-113102351D01*
X134007631Y-113051486D01*
X134008000Y-113044672D01*
X134008000Y-112772115D01*
X134003525Y-112756876D01*
X134002135Y-112755671D01*
X133994452Y-112754000D01*
X133272115Y-112754000D01*
X133256876Y-112758475D01*
X133255671Y-112759865D01*
X133254000Y-112767548D01*
X133254000Y-113489884D01*
X132746000Y-113489884D01*
X132746000Y-112772115D01*
X132741525Y-112756876D01*
X132740135Y-112755671D01*
X132732452Y-112754000D01*
X132010116Y-112754000D01*
X131994877Y-112758475D01*
X131993672Y-112759865D01*
X131992001Y-112767548D01*
X131992001Y-113044669D01*
X131008500Y-113044669D01*
X131008500Y-111215851D01*
X131986719Y-111215851D01*
X131987235Y-111221995D01*
X131998077Y-111351109D01*
X132003268Y-111412934D01*
X132057783Y-111603050D01*
X132060602Y-111608535D01*
X132064402Y-111615929D01*
X132077750Y-111685660D01*
X132057667Y-111737468D01*
X132059521Y-111738483D01*
X132046677Y-111761942D01*
X132001522Y-111882394D01*
X131997895Y-111897649D01*
X131992369Y-111948514D01*
X131992000Y-111955328D01*
X131992000Y-112227885D01*
X131996475Y-112243124D01*
X131997865Y-112244329D01*
X132005548Y-112246000D01*
X133989884Y-112246000D01*
X134005123Y-112241525D01*
X134006328Y-112240135D01*
X134007999Y-112232452D01*
X134007999Y-111955331D01*
X134007629Y-111948510D01*
X134002105Y-111897648D01*
X133998479Y-111882396D01*
X133953324Y-111761946D01*
X133940478Y-111738483D01*
X133942602Y-111737320D01*
X133922313Y-111683007D01*
X133928429Y-111634183D01*
X133941867Y-111593787D01*
X133973066Y-111500000D01*
X145086496Y-111500000D01*
X145087186Y-111506565D01*
X145105731Y-111683007D01*
X145106458Y-111689928D01*
X145165473Y-111871556D01*
X145260960Y-112036944D01*
X145265378Y-112041851D01*
X145265379Y-112041852D01*
X145370521Y-112158624D01*
X145388747Y-112178866D01*
X145543248Y-112291118D01*
X145549276Y-112293802D01*
X145549278Y-112293803D01*
X145709799Y-112365271D01*
X145717712Y-112368794D01*
X145811112Y-112388647D01*
X145898056Y-112407128D01*
X145898061Y-112407128D01*
X145904513Y-112408500D01*
X146095487Y-112408500D01*
X146101939Y-112407128D01*
X146101944Y-112407128D01*
X146242369Y-112377279D01*
X146255091Y-112374575D01*
X146325881Y-112379977D01*
X146374921Y-112413511D01*
X146388747Y-112428866D01*
X146543248Y-112541118D01*
X146549276Y-112543802D01*
X146549278Y-112543803D01*
X146680414Y-112602188D01*
X146717712Y-112618794D01*
X146811113Y-112638647D01*
X146898056Y-112657128D01*
X146898061Y-112657128D01*
X146904513Y-112658500D01*
X147095487Y-112658500D01*
X147101939Y-112657128D01*
X147101944Y-112657128D01*
X147230349Y-112629834D01*
X147255091Y-112624575D01*
X147325881Y-112629977D01*
X147374921Y-112663511D01*
X147388747Y-112678866D01*
X147543248Y-112791118D01*
X147549276Y-112793802D01*
X147549278Y-112793803D01*
X147711681Y-112866109D01*
X147717712Y-112868794D01*
X147811113Y-112888647D01*
X147898056Y-112907128D01*
X147898061Y-112907128D01*
X147904513Y-112908500D01*
X148095487Y-112908500D01*
X148101939Y-112907128D01*
X148101944Y-112907128D01*
X148188887Y-112888647D01*
X148282288Y-112868794D01*
X148288319Y-112866109D01*
X148450722Y-112793803D01*
X148450724Y-112793802D01*
X148456752Y-112791118D01*
X148611253Y-112678866D01*
X148680328Y-112602150D01*
X148734621Y-112541852D01*
X148734622Y-112541851D01*
X148739040Y-112536944D01*
X148809476Y-112414945D01*
X148831223Y-112377279D01*
X148831224Y-112377278D01*
X148834527Y-112371556D01*
X148893542Y-112189928D01*
X148913504Y-112000000D01*
X150336496Y-112000000D01*
X150356458Y-112189928D01*
X150415473Y-112371556D01*
X150418776Y-112377278D01*
X150418777Y-112377279D01*
X150440524Y-112414945D01*
X150510960Y-112536944D01*
X150515378Y-112541851D01*
X150515379Y-112541852D01*
X150569672Y-112602150D01*
X150638747Y-112678866D01*
X150793248Y-112791118D01*
X150799276Y-112793802D01*
X150799278Y-112793803D01*
X150961681Y-112866109D01*
X150967712Y-112868794D01*
X151061113Y-112888647D01*
X151148056Y-112907128D01*
X151148061Y-112907128D01*
X151154513Y-112908500D01*
X151345487Y-112908500D01*
X151351939Y-112907128D01*
X151351944Y-112907128D01*
X151438887Y-112888647D01*
X151532288Y-112868794D01*
X151538319Y-112866109D01*
X151700722Y-112793803D01*
X151700724Y-112793802D01*
X151706752Y-112791118D01*
X151861253Y-112678866D01*
X151930328Y-112602150D01*
X151984621Y-112541852D01*
X151984622Y-112541851D01*
X151989040Y-112536944D01*
X152059476Y-112414945D01*
X152081223Y-112377279D01*
X152081224Y-112377278D01*
X152084527Y-112371556D01*
X152143542Y-112189928D01*
X152163504Y-112000000D01*
X152152747Y-111897649D01*
X152144232Y-111816635D01*
X152144232Y-111816633D01*
X152143542Y-111810072D01*
X152084527Y-111628444D01*
X152077302Y-111615929D01*
X152014160Y-111506565D01*
X151989040Y-111463056D01*
X151975838Y-111448393D01*
X151865675Y-111326045D01*
X151865674Y-111326044D01*
X151861253Y-111321134D01*
X151730994Y-111226495D01*
X151716344Y-111215851D01*
X165486719Y-111215851D01*
X165487235Y-111221995D01*
X165498077Y-111351109D01*
X165503268Y-111412934D01*
X165557783Y-111603050D01*
X165560602Y-111608535D01*
X165564402Y-111615929D01*
X165577750Y-111685660D01*
X165557667Y-111737468D01*
X165559521Y-111738483D01*
X165546677Y-111761942D01*
X165501522Y-111882394D01*
X165497895Y-111897649D01*
X165492369Y-111948514D01*
X165492000Y-111955328D01*
X165492000Y-112227885D01*
X165496475Y-112243124D01*
X165497865Y-112244329D01*
X165505548Y-112246000D01*
X167489884Y-112246000D01*
X167505123Y-112241525D01*
X167506328Y-112240135D01*
X167507999Y-112232452D01*
X167507999Y-111955331D01*
X167507629Y-111948510D01*
X167502105Y-111897648D01*
X167498479Y-111882396D01*
X167453324Y-111761946D01*
X167440478Y-111738483D01*
X167442602Y-111737320D01*
X167422313Y-111683007D01*
X167428429Y-111634183D01*
X167441867Y-111593787D01*
X167488197Y-111454513D01*
X167512985Y-111258295D01*
X167513380Y-111230000D01*
X167494080Y-111033167D01*
X167436916Y-110843831D01*
X167344066Y-110669204D01*
X167340167Y-110664424D01*
X167339715Y-110663743D01*
X167318676Y-110595935D01*
X167335105Y-110531775D01*
X167422723Y-110377542D01*
X167422725Y-110377537D01*
X167425769Y-110372179D01*
X167488197Y-110184513D01*
X167512985Y-109988295D01*
X167513380Y-109960000D01*
X167494080Y-109763167D01*
X167491110Y-109753328D01*
X167438697Y-109579731D01*
X167436916Y-109573831D01*
X167344066Y-109399204D01*
X167340167Y-109394424D01*
X167339715Y-109393743D01*
X167318676Y-109325935D01*
X167335105Y-109261775D01*
X167422723Y-109107542D01*
X167422725Y-109107537D01*
X167425769Y-109102179D01*
X167488197Y-108914513D01*
X167512985Y-108718295D01*
X167513380Y-108690000D01*
X167494080Y-108493167D01*
X167436916Y-108303831D01*
X167344066Y-108129204D01*
X167340167Y-108124424D01*
X167339715Y-108123743D01*
X167318676Y-108055935D01*
X167335105Y-107991775D01*
X167422723Y-107837542D01*
X167422725Y-107837537D01*
X167425769Y-107832179D01*
X167488197Y-107644513D01*
X167512985Y-107448295D01*
X167513289Y-107426544D01*
X167513331Y-107423523D01*
X167513331Y-107423520D01*
X167513380Y-107420000D01*
X167494080Y-107223167D01*
X167436916Y-107033831D01*
X167344066Y-106859204D01*
X167256023Y-106751253D01*
X167222960Y-106710713D01*
X167222957Y-106710710D01*
X167219065Y-106705938D01*
X167212724Y-106700692D01*
X167071425Y-106583799D01*
X167071421Y-106583797D01*
X167066675Y-106579870D01*
X166892701Y-106485802D01*
X166703768Y-106427318D01*
X166697643Y-106426674D01*
X166697642Y-106426674D01*
X166513204Y-106407289D01*
X166513202Y-106407289D01*
X166507075Y-106406645D01*
X166424576Y-106414153D01*
X166316251Y-106424011D01*
X166316248Y-106424012D01*
X166310112Y-106424570D01*
X166304206Y-106426308D01*
X166304202Y-106426309D01*
X166239204Y-106445439D01*
X166120381Y-106480410D01*
X166114923Y-106483263D01*
X166114919Y-106483265D01*
X166029578Y-106527881D01*
X165945110Y-106572040D01*
X165790975Y-106695968D01*
X165663846Y-106847474D01*
X165660879Y-106852872D01*
X165660875Y-106852877D01*
X165631816Y-106905736D01*
X165568567Y-107020787D01*
X165566706Y-107026654D01*
X165566705Y-107026656D01*
X165546135Y-107091500D01*
X165508765Y-107209306D01*
X165486719Y-107405851D01*
X165487235Y-107411995D01*
X165499084Y-107553103D01*
X165503268Y-107602934D01*
X165557783Y-107793050D01*
X165648187Y-107968956D01*
X165652016Y-107973787D01*
X165653839Y-107976088D01*
X165654414Y-107977509D01*
X165655353Y-107978966D01*
X165655076Y-107979144D01*
X165680474Y-108041898D01*
X165667301Y-108111662D01*
X165663846Y-108117474D01*
X165568567Y-108290787D01*
X165566706Y-108296654D01*
X165566705Y-108296656D01*
X165544939Y-108365271D01*
X165508765Y-108479306D01*
X165486719Y-108675851D01*
X165487235Y-108681995D01*
X165500357Y-108838263D01*
X165503268Y-108872934D01*
X165557783Y-109063050D01*
X165560602Y-109068535D01*
X165633213Y-109209819D01*
X165648187Y-109238956D01*
X165652016Y-109243787D01*
X165653839Y-109246088D01*
X165654414Y-109247509D01*
X165655353Y-109248966D01*
X165655076Y-109249144D01*
X165680474Y-109311898D01*
X165667301Y-109381662D01*
X165663846Y-109387474D01*
X165568567Y-109560787D01*
X165566706Y-109566654D01*
X165566705Y-109566656D01*
X165526402Y-109693706D01*
X165508765Y-109749306D01*
X165486719Y-109945851D01*
X165487235Y-109951995D01*
X165501682Y-110124042D01*
X165503268Y-110142934D01*
X165557783Y-110333050D01*
X165560602Y-110338535D01*
X165602839Y-110420718D01*
X165648187Y-110508956D01*
X165652016Y-110513787D01*
X165653839Y-110516088D01*
X165654414Y-110517509D01*
X165655353Y-110518966D01*
X165655076Y-110519144D01*
X165680474Y-110581898D01*
X165667301Y-110651662D01*
X165663846Y-110657474D01*
X165568567Y-110830787D01*
X165566706Y-110836654D01*
X165566705Y-110836656D01*
X165526609Y-110963056D01*
X165508765Y-111019306D01*
X165486719Y-111215851D01*
X151716344Y-111215851D01*
X151712094Y-111212763D01*
X151712093Y-111212762D01*
X151706752Y-111208882D01*
X151700724Y-111206198D01*
X151700722Y-111206197D01*
X151538319Y-111133891D01*
X151538318Y-111133891D01*
X151532288Y-111131206D01*
X151438888Y-111111353D01*
X151351944Y-111092872D01*
X151351939Y-111092872D01*
X151345487Y-111091500D01*
X151154513Y-111091500D01*
X151148061Y-111092872D01*
X151148056Y-111092872D01*
X151061112Y-111111353D01*
X150967712Y-111131206D01*
X150961682Y-111133891D01*
X150961681Y-111133891D01*
X150799278Y-111206197D01*
X150799276Y-111206198D01*
X150793248Y-111208882D01*
X150787907Y-111212762D01*
X150787906Y-111212763D01*
X150769006Y-111226495D01*
X150638747Y-111321134D01*
X150634326Y-111326044D01*
X150634325Y-111326045D01*
X150524163Y-111448393D01*
X150510960Y-111463056D01*
X150485840Y-111506565D01*
X150422699Y-111615929D01*
X150415473Y-111628444D01*
X150356458Y-111810072D01*
X150355768Y-111816633D01*
X150355768Y-111816635D01*
X150347253Y-111897649D01*
X150336496Y-112000000D01*
X148913504Y-112000000D01*
X148902747Y-111897649D01*
X148894232Y-111816635D01*
X148894232Y-111816633D01*
X148893542Y-111810072D01*
X148834527Y-111628444D01*
X148827302Y-111615929D01*
X148764160Y-111506565D01*
X148739040Y-111463056D01*
X148725838Y-111448393D01*
X148615675Y-111326045D01*
X148615674Y-111326044D01*
X148611253Y-111321134D01*
X148480994Y-111226495D01*
X148462094Y-111212763D01*
X148462093Y-111212762D01*
X148456752Y-111208882D01*
X148450724Y-111206198D01*
X148450722Y-111206197D01*
X148288319Y-111133891D01*
X148288318Y-111133891D01*
X148282288Y-111131206D01*
X148188888Y-111111353D01*
X148101944Y-111092872D01*
X148101939Y-111092872D01*
X148095487Y-111091500D01*
X147904513Y-111091500D01*
X147898061Y-111092872D01*
X147898056Y-111092872D01*
X147780257Y-111117911D01*
X147744909Y-111125425D01*
X147674119Y-111120023D01*
X147625079Y-111086489D01*
X147611253Y-111071134D01*
X147456752Y-110958882D01*
X147450724Y-110956198D01*
X147450722Y-110956197D01*
X147288319Y-110883891D01*
X147288318Y-110883891D01*
X147282288Y-110881206D01*
X147188887Y-110861353D01*
X147101944Y-110842872D01*
X147101939Y-110842872D01*
X147095487Y-110841500D01*
X146904513Y-110841500D01*
X146898061Y-110842872D01*
X146898056Y-110842872D01*
X146780257Y-110867911D01*
X146744909Y-110875425D01*
X146674119Y-110870023D01*
X146625079Y-110836489D01*
X146611253Y-110821134D01*
X146456752Y-110708882D01*
X146450724Y-110706198D01*
X146450722Y-110706197D01*
X146288319Y-110633891D01*
X146288318Y-110633891D01*
X146282288Y-110631206D01*
X146188887Y-110611353D01*
X146101944Y-110592872D01*
X146101939Y-110592872D01*
X146095487Y-110591500D01*
X145904513Y-110591500D01*
X145898061Y-110592872D01*
X145898056Y-110592872D01*
X145811113Y-110611353D01*
X145717712Y-110631206D01*
X145711682Y-110633891D01*
X145711681Y-110633891D01*
X145549278Y-110706197D01*
X145549276Y-110706198D01*
X145543248Y-110708882D01*
X145388747Y-110821134D01*
X145384326Y-110826044D01*
X145384325Y-110826045D01*
X145368311Y-110843831D01*
X145260960Y-110963056D01*
X145220481Y-111033167D01*
X145186011Y-111092872D01*
X145165473Y-111128444D01*
X145106458Y-111310072D01*
X145086496Y-111500000D01*
X133973066Y-111500000D01*
X133988197Y-111454513D01*
X134012985Y-111258295D01*
X134013380Y-111230000D01*
X133994080Y-111033167D01*
X133936916Y-110843831D01*
X133844066Y-110669204D01*
X133840167Y-110664424D01*
X133839715Y-110663743D01*
X133818676Y-110595935D01*
X133826886Y-110563872D01*
X135022624Y-110563872D01*
X135042586Y-110753800D01*
X135101601Y-110935428D01*
X135197088Y-111100816D01*
X135201506Y-111105723D01*
X135201507Y-111105724D01*
X135291973Y-111206197D01*
X135324875Y-111242738D01*
X135479376Y-111354990D01*
X135485404Y-111357674D01*
X135485406Y-111357675D01*
X135647809Y-111429981D01*
X135653840Y-111432666D01*
X135747241Y-111452519D01*
X135834184Y-111471000D01*
X135834189Y-111471000D01*
X135840641Y-111472372D01*
X136031615Y-111472372D01*
X136038067Y-111471000D01*
X136038072Y-111471000D01*
X136125015Y-111452519D01*
X136218416Y-111432666D01*
X136224447Y-111429981D01*
X136386850Y-111357675D01*
X136386852Y-111357674D01*
X136392880Y-111354990D01*
X136547381Y-111242738D01*
X136580283Y-111206197D01*
X136670749Y-111105724D01*
X136670750Y-111105723D01*
X136675168Y-111100816D01*
X136770655Y-110935428D01*
X136829670Y-110753800D01*
X136849632Y-110563872D01*
X136843284Y-110503477D01*
X136830360Y-110380507D01*
X136830360Y-110380505D01*
X136829670Y-110373944D01*
X136770655Y-110192316D01*
X136745565Y-110148858D01*
X136678469Y-110032646D01*
X136675168Y-110026928D01*
X136547381Y-109885006D01*
X136392880Y-109772754D01*
X136386852Y-109770070D01*
X136386850Y-109770069D01*
X136334504Y-109746763D01*
X160333259Y-109746763D01*
X160333949Y-109753328D01*
X160347381Y-109881123D01*
X160353221Y-109936691D01*
X160412236Y-110118319D01*
X160415539Y-110124041D01*
X160415540Y-110124042D01*
X160429868Y-110148858D01*
X160507723Y-110283707D01*
X160512141Y-110288614D01*
X160512142Y-110288615D01*
X160557090Y-110338535D01*
X160635510Y-110425629D01*
X160734606Y-110497627D01*
X160760016Y-110516088D01*
X160790011Y-110537881D01*
X160796039Y-110540565D01*
X160796041Y-110540566D01*
X160919152Y-110595378D01*
X160964475Y-110615557D01*
X161050729Y-110633891D01*
X161144819Y-110653891D01*
X161144824Y-110653891D01*
X161151276Y-110655263D01*
X161342250Y-110655263D01*
X161348702Y-110653891D01*
X161348707Y-110653891D01*
X161442797Y-110633891D01*
X161529051Y-110615557D01*
X161574374Y-110595378D01*
X161697485Y-110540566D01*
X161697487Y-110540565D01*
X161703515Y-110537881D01*
X161733511Y-110516088D01*
X161758920Y-110497627D01*
X161858016Y-110425629D01*
X161936436Y-110338535D01*
X161981384Y-110288615D01*
X161981385Y-110288614D01*
X161985803Y-110283707D01*
X162063658Y-110148858D01*
X162077986Y-110124042D01*
X162077987Y-110124041D01*
X162081290Y-110118319D01*
X162140305Y-109936691D01*
X162146146Y-109881123D01*
X162159577Y-109753328D01*
X162160267Y-109746763D01*
X162150662Y-109655372D01*
X162140995Y-109563398D01*
X162140995Y-109563396D01*
X162140305Y-109556835D01*
X162081290Y-109375207D01*
X161985803Y-109209819D01*
X161893713Y-109107542D01*
X161862438Y-109072808D01*
X161862437Y-109072807D01*
X161858016Y-109067897D01*
X161703515Y-108955645D01*
X161697487Y-108952961D01*
X161697485Y-108952960D01*
X161535082Y-108880654D01*
X161535081Y-108880654D01*
X161529051Y-108877969D01*
X161435651Y-108858116D01*
X161348707Y-108839635D01*
X161348702Y-108839635D01*
X161342250Y-108838263D01*
X161151276Y-108838263D01*
X161144824Y-108839635D01*
X161144819Y-108839635D01*
X161057875Y-108858116D01*
X160964475Y-108877969D01*
X160958445Y-108880654D01*
X160958444Y-108880654D01*
X160796041Y-108952960D01*
X160796039Y-108952961D01*
X160790011Y-108955645D01*
X160635510Y-109067897D01*
X160631089Y-109072807D01*
X160631088Y-109072808D01*
X160599814Y-109107542D01*
X160507723Y-109209819D01*
X160412236Y-109375207D01*
X160353221Y-109556835D01*
X160352531Y-109563396D01*
X160352531Y-109563398D01*
X160342864Y-109655372D01*
X160333259Y-109746763D01*
X136334504Y-109746763D01*
X136224447Y-109697763D01*
X136224446Y-109697763D01*
X136218416Y-109695078D01*
X136125015Y-109675225D01*
X136038072Y-109656744D01*
X136038067Y-109656744D01*
X136031615Y-109655372D01*
X135840641Y-109655372D01*
X135834189Y-109656744D01*
X135834184Y-109656744D01*
X135747240Y-109675225D01*
X135653840Y-109695078D01*
X135647810Y-109697763D01*
X135647809Y-109697763D01*
X135485406Y-109770069D01*
X135485404Y-109770070D01*
X135479376Y-109772754D01*
X135324875Y-109885006D01*
X135197088Y-110026928D01*
X135193787Y-110032646D01*
X135126692Y-110148858D01*
X135101601Y-110192316D01*
X135042586Y-110373944D01*
X135041896Y-110380505D01*
X135041896Y-110380507D01*
X135028972Y-110503477D01*
X135022624Y-110563872D01*
X133826886Y-110563872D01*
X133835105Y-110531775D01*
X133922723Y-110377542D01*
X133922725Y-110377537D01*
X133925769Y-110372179D01*
X133988197Y-110184513D01*
X134012985Y-109988295D01*
X134013380Y-109960000D01*
X133994080Y-109763167D01*
X133991110Y-109753328D01*
X133938697Y-109579731D01*
X133936916Y-109573831D01*
X133844066Y-109399204D01*
X133840167Y-109394424D01*
X133839715Y-109393743D01*
X133818676Y-109325935D01*
X133835105Y-109261775D01*
X133922723Y-109107542D01*
X133922725Y-109107537D01*
X133925769Y-109102179D01*
X133988197Y-108914513D01*
X134012985Y-108718295D01*
X134013380Y-108690000D01*
X133994080Y-108493167D01*
X133936916Y-108303831D01*
X133844066Y-108129204D01*
X133840167Y-108124424D01*
X133839715Y-108123743D01*
X133818676Y-108055935D01*
X133835105Y-107991775D01*
X133922723Y-107837542D01*
X133922725Y-107837537D01*
X133925769Y-107832179D01*
X133988197Y-107644513D01*
X134012985Y-107448295D01*
X134013289Y-107426544D01*
X134013331Y-107423523D01*
X134013331Y-107423520D01*
X134013380Y-107420000D01*
X133994080Y-107223167D01*
X133936916Y-107033831D01*
X133844066Y-106859204D01*
X133756023Y-106751253D01*
X133722960Y-106710713D01*
X133722957Y-106710710D01*
X133719065Y-106705938D01*
X133712724Y-106700692D01*
X133571425Y-106583799D01*
X133571421Y-106583797D01*
X133566675Y-106579870D01*
X133392701Y-106485802D01*
X133203768Y-106427318D01*
X133197643Y-106426674D01*
X133197642Y-106426674D01*
X133013204Y-106407289D01*
X133013202Y-106407289D01*
X133007075Y-106406645D01*
X132924576Y-106414153D01*
X132816251Y-106424011D01*
X132816248Y-106424012D01*
X132810112Y-106424570D01*
X132804206Y-106426308D01*
X132804202Y-106426309D01*
X132739204Y-106445439D01*
X132620381Y-106480410D01*
X132614923Y-106483263D01*
X132614919Y-106483265D01*
X132529578Y-106527881D01*
X132445110Y-106572040D01*
X132290975Y-106695968D01*
X132163846Y-106847474D01*
X132160879Y-106852872D01*
X132160875Y-106852877D01*
X132131816Y-106905736D01*
X132068567Y-107020787D01*
X132066706Y-107026654D01*
X132066705Y-107026656D01*
X132046135Y-107091500D01*
X132008765Y-107209306D01*
X131986719Y-107405851D01*
X131987235Y-107411995D01*
X131999084Y-107553103D01*
X132003268Y-107602934D01*
X132057783Y-107793050D01*
X132148187Y-107968956D01*
X132152016Y-107973787D01*
X132153839Y-107976088D01*
X132154414Y-107977509D01*
X132155353Y-107978966D01*
X132155076Y-107979144D01*
X132180474Y-108041898D01*
X132167301Y-108111662D01*
X132163846Y-108117474D01*
X132068567Y-108290787D01*
X132066706Y-108296654D01*
X132066705Y-108296656D01*
X132044939Y-108365271D01*
X132008765Y-108479306D01*
X131986719Y-108675851D01*
X131987235Y-108681995D01*
X132000357Y-108838263D01*
X132003268Y-108872934D01*
X132057783Y-109063050D01*
X132060602Y-109068535D01*
X132133213Y-109209819D01*
X132148187Y-109238956D01*
X132152016Y-109243787D01*
X132153839Y-109246088D01*
X132154414Y-109247509D01*
X132155353Y-109248966D01*
X132155076Y-109249144D01*
X132180474Y-109311898D01*
X132167301Y-109381662D01*
X132163846Y-109387474D01*
X132068567Y-109560787D01*
X132066706Y-109566654D01*
X132066705Y-109566656D01*
X132026402Y-109693706D01*
X132008765Y-109749306D01*
X131986719Y-109945851D01*
X131987235Y-109951995D01*
X132001682Y-110124042D01*
X132003268Y-110142934D01*
X132057783Y-110333050D01*
X132060602Y-110338535D01*
X132102839Y-110420718D01*
X132148187Y-110508956D01*
X132152016Y-110513787D01*
X132153839Y-110516088D01*
X132154414Y-110517509D01*
X132155353Y-110518966D01*
X132155076Y-110519144D01*
X132180474Y-110581898D01*
X132167301Y-110651662D01*
X132163846Y-110657474D01*
X132068567Y-110830787D01*
X132066706Y-110836654D01*
X132066705Y-110836656D01*
X132026609Y-110963056D01*
X132008765Y-111019306D01*
X131986719Y-111215851D01*
X131008500Y-111215851D01*
X131008500Y-105734078D01*
X135352418Y-105734078D01*
X135372380Y-105924006D01*
X135431395Y-106105634D01*
X135526882Y-106271022D01*
X135531300Y-106275929D01*
X135531301Y-106275930D01*
X135615170Y-106369076D01*
X135654669Y-106412944D01*
X135705504Y-106449878D01*
X135799654Y-106518282D01*
X135809170Y-106525196D01*
X135815198Y-106527880D01*
X135815200Y-106527881D01*
X135923060Y-106575903D01*
X135983634Y-106602872D01*
X136077035Y-106622725D01*
X136163978Y-106641206D01*
X136163983Y-106641206D01*
X136170435Y-106642578D01*
X136361409Y-106642578D01*
X136367861Y-106641206D01*
X136367866Y-106641206D01*
X136454809Y-106622725D01*
X136548210Y-106602872D01*
X136608784Y-106575903D01*
X136716644Y-106527881D01*
X136716646Y-106527880D01*
X136722674Y-106525196D01*
X136732191Y-106518282D01*
X136826340Y-106449878D01*
X136877175Y-106412944D01*
X136916674Y-106369076D01*
X137000543Y-106275930D01*
X137000544Y-106275929D01*
X137004962Y-106271022D01*
X137100449Y-106105634D01*
X137144353Y-105970512D01*
X147759286Y-105970512D01*
X147762685Y-106006133D01*
X147764205Y-106015125D01*
X147826122Y-106268158D01*
X147828922Y-106276827D01*
X147926722Y-106518282D01*
X147930744Y-106526455D01*
X148062368Y-106751253D01*
X148067531Y-106758765D01*
X148230231Y-106962213D01*
X148236420Y-106968896D01*
X148426794Y-107146733D01*
X148433871Y-107152443D01*
X148647918Y-107300934D01*
X148655759Y-107305571D01*
X148888997Y-107421604D01*
X148897422Y-107425060D01*
X149144974Y-107506212D01*
X149153799Y-107508412D01*
X149411189Y-107553103D01*
X149418807Y-107553950D01*
X149498592Y-107557922D01*
X149501733Y-107558000D01*
X149514937Y-107558000D01*
X149583058Y-107578002D01*
X149629551Y-107631658D01*
X149639655Y-107701932D01*
X149634770Y-107722936D01*
X149606458Y-107810072D01*
X149605768Y-107816633D01*
X149605768Y-107816635D01*
X149604134Y-107832179D01*
X149586496Y-108000000D01*
X149606458Y-108189928D01*
X149665473Y-108371556D01*
X149760960Y-108536944D01*
X149888747Y-108678866D01*
X150043248Y-108791118D01*
X150049276Y-108793802D01*
X150049278Y-108793803D01*
X150152219Y-108839635D01*
X150217712Y-108868794D01*
X150311113Y-108888647D01*
X150398056Y-108907128D01*
X150398061Y-108907128D01*
X150404513Y-108908500D01*
X150595487Y-108908500D01*
X150601939Y-108907128D01*
X150601944Y-108907128D01*
X150688887Y-108888647D01*
X150782288Y-108868794D01*
X150847781Y-108839635D01*
X150950722Y-108793803D01*
X150950724Y-108793802D01*
X150956752Y-108791118D01*
X151111253Y-108678866D01*
X151239040Y-108536944D01*
X151334527Y-108371556D01*
X151393542Y-108189928D01*
X151413504Y-108000000D01*
X151395866Y-107832179D01*
X151394232Y-107816635D01*
X151394232Y-107816633D01*
X151393542Y-107810072D01*
X151334527Y-107628444D01*
X151257794Y-107495539D01*
X151241056Y-107426544D01*
X151264276Y-107359452D01*
X151305731Y-107322390D01*
X151416101Y-107261085D01*
X151423726Y-107256095D01*
X151630809Y-107098054D01*
X151637636Y-107092014D01*
X151819735Y-106905736D01*
X151825618Y-106898774D01*
X151978922Y-106688157D01*
X151983733Y-106680427D01*
X152105031Y-106449878D01*
X152108678Y-106441528D01*
X152195419Y-106195901D01*
X152197825Y-106187106D01*
X152240267Y-105971775D01*
X152239088Y-105958863D01*
X152223985Y-105954000D01*
X147775826Y-105954000D01*
X147761349Y-105958251D01*
X147759286Y-105970512D01*
X137144353Y-105970512D01*
X137159464Y-105924006D01*
X137179426Y-105734078D01*
X137159464Y-105544150D01*
X137100449Y-105362522D01*
X137004962Y-105197134D01*
X136877175Y-105055212D01*
X136778079Y-104983214D01*
X136728016Y-104946841D01*
X136728015Y-104946840D01*
X136722674Y-104942960D01*
X136716646Y-104940276D01*
X136716644Y-104940275D01*
X136554241Y-104867969D01*
X136554240Y-104867969D01*
X136548210Y-104865284D01*
X136454809Y-104845431D01*
X136367866Y-104826950D01*
X136367861Y-104826950D01*
X136361409Y-104825578D01*
X136170435Y-104825578D01*
X136163983Y-104826950D01*
X136163978Y-104826950D01*
X136077035Y-104845431D01*
X135983634Y-104865284D01*
X135977604Y-104867969D01*
X135977603Y-104867969D01*
X135815200Y-104940275D01*
X135815198Y-104940276D01*
X135809170Y-104942960D01*
X135803829Y-104946840D01*
X135803828Y-104946841D01*
X135753765Y-104983214D01*
X135654669Y-105055212D01*
X135526882Y-105197134D01*
X135431395Y-105362522D01*
X135372380Y-105544150D01*
X135352418Y-105734078D01*
X131008500Y-105734078D01*
X131008500Y-104750000D01*
X140586496Y-104750000D01*
X140587186Y-104756565D01*
X140603011Y-104907128D01*
X140606458Y-104939928D01*
X140665473Y-105121556D01*
X140668776Y-105127278D01*
X140668777Y-105127279D01*
X140702686Y-105186010D01*
X140760960Y-105286944D01*
X140765378Y-105291851D01*
X140765379Y-105291852D01*
X140855470Y-105391908D01*
X140888747Y-105428866D01*
X141043248Y-105541118D01*
X141049276Y-105543802D01*
X141049278Y-105543803D01*
X141134707Y-105581838D01*
X141217712Y-105618794D01*
X141311112Y-105638647D01*
X141398056Y-105657128D01*
X141398061Y-105657128D01*
X141404513Y-105658500D01*
X141595487Y-105658500D01*
X141601939Y-105657128D01*
X141601944Y-105657128D01*
X141688888Y-105638647D01*
X141782288Y-105618794D01*
X141865293Y-105581838D01*
X141880038Y-105575273D01*
X161911769Y-105575273D01*
X161931731Y-105765201D01*
X161990746Y-105946829D01*
X161994049Y-105952551D01*
X161994050Y-105952552D01*
X162024985Y-106006133D01*
X162086233Y-106112217D01*
X162214020Y-106254139D01*
X162368521Y-106366391D01*
X162374549Y-106369075D01*
X162374551Y-106369076D01*
X162503919Y-106426674D01*
X162542985Y-106444067D01*
X162636386Y-106463920D01*
X162723329Y-106482401D01*
X162723334Y-106482401D01*
X162729786Y-106483773D01*
X162920760Y-106483773D01*
X162927212Y-106482401D01*
X162927217Y-106482401D01*
X163014160Y-106463920D01*
X163107561Y-106444067D01*
X163146627Y-106426674D01*
X163275995Y-106369076D01*
X163275997Y-106369075D01*
X163282025Y-106366391D01*
X163436526Y-106254139D01*
X163564313Y-106112217D01*
X163625561Y-106006133D01*
X163656496Y-105952552D01*
X163656497Y-105952551D01*
X163659800Y-105946829D01*
X163718815Y-105765201D01*
X163738777Y-105575273D01*
X163725190Y-105446000D01*
X163719505Y-105391908D01*
X163719505Y-105391906D01*
X163718815Y-105385345D01*
X163659800Y-105203717D01*
X163564313Y-105038329D01*
X163478443Y-104942960D01*
X163440948Y-104901318D01*
X163440947Y-104901317D01*
X163436526Y-104896407D01*
X163337430Y-104824409D01*
X163287367Y-104788036D01*
X163287366Y-104788035D01*
X163282025Y-104784155D01*
X163275997Y-104781471D01*
X163275995Y-104781470D01*
X163113592Y-104709164D01*
X163113591Y-104709164D01*
X163107561Y-104706479D01*
X162995921Y-104682749D01*
X162927217Y-104668145D01*
X162927212Y-104668145D01*
X162920760Y-104666773D01*
X162729786Y-104666773D01*
X162723334Y-104668145D01*
X162723329Y-104668145D01*
X162654625Y-104682749D01*
X162542985Y-104706479D01*
X162536955Y-104709164D01*
X162536954Y-104709164D01*
X162374551Y-104781470D01*
X162374549Y-104781471D01*
X162368521Y-104784155D01*
X162363180Y-104788035D01*
X162363179Y-104788036D01*
X162313116Y-104824409D01*
X162214020Y-104896407D01*
X162209599Y-104901317D01*
X162209598Y-104901318D01*
X162172104Y-104942960D01*
X162086233Y-105038329D01*
X161990746Y-105203717D01*
X161931731Y-105385345D01*
X161931041Y-105391906D01*
X161931041Y-105391908D01*
X161925356Y-105446000D01*
X161911769Y-105575273D01*
X141880038Y-105575273D01*
X141950722Y-105543803D01*
X141950724Y-105543802D01*
X141956752Y-105541118D01*
X142111253Y-105428866D01*
X142111830Y-105428225D01*
X147759733Y-105428225D01*
X147760912Y-105441137D01*
X147776015Y-105446000D01*
X149727885Y-105446000D01*
X149743124Y-105441525D01*
X149744329Y-105440135D01*
X149746000Y-105432452D01*
X149746000Y-105427885D01*
X150254000Y-105427885D01*
X150258475Y-105443124D01*
X150259865Y-105444329D01*
X150267548Y-105446000D01*
X152224174Y-105446000D01*
X152238651Y-105441749D01*
X152240714Y-105429488D01*
X152237315Y-105393867D01*
X152235795Y-105384875D01*
X152173878Y-105131842D01*
X152171078Y-105123173D01*
X152073278Y-104881718D01*
X152069256Y-104873545D01*
X151937632Y-104648747D01*
X151932469Y-104641235D01*
X151769769Y-104437787D01*
X151763580Y-104431104D01*
X151573206Y-104253267D01*
X151566129Y-104247557D01*
X151352082Y-104099066D01*
X151344241Y-104094429D01*
X151111003Y-103978396D01*
X151102578Y-103974940D01*
X150855026Y-103893788D01*
X150846201Y-103891588D01*
X150588811Y-103846897D01*
X150581193Y-103846050D01*
X150501408Y-103842078D01*
X150498267Y-103842000D01*
X150272115Y-103842000D01*
X150256876Y-103846475D01*
X150255671Y-103847865D01*
X150254000Y-103855548D01*
X150254000Y-105427885D01*
X149746000Y-105427885D01*
X149746000Y-103860115D01*
X149741525Y-103844876D01*
X149740135Y-103843671D01*
X149732452Y-103842000D01*
X149533794Y-103842000D01*
X149529223Y-103842165D01*
X149335620Y-103856213D01*
X149326611Y-103857527D01*
X149072231Y-103913689D01*
X149063501Y-103916292D01*
X148819893Y-104008586D01*
X148811632Y-104012421D01*
X148583899Y-104138915D01*
X148576274Y-104143905D01*
X148369191Y-104301946D01*
X148362364Y-104307986D01*
X148180265Y-104494264D01*
X148174382Y-104501226D01*
X148021078Y-104711843D01*
X148016267Y-104719573D01*
X147894969Y-104950122D01*
X147891322Y-104958472D01*
X147804581Y-105204099D01*
X147802175Y-105212894D01*
X147759733Y-105428225D01*
X142111830Y-105428225D01*
X142144530Y-105391908D01*
X142234621Y-105291852D01*
X142234622Y-105291851D01*
X142239040Y-105286944D01*
X142297314Y-105186010D01*
X142331223Y-105127279D01*
X142331224Y-105127278D01*
X142334527Y-105121556D01*
X142393542Y-104939928D01*
X142396990Y-104907128D01*
X142412814Y-104756565D01*
X142413504Y-104750000D01*
X142406028Y-104678866D01*
X142394232Y-104566635D01*
X142394232Y-104566633D01*
X142393542Y-104560072D01*
X142334527Y-104378444D01*
X142239040Y-104213056D01*
X142218216Y-104189928D01*
X142115675Y-104076045D01*
X142115674Y-104076044D01*
X142111253Y-104071134D01*
X141956752Y-103958882D01*
X141950724Y-103956198D01*
X141950722Y-103956197D01*
X141788319Y-103883891D01*
X141788318Y-103883891D01*
X141782288Y-103881206D01*
X141670888Y-103857527D01*
X141601944Y-103842872D01*
X141601939Y-103842872D01*
X141595487Y-103841500D01*
X141404513Y-103841500D01*
X141398061Y-103842872D01*
X141398056Y-103842872D01*
X141329112Y-103857527D01*
X141217712Y-103881206D01*
X141211682Y-103883891D01*
X141211681Y-103883891D01*
X141049278Y-103956197D01*
X141049276Y-103956198D01*
X141043248Y-103958882D01*
X140888747Y-104071134D01*
X140884326Y-104076044D01*
X140884325Y-104076045D01*
X140781785Y-104189928D01*
X140760960Y-104213056D01*
X140665473Y-104378444D01*
X140606458Y-104560072D01*
X140605768Y-104566633D01*
X140605768Y-104566635D01*
X140593972Y-104678866D01*
X140586496Y-104750000D01*
X131008500Y-104750000D01*
X131008500Y-104319909D01*
X131028502Y-104251788D01*
X131082158Y-104205295D01*
X131152432Y-104195191D01*
X131217012Y-104224685D01*
X131243618Y-104256907D01*
X131260960Y-104286944D01*
X131388747Y-104428866D01*
X131543248Y-104541118D01*
X131549276Y-104543802D01*
X131549278Y-104543803D01*
X131600560Y-104566635D01*
X131717712Y-104618794D01*
X131811113Y-104638647D01*
X131898056Y-104657128D01*
X131898061Y-104657128D01*
X131904513Y-104658500D01*
X132095487Y-104658500D01*
X132101939Y-104657128D01*
X132101944Y-104657128D01*
X132188888Y-104638647D01*
X132282288Y-104618794D01*
X132399440Y-104566635D01*
X132450722Y-104543803D01*
X132450724Y-104543802D01*
X132456752Y-104541118D01*
X132611253Y-104428866D01*
X132739040Y-104286944D01*
X132834527Y-104121556D01*
X132893542Y-103939928D01*
X132898392Y-103893788D01*
X132912814Y-103756565D01*
X132913504Y-103750000D01*
X132901920Y-103639786D01*
X132894232Y-103566635D01*
X132894232Y-103566633D01*
X132893542Y-103560072D01*
X132834527Y-103378444D01*
X132739040Y-103213056D01*
X132664552Y-103130328D01*
X132615675Y-103076045D01*
X132615674Y-103076044D01*
X132611253Y-103071134D01*
X132456752Y-102958882D01*
X132450724Y-102956198D01*
X132450722Y-102956197D01*
X132377516Y-102923604D01*
X135412892Y-102923604D01*
X135413582Y-102930169D01*
X135430683Y-103092872D01*
X135432854Y-103113532D01*
X135491869Y-103295160D01*
X135587356Y-103460548D01*
X135591774Y-103465455D01*
X135591775Y-103465456D01*
X135679904Y-103563333D01*
X135715143Y-103602470D01*
X135814239Y-103674468D01*
X135834851Y-103689443D01*
X135869644Y-103714722D01*
X135875672Y-103717406D01*
X135875674Y-103717407D01*
X135957424Y-103753804D01*
X136044108Y-103792398D01*
X136127257Y-103810072D01*
X136224452Y-103830732D01*
X136224457Y-103830732D01*
X136230909Y-103832104D01*
X136421883Y-103832104D01*
X136428335Y-103830732D01*
X136428340Y-103830732D01*
X136525535Y-103810072D01*
X136608684Y-103792398D01*
X136695368Y-103753804D01*
X136777118Y-103717407D01*
X136777120Y-103717406D01*
X136783148Y-103714722D01*
X136817942Y-103689443D01*
X136838553Y-103674468D01*
X136881686Y-103643130D01*
X142321700Y-103643130D01*
X142326981Y-103650184D01*
X142495919Y-103748904D01*
X142505202Y-103753351D01*
X142708002Y-103830793D01*
X142717900Y-103833669D01*
X142930625Y-103876948D01*
X142940853Y-103878167D01*
X143157788Y-103886122D01*
X143168074Y-103885655D01*
X143383400Y-103858072D01*
X143393481Y-103855929D01*
X143427113Y-103845839D01*
X143498108Y-103845423D01*
X143558059Y-103883455D01*
X143587930Y-103947862D01*
X143588630Y-103979695D01*
X143586496Y-104000000D01*
X143587186Y-104006565D01*
X143594489Y-104076045D01*
X143606458Y-104189928D01*
X143665473Y-104371556D01*
X143760960Y-104536944D01*
X143765378Y-104541851D01*
X143765379Y-104541852D01*
X143787694Y-104566635D01*
X143888747Y-104678866D01*
X143934136Y-104711843D01*
X144029969Y-104781470D01*
X144043248Y-104791118D01*
X144049276Y-104793802D01*
X144049278Y-104793803D01*
X144209828Y-104865284D01*
X144217712Y-104868794D01*
X144311112Y-104888647D01*
X144398056Y-104907128D01*
X144398061Y-104907128D01*
X144404513Y-104908500D01*
X144595487Y-104908500D01*
X144601939Y-104907128D01*
X144601944Y-104907128D01*
X144688888Y-104888647D01*
X144782288Y-104868794D01*
X144790172Y-104865284D01*
X144950722Y-104793803D01*
X144950724Y-104793802D01*
X144956752Y-104791118D01*
X144970032Y-104781470D01*
X145065864Y-104711843D01*
X145111253Y-104678866D01*
X145212306Y-104566635D01*
X145234621Y-104541852D01*
X145234622Y-104541851D01*
X145239040Y-104536944D01*
X145334527Y-104371556D01*
X145393542Y-104189928D01*
X145405512Y-104076045D01*
X145412814Y-104006565D01*
X145413504Y-104000000D01*
X145407190Y-103939928D01*
X145394232Y-103816635D01*
X145394232Y-103816633D01*
X145393542Y-103810072D01*
X145334527Y-103628444D01*
X145239040Y-103463056D01*
X145182037Y-103399747D01*
X145115675Y-103326045D01*
X145115674Y-103326044D01*
X145111253Y-103321134D01*
X144956752Y-103208882D01*
X144950724Y-103206198D01*
X144950722Y-103206197D01*
X144788319Y-103133891D01*
X144788318Y-103133891D01*
X144782288Y-103131206D01*
X144668263Y-103106969D01*
X144601944Y-103092872D01*
X144601939Y-103092872D01*
X144595487Y-103091500D01*
X144535757Y-103091500D01*
X144467636Y-103071498D01*
X144421143Y-103017842D01*
X144411039Y-102947568D01*
X144415199Y-102928871D01*
X144454895Y-102798216D01*
X144457074Y-102788138D01*
X144485646Y-102571113D01*
X144486165Y-102564438D01*
X144487658Y-102503364D01*
X144487464Y-102496646D01*
X144469530Y-102278507D01*
X144467845Y-102268327D01*
X144414962Y-102057791D01*
X144411642Y-102048040D01*
X144390754Y-102000000D01*
X151836496Y-102000000D01*
X151837186Y-102006565D01*
X151853011Y-102157128D01*
X151856458Y-102189928D01*
X151915473Y-102371556D01*
X151918776Y-102377278D01*
X151918777Y-102377279D01*
X151952686Y-102436010D01*
X152010960Y-102536944D01*
X152015378Y-102541851D01*
X152015379Y-102541852D01*
X152134325Y-102673955D01*
X152138747Y-102678866D01*
X152293248Y-102791118D01*
X152299276Y-102793802D01*
X152299278Y-102793803D01*
X152461681Y-102866109D01*
X152467712Y-102868794D01*
X152561112Y-102888647D01*
X152648056Y-102907128D01*
X152648061Y-102907128D01*
X152654513Y-102908500D01*
X152845487Y-102908500D01*
X152851939Y-102907128D01*
X152851944Y-102907128D01*
X152938887Y-102888647D01*
X153032288Y-102868794D01*
X153040417Y-102865175D01*
X153206752Y-102791118D01*
X153207374Y-102792515D01*
X153268742Y-102777626D01*
X153318279Y-102792171D01*
X153318748Y-102791118D01*
X153485084Y-102865175D01*
X153493212Y-102868794D01*
X153586612Y-102888647D01*
X153673556Y-102907128D01*
X153673561Y-102907128D01*
X153680013Y-102908500D01*
X153870987Y-102908500D01*
X153877439Y-102907128D01*
X153877444Y-102907128D01*
X153964387Y-102888647D01*
X154057788Y-102868794D01*
X154063819Y-102866109D01*
X154226222Y-102793803D01*
X154226224Y-102793802D01*
X154232252Y-102791118D01*
X154386753Y-102678866D01*
X154391175Y-102673955D01*
X154510121Y-102541852D01*
X154510122Y-102541851D01*
X154514540Y-102536944D01*
X154555452Y-102466082D01*
X156612172Y-102466082D01*
X156612469Y-102471234D01*
X156612469Y-102471238D01*
X156614866Y-102512812D01*
X156625268Y-102693206D01*
X156626405Y-102698252D01*
X156626406Y-102698258D01*
X156644293Y-102777626D01*
X156675283Y-102915141D01*
X156760875Y-103125927D01*
X156879744Y-103319904D01*
X156883128Y-103323810D01*
X156883129Y-103323812D01*
X156917675Y-103363693D01*
X157028698Y-103491861D01*
X157203737Y-103637181D01*
X157208189Y-103639783D01*
X157208194Y-103639786D01*
X157385568Y-103743435D01*
X157400160Y-103751962D01*
X157612693Y-103833120D01*
X157617759Y-103834151D01*
X157617760Y-103834151D01*
X157680410Y-103846897D01*
X157835627Y-103878476D01*
X157963437Y-103883163D01*
X158057811Y-103886624D01*
X158057815Y-103886624D01*
X158062975Y-103886813D01*
X158068095Y-103886157D01*
X158068097Y-103886157D01*
X158283504Y-103858563D01*
X158283505Y-103858563D01*
X158288632Y-103857906D01*
X158325327Y-103846897D01*
X158501591Y-103794015D01*
X158501592Y-103794014D01*
X158506537Y-103792531D01*
X158710839Y-103692444D01*
X158715043Y-103689446D01*
X158715047Y-103689443D01*
X158891847Y-103563333D01*
X158891849Y-103563331D01*
X158896051Y-103560334D01*
X159057199Y-103399747D01*
X159111764Y-103323812D01*
X159186938Y-103219198D01*
X159186942Y-103219192D01*
X159189956Y-103214997D01*
X159250992Y-103091500D01*
X159288461Y-103015688D01*
X159288462Y-103015686D01*
X159290755Y-103011046D01*
X159356890Y-102793370D01*
X159357579Y-102788138D01*
X159386148Y-102571136D01*
X159386148Y-102571132D01*
X159386585Y-102567815D01*
X159387110Y-102546325D01*
X159388160Y-102503365D01*
X159388160Y-102503361D01*
X159388242Y-102500000D01*
X159369601Y-102273264D01*
X159348993Y-102191220D01*
X166527716Y-102191220D01*
X166528406Y-102197785D01*
X166536882Y-102278425D01*
X166547678Y-102381148D01*
X166606693Y-102562776D01*
X166609996Y-102568498D01*
X166609997Y-102568499D01*
X166643906Y-102627230D01*
X166702180Y-102728164D01*
X166706598Y-102733071D01*
X166706599Y-102733072D01*
X166765255Y-102798216D01*
X166829967Y-102870086D01*
X166984468Y-102982338D01*
X166990496Y-102985022D01*
X166990498Y-102985023D01*
X167152901Y-103057329D01*
X167158932Y-103060014D01*
X167234352Y-103076045D01*
X167339276Y-103098348D01*
X167339281Y-103098348D01*
X167345733Y-103099720D01*
X167536707Y-103099720D01*
X167543159Y-103098348D01*
X167543164Y-103098348D01*
X167648088Y-103076045D01*
X167723508Y-103060014D01*
X167729539Y-103057329D01*
X167891942Y-102985023D01*
X167891944Y-102985022D01*
X167897972Y-102982338D01*
X168052473Y-102870086D01*
X168117185Y-102798216D01*
X168175841Y-102733072D01*
X168175842Y-102733071D01*
X168180260Y-102728164D01*
X168238534Y-102627230D01*
X168272443Y-102568499D01*
X168272444Y-102568498D01*
X168275747Y-102562776D01*
X168334762Y-102381148D01*
X168345559Y-102278425D01*
X168354034Y-102197785D01*
X168354724Y-102191220D01*
X168340243Y-102053438D01*
X168335452Y-102007855D01*
X168335452Y-102007853D01*
X168334762Y-102001292D01*
X168275747Y-101819664D01*
X168266585Y-101803794D01*
X168238534Y-101755210D01*
X168180260Y-101654276D01*
X168175646Y-101649151D01*
X168056895Y-101517265D01*
X168056894Y-101517264D01*
X168052473Y-101512354D01*
X167897972Y-101400102D01*
X167891944Y-101397418D01*
X167891942Y-101397417D01*
X167729539Y-101325111D01*
X167729538Y-101325111D01*
X167723508Y-101322426D01*
X167630108Y-101302573D01*
X167543164Y-101284092D01*
X167543159Y-101284092D01*
X167536707Y-101282720D01*
X167345733Y-101282720D01*
X167339281Y-101284092D01*
X167339276Y-101284092D01*
X167252332Y-101302573D01*
X167158932Y-101322426D01*
X167152902Y-101325111D01*
X167152901Y-101325111D01*
X166990498Y-101397417D01*
X166990496Y-101397418D01*
X166984468Y-101400102D01*
X166829967Y-101512354D01*
X166825546Y-101517264D01*
X166825545Y-101517265D01*
X166706795Y-101649151D01*
X166702180Y-101654276D01*
X166643906Y-101755210D01*
X166615856Y-101803794D01*
X166606693Y-101819664D01*
X166547678Y-102001292D01*
X166546988Y-102007853D01*
X166546988Y-102007855D01*
X166542197Y-102053438D01*
X166527716Y-102191220D01*
X159348993Y-102191220D01*
X159314178Y-102052617D01*
X159243929Y-101891056D01*
X159225522Y-101848722D01*
X159225520Y-101848719D01*
X159223462Y-101843985D01*
X159113465Y-101673955D01*
X159102698Y-101657311D01*
X159102696Y-101657308D01*
X159099890Y-101652971D01*
X158946779Y-101484704D01*
X158771653Y-101346399D01*
X158730591Y-101288483D01*
X158728837Y-101250000D01*
X161336496Y-101250000D01*
X161337186Y-101256565D01*
X161346717Y-101347243D01*
X161356458Y-101439928D01*
X161415473Y-101621556D01*
X161510960Y-101786944D01*
X161515378Y-101791851D01*
X161515379Y-101791852D01*
X161590726Y-101875533D01*
X161638747Y-101928866D01*
X161723093Y-101990147D01*
X161772176Y-102025808D01*
X161793248Y-102041118D01*
X161799276Y-102043802D01*
X161799278Y-102043803D01*
X161830332Y-102057629D01*
X161967712Y-102118794D01*
X162046124Y-102135461D01*
X162148056Y-102157128D01*
X162148061Y-102157128D01*
X162154513Y-102158500D01*
X162345487Y-102158500D01*
X162351939Y-102157128D01*
X162351944Y-102157128D01*
X162453876Y-102135461D01*
X162532288Y-102118794D01*
X162669668Y-102057629D01*
X162700722Y-102043803D01*
X162700724Y-102043802D01*
X162706752Y-102041118D01*
X162727825Y-102025808D01*
X162776907Y-101990147D01*
X162861253Y-101928866D01*
X162909274Y-101875533D01*
X162984621Y-101791852D01*
X162984622Y-101791851D01*
X162989040Y-101786944D01*
X163084527Y-101621556D01*
X163143542Y-101439928D01*
X163153284Y-101347243D01*
X163162814Y-101256565D01*
X163163504Y-101250000D01*
X163157190Y-101189928D01*
X163144232Y-101066635D01*
X163144232Y-101066633D01*
X163143542Y-101060072D01*
X163084527Y-100878444D01*
X163079952Y-100870519D01*
X163021442Y-100769178D01*
X162989040Y-100713056D01*
X162961752Y-100682749D01*
X162865675Y-100576045D01*
X162865674Y-100576044D01*
X162861253Y-100571134D01*
X162706752Y-100458882D01*
X162700724Y-100456198D01*
X162700722Y-100456197D01*
X162538319Y-100383891D01*
X162538318Y-100383891D01*
X162532288Y-100381206D01*
X162425842Y-100358580D01*
X162351944Y-100342872D01*
X162351939Y-100342872D01*
X162345487Y-100341500D01*
X162154513Y-100341500D01*
X162148061Y-100342872D01*
X162148056Y-100342872D01*
X162074158Y-100358580D01*
X161967712Y-100381206D01*
X161961682Y-100383891D01*
X161961681Y-100383891D01*
X161799278Y-100456197D01*
X161799276Y-100456198D01*
X161793248Y-100458882D01*
X161638747Y-100571134D01*
X161634326Y-100576044D01*
X161634325Y-100576045D01*
X161538249Y-100682749D01*
X161510960Y-100713056D01*
X161478558Y-100769178D01*
X161420049Y-100870519D01*
X161415473Y-100878444D01*
X161356458Y-101060072D01*
X161355768Y-101066633D01*
X161355768Y-101066635D01*
X161342810Y-101189928D01*
X161336496Y-101250000D01*
X158728837Y-101250000D01*
X158727359Y-101217560D01*
X158756907Y-101166625D01*
X158755983Y-101165899D01*
X158761134Y-101159339D01*
X158762984Y-101156149D01*
X158764839Y-101154619D01*
X158775572Y-101140948D01*
X158768585Y-101127795D01*
X158012812Y-100372022D01*
X157998868Y-100364408D01*
X157997035Y-100364539D01*
X157990420Y-100368790D01*
X157228460Y-101130750D01*
X157221700Y-101143130D01*
X157241007Y-101168921D01*
X157239658Y-101169931D01*
X157265019Y-101200072D01*
X157274101Y-101270485D01*
X157243673Y-101334630D01*
X157225310Y-101351504D01*
X157082445Y-101458770D01*
X157078310Y-101461875D01*
X156921133Y-101626351D01*
X156918221Y-101630620D01*
X156806906Y-101793803D01*
X156792931Y-101814289D01*
X156790758Y-101818971D01*
X156790756Y-101818974D01*
X156703680Y-102006565D01*
X156697145Y-102020643D01*
X156636348Y-102239869D01*
X156635799Y-102245006D01*
X156621185Y-102381752D01*
X156612172Y-102466082D01*
X154555452Y-102466082D01*
X154572814Y-102436010D01*
X154606723Y-102377279D01*
X154606724Y-102377278D01*
X154610027Y-102371556D01*
X154669042Y-102189928D01*
X154672490Y-102157128D01*
X154688314Y-102006565D01*
X154689004Y-102000000D01*
X154688314Y-101993435D01*
X154688314Y-101990147D01*
X154708316Y-101922026D01*
X154761972Y-101875533D01*
X154775377Y-101870314D01*
X154775831Y-101870166D01*
X154782288Y-101868794D01*
X154788319Y-101866109D01*
X154950722Y-101793803D01*
X154950724Y-101793802D01*
X154956752Y-101791118D01*
X155111253Y-101678866D01*
X155115675Y-101673955D01*
X155234621Y-101541852D01*
X155234622Y-101541851D01*
X155239040Y-101536944D01*
X155334527Y-101371556D01*
X155393542Y-101189928D01*
X155396962Y-101157394D01*
X155412814Y-101006565D01*
X155413504Y-101000000D01*
X155403754Y-100907233D01*
X155416526Y-100837396D01*
X155458264Y-100793199D01*
X155456752Y-100791118D01*
X155491281Y-100766031D01*
X155611253Y-100678866D01*
X155656653Y-100628444D01*
X155734621Y-100541852D01*
X155734622Y-100541851D01*
X155739040Y-100536944D01*
X155777888Y-100469658D01*
X155829270Y-100420666D01*
X155899606Y-100407457D01*
X155904513Y-100408500D01*
X156095487Y-100408500D01*
X156101939Y-100407128D01*
X156101944Y-100407128D01*
X156188887Y-100388647D01*
X156282288Y-100368794D01*
X156291845Y-100364539D01*
X156450722Y-100293803D01*
X156450724Y-100293802D01*
X156456752Y-100291118D01*
X156466069Y-100284349D01*
X156532934Y-100260488D01*
X156602087Y-100276565D01*
X156651569Y-100327477D01*
X156663050Y-100358580D01*
X156674627Y-100409951D01*
X156677706Y-100419777D01*
X156759379Y-100620914D01*
X156764022Y-100630105D01*
X156848279Y-100767601D01*
X156858735Y-100777061D01*
X156867513Y-100773277D01*
X157627978Y-100012812D01*
X157634356Y-100001132D01*
X158364408Y-100001132D01*
X158364539Y-100002965D01*
X158368790Y-100009580D01*
X159128388Y-100769178D01*
X159140398Y-100775736D01*
X159152138Y-100766768D01*
X159186507Y-100718940D01*
X159191816Y-100710103D01*
X159287994Y-100515503D01*
X159291792Y-100505910D01*
X159354897Y-100298208D01*
X159357074Y-100288138D01*
X159384044Y-100083282D01*
X166669778Y-100083282D01*
X166689740Y-100273210D01*
X166748755Y-100454838D01*
X166752058Y-100460560D01*
X166752059Y-100460561D01*
X166756801Y-100468774D01*
X166844242Y-100620226D01*
X166848660Y-100625133D01*
X166848661Y-100625134D01*
X166927826Y-100713056D01*
X166972029Y-100762148D01*
X167126530Y-100874400D01*
X167132558Y-100877084D01*
X167132560Y-100877085D01*
X167294963Y-100949391D01*
X167300994Y-100952076D01*
X167394395Y-100971929D01*
X167481338Y-100990410D01*
X167481343Y-100990410D01*
X167487795Y-100991782D01*
X167678769Y-100991782D01*
X167685221Y-100990410D01*
X167685226Y-100990410D01*
X167772169Y-100971929D01*
X167865570Y-100952076D01*
X167871601Y-100949391D01*
X168034004Y-100877085D01*
X168034006Y-100877084D01*
X168040034Y-100874400D01*
X168194535Y-100762148D01*
X168238738Y-100713056D01*
X168317903Y-100625134D01*
X168317904Y-100625133D01*
X168322322Y-100620226D01*
X168409763Y-100468774D01*
X168414505Y-100460561D01*
X168414506Y-100460560D01*
X168417809Y-100454838D01*
X168476824Y-100273210D01*
X168496786Y-100083282D01*
X168488386Y-100003364D01*
X168477514Y-99899917D01*
X168477514Y-99899915D01*
X168476824Y-99893354D01*
X168417809Y-99711726D01*
X168322322Y-99546338D01*
X168242916Y-99458148D01*
X168198957Y-99409327D01*
X168198956Y-99409326D01*
X168194535Y-99404416D01*
X168064682Y-99310072D01*
X168045376Y-99296045D01*
X168045375Y-99296044D01*
X168040034Y-99292164D01*
X168034006Y-99289480D01*
X168034004Y-99289479D01*
X167871601Y-99217173D01*
X167871600Y-99217173D01*
X167865570Y-99214488D01*
X167772169Y-99194635D01*
X167685226Y-99176154D01*
X167685221Y-99176154D01*
X167678769Y-99174782D01*
X167487795Y-99174782D01*
X167481343Y-99176154D01*
X167481338Y-99176154D01*
X167394394Y-99194635D01*
X167300994Y-99214488D01*
X167294964Y-99217173D01*
X167294963Y-99217173D01*
X167132560Y-99289479D01*
X167132558Y-99289480D01*
X167126530Y-99292164D01*
X167121189Y-99296044D01*
X167121188Y-99296045D01*
X167101882Y-99310072D01*
X166972029Y-99404416D01*
X166967608Y-99409326D01*
X166967607Y-99409327D01*
X166923649Y-99458148D01*
X166844242Y-99546338D01*
X166748755Y-99711726D01*
X166689740Y-99893354D01*
X166689050Y-99899915D01*
X166689050Y-99899917D01*
X166678178Y-100003364D01*
X166669778Y-100083282D01*
X159384044Y-100083282D01*
X159385646Y-100071113D01*
X159386165Y-100064438D01*
X159387658Y-100003364D01*
X159387464Y-99996646D01*
X159369530Y-99778507D01*
X159367845Y-99768327D01*
X159314962Y-99557791D01*
X159311642Y-99548040D01*
X159225080Y-99348959D01*
X159220213Y-99339884D01*
X159151144Y-99233118D01*
X159140458Y-99223915D01*
X159130891Y-99228319D01*
X158372022Y-99987188D01*
X158364408Y-100001132D01*
X157634356Y-100001132D01*
X157635592Y-99998868D01*
X157635461Y-99997035D01*
X157631210Y-99990420D01*
X156887344Y-99246554D01*
X156856606Y-99196396D01*
X156839701Y-99144368D01*
X156834527Y-99128444D01*
X156813990Y-99092872D01*
X156742341Y-98968774D01*
X156739040Y-98963056D01*
X156733603Y-98957017D01*
X156615675Y-98826045D01*
X156615674Y-98826044D01*
X156611253Y-98821134D01*
X156456752Y-98708882D01*
X156450724Y-98706198D01*
X156450722Y-98706197D01*
X156288319Y-98633891D01*
X156288318Y-98633891D01*
X156282288Y-98631206D01*
X156188888Y-98611353D01*
X156101944Y-98592872D01*
X156101939Y-98592872D01*
X156095487Y-98591500D01*
X155904513Y-98591500D01*
X155898061Y-98592872D01*
X155898056Y-98592872D01*
X155811112Y-98611353D01*
X155717712Y-98631206D01*
X155711682Y-98633891D01*
X155711681Y-98633891D01*
X155549278Y-98706197D01*
X155549276Y-98706198D01*
X155543248Y-98708882D01*
X155388747Y-98821134D01*
X155384326Y-98826044D01*
X155384325Y-98826045D01*
X155266398Y-98957017D01*
X155260960Y-98963056D01*
X155257659Y-98968774D01*
X155222113Y-99030341D01*
X155170730Y-99079334D01*
X155100394Y-99092543D01*
X155095487Y-99091500D01*
X154904513Y-99091500D01*
X154898061Y-99092872D01*
X154898056Y-99092872D01*
X154811112Y-99111353D01*
X154717712Y-99131206D01*
X154711682Y-99133891D01*
X154711681Y-99133891D01*
X154549278Y-99206197D01*
X154549276Y-99206198D01*
X154543248Y-99208882D01*
X154388747Y-99321134D01*
X154384326Y-99326044D01*
X154384325Y-99326045D01*
X154272862Y-99449838D01*
X154260960Y-99463056D01*
X154165473Y-99628444D01*
X154106458Y-99810072D01*
X154086496Y-100000000D01*
X154093269Y-100064438D01*
X154096246Y-100092766D01*
X154083474Y-100162604D01*
X154041736Y-100206801D01*
X154043248Y-100208882D01*
X153888747Y-100321134D01*
X153884326Y-100326044D01*
X153884325Y-100326045D01*
X153768360Y-100454838D01*
X153760960Y-100463056D01*
X153757659Y-100468774D01*
X153670218Y-100620226D01*
X153665473Y-100628444D01*
X153606458Y-100810072D01*
X153586496Y-101000000D01*
X153587186Y-101006565D01*
X153587186Y-101009853D01*
X153567184Y-101077974D01*
X153513528Y-101124467D01*
X153500123Y-101129686D01*
X153499669Y-101129834D01*
X153493212Y-101131206D01*
X153487182Y-101133891D01*
X153487181Y-101133891D01*
X153347219Y-101196206D01*
X153318748Y-101208882D01*
X153318126Y-101207485D01*
X153256758Y-101222374D01*
X153207221Y-101207829D01*
X153206752Y-101208882D01*
X153038319Y-101133891D01*
X153038318Y-101133891D01*
X153032288Y-101131206D01*
X152927554Y-101108944D01*
X152851944Y-101092872D01*
X152851939Y-101092872D01*
X152845487Y-101091500D01*
X152654513Y-101091500D01*
X152648061Y-101092872D01*
X152648056Y-101092872D01*
X152572446Y-101108944D01*
X152467712Y-101131206D01*
X152461682Y-101133891D01*
X152461681Y-101133891D01*
X152299278Y-101206197D01*
X152299276Y-101206198D01*
X152293248Y-101208882D01*
X152287907Y-101212762D01*
X152287906Y-101212763D01*
X152260759Y-101232487D01*
X152138747Y-101321134D01*
X152134326Y-101326044D01*
X152134325Y-101326045D01*
X152031785Y-101439928D01*
X152010960Y-101463056D01*
X151915473Y-101628444D01*
X151856458Y-101810072D01*
X151855768Y-101816633D01*
X151855768Y-101816635D01*
X151843972Y-101928866D01*
X151836496Y-102000000D01*
X144390754Y-102000000D01*
X144325080Y-101848959D01*
X144320213Y-101839884D01*
X144251144Y-101733118D01*
X144240458Y-101723915D01*
X144230891Y-101728319D01*
X142328460Y-103630750D01*
X142321700Y-103643130D01*
X136881686Y-103643130D01*
X136937649Y-103602470D01*
X136972888Y-103563333D01*
X137061017Y-103465456D01*
X137061018Y-103465455D01*
X137065436Y-103460548D01*
X137160923Y-103295160D01*
X137219938Y-103113532D01*
X137222110Y-103092872D01*
X137239210Y-102930169D01*
X137239900Y-102923604D01*
X137225662Y-102788138D01*
X137220628Y-102740239D01*
X137220628Y-102740237D01*
X137219938Y-102733676D01*
X137160923Y-102552048D01*
X137148902Y-102531226D01*
X137114274Y-102471250D01*
X141712971Y-102471250D01*
X141725467Y-102687967D01*
X141726903Y-102698188D01*
X141774627Y-102909948D01*
X141777706Y-102919777D01*
X141859379Y-103120914D01*
X141864022Y-103130105D01*
X141948279Y-103267601D01*
X141958735Y-103277061D01*
X141967513Y-103273277D01*
X142727978Y-102512812D01*
X142735592Y-102498868D01*
X142735461Y-102497035D01*
X142731210Y-102490420D01*
X141971858Y-101731068D01*
X141960322Y-101724768D01*
X141948039Y-101734391D01*
X141896279Y-101810268D01*
X141891191Y-101819224D01*
X141799795Y-102016121D01*
X141796232Y-102025808D01*
X141738223Y-102234979D01*
X141736292Y-102245100D01*
X141713222Y-102460962D01*
X141712971Y-102471250D01*
X137114274Y-102471250D01*
X137068737Y-102392378D01*
X137065436Y-102386660D01*
X136937649Y-102244738D01*
X136783148Y-102132486D01*
X136777120Y-102129802D01*
X136777118Y-102129801D01*
X136614715Y-102057495D01*
X136614714Y-102057495D01*
X136608684Y-102054810D01*
X136515283Y-102034957D01*
X136428340Y-102016476D01*
X136428335Y-102016476D01*
X136421883Y-102015104D01*
X136230909Y-102015104D01*
X136224457Y-102016476D01*
X136224452Y-102016476D01*
X136137509Y-102034957D01*
X136044108Y-102054810D01*
X136038078Y-102057495D01*
X136038077Y-102057495D01*
X135875674Y-102129801D01*
X135875672Y-102129802D01*
X135869644Y-102132486D01*
X135715143Y-102244738D01*
X135587356Y-102386660D01*
X135584055Y-102392378D01*
X135503891Y-102531226D01*
X135491869Y-102552048D01*
X135432854Y-102733676D01*
X135432164Y-102740237D01*
X135432164Y-102740239D01*
X135427130Y-102788138D01*
X135412892Y-102923604D01*
X132377516Y-102923604D01*
X132288319Y-102883891D01*
X132288318Y-102883891D01*
X132282288Y-102881206D01*
X132188887Y-102861353D01*
X132101944Y-102842872D01*
X132101939Y-102842872D01*
X132095487Y-102841500D01*
X131904513Y-102841500D01*
X131898061Y-102842872D01*
X131898056Y-102842872D01*
X131811113Y-102861353D01*
X131717712Y-102881206D01*
X131711682Y-102883891D01*
X131711681Y-102883891D01*
X131549278Y-102956197D01*
X131549276Y-102956198D01*
X131543248Y-102958882D01*
X131388747Y-103071134D01*
X131384326Y-103076044D01*
X131384325Y-103076045D01*
X131335449Y-103130328D01*
X131260960Y-103213056D01*
X131257659Y-103218774D01*
X131243619Y-103243092D01*
X131192236Y-103292085D01*
X131122522Y-103305520D01*
X131056611Y-103279133D01*
X131015430Y-103221301D01*
X131008500Y-103180091D01*
X131008500Y-101358569D01*
X142323365Y-101358569D01*
X142330111Y-101370901D01*
X143087188Y-102127978D01*
X143101132Y-102135592D01*
X143102965Y-102135461D01*
X143109580Y-102131210D01*
X143871190Y-101369600D01*
X143878211Y-101356744D01*
X143870718Y-101346461D01*
X143863435Y-101341622D01*
X143673398Y-101236715D01*
X143663989Y-101232487D01*
X143459364Y-101160026D01*
X143449401Y-101157394D01*
X143235687Y-101119326D01*
X143225434Y-101118356D01*
X143008366Y-101115703D01*
X142998082Y-101116423D01*
X142783507Y-101149258D01*
X142773479Y-101151647D01*
X142567147Y-101219087D01*
X142557637Y-101223084D01*
X142365095Y-101323315D01*
X142356370Y-101328809D01*
X142331819Y-101347243D01*
X142323365Y-101358569D01*
X131008500Y-101358569D01*
X131008500Y-98767089D01*
X133353585Y-98767089D01*
X133373547Y-98957017D01*
X133432562Y-99138645D01*
X133528049Y-99304033D01*
X133532467Y-99308940D01*
X133532468Y-99308941D01*
X133614938Y-99400533D01*
X133655836Y-99445955D01*
X133687244Y-99468774D01*
X133787246Y-99541430D01*
X133810337Y-99558207D01*
X133816365Y-99560891D01*
X133816367Y-99560892D01*
X133974305Y-99631210D01*
X133984801Y-99635883D01*
X134078201Y-99655736D01*
X134165145Y-99674217D01*
X134165150Y-99674217D01*
X134171602Y-99675589D01*
X134362576Y-99675589D01*
X134369028Y-99674217D01*
X134369033Y-99674217D01*
X134455977Y-99655736D01*
X134549377Y-99635883D01*
X134559873Y-99631210D01*
X134717811Y-99560892D01*
X134717813Y-99560891D01*
X134723841Y-99558207D01*
X134746933Y-99541430D01*
X134846934Y-99468774D01*
X134878342Y-99445955D01*
X134919240Y-99400533D01*
X135001710Y-99308941D01*
X135001711Y-99308940D01*
X135006129Y-99304033D01*
X135101616Y-99138645D01*
X135160631Y-98957017D01*
X135180593Y-98767089D01*
X135178729Y-98749357D01*
X135161321Y-98583724D01*
X135161321Y-98583722D01*
X135160631Y-98577161D01*
X135101616Y-98395533D01*
X135006129Y-98230145D01*
X134988316Y-98210361D01*
X134882764Y-98093134D01*
X134882763Y-98093133D01*
X134878342Y-98088223D01*
X134723841Y-97975971D01*
X134717813Y-97973287D01*
X134717811Y-97973286D01*
X134555408Y-97900980D01*
X134555407Y-97900980D01*
X134549377Y-97898295D01*
X134455976Y-97878442D01*
X134369033Y-97859961D01*
X134369028Y-97859961D01*
X134362576Y-97858589D01*
X134171602Y-97858589D01*
X134165150Y-97859961D01*
X134165145Y-97859961D01*
X134078202Y-97878442D01*
X133984801Y-97898295D01*
X133978771Y-97900980D01*
X133978770Y-97900980D01*
X133816367Y-97973286D01*
X133816365Y-97973287D01*
X133810337Y-97975971D01*
X133655836Y-98088223D01*
X133651415Y-98093133D01*
X133651414Y-98093134D01*
X133545863Y-98210361D01*
X133528049Y-98230145D01*
X133432562Y-98395533D01*
X133373547Y-98577161D01*
X133372857Y-98583722D01*
X133372857Y-98583724D01*
X133355449Y-98749357D01*
X133353585Y-98767089D01*
X131008500Y-98767089D01*
X131008500Y-97466082D01*
X141712172Y-97466082D01*
X141712469Y-97471234D01*
X141712469Y-97471238D01*
X141715928Y-97531226D01*
X141725268Y-97693206D01*
X141726405Y-97698252D01*
X141726406Y-97698258D01*
X141746459Y-97787237D01*
X141775283Y-97915141D01*
X141860875Y-98125927D01*
X141979744Y-98319904D01*
X142128698Y-98491861D01*
X142303737Y-98637181D01*
X142308189Y-98639783D01*
X142308194Y-98639786D01*
X142495702Y-98749357D01*
X142500160Y-98751962D01*
X142712693Y-98833120D01*
X142717759Y-98834151D01*
X142717760Y-98834151D01*
X142816861Y-98854313D01*
X142935627Y-98878476D01*
X143063437Y-98883163D01*
X143157811Y-98886624D01*
X143157815Y-98886624D01*
X143162975Y-98886813D01*
X143168095Y-98886157D01*
X143168097Y-98886157D01*
X143383504Y-98858563D01*
X143383505Y-98858563D01*
X143388632Y-98857906D01*
X143475921Y-98831718D01*
X143601591Y-98794015D01*
X143601592Y-98794014D01*
X143606537Y-98792531D01*
X143810839Y-98692444D01*
X143815043Y-98689446D01*
X143815047Y-98689443D01*
X143991847Y-98563333D01*
X143991849Y-98563331D01*
X143996051Y-98560334D01*
X144157199Y-98399747D01*
X144211764Y-98323812D01*
X144286938Y-98219198D01*
X144286942Y-98219192D01*
X144289956Y-98214997D01*
X144390755Y-98011046D01*
X144456890Y-97793370D01*
X144457565Y-97788244D01*
X144486148Y-97571136D01*
X144486148Y-97571132D01*
X144486585Y-97567815D01*
X144486667Y-97564463D01*
X144488160Y-97503365D01*
X144488160Y-97503361D01*
X144488242Y-97500000D01*
X144469601Y-97273264D01*
X144414178Y-97052617D01*
X144391299Y-97000000D01*
X153786496Y-97000000D01*
X153787186Y-97006565D01*
X153797310Y-97102885D01*
X153806458Y-97189928D01*
X153865473Y-97371556D01*
X153960960Y-97536944D01*
X153965378Y-97541851D01*
X153965379Y-97541852D01*
X154084325Y-97673955D01*
X154088747Y-97678866D01*
X154243248Y-97791118D01*
X154249276Y-97793802D01*
X154249278Y-97793803D01*
X154411681Y-97866109D01*
X154417712Y-97868794D01*
X154511112Y-97888647D01*
X154598056Y-97907128D01*
X154598061Y-97907128D01*
X154604513Y-97908500D01*
X154795487Y-97908500D01*
X154801939Y-97907128D01*
X154801944Y-97907128D01*
X154888888Y-97888647D01*
X154982288Y-97868794D01*
X154988319Y-97866109D01*
X155150722Y-97793803D01*
X155150724Y-97793802D01*
X155156752Y-97791118D01*
X155311253Y-97678866D01*
X155315675Y-97673955D01*
X155434621Y-97541852D01*
X155434622Y-97541851D01*
X155439040Y-97536944D01*
X155479952Y-97466082D01*
X156612172Y-97466082D01*
X156612469Y-97471234D01*
X156612469Y-97471238D01*
X156615928Y-97531226D01*
X156625268Y-97693206D01*
X156626405Y-97698252D01*
X156626406Y-97698258D01*
X156646459Y-97787237D01*
X156675283Y-97915141D01*
X156760875Y-98125927D01*
X156879744Y-98319904D01*
X157028698Y-98491861D01*
X157203737Y-98637181D01*
X157208190Y-98639783D01*
X157208197Y-98639788D01*
X157213124Y-98642667D01*
X157261845Y-98694308D01*
X157274912Y-98764092D01*
X157248178Y-98829862D01*
X157235819Y-98841884D01*
X157223365Y-98858569D01*
X157230111Y-98870901D01*
X157987188Y-99627978D01*
X158001132Y-99635592D01*
X158002965Y-99635461D01*
X158009580Y-99631210D01*
X158771190Y-98869600D01*
X158778211Y-98856744D01*
X158760258Y-98832104D01*
X158760787Y-98831718D01*
X158730578Y-98789112D01*
X158727343Y-98718189D01*
X158762966Y-98656776D01*
X158776558Y-98645567D01*
X158896051Y-98560334D01*
X159057199Y-98399747D01*
X159111764Y-98323812D01*
X159186938Y-98219198D01*
X159186942Y-98219192D01*
X159189956Y-98214997D01*
X159290755Y-98011046D01*
X159356890Y-97793370D01*
X159357565Y-97788244D01*
X159386148Y-97571136D01*
X159386148Y-97571132D01*
X159386585Y-97567815D01*
X159386667Y-97564463D01*
X159388160Y-97503365D01*
X159388160Y-97503361D01*
X159388242Y-97500000D01*
X159369601Y-97273264D01*
X159314178Y-97052617D01*
X159223462Y-96843985D01*
X159099890Y-96652971D01*
X159016233Y-96561033D01*
X164507666Y-96561033D01*
X164527628Y-96750961D01*
X164586643Y-96932589D01*
X164682130Y-97097977D01*
X164686548Y-97102884D01*
X164686549Y-97102885D01*
X164764923Y-97189928D01*
X164809917Y-97239899D01*
X164964418Y-97352151D01*
X164970446Y-97354835D01*
X164970448Y-97354836D01*
X165132851Y-97427142D01*
X165138882Y-97429827D01*
X165232283Y-97449680D01*
X165319226Y-97468161D01*
X165319231Y-97468161D01*
X165325683Y-97469533D01*
X165516657Y-97469533D01*
X165523109Y-97468161D01*
X165523114Y-97468161D01*
X165610058Y-97449680D01*
X165703458Y-97429827D01*
X165709489Y-97427142D01*
X165871892Y-97354836D01*
X165871894Y-97354835D01*
X165877922Y-97352151D01*
X166032423Y-97239899D01*
X166077417Y-97189928D01*
X166155791Y-97102885D01*
X166155792Y-97102884D01*
X166160210Y-97097977D01*
X166255697Y-96932589D01*
X166314712Y-96750961D01*
X166334674Y-96561033D01*
X166323926Y-96458770D01*
X166315402Y-96377668D01*
X166315402Y-96377666D01*
X166314712Y-96371105D01*
X166255697Y-96189477D01*
X166246736Y-96173955D01*
X166214383Y-96117919D01*
X166160210Y-96024089D01*
X166032423Y-95882167D01*
X165877922Y-95769915D01*
X165871894Y-95767231D01*
X165871892Y-95767230D01*
X165709489Y-95694924D01*
X165709488Y-95694924D01*
X165703458Y-95692239D01*
X165610057Y-95672386D01*
X165523114Y-95653905D01*
X165523109Y-95653905D01*
X165516657Y-95652533D01*
X165325683Y-95652533D01*
X165319231Y-95653905D01*
X165319226Y-95653905D01*
X165232283Y-95672386D01*
X165138882Y-95692239D01*
X165132852Y-95694924D01*
X165132851Y-95694924D01*
X164970448Y-95767230D01*
X164970446Y-95767231D01*
X164964418Y-95769915D01*
X164809917Y-95882167D01*
X164682130Y-96024089D01*
X164627957Y-96117919D01*
X164595605Y-96173955D01*
X164586643Y-96189477D01*
X164527628Y-96371105D01*
X164526938Y-96377666D01*
X164526938Y-96377668D01*
X164518414Y-96458770D01*
X164507666Y-96561033D01*
X159016233Y-96561033D01*
X158946779Y-96484704D01*
X158768241Y-96343704D01*
X158730537Y-96322890D01*
X158665951Y-96287237D01*
X158569072Y-96233757D01*
X158564203Y-96232033D01*
X158564199Y-96232031D01*
X158359496Y-96159541D01*
X158359492Y-96159540D01*
X158354621Y-96157815D01*
X158349528Y-96156908D01*
X158349525Y-96156907D01*
X158135734Y-96118825D01*
X158135728Y-96118824D01*
X158130645Y-96117919D01*
X158057196Y-96117022D01*
X157908331Y-96115203D01*
X157908329Y-96115203D01*
X157903161Y-96115140D01*
X157678278Y-96149552D01*
X157462035Y-96220231D01*
X157457447Y-96222619D01*
X157457443Y-96222621D01*
X157268201Y-96321134D01*
X157260239Y-96325279D01*
X157256106Y-96328382D01*
X157256103Y-96328384D01*
X157082445Y-96458770D01*
X157078310Y-96461875D01*
X157074738Y-96465613D01*
X156960313Y-96585352D01*
X156921133Y-96626351D01*
X156792931Y-96814289D01*
X156790758Y-96818971D01*
X156790756Y-96818974D01*
X156703680Y-97006565D01*
X156697145Y-97020643D01*
X156636348Y-97239869D01*
X156635799Y-97245006D01*
X156616047Y-97429827D01*
X156612172Y-97466082D01*
X155479952Y-97466082D01*
X155534527Y-97371556D01*
X155593542Y-97189928D01*
X155602691Y-97102885D01*
X155612814Y-97006565D01*
X155613504Y-97000000D01*
X155597604Y-96848722D01*
X155594232Y-96816635D01*
X155594232Y-96816633D01*
X155593542Y-96810072D01*
X155534527Y-96628444D01*
X155439040Y-96463056D01*
X155362157Y-96377668D01*
X155315675Y-96326045D01*
X155315674Y-96326044D01*
X155311253Y-96321134D01*
X155175662Y-96222621D01*
X155162094Y-96212763D01*
X155162093Y-96212762D01*
X155156752Y-96208882D01*
X155150724Y-96206198D01*
X155150722Y-96206197D01*
X154988319Y-96133891D01*
X154988318Y-96133891D01*
X154982288Y-96131206D01*
X154888887Y-96111353D01*
X154801944Y-96092872D01*
X154801939Y-96092872D01*
X154795487Y-96091500D01*
X154604513Y-96091500D01*
X154598061Y-96092872D01*
X154598056Y-96092872D01*
X154511113Y-96111353D01*
X154417712Y-96131206D01*
X154411682Y-96133891D01*
X154411681Y-96133891D01*
X154249278Y-96206197D01*
X154249276Y-96206198D01*
X154243248Y-96208882D01*
X154237907Y-96212762D01*
X154237906Y-96212763D01*
X154224338Y-96222621D01*
X154088747Y-96321134D01*
X154084326Y-96326044D01*
X154084325Y-96326045D01*
X154037844Y-96377668D01*
X153960960Y-96463056D01*
X153865473Y-96628444D01*
X153806458Y-96810072D01*
X153805768Y-96816633D01*
X153805768Y-96816635D01*
X153802396Y-96848722D01*
X153786496Y-97000000D01*
X144391299Y-97000000D01*
X144323462Y-96843985D01*
X144199890Y-96652971D01*
X144196414Y-96649151D01*
X144196409Y-96649144D01*
X144138362Y-96585352D01*
X144107310Y-96521506D01*
X144115704Y-96451008D01*
X144160881Y-96396239D01*
X144228496Y-96374589D01*
X144257752Y-96377305D01*
X144398056Y-96407128D01*
X144398061Y-96407128D01*
X144404513Y-96408500D01*
X144595487Y-96408500D01*
X144601939Y-96407128D01*
X144601944Y-96407128D01*
X144688887Y-96388647D01*
X144782288Y-96368794D01*
X144791198Y-96364827D01*
X144950722Y-96293803D01*
X144950724Y-96293802D01*
X144956752Y-96291118D01*
X145111253Y-96178866D01*
X145130111Y-96157922D01*
X145234621Y-96041852D01*
X145234622Y-96041851D01*
X145239040Y-96036944D01*
X145317566Y-95900934D01*
X145331223Y-95877279D01*
X145331224Y-95877278D01*
X145334527Y-95871556D01*
X145393542Y-95689928D01*
X145413504Y-95500000D01*
X145393542Y-95310072D01*
X145334527Y-95128444D01*
X145239040Y-94963056D01*
X145111253Y-94821134D01*
X144956752Y-94708882D01*
X144950724Y-94706198D01*
X144950722Y-94706197D01*
X144788319Y-94633891D01*
X144788318Y-94633891D01*
X144782288Y-94631206D01*
X144688888Y-94611353D01*
X144601944Y-94592872D01*
X144601939Y-94592872D01*
X144595487Y-94591500D01*
X144404513Y-94591500D01*
X144398061Y-94592872D01*
X144398056Y-94592872D01*
X144311113Y-94611353D01*
X144217712Y-94631206D01*
X144211682Y-94633891D01*
X144211681Y-94633891D01*
X144049278Y-94706197D01*
X144049276Y-94706198D01*
X144043248Y-94708882D01*
X143888747Y-94821134D01*
X143760960Y-94963056D01*
X143665473Y-95128444D01*
X143606458Y-95310072D01*
X143586496Y-95500000D01*
X143606458Y-95689928D01*
X143665473Y-95871556D01*
X143668776Y-95877278D01*
X143668777Y-95877279D01*
X143756637Y-96029457D01*
X143773375Y-96098452D01*
X143750155Y-96165544D01*
X143694347Y-96209431D01*
X143623672Y-96216180D01*
X143605458Y-96211230D01*
X143459496Y-96159541D01*
X143459492Y-96159540D01*
X143454621Y-96157815D01*
X143449528Y-96156908D01*
X143449525Y-96156907D01*
X143235734Y-96118825D01*
X143235728Y-96118824D01*
X143230645Y-96117919D01*
X143157196Y-96117022D01*
X143008331Y-96115203D01*
X143008329Y-96115203D01*
X143003161Y-96115140D01*
X142778278Y-96149552D01*
X142562035Y-96220231D01*
X142557447Y-96222619D01*
X142557443Y-96222621D01*
X142368201Y-96321134D01*
X142360239Y-96325279D01*
X142356106Y-96328382D01*
X142356103Y-96328384D01*
X142182445Y-96458770D01*
X142178310Y-96461875D01*
X142174738Y-96465613D01*
X142060313Y-96585352D01*
X142021133Y-96626351D01*
X141892931Y-96814289D01*
X141890758Y-96818971D01*
X141890756Y-96818974D01*
X141803680Y-97006565D01*
X141797145Y-97020643D01*
X141736348Y-97239869D01*
X141735799Y-97245006D01*
X141716047Y-97429827D01*
X141712172Y-97466082D01*
X131008500Y-97466082D01*
X131008500Y-94488717D01*
X133322149Y-94488717D01*
X133322839Y-94495282D01*
X133329522Y-94558863D01*
X133342111Y-94678645D01*
X133401126Y-94860273D01*
X133496613Y-95025661D01*
X133624400Y-95167583D01*
X133778901Y-95279835D01*
X133784929Y-95282519D01*
X133784931Y-95282520D01*
X133939309Y-95351253D01*
X133953365Y-95357511D01*
X134046765Y-95377364D01*
X134133709Y-95395845D01*
X134133714Y-95395845D01*
X134140166Y-95397217D01*
X134331140Y-95397217D01*
X134337592Y-95395845D01*
X134337597Y-95395845D01*
X134424540Y-95377364D01*
X134517941Y-95357511D01*
X134531997Y-95351253D01*
X134686375Y-95282520D01*
X134686377Y-95282519D01*
X134692405Y-95279835D01*
X134846906Y-95167583D01*
X134974693Y-95025661D01*
X135070180Y-94860273D01*
X135129195Y-94678645D01*
X135140561Y-94570512D01*
X147759286Y-94570512D01*
X147762685Y-94606133D01*
X147764205Y-94615125D01*
X147826122Y-94868158D01*
X147828922Y-94876827D01*
X147926722Y-95118282D01*
X147930744Y-95126455D01*
X148062368Y-95351253D01*
X148067531Y-95358765D01*
X148230231Y-95562213D01*
X148236420Y-95568896D01*
X148426794Y-95746733D01*
X148433871Y-95752443D01*
X148647918Y-95900934D01*
X148655759Y-95905571D01*
X148888997Y-96021604D01*
X148897422Y-96025060D01*
X149144974Y-96106212D01*
X149153799Y-96108412D01*
X149411189Y-96153103D01*
X149418807Y-96153950D01*
X149498592Y-96157922D01*
X149501733Y-96158000D01*
X149727885Y-96158000D01*
X149743124Y-96153525D01*
X149744329Y-96152135D01*
X149746000Y-96144452D01*
X149746000Y-96139885D01*
X150254000Y-96139885D01*
X150258475Y-96155124D01*
X150259865Y-96156329D01*
X150267548Y-96158000D01*
X150466206Y-96158000D01*
X150470777Y-96157835D01*
X150664380Y-96143787D01*
X150673389Y-96142473D01*
X150927769Y-96086311D01*
X150936499Y-96083708D01*
X151180107Y-95991414D01*
X151188368Y-95987579D01*
X151416101Y-95861085D01*
X151423726Y-95856095D01*
X151630809Y-95698054D01*
X151637636Y-95692014D01*
X151819735Y-95505736D01*
X151825618Y-95498774D01*
X151978922Y-95288157D01*
X151983733Y-95280427D01*
X152105031Y-95049878D01*
X152108678Y-95041528D01*
X152195419Y-94795901D01*
X152197825Y-94787106D01*
X152240267Y-94571775D01*
X152239088Y-94558863D01*
X152223985Y-94554000D01*
X150272115Y-94554000D01*
X150256876Y-94558475D01*
X150255671Y-94559865D01*
X150254000Y-94567548D01*
X150254000Y-96139885D01*
X149746000Y-96139885D01*
X149746000Y-94572115D01*
X149741525Y-94556876D01*
X149740135Y-94555671D01*
X149732452Y-94554000D01*
X147775826Y-94554000D01*
X147761349Y-94558251D01*
X147759286Y-94570512D01*
X135140561Y-94570512D01*
X135141785Y-94558863D01*
X135148467Y-94495282D01*
X135149157Y-94488717D01*
X135129195Y-94298789D01*
X135070180Y-94117161D01*
X135018833Y-94028225D01*
X147759733Y-94028225D01*
X147760912Y-94041137D01*
X147776015Y-94046000D01*
X149727885Y-94046000D01*
X149743124Y-94041525D01*
X149744329Y-94040135D01*
X149746000Y-94032452D01*
X149746000Y-94027885D01*
X150254000Y-94027885D01*
X150258475Y-94043124D01*
X150259865Y-94044329D01*
X150267548Y-94046000D01*
X152224174Y-94046000D01*
X152238651Y-94041749D01*
X152240714Y-94029488D01*
X152237315Y-93993867D01*
X152235795Y-93984875D01*
X152173878Y-93731842D01*
X152171078Y-93723173D01*
X152073278Y-93481718D01*
X152069256Y-93473545D01*
X151937632Y-93248747D01*
X151932469Y-93241235D01*
X151769769Y-93037787D01*
X151763580Y-93031104D01*
X151573206Y-92853267D01*
X151566129Y-92847557D01*
X151352082Y-92699066D01*
X151344241Y-92694429D01*
X151111003Y-92578396D01*
X151102578Y-92574940D01*
X150855026Y-92493788D01*
X150846201Y-92491588D01*
X150588811Y-92446897D01*
X150581193Y-92446050D01*
X150501408Y-92442078D01*
X150498267Y-92442000D01*
X150272115Y-92442000D01*
X150256876Y-92446475D01*
X150255671Y-92447865D01*
X150254000Y-92455548D01*
X150254000Y-94027885D01*
X149746000Y-94027885D01*
X149746000Y-92460115D01*
X149741525Y-92444876D01*
X149740135Y-92443671D01*
X149732452Y-92442000D01*
X149533794Y-92442000D01*
X149529223Y-92442165D01*
X149335620Y-92456213D01*
X149326611Y-92457527D01*
X149072231Y-92513689D01*
X149063501Y-92516292D01*
X148819893Y-92608586D01*
X148811632Y-92612421D01*
X148583899Y-92738915D01*
X148576274Y-92743905D01*
X148369191Y-92901946D01*
X148362364Y-92907986D01*
X148180265Y-93094264D01*
X148174382Y-93101226D01*
X148021078Y-93311843D01*
X148016267Y-93319573D01*
X147894969Y-93550122D01*
X147891322Y-93558472D01*
X147804581Y-93804099D01*
X147802175Y-93812894D01*
X147759733Y-94028225D01*
X135018833Y-94028225D01*
X134974693Y-93951773D01*
X134846906Y-93809851D01*
X134739536Y-93731842D01*
X134697747Y-93701480D01*
X134697746Y-93701479D01*
X134692405Y-93697599D01*
X134686377Y-93694915D01*
X134686375Y-93694914D01*
X134523972Y-93622608D01*
X134523971Y-93622608D01*
X134517941Y-93619923D01*
X134424540Y-93600070D01*
X134337597Y-93581589D01*
X134337592Y-93581589D01*
X134331140Y-93580217D01*
X134140166Y-93580217D01*
X134133714Y-93581589D01*
X134133709Y-93581589D01*
X134046766Y-93600070D01*
X133953365Y-93619923D01*
X133947335Y-93622608D01*
X133947334Y-93622608D01*
X133784931Y-93694914D01*
X133784929Y-93694915D01*
X133778901Y-93697599D01*
X133773560Y-93701479D01*
X133773559Y-93701480D01*
X133731770Y-93731842D01*
X133624400Y-93809851D01*
X133496613Y-93951773D01*
X133401126Y-94117161D01*
X133342111Y-94298789D01*
X133322149Y-94488717D01*
X131008500Y-94488717D01*
X131008500Y-92491795D01*
X131923784Y-92491795D01*
X131924141Y-92498611D01*
X131924141Y-92498615D01*
X131928493Y-92581637D01*
X131933547Y-92678067D01*
X131983080Y-92857898D01*
X132070075Y-93022898D01*
X132074480Y-93028111D01*
X132074483Y-93028115D01*
X132186064Y-93160153D01*
X132186068Y-93160157D01*
X132190471Y-93165367D01*
X132195895Y-93169514D01*
X132195896Y-93169515D01*
X132333231Y-93274516D01*
X132333235Y-93274519D01*
X132338652Y-93278660D01*
X132507704Y-93357490D01*
X132689740Y-93398180D01*
X132695463Y-93398500D01*
X132832596Y-93398500D01*
X132971437Y-93383417D01*
X133148223Y-93323922D01*
X133308109Y-93227853D01*
X133443636Y-93099692D01*
X133447471Y-93094049D01*
X133544646Y-92951060D01*
X133544647Y-92951058D01*
X133548480Y-92945418D01*
X133581071Y-92863937D01*
X133615215Y-92778570D01*
X133615216Y-92778568D01*
X133617751Y-92772229D01*
X133648216Y-92588205D01*
X133647872Y-92581637D01*
X139282072Y-92581637D01*
X139302034Y-92771565D01*
X139361049Y-92953193D01*
X139456536Y-93118581D01*
X139460954Y-93123488D01*
X139460955Y-93123489D01*
X139498662Y-93165367D01*
X139584323Y-93260503D01*
X139634978Y-93297306D01*
X139717814Y-93357490D01*
X139738824Y-93372755D01*
X139744852Y-93375439D01*
X139744854Y-93375440D01*
X139796482Y-93398426D01*
X139913288Y-93450431D01*
X140006689Y-93470284D01*
X140093632Y-93488765D01*
X140093637Y-93488765D01*
X140100089Y-93490137D01*
X140291063Y-93490137D01*
X140297515Y-93488765D01*
X140297520Y-93488765D01*
X140384464Y-93470284D01*
X140477864Y-93450431D01*
X140594670Y-93398426D01*
X140646298Y-93375440D01*
X140646300Y-93375439D01*
X140652328Y-93372755D01*
X140673339Y-93357490D01*
X140756174Y-93297306D01*
X140806829Y-93260503D01*
X140892490Y-93165367D01*
X140930197Y-93123489D01*
X140930198Y-93123488D01*
X140934616Y-93118581D01*
X141030103Y-92953193D01*
X141059104Y-92863937D01*
X141087078Y-92777844D01*
X141087078Y-92777842D01*
X141089118Y-92771565D01*
X141101149Y-92657097D01*
X141128162Y-92591441D01*
X141175211Y-92555161D01*
X141200719Y-92543804D01*
X141200718Y-92543804D01*
X141206752Y-92541118D01*
X141361253Y-92428866D01*
X141361572Y-92428512D01*
X161907984Y-92428512D01*
X161908674Y-92435077D01*
X161920102Y-92543804D01*
X161927946Y-92618440D01*
X161986961Y-92800068D01*
X161990264Y-92805790D01*
X161990265Y-92805791D01*
X162020349Y-92857898D01*
X162082448Y-92965456D01*
X162086866Y-92970363D01*
X162086867Y-92970364D01*
X162204696Y-93101226D01*
X162210235Y-93107378D01*
X162364736Y-93219630D01*
X162370764Y-93222314D01*
X162370766Y-93222315D01*
X162497320Y-93278660D01*
X162539200Y-93297306D01*
X162607591Y-93311843D01*
X162719544Y-93335640D01*
X162719549Y-93335640D01*
X162726001Y-93337012D01*
X162916975Y-93337012D01*
X162923427Y-93335640D01*
X162923432Y-93335640D01*
X163035385Y-93311843D01*
X163103776Y-93297306D01*
X163145656Y-93278660D01*
X163272210Y-93222315D01*
X163272212Y-93222314D01*
X163278240Y-93219630D01*
X163432741Y-93107378D01*
X163438280Y-93101226D01*
X163556109Y-92970364D01*
X163556110Y-92970363D01*
X163560528Y-92965456D01*
X163622627Y-92857898D01*
X163652711Y-92805791D01*
X163652712Y-92805790D01*
X163656015Y-92800068D01*
X163715030Y-92618440D01*
X163722875Y-92543804D01*
X163734302Y-92435077D01*
X163734992Y-92428512D01*
X163715030Y-92238584D01*
X163656015Y-92056956D01*
X163560528Y-91891568D01*
X163496382Y-91820326D01*
X163437163Y-91754557D01*
X163437162Y-91754556D01*
X163432741Y-91749646D01*
X163278240Y-91637394D01*
X163272212Y-91634710D01*
X163272210Y-91634709D01*
X163109807Y-91562403D01*
X163109806Y-91562403D01*
X163103776Y-91559718D01*
X163010376Y-91539865D01*
X162923432Y-91521384D01*
X162923427Y-91521384D01*
X162916975Y-91520012D01*
X162726001Y-91520012D01*
X162719549Y-91521384D01*
X162719544Y-91521384D01*
X162632601Y-91539865D01*
X162539200Y-91559718D01*
X162533170Y-91562403D01*
X162533169Y-91562403D01*
X162370766Y-91634709D01*
X162370764Y-91634710D01*
X162364736Y-91637394D01*
X162210235Y-91749646D01*
X162205814Y-91754556D01*
X162205813Y-91754557D01*
X162146595Y-91820326D01*
X162082448Y-91891568D01*
X161986961Y-92056956D01*
X161927946Y-92238584D01*
X161907984Y-92428512D01*
X141361572Y-92428512D01*
X141400362Y-92385431D01*
X141484621Y-92291852D01*
X141484622Y-92291851D01*
X141489040Y-92286944D01*
X141573351Y-92140914D01*
X141581223Y-92127279D01*
X141581224Y-92127278D01*
X141584527Y-92121556D01*
X141643542Y-91939928D01*
X141647856Y-91898888D01*
X141662814Y-91756565D01*
X141663504Y-91750000D01*
X141653754Y-91657233D01*
X141666526Y-91587396D01*
X141708264Y-91543199D01*
X141706752Y-91541118D01*
X141769552Y-91495491D01*
X141861253Y-91428866D01*
X141874059Y-91414644D01*
X141984621Y-91291852D01*
X141984622Y-91291851D01*
X141989040Y-91286944D01*
X142084527Y-91121556D01*
X142143542Y-90939928D01*
X142159605Y-90787102D01*
X142162814Y-90756565D01*
X142163504Y-90750000D01*
X142143542Y-90560072D01*
X142084527Y-90378444D01*
X141989040Y-90213056D01*
X141967213Y-90188814D01*
X141865675Y-90076045D01*
X141865674Y-90076044D01*
X141861253Y-90071134D01*
X141706752Y-89958882D01*
X141700724Y-89956198D01*
X141700722Y-89956197D01*
X141538319Y-89883891D01*
X141538318Y-89883891D01*
X141532288Y-89881206D01*
X141438887Y-89861353D01*
X141351944Y-89842872D01*
X141351939Y-89842872D01*
X141345487Y-89841500D01*
X141154513Y-89841500D01*
X141148061Y-89842872D01*
X141148056Y-89842872D01*
X141061113Y-89861353D01*
X140967712Y-89881206D01*
X140961682Y-89883891D01*
X140961681Y-89883891D01*
X140799278Y-89956197D01*
X140799276Y-89956198D01*
X140793248Y-89958882D01*
X140638747Y-90071134D01*
X140634326Y-90076044D01*
X140634325Y-90076045D01*
X140532788Y-90188814D01*
X140510960Y-90213056D01*
X140415473Y-90378444D01*
X140356458Y-90560072D01*
X140336496Y-90750000D01*
X140341031Y-90793144D01*
X140346246Y-90842766D01*
X140333474Y-90912604D01*
X140291736Y-90956801D01*
X140293248Y-90958882D01*
X140138747Y-91071134D01*
X140010960Y-91213056D01*
X139915473Y-91378444D01*
X139899090Y-91428866D01*
X139862617Y-91541118D01*
X139856458Y-91560072D01*
X139855768Y-91566635D01*
X139855768Y-91566636D01*
X139844427Y-91674540D01*
X139817414Y-91740196D01*
X139770365Y-91776476D01*
X139738824Y-91790519D01*
X139584323Y-91902771D01*
X139456536Y-92044693D01*
X139361049Y-92210081D01*
X139302034Y-92391709D01*
X139301344Y-92398270D01*
X139301344Y-92398272D01*
X139288940Y-92516292D01*
X139282072Y-92581637D01*
X133647872Y-92581637D01*
X133644311Y-92513689D01*
X133638810Y-92408746D01*
X133638453Y-92401933D01*
X133588920Y-92222102D01*
X133501925Y-92057102D01*
X133444944Y-91989674D01*
X133416252Y-91924733D01*
X133427225Y-91854589D01*
X133442743Y-91830537D01*
X133443636Y-91829692D01*
X133452214Y-91817071D01*
X133544646Y-91681060D01*
X133544647Y-91681058D01*
X133548480Y-91675418D01*
X133562137Y-91641275D01*
X133615215Y-91508570D01*
X133615216Y-91508568D01*
X133617751Y-91502229D01*
X133637203Y-91384729D01*
X133647101Y-91324942D01*
X133647101Y-91324939D01*
X133648216Y-91318205D01*
X133643521Y-91228615D01*
X133638810Y-91138746D01*
X133638453Y-91131933D01*
X133594843Y-90973605D01*
X133590733Y-90958684D01*
X133588920Y-90952102D01*
X133501925Y-90787102D01*
X133444944Y-90719674D01*
X133416252Y-90654733D01*
X133427225Y-90584589D01*
X133442743Y-90560537D01*
X133443636Y-90559692D01*
X133447645Y-90553794D01*
X133544646Y-90411060D01*
X133544647Y-90411058D01*
X133548480Y-90405418D01*
X133581071Y-90323937D01*
X133615215Y-90238570D01*
X133615216Y-90238568D01*
X133617751Y-90232229D01*
X133648216Y-90048205D01*
X133647327Y-90031226D01*
X133638810Y-89868746D01*
X133638453Y-89861933D01*
X133588920Y-89682102D01*
X133501925Y-89517102D01*
X133444944Y-89449674D01*
X133416252Y-89384733D01*
X133427225Y-89314589D01*
X133442743Y-89290537D01*
X133443636Y-89289692D01*
X133492280Y-89218115D01*
X133544646Y-89141060D01*
X133544647Y-89141058D01*
X133548480Y-89135418D01*
X133551270Y-89128444D01*
X133615215Y-88968570D01*
X133615216Y-88968568D01*
X133617751Y-88962229D01*
X133641752Y-88817251D01*
X133647101Y-88784942D01*
X133647101Y-88784939D01*
X133648216Y-88778205D01*
X133647629Y-88766989D01*
X133638810Y-88598746D01*
X133638453Y-88591933D01*
X133623271Y-88536814D01*
X133624465Y-88465830D01*
X133663847Y-88406758D01*
X133728915Y-88378355D01*
X133770944Y-88380109D01*
X133898056Y-88407128D01*
X133898061Y-88407128D01*
X133904513Y-88408500D01*
X134095487Y-88408500D01*
X134101939Y-88407128D01*
X134101944Y-88407128D01*
X134188887Y-88388647D01*
X134282288Y-88368794D01*
X134416528Y-88309027D01*
X134486893Y-88299593D01*
X134551190Y-88329699D01*
X134589003Y-88389788D01*
X134593085Y-88437303D01*
X134590087Y-88465830D01*
X134586496Y-88500000D01*
X134586970Y-88504513D01*
X134567184Y-88571899D01*
X134513528Y-88618392D01*
X134487382Y-88627025D01*
X134474170Y-88629833D01*
X134474167Y-88629834D01*
X134467712Y-88631206D01*
X134461682Y-88633891D01*
X134461681Y-88633891D01*
X134299278Y-88706197D01*
X134299276Y-88706198D01*
X134293248Y-88708882D01*
X134287907Y-88712762D01*
X134287906Y-88712763D01*
X134237843Y-88749136D01*
X134138747Y-88821134D01*
X134134326Y-88826044D01*
X134134325Y-88826045D01*
X134017772Y-88955491D01*
X134010960Y-88963056D01*
X133915473Y-89128444D01*
X133856458Y-89310072D01*
X133855768Y-89316633D01*
X133855768Y-89316635D01*
X133844053Y-89428101D01*
X133836496Y-89500000D01*
X133837186Y-89506565D01*
X133838929Y-89523144D01*
X133856458Y-89689928D01*
X133915473Y-89871556D01*
X133918776Y-89877278D01*
X133918777Y-89877279D01*
X133952686Y-89936010D01*
X134010960Y-90036944D01*
X134015378Y-90041851D01*
X134015379Y-90041852D01*
X134091158Y-90126013D01*
X134138747Y-90178866D01*
X134144089Y-90182747D01*
X134144091Y-90182749D01*
X134182988Y-90211009D01*
X134226342Y-90267231D01*
X134232417Y-90337967D01*
X134202563Y-90397255D01*
X134122365Y-90486324D01*
X134075997Y-90566635D01*
X134047920Y-90615267D01*
X134026878Y-90651712D01*
X133967863Y-90833340D01*
X133947901Y-91023268D01*
X133967863Y-91213196D01*
X134026878Y-91394824D01*
X134122365Y-91560212D01*
X134126783Y-91565119D01*
X134126784Y-91565120D01*
X134152731Y-91593937D01*
X134250152Y-91702134D01*
X134404653Y-91814386D01*
X134410681Y-91817070D01*
X134410683Y-91817071D01*
X134573086Y-91889377D01*
X134579117Y-91892062D01*
X134649790Y-91907084D01*
X134759461Y-91930396D01*
X134759466Y-91930396D01*
X134765918Y-91931768D01*
X134956892Y-91931768D01*
X134963344Y-91930396D01*
X134963349Y-91930396D01*
X135073020Y-91907084D01*
X135143693Y-91892062D01*
X135149724Y-91889377D01*
X135312127Y-91817071D01*
X135312129Y-91817070D01*
X135318157Y-91814386D01*
X135472658Y-91702134D01*
X135570079Y-91593937D01*
X135596026Y-91565120D01*
X135596027Y-91565119D01*
X135600445Y-91560212D01*
X135695932Y-91394824D01*
X135754947Y-91213196D01*
X135774909Y-91023268D01*
X135754947Y-90833340D01*
X135695932Y-90651712D01*
X135674891Y-90615267D01*
X135646813Y-90566635D01*
X135600445Y-90486324D01*
X135472658Y-90344402D01*
X135444491Y-90323937D01*
X135428417Y-90312259D01*
X135385063Y-90256037D01*
X135378988Y-90185301D01*
X135408842Y-90126013D01*
X135484621Y-90041852D01*
X135484622Y-90041851D01*
X135489040Y-90036944D01*
X135547314Y-89936010D01*
X135581223Y-89877279D01*
X135581224Y-89877278D01*
X135584527Y-89871556D01*
X135643542Y-89689928D01*
X135661072Y-89523144D01*
X135662814Y-89506565D01*
X135662867Y-89506065D01*
X158330431Y-89506065D01*
X158350393Y-89695993D01*
X158409408Y-89877621D01*
X158504895Y-90043009D01*
X158509313Y-90047916D01*
X158509314Y-90047917D01*
X158596407Y-90144644D01*
X158632682Y-90184931D01*
X158787183Y-90297183D01*
X158793211Y-90299867D01*
X158793213Y-90299868D01*
X158893239Y-90344402D01*
X158961647Y-90374859D01*
X159055048Y-90394712D01*
X159141991Y-90413193D01*
X159141996Y-90413193D01*
X159148448Y-90414565D01*
X159339422Y-90414565D01*
X159345874Y-90413193D01*
X159345879Y-90413193D01*
X159432823Y-90394712D01*
X159526223Y-90374859D01*
X159594631Y-90344402D01*
X159694657Y-90299868D01*
X159694659Y-90299867D01*
X159700687Y-90297183D01*
X159855188Y-90184931D01*
X159891463Y-90144644D01*
X159978556Y-90047917D01*
X159978557Y-90047916D01*
X159982975Y-90043009D01*
X160078462Y-89877621D01*
X160137477Y-89695993D01*
X160157439Y-89506065D01*
X160147911Y-89415411D01*
X160138167Y-89322700D01*
X160138167Y-89322698D01*
X160137477Y-89316137D01*
X160078462Y-89134509D01*
X160074961Y-89128444D01*
X159986276Y-88974839D01*
X159982975Y-88969121D01*
X159976770Y-88962229D01*
X159859610Y-88832110D01*
X159859609Y-88832109D01*
X159855188Y-88827199D01*
X159700687Y-88714947D01*
X159694659Y-88712263D01*
X159694657Y-88712262D01*
X159532254Y-88639956D01*
X159532253Y-88639956D01*
X159526223Y-88637271D01*
X159432823Y-88617418D01*
X159345879Y-88598937D01*
X159345874Y-88598937D01*
X159339422Y-88597565D01*
X159148448Y-88597565D01*
X159141996Y-88598937D01*
X159141991Y-88598937D01*
X159055048Y-88617418D01*
X158961647Y-88637271D01*
X158955617Y-88639956D01*
X158955616Y-88639956D01*
X158793213Y-88712262D01*
X158793211Y-88712263D01*
X158787183Y-88714947D01*
X158632682Y-88827199D01*
X158628261Y-88832109D01*
X158628260Y-88832110D01*
X158511101Y-88962229D01*
X158504895Y-88969121D01*
X158501594Y-88974839D01*
X158412910Y-89128444D01*
X158409408Y-89134509D01*
X158350393Y-89316137D01*
X158349703Y-89322698D01*
X158349703Y-89322700D01*
X158339959Y-89415411D01*
X158330431Y-89506065D01*
X135662867Y-89506065D01*
X135663504Y-89500000D01*
X135663030Y-89495487D01*
X135682816Y-89428101D01*
X135736472Y-89381608D01*
X135762618Y-89372975D01*
X135775830Y-89370167D01*
X135775833Y-89370166D01*
X135782288Y-89368794D01*
X135788319Y-89366109D01*
X135950722Y-89293803D01*
X135950724Y-89293802D01*
X135956752Y-89291118D01*
X135962861Y-89286680D01*
X136012157Y-89250864D01*
X136111253Y-89178866D01*
X136161806Y-89122721D01*
X136234621Y-89041852D01*
X136234622Y-89041851D01*
X136239040Y-89036944D01*
X136334527Y-88871556D01*
X136393542Y-88689928D01*
X136399077Y-88637271D01*
X136412814Y-88506565D01*
X136413504Y-88500000D01*
X136403704Y-88406758D01*
X136394232Y-88316635D01*
X136394232Y-88316633D01*
X136393542Y-88310072D01*
X136334527Y-88128444D01*
X136259670Y-87998788D01*
X138835284Y-87998788D01*
X138835974Y-88005353D01*
X138850695Y-88145411D01*
X138855246Y-88188716D01*
X138914261Y-88370344D01*
X139009748Y-88535732D01*
X139014166Y-88540639D01*
X139014167Y-88540640D01*
X139115973Y-88653707D01*
X139137535Y-88677654D01*
X139185169Y-88712262D01*
X139285204Y-88784942D01*
X139292036Y-88789906D01*
X139298064Y-88792590D01*
X139298066Y-88792591D01*
X139452287Y-88861254D01*
X139466500Y-88867582D01*
X139559900Y-88887435D01*
X139646844Y-88905916D01*
X139646849Y-88905916D01*
X139653301Y-88907288D01*
X139844275Y-88907288D01*
X139850727Y-88905916D01*
X139850732Y-88905916D01*
X139937676Y-88887435D01*
X140031076Y-88867582D01*
X140045289Y-88861254D01*
X140199510Y-88792591D01*
X140199512Y-88792590D01*
X140205540Y-88789906D01*
X140212373Y-88784942D01*
X140312407Y-88712262D01*
X140360041Y-88677654D01*
X140381603Y-88653707D01*
X140483409Y-88540640D01*
X140483410Y-88540639D01*
X140487828Y-88535732D01*
X140583315Y-88370344D01*
X140642330Y-88188716D01*
X140646882Y-88145411D01*
X140661602Y-88005353D01*
X140662292Y-87998788D01*
X140660291Y-87979752D01*
X141909250Y-87979752D01*
X141909940Y-87986317D01*
X141925539Y-88134729D01*
X141929212Y-88169680D01*
X141988227Y-88351308D01*
X141991530Y-88357030D01*
X141991531Y-88357031D01*
X142025440Y-88415762D01*
X142083714Y-88516696D01*
X142088132Y-88521603D01*
X142088133Y-88521604D01*
X142185583Y-88629833D01*
X142211501Y-88658618D01*
X142366002Y-88770870D01*
X142372030Y-88773554D01*
X142372032Y-88773555D01*
X142503550Y-88832110D01*
X142540466Y-88848546D01*
X142630023Y-88867582D01*
X142720810Y-88886880D01*
X142720815Y-88886880D01*
X142727267Y-88888252D01*
X142918241Y-88888252D01*
X142924693Y-88886880D01*
X142924698Y-88886880D01*
X143015485Y-88867582D01*
X143105042Y-88848546D01*
X143141958Y-88832110D01*
X143273476Y-88773555D01*
X143273478Y-88773554D01*
X143279506Y-88770870D01*
X143434007Y-88658618D01*
X143459925Y-88629833D01*
X143557375Y-88521604D01*
X143557376Y-88521603D01*
X143561794Y-88516696D01*
X143620068Y-88415762D01*
X143653977Y-88357031D01*
X143653978Y-88357030D01*
X143657281Y-88351308D01*
X143716296Y-88169680D01*
X143719970Y-88134729D01*
X143735568Y-87986317D01*
X143736258Y-87979752D01*
X143716296Y-87789824D01*
X143657281Y-87608196D01*
X143561794Y-87442808D01*
X143448188Y-87316635D01*
X143438429Y-87305797D01*
X143438428Y-87305796D01*
X143434007Y-87300886D01*
X143324646Y-87221430D01*
X143284848Y-87192515D01*
X143284847Y-87192514D01*
X143279506Y-87188634D01*
X143273478Y-87185950D01*
X143273476Y-87185949D01*
X143111073Y-87113643D01*
X143111072Y-87113643D01*
X143105042Y-87110958D01*
X143007798Y-87090288D01*
X142924698Y-87072624D01*
X142924693Y-87072624D01*
X142918241Y-87071252D01*
X142727267Y-87071252D01*
X142720815Y-87072624D01*
X142720810Y-87072624D01*
X142637710Y-87090288D01*
X142540466Y-87110958D01*
X142534436Y-87113643D01*
X142534435Y-87113643D01*
X142372032Y-87185949D01*
X142372030Y-87185950D01*
X142366002Y-87188634D01*
X142360661Y-87192514D01*
X142360660Y-87192515D01*
X142320862Y-87221430D01*
X142211501Y-87300886D01*
X142207080Y-87305796D01*
X142207079Y-87305797D01*
X142197321Y-87316635D01*
X142083714Y-87442808D01*
X141988227Y-87608196D01*
X141929212Y-87789824D01*
X141909250Y-87979752D01*
X140660291Y-87979752D01*
X140642330Y-87808860D01*
X140583315Y-87627232D01*
X140573489Y-87610212D01*
X140491129Y-87467562D01*
X140487828Y-87461844D01*
X140475837Y-87448526D01*
X140364463Y-87324833D01*
X140364462Y-87324832D01*
X140360041Y-87319922D01*
X140205540Y-87207670D01*
X140199512Y-87204986D01*
X140199510Y-87204985D01*
X140037107Y-87132679D01*
X140037106Y-87132679D01*
X140031076Y-87129994D01*
X139937676Y-87110141D01*
X139850732Y-87091660D01*
X139850727Y-87091660D01*
X139844275Y-87090288D01*
X139653301Y-87090288D01*
X139646849Y-87091660D01*
X139646844Y-87091660D01*
X139559901Y-87110141D01*
X139466500Y-87129994D01*
X139460470Y-87132679D01*
X139460469Y-87132679D01*
X139298066Y-87204985D01*
X139298064Y-87204986D01*
X139292036Y-87207670D01*
X139137535Y-87319922D01*
X139133114Y-87324832D01*
X139133113Y-87324833D01*
X139021740Y-87448526D01*
X139009748Y-87461844D01*
X139006447Y-87467562D01*
X138924088Y-87610212D01*
X138914261Y-87627232D01*
X138855246Y-87808860D01*
X138835284Y-87998788D01*
X136259670Y-87998788D01*
X136239040Y-87963056D01*
X136215450Y-87936856D01*
X136115675Y-87826045D01*
X136115674Y-87826044D01*
X136111253Y-87821134D01*
X135956752Y-87708882D01*
X135950724Y-87706198D01*
X135950722Y-87706197D01*
X135788319Y-87633891D01*
X135788318Y-87633891D01*
X135782288Y-87631206D01*
X135674035Y-87608196D01*
X135601944Y-87592872D01*
X135601939Y-87592872D01*
X135595487Y-87591500D01*
X135404513Y-87591500D01*
X135398061Y-87592872D01*
X135398056Y-87592872D01*
X135325965Y-87608196D01*
X135217712Y-87631206D01*
X135083472Y-87690973D01*
X135013107Y-87700407D01*
X134948810Y-87670301D01*
X134910997Y-87610212D01*
X134906915Y-87562697D01*
X134912814Y-87506567D01*
X134912814Y-87506565D01*
X134913504Y-87500000D01*
X134903525Y-87405058D01*
X134894232Y-87316635D01*
X134894232Y-87316633D01*
X134893542Y-87310072D01*
X134834527Y-87128444D01*
X134824432Y-87110958D01*
X134742341Y-86968774D01*
X134739040Y-86963056D01*
X134687623Y-86905951D01*
X134615675Y-86826045D01*
X134615674Y-86826044D01*
X134611253Y-86821134D01*
X134512157Y-86749136D01*
X134462094Y-86712763D01*
X134462093Y-86712762D01*
X134456752Y-86708882D01*
X134450724Y-86706198D01*
X134450722Y-86706197D01*
X134288319Y-86633891D01*
X134288318Y-86633891D01*
X134282288Y-86631206D01*
X134188887Y-86611353D01*
X134101944Y-86592872D01*
X134101939Y-86592872D01*
X134095487Y-86591500D01*
X133904513Y-86591500D01*
X133898061Y-86592872D01*
X133898056Y-86592872D01*
X133811113Y-86611353D01*
X133717712Y-86631206D01*
X133711682Y-86633891D01*
X133711681Y-86633891D01*
X133549278Y-86706197D01*
X133549276Y-86706198D01*
X133543248Y-86708882D01*
X133454507Y-86773357D01*
X133451974Y-86775197D01*
X133385107Y-86799055D01*
X133315955Y-86782975D01*
X133301383Y-86773357D01*
X133238771Y-86725486D01*
X133238770Y-86725485D01*
X133233348Y-86721340D01*
X133227165Y-86718457D01*
X133227162Y-86718455D01*
X133131614Y-86673901D01*
X133064296Y-86642510D01*
X132882260Y-86601820D01*
X132876537Y-86601500D01*
X132739404Y-86601500D01*
X132600563Y-86616583D01*
X132423777Y-86676078D01*
X132263891Y-86772147D01*
X132128364Y-86900308D01*
X132023520Y-87054582D01*
X132020988Y-87060911D01*
X132020987Y-87060914D01*
X131956785Y-87221430D01*
X131954249Y-87227771D01*
X131923784Y-87411795D01*
X131933547Y-87598067D01*
X131983080Y-87777898D01*
X132070075Y-87942898D01*
X132074484Y-87948115D01*
X132127056Y-88010326D01*
X132155748Y-88075267D01*
X132144775Y-88145411D01*
X132129257Y-88169463D01*
X132128364Y-88170308D01*
X132124528Y-88175953D01*
X132124526Y-88175955D01*
X132027354Y-88318940D01*
X132023520Y-88324582D01*
X132020988Y-88330911D01*
X132020987Y-88330914D01*
X131956785Y-88491430D01*
X131954249Y-88497771D01*
X131947965Y-88535732D01*
X131925283Y-88672743D01*
X131923784Y-88681795D01*
X131924141Y-88688611D01*
X131924141Y-88688615D01*
X131931405Y-88827199D01*
X131933547Y-88868067D01*
X131983080Y-89047898D01*
X132070075Y-89212898D01*
X132074484Y-89218115D01*
X132127056Y-89280326D01*
X132155748Y-89345267D01*
X132144775Y-89415411D01*
X132129257Y-89439463D01*
X132128364Y-89440308D01*
X132124528Y-89445953D01*
X132124526Y-89445955D01*
X132079214Y-89512630D01*
X132023520Y-89594582D01*
X132020988Y-89600911D01*
X132020987Y-89600914D01*
X131985583Y-89689430D01*
X131954249Y-89767771D01*
X131923784Y-89951795D01*
X131924141Y-89958611D01*
X131924141Y-89958615D01*
X131928504Y-90041852D01*
X131933547Y-90138067D01*
X131983080Y-90317898D01*
X132070075Y-90482898D01*
X132102338Y-90521076D01*
X132127056Y-90550326D01*
X132155748Y-90615267D01*
X132144775Y-90685411D01*
X132129257Y-90709463D01*
X132128364Y-90710308D01*
X132124528Y-90715953D01*
X132124526Y-90715955D01*
X132038346Y-90842766D01*
X132023520Y-90864582D01*
X132020988Y-90870911D01*
X132020987Y-90870914D01*
X131960050Y-91023268D01*
X131954249Y-91037771D01*
X131939749Y-91125356D01*
X131925208Y-91213196D01*
X131923784Y-91221795D01*
X131924141Y-91228611D01*
X131924141Y-91228615D01*
X131928837Y-91318205D01*
X131933547Y-91408067D01*
X131983080Y-91587898D01*
X132070075Y-91752898D01*
X132074484Y-91758115D01*
X132127056Y-91820326D01*
X132155748Y-91885267D01*
X132144775Y-91955411D01*
X132129257Y-91979463D01*
X132128364Y-91980308D01*
X132124528Y-91985953D01*
X132124526Y-91985955D01*
X132032372Y-92121556D01*
X132023520Y-92134582D01*
X132020988Y-92140911D01*
X132020987Y-92140914D01*
X131984433Y-92232306D01*
X131954249Y-92307771D01*
X131940353Y-92391709D01*
X131929029Y-92460115D01*
X131923784Y-92491795D01*
X131008500Y-92491795D01*
X131008500Y-85526787D01*
X145545985Y-85526787D01*
X145565947Y-85716715D01*
X145624962Y-85898343D01*
X145720449Y-86063731D01*
X145724867Y-86068638D01*
X145724868Y-86068639D01*
X145791634Y-86142790D01*
X145848236Y-86205653D01*
X146002737Y-86317905D01*
X146008765Y-86320589D01*
X146008767Y-86320590D01*
X146171170Y-86392896D01*
X146177201Y-86395581D01*
X146270602Y-86415434D01*
X146357545Y-86433915D01*
X146357550Y-86433915D01*
X146364002Y-86435287D01*
X146554976Y-86435287D01*
X146561428Y-86433915D01*
X146561433Y-86433915D01*
X146648376Y-86415434D01*
X146741777Y-86395581D01*
X146747808Y-86392896D01*
X146910211Y-86320590D01*
X146910213Y-86320589D01*
X146916241Y-86317905D01*
X147070742Y-86205653D01*
X147127344Y-86142790D01*
X147194110Y-86068639D01*
X147194111Y-86068638D01*
X147198529Y-86063731D01*
X147294016Y-85898343D01*
X147353031Y-85716715D01*
X147372993Y-85526787D01*
X147362132Y-85423452D01*
X147353721Y-85343422D01*
X147353721Y-85343420D01*
X147353031Y-85336859D01*
X147319704Y-85234290D01*
X156852206Y-85234290D01*
X156852896Y-85240855D01*
X156863490Y-85341647D01*
X156872168Y-85424218D01*
X156931183Y-85605846D01*
X157026670Y-85771234D01*
X157154457Y-85913156D01*
X157308958Y-86025408D01*
X157314986Y-86028092D01*
X157314988Y-86028093D01*
X157477391Y-86100399D01*
X157483422Y-86103084D01*
X157576823Y-86122937D01*
X157663766Y-86141418D01*
X157663771Y-86141418D01*
X157670223Y-86142790D01*
X157861197Y-86142790D01*
X157867649Y-86141418D01*
X157867654Y-86141418D01*
X157954598Y-86122937D01*
X158047998Y-86103084D01*
X158054029Y-86100399D01*
X158216432Y-86028093D01*
X158216434Y-86028092D01*
X158222462Y-86025408D01*
X158376963Y-85913156D01*
X158504750Y-85771234D01*
X158600237Y-85605846D01*
X158659252Y-85424218D01*
X158667931Y-85341647D01*
X158678524Y-85240855D01*
X158679214Y-85234290D01*
X158659252Y-85044362D01*
X158600237Y-84862734D01*
X158504750Y-84697346D01*
X158469317Y-84657993D01*
X158381385Y-84560335D01*
X158381384Y-84560334D01*
X158376963Y-84555424D01*
X158222462Y-84443172D01*
X158216434Y-84440488D01*
X158216432Y-84440487D01*
X158054029Y-84368181D01*
X158054028Y-84368181D01*
X158047998Y-84365496D01*
X157954597Y-84345643D01*
X157867654Y-84327162D01*
X157867649Y-84327162D01*
X157861197Y-84325790D01*
X157670223Y-84325790D01*
X157663771Y-84327162D01*
X157663766Y-84327162D01*
X157576823Y-84345643D01*
X157483422Y-84365496D01*
X157477392Y-84368181D01*
X157477391Y-84368181D01*
X157314988Y-84440487D01*
X157314986Y-84440488D01*
X157308958Y-84443172D01*
X157154457Y-84555424D01*
X157150036Y-84560334D01*
X157150035Y-84560335D01*
X157062104Y-84657993D01*
X157026670Y-84697346D01*
X156931183Y-84862734D01*
X156872168Y-85044362D01*
X156852206Y-85234290D01*
X147319704Y-85234290D01*
X147294016Y-85155231D01*
X147198529Y-84989843D01*
X147070742Y-84847921D01*
X146916241Y-84735669D01*
X146910213Y-84732985D01*
X146910211Y-84732984D01*
X146747808Y-84660678D01*
X146747807Y-84660678D01*
X146741777Y-84657993D01*
X146648377Y-84638140D01*
X146561433Y-84619659D01*
X146561428Y-84619659D01*
X146554976Y-84618287D01*
X146364002Y-84618287D01*
X146357550Y-84619659D01*
X146357545Y-84619659D01*
X146270601Y-84638140D01*
X146177201Y-84657993D01*
X146171171Y-84660678D01*
X146171170Y-84660678D01*
X146008767Y-84732984D01*
X146008765Y-84732985D01*
X146002737Y-84735669D01*
X145848236Y-84847921D01*
X145720449Y-84989843D01*
X145624962Y-85155231D01*
X145565947Y-85336859D01*
X145565257Y-85343420D01*
X145565257Y-85343422D01*
X145556846Y-85423452D01*
X145545985Y-85526787D01*
X131008500Y-85526787D01*
X131008500Y-83857655D01*
X131989858Y-83857655D01*
X132025104Y-84116638D01*
X132026412Y-84121124D01*
X132026412Y-84121126D01*
X132046098Y-84188664D01*
X132098243Y-84367567D01*
X132207668Y-84604928D01*
X132210231Y-84608837D01*
X132348410Y-84819596D01*
X132348414Y-84819601D01*
X132350976Y-84823509D01*
X132525018Y-85018506D01*
X132725970Y-85185637D01*
X132729973Y-85188066D01*
X132945422Y-85318804D01*
X132945426Y-85318806D01*
X132949419Y-85321229D01*
X133190455Y-85422303D01*
X133443783Y-85486641D01*
X133448434Y-85487109D01*
X133448438Y-85487110D01*
X133641308Y-85506531D01*
X133660867Y-85508500D01*
X133816354Y-85508500D01*
X133818679Y-85508327D01*
X133818685Y-85508327D01*
X134006000Y-85494407D01*
X134006004Y-85494406D01*
X134010652Y-85494061D01*
X134015200Y-85493032D01*
X134015206Y-85493031D01*
X134201601Y-85450853D01*
X134265577Y-85436377D01*
X134269931Y-85434684D01*
X134504824Y-85343340D01*
X134504827Y-85343339D01*
X134509177Y-85341647D01*
X134517555Y-85336859D01*
X134685526Y-85240855D01*
X134736098Y-85211951D01*
X134941357Y-85050138D01*
X135120443Y-84859763D01*
X135260417Y-84657993D01*
X135266759Y-84648851D01*
X135266761Y-84648848D01*
X135269424Y-84645009D01*
X135311181Y-84560335D01*
X135382960Y-84414781D01*
X135382961Y-84414778D01*
X135385025Y-84410593D01*
X135412171Y-84325790D01*
X135463280Y-84166123D01*
X135464707Y-84161665D01*
X135506721Y-83903693D01*
X135510142Y-83642345D01*
X135474896Y-83383362D01*
X135460810Y-83335034D01*
X148171530Y-83335034D01*
X148172220Y-83341599D01*
X148183681Y-83450640D01*
X148191492Y-83524962D01*
X148250507Y-83706590D01*
X148345994Y-83871978D01*
X148350412Y-83876885D01*
X148350413Y-83876886D01*
X148439026Y-83975301D01*
X148473781Y-84013900D01*
X148628282Y-84126152D01*
X148634310Y-84128836D01*
X148634312Y-84128837D01*
X148796715Y-84201143D01*
X148802746Y-84203828D01*
X148896147Y-84223681D01*
X148983090Y-84242162D01*
X148983095Y-84242162D01*
X148989547Y-84243534D01*
X149180521Y-84243534D01*
X149186973Y-84242162D01*
X149186978Y-84242162D01*
X149273921Y-84223681D01*
X149367322Y-84203828D01*
X149373353Y-84201143D01*
X149535756Y-84128837D01*
X149535758Y-84128836D01*
X149541786Y-84126152D01*
X149696287Y-84013900D01*
X149731042Y-83975301D01*
X149819655Y-83876886D01*
X149819656Y-83876885D01*
X149824074Y-83871978D01*
X149919561Y-83706590D01*
X149978576Y-83524962D01*
X149986388Y-83450640D01*
X149987078Y-83444075D01*
X155030571Y-83444075D01*
X155050533Y-83634003D01*
X155109548Y-83815631D01*
X155205035Y-83981019D01*
X155332822Y-84122941D01*
X155487323Y-84235193D01*
X155493351Y-84237877D01*
X155493353Y-84237878D01*
X155506057Y-84243534D01*
X155661787Y-84312869D01*
X155755188Y-84332722D01*
X155842131Y-84351203D01*
X155842136Y-84351203D01*
X155848588Y-84352575D01*
X156039562Y-84352575D01*
X156046014Y-84351203D01*
X156046019Y-84351203D01*
X156132962Y-84332722D01*
X156226363Y-84312869D01*
X156382093Y-84243534D01*
X156394797Y-84237878D01*
X156394799Y-84237877D01*
X156400827Y-84235193D01*
X156555328Y-84122941D01*
X156683115Y-83981019D01*
X156778602Y-83815631D01*
X156837617Y-83634003D01*
X156857579Y-83444075D01*
X156850726Y-83378874D01*
X156838307Y-83260710D01*
X156838307Y-83260708D01*
X156837617Y-83254147D01*
X156778602Y-83072519D01*
X156683115Y-82907131D01*
X156668738Y-82891163D01*
X156559750Y-82770120D01*
X156559749Y-82770119D01*
X156555328Y-82765209D01*
X156456232Y-82693211D01*
X156406169Y-82656838D01*
X156406168Y-82656837D01*
X156400827Y-82652957D01*
X156394799Y-82650273D01*
X156394797Y-82650272D01*
X156232394Y-82577966D01*
X156232393Y-82577966D01*
X156226363Y-82575281D01*
X156122716Y-82553250D01*
X156046019Y-82536947D01*
X156046014Y-82536947D01*
X156039562Y-82535575D01*
X155848588Y-82535575D01*
X155842136Y-82536947D01*
X155842131Y-82536947D01*
X155765434Y-82553250D01*
X155661787Y-82575281D01*
X155655757Y-82577966D01*
X155655756Y-82577966D01*
X155493353Y-82650272D01*
X155493351Y-82650273D01*
X155487323Y-82652957D01*
X155481982Y-82656837D01*
X155481981Y-82656838D01*
X155431918Y-82693211D01*
X155332822Y-82765209D01*
X155328401Y-82770119D01*
X155328400Y-82770120D01*
X155219413Y-82891163D01*
X155205035Y-82907131D01*
X155109548Y-83072519D01*
X155050533Y-83254147D01*
X155049843Y-83260708D01*
X155049843Y-83260710D01*
X155037424Y-83378874D01*
X155030571Y-83444075D01*
X149987078Y-83444075D01*
X149997848Y-83341599D01*
X149998538Y-83335034D01*
X149978576Y-83145106D01*
X149919561Y-82963478D01*
X149824074Y-82798090D01*
X149696287Y-82656168D01*
X149541786Y-82543916D01*
X149535758Y-82541232D01*
X149535756Y-82541231D01*
X149373353Y-82468925D01*
X149373352Y-82468925D01*
X149367322Y-82466240D01*
X149273922Y-82446387D01*
X149186978Y-82427906D01*
X149186973Y-82427906D01*
X149180521Y-82426534D01*
X148989547Y-82426534D01*
X148983095Y-82427906D01*
X148983090Y-82427906D01*
X148896146Y-82446387D01*
X148802746Y-82466240D01*
X148796716Y-82468925D01*
X148796715Y-82468925D01*
X148634312Y-82541231D01*
X148634310Y-82541232D01*
X148628282Y-82543916D01*
X148473781Y-82656168D01*
X148345994Y-82798090D01*
X148250507Y-82963478D01*
X148191492Y-83145106D01*
X148171530Y-83335034D01*
X135460810Y-83335034D01*
X135460473Y-83333877D01*
X135435403Y-83247869D01*
X135401757Y-83132433D01*
X135292332Y-82895072D01*
X135207190Y-82765209D01*
X135151590Y-82680404D01*
X135151586Y-82680399D01*
X135149024Y-82676491D01*
X134974982Y-82481494D01*
X134774030Y-82314363D01*
X134715632Y-82278926D01*
X134554578Y-82181196D01*
X134554574Y-82181194D01*
X134550581Y-82178771D01*
X134309545Y-82077697D01*
X134056217Y-82013359D01*
X134051566Y-82012891D01*
X134051562Y-82012890D01*
X133842271Y-81991816D01*
X133839133Y-81991500D01*
X133683646Y-81991500D01*
X133681321Y-81991673D01*
X133681315Y-81991673D01*
X133494000Y-82005593D01*
X133493996Y-82005594D01*
X133489348Y-82005939D01*
X133484800Y-82006968D01*
X133484794Y-82006969D01*
X133298399Y-82049147D01*
X133234423Y-82063623D01*
X133230071Y-82065315D01*
X133230069Y-82065316D01*
X132995176Y-82156660D01*
X132995173Y-82156661D01*
X132990823Y-82158353D01*
X132763902Y-82288049D01*
X132558643Y-82449862D01*
X132379557Y-82640237D01*
X132230576Y-82854991D01*
X132228510Y-82859181D01*
X132228508Y-82859184D01*
X132202044Y-82912849D01*
X132114975Y-83089407D01*
X132035293Y-83338335D01*
X131993279Y-83596307D01*
X131992786Y-83634003D01*
X131991761Y-83712313D01*
X131989858Y-83857655D01*
X131008500Y-83857655D01*
X131008500Y-82553250D01*
X131010246Y-82532345D01*
X131012770Y-82517344D01*
X131012770Y-82517341D01*
X131013576Y-82512552D01*
X131013729Y-82500000D01*
X131013040Y-82495186D01*
X131013039Y-82495176D01*
X131012157Y-82489017D01*
X131011206Y-82462172D01*
X131021563Y-82317355D01*
X131023039Y-82296718D01*
X131025596Y-82278934D01*
X131066999Y-82088607D01*
X131072063Y-82071359D01*
X131140136Y-81888850D01*
X131147604Y-81872498D01*
X131240952Y-81701542D01*
X131250672Y-81686418D01*
X131367402Y-81530486D01*
X131379175Y-81516900D01*
X131516900Y-81379175D01*
X131530486Y-81367402D01*
X131686418Y-81250672D01*
X131701542Y-81240952D01*
X131872498Y-81147604D01*
X131888850Y-81140136D01*
X132071359Y-81072063D01*
X132088608Y-81066999D01*
X132278936Y-81025596D01*
X132296715Y-81023039D01*
X132458605Y-81011460D01*
X132476565Y-81012207D01*
X132484845Y-81012308D01*
X132493724Y-81013691D01*
X132525286Y-81009564D01*
X132541621Y-81008500D01*
X167450633Y-81008500D01*
X167470018Y-81010000D01*
G37*
%TD.AperFunction*%
%TD*%
M02*
