%TF.GenerationSoftware,KiCad,Pcbnew,6.0.9-8da3e8f707~117~ubuntu22.04.1*%
%TF.CreationDate,2022-12-08T12:31:12-05:00*%
%TF.ProjectId,kicad_circular_tracks_test,6b696361-645f-4636-9972-63756c61725f,rev?*%
%TF.SameCoordinates,Original*%
%TF.FileFunction,Copper,L1,Top*%
%TF.FilePolarity,Positive*%
%FSLAX46Y46*%
G04 Gerber Fmt 4.6, Leading zero omitted, Abs format (unit mm)*
G04 Created by KiCad (PCBNEW 6.0.9-8da3e8f707~117~ubuntu22.04.1) date 2022-12-08 12:31:12*
%MOMM*%
%LPD*%
G01*
G04 APERTURE LIST*
G04 Aperture macros list*
%AMRoundRect*
0 Rectangle with rounded corners*
0 $1 Rounding radius*
0 $2 $3 $4 $5 $6 $7 $8 $9 X,Y pos of 4 corners*
0 Add a 4 corners polygon primitive as box body*
4,1,4,$2,$3,$4,$5,$6,$7,$8,$9,$2,$3,0*
0 Add four circle primitives for the rounded corners*
1,1,$1+$1,$2,$3*
1,1,$1+$1,$4,$5*
1,1,$1+$1,$6,$7*
1,1,$1+$1,$8,$9*
0 Add four rect primitives between the rounded corners*
20,1,$1+$1,$2,$3,$4,$5,0*
20,1,$1+$1,$4,$5,$6,$7,0*
20,1,$1+$1,$6,$7,$8,$9,0*
20,1,$1+$1,$8,$9,$2,$3,0*%
G04 Aperture macros list end*
%TA.AperFunction,SMDPad,CuDef*%
%ADD10O,1.500000X0.800000*%
%TD*%
%TA.AperFunction,SMDPad,CuDef*%
%ADD11RoundRect,0.218750X-0.176111X0.287229X-0.311306X-0.128858X0.176111X-0.287229X0.311306X0.128858X0*%
%TD*%
%TA.AperFunction,SMDPad,CuDef*%
%ADD12RoundRect,0.218750X0.256250X-0.218750X0.256250X0.218750X-0.256250X0.218750X-0.256250X-0.218750X0*%
%TD*%
%TA.AperFunction,SMDPad,CuDef*%
%ADD13RoundRect,0.218750X-0.256250X0.218750X-0.256250X-0.218750X0.256250X-0.218750X0.256250X0.218750X0*%
%TD*%
%TA.AperFunction,SMDPad,CuDef*%
%ADD14RoundRect,0.218750X-0.287229X-0.176111X0.128858X-0.311306X0.287229X0.176111X-0.128858X0.311306X0*%
%TD*%
%TA.AperFunction,SMDPad,CuDef*%
%ADD15RoundRect,0.218750X0.311306X-0.128858X0.176111X0.287229X-0.311306X0.128858X-0.176111X-0.287229X0*%
%TD*%
%TA.AperFunction,SMDPad,CuDef*%
%ADD16RoundRect,0.218750X0.327592X0.078733X-0.026352X0.335889X-0.327592X-0.078733X0.026352X-0.335889X0*%
%TD*%
%TA.AperFunction,SMDPad,CuDef*%
%ADD17RoundRect,0.218750X-0.128858X-0.311306X0.287229X-0.176111X0.128858X0.311306X-0.287229X0.176111X0*%
%TD*%
%TA.AperFunction,SMDPad,CuDef*%
%ADD18RoundRect,0.218750X0.287229X0.176111X-0.128858X0.311306X-0.287229X-0.176111X0.128858X-0.311306X0*%
%TD*%
%TA.AperFunction,SMDPad,CuDef*%
%ADD19RoundRect,0.218750X0.335889X-0.026352X0.078733X0.327592X-0.335889X0.026352X-0.078733X-0.327592X0*%
%TD*%
%TA.AperFunction,SMDPad,CuDef*%
%ADD20RoundRect,0.200000X-0.065042X-0.333758X0.297482X-0.164711X0.065042X0.333758X-0.297482X0.164711X0*%
%TD*%
%TA.AperFunction,SMDPad,CuDef*%
%ADD21RoundRect,0.218750X-0.335889X0.026352X-0.078733X-0.327592X0.335889X-0.026352X0.078733X0.327592X0*%
%TD*%
%TA.AperFunction,SMDPad,CuDef*%
%ADD22RoundRect,0.200000X0.302901X-0.154518X0.240327X0.240557X-0.302901X0.154518X-0.240327X-0.240557X0*%
%TD*%
%TA.AperFunction,SMDPad,CuDef*%
%ADD23RoundRect,0.218750X0.128858X0.311306X-0.287229X0.176111X-0.128858X-0.311306X0.287229X-0.176111X0*%
%TD*%
%TA.AperFunction,SMDPad,CuDef*%
%ADD24RoundRect,0.218750X-0.327592X-0.078733X0.026352X-0.335889X0.327592X0.078733X-0.026352X0.335889X0*%
%TD*%
%TA.AperFunction,SMDPad,CuDef*%
%ADD25RoundRect,0.200000X0.240557X0.240327X-0.154518X0.302901X-0.240557X-0.240327X0.154518X-0.302901X0*%
%TD*%
%TA.AperFunction,SMDPad,CuDef*%
%ADD26RoundRect,0.218750X-0.218750X-0.256250X0.218750X-0.256250X0.218750X0.256250X-0.218750X0.256250X0*%
%TD*%
%TA.AperFunction,SMDPad,CuDef*%
%ADD27RoundRect,0.218750X0.176111X-0.287229X0.311306X0.128858X-0.176111X0.287229X-0.311306X-0.128858X0*%
%TD*%
%TA.AperFunction,SMDPad,CuDef*%
%ADD28RoundRect,0.218750X0.026352X0.335889X-0.327592X0.078733X-0.026352X-0.335889X0.327592X-0.078733X0*%
%TD*%
%TA.AperFunction,SMDPad,CuDef*%
%ADD29RoundRect,0.200000X-0.154229X0.303049X-0.335825X-0.053354X0.154229X-0.303049X0.335825X0.053354X0*%
%TD*%
%TA.AperFunction,SMDPad,CuDef*%
%ADD30RoundRect,0.218750X0.078733X-0.327592X0.335889X0.026352X-0.078733X0.327592X-0.335889X-0.026352X0*%
%TD*%
%TA.AperFunction,SMDPad,CuDef*%
%ADD31RoundRect,0.200000X-0.335876X-0.053033X-0.053033X-0.335876X0.335876X0.053033X0.053033X0.335876X0*%
%TD*%
%TA.AperFunction,SMDPad,CuDef*%
%ADD32RoundRect,0.218750X0.218750X0.256250X-0.218750X0.256250X-0.218750X-0.256250X0.218750X-0.256250X0*%
%TD*%
%TA.AperFunction,SMDPad,CuDef*%
%ADD33RoundRect,0.218750X-0.026352X-0.335889X0.327592X-0.078733X0.026352X0.335889X-0.327592X0.078733X0*%
%TD*%
%TA.AperFunction,SMDPad,CuDef*%
%ADD34RoundRect,0.218750X-0.311306X0.128858X-0.176111X-0.287229X0.311306X-0.128858X0.176111X0.287229X0*%
%TD*%
%TA.AperFunction,SMDPad,CuDef*%
%ADD35RoundRect,0.218750X-0.078733X0.327592X-0.335889X-0.026352X0.078733X-0.327592X0.335889X0.026352X0*%
%TD*%
%TA.AperFunction,ComponentPad*%
%ADD36C,1.750000*%
%TD*%
%TA.AperFunction,ComponentPad*%
%ADD37O,3.500000X2.700000*%
%TD*%
%TA.AperFunction,ComponentPad*%
%ADD38O,1.000000X1.000000*%
%TD*%
%TA.AperFunction,ComponentPad*%
%ADD39R,1.000000X1.000000*%
%TD*%
%TA.AperFunction,ViaPad*%
%ADD40C,0.800000*%
%TD*%
%TA.AperFunction,Conductor*%
%ADD41C,0.400000*%
%TD*%
%TA.AperFunction,Conductor*%
%ADD42C,0.250000*%
%TD*%
%TA.AperFunction,Conductor*%
%ADD43C,0.600000*%
%TD*%
G04 APERTURE END LIST*
D10*
%TO.P,J3,1,Vcc*%
%TO.N,+3.3V*%
X131631000Y-91905000D03*
%TO.P,J3,3*%
%TO.N,I2C_SCL*%
X131631000Y-90635000D03*
%TO.P,J3,5*%
%TO.N,I2C_SDA*%
X131631000Y-89365000D03*
%TO.P,J3,7,GND*%
%TO.N,GND*%
X131631000Y-88095000D03*
%TD*%
D11*
%TO.P,D12,1,K*%
%TO.N,E*%
X154878605Y-84985195D03*
%TO.P,D12,2,A*%
%TO.N,/C_Col*%
X154391903Y-86483109D03*
%TD*%
D12*
%TO.P,D1,1,K*%
%TO.N,B*%
X150000000Y-115787500D03*
%TO.P,D1,2,A*%
%TO.N,/A_Col*%
X150000000Y-114212500D03*
%TD*%
D13*
%TO.P,D11,1,K*%
%TO.N,D*%
X150000000Y-84212500D03*
%TO.P,D11,2,A*%
%TO.N,/C_Col*%
X150000000Y-85787500D03*
%TD*%
D14*
%TO.P,D7,1,K*%
%TO.N,D*%
X134985195Y-95121394D03*
%TO.P,D7,2,A*%
%TO.N,/B_Col*%
X136483109Y-95608096D03*
%TD*%
D15*
%TO.P,D20,1,K*%
%TO.N,D*%
X154878605Y-115014804D03*
%TO.P,D20,2,A*%
%TO.N,/E_Col*%
X154391903Y-113516890D03*
%TD*%
D16*
%TO.P,D18,1,K*%
%TO.N,B*%
X162772355Y-109279659D03*
%TO.P,D18,2,A*%
%TO.N,/E_Col*%
X161498153Y-108353897D03*
%TD*%
D17*
%TO.P,D5,1,K*%
%TO.N,A*%
X134985195Y-104878605D03*
%TO.P,D5,2,A*%
%TO.N,/B_Col*%
X136483109Y-104391903D03*
%TD*%
D18*
%TO.P,D17,1,K*%
%TO.N,A*%
X165014804Y-104878605D03*
%TO.P,D17,2,A*%
%TO.N,/E_Col*%
X163516890Y-104391903D03*
%TD*%
D19*
%TO.P,D19,1,K*%
%TO.N,C*%
X159279659Y-112772355D03*
%TO.P,D19,2,A*%
%TO.N,/E_Col*%
X158353897Y-111498153D03*
%TD*%
D20*
%TO.P,R2,1*%
%TO.N,B*%
X135750000Y-107098660D03*
%TO.P,R2,2*%
%TO.N,/B_Col*%
X137245408Y-106401340D03*
%TD*%
D21*
%TO.P,D9,1,K*%
%TO.N,A*%
X140720340Y-87227644D03*
%TO.P,D9,2,A*%
%TO.N,/C_Col*%
X141646102Y-88501846D03*
%TD*%
D22*
%TO.P,R1,1*%
%TO.N,A*%
X152379058Y-115564843D03*
%TO.P,R1,2*%
%TO.N,/A_Col*%
X152120942Y-113935157D03*
%TD*%
D23*
%TO.P,D15,1,K*%
%TO.N,C*%
X165014804Y-95121394D03*
%TO.P,D15,2,A*%
%TO.N,/D_Col*%
X163516890Y-95608096D03*
%TD*%
D24*
%TO.P,D8,1,K*%
%TO.N,E*%
X137227644Y-90720340D03*
%TO.P,D8,2,A*%
%TO.N,/B_Col*%
X138501846Y-91646102D03*
%TD*%
D25*
%TO.P,R5,1*%
%TO.N,E*%
X165489843Y-102129058D03*
%TO.P,R5,2*%
%TO.N,/E_Col*%
X163860157Y-101870942D03*
%TD*%
D26*
%TO.P,D6,1,K*%
%TO.N,C*%
X134212500Y-100000000D03*
%TO.P,D6,2,A*%
%TO.N,/B_Col*%
X135787500Y-100000000D03*
%TD*%
D27*
%TO.P,D2,1,K*%
%TO.N,C*%
X145121394Y-115014804D03*
%TO.P,D2,2,A*%
%TO.N,/A_Col*%
X145608096Y-113516890D03*
%TD*%
D28*
%TO.P,D14,1,K*%
%TO.N,B*%
X162772355Y-90720340D03*
%TO.P,D14,2,A*%
%TO.N,/D_Col*%
X161498153Y-91646102D03*
%TD*%
D29*
%TO.P,R4,1*%
%TO.N,D*%
X157374542Y-86014920D03*
%TO.P,R4,2*%
%TO.N,/D_Col*%
X156625458Y-87485080D03*
%TD*%
D30*
%TO.P,D3,1,K*%
%TO.N,D*%
X140720340Y-112772355D03*
%TO.P,D3,2,A*%
%TO.N,/A_Col*%
X141646102Y-111498153D03*
%TD*%
D31*
%TO.P,R3,1*%
%TO.N,C*%
X139083274Y-88583274D03*
%TO.P,R3,2*%
%TO.N,/C_Col*%
X140250000Y-89750000D03*
%TD*%
D32*
%TO.P,D16,1,K*%
%TO.N,E*%
X165787500Y-100000000D03*
%TO.P,D16,2,A*%
%TO.N,/D_Col*%
X164212500Y-100000000D03*
%TD*%
D33*
%TO.P,D4,1,K*%
%TO.N,E*%
X137227644Y-109279659D03*
%TO.P,D4,2,A*%
%TO.N,/A_Col*%
X138501846Y-108353897D03*
%TD*%
D34*
%TO.P,D10,1,K*%
%TO.N,B*%
X145121394Y-84985195D03*
%TO.P,D10,2,A*%
%TO.N,/C_Col*%
X145608096Y-86483109D03*
%TD*%
D35*
%TO.P,D13,1,K*%
%TO.N,A*%
X159279659Y-87227644D03*
%TO.P,D13,2,A*%
%TO.N,/D_Col*%
X158353897Y-88501846D03*
%TD*%
D36*
%TO.P,S1,1,SW1*%
%TO.N,ENC_SW_RAW*%
X143100000Y-97500000D03*
%TO.P,S1,2,SW2*%
%TO.N,GND*%
X143100000Y-102500000D03*
%TO.P,S1,3,A*%
%TO.N,ENC_A_RAW*%
X158000000Y-102500000D03*
%TO.P,S1,4,COMM*%
%TO.N,GND*%
X158000000Y-100000000D03*
%TO.P,S1,5,B*%
%TO.N,ENC_B_RAW*%
X158000000Y-97500000D03*
D37*
%TO.P,S1,6,GND*%
%TO.N,GND*%
X150000000Y-94300000D03*
X150000000Y-105700000D03*
%TD*%
D38*
%TO.P,J4,5,Pin_5*%
%TO.N,INT*%
X133000000Y-107420000D03*
%TO.P,J4,4,Pin_4*%
%TO.N,I2C_SDA*%
X133000000Y-108690000D03*
%TO.P,J4,3,Pin_3*%
%TO.N,I2C_SCL*%
X133000000Y-109960000D03*
%TO.P,J4,2,Pin_2*%
%TO.N,+3.3V*%
X133000000Y-111230000D03*
D39*
%TO.P,J4,1,Pin_1*%
%TO.N,GND*%
X133000000Y-112500000D03*
%TD*%
%TO.P,J1,1,Pin_1*%
%TO.N,GND*%
X166500000Y-112500000D03*
D38*
%TO.P,J1,2,Pin_2*%
%TO.N,+3.3V*%
X166500000Y-111230000D03*
%TO.P,J1,3,Pin_3*%
%TO.N,I2C_SCL*%
X166500000Y-109960000D03*
%TO.P,J1,4,Pin_4*%
%TO.N,I2C_SDA*%
X166500000Y-108690000D03*
%TO.P,J1,5,Pin_5*%
%TO.N,INT*%
X166500000Y-107420000D03*
%TD*%
D40*
%TO.N,A*%
X153250000Y-113500000D03*
X142822754Y-87979752D03*
X136326396Y-102923604D03*
X156000000Y-99500000D03*
X162825273Y-105575273D03*
X159243935Y-89506065D03*
%TO.N,B*%
X161246763Y-109746763D03*
X146459489Y-85526787D03*
X136265922Y-105734078D03*
X151157645Y-114842355D03*
X155000000Y-100000000D03*
X151250000Y-112000000D03*
X162821488Y-92428512D03*
%TO.N,C*%
X143200000Y-114000000D03*
X152750000Y-102000000D03*
X134267089Y-98767089D03*
X165421170Y-96561033D03*
X139748788Y-87998788D03*
X158531054Y-113281054D03*
X146000000Y-111500000D03*
%TO.N,GND*%
X141250000Y-93250000D03*
X150750000Y-99250000D03*
X143500000Y-94250000D03*
X151800000Y-107200000D03*
X161100000Y-101900000D03*
X157000000Y-106750000D03*
X154500000Y-111000000D03*
X149250000Y-99250000D03*
X147600000Y-113800000D03*
X146500000Y-109800000D03*
X143750000Y-89750000D03*
X150750000Y-100750000D03*
X154500000Y-95300000D03*
X143000000Y-104750000D03*
X156800000Y-115800000D03*
X131750000Y-87000000D03*
X155750000Y-109750000D03*
X146500000Y-116500000D03*
X149250000Y-100750000D03*
X150000000Y-88250000D03*
%TO.N,+3.3V*%
X141500000Y-104750000D03*
X154700000Y-97000000D03*
X144500000Y-95500000D03*
%TO.N,D*%
X157765710Y-85234290D03*
X149085034Y-83335034D03*
X153775500Y-102000000D03*
X134235653Y-94488717D03*
X147000000Y-111750000D03*
X157771113Y-114771113D03*
X140222278Y-113527722D03*
%TO.N,E*%
X134861405Y-91023268D03*
X167441220Y-102191220D03*
X148000000Y-112000000D03*
X135936128Y-110563872D03*
X154500000Y-101000000D03*
X155944075Y-83444075D03*
X167583282Y-100083282D03*
%TO.N,I2C_SDA*%
X147500000Y-115325999D03*
X151113233Y-116525500D03*
%TO.N,I2C_SCL*%
X148500000Y-117250000D03*
X132000000Y-103750000D03*
%TO.N,SWDIO*%
X141250000Y-90750000D03*
X134000000Y-87500000D03*
%TO.N,INT*%
X144500000Y-104000000D03*
X162250000Y-101250000D03*
X150500000Y-108000000D03*
%TO.N,SWCLK*%
X135500000Y-88500000D03*
X140750000Y-91750000D03*
%TO.N,~{RESET}*%
X134750000Y-89500000D03*
X140195576Y-92581637D03*
%TD*%
D41*
%TO.N,/B_Col*%
X137832772Y-106167228D02*
X137598660Y-106401340D01*
X137108096Y-95608096D02*
X137610313Y-96110313D01*
X137168062Y-102083428D02*
X137024605Y-100799021D01*
X137015020Y-99984980D02*
X137009389Y-99506717D01*
X137363010Y-96949460D02*
X137610313Y-96110313D01*
X137608097Y-104391903D02*
X137733082Y-104266918D01*
X136483109Y-95608096D02*
X137108096Y-95608096D01*
X137832772Y-104577977D02*
X137733082Y-104266918D01*
X138501846Y-93979028D02*
X138490437Y-93990437D01*
X135787500Y-100000000D02*
X137000000Y-100000000D01*
X137122563Y-98219289D02*
X137363010Y-96949460D01*
X137832772Y-104577977D02*
X137832772Y-106167228D01*
X137610313Y-96110313D02*
X137728353Y-95709780D01*
X137009389Y-99506717D02*
X137122563Y-98219289D01*
X137733082Y-104266918D02*
X137438341Y-103347243D01*
X137438341Y-103347243D02*
X137168062Y-102083428D01*
X137024605Y-100799021D02*
X137015020Y-99984980D01*
X137000000Y-100000000D02*
X137015020Y-99984980D01*
X136483109Y-104391903D02*
X137608097Y-104391903D01*
X137728353Y-95709780D02*
X138214980Y-94512502D01*
X138501846Y-91646102D02*
X138501846Y-93979028D01*
X138214980Y-94512502D02*
X138490437Y-93990437D01*
X137598660Y-106401340D02*
X137245408Y-106401340D01*
%TO.N,/C_Col*%
X152044314Y-87161772D02*
X153308947Y-87428199D01*
D42*
X145608096Y-86483109D02*
X145608096Y-86858096D01*
D41*
X142065324Y-89750000D02*
X140250000Y-89750000D01*
X145672403Y-87741484D02*
X146303425Y-87553425D01*
D42*
X150000000Y-85787500D02*
X150000000Y-87000000D01*
D41*
X142260084Y-89555240D02*
X142065324Y-89750000D01*
D42*
X154391903Y-87108097D02*
X153888127Y-87611873D01*
X145608096Y-86858096D02*
X146303425Y-87553425D01*
D41*
X142437177Y-89437177D02*
X143335415Y-88838342D01*
X149467132Y-87010952D02*
X149984533Y-87015467D01*
X143335415Y-88838342D02*
X144476614Y-88231758D01*
D42*
X154391903Y-86483109D02*
X154391903Y-87108097D01*
D41*
X142260084Y-89555240D02*
X142437177Y-89437177D01*
X146303425Y-87553425D02*
X146910964Y-87372365D01*
X150759476Y-87022230D02*
X152044314Y-87161772D01*
X146910964Y-87372365D02*
X148180054Y-87128049D01*
D42*
X141646102Y-88646102D02*
X142437177Y-89437177D01*
X141646102Y-88501846D02*
X141646102Y-88646102D01*
D41*
X153308947Y-87428199D02*
X153888127Y-87611873D01*
D42*
X150000000Y-87000000D02*
X149984533Y-87015467D01*
D41*
X149984533Y-87015467D02*
X150759476Y-87022230D01*
X144476614Y-88231758D02*
X145672403Y-87741484D01*
X148180054Y-87128049D02*
X149467132Y-87010952D01*
D42*
%TO.N,A*%
X159279659Y-87227644D02*
X159279659Y-89470341D01*
X140720340Y-87227644D02*
X142070646Y-87227644D01*
X153250000Y-114250000D02*
X153250000Y-113500000D01*
X156000000Y-108000000D02*
X156000000Y-99500000D01*
X164174727Y-105575273D02*
X162825273Y-105575273D01*
X153250000Y-113500000D02*
X153250000Y-110750000D01*
X164871395Y-104878605D02*
X164174727Y-105575273D01*
X142070646Y-87227644D02*
X142822754Y-87979752D01*
X134985195Y-104264805D02*
X136326396Y-102923604D01*
X159279659Y-89470341D02*
X159243935Y-89506065D01*
X152379058Y-115120942D02*
X153250000Y-114250000D01*
X153250000Y-110750000D02*
X156000000Y-108000000D01*
X134985195Y-104878605D02*
X134985195Y-104264805D01*
X152379058Y-115564843D02*
X152379058Y-115120942D01*
%TO.N,B*%
X150212500Y-115787500D02*
X151157645Y-114842355D01*
X162772355Y-109279659D02*
X161713867Y-109279659D01*
X161713867Y-109279659D02*
X161246763Y-109746763D01*
X145917897Y-84985195D02*
X146459489Y-85526787D01*
X151250000Y-111750000D02*
X155250000Y-107750000D01*
X162772355Y-90720340D02*
X162772355Y-92379379D01*
X145121394Y-84985195D02*
X145917897Y-84985195D01*
D41*
X135750000Y-107098660D02*
X135750000Y-106250000D01*
D42*
X162772355Y-92379379D02*
X162821488Y-92428512D01*
X151250000Y-112000000D02*
X151250000Y-111750000D01*
X155250000Y-107750000D02*
X155250000Y-100250000D01*
X155250000Y-100250000D02*
X155000000Y-100000000D01*
D41*
X135750000Y-106250000D02*
X136265922Y-105734078D01*
D42*
%TO.N,C*%
X159039753Y-112772355D02*
X158531054Y-113281054D01*
X165014804Y-95121394D02*
X165014804Y-96154667D01*
X144141768Y-114641768D02*
X144108232Y-114641768D01*
X144108232Y-114641768D02*
X144481268Y-115014804D01*
X144481268Y-115014804D02*
X145121394Y-115014804D01*
X152750000Y-102000000D02*
X152750000Y-107275306D01*
X143200000Y-114000000D02*
X144141768Y-114641768D01*
X152512653Y-107512653D02*
X152750000Y-107275305D01*
X139083274Y-88583274D02*
X139164302Y-88583274D01*
X146000000Y-111500000D02*
X146700000Y-110800000D01*
X146700000Y-110800000D02*
X149225305Y-110800000D01*
X165014804Y-96154667D02*
X165421170Y-96561033D01*
X152750000Y-107275306D02*
X152512653Y-107512653D01*
X149225305Y-110800000D02*
X152512653Y-107512653D01*
X139164302Y-88583274D02*
X139748788Y-87998788D01*
X134212500Y-100000000D02*
X134212500Y-98821678D01*
X134212500Y-98821678D02*
X134267089Y-98767089D01*
D41*
%TO.N,/D_Col*%
X157921023Y-88780645D02*
X156625458Y-87485080D01*
X164212500Y-100000000D02*
X163263731Y-100000000D01*
X157921023Y-89691911D02*
X158905392Y-90529346D01*
X163516890Y-95608096D02*
X162661159Y-95608096D01*
X158905392Y-90529346D02*
X159801747Y-91460383D01*
X160601227Y-92475820D02*
X161295931Y-93565621D01*
X161430945Y-91646102D02*
X160601227Y-92475820D01*
X161878994Y-94719015D02*
X162344652Y-95924603D01*
X162906552Y-98444302D02*
X162997241Y-99733510D01*
X162661159Y-95608096D02*
X162344652Y-95924603D01*
X162344652Y-95924603D02*
X162688304Y-97170470D01*
X157921023Y-88934720D02*
X158353897Y-88501846D01*
X159801747Y-91460383D02*
X160601227Y-92475820D01*
X163263731Y-100000000D02*
X162997241Y-99733510D01*
X161295931Y-93565621D02*
X161878994Y-94719015D01*
X162688304Y-97170470D02*
X162906552Y-98444302D01*
X157921023Y-89691911D02*
X157921023Y-88780645D01*
D42*
%TO.N,GND*%
X131631000Y-88095000D02*
X131631000Y-87119000D01*
X131631000Y-87119000D02*
X131750000Y-87000000D01*
D41*
%TO.N,+3.3V*%
X131631000Y-100869000D02*
X131000000Y-101500000D01*
X139000000Y-107000000D02*
X141250000Y-104750000D01*
X133502793Y-111230000D02*
X135851852Y-108880941D01*
X135851852Y-108851852D02*
X139000000Y-107000000D01*
D43*
X154700000Y-97000000D02*
X145750000Y-97000000D01*
X145750000Y-97000000D02*
X144500000Y-95750000D01*
D41*
X131631000Y-91905000D02*
X131631000Y-100869000D01*
X135851852Y-108880941D02*
X135851852Y-108851852D01*
D43*
X144500000Y-95750000D02*
X144500000Y-95500000D01*
D41*
X141250000Y-104750000D02*
X141500000Y-104750000D01*
X133000000Y-111230000D02*
X133502793Y-111230000D01*
X131000000Y-109962106D02*
X132267894Y-111230000D01*
X131000000Y-101500000D02*
X131000000Y-109962106D01*
X132267894Y-111230000D02*
X133000000Y-111230000D01*
D42*
%TO.N,D*%
X154878605Y-115014804D02*
X157527422Y-115014804D01*
X149962500Y-84212500D02*
X149085034Y-83335034D01*
X157374542Y-85625458D02*
X157765710Y-85234290D01*
X153775500Y-107224500D02*
X153775500Y-102000000D01*
X147500000Y-111250000D02*
X149750000Y-111250000D01*
X157374542Y-86014920D02*
X157374542Y-85625458D01*
X140720340Y-113029660D02*
X140222278Y-113527722D01*
X134868330Y-95121394D02*
X134235653Y-94488717D01*
X149750000Y-111250000D02*
X153775500Y-107224500D01*
X147000000Y-111750000D02*
X147500000Y-111250000D01*
X157527422Y-115014804D02*
X157771113Y-114771113D01*
%TO.N,E*%
X154500000Y-107500000D02*
X154500000Y-101000000D01*
X137227644Y-90720340D02*
X135164333Y-90720340D01*
X154878605Y-84509545D02*
X155944075Y-83444075D01*
X165489843Y-102129058D02*
X167379058Y-102129058D01*
X135164333Y-90720340D02*
X134861405Y-91023268D01*
X137220341Y-109279659D02*
X135936128Y-110563872D01*
X167379058Y-102129058D02*
X167441220Y-102191220D01*
X148000000Y-112000000D02*
X148250000Y-111750000D01*
X150250000Y-111750000D02*
X154500000Y-107500000D01*
X165787500Y-100000000D02*
X167500000Y-100000000D01*
X148250000Y-111750000D02*
X150250000Y-111750000D01*
X167500000Y-100000000D02*
X167583282Y-100083282D01*
X154878605Y-84985195D02*
X154878605Y-84509545D01*
D41*
%TO.N,/E_Col*%
X160143547Y-108130667D02*
X159286109Y-109097662D01*
X156201468Y-111425457D02*
X155036364Y-111984754D01*
X157305281Y-110753239D02*
X156201468Y-111425457D01*
X162501327Y-103565964D02*
X162200669Y-104450669D01*
X163516890Y-104391903D02*
X162259435Y-104391903D01*
X159286109Y-109097662D02*
X158336893Y-109974743D01*
X157703059Y-110453059D02*
X157305281Y-110753239D01*
X154391903Y-113516890D02*
X154391903Y-112629215D01*
X158353897Y-111103897D02*
X157703059Y-110453059D01*
X161550182Y-105965951D02*
X160900732Y-107083312D01*
X161498153Y-108353897D02*
X161103897Y-108353897D01*
X158336893Y-109974743D02*
X157703059Y-110453059D01*
X154391903Y-112629215D02*
X155036364Y-111984754D01*
X162085477Y-104789627D02*
X161550182Y-105965951D01*
X162501327Y-103229772D02*
X163860157Y-101870942D01*
X162501327Y-103565964D02*
X162501327Y-103229772D01*
X160900732Y-107083312D02*
X160452843Y-107702843D01*
X162259435Y-104391903D02*
X162200669Y-104450669D01*
X161103897Y-108353897D02*
X160452843Y-107702843D01*
X162200669Y-104450669D02*
X162085477Y-104789627D01*
X158353897Y-111498153D02*
X158353897Y-111103897D01*
X160452843Y-107702843D02*
X160143547Y-108130667D01*
%TO.N,/A_Col*%
X145608096Y-113516890D02*
X145608096Y-112391904D01*
X150254390Y-112978146D02*
X150263122Y-112986878D01*
X144755240Y-111895032D02*
X143600074Y-111315487D01*
X149773119Y-112997993D02*
X149478146Y-112978146D01*
X151290795Y-112935731D02*
X151290795Y-113105010D01*
X142433953Y-110566047D02*
X141490292Y-109827725D01*
X139314599Y-108353897D02*
X139716097Y-107952399D01*
X145608096Y-112391904D02*
X145731357Y-112268643D01*
X147209150Y-112696867D02*
X145962241Y-112357014D01*
X141646102Y-111353898D02*
X142433953Y-110566047D01*
X150000000Y-112999973D02*
X150000000Y-114212500D01*
X138501846Y-108353897D02*
X139314599Y-108353897D01*
X149478146Y-112978146D02*
X148483641Y-112911233D01*
X143600074Y-111315487D02*
X142508161Y-110624107D01*
X151290795Y-113105010D02*
X152120942Y-113935157D01*
X150263122Y-112986878D02*
X150000000Y-112999973D01*
X151290795Y-112935731D02*
X150263122Y-112986878D01*
X140556528Y-108934212D02*
X139716097Y-107952399D01*
X149478146Y-112978146D02*
X150254390Y-112978146D01*
X141490292Y-109827725D02*
X140556528Y-108934212D01*
X145731357Y-112268643D02*
X144755240Y-111895032D01*
X145962241Y-112357014D02*
X145731357Y-112268643D01*
X142508161Y-110624107D02*
X142433953Y-110566047D01*
X148483641Y-112911233D02*
X147209150Y-112696867D01*
D42*
%TO.N,I2C_SDA*%
X133115000Y-89365000D02*
X131631000Y-89365000D01*
X132150000Y-105750000D02*
X133450000Y-104450000D01*
X148724001Y-116550000D02*
X151088733Y-116550000D01*
X132160000Y-107350000D02*
X132160000Y-107850000D01*
X133450000Y-94249065D02*
X133949501Y-93749564D01*
X147500000Y-115325999D02*
X148724001Y-116550000D01*
X133949501Y-90199501D02*
X133115000Y-89365000D01*
X151088733Y-116550000D02*
X151113233Y-116525500D01*
X132160000Y-107350000D02*
X132150000Y-107350000D01*
X166500000Y-108690000D02*
X158664500Y-116525500D01*
X132160000Y-107850000D02*
X133000000Y-108690000D01*
X133450000Y-104450000D02*
X133450000Y-94249065D01*
X133949501Y-93749564D02*
X133949501Y-90199501D01*
X132150000Y-107350000D02*
X132150000Y-105750000D01*
X158664500Y-116525500D02*
X151113233Y-116525500D01*
%TO.N,I2C_SCL*%
X133500000Y-91250000D02*
X132885000Y-90635000D01*
X133500000Y-93563375D02*
X133500000Y-91250000D01*
X162000000Y-114460000D02*
X162000000Y-114500000D01*
X132250000Y-103750000D02*
X132250000Y-94813375D01*
X132885000Y-90635000D02*
X131631000Y-90635000D01*
X148500000Y-117250000D02*
X159250000Y-117250000D01*
X162000000Y-114500000D02*
X159500000Y-117000000D01*
X132250000Y-94813375D02*
X133500000Y-93563375D01*
X159250000Y-117250000D02*
X159500000Y-117000000D01*
X166500000Y-109960000D02*
X162000000Y-114460000D01*
%TO.N,SWDIO*%
X136868629Y-87500000D02*
X140118629Y-90750000D01*
X140118629Y-90750000D02*
X141250000Y-90750000D01*
X134000000Y-87500000D02*
X136868629Y-87500000D01*
%TO.N,INT*%
X168166220Y-101666220D02*
X168166220Y-105753780D01*
X135250000Y-108250000D02*
X134420000Y-107420000D01*
X162700000Y-100800000D02*
X167300000Y-100800000D01*
X141086306Y-104000000D02*
X144500000Y-104000000D01*
X168166220Y-105753780D02*
X166500000Y-107420000D01*
X167300000Y-100800000D02*
X168166220Y-101666220D01*
X148500000Y-108000000D02*
X150500000Y-108000000D01*
X162250000Y-101250000D02*
X162700000Y-100800000D01*
X138326298Y-106760008D02*
X141086306Y-104000000D01*
X144500000Y-104000000D02*
X148500000Y-108000000D01*
X137313811Y-107300499D02*
X138326298Y-106760008D01*
X135250000Y-108250000D02*
X137313811Y-107300499D01*
X134420000Y-107420000D02*
X133000000Y-107420000D01*
%TO.N,SWCLK*%
X137232939Y-88500000D02*
X135500000Y-88500000D01*
X140482939Y-91750000D02*
X137232939Y-88500000D01*
X140750000Y-91750000D02*
X140482939Y-91750000D01*
%TO.N,~{RESET}*%
X138970411Y-90899002D02*
X139775500Y-91704091D01*
X137478620Y-89500000D02*
X138877622Y-90899002D01*
X134750000Y-89500000D02*
X137478620Y-89500000D01*
X139775500Y-91704091D02*
X139775500Y-92161561D01*
X138877622Y-90899002D02*
X138970411Y-90899002D01*
X139775500Y-92161561D02*
X140195576Y-92581637D01*
%TD*%
%TA.AperFunction,Conductor*%
%TO.N,GND*%
G36*
X168941297Y-105957674D02*
G01*
X168983681Y-106014631D01*
X168991500Y-106058326D01*
X168991500Y-117450633D01*
X168990000Y-117470018D01*
X168987690Y-117484851D01*
X168987690Y-117484855D01*
X168986309Y-117493724D01*
X168988136Y-117507693D01*
X168988304Y-117508976D01*
X168989047Y-117534302D01*
X168978224Y-117685637D01*
X168976962Y-117703279D01*
X168974404Y-117721064D01*
X168938101Y-117887949D01*
X168933001Y-117911392D01*
X168927937Y-117928641D01*
X168859864Y-118111150D01*
X168852396Y-118127502D01*
X168759048Y-118298458D01*
X168749328Y-118313582D01*
X168632598Y-118469514D01*
X168620825Y-118483100D01*
X168483100Y-118620825D01*
X168469514Y-118632598D01*
X168313582Y-118749328D01*
X168298458Y-118759048D01*
X168127502Y-118852396D01*
X168111150Y-118859864D01*
X167928641Y-118927937D01*
X167911393Y-118933001D01*
X167721064Y-118974404D01*
X167703285Y-118976961D01*
X167541395Y-118988540D01*
X167523435Y-118987793D01*
X167515155Y-118987692D01*
X167506276Y-118986309D01*
X167474714Y-118990436D01*
X167458379Y-118991500D01*
X132549367Y-118991500D01*
X132529982Y-118990000D01*
X132515149Y-118987690D01*
X132515145Y-118987690D01*
X132506276Y-118986309D01*
X132491019Y-118988304D01*
X132465698Y-118989047D01*
X132296715Y-118976961D01*
X132278936Y-118974404D01*
X132088607Y-118933001D01*
X132071359Y-118927937D01*
X131888850Y-118859864D01*
X131872498Y-118852396D01*
X131701542Y-118759048D01*
X131686418Y-118749328D01*
X131530486Y-118632598D01*
X131516900Y-118620825D01*
X131379175Y-118483100D01*
X131367402Y-118469514D01*
X131250672Y-118313582D01*
X131240952Y-118298458D01*
X131147604Y-118127502D01*
X131140136Y-118111150D01*
X131072063Y-117928641D01*
X131066999Y-117911392D01*
X131061899Y-117887949D01*
X131025596Y-117721064D01*
X131023038Y-117703278D01*
X131021777Y-117685637D01*
X131011719Y-117545011D01*
X131012805Y-117522245D01*
X131012334Y-117522203D01*
X131012770Y-117517345D01*
X131013576Y-117512552D01*
X131013729Y-117500000D01*
X131009773Y-117472376D01*
X131008500Y-117454514D01*
X131008500Y-113044669D01*
X131992001Y-113044669D01*
X131992371Y-113051490D01*
X131997895Y-113102352D01*
X132001521Y-113117604D01*
X132046676Y-113238054D01*
X132055214Y-113253649D01*
X132131715Y-113355724D01*
X132144276Y-113368285D01*
X132246351Y-113444786D01*
X132261946Y-113453324D01*
X132382394Y-113498478D01*
X132397649Y-113502105D01*
X132448514Y-113507631D01*
X132455328Y-113508000D01*
X132727885Y-113508000D01*
X132743124Y-113503525D01*
X132744329Y-113502135D01*
X132746000Y-113494452D01*
X132746000Y-113489884D01*
X133254000Y-113489884D01*
X133258475Y-113505123D01*
X133259865Y-113506328D01*
X133267548Y-113507999D01*
X133544669Y-113507999D01*
X133551490Y-113507629D01*
X133602352Y-113502105D01*
X133617604Y-113498479D01*
X133738054Y-113453324D01*
X133753649Y-113444786D01*
X133855724Y-113368285D01*
X133868285Y-113355724D01*
X133944786Y-113253649D01*
X133953324Y-113238054D01*
X133998478Y-113117606D01*
X134002105Y-113102351D01*
X134007631Y-113051486D01*
X134008000Y-113044672D01*
X134008000Y-112772115D01*
X134003525Y-112756876D01*
X134002135Y-112755671D01*
X133994452Y-112754000D01*
X133272115Y-112754000D01*
X133256876Y-112758475D01*
X133255671Y-112759865D01*
X133254000Y-112767548D01*
X133254000Y-113489884D01*
X132746000Y-113489884D01*
X132746000Y-112772115D01*
X132741525Y-112756876D01*
X132740135Y-112755671D01*
X132732452Y-112754000D01*
X132010116Y-112754000D01*
X131994877Y-112758475D01*
X131993672Y-112759865D01*
X131992001Y-112767548D01*
X131992001Y-113044669D01*
X131008500Y-113044669D01*
X131008500Y-111276766D01*
X131028502Y-111208645D01*
X131082158Y-111162152D01*
X131152432Y-111152048D01*
X131217012Y-111181542D01*
X131223595Y-111187671D01*
X131746444Y-111710520D01*
X131752298Y-111716785D01*
X131790333Y-111760385D01*
X131797439Y-111765379D01*
X131842613Y-111797128D01*
X131847908Y-111801061D01*
X131898176Y-111840476D01*
X131905092Y-111843599D01*
X131907378Y-111844983D01*
X131922044Y-111853348D01*
X131924413Y-111854618D01*
X131930633Y-111858990D01*
X131930634Y-111858991D01*
X131930635Y-111858991D01*
X131930116Y-111859729D01*
X131976124Y-111905042D01*
X131992000Y-111966268D01*
X131992000Y-112227885D01*
X131996475Y-112243124D01*
X131997865Y-112244329D01*
X132005548Y-112246000D01*
X133989884Y-112246000D01*
X134005123Y-112241525D01*
X134006328Y-112240135D01*
X134007999Y-112232452D01*
X134007999Y-111955331D01*
X134007629Y-111948510D01*
X134002105Y-111897648D01*
X133998479Y-111882397D01*
X133987284Y-111852534D01*
X133982101Y-111781727D01*
X134011186Y-111724489D01*
X134016224Y-111718834D01*
X134021209Y-111713554D01*
X134882084Y-110852679D01*
X134944396Y-110818653D01*
X135015211Y-110823718D01*
X135072047Y-110866265D01*
X135091011Y-110902837D01*
X135101601Y-110935428D01*
X135197088Y-111100816D01*
X135201506Y-111105723D01*
X135201507Y-111105724D01*
X135308326Y-111224359D01*
X135324875Y-111242738D01*
X135479376Y-111354990D01*
X135485404Y-111357674D01*
X135485406Y-111357675D01*
X135581926Y-111400648D01*
X135653840Y-111432666D01*
X135747241Y-111452519D01*
X135834184Y-111471000D01*
X135834189Y-111471000D01*
X135840641Y-111472372D01*
X136031615Y-111472372D01*
X136038067Y-111471000D01*
X136038072Y-111471000D01*
X136125015Y-111452519D01*
X136218416Y-111432666D01*
X136290330Y-111400648D01*
X136386850Y-111357675D01*
X136386852Y-111357674D01*
X136392880Y-111354990D01*
X136547381Y-111242738D01*
X136563930Y-111224359D01*
X136670749Y-111105724D01*
X136670750Y-111105723D01*
X136675168Y-111100816D01*
X136770655Y-110935428D01*
X136829670Y-110753800D01*
X136847035Y-110588578D01*
X136874048Y-110522922D01*
X136883250Y-110512654D01*
X137020155Y-110375749D01*
X137082467Y-110341723D01*
X137128852Y-110340378D01*
X137144779Y-110342887D01*
X137164673Y-110346020D01*
X137164676Y-110346020D01*
X137171907Y-110347159D01*
X137341001Y-110334296D01*
X137502603Y-110282878D01*
X137580673Y-110237531D01*
X137586885Y-110233923D01*
X137586888Y-110233921D01*
X137589665Y-110232308D01*
X138021797Y-109918346D01*
X138097654Y-109850226D01*
X138196252Y-109712251D01*
X138260465Y-109555295D01*
X138265933Y-109520574D01*
X138296288Y-109456395D01*
X138356523Y-109418815D01*
X138410000Y-109415710D01*
X138429715Y-109418815D01*
X138438876Y-109420258D01*
X138438877Y-109420258D01*
X138446109Y-109421397D01*
X138615203Y-109408534D01*
X138776805Y-109357116D01*
X138863867Y-109306546D01*
X139166788Y-109086461D01*
X139240850Y-109062397D01*
X139285687Y-109062397D01*
X139294257Y-109062689D01*
X139344375Y-109066106D01*
X139344379Y-109066106D01*
X139351951Y-109066622D01*
X139359428Y-109065317D01*
X139359429Y-109065317D01*
X139406378Y-109057123D01*
X139414902Y-109055635D01*
X139421420Y-109054674D01*
X139484841Y-109046999D01*
X139491942Y-109044316D01*
X139494551Y-109043675D01*
X139510861Y-109039212D01*
X139513397Y-109038447D01*
X139520883Y-109037140D01*
X139574226Y-109013724D01*
X139644640Y-109004659D01*
X139708779Y-109035102D01*
X139720590Y-109047162D01*
X140009050Y-109384149D01*
X140011558Y-109387173D01*
X140032952Y-109413818D01*
X140035937Y-109416674D01*
X140036694Y-109417399D01*
X140041099Y-109422055D01*
X140041153Y-109422002D01*
X140043782Y-109424723D01*
X140046255Y-109427612D01*
X140049055Y-109430181D01*
X140049056Y-109430182D01*
X140072284Y-109451493D01*
X140074197Y-109453285D01*
X140442238Y-109805461D01*
X140990175Y-110329779D01*
X140992994Y-110332563D01*
X141001983Y-110341723D01*
X141016924Y-110356948D01*
X141020164Y-110359483D01*
X141020174Y-110359492D01*
X141021013Y-110360148D01*
X141025846Y-110364332D01*
X141025895Y-110364274D01*
X141028780Y-110366719D01*
X141031531Y-110369352D01*
X141042464Y-110377542D01*
X141059795Y-110390525D01*
X141061892Y-110392131D01*
X141093480Y-110416845D01*
X141134806Y-110474574D01*
X141138361Y-110545482D01*
X141103016Y-110607055D01*
X141089275Y-110618468D01*
X141080179Y-110624992D01*
X141080176Y-110624995D01*
X141074589Y-110629002D01*
X141007415Y-110704000D01*
X140693453Y-111136132D01*
X140642358Y-111224359D01*
X140591223Y-111386050D01*
X140578655Y-111555167D01*
X140584184Y-111589879D01*
X140575145Y-111660298D01*
X140529471Y-111714652D01*
X140479572Y-111734129D01*
X140450706Y-111738727D01*
X140450705Y-111738727D01*
X140443474Y-111739879D01*
X140286630Y-111804365D01*
X140148827Y-111903204D01*
X140081653Y-111978202D01*
X139767691Y-112410334D01*
X139716596Y-112498561D01*
X139665461Y-112660252D01*
X139658019Y-112760398D01*
X139633023Y-112826850D01*
X139616677Y-112844696D01*
X139616369Y-112844973D01*
X139611025Y-112848856D01*
X139606604Y-112853766D01*
X139606603Y-112853767D01*
X139491523Y-112981577D01*
X139483238Y-112990778D01*
X139448188Y-113051486D01*
X139393742Y-113145790D01*
X139387751Y-113156166D01*
X139328736Y-113337794D01*
X139328046Y-113344355D01*
X139328046Y-113344357D01*
X139311466Y-113502105D01*
X139308774Y-113527722D01*
X139309464Y-113534287D01*
X139325232Y-113684308D01*
X139328736Y-113717650D01*
X139387751Y-113899278D01*
X139483238Y-114064666D01*
X139487656Y-114069573D01*
X139487657Y-114069574D01*
X139596024Y-114189928D01*
X139611025Y-114206588D01*
X139765526Y-114318840D01*
X139771554Y-114321524D01*
X139771556Y-114321525D01*
X139905823Y-114381304D01*
X139939990Y-114396516D01*
X140018844Y-114413277D01*
X140120334Y-114434850D01*
X140120339Y-114434850D01*
X140126791Y-114436222D01*
X140317765Y-114436222D01*
X140324217Y-114434850D01*
X140324222Y-114434850D01*
X140425712Y-114413277D01*
X140504566Y-114396516D01*
X140538733Y-114381304D01*
X140673000Y-114321525D01*
X140673002Y-114321524D01*
X140679030Y-114318840D01*
X140833531Y-114206588D01*
X140848532Y-114189928D01*
X140956899Y-114069574D01*
X140956900Y-114069573D01*
X140961318Y-114064666D01*
X141056805Y-113899278D01*
X141083474Y-113817199D01*
X141123547Y-113758593D01*
X141142222Y-113745933D01*
X141147286Y-113743126D01*
X141154050Y-113740345D01*
X141291853Y-113641506D01*
X141359027Y-113566508D01*
X141672989Y-113134376D01*
X141724084Y-113046149D01*
X141765312Y-112915783D01*
X141773010Y-112891443D01*
X141775219Y-112884458D01*
X141787787Y-112715341D01*
X141782258Y-112680628D01*
X141791297Y-112610210D01*
X141836971Y-112555856D01*
X141886870Y-112536379D01*
X141915736Y-112531781D01*
X141915737Y-112531781D01*
X141922968Y-112530629D01*
X142079812Y-112466143D01*
X142217615Y-112367304D01*
X142284789Y-112292306D01*
X142598751Y-111860174D01*
X142603567Y-111851859D01*
X142644182Y-111781727D01*
X142649846Y-111771947D01*
X142658367Y-111745005D01*
X142697977Y-111686087D01*
X142763154Y-111657937D01*
X142833204Y-111669493D01*
X142845903Y-111676544D01*
X143209026Y-111906466D01*
X143212324Y-111908628D01*
X143237203Y-111925500D01*
X143237208Y-111925503D01*
X143240616Y-111927814D01*
X143245247Y-111930138D01*
X143250821Y-111933291D01*
X143250858Y-111933224D01*
X143254182Y-111935058D01*
X143257386Y-111937087D01*
X143260810Y-111938716D01*
X143260812Y-111938717D01*
X143289264Y-111952252D01*
X143291638Y-111953412D01*
X144424798Y-112521916D01*
X144428309Y-112523747D01*
X144454726Y-112538057D01*
X144454732Y-112538060D01*
X144458358Y-112540024D01*
X144462210Y-112541498D01*
X144462216Y-112541501D01*
X144463183Y-112541871D01*
X144469053Y-112544459D01*
X144469083Y-112544389D01*
X144472576Y-112545886D01*
X144475965Y-112547586D01*
X144479534Y-112548867D01*
X144479539Y-112548869D01*
X144509223Y-112559522D01*
X144511660Y-112560425D01*
X144754234Y-112653271D01*
X144754968Y-112653552D01*
X144811437Y-112696584D01*
X144835678Y-112763314D01*
X144819994Y-112832556D01*
X144811415Y-112845900D01*
X144795972Y-112866885D01*
X144755262Y-112958971D01*
X144754266Y-112962037D01*
X144754265Y-112962039D01*
X144703719Y-113117604D01*
X144590202Y-113466972D01*
X144589521Y-113470156D01*
X144589520Y-113470159D01*
X144581503Y-113507631D01*
X144568872Y-113566670D01*
X144568926Y-113573559D01*
X144568926Y-113573560D01*
X144570137Y-113727659D01*
X144570204Y-113736249D01*
X144571944Y-113743358D01*
X144571944Y-113743361D01*
X144608478Y-113892659D01*
X144610512Y-113900973D01*
X144613841Y-113907492D01*
X144613843Y-113907498D01*
X144616282Y-113912274D01*
X144629447Y-113982039D01*
X144602804Y-114047847D01*
X144544812Y-114088804D01*
X144473883Y-114091906D01*
X144433111Y-114073697D01*
X144419859Y-114064666D01*
X144196229Y-113912274D01*
X144142507Y-113875665D01*
X144097478Y-113820775D01*
X144094055Y-113809905D01*
X144093542Y-113810072D01*
X144077918Y-113761986D01*
X144034527Y-113628444D01*
X144000152Y-113568904D01*
X143961585Y-113502105D01*
X143939040Y-113463056D01*
X143818129Y-113328770D01*
X143815675Y-113326045D01*
X143815674Y-113326044D01*
X143811253Y-113321134D01*
X143656752Y-113208882D01*
X143650724Y-113206198D01*
X143650722Y-113206197D01*
X143488319Y-113133891D01*
X143488318Y-113133891D01*
X143482288Y-113131206D01*
X143388888Y-113111353D01*
X143301944Y-113092872D01*
X143301939Y-113092872D01*
X143295487Y-113091500D01*
X143104513Y-113091500D01*
X143098061Y-113092872D01*
X143098056Y-113092872D01*
X143011112Y-113111353D01*
X142917712Y-113131206D01*
X142911682Y-113133891D01*
X142911681Y-113133891D01*
X142749278Y-113206197D01*
X142749276Y-113206198D01*
X142743248Y-113208882D01*
X142588747Y-113321134D01*
X142584326Y-113326044D01*
X142584325Y-113326045D01*
X142581872Y-113328770D01*
X142460960Y-113463056D01*
X142438415Y-113502105D01*
X142399849Y-113568904D01*
X142365473Y-113628444D01*
X142306458Y-113810072D01*
X142305768Y-113816633D01*
X142305768Y-113816635D01*
X142290300Y-113963803D01*
X142286496Y-114000000D01*
X142287186Y-114006565D01*
X142305458Y-114180409D01*
X142306458Y-114189928D01*
X142365473Y-114371556D01*
X142368776Y-114377278D01*
X142368777Y-114377279D01*
X142378334Y-114393832D01*
X142460960Y-114536944D01*
X142465378Y-114541851D01*
X142465379Y-114541852D01*
X142564596Y-114652044D01*
X142588747Y-114678866D01*
X142665879Y-114734906D01*
X142734028Y-114784419D01*
X142743248Y-114791118D01*
X142749276Y-114793802D01*
X142749278Y-114793803D01*
X142892493Y-114857566D01*
X142917712Y-114868794D01*
X142998918Y-114886055D01*
X143098056Y-114907128D01*
X143098061Y-114907128D01*
X143104513Y-114908500D01*
X143295487Y-114908500D01*
X143301942Y-114907128D01*
X143301951Y-114907127D01*
X143328756Y-114901429D01*
X143399547Y-114906830D01*
X143425908Y-114920553D01*
X143613783Y-115048581D01*
X143629081Y-115060852D01*
X143665899Y-115095426D01*
X143668742Y-115098182D01*
X143977611Y-115407051D01*
X143985155Y-115415341D01*
X143989268Y-115421822D01*
X143995045Y-115427247D01*
X144038935Y-115468462D01*
X144041777Y-115471217D01*
X144061499Y-115490939D01*
X144064623Y-115493362D01*
X144064627Y-115493366D01*
X144064692Y-115493416D01*
X144073713Y-115501121D01*
X144105947Y-115531390D01*
X144112895Y-115535209D01*
X144112897Y-115535211D01*
X144123700Y-115541150D01*
X144140227Y-115552006D01*
X144149966Y-115559561D01*
X144149968Y-115559562D01*
X144156228Y-115564418D01*
X144196808Y-115581978D01*
X144207456Y-115587195D01*
X144234320Y-115601964D01*
X144269643Y-115630799D01*
X144305986Y-115673578D01*
X144305989Y-115673581D01*
X144310728Y-115679159D01*
X144316619Y-115683495D01*
X144316623Y-115683498D01*
X144441778Y-115775602D01*
X144447313Y-115779675D01*
X144453600Y-115782455D01*
X144453601Y-115782455D01*
X144536451Y-115819083D01*
X144536456Y-115819085D01*
X144539399Y-115820386D01*
X144542462Y-115821381D01*
X144542464Y-115821382D01*
X145115632Y-116007615D01*
X145115637Y-116007616D01*
X145118729Y-116008621D01*
X145121914Y-116009302D01*
X145121916Y-116009303D01*
X145211682Y-116028509D01*
X145211683Y-116028509D01*
X145218427Y-116029952D01*
X145225321Y-116029898D01*
X145225323Y-116029898D01*
X145380683Y-116028677D01*
X145380687Y-116028677D01*
X145388006Y-116028619D01*
X145446852Y-116014220D01*
X145545621Y-115990052D01*
X145545625Y-115990051D01*
X145552730Y-115988312D01*
X145703762Y-115911191D01*
X145833002Y-115801393D01*
X145933518Y-115664809D01*
X145974228Y-115572723D01*
X145976927Y-115564418D01*
X146078088Y-115253076D01*
X146139288Y-115064722D01*
X146160618Y-114965024D01*
X146160238Y-114916644D01*
X146159344Y-114802767D01*
X146159343Y-114802763D01*
X146159286Y-114795445D01*
X146157546Y-114788333D01*
X146120719Y-114637834D01*
X146120718Y-114637830D01*
X146118978Y-114630721D01*
X146115649Y-114624202D01*
X146115647Y-114624196D01*
X146102994Y-114599417D01*
X146089829Y-114529652D01*
X146116472Y-114463844D01*
X146157910Y-114429900D01*
X146162205Y-114427707D01*
X146190464Y-114413277D01*
X146319704Y-114303479D01*
X146420220Y-114166895D01*
X146460930Y-114074809D01*
X146470722Y-114044674D01*
X146610332Y-113614999D01*
X146625990Y-113566808D01*
X146638930Y-113506328D01*
X146645879Y-113473846D01*
X146645879Y-113473845D01*
X146647320Y-113467110D01*
X146647138Y-113443959D01*
X146666604Y-113375684D01*
X146719892Y-113328770D01*
X146790085Y-113318114D01*
X146806264Y-113321402D01*
X147009139Y-113376697D01*
X147012856Y-113377774D01*
X147045574Y-113387806D01*
X147050681Y-113388665D01*
X147056944Y-113390042D01*
X147056960Y-113389968D01*
X147060675Y-113390744D01*
X147064330Y-113391740D01*
X147097207Y-113396563D01*
X147099278Y-113396867D01*
X147101888Y-113397278D01*
X148352134Y-113607566D01*
X148355995Y-113608279D01*
X148373238Y-113611739D01*
X148385431Y-113614187D01*
X148385435Y-113614188D01*
X148389478Y-113614999D01*
X148393593Y-113615276D01*
X148393601Y-113615277D01*
X148394630Y-113615346D01*
X148401014Y-113616096D01*
X148401022Y-113616020D01*
X148404785Y-113616422D01*
X148408531Y-113617052D01*
X148443879Y-113618686D01*
X148446470Y-113618833D01*
X148628436Y-113631077D01*
X148925194Y-113651044D01*
X148991818Y-113675574D01*
X149034604Y-113732230D01*
X149039967Y-113803024D01*
X149036328Y-113816427D01*
X149033648Y-113824508D01*
X149026762Y-113845269D01*
X149016500Y-113945428D01*
X149016500Y-114479572D01*
X149016837Y-114482818D01*
X149016837Y-114482822D01*
X149017770Y-114491816D01*
X149027022Y-114580982D01*
X149080692Y-114741849D01*
X149169929Y-114886055D01*
X149194805Y-114910887D01*
X149228884Y-114973168D01*
X149223882Y-115043988D01*
X149194960Y-115089078D01*
X149169136Y-115114947D01*
X149080151Y-115259308D01*
X149077846Y-115266256D01*
X149077846Y-115266257D01*
X149035120Y-115395072D01*
X149026762Y-115420269D01*
X149016500Y-115520428D01*
X149016500Y-115642405D01*
X148996498Y-115710526D01*
X148942842Y-115757019D01*
X148872568Y-115767123D01*
X148807988Y-115737629D01*
X148801405Y-115731500D01*
X148447122Y-115377217D01*
X148413096Y-115314905D01*
X148410907Y-115301292D01*
X148406495Y-115259308D01*
X148394384Y-115144084D01*
X148394232Y-115142634D01*
X148394232Y-115142632D01*
X148393542Y-115136071D01*
X148334527Y-114954443D01*
X148314509Y-114919770D01*
X148288846Y-114875321D01*
X148239040Y-114789055D01*
X148141924Y-114681196D01*
X148115675Y-114652044D01*
X148115674Y-114652043D01*
X148111253Y-114647133D01*
X147956752Y-114534881D01*
X147950724Y-114532197D01*
X147950722Y-114532196D01*
X147788319Y-114459890D01*
X147788318Y-114459890D01*
X147782288Y-114457205D01*
X147677117Y-114434850D01*
X147601944Y-114418871D01*
X147601939Y-114418871D01*
X147595487Y-114417499D01*
X147404513Y-114417499D01*
X147398061Y-114418871D01*
X147398056Y-114418871D01*
X147322883Y-114434850D01*
X147217712Y-114457205D01*
X147211682Y-114459890D01*
X147211681Y-114459890D01*
X147049278Y-114532196D01*
X147049276Y-114532197D01*
X147043248Y-114534881D01*
X146888747Y-114647133D01*
X146884326Y-114652043D01*
X146884325Y-114652044D01*
X146858077Y-114681196D01*
X146760960Y-114789055D01*
X146711154Y-114875321D01*
X146685492Y-114919770D01*
X146665473Y-114954443D01*
X146606458Y-115136071D01*
X146605768Y-115142632D01*
X146605768Y-115142634D01*
X146605616Y-115144084D01*
X146586496Y-115325999D01*
X146587186Y-115332564D01*
X146603832Y-115490939D01*
X146606458Y-115515927D01*
X146665473Y-115697555D01*
X146760960Y-115862943D01*
X146765378Y-115867850D01*
X146765379Y-115867851D01*
X146807397Y-115914517D01*
X146888747Y-116004865D01*
X146987843Y-116076863D01*
X147014606Y-116096307D01*
X147043248Y-116117117D01*
X147049276Y-116119801D01*
X147049278Y-116119802D01*
X147089503Y-116137711D01*
X147217712Y-116194793D01*
X147311113Y-116214646D01*
X147398056Y-116233127D01*
X147398061Y-116233127D01*
X147404513Y-116234499D01*
X147460405Y-116234499D01*
X147528526Y-116254501D01*
X147549500Y-116271404D01*
X147785476Y-116507380D01*
X147819502Y-116569692D01*
X147814437Y-116640507D01*
X147790019Y-116680783D01*
X147760960Y-116713056D01*
X147665473Y-116878444D01*
X147606458Y-117060072D01*
X147605768Y-117066633D01*
X147605768Y-117066635D01*
X147597531Y-117145009D01*
X147586496Y-117250000D01*
X147587186Y-117256565D01*
X147598391Y-117363171D01*
X147606458Y-117439928D01*
X147665473Y-117621556D01*
X147760960Y-117786944D01*
X147765378Y-117791851D01*
X147765379Y-117791852D01*
X147847452Y-117883003D01*
X147888747Y-117928866D01*
X148043248Y-118041118D01*
X148049276Y-118043802D01*
X148049278Y-118043803D01*
X148178691Y-118101421D01*
X148217712Y-118118794D01*
X148311112Y-118138647D01*
X148398056Y-118157128D01*
X148398061Y-118157128D01*
X148404513Y-118158500D01*
X148595487Y-118158500D01*
X148601939Y-118157128D01*
X148601944Y-118157128D01*
X148688888Y-118138647D01*
X148782288Y-118118794D01*
X148821309Y-118101421D01*
X148950722Y-118043803D01*
X148950724Y-118043802D01*
X148956752Y-118041118D01*
X149033319Y-117985489D01*
X149103245Y-117934684D01*
X149111253Y-117928866D01*
X149115668Y-117923963D01*
X149120580Y-117919540D01*
X149121705Y-117920789D01*
X149175014Y-117887949D01*
X149208200Y-117883500D01*
X159171233Y-117883500D01*
X159182416Y-117884027D01*
X159189909Y-117885702D01*
X159197835Y-117885453D01*
X159197836Y-117885453D01*
X159257986Y-117883562D01*
X159261945Y-117883500D01*
X159289856Y-117883500D01*
X159293791Y-117883003D01*
X159293856Y-117882995D01*
X159305693Y-117882062D01*
X159337951Y-117881048D01*
X159341970Y-117880922D01*
X159349889Y-117880673D01*
X159369343Y-117875021D01*
X159388700Y-117871013D01*
X159400930Y-117869468D01*
X159400931Y-117869468D01*
X159408797Y-117868474D01*
X159416168Y-117865555D01*
X159416170Y-117865555D01*
X159449912Y-117852196D01*
X159461142Y-117848351D01*
X159495983Y-117838229D01*
X159495984Y-117838229D01*
X159503593Y-117836018D01*
X159510412Y-117831985D01*
X159510417Y-117831983D01*
X159521028Y-117825707D01*
X159538776Y-117817012D01*
X159557617Y-117809552D01*
X159593387Y-117783564D01*
X159603307Y-117777048D01*
X159634535Y-117758580D01*
X159634538Y-117758578D01*
X159641362Y-117754542D01*
X159655683Y-117740221D01*
X159670717Y-117727380D01*
X159687107Y-117715472D01*
X159715298Y-117681395D01*
X159723288Y-117672616D01*
X159976134Y-117419770D01*
X161038249Y-116357655D01*
X164489858Y-116357655D01*
X164525104Y-116616638D01*
X164526412Y-116621124D01*
X164526412Y-116621126D01*
X164543801Y-116680786D01*
X164598243Y-116867567D01*
X164707668Y-117104928D01*
X164710231Y-117108837D01*
X164848410Y-117319596D01*
X164848414Y-117319601D01*
X164850976Y-117323509D01*
X164949027Y-117433365D01*
X165010845Y-117502626D01*
X165025018Y-117518506D01*
X165225970Y-117685637D01*
X165229973Y-117688066D01*
X165445422Y-117818804D01*
X165445426Y-117818806D01*
X165449419Y-117821229D01*
X165690455Y-117922303D01*
X165943783Y-117986641D01*
X165948434Y-117987109D01*
X165948438Y-117987110D01*
X166141308Y-118006531D01*
X166160867Y-118008500D01*
X166316354Y-118008500D01*
X166318679Y-118008327D01*
X166318685Y-118008327D01*
X166506000Y-117994407D01*
X166506004Y-117994406D01*
X166510652Y-117994061D01*
X166515200Y-117993032D01*
X166515206Y-117993031D01*
X166701601Y-117950853D01*
X166765577Y-117936377D01*
X166769931Y-117934684D01*
X167004824Y-117843340D01*
X167004827Y-117843339D01*
X167009177Y-117841647D01*
X167015158Y-117838229D01*
X167171396Y-117748931D01*
X167236098Y-117711951D01*
X167441357Y-117550138D01*
X167620443Y-117359763D01*
X167769424Y-117145009D01*
X167885025Y-116910593D01*
X167964707Y-116661665D01*
X168006721Y-116403693D01*
X168009438Y-116196165D01*
X168010081Y-116147022D01*
X168010081Y-116147019D01*
X168010142Y-116142345D01*
X167974896Y-115883362D01*
X167968945Y-115862943D01*
X167916638Y-115683488D01*
X167901757Y-115632433D01*
X167792332Y-115395072D01*
X167738500Y-115312965D01*
X167651590Y-115180404D01*
X167651586Y-115180399D01*
X167649024Y-115176491D01*
X167494759Y-115003652D01*
X167478097Y-114984984D01*
X167474982Y-114981494D01*
X167274030Y-114814363D01*
X167191937Y-114764548D01*
X167054578Y-114681196D01*
X167054574Y-114681194D01*
X167050581Y-114678771D01*
X166809545Y-114577697D01*
X166556217Y-114513359D01*
X166551566Y-114512891D01*
X166551562Y-114512890D01*
X166342271Y-114491816D01*
X166339133Y-114491500D01*
X166183646Y-114491500D01*
X166181321Y-114491673D01*
X166181315Y-114491673D01*
X165994000Y-114505593D01*
X165993996Y-114505594D01*
X165989348Y-114505939D01*
X165984800Y-114506968D01*
X165984794Y-114506969D01*
X165852326Y-114536944D01*
X165734423Y-114563623D01*
X165730071Y-114565315D01*
X165730069Y-114565316D01*
X165495176Y-114656660D01*
X165495173Y-114656661D01*
X165490823Y-114658353D01*
X165486769Y-114660670D01*
X165486767Y-114660671D01*
X165450856Y-114681196D01*
X165263902Y-114788049D01*
X165058643Y-114949862D01*
X164879557Y-115140237D01*
X164796954Y-115259308D01*
X164750689Y-115325999D01*
X164730576Y-115354991D01*
X164728510Y-115359181D01*
X164728508Y-115359184D01*
X164623203Y-115572723D01*
X164614975Y-115589407D01*
X164613553Y-115593850D01*
X164613552Y-115593852D01*
X164563788Y-115749316D01*
X164535293Y-115838335D01*
X164493279Y-116096307D01*
X164489858Y-116357655D01*
X161038249Y-116357655D01*
X162392253Y-115003652D01*
X162400539Y-114996112D01*
X162407018Y-114992000D01*
X162426025Y-114971760D01*
X162453643Y-114942349D01*
X162456398Y-114939507D01*
X162476135Y-114919770D01*
X162478615Y-114916573D01*
X162486320Y-114907551D01*
X162511159Y-114881100D01*
X162516586Y-114875321D01*
X162520405Y-114868375D01*
X162520407Y-114868372D01*
X162526348Y-114857566D01*
X162537199Y-114841047D01*
X162544756Y-114831304D01*
X162549614Y-114825041D01*
X162554374Y-114814042D01*
X162580915Y-114774989D01*
X164311236Y-113044669D01*
X165492001Y-113044669D01*
X165492371Y-113051490D01*
X165497895Y-113102352D01*
X165501521Y-113117604D01*
X165546676Y-113238054D01*
X165555214Y-113253649D01*
X165631715Y-113355724D01*
X165644276Y-113368285D01*
X165746351Y-113444786D01*
X165761946Y-113453324D01*
X165882394Y-113498478D01*
X165897649Y-113502105D01*
X165948514Y-113507631D01*
X165955328Y-113508000D01*
X166227885Y-113508000D01*
X166243124Y-113503525D01*
X166244329Y-113502135D01*
X166246000Y-113494452D01*
X166246000Y-113489884D01*
X166754000Y-113489884D01*
X166758475Y-113505123D01*
X166759865Y-113506328D01*
X166767548Y-113507999D01*
X167044669Y-113507999D01*
X167051490Y-113507629D01*
X167102352Y-113502105D01*
X167117604Y-113498479D01*
X167238054Y-113453324D01*
X167253649Y-113444786D01*
X167355724Y-113368285D01*
X167368285Y-113355724D01*
X167444786Y-113253649D01*
X167453324Y-113238054D01*
X167498478Y-113117606D01*
X167502105Y-113102351D01*
X167507631Y-113051486D01*
X167508000Y-113044672D01*
X167508000Y-112772115D01*
X167503525Y-112756876D01*
X167502135Y-112755671D01*
X167494452Y-112754000D01*
X166772115Y-112754000D01*
X166756876Y-112758475D01*
X166755671Y-112759865D01*
X166754000Y-112767548D01*
X166754000Y-113489884D01*
X166246000Y-113489884D01*
X166246000Y-112772115D01*
X166241525Y-112756876D01*
X166240135Y-112755671D01*
X166232452Y-112754000D01*
X165510116Y-112754000D01*
X165494877Y-112758475D01*
X165493672Y-112759865D01*
X165492001Y-112767548D01*
X165492001Y-113044669D01*
X164311236Y-113044669D01*
X165276905Y-112079000D01*
X165339217Y-112044974D01*
X165410033Y-112050039D01*
X165466868Y-112092586D01*
X165491679Y-112159106D01*
X165492000Y-112168095D01*
X165492000Y-112227885D01*
X165496475Y-112243124D01*
X165497865Y-112244329D01*
X165505548Y-112246000D01*
X167489884Y-112246000D01*
X167505123Y-112241525D01*
X167506328Y-112240135D01*
X167507999Y-112232452D01*
X167507999Y-111955331D01*
X167507629Y-111948510D01*
X167502105Y-111897648D01*
X167498479Y-111882396D01*
X167453324Y-111761946D01*
X167440478Y-111738483D01*
X167442602Y-111737320D01*
X167422313Y-111683007D01*
X167428429Y-111634183D01*
X167482256Y-111472372D01*
X167488197Y-111454513D01*
X167512985Y-111258295D01*
X167513380Y-111230000D01*
X167494080Y-111033167D01*
X167483002Y-110996473D01*
X167464571Y-110935428D01*
X167436916Y-110843831D01*
X167344066Y-110669204D01*
X167340167Y-110664424D01*
X167339715Y-110663743D01*
X167318676Y-110595935D01*
X167335105Y-110531775D01*
X167339990Y-110523177D01*
X167393199Y-110429512D01*
X167422723Y-110377542D01*
X167422725Y-110377537D01*
X167425769Y-110372179D01*
X167488197Y-110184513D01*
X167512985Y-109988295D01*
X167513380Y-109960000D01*
X167494080Y-109763167D01*
X167491110Y-109753328D01*
X167465539Y-109668636D01*
X167436916Y-109573831D01*
X167344066Y-109399204D01*
X167340167Y-109394424D01*
X167339715Y-109393743D01*
X167318676Y-109325935D01*
X167335105Y-109261775D01*
X167422723Y-109107542D01*
X167422725Y-109107537D01*
X167425769Y-109102179D01*
X167488197Y-108914513D01*
X167512985Y-108718295D01*
X167513380Y-108690000D01*
X167494080Y-108493167D01*
X167491984Y-108486223D01*
X167453140Y-108357568D01*
X167436916Y-108303831D01*
X167344066Y-108129204D01*
X167340167Y-108124424D01*
X167339715Y-108123743D01*
X167318676Y-108055935D01*
X167335105Y-107991775D01*
X167344045Y-107976039D01*
X167379149Y-107914245D01*
X167422723Y-107837542D01*
X167422725Y-107837537D01*
X167425769Y-107832179D01*
X167488197Y-107644513D01*
X167512985Y-107448295D01*
X167513380Y-107420000D01*
X167508702Y-107372289D01*
X167521962Y-107302542D01*
X167545006Y-107270899D01*
X168558473Y-106257432D01*
X168566759Y-106249892D01*
X168573238Y-106245780D01*
X168619864Y-106196128D01*
X168622618Y-106193287D01*
X168642355Y-106173550D01*
X168644835Y-106170353D01*
X168652540Y-106161331D01*
X168667001Y-106145932D01*
X168682806Y-106129101D01*
X168686625Y-106122155D01*
X168686627Y-106122152D01*
X168692568Y-106111346D01*
X168703419Y-106094827D01*
X168710978Y-106085081D01*
X168715834Y-106078821D01*
X168718979Y-106071552D01*
X168718982Y-106071548D01*
X168733394Y-106038243D01*
X168738611Y-106027593D01*
X168755086Y-105997624D01*
X168805431Y-105947566D01*
X168874848Y-105932673D01*
X168941297Y-105957674D01*
G37*
%TD.AperFunction*%
%TA.AperFunction,Conductor*%
G36*
X167470018Y-81010000D02*
G01*
X167484851Y-81012310D01*
X167484855Y-81012310D01*
X167493724Y-81013691D01*
X167508981Y-81011696D01*
X167534302Y-81010953D01*
X167703285Y-81023039D01*
X167721064Y-81025596D01*
X167911392Y-81066999D01*
X167928641Y-81072063D01*
X168111150Y-81140136D01*
X168127502Y-81147604D01*
X168298458Y-81240952D01*
X168313582Y-81250672D01*
X168469514Y-81367402D01*
X168483100Y-81379175D01*
X168620825Y-81516900D01*
X168632598Y-81530486D01*
X168749328Y-81686418D01*
X168759048Y-81701542D01*
X168852396Y-81872498D01*
X168859864Y-81888850D01*
X168927937Y-82071359D01*
X168933001Y-82088607D01*
X168974404Y-82278936D01*
X168976961Y-82296715D01*
X168987708Y-82446971D01*
X168988540Y-82458601D01*
X168987793Y-82476565D01*
X168987692Y-82484845D01*
X168986309Y-82493724D01*
X168987474Y-82502630D01*
X168990436Y-82525283D01*
X168991500Y-82541621D01*
X168991500Y-101359600D01*
X168971498Y-101427721D01*
X168917842Y-101474214D01*
X168847568Y-101484318D01*
X168782988Y-101454824D01*
X168752360Y-101413045D01*
X168752238Y-101412627D01*
X168748205Y-101405808D01*
X168748203Y-101405803D01*
X168741927Y-101395192D01*
X168733232Y-101377444D01*
X168725772Y-101358603D01*
X168720615Y-101351504D01*
X168699784Y-101322833D01*
X168693268Y-101312913D01*
X168674800Y-101281685D01*
X168674798Y-101281682D01*
X168670762Y-101274858D01*
X168656441Y-101260537D01*
X168643600Y-101245503D01*
X168631692Y-101229113D01*
X168625587Y-101224062D01*
X168625582Y-101224057D01*
X168597616Y-101200921D01*
X168588838Y-101192933D01*
X168261798Y-100865893D01*
X168227772Y-100803581D01*
X168232837Y-100732766D01*
X168257257Y-100692488D01*
X168317903Y-100625134D01*
X168317904Y-100625133D01*
X168322322Y-100620226D01*
X168409763Y-100468774D01*
X168414505Y-100460561D01*
X168414506Y-100460560D01*
X168417809Y-100454838D01*
X168476824Y-100273210D01*
X168480268Y-100240448D01*
X168496096Y-100089847D01*
X168496786Y-100083282D01*
X168490452Y-100023017D01*
X168477514Y-99899917D01*
X168477514Y-99899915D01*
X168476824Y-99893354D01*
X168417809Y-99711726D01*
X168322322Y-99546338D01*
X168242916Y-99458148D01*
X168198957Y-99409327D01*
X168198956Y-99409326D01*
X168194535Y-99404416D01*
X168064682Y-99310072D01*
X168045376Y-99296045D01*
X168045375Y-99296044D01*
X168040034Y-99292164D01*
X168034006Y-99289480D01*
X168034004Y-99289479D01*
X167871601Y-99217173D01*
X167871600Y-99217173D01*
X167865570Y-99214488D01*
X167772169Y-99194635D01*
X167685226Y-99176154D01*
X167685221Y-99176154D01*
X167678769Y-99174782D01*
X167487795Y-99174782D01*
X167481343Y-99176154D01*
X167481338Y-99176154D01*
X167394394Y-99194635D01*
X167300994Y-99214488D01*
X167294964Y-99217173D01*
X167294963Y-99217173D01*
X167132560Y-99289479D01*
X167132558Y-99289480D01*
X167126530Y-99292164D01*
X167121189Y-99296044D01*
X167121188Y-99296045D01*
X167057337Y-99342436D01*
X166990470Y-99366294D01*
X166983276Y-99366500D01*
X166698266Y-99366500D01*
X166630145Y-99346498D01*
X166591121Y-99306802D01*
X166584465Y-99296045D01*
X166580071Y-99288945D01*
X166460053Y-99169136D01*
X166315692Y-99080151D01*
X166253592Y-99059553D01*
X166161262Y-99028928D01*
X166161260Y-99028928D01*
X166154731Y-99026762D01*
X166054572Y-99016500D01*
X165520428Y-99016500D01*
X165517182Y-99016837D01*
X165517178Y-99016837D01*
X165483397Y-99020342D01*
X165419018Y-99027022D01*
X165258151Y-99080692D01*
X165113945Y-99169929D01*
X165089113Y-99194805D01*
X165026832Y-99228884D01*
X164956012Y-99223882D01*
X164910922Y-99194960D01*
X164890233Y-99174307D01*
X164885053Y-99169136D01*
X164740692Y-99080151D01*
X164678592Y-99059553D01*
X164586262Y-99028928D01*
X164586260Y-99028928D01*
X164579731Y-99026762D01*
X164479572Y-99016500D01*
X163945428Y-99016500D01*
X163942182Y-99016837D01*
X163942178Y-99016837D01*
X163908397Y-99020342D01*
X163844018Y-99027022D01*
X163837477Y-99029204D01*
X163837478Y-99029204D01*
X163816227Y-99036294D01*
X163745277Y-99038880D01*
X163684193Y-99002696D01*
X163652368Y-98939232D01*
X163650661Y-98925613D01*
X163634259Y-98692444D01*
X163614304Y-98408767D01*
X163614089Y-98404837D01*
X163613892Y-98399747D01*
X163612764Y-98370692D01*
X163612068Y-98366629D01*
X163612067Y-98366621D01*
X163611892Y-98365601D01*
X163611124Y-98359229D01*
X163611048Y-98359239D01*
X163610554Y-98355475D01*
X163610288Y-98351689D01*
X163609568Y-98347957D01*
X163603588Y-98316972D01*
X163603115Y-98314373D01*
X163389033Y-97064856D01*
X163388425Y-97060941D01*
X163384284Y-97031178D01*
X163383717Y-97027102D01*
X163382624Y-97023140D01*
X163382621Y-97023125D01*
X163382342Y-97022114D01*
X163380947Y-97015859D01*
X163380873Y-97015876D01*
X163380008Y-97012181D01*
X163379367Y-97008439D01*
X163369253Y-96974559D01*
X163368525Y-96972024D01*
X163359226Y-96938312D01*
X163322879Y-96806540D01*
X163324047Y-96735554D01*
X163363409Y-96676468D01*
X163428466Y-96648041D01*
X163445112Y-96647039D01*
X163461499Y-96647139D01*
X163468380Y-96647181D01*
X163475106Y-96645733D01*
X163563660Y-96626668D01*
X163563665Y-96626667D01*
X163566808Y-96625990D01*
X163569865Y-96624997D01*
X163569875Y-96624994D01*
X164071701Y-96461940D01*
X164071704Y-96461939D01*
X164074809Y-96460930D01*
X164168004Y-96419586D01*
X164242626Y-96364469D01*
X164309305Y-96340086D01*
X164378580Y-96355623D01*
X164428052Y-96405734D01*
X164428786Y-96408260D01*
X164432626Y-96414753D01*
X164432627Y-96414755D01*
X164439097Y-96425695D01*
X164447792Y-96443443D01*
X164455252Y-96462284D01*
X164459914Y-96468700D01*
X164459914Y-96468701D01*
X164481240Y-96498054D01*
X164487752Y-96507968D01*
X164491198Y-96513794D01*
X164508059Y-96564769D01*
X164516716Y-96647139D01*
X164526009Y-96735554D01*
X164527628Y-96750961D01*
X164586643Y-96932589D01*
X164589946Y-96938311D01*
X164589947Y-96938312D01*
X164610877Y-96974563D01*
X164682130Y-97097977D01*
X164686548Y-97102884D01*
X164686549Y-97102885D01*
X164764923Y-97189928D01*
X164809917Y-97239899D01*
X164964418Y-97352151D01*
X164970446Y-97354835D01*
X164970448Y-97354836D01*
X165132851Y-97427142D01*
X165138882Y-97429827D01*
X165232283Y-97449680D01*
X165319226Y-97468161D01*
X165319231Y-97468161D01*
X165325683Y-97469533D01*
X165516657Y-97469533D01*
X165523109Y-97468161D01*
X165523114Y-97468161D01*
X165610058Y-97449680D01*
X165703458Y-97429827D01*
X165709489Y-97427142D01*
X165871892Y-97354836D01*
X165871894Y-97354835D01*
X165877922Y-97352151D01*
X166032423Y-97239899D01*
X166077417Y-97189928D01*
X166155791Y-97102885D01*
X166155792Y-97102884D01*
X166160210Y-97097977D01*
X166231463Y-96974563D01*
X166252393Y-96938312D01*
X166252394Y-96938311D01*
X166255697Y-96932589D01*
X166314712Y-96750961D01*
X166316332Y-96735554D01*
X166333984Y-96567598D01*
X166334674Y-96561033D01*
X166323926Y-96458770D01*
X166315402Y-96377668D01*
X166315402Y-96377666D01*
X166314712Y-96371105D01*
X166255697Y-96189477D01*
X166238414Y-96159541D01*
X166214383Y-96117919D01*
X166160210Y-96024089D01*
X166110791Y-95969203D01*
X166036845Y-95887078D01*
X166036844Y-95887077D01*
X166032423Y-95882167D01*
X165964762Y-95833008D01*
X165921408Y-95776785D01*
X165915333Y-95706049D01*
X165926507Y-95673967D01*
X165985436Y-95558065D01*
X165985440Y-95558054D01*
X165988756Y-95551532D01*
X166028776Y-95386738D01*
X166029245Y-95310072D01*
X166029770Y-95224037D01*
X166029812Y-95217157D01*
X166010713Y-95128444D01*
X166009299Y-95121877D01*
X166009298Y-95121872D01*
X166008621Y-95118729D01*
X166007628Y-95115671D01*
X166007625Y-95115662D01*
X165903728Y-94795901D01*
X165820386Y-94539399D01*
X165819069Y-94536430D01*
X165819065Y-94536420D01*
X165781838Y-94452508D01*
X165781837Y-94452506D01*
X165779041Y-94446204D01*
X165678287Y-94309795D01*
X165628401Y-94267563D01*
X165554443Y-94204952D01*
X165554439Y-94204949D01*
X165548856Y-94200223D01*
X165397689Y-94123365D01*
X165232895Y-94083345D01*
X165225575Y-94083300D01*
X165225573Y-94083300D01*
X165070194Y-94082351D01*
X165063314Y-94082309D01*
X165056589Y-94083757D01*
X165056588Y-94083757D01*
X164968034Y-94102822D01*
X164968029Y-94102823D01*
X164964886Y-94103500D01*
X164961829Y-94104493D01*
X164961819Y-94104496D01*
X164459993Y-94267550D01*
X164456885Y-94268560D01*
X164363690Y-94309904D01*
X164227281Y-94410658D01*
X164117709Y-94540090D01*
X164114392Y-94546614D01*
X164114390Y-94546617D01*
X164101778Y-94571422D01*
X164053074Y-94623079D01*
X163984174Y-94640205D01*
X163932356Y-94626632D01*
X163906304Y-94613386D01*
X163906300Y-94613385D01*
X163899775Y-94610067D01*
X163734981Y-94570047D01*
X163727661Y-94570002D01*
X163727659Y-94570002D01*
X163572280Y-94569053D01*
X163565400Y-94569011D01*
X163558675Y-94570459D01*
X163558674Y-94570459D01*
X163470120Y-94589524D01*
X163470115Y-94589525D01*
X163466972Y-94590202D01*
X163463915Y-94591195D01*
X163463905Y-94591198D01*
X162962079Y-94754252D01*
X162958971Y-94755262D01*
X162865776Y-94796606D01*
X162860230Y-94800703D01*
X162860229Y-94800703D01*
X162845147Y-94811843D01*
X162778469Y-94836225D01*
X162709193Y-94820688D01*
X162659315Y-94770164D01*
X162652751Y-94755890D01*
X162545035Y-94477013D01*
X162543666Y-94473295D01*
X162533730Y-94444950D01*
X162533726Y-94444940D01*
X162532365Y-94441058D01*
X162530510Y-94437389D01*
X162530504Y-94437374D01*
X162530028Y-94436433D01*
X162527425Y-94430579D01*
X162527357Y-94430610D01*
X162525777Y-94427155D01*
X162524413Y-94423623D01*
X162522635Y-94420281D01*
X162522631Y-94420273D01*
X162507799Y-94392400D01*
X162506583Y-94390056D01*
X161934655Y-93258689D01*
X161932923Y-93255126D01*
X161920218Y-93227900D01*
X161920217Y-93227898D01*
X161918474Y-93224163D01*
X161916258Y-93220687D01*
X161916255Y-93220681D01*
X161915692Y-93219798D01*
X161912519Y-93214228D01*
X161912454Y-93214266D01*
X161910546Y-93210997D01*
X161908830Y-93207603D01*
X161889174Y-93178150D01*
X161887778Y-93176010D01*
X161851170Y-93118581D01*
X161677367Y-92845932D01*
X161657617Y-92777738D01*
X161677870Y-92709692D01*
X161731697Y-92663397D01*
X161745414Y-92658134D01*
X161766559Y-92651406D01*
X161773112Y-92649321D01*
X161779056Y-92645868D01*
X161785351Y-92643079D01*
X161786139Y-92644857D01*
X161845836Y-92630203D01*
X161912991Y-92653241D01*
X161957030Y-92708929D01*
X161960014Y-92717136D01*
X161986961Y-92800068D01*
X161990264Y-92805790D01*
X161990265Y-92805791D01*
X162024174Y-92864522D01*
X162082448Y-92965456D01*
X162086866Y-92970363D01*
X162086867Y-92970364D01*
X162174042Y-93067182D01*
X162210235Y-93107378D01*
X162364736Y-93219630D01*
X162370764Y-93222314D01*
X162370766Y-93222315D01*
X162465260Y-93264386D01*
X162539200Y-93297306D01*
X162607591Y-93311843D01*
X162719544Y-93335640D01*
X162719549Y-93335640D01*
X162726001Y-93337012D01*
X162916975Y-93337012D01*
X162923427Y-93335640D01*
X162923432Y-93335640D01*
X163035385Y-93311843D01*
X163103776Y-93297306D01*
X163177716Y-93264386D01*
X163272210Y-93222315D01*
X163272212Y-93222314D01*
X163278240Y-93219630D01*
X163432741Y-93107378D01*
X163468934Y-93067182D01*
X163556109Y-92970364D01*
X163556110Y-92970363D01*
X163560528Y-92965456D01*
X163618802Y-92864522D01*
X163652711Y-92805791D01*
X163652712Y-92805790D01*
X163656015Y-92800068D01*
X163715030Y-92618440D01*
X163717100Y-92598751D01*
X163734302Y-92435077D01*
X163734992Y-92428512D01*
X163715030Y-92238584D01*
X163656015Y-92056956D01*
X163560528Y-91891568D01*
X163438219Y-91755730D01*
X163407501Y-91691723D01*
X163405855Y-91671420D01*
X163405855Y-91539948D01*
X163425857Y-91471827D01*
X163457794Y-91438012D01*
X163465038Y-91432749D01*
X163566508Y-91359027D01*
X163642365Y-91290907D01*
X163740963Y-91152932D01*
X163772627Y-91075535D01*
X163802406Y-91002748D01*
X163802407Y-91002744D01*
X163805176Y-90995976D01*
X163831559Y-90828457D01*
X163818696Y-90659363D01*
X163767278Y-90497761D01*
X163728029Y-90430189D01*
X163718323Y-90413479D01*
X163718321Y-90413476D01*
X163716708Y-90410699D01*
X163523786Y-90145165D01*
X163360573Y-89920521D01*
X163360571Y-89920519D01*
X163358662Y-89917891D01*
X163290542Y-89842033D01*
X163152567Y-89743436D01*
X163145793Y-89740665D01*
X163145790Y-89740663D01*
X163002383Y-89681993D01*
X163002379Y-89681992D01*
X162995611Y-89679223D01*
X162906242Y-89665148D01*
X162835326Y-89653979D01*
X162835323Y-89653979D01*
X162828092Y-89652840D01*
X162658998Y-89665703D01*
X162497396Y-89717121D01*
X162410334Y-89767691D01*
X161978202Y-90081653D01*
X161902345Y-90149773D01*
X161803747Y-90287748D01*
X161739534Y-90444704D01*
X161738396Y-90451931D01*
X161738395Y-90451934D01*
X161734066Y-90479424D01*
X161703711Y-90543604D01*
X161643476Y-90581184D01*
X161589999Y-90584289D01*
X161568290Y-90580870D01*
X161561123Y-90579741D01*
X161561122Y-90579741D01*
X161553890Y-90578602D01*
X161384796Y-90591465D01*
X161223194Y-90642883D01*
X161136132Y-90693453D01*
X160704000Y-91007415D01*
X160628143Y-91075535D01*
X160624132Y-91081148D01*
X160617459Y-91090485D01*
X160561578Y-91134279D01*
X160490892Y-91140909D01*
X160427842Y-91108270D01*
X160415947Y-91095170D01*
X160367213Y-91033272D01*
X160364831Y-91030147D01*
X160344542Y-91002641D01*
X160340959Y-90998919D01*
X160336741Y-90994076D01*
X160336683Y-90994127D01*
X160334162Y-90991294D01*
X160331816Y-90988314D01*
X160306777Y-90963375D01*
X160304924Y-90961490D01*
X159780276Y-90416543D01*
X159747439Y-90353596D01*
X159753847Y-90282889D01*
X159796985Y-90227218D01*
X159849844Y-90188814D01*
X159849846Y-90188812D01*
X159855188Y-90184931D01*
X159881793Y-90155383D01*
X159978556Y-90047917D01*
X159978557Y-90047916D01*
X159982975Y-90043009D01*
X160078462Y-89877621D01*
X160137477Y-89695993D01*
X160138949Y-89681993D01*
X160156749Y-89512630D01*
X160157439Y-89506065D01*
X160137477Y-89316137D01*
X160078462Y-89134509D01*
X160075158Y-89128786D01*
X159986279Y-88974843D01*
X159986277Y-88974840D01*
X159982975Y-88969121D01*
X159978553Y-88964210D01*
X159978551Y-88964207D01*
X159945523Y-88927525D01*
X159914805Y-88863518D01*
X159913159Y-88843215D01*
X159913159Y-88069876D01*
X159937223Y-87995815D01*
X160033273Y-87863614D01*
X160232308Y-87589665D01*
X160283403Y-87501438D01*
X160334538Y-87339747D01*
X160347106Y-87170630D01*
X160327724Y-87048940D01*
X160321583Y-87010383D01*
X160321582Y-87010381D01*
X160320432Y-87003158D01*
X160255945Y-86846314D01*
X160251684Y-86840373D01*
X160251681Y-86840368D01*
X160169281Y-86725486D01*
X160157106Y-86708511D01*
X160082108Y-86641337D01*
X159589300Y-86283291D01*
X159501073Y-86232196D01*
X159339382Y-86181061D01*
X159332076Y-86180518D01*
X159304961Y-86178503D01*
X159170265Y-86168493D01*
X159163040Y-86169644D01*
X159163036Y-86169644D01*
X159010024Y-86194016D01*
X159010022Y-86194017D01*
X159002793Y-86195168D01*
X158845949Y-86259654D01*
X158708146Y-86358493D01*
X158640972Y-86433491D01*
X158327010Y-86865623D01*
X158275915Y-86953850D01*
X158224780Y-87115541D01*
X158224237Y-87122847D01*
X158223062Y-87138658D01*
X158212212Y-87284658D01*
X158215579Y-87305797D01*
X158217741Y-87319370D01*
X158208702Y-87389789D01*
X158163028Y-87444143D01*
X158113129Y-87463620D01*
X158084263Y-87468218D01*
X158084262Y-87468218D01*
X158077031Y-87469370D01*
X157920187Y-87533856D01*
X157914243Y-87538119D01*
X157914240Y-87538121D01*
X157872853Y-87567805D01*
X157805841Y-87591254D01*
X157736789Y-87574751D01*
X157687621Y-87523535D01*
X157674835Y-87465299D01*
X157674194Y-87465346D01*
X157673577Y-87456936D01*
X157665279Y-87343938D01*
X157661636Y-87294323D01*
X157619890Y-87165842D01*
X157617862Y-87094877D01*
X157654525Y-87034079D01*
X157700787Y-87007075D01*
X157822036Y-86967679D01*
X157822035Y-86967679D01*
X157829266Y-86965330D01*
X157858445Y-86947238D01*
X157968552Y-86878969D01*
X157968555Y-86878967D01*
X157975009Y-86874965D01*
X157980323Y-86869539D01*
X157980325Y-86869537D01*
X158090311Y-86757222D01*
X158094990Y-86752444D01*
X158134337Y-86690083D01*
X158211482Y-86538676D01*
X158366043Y-86235332D01*
X158367355Y-86232757D01*
X158394680Y-86164269D01*
X158410855Y-86068639D01*
X158422012Y-86002671D01*
X158423278Y-85995186D01*
X158418152Y-85925379D01*
X158433112Y-85855978D01*
X158450175Y-85831846D01*
X158504750Y-85771234D01*
X158547887Y-85696520D01*
X158596933Y-85611569D01*
X158596934Y-85611568D01*
X158600237Y-85605846D01*
X158659252Y-85424218D01*
X158660354Y-85413738D01*
X158678524Y-85240855D01*
X158679214Y-85234290D01*
X158670867Y-85154875D01*
X158659942Y-85050925D01*
X158659942Y-85050923D01*
X158659252Y-85044362D01*
X158600237Y-84862734D01*
X158504750Y-84697346D01*
X158469317Y-84657993D01*
X158381385Y-84560335D01*
X158381384Y-84560334D01*
X158376963Y-84555424D01*
X158268067Y-84476306D01*
X158227804Y-84447053D01*
X158227803Y-84447052D01*
X158222462Y-84443172D01*
X158216434Y-84440488D01*
X158216432Y-84440487D01*
X158054029Y-84368181D01*
X158054028Y-84368181D01*
X158047998Y-84365496D01*
X157935036Y-84341485D01*
X157867654Y-84327162D01*
X157867649Y-84327162D01*
X157861197Y-84325790D01*
X157670223Y-84325790D01*
X157663771Y-84327162D01*
X157663766Y-84327162D01*
X157596384Y-84341485D01*
X157483422Y-84365496D01*
X157477392Y-84368181D01*
X157477391Y-84368181D01*
X157314988Y-84440487D01*
X157314986Y-84440488D01*
X157308958Y-84443172D01*
X157303617Y-84447052D01*
X157303616Y-84447053D01*
X157263353Y-84476306D01*
X157154457Y-84555424D01*
X157150036Y-84560334D01*
X157150035Y-84560335D01*
X157062104Y-84657993D01*
X157026670Y-84697346D01*
X156931183Y-84862734D01*
X156922248Y-84890233D01*
X156888025Y-84995561D01*
X156872168Y-85044362D01*
X156871668Y-85049120D01*
X156838259Y-85111000D01*
X156815139Y-85129414D01*
X156780532Y-85150871D01*
X156780530Y-85150873D01*
X156774075Y-85154875D01*
X156768761Y-85160301D01*
X156768759Y-85160303D01*
X156741572Y-85188066D01*
X156654094Y-85277396D01*
X156614747Y-85339757D01*
X156381729Y-85797083D01*
X156354404Y-85865571D01*
X156325806Y-86034654D01*
X156338364Y-86205677D01*
X156380110Y-86334158D01*
X156382138Y-86405123D01*
X156345475Y-86465921D01*
X156299213Y-86492925D01*
X156217649Y-86519427D01*
X156170734Y-86534670D01*
X156164273Y-86538676D01*
X156031448Y-86621031D01*
X156031445Y-86621033D01*
X156024991Y-86625035D01*
X156019677Y-86630461D01*
X156019675Y-86630463D01*
X155926622Y-86725486D01*
X155905010Y-86747556D01*
X155865663Y-86809917D01*
X155632645Y-87267243D01*
X155631573Y-87269929D01*
X155631572Y-87269932D01*
X155620128Y-87298615D01*
X155605320Y-87335731D01*
X155604206Y-87342320D01*
X155604205Y-87342322D01*
X155587786Y-87439398D01*
X155576722Y-87504814D01*
X155589280Y-87675837D01*
X155591627Y-87683061D01*
X155591628Y-87683065D01*
X155606989Y-87730340D01*
X155642272Y-87838929D01*
X155732637Y-87984672D01*
X155855158Y-88104654D01*
X155917519Y-88144000D01*
X155920080Y-88145305D01*
X155920082Y-88145306D01*
X156248247Y-88312514D01*
X156508496Y-88445117D01*
X156576984Y-88472442D01*
X156583576Y-88473557D01*
X156590018Y-88475365D01*
X156589178Y-88478358D01*
X156646179Y-88507771D01*
X157175618Y-89037210D01*
X157209644Y-89099522D01*
X157212523Y-89126305D01*
X157212523Y-89606987D01*
X157212277Y-89611530D01*
X157211478Y-89614969D01*
X157211572Y-89622564D01*
X157211572Y-89622567D01*
X157212513Y-89698329D01*
X157212523Y-89699893D01*
X157212523Y-89734914D01*
X157212902Y-89738046D01*
X157213060Y-89742424D01*
X157213607Y-89786440D01*
X157215510Y-89793791D01*
X157221183Y-89815712D01*
X157224289Y-89832143D01*
X157227921Y-89862153D01*
X157242284Y-89900164D01*
X157246389Y-89913101D01*
X157256575Y-89952454D01*
X157260176Y-89959138D01*
X157260176Y-89959139D01*
X157270915Y-89979074D01*
X157277850Y-89994288D01*
X157288536Y-90022567D01*
X157292835Y-90028822D01*
X157292836Y-90028824D01*
X157311546Y-90056047D01*
X157318633Y-90067655D01*
X157337903Y-90103426D01*
X157342995Y-90109059D01*
X157358182Y-90125861D01*
X157368546Y-90138983D01*
X157385666Y-90163892D01*
X157415999Y-90190918D01*
X157420551Y-90195437D01*
X157420633Y-90195353D01*
X157423595Y-90198227D01*
X157426360Y-90201286D01*
X157429501Y-90203958D01*
X157429505Y-90203962D01*
X157453528Y-90224399D01*
X157455668Y-90226261D01*
X157513702Y-90277968D01*
X157519285Y-90280924D01*
X157526503Y-90286481D01*
X157867383Y-90576479D01*
X158414675Y-91042079D01*
X158423800Y-91050660D01*
X158755144Y-91394824D01*
X159262546Y-91921858D01*
X159270762Y-91931289D01*
X159996661Y-92853267D01*
X160011393Y-92871978D01*
X160020506Y-92885210D01*
X160037290Y-92913254D01*
X160042629Y-92918649D01*
X160042850Y-92918934D01*
X160049538Y-92928429D01*
X160676172Y-93911447D01*
X160682370Y-93922330D01*
X161208479Y-94963056D01*
X161227957Y-95001587D01*
X161233046Y-95013034D01*
X161668776Y-96141143D01*
X161672703Y-96153037D01*
X161804437Y-96630620D01*
X161981700Y-97273264D01*
X161994268Y-97318829D01*
X161996993Y-97331049D01*
X162151036Y-98230145D01*
X162201214Y-98523013D01*
X162202713Y-98535449D01*
X162285901Y-99718011D01*
X162286415Y-99725324D01*
X162286434Y-99742729D01*
X162284516Y-99770862D01*
X162285822Y-99778345D01*
X162291987Y-99813676D01*
X162292791Y-99818938D01*
X162293240Y-99822356D01*
X162293505Y-99826124D01*
X162294222Y-99829836D01*
X162294222Y-99829840D01*
X162300134Y-99860473D01*
X162300541Y-99862687D01*
X162313998Y-99939794D01*
X162316579Y-99945674D01*
X162317794Y-99951968D01*
X162350509Y-100023017D01*
X162351420Y-100025041D01*
X162382926Y-100096815D01*
X162386396Y-100101336D01*
X162386565Y-100101957D01*
X162388955Y-100106516D01*
X162389509Y-100107719D01*
X162388290Y-100108280D01*
X162404878Y-100169091D01*
X162383564Y-100236813D01*
X162343041Y-100275112D01*
X162315465Y-100291420D01*
X162315462Y-100291422D01*
X162308638Y-100295458D01*
X162299501Y-100304595D01*
X162237189Y-100338621D01*
X162210406Y-100341500D01*
X162154513Y-100341500D01*
X162148061Y-100342872D01*
X162148056Y-100342872D01*
X162061113Y-100361353D01*
X161967712Y-100381206D01*
X161961682Y-100383891D01*
X161961681Y-100383891D01*
X161799278Y-100456197D01*
X161799276Y-100456198D01*
X161793248Y-100458882D01*
X161638747Y-100571134D01*
X161510960Y-100713056D01*
X161415473Y-100878444D01*
X161356458Y-101060072D01*
X161355768Y-101066633D01*
X161355768Y-101066635D01*
X161345335Y-101165899D01*
X161336496Y-101250000D01*
X161337186Y-101256565D01*
X161353589Y-101412627D01*
X161356458Y-101439928D01*
X161415473Y-101621556D01*
X161418776Y-101627278D01*
X161418777Y-101627279D01*
X161436116Y-101657311D01*
X161510960Y-101786944D01*
X161515378Y-101791851D01*
X161515379Y-101791852D01*
X161537694Y-101816635D01*
X161638747Y-101928866D01*
X161727618Y-101993435D01*
X161772176Y-102025808D01*
X161793248Y-102041118D01*
X161799276Y-102043802D01*
X161799278Y-102043803D01*
X161830332Y-102057629D01*
X161967712Y-102118794D01*
X162046124Y-102135461D01*
X162148056Y-102157128D01*
X162148061Y-102157128D01*
X162154513Y-102158500D01*
X162266439Y-102158500D01*
X162334560Y-102178502D01*
X162381053Y-102232158D01*
X162391157Y-102302432D01*
X162361663Y-102367012D01*
X162355534Y-102373595D01*
X162020807Y-102708322D01*
X162014542Y-102714176D01*
X161970942Y-102752211D01*
X161934445Y-102804141D01*
X161934199Y-102804491D01*
X161930266Y-102809786D01*
X161890851Y-102860054D01*
X161887728Y-102866970D01*
X161886344Y-102869256D01*
X161877970Y-102883937D01*
X161876705Y-102886297D01*
X161872337Y-102892511D01*
X161869577Y-102899590D01*
X161869576Y-102899592D01*
X161849125Y-102952047D01*
X161846574Y-102958116D01*
X161820282Y-103016345D01*
X161818898Y-103023812D01*
X161818097Y-103026367D01*
X161813468Y-103042620D01*
X161812805Y-103045200D01*
X161810045Y-103052281D01*
X161809054Y-103059812D01*
X161809053Y-103059814D01*
X161801706Y-103115624D01*
X161800675Y-103122131D01*
X161789031Y-103184958D01*
X161789468Y-103192538D01*
X161789468Y-103192539D01*
X161792618Y-103247164D01*
X161792827Y-103254418D01*
X161792827Y-103428039D01*
X161786126Y-103468582D01*
X161548481Y-104167869D01*
X161542933Y-104184193D01*
X161538472Y-104195497D01*
X161519624Y-104237242D01*
X161516654Y-104253267D01*
X161514949Y-104262467D01*
X161510358Y-104280048D01*
X161428020Y-104522329D01*
X161423405Y-104533974D01*
X160922513Y-105634698D01*
X160916764Y-105645827D01*
X160309058Y-106691369D01*
X160302233Y-106701873D01*
X159919148Y-107231765D01*
X159905668Y-107247503D01*
X159898916Y-107254184D01*
X159898911Y-107254190D01*
X159893518Y-107259527D01*
X159889551Y-107266001D01*
X159889546Y-107266007D01*
X159865092Y-107305912D01*
X159859770Y-107313898D01*
X159593713Y-107681912D01*
X159585879Y-107691686D01*
X159301709Y-108012165D01*
X158789451Y-108589876D01*
X158783539Y-108596543D01*
X158774775Y-108605488D01*
X158562641Y-108801501D01*
X157886582Y-109426184D01*
X157876970Y-109434218D01*
X157700800Y-109567163D01*
X157448890Y-109757264D01*
X157312260Y-109860370D01*
X157301070Y-109867908D01*
X157265625Y-109889122D01*
X157260224Y-109894467D01*
X157260220Y-109894470D01*
X157244204Y-109910319D01*
X157231474Y-109921334D01*
X156911652Y-110162685D01*
X156901297Y-110169721D01*
X156143517Y-110631206D01*
X155868416Y-110798741D01*
X155857407Y-110804716D01*
X155457946Y-110996473D01*
X154874051Y-111276766D01*
X154743424Y-111339472D01*
X154739541Y-111341255D01*
X154680016Y-111367384D01*
X154680009Y-111367388D01*
X154673059Y-111370439D01*
X154667032Y-111375064D01*
X154667030Y-111375065D01*
X154633689Y-111400648D01*
X154624766Y-111406902D01*
X154582942Y-111433590D01*
X154529448Y-111489652D01*
X154527384Y-111491764D01*
X154098595Y-111920553D01*
X154036283Y-111954579D01*
X153965468Y-111949514D01*
X153908632Y-111906967D01*
X153883821Y-111840447D01*
X153883500Y-111831458D01*
X153883500Y-111064594D01*
X153903502Y-110996473D01*
X153920405Y-110975499D01*
X156392247Y-108503657D01*
X156400537Y-108496113D01*
X156407018Y-108492000D01*
X156453659Y-108442332D01*
X156456413Y-108439491D01*
X156476134Y-108419770D01*
X156478612Y-108416575D01*
X156486318Y-108407553D01*
X156511158Y-108381101D01*
X156516586Y-108375321D01*
X156526346Y-108357568D01*
X156537199Y-108341045D01*
X156544753Y-108331306D01*
X156549613Y-108325041D01*
X156567176Y-108284457D01*
X156572383Y-108273827D01*
X156593695Y-108235060D01*
X156595666Y-108227383D01*
X156595668Y-108227378D01*
X156598732Y-108215442D01*
X156605138Y-108196730D01*
X156610033Y-108185419D01*
X156613181Y-108178145D01*
X156614421Y-108170317D01*
X156614423Y-108170310D01*
X156620099Y-108134476D01*
X156622505Y-108122856D01*
X156631528Y-108087711D01*
X156631528Y-108087710D01*
X156633500Y-108080030D01*
X156633500Y-108059776D01*
X156635051Y-108040065D01*
X156636980Y-108027886D01*
X156638220Y-108020057D01*
X156634059Y-107976038D01*
X156633500Y-107964181D01*
X156633500Y-103364833D01*
X156653502Y-103296712D01*
X156707158Y-103250219D01*
X156777432Y-103240115D01*
X156842012Y-103269609D01*
X156866933Y-103298999D01*
X156877042Y-103315496D01*
X156877047Y-103315503D01*
X156879744Y-103319904D01*
X156883128Y-103323810D01*
X156883129Y-103323812D01*
X156902804Y-103346525D01*
X157028698Y-103491861D01*
X157203737Y-103637181D01*
X157208189Y-103639783D01*
X157208194Y-103639786D01*
X157302199Y-103694718D01*
X157400160Y-103751962D01*
X157612693Y-103833120D01*
X157617759Y-103834151D01*
X157617760Y-103834151D01*
X157686932Y-103848224D01*
X157835627Y-103878476D01*
X157963437Y-103883163D01*
X158057811Y-103886624D01*
X158057815Y-103886624D01*
X158062975Y-103886813D01*
X158068095Y-103886157D01*
X158068097Y-103886157D01*
X158283504Y-103858563D01*
X158283505Y-103858563D01*
X158288632Y-103857906D01*
X158296492Y-103855548D01*
X158501591Y-103794015D01*
X158501592Y-103794014D01*
X158506537Y-103792531D01*
X158710839Y-103692444D01*
X158715043Y-103689446D01*
X158715047Y-103689443D01*
X158891847Y-103563333D01*
X158891849Y-103563331D01*
X158896051Y-103560334D01*
X159057199Y-103399747D01*
X159082672Y-103364298D01*
X159186938Y-103219198D01*
X159186942Y-103219192D01*
X159189956Y-103214997D01*
X159266411Y-103060303D01*
X159288461Y-103015688D01*
X159288462Y-103015686D01*
X159290755Y-103011046D01*
X159348987Y-102819382D01*
X159355388Y-102798314D01*
X159355388Y-102798313D01*
X159356890Y-102793370D01*
X159359952Y-102770115D01*
X159386148Y-102571136D01*
X159386148Y-102571132D01*
X159386585Y-102567815D01*
X159388242Y-102500000D01*
X159369601Y-102273264D01*
X159314178Y-102052617D01*
X159223462Y-101843985D01*
X159099890Y-101652971D01*
X158946779Y-101484704D01*
X158771653Y-101346399D01*
X158730591Y-101288483D01*
X158727359Y-101217560D01*
X158756907Y-101166625D01*
X158755983Y-101165899D01*
X158761134Y-101159339D01*
X158762984Y-101156149D01*
X158764839Y-101154619D01*
X158775572Y-101140948D01*
X158768585Y-101127795D01*
X158012812Y-100372022D01*
X157998868Y-100364408D01*
X157997035Y-100364539D01*
X157990420Y-100368790D01*
X157228460Y-101130750D01*
X157221700Y-101143130D01*
X157241007Y-101168921D01*
X157239658Y-101169931D01*
X157265019Y-101200072D01*
X157274101Y-101270485D01*
X157243673Y-101334630D01*
X157225310Y-101351504D01*
X157082445Y-101458770D01*
X157078310Y-101461875D01*
X156921133Y-101626351D01*
X156918221Y-101630620D01*
X156863589Y-101710708D01*
X156808677Y-101755711D01*
X156738153Y-101763882D01*
X156674405Y-101732628D01*
X156637675Y-101671871D01*
X156633500Y-101639704D01*
X156633500Y-100857194D01*
X156653502Y-100789073D01*
X156707158Y-100742580D01*
X156777432Y-100732476D01*
X156844033Y-100763758D01*
X156858736Y-100777060D01*
X156867513Y-100773277D01*
X157627978Y-100012812D01*
X157634356Y-100001132D01*
X158364408Y-100001132D01*
X158364539Y-100002965D01*
X158368790Y-100009580D01*
X159128388Y-100769178D01*
X159140398Y-100775736D01*
X159152138Y-100766768D01*
X159186507Y-100718940D01*
X159191816Y-100710103D01*
X159287994Y-100515503D01*
X159291792Y-100505910D01*
X159354897Y-100298208D01*
X159357074Y-100288138D01*
X159385646Y-100071113D01*
X159386165Y-100064438D01*
X159387658Y-100003364D01*
X159387464Y-99996646D01*
X159369530Y-99778507D01*
X159367845Y-99768327D01*
X159314962Y-99557791D01*
X159311642Y-99548040D01*
X159225080Y-99348959D01*
X159220213Y-99339884D01*
X159151144Y-99233118D01*
X159140458Y-99223915D01*
X159130891Y-99228319D01*
X158372022Y-99987188D01*
X158364408Y-100001132D01*
X157634356Y-100001132D01*
X157635592Y-99998868D01*
X157635461Y-99997035D01*
X157631210Y-99990420D01*
X156887344Y-99246554D01*
X156856606Y-99196396D01*
X156834527Y-99128444D01*
X156813990Y-99092872D01*
X156782817Y-99038880D01*
X156739040Y-98963056D01*
X156733603Y-98957017D01*
X156615675Y-98826045D01*
X156615674Y-98826044D01*
X156611253Y-98821134D01*
X156456752Y-98708882D01*
X156450724Y-98706198D01*
X156450722Y-98706197D01*
X156288319Y-98633891D01*
X156288318Y-98633891D01*
X156282288Y-98631206D01*
X156188888Y-98611353D01*
X156101944Y-98592872D01*
X156101939Y-98592872D01*
X156095487Y-98591500D01*
X155904513Y-98591500D01*
X155898061Y-98592872D01*
X155898056Y-98592872D01*
X155811112Y-98611353D01*
X155717712Y-98631206D01*
X155711682Y-98633891D01*
X155711681Y-98633891D01*
X155549278Y-98706197D01*
X155549276Y-98706198D01*
X155543248Y-98708882D01*
X155388747Y-98821134D01*
X155384326Y-98826044D01*
X155384325Y-98826045D01*
X155266398Y-98957017D01*
X155260960Y-98963056D01*
X155224179Y-99026762D01*
X155222113Y-99030341D01*
X155170730Y-99079334D01*
X155100394Y-99092543D01*
X155095487Y-99091500D01*
X154904513Y-99091500D01*
X154898061Y-99092872D01*
X154898056Y-99092872D01*
X154811112Y-99111353D01*
X154717712Y-99131206D01*
X154711682Y-99133891D01*
X154711681Y-99133891D01*
X154549278Y-99206197D01*
X154549276Y-99206198D01*
X154543248Y-99208882D01*
X154388747Y-99321134D01*
X154384326Y-99326044D01*
X154384325Y-99326045D01*
X154313760Y-99404416D01*
X154260960Y-99463056D01*
X154165473Y-99628444D01*
X154106458Y-99810072D01*
X154105768Y-99816633D01*
X154105768Y-99816635D01*
X154091040Y-99956770D01*
X154086496Y-100000000D01*
X154095941Y-100089861D01*
X154096246Y-100092766D01*
X154083474Y-100162604D01*
X154041736Y-100206801D01*
X154043248Y-100208882D01*
X153888747Y-100321134D01*
X153884326Y-100326044D01*
X153884325Y-100326045D01*
X153768360Y-100454838D01*
X153760960Y-100463056D01*
X153757659Y-100468774D01*
X153670218Y-100620226D01*
X153665473Y-100628444D01*
X153606458Y-100810072D01*
X153605768Y-100816633D01*
X153605768Y-100816635D01*
X153594678Y-100922154D01*
X153586496Y-101000000D01*
X153587186Y-101006565D01*
X153587186Y-101009853D01*
X153567184Y-101077974D01*
X153513528Y-101124467D01*
X153500123Y-101129686D01*
X153499669Y-101129834D01*
X153493212Y-101131206D01*
X153487182Y-101133891D01*
X153487181Y-101133891D01*
X153433447Y-101157815D01*
X153318748Y-101208882D01*
X153318126Y-101207485D01*
X153256758Y-101222374D01*
X153207221Y-101207829D01*
X153206752Y-101208882D01*
X153038319Y-101133891D01*
X153038318Y-101133891D01*
X153032288Y-101131206D01*
X152927554Y-101108944D01*
X152851944Y-101092872D01*
X152851939Y-101092872D01*
X152845487Y-101091500D01*
X152654513Y-101091500D01*
X152648061Y-101092872D01*
X152648056Y-101092872D01*
X152572446Y-101108944D01*
X152467712Y-101131206D01*
X152461682Y-101133891D01*
X152461681Y-101133891D01*
X152299278Y-101206197D01*
X152299276Y-101206198D01*
X152293248Y-101208882D01*
X152287907Y-101212762D01*
X152287906Y-101212763D01*
X152260759Y-101232487D01*
X152138747Y-101321134D01*
X152134326Y-101326044D01*
X152134325Y-101326045D01*
X152031785Y-101439928D01*
X152010960Y-101463056D01*
X151915473Y-101628444D01*
X151856458Y-101810072D01*
X151855768Y-101816633D01*
X151855768Y-101816635D01*
X151843972Y-101928866D01*
X151836496Y-102000000D01*
X151837186Y-102006565D01*
X151853011Y-102157128D01*
X151856458Y-102189928D01*
X151915473Y-102371556D01*
X151918776Y-102377278D01*
X151918777Y-102377279D01*
X151952686Y-102436010D01*
X152010960Y-102536944D01*
X152084137Y-102618215D01*
X152114853Y-102682221D01*
X152116500Y-102702524D01*
X152116500Y-104512057D01*
X152096498Y-104580178D01*
X152042842Y-104626671D01*
X151972568Y-104636775D01*
X151907988Y-104607281D01*
X151892097Y-104590751D01*
X151769775Y-104437793D01*
X151763580Y-104431104D01*
X151573206Y-104253267D01*
X151566129Y-104247557D01*
X151352082Y-104099066D01*
X151344241Y-104094429D01*
X151111003Y-103978396D01*
X151102578Y-103974940D01*
X150855026Y-103893788D01*
X150846201Y-103891588D01*
X150588811Y-103846897D01*
X150581193Y-103846050D01*
X150501408Y-103842078D01*
X150498267Y-103842000D01*
X150272115Y-103842000D01*
X150256876Y-103846475D01*
X150255671Y-103847865D01*
X150254000Y-103855548D01*
X150254000Y-105828000D01*
X150233998Y-105896121D01*
X150180342Y-105942614D01*
X150128000Y-105954000D01*
X147775826Y-105954000D01*
X147761349Y-105958251D01*
X147759286Y-105970512D01*
X147762685Y-106006133D01*
X147764205Y-106015125D01*
X147771543Y-106045111D01*
X147768306Y-106116033D01*
X147727238Y-106173947D01*
X147661380Y-106200464D01*
X147591640Y-106187167D01*
X147560059Y-106164154D01*
X146824130Y-105428225D01*
X147759733Y-105428225D01*
X147760912Y-105441137D01*
X147776015Y-105446000D01*
X149727885Y-105446000D01*
X149743124Y-105441525D01*
X149744329Y-105440135D01*
X149746000Y-105432452D01*
X149746000Y-103860115D01*
X149741525Y-103844876D01*
X149740135Y-103843671D01*
X149732452Y-103842000D01*
X149533794Y-103842000D01*
X149529223Y-103842165D01*
X149335620Y-103856213D01*
X149326611Y-103857527D01*
X149072231Y-103913689D01*
X149063501Y-103916292D01*
X148819893Y-104008586D01*
X148811632Y-104012421D01*
X148583899Y-104138915D01*
X148576274Y-104143905D01*
X148369191Y-104301946D01*
X148362364Y-104307986D01*
X148180265Y-104494264D01*
X148174382Y-104501226D01*
X148021078Y-104711843D01*
X148016267Y-104719573D01*
X147894969Y-104950122D01*
X147891322Y-104958472D01*
X147804581Y-105204099D01*
X147802175Y-105212894D01*
X147759733Y-105428225D01*
X146824130Y-105428225D01*
X145447122Y-104051217D01*
X145413096Y-103988905D01*
X145410907Y-103975292D01*
X145394232Y-103816635D01*
X145394232Y-103816633D01*
X145393542Y-103810072D01*
X145334527Y-103628444D01*
X145239040Y-103463056D01*
X145226262Y-103448864D01*
X145115675Y-103326045D01*
X145115674Y-103326044D01*
X145111253Y-103321134D01*
X144999740Y-103240115D01*
X144962094Y-103212763D01*
X144962093Y-103212762D01*
X144956752Y-103208882D01*
X144950724Y-103206198D01*
X144950722Y-103206197D01*
X144788319Y-103133891D01*
X144788318Y-103133891D01*
X144782288Y-103131206D01*
X144688888Y-103111353D01*
X144601944Y-103092872D01*
X144601939Y-103092872D01*
X144595487Y-103091500D01*
X144535757Y-103091500D01*
X144467636Y-103071498D01*
X144421143Y-103017842D01*
X144411039Y-102947568D01*
X144415199Y-102928871D01*
X144454895Y-102798216D01*
X144457074Y-102788138D01*
X144485646Y-102571113D01*
X144486165Y-102564438D01*
X144487658Y-102503364D01*
X144487464Y-102496646D01*
X144469530Y-102278507D01*
X144467845Y-102268327D01*
X144414962Y-102057791D01*
X144411642Y-102048040D01*
X144325080Y-101848959D01*
X144320213Y-101839884D01*
X144251144Y-101733118D01*
X144240458Y-101723915D01*
X144230891Y-101728319D01*
X143189095Y-102770115D01*
X143126783Y-102804141D01*
X143055968Y-102799076D01*
X143010905Y-102770115D01*
X141971858Y-101731068D01*
X141960322Y-101724768D01*
X141948039Y-101734391D01*
X141896279Y-101810268D01*
X141891191Y-101819224D01*
X141799795Y-102016121D01*
X141796232Y-102025808D01*
X141738223Y-102234979D01*
X141736292Y-102245100D01*
X141713222Y-102460962D01*
X141712971Y-102471250D01*
X141725467Y-102687967D01*
X141726903Y-102698188D01*
X141774627Y-102909948D01*
X141777706Y-102919777D01*
X141859379Y-103120914D01*
X141864022Y-103130105D01*
X141891328Y-103174665D01*
X141909866Y-103243199D01*
X141888409Y-103310876D01*
X141833770Y-103356209D01*
X141783895Y-103366500D01*
X141165074Y-103366500D01*
X141153891Y-103365973D01*
X141146398Y-103364298D01*
X141138472Y-103364547D01*
X141138471Y-103364547D01*
X141078308Y-103366438D01*
X141074350Y-103366500D01*
X141046450Y-103366500D01*
X141042460Y-103367004D01*
X141030626Y-103367936D01*
X140986417Y-103369326D01*
X140978803Y-103371538D01*
X140978798Y-103371539D01*
X140966965Y-103374977D01*
X140947602Y-103378988D01*
X140927509Y-103381526D01*
X140920142Y-103384443D01*
X140920137Y-103384444D01*
X140886398Y-103397802D01*
X140875171Y-103401646D01*
X140832713Y-103413982D01*
X140825887Y-103418019D01*
X140815278Y-103424293D01*
X140797530Y-103432988D01*
X140778689Y-103440448D01*
X140772273Y-103445110D01*
X140772272Y-103445110D01*
X140742919Y-103466436D01*
X140732999Y-103472952D01*
X140701771Y-103491420D01*
X140701768Y-103491422D01*
X140694944Y-103495458D01*
X140680623Y-103509779D01*
X140665590Y-103522619D01*
X140649199Y-103534528D01*
X140644148Y-103540634D01*
X140621008Y-103568605D01*
X140613018Y-103577384D01*
X138756367Y-105434034D01*
X138694055Y-105468060D01*
X138623239Y-105462995D01*
X138566404Y-105420448D01*
X138541593Y-105353928D01*
X138541272Y-105344939D01*
X138541272Y-104604260D01*
X138541511Y-104596502D01*
X138544774Y-104543605D01*
X138545242Y-104536024D01*
X138534331Y-104475802D01*
X138533225Y-104468477D01*
X138526787Y-104415278D01*
X138526787Y-104415277D01*
X138525874Y-104407735D01*
X138502876Y-104346871D01*
X138500757Y-104340796D01*
X138410156Y-104058098D01*
X138409714Y-104056693D01*
X138385083Y-103976629D01*
X138383372Y-103973770D01*
X138381851Y-103969784D01*
X138367101Y-103923758D01*
X138243494Y-103538072D01*
X138125715Y-103170567D01*
X138122490Y-103158464D01*
X137934284Y-102278425D01*
X137869578Y-101975862D01*
X137867572Y-101963503D01*
X137863704Y-101928866D01*
X137800007Y-101358569D01*
X142323365Y-101358569D01*
X142330111Y-101370901D01*
X143087188Y-102127978D01*
X143101132Y-102135592D01*
X143102965Y-102135461D01*
X143109580Y-102131210D01*
X143871190Y-101369600D01*
X143878211Y-101356744D01*
X143870718Y-101346461D01*
X143863435Y-101341622D01*
X143673398Y-101236715D01*
X143663989Y-101232487D01*
X143459364Y-101160026D01*
X143449401Y-101157394D01*
X143235687Y-101119326D01*
X143225434Y-101118356D01*
X143008366Y-101115703D01*
X142998082Y-101116423D01*
X142783507Y-101149258D01*
X142773479Y-101151647D01*
X142567147Y-101219087D01*
X142557637Y-101223084D01*
X142365095Y-101323315D01*
X142356370Y-101328809D01*
X142331819Y-101347243D01*
X142323365Y-101358569D01*
X137800007Y-101358569D01*
X137733337Y-100761656D01*
X137732567Y-100749157D01*
X137729149Y-100458882D01*
X137724434Y-100058447D01*
X137725602Y-100044856D01*
X137725454Y-100044847D01*
X137725931Y-100037258D01*
X137727315Y-100029794D01*
X137726150Y-100009580D01*
X137723437Y-99962542D01*
X137723237Y-99956770D01*
X137722965Y-99933639D01*
X137722965Y-99933636D01*
X137718329Y-99539901D01*
X137718804Y-99527384D01*
X137824704Y-98322707D01*
X137826420Y-98310299D01*
X137986276Y-97466082D01*
X141712172Y-97466082D01*
X141712469Y-97471234D01*
X141712469Y-97471238D01*
X141723007Y-97653986D01*
X141725268Y-97693206D01*
X141726405Y-97698252D01*
X141726406Y-97698258D01*
X141751251Y-97808501D01*
X141775283Y-97915141D01*
X141860875Y-98125927D01*
X141979744Y-98319904D01*
X142128698Y-98491861D01*
X142303737Y-98637181D01*
X142308189Y-98639783D01*
X142308194Y-98639786D01*
X142495702Y-98749357D01*
X142500160Y-98751962D01*
X142712693Y-98833120D01*
X142717759Y-98834151D01*
X142717760Y-98834151D01*
X142816861Y-98854313D01*
X142935627Y-98878476D01*
X143063437Y-98883163D01*
X143157811Y-98886624D01*
X143157815Y-98886624D01*
X143162975Y-98886813D01*
X143168095Y-98886157D01*
X143168097Y-98886157D01*
X143383504Y-98858563D01*
X143383505Y-98858563D01*
X143388632Y-98857906D01*
X143475921Y-98831718D01*
X143601591Y-98794015D01*
X143601592Y-98794014D01*
X143606537Y-98792531D01*
X143810839Y-98692444D01*
X143815043Y-98689446D01*
X143815047Y-98689443D01*
X143991847Y-98563333D01*
X143991849Y-98563331D01*
X143996051Y-98560334D01*
X144157199Y-98399747D01*
X144181736Y-98365601D01*
X144286938Y-98219198D01*
X144286942Y-98219192D01*
X144289956Y-98214997D01*
X144390755Y-98011046D01*
X144452334Y-97808366D01*
X144455388Y-97798314D01*
X144455388Y-97798313D01*
X144456890Y-97793370D01*
X144457565Y-97788244D01*
X144486148Y-97571136D01*
X144486148Y-97571132D01*
X144486585Y-97567815D01*
X144486667Y-97564463D01*
X144488160Y-97503365D01*
X144488160Y-97503361D01*
X144488242Y-97500000D01*
X144469601Y-97273264D01*
X144443040Y-97167521D01*
X144445844Y-97096581D01*
X144486557Y-97038417D01*
X144552252Y-97011498D01*
X144622072Y-97024369D01*
X144654339Y-97047731D01*
X145171766Y-97565158D01*
X145172694Y-97566095D01*
X145177631Y-97571136D01*
X145235771Y-97630507D01*
X145272221Y-97653998D01*
X145282546Y-97661417D01*
X145316443Y-97688476D01*
X145322784Y-97691541D01*
X145322785Y-97691542D01*
X145346637Y-97703072D01*
X145360054Y-97710601D01*
X145388238Y-97728765D01*
X145394855Y-97731173D01*
X145394860Y-97731176D01*
X145428973Y-97743592D01*
X145440716Y-97748553D01*
X145473403Y-97764354D01*
X145473408Y-97764356D01*
X145479749Y-97767421D01*
X145486607Y-97769004D01*
X145486609Y-97769005D01*
X145512426Y-97774965D01*
X145527169Y-97779332D01*
X145558685Y-97790803D01*
X145565675Y-97791686D01*
X145565683Y-97791688D01*
X145601701Y-97796238D01*
X145614253Y-97798474D01*
X145649614Y-97806638D01*
X145649617Y-97806638D01*
X145656485Y-97808224D01*
X145663531Y-97808249D01*
X145663534Y-97808249D01*
X145697056Y-97808366D01*
X145697938Y-97808395D01*
X145698769Y-97808500D01*
X145735419Y-97808500D01*
X145735859Y-97808501D01*
X145834343Y-97808845D01*
X145834348Y-97808845D01*
X145837870Y-97808857D01*
X145839070Y-97808589D01*
X145840707Y-97808500D01*
X154255506Y-97808500D01*
X154306755Y-97819393D01*
X154397873Y-97859961D01*
X154417712Y-97868794D01*
X154511112Y-97888647D01*
X154598056Y-97907128D01*
X154598061Y-97907128D01*
X154604513Y-97908500D01*
X154795487Y-97908500D01*
X154801939Y-97907128D01*
X154801944Y-97907128D01*
X154888888Y-97888647D01*
X154982288Y-97868794D01*
X154988319Y-97866109D01*
X155150722Y-97793803D01*
X155150724Y-97793802D01*
X155156752Y-97791118D01*
X155176600Y-97776698D01*
X155284562Y-97698258D01*
X155311253Y-97678866D01*
X155354796Y-97630507D01*
X155434621Y-97541852D01*
X155434622Y-97541851D01*
X155439040Y-97536944D01*
X155479952Y-97466082D01*
X156612172Y-97466082D01*
X156612469Y-97471234D01*
X156612469Y-97471238D01*
X156623007Y-97653986D01*
X156625268Y-97693206D01*
X156626405Y-97698252D01*
X156626406Y-97698258D01*
X156651251Y-97808501D01*
X156675283Y-97915141D01*
X156760875Y-98125927D01*
X156879744Y-98319904D01*
X157028698Y-98491861D01*
X157203737Y-98637181D01*
X157208190Y-98639783D01*
X157208197Y-98639788D01*
X157213124Y-98642667D01*
X157261845Y-98694308D01*
X157274912Y-98764092D01*
X157248178Y-98829862D01*
X157235819Y-98841884D01*
X157223365Y-98858569D01*
X157230111Y-98870901D01*
X157987188Y-99627978D01*
X158001132Y-99635592D01*
X158002965Y-99635461D01*
X158009580Y-99631210D01*
X158771190Y-98869600D01*
X158778211Y-98856744D01*
X158760258Y-98832104D01*
X158760787Y-98831718D01*
X158730578Y-98789112D01*
X158727343Y-98718189D01*
X158762966Y-98656776D01*
X158776558Y-98645567D01*
X158896051Y-98560334D01*
X159057199Y-98399747D01*
X159081736Y-98365601D01*
X159186938Y-98219198D01*
X159186942Y-98219192D01*
X159189956Y-98214997D01*
X159290755Y-98011046D01*
X159352334Y-97808366D01*
X159355388Y-97798314D01*
X159355388Y-97798313D01*
X159356890Y-97793370D01*
X159357565Y-97788244D01*
X159386148Y-97571136D01*
X159386148Y-97571132D01*
X159386585Y-97567815D01*
X159386667Y-97564463D01*
X159388160Y-97503365D01*
X159388160Y-97503361D01*
X159388242Y-97500000D01*
X159369601Y-97273264D01*
X159314178Y-97052617D01*
X159223462Y-96843985D01*
X159099890Y-96652971D01*
X158946779Y-96484704D01*
X158768241Y-96343704D01*
X158730537Y-96322890D01*
X158662750Y-96285470D01*
X158569072Y-96233757D01*
X158564203Y-96232033D01*
X158564199Y-96232031D01*
X158359496Y-96159541D01*
X158359492Y-96159540D01*
X158354621Y-96157815D01*
X158349528Y-96156908D01*
X158349525Y-96156907D01*
X158135734Y-96118825D01*
X158135728Y-96118824D01*
X158130645Y-96117919D01*
X158057196Y-96117022D01*
X157908331Y-96115203D01*
X157908329Y-96115203D01*
X157903161Y-96115140D01*
X157678278Y-96149552D01*
X157462035Y-96220231D01*
X157457447Y-96222619D01*
X157457443Y-96222621D01*
X157268201Y-96321134D01*
X157260239Y-96325279D01*
X157256106Y-96328382D01*
X157256103Y-96328384D01*
X157082445Y-96458770D01*
X157078310Y-96461875D01*
X156921133Y-96626351D01*
X156792931Y-96814289D01*
X156790758Y-96818971D01*
X156790756Y-96818974D01*
X156699358Y-97015876D01*
X156697145Y-97020643D01*
X156636348Y-97239869D01*
X156635799Y-97245006D01*
X156616047Y-97429827D01*
X156612172Y-97466082D01*
X155479952Y-97466082D01*
X155534527Y-97371556D01*
X155593542Y-97189928D01*
X155602691Y-97102885D01*
X155612814Y-97006565D01*
X155613504Y-97000000D01*
X155612814Y-96993435D01*
X155594232Y-96816635D01*
X155594232Y-96816633D01*
X155593542Y-96810072D01*
X155534527Y-96628444D01*
X155439040Y-96463056D01*
X155399900Y-96419586D01*
X155315675Y-96326045D01*
X155315674Y-96326044D01*
X155311253Y-96321134D01*
X155175662Y-96222621D01*
X155162094Y-96212763D01*
X155162093Y-96212762D01*
X155156752Y-96208882D01*
X155150724Y-96206198D01*
X155150722Y-96206197D01*
X154988319Y-96133891D01*
X154988318Y-96133891D01*
X154982288Y-96131206D01*
X154888887Y-96111353D01*
X154801944Y-96092872D01*
X154801939Y-96092872D01*
X154795487Y-96091500D01*
X154604513Y-96091500D01*
X154598061Y-96092872D01*
X154598056Y-96092872D01*
X154511113Y-96111353D01*
X154417712Y-96131206D01*
X154411682Y-96133891D01*
X154411681Y-96133891D01*
X154306755Y-96180607D01*
X154255506Y-96191500D01*
X151307572Y-96191500D01*
X151239451Y-96171498D01*
X151192958Y-96117842D01*
X151182854Y-96047568D01*
X151212348Y-95982988D01*
X151246390Y-95955351D01*
X151416101Y-95861085D01*
X151423726Y-95856095D01*
X151630809Y-95698054D01*
X151637636Y-95692014D01*
X151819735Y-95505736D01*
X151825618Y-95498774D01*
X151978922Y-95288157D01*
X151983733Y-95280427D01*
X152105031Y-95049878D01*
X152108678Y-95041528D01*
X152195419Y-94795901D01*
X152197825Y-94787106D01*
X152240267Y-94571775D01*
X152239088Y-94558863D01*
X152223985Y-94554000D01*
X147775826Y-94554000D01*
X147761349Y-94558251D01*
X147759286Y-94570512D01*
X147762685Y-94606133D01*
X147764205Y-94615125D01*
X147826122Y-94868158D01*
X147828922Y-94876827D01*
X147926722Y-95118282D01*
X147930744Y-95126455D01*
X148062368Y-95351253D01*
X148067531Y-95358765D01*
X148230231Y-95562213D01*
X148236420Y-95568896D01*
X148426794Y-95746733D01*
X148433871Y-95752443D01*
X148647918Y-95900934D01*
X148655759Y-95905571D01*
X148750471Y-95952689D01*
X148802552Y-96000939D01*
X148820279Y-96069687D01*
X148798025Y-96137106D01*
X148742853Y-96181790D01*
X148694349Y-96191500D01*
X146137082Y-96191500D01*
X146068961Y-96171498D01*
X146047987Y-96154595D01*
X145447417Y-95554025D01*
X145413391Y-95491713D01*
X145411202Y-95478100D01*
X145394232Y-95316635D01*
X145394232Y-95316633D01*
X145393542Y-95310072D01*
X145334527Y-95128444D01*
X145239040Y-94963056D01*
X145181901Y-94899596D01*
X145115675Y-94826045D01*
X145115674Y-94826044D01*
X145111253Y-94821134D01*
X144956752Y-94708882D01*
X144950724Y-94706198D01*
X144950722Y-94706197D01*
X144788319Y-94633891D01*
X144788318Y-94633891D01*
X144782288Y-94631206D01*
X144684931Y-94610512D01*
X144601944Y-94592872D01*
X144601939Y-94592872D01*
X144595487Y-94591500D01*
X144404513Y-94591500D01*
X144398061Y-94592872D01*
X144398056Y-94592872D01*
X144315069Y-94610512D01*
X144217712Y-94631206D01*
X144211682Y-94633891D01*
X144211681Y-94633891D01*
X144049278Y-94706197D01*
X144049276Y-94706198D01*
X144043248Y-94708882D01*
X143888747Y-94821134D01*
X143884326Y-94826044D01*
X143884325Y-94826045D01*
X143818100Y-94899596D01*
X143760960Y-94963056D01*
X143665473Y-95128444D01*
X143606458Y-95310072D01*
X143586496Y-95500000D01*
X143606458Y-95689928D01*
X143665473Y-95871556D01*
X143702854Y-95936301D01*
X143709293Y-95947454D01*
X143723328Y-95983827D01*
X143727028Y-96000939D01*
X143728881Y-96009510D01*
X143731860Y-96015898D01*
X143738975Y-96031158D01*
X143749634Y-96101350D01*
X143720653Y-96166162D01*
X143661232Y-96205017D01*
X143590238Y-96205578D01*
X143582744Y-96203186D01*
X143454621Y-96157815D01*
X143449528Y-96156908D01*
X143449525Y-96156907D01*
X143235734Y-96118825D01*
X143235728Y-96118824D01*
X143230645Y-96117919D01*
X143157196Y-96117022D01*
X143008331Y-96115203D01*
X143008329Y-96115203D01*
X143003161Y-96115140D01*
X142778278Y-96149552D01*
X142562035Y-96220231D01*
X142557447Y-96222619D01*
X142557443Y-96222621D01*
X142368201Y-96321134D01*
X142360239Y-96325279D01*
X142356106Y-96328382D01*
X142356103Y-96328384D01*
X142182445Y-96458770D01*
X142178310Y-96461875D01*
X142021133Y-96626351D01*
X141892931Y-96814289D01*
X141890758Y-96818971D01*
X141890756Y-96818974D01*
X141799358Y-97015876D01*
X141797145Y-97020643D01*
X141736348Y-97239869D01*
X141735799Y-97245006D01*
X141716047Y-97429827D01*
X141712172Y-97466082D01*
X137986276Y-97466082D01*
X138051413Y-97122085D01*
X138054352Y-97109909D01*
X138276710Y-96355402D01*
X138276712Y-96355398D01*
X138286850Y-96320997D01*
X138287676Y-96318305D01*
X138288013Y-96317251D01*
X138307760Y-96255376D01*
X138309064Y-96251290D01*
X138309064Y-96251288D01*
X138311375Y-96244048D01*
X138311795Y-96237888D01*
X138313876Y-96229291D01*
X138396215Y-95949899D01*
X138400347Y-95938081D01*
X138855705Y-94817736D01*
X138860983Y-94806402D01*
X139076864Y-94397248D01*
X139089149Y-94378301D01*
X139107634Y-94354726D01*
X139112323Y-94348746D01*
X139115450Y-94341821D01*
X139116815Y-94339567D01*
X139125214Y-94324843D01*
X139126468Y-94322504D01*
X139130836Y-94316289D01*
X139133595Y-94309213D01*
X139133597Y-94309209D01*
X139154046Y-94256759D01*
X139156595Y-94250694D01*
X139182891Y-94192455D01*
X139184275Y-94184990D01*
X139185072Y-94182446D01*
X139189705Y-94166180D01*
X139190367Y-94163600D01*
X139193128Y-94156519D01*
X139201468Y-94093171D01*
X139202499Y-94086657D01*
X139213329Y-94028225D01*
X147759733Y-94028225D01*
X147760912Y-94041137D01*
X147776015Y-94046000D01*
X149727885Y-94046000D01*
X149743124Y-94041525D01*
X149744329Y-94040135D01*
X149746000Y-94032452D01*
X149746000Y-94027885D01*
X150254000Y-94027885D01*
X150258475Y-94043124D01*
X150259865Y-94044329D01*
X150267548Y-94046000D01*
X152224174Y-94046000D01*
X152238651Y-94041749D01*
X152240714Y-94029488D01*
X152237315Y-93993867D01*
X152235795Y-93984875D01*
X152173878Y-93731842D01*
X152171078Y-93723173D01*
X152073278Y-93481718D01*
X152069256Y-93473545D01*
X151937632Y-93248747D01*
X151932469Y-93241235D01*
X151769769Y-93037787D01*
X151763580Y-93031104D01*
X151573206Y-92853267D01*
X151566129Y-92847557D01*
X151352082Y-92699066D01*
X151344241Y-92694429D01*
X151111003Y-92578396D01*
X151102578Y-92574940D01*
X150855026Y-92493788D01*
X150846201Y-92491588D01*
X150588811Y-92446897D01*
X150581193Y-92446050D01*
X150501408Y-92442078D01*
X150498267Y-92442000D01*
X150272115Y-92442000D01*
X150256876Y-92446475D01*
X150255671Y-92447865D01*
X150254000Y-92455548D01*
X150254000Y-94027885D01*
X149746000Y-94027885D01*
X149746000Y-92460115D01*
X149741525Y-92444876D01*
X149740135Y-92443671D01*
X149732452Y-92442000D01*
X149533794Y-92442000D01*
X149529223Y-92442165D01*
X149335620Y-92456213D01*
X149326611Y-92457527D01*
X149072231Y-92513689D01*
X149063501Y-92516292D01*
X148819893Y-92608586D01*
X148811632Y-92612421D01*
X148583899Y-92738915D01*
X148576274Y-92743905D01*
X148369191Y-92901946D01*
X148362364Y-92907986D01*
X148180265Y-93094264D01*
X148174382Y-93101226D01*
X148021078Y-93311843D01*
X148016267Y-93319573D01*
X147894969Y-93550122D01*
X147891322Y-93558472D01*
X147804581Y-93804099D01*
X147802175Y-93812894D01*
X147759733Y-94028225D01*
X139213329Y-94028225D01*
X139214142Y-94023841D01*
X139210555Y-93961635D01*
X139210346Y-93954381D01*
X139210346Y-93162406D01*
X139230348Y-93094285D01*
X139284004Y-93047792D01*
X139354278Y-93037688D01*
X139418858Y-93067182D01*
X139445464Y-93099405D01*
X139453232Y-93112859D01*
X139456536Y-93118581D01*
X139460954Y-93123488D01*
X139460955Y-93123489D01*
X139579901Y-93255592D01*
X139584323Y-93260503D01*
X139634978Y-93297306D01*
X139717814Y-93357490D01*
X139738824Y-93372755D01*
X139744852Y-93375439D01*
X139744854Y-93375440D01*
X139796648Y-93398500D01*
X139913288Y-93450431D01*
X140006689Y-93470284D01*
X140093632Y-93488765D01*
X140093637Y-93488765D01*
X140100089Y-93490137D01*
X140291063Y-93490137D01*
X140297515Y-93488765D01*
X140297520Y-93488765D01*
X140384464Y-93470284D01*
X140477864Y-93450431D01*
X140594504Y-93398500D01*
X140646298Y-93375440D01*
X140646300Y-93375439D01*
X140652328Y-93372755D01*
X140673339Y-93357490D01*
X140756174Y-93297306D01*
X140806829Y-93260503D01*
X140811251Y-93255592D01*
X140930197Y-93123489D01*
X140930198Y-93123488D01*
X140934616Y-93118581D01*
X141030103Y-92953193D01*
X141062571Y-92853267D01*
X141087078Y-92777844D01*
X141087078Y-92777842D01*
X141089118Y-92771565D01*
X141101149Y-92657097D01*
X141128162Y-92591441D01*
X141175211Y-92555161D01*
X141200719Y-92543804D01*
X141200718Y-92543804D01*
X141206752Y-92541118D01*
X141361253Y-92428866D01*
X141367483Y-92421947D01*
X141484621Y-92291852D01*
X141484622Y-92291851D01*
X141489040Y-92286944D01*
X141584527Y-92121556D01*
X141643542Y-91939928D01*
X141659533Y-91787787D01*
X141662814Y-91756565D01*
X141663504Y-91750000D01*
X141653754Y-91657233D01*
X141666526Y-91587396D01*
X141708264Y-91543199D01*
X141706752Y-91541118D01*
X141708362Y-91539948D01*
X141861253Y-91428866D01*
X141916195Y-91367847D01*
X141984621Y-91291852D01*
X141984622Y-91291851D01*
X141989040Y-91286944D01*
X142073354Y-91140909D01*
X142081223Y-91127279D01*
X142081224Y-91127278D01*
X142084527Y-91121556D01*
X142143542Y-90939928D01*
X142163504Y-90750000D01*
X142145266Y-90576478D01*
X142158038Y-90506640D01*
X142206540Y-90454794D01*
X142235086Y-90443160D01*
X142235566Y-90443102D01*
X142242674Y-90440416D01*
X142245305Y-90439770D01*
X142261586Y-90435315D01*
X142264122Y-90434550D01*
X142271608Y-90433243D01*
X142330124Y-90407556D01*
X142336228Y-90405065D01*
X142388872Y-90385173D01*
X142388873Y-90385172D01*
X142395980Y-90382487D01*
X142402243Y-90378183D01*
X142404609Y-90376946D01*
X142419421Y-90368701D01*
X142421675Y-90367368D01*
X142428629Y-90364315D01*
X142479326Y-90325413D01*
X142484656Y-90321541D01*
X142531044Y-90289661D01*
X142531049Y-90289656D01*
X142537305Y-90285357D01*
X142548390Y-90272916D01*
X142578758Y-90238831D01*
X142583740Y-90233554D01*
X142702642Y-90114653D01*
X142721843Y-90098912D01*
X142791318Y-90052594D01*
X142791326Y-90052590D01*
X143693868Y-89450886D01*
X143704623Y-89444465D01*
X144772474Y-88876866D01*
X144783814Y-88871543D01*
X144803388Y-88863518D01*
X145600219Y-88536817D01*
X145902751Y-88412779D01*
X145914559Y-88408610D01*
X146476530Y-88241130D01*
X147073527Y-88063212D01*
X147085682Y-88060239D01*
X148273203Y-87831626D01*
X148285603Y-87829872D01*
X148725797Y-87789824D01*
X149489977Y-87720300D01*
X149502493Y-87719787D01*
X150021350Y-87724315D01*
X150021353Y-87724315D01*
X150711769Y-87730340D01*
X150724262Y-87731072D01*
X151487099Y-87813921D01*
X151926518Y-87861645D01*
X151938889Y-87863614D01*
X152315222Y-87942898D01*
X153122267Y-88112923D01*
X153134367Y-88116108D01*
X153332261Y-88178866D01*
X153711326Y-88299079D01*
X153711332Y-88299080D01*
X153714944Y-88300226D01*
X153718669Y-88300930D01*
X153718675Y-88300931D01*
X153761545Y-88309027D01*
X153840885Y-88324011D01*
X153921579Y-88319634D01*
X154004530Y-88315136D01*
X154004534Y-88315135D01*
X154012118Y-88314724D01*
X154027425Y-88310072D01*
X154168926Y-88267068D01*
X154168929Y-88267067D01*
X154176193Y-88264859D01*
X154182720Y-88260983D01*
X154182722Y-88260982D01*
X154317106Y-88181175D01*
X154323636Y-88177297D01*
X154357514Y-88144000D01*
X154440521Y-88062416D01*
X154440524Y-88062412D01*
X154445937Y-88057092D01*
X154449923Y-88050636D01*
X154449926Y-88050633D01*
X154532044Y-87917647D01*
X154536035Y-87911184D01*
X154551175Y-87864298D01*
X154581984Y-87813921D01*
X154784156Y-87611749D01*
X154792442Y-87604209D01*
X154798921Y-87600097D01*
X154808991Y-87589374D01*
X154845546Y-87550446D01*
X154848301Y-87547604D01*
X154868038Y-87527867D01*
X154870518Y-87524670D01*
X154878223Y-87515648D01*
X154881287Y-87512385D01*
X154908489Y-87483418D01*
X154912308Y-87476472D01*
X154912310Y-87476469D01*
X154918251Y-87465663D01*
X154929102Y-87449144D01*
X154936661Y-87439398D01*
X154941517Y-87433138D01*
X154947515Y-87419278D01*
X154981573Y-87373293D01*
X155097932Y-87274439D01*
X155097938Y-87274433D01*
X155103511Y-87269698D01*
X155204027Y-87133114D01*
X155244737Y-87041028D01*
X155252819Y-87016156D01*
X155356674Y-86696523D01*
X155409797Y-86533027D01*
X155423166Y-86470542D01*
X155429686Y-86440065D01*
X155429686Y-86440064D01*
X155431127Y-86433329D01*
X155431065Y-86425444D01*
X155429853Y-86271072D01*
X155429852Y-86271068D01*
X155429795Y-86263750D01*
X155422211Y-86232757D01*
X155391228Y-86106139D01*
X155391227Y-86106135D01*
X155389487Y-86099026D01*
X155386158Y-86092507D01*
X155386156Y-86092501D01*
X155373503Y-86067722D01*
X155360338Y-85997957D01*
X155386981Y-85932149D01*
X155428419Y-85898205D01*
X155440457Y-85892058D01*
X155460973Y-85881582D01*
X155590213Y-85771784D01*
X155690729Y-85635200D01*
X155731439Y-85543114D01*
X155742789Y-85508184D01*
X155891617Y-85050138D01*
X155896499Y-85035113D01*
X155907235Y-84984935D01*
X155916388Y-84942151D01*
X155916388Y-84942150D01*
X155917829Y-84935415D01*
X155917474Y-84890233D01*
X155916555Y-84773158D01*
X155916554Y-84773154D01*
X155916497Y-84765836D01*
X155912150Y-84748070D01*
X155877930Y-84608225D01*
X155877929Y-84608221D01*
X155876189Y-84601112D01*
X155852537Y-84554792D01*
X155839372Y-84485028D01*
X155866014Y-84419220D01*
X155875659Y-84408397D01*
X155894576Y-84389480D01*
X155956888Y-84355454D01*
X155983671Y-84352575D01*
X156039562Y-84352575D01*
X156046014Y-84351203D01*
X156046019Y-84351203D01*
X156132962Y-84332722D01*
X156226363Y-84312869D01*
X156232394Y-84310184D01*
X156394797Y-84237878D01*
X156394799Y-84237877D01*
X156400827Y-84235193D01*
X156414780Y-84225056D01*
X156502029Y-84161665D01*
X156555328Y-84122941D01*
X156582440Y-84092830D01*
X156678696Y-83985927D01*
X156678697Y-83985926D01*
X156683115Y-83981019D01*
X156778602Y-83815631D01*
X156837617Y-83634003D01*
X156857579Y-83444075D01*
X156850726Y-83378874D01*
X156838307Y-83260710D01*
X156838307Y-83260708D01*
X156837617Y-83254147D01*
X156778602Y-83072519D01*
X156683115Y-82907131D01*
X156668738Y-82891163D01*
X156559750Y-82770120D01*
X156559749Y-82770119D01*
X156555328Y-82765209D01*
X156456232Y-82693211D01*
X156406169Y-82656838D01*
X156406168Y-82656837D01*
X156400827Y-82652957D01*
X156394799Y-82650273D01*
X156394797Y-82650272D01*
X156232394Y-82577966D01*
X156232393Y-82577966D01*
X156226363Y-82575281D01*
X156122716Y-82553250D01*
X156046019Y-82536947D01*
X156046014Y-82536947D01*
X156039562Y-82535575D01*
X155848588Y-82535575D01*
X155842136Y-82536947D01*
X155842131Y-82536947D01*
X155765434Y-82553250D01*
X155661787Y-82575281D01*
X155655757Y-82577966D01*
X155655756Y-82577966D01*
X155493353Y-82650272D01*
X155493351Y-82650273D01*
X155487323Y-82652957D01*
X155481982Y-82656837D01*
X155481981Y-82656838D01*
X155431918Y-82693211D01*
X155332822Y-82765209D01*
X155328401Y-82770119D01*
X155328400Y-82770120D01*
X155219413Y-82891163D01*
X155205035Y-82907131D01*
X155109548Y-83072519D01*
X155050533Y-83254147D01*
X155049843Y-83260708D01*
X155049843Y-83260710D01*
X155033168Y-83419367D01*
X155006155Y-83485024D01*
X154996953Y-83495293D01*
X154516260Y-83975985D01*
X154461104Y-84007031D01*
X154461240Y-84007396D01*
X154458931Y-84008255D01*
X154457113Y-84009278D01*
X154454383Y-84009946D01*
X154454382Y-84009947D01*
X154447269Y-84011687D01*
X154296237Y-84088808D01*
X154166997Y-84198606D01*
X154066481Y-84335190D01*
X154025771Y-84427276D01*
X154024775Y-84430342D01*
X154024774Y-84430344D01*
X153985395Y-84551541D01*
X153860711Y-84935277D01*
X153839381Y-85034975D01*
X153839435Y-85041864D01*
X153839435Y-85041865D01*
X153840541Y-85182645D01*
X153840713Y-85204554D01*
X153842453Y-85211663D01*
X153842453Y-85211666D01*
X153874427Y-85342330D01*
X153881021Y-85369278D01*
X153884350Y-85375797D01*
X153884352Y-85375803D01*
X153897005Y-85400582D01*
X153910170Y-85470347D01*
X153883527Y-85536155D01*
X153842089Y-85570099D01*
X153809535Y-85586722D01*
X153680295Y-85696520D01*
X153579779Y-85833104D01*
X153539069Y-85925190D01*
X153538073Y-85928256D01*
X153538072Y-85928258D01*
X153513894Y-86002671D01*
X153374009Y-86433191D01*
X153373328Y-86436375D01*
X153373327Y-86436378D01*
X153366018Y-86470542D01*
X153352679Y-86532889D01*
X153352733Y-86539779D01*
X153352733Y-86539780D01*
X153352869Y-86557100D01*
X153333402Y-86625376D01*
X153280113Y-86672288D01*
X153209921Y-86682943D01*
X153200898Y-86681383D01*
X152204279Y-86471420D01*
X152200417Y-86470542D01*
X152171251Y-86463433D01*
X152171245Y-86463432D01*
X152167245Y-86462457D01*
X152163155Y-86462013D01*
X152163150Y-86462012D01*
X152162099Y-86461898D01*
X152155775Y-86460891D01*
X152155764Y-86460965D01*
X152151996Y-86460406D01*
X152148292Y-86459625D01*
X152113041Y-86456543D01*
X152110475Y-86456291D01*
X151526780Y-86392898D01*
X151071341Y-86343434D01*
X151005779Y-86316194D01*
X150965351Y-86257832D01*
X150962894Y-86186878D01*
X150965353Y-86178503D01*
X150971072Y-86161262D01*
X150971072Y-86161260D01*
X150973238Y-86154731D01*
X150983500Y-86054572D01*
X150983500Y-85520428D01*
X150982709Y-85512798D01*
X150973689Y-85425874D01*
X150972978Y-85419018D01*
X150919308Y-85258151D01*
X150830071Y-85113945D01*
X150805195Y-85089113D01*
X150771116Y-85026832D01*
X150776118Y-84956012D01*
X150805040Y-84910922D01*
X150825693Y-84890233D01*
X150830864Y-84885053D01*
X150840748Y-84869019D01*
X150856146Y-84844038D01*
X150919849Y-84740692D01*
X150932330Y-84703064D01*
X150971072Y-84586262D01*
X150971072Y-84586260D01*
X150973238Y-84579731D01*
X150983500Y-84479572D01*
X150983500Y-83945428D01*
X150972978Y-83844018D01*
X150919308Y-83683151D01*
X150830071Y-83538945D01*
X150710053Y-83419136D01*
X150565692Y-83330151D01*
X150558743Y-83327846D01*
X150411262Y-83278928D01*
X150411260Y-83278928D01*
X150404731Y-83276762D01*
X150304572Y-83266500D01*
X150104786Y-83266500D01*
X150036665Y-83246498D01*
X149990172Y-83192842D01*
X149980693Y-83158123D01*
X149980640Y-83158134D01*
X149980444Y-83157214D01*
X149979476Y-83153667D01*
X149979266Y-83151672D01*
X149978576Y-83145106D01*
X149961923Y-83093852D01*
X149921603Y-82969763D01*
X149919561Y-82963478D01*
X149824074Y-82798090D01*
X149696287Y-82656168D01*
X149541786Y-82543916D01*
X149535758Y-82541232D01*
X149535756Y-82541231D01*
X149373353Y-82468925D01*
X149373352Y-82468925D01*
X149367322Y-82466240D01*
X149273922Y-82446387D01*
X149186978Y-82427906D01*
X149186973Y-82427906D01*
X149180521Y-82426534D01*
X148989547Y-82426534D01*
X148983095Y-82427906D01*
X148983090Y-82427906D01*
X148896146Y-82446387D01*
X148802746Y-82466240D01*
X148796716Y-82468925D01*
X148796715Y-82468925D01*
X148634312Y-82541231D01*
X148634310Y-82541232D01*
X148628282Y-82543916D01*
X148473781Y-82656168D01*
X148345994Y-82798090D01*
X148250507Y-82963478D01*
X148191492Y-83145106D01*
X148190802Y-83151667D01*
X148190802Y-83151669D01*
X148177427Y-83278928D01*
X148171530Y-83335034D01*
X148172220Y-83341599D01*
X148183681Y-83450640D01*
X148191492Y-83524962D01*
X148250507Y-83706590D01*
X148345994Y-83871978D01*
X148350412Y-83876885D01*
X148350413Y-83876886D01*
X148467596Y-84007031D01*
X148473781Y-84013900D01*
X148628282Y-84126152D01*
X148634310Y-84128836D01*
X148634312Y-84128837D01*
X148788919Y-84197672D01*
X148802746Y-84203828D01*
X148916698Y-84228049D01*
X148979170Y-84261777D01*
X149013492Y-84323927D01*
X149016500Y-84351296D01*
X149016500Y-84479572D01*
X149016837Y-84482818D01*
X149016837Y-84482822D01*
X149020342Y-84516603D01*
X149027022Y-84580982D01*
X149080692Y-84741849D01*
X149169929Y-84886055D01*
X149194805Y-84910887D01*
X149228884Y-84973168D01*
X149223882Y-85043988D01*
X149194960Y-85089078D01*
X149169136Y-85114947D01*
X149080151Y-85259308D01*
X149077846Y-85266256D01*
X149077846Y-85266257D01*
X149052279Y-85343340D01*
X149026762Y-85420269D01*
X149016500Y-85520428D01*
X149016500Y-86054572D01*
X149016837Y-86057818D01*
X149016837Y-86057822D01*
X149020342Y-86091603D01*
X149027022Y-86155982D01*
X149036109Y-86183219D01*
X149038693Y-86254166D01*
X149002510Y-86315250D01*
X148939045Y-86347075D01*
X148928001Y-86348575D01*
X148440821Y-86392898D01*
X148130020Y-86421174D01*
X148126077Y-86421471D01*
X148091982Y-86423495D01*
X148087942Y-86424273D01*
X148087925Y-86424275D01*
X148086915Y-86424470D01*
X148080557Y-86425369D01*
X148080568Y-86425444D01*
X148076812Y-86426015D01*
X148073034Y-86426359D01*
X148038445Y-86433773D01*
X148035878Y-86434295D01*
X147487941Y-86539780D01*
X146796895Y-86672815D01*
X146726223Y-86666051D01*
X146670425Y-86622152D01*
X146647079Y-86548317D01*
X146647139Y-86538499D01*
X146647181Y-86531619D01*
X146646615Y-86528991D01*
X146659215Y-86460768D01*
X146707807Y-86409006D01*
X146732719Y-86397799D01*
X146735324Y-86396953D01*
X146741777Y-86395581D01*
X146815481Y-86362766D01*
X146910211Y-86320590D01*
X146910213Y-86320589D01*
X146916241Y-86317905D01*
X147070742Y-86205653D01*
X147090896Y-86183270D01*
X147194110Y-86068639D01*
X147194111Y-86068638D01*
X147198529Y-86063731D01*
X147278516Y-85925190D01*
X147290712Y-85904066D01*
X147290713Y-85904065D01*
X147294016Y-85898343D01*
X147353031Y-85716715D01*
X147355652Y-85691783D01*
X147372303Y-85533352D01*
X147372993Y-85526787D01*
X147362132Y-85423452D01*
X147353721Y-85343422D01*
X147353721Y-85343420D01*
X147353031Y-85336859D01*
X147294016Y-85155231D01*
X147274356Y-85121178D01*
X147255822Y-85089078D01*
X147198529Y-84989843D01*
X147168068Y-84956012D01*
X147075164Y-84852832D01*
X147075163Y-84852831D01*
X147070742Y-84847921D01*
X146947973Y-84758724D01*
X146921583Y-84739550D01*
X146921582Y-84739549D01*
X146916241Y-84735669D01*
X146910213Y-84732985D01*
X146910211Y-84732984D01*
X146747808Y-84660678D01*
X146747807Y-84660678D01*
X146741777Y-84657993D01*
X146648377Y-84638140D01*
X146561433Y-84619659D01*
X146561428Y-84619659D01*
X146554976Y-84618287D01*
X146501081Y-84618287D01*
X146432960Y-84598285D01*
X146410072Y-84577991D01*
X146409897Y-84578177D01*
X146360246Y-84531552D01*
X146357404Y-84528797D01*
X146337667Y-84509060D01*
X146334470Y-84506580D01*
X146325448Y-84498875D01*
X146293218Y-84468609D01*
X146286272Y-84464790D01*
X146286269Y-84464788D01*
X146275463Y-84458847D01*
X146258944Y-84447996D01*
X146255798Y-84445556D01*
X146242938Y-84435581D01*
X146235669Y-84432436D01*
X146235665Y-84432433D01*
X146202360Y-84418021D01*
X146191710Y-84412804D01*
X146152957Y-84391500D01*
X146133334Y-84386462D01*
X146114631Y-84380058D01*
X146103317Y-84375162D01*
X146103316Y-84375162D01*
X146096042Y-84372014D01*
X146088219Y-84370775D01*
X146088209Y-84370772D01*
X146052373Y-84365096D01*
X146040753Y-84362690D01*
X146005602Y-84353665D01*
X146005598Y-84353664D01*
X145997927Y-84351695D01*
X145993459Y-84351695D01*
X145929791Y-84323927D01*
X145909309Y-84302163D01*
X145849329Y-84220958D01*
X145832130Y-84197672D01*
X145702698Y-84088100D01*
X145551532Y-84011243D01*
X145386738Y-83971223D01*
X145379418Y-83971178D01*
X145379416Y-83971178D01*
X145224037Y-83970229D01*
X145217157Y-83970187D01*
X145210432Y-83971635D01*
X145210431Y-83971635D01*
X145121877Y-83990700D01*
X145121872Y-83990701D01*
X145118729Y-83991378D01*
X145115671Y-83992371D01*
X145115662Y-83992374D01*
X144834961Y-84083580D01*
X144539399Y-84179613D01*
X144536430Y-84180930D01*
X144536420Y-84180934D01*
X144452508Y-84218161D01*
X144452506Y-84218162D01*
X144446204Y-84220958D01*
X144309795Y-84321712D01*
X144305066Y-84327298D01*
X144204952Y-84445556D01*
X144204949Y-84445560D01*
X144200223Y-84451143D01*
X144123365Y-84602310D01*
X144083345Y-84767104D01*
X144082309Y-84936685D01*
X144083757Y-84943410D01*
X144083757Y-84943411D01*
X144099925Y-85018506D01*
X144103500Y-85035113D01*
X144104493Y-85038170D01*
X144104496Y-85038180D01*
X144257257Y-85508327D01*
X144268560Y-85543114D01*
X144309904Y-85636309D01*
X144410658Y-85772718D01*
X144540090Y-85882290D01*
X144546614Y-85885607D01*
X144546617Y-85885609D01*
X144571422Y-85898221D01*
X144623079Y-85946925D01*
X144640205Y-86015825D01*
X144626632Y-86067643D01*
X144613386Y-86093695D01*
X144613385Y-86093699D01*
X144610067Y-86100224D01*
X144570047Y-86265018D01*
X144570002Y-86272338D01*
X144570002Y-86272340D01*
X144569506Y-86353625D01*
X144569011Y-86434599D01*
X144570459Y-86441324D01*
X144570459Y-86441325D01*
X144574672Y-86460891D01*
X144590202Y-86533027D01*
X144591195Y-86536084D01*
X144591198Y-86536094D01*
X144747697Y-87017745D01*
X144755262Y-87041028D01*
X144796606Y-87134223D01*
X144800702Y-87139768D01*
X144800704Y-87139772D01*
X144814245Y-87158104D01*
X144838629Y-87224782D01*
X144823093Y-87294058D01*
X144772570Y-87343938D01*
X144760693Y-87349547D01*
X144220990Y-87570825D01*
X144217324Y-87572261D01*
X144185322Y-87584222D01*
X144181682Y-87586156D01*
X144181681Y-87586157D01*
X144180761Y-87586646D01*
X144174948Y-87589374D01*
X144174981Y-87589442D01*
X144171558Y-87591093D01*
X144168053Y-87592530D01*
X144164748Y-87594377D01*
X144164741Y-87594380D01*
X144137217Y-87609759D01*
X144134897Y-87611023D01*
X143860979Y-87756620D01*
X143791440Y-87770931D01*
X143725203Y-87745374D01*
X143682008Y-87684298D01*
X143681608Y-87683065D01*
X143657281Y-87608196D01*
X143646540Y-87589591D01*
X143608402Y-87523535D01*
X143561794Y-87442808D01*
X143540609Y-87419279D01*
X143438429Y-87305797D01*
X143438428Y-87305796D01*
X143434007Y-87300886D01*
X143329259Y-87224782D01*
X143284848Y-87192515D01*
X143284847Y-87192514D01*
X143279506Y-87188634D01*
X143273478Y-87185950D01*
X143273476Y-87185949D01*
X143111073Y-87113643D01*
X143111072Y-87113643D01*
X143105042Y-87110958D01*
X142994950Y-87087557D01*
X142924698Y-87072624D01*
X142924693Y-87072624D01*
X142918241Y-87071252D01*
X142862349Y-87071252D01*
X142794228Y-87051250D01*
X142773254Y-87034347D01*
X142574298Y-86835391D01*
X142566758Y-86827105D01*
X142562646Y-86820626D01*
X142512994Y-86774000D01*
X142510153Y-86771246D01*
X142490416Y-86751509D01*
X142487219Y-86749029D01*
X142478197Y-86741324D01*
X142451746Y-86716485D01*
X142445967Y-86711058D01*
X142439021Y-86707239D01*
X142439018Y-86707237D01*
X142428212Y-86701296D01*
X142411693Y-86690445D01*
X142404375Y-86684769D01*
X142395687Y-86678030D01*
X142388418Y-86674885D01*
X142388414Y-86674882D01*
X142355109Y-86660470D01*
X142344459Y-86655253D01*
X142305706Y-86633949D01*
X142286083Y-86628911D01*
X142267380Y-86622507D01*
X142256066Y-86617611D01*
X142256065Y-86617611D01*
X142248791Y-86614463D01*
X142240968Y-86613224D01*
X142240958Y-86613221D01*
X142205122Y-86607545D01*
X142193502Y-86605139D01*
X142158357Y-86596116D01*
X142158356Y-86596116D01*
X142150676Y-86594144D01*
X142130422Y-86594144D01*
X142110711Y-86592593D01*
X142098532Y-86590664D01*
X142090703Y-86589424D01*
X142054228Y-86592872D01*
X142046685Y-86593585D01*
X142034827Y-86594144D01*
X141539948Y-86594144D01*
X141471827Y-86574142D01*
X141438012Y-86542205D01*
X141435448Y-86538676D01*
X141359027Y-86433491D01*
X141290907Y-86357634D01*
X141152932Y-86259036D01*
X141087327Y-86232196D01*
X141002748Y-86197593D01*
X141002744Y-86197592D01*
X140995976Y-86194823D01*
X140910131Y-86181303D01*
X140835691Y-86169579D01*
X140835688Y-86169579D01*
X140828457Y-86168440D01*
X140659363Y-86181303D01*
X140497761Y-86232721D01*
X140491818Y-86236173D01*
X140413502Y-86281663D01*
X140410699Y-86283291D01*
X140308375Y-86357634D01*
X139928060Y-86633949D01*
X139917891Y-86641337D01*
X139842033Y-86709457D01*
X139838024Y-86715066D01*
X139838024Y-86715067D01*
X139752041Y-86835391D01*
X139743436Y-86847432D01*
X139740665Y-86854206D01*
X139740663Y-86854209D01*
X139719495Y-86905951D01*
X139679223Y-87004388D01*
X139678084Y-87011617D01*
X139676817Y-87016156D01*
X139639231Y-87076388D01*
X139581657Y-87105516D01*
X139466500Y-87129994D01*
X139460470Y-87132679D01*
X139460469Y-87132679D01*
X139298066Y-87204985D01*
X139298064Y-87204986D01*
X139292036Y-87207670D01*
X139137535Y-87319922D01*
X139133114Y-87324832D01*
X139133113Y-87324833D01*
X139021740Y-87448526D01*
X139009748Y-87461844D01*
X138978059Y-87516731D01*
X138926678Y-87565723D01*
X138898994Y-87576093D01*
X138891410Y-87577956D01*
X138891408Y-87577957D01*
X138884030Y-87579769D01*
X138732060Y-87659216D01*
X138675369Y-87706366D01*
X138673321Y-87708414D01*
X138673310Y-87708424D01*
X138412229Y-87969505D01*
X138349917Y-88003531D01*
X138279102Y-87998466D01*
X138234039Y-87969505D01*
X137372281Y-87107747D01*
X137364741Y-87099461D01*
X137360629Y-87092982D01*
X137310977Y-87046356D01*
X137308136Y-87043602D01*
X137288399Y-87023865D01*
X137285202Y-87021385D01*
X137276180Y-87013680D01*
X137272669Y-87010383D01*
X137243950Y-86983414D01*
X137237004Y-86979595D01*
X137237001Y-86979593D01*
X137226195Y-86973652D01*
X137209676Y-86962801D01*
X137206611Y-86960424D01*
X137193670Y-86950386D01*
X137186401Y-86947241D01*
X137186397Y-86947238D01*
X137153092Y-86932826D01*
X137142442Y-86927609D01*
X137103689Y-86906305D01*
X137084066Y-86901267D01*
X137065363Y-86894863D01*
X137054049Y-86889967D01*
X137054048Y-86889967D01*
X137046774Y-86886819D01*
X137038951Y-86885580D01*
X137038941Y-86885577D01*
X137003105Y-86879901D01*
X136991485Y-86877495D01*
X136956340Y-86868472D01*
X136956339Y-86868472D01*
X136948659Y-86866500D01*
X136928405Y-86866500D01*
X136908694Y-86864949D01*
X136896515Y-86863020D01*
X136888686Y-86861780D01*
X136880794Y-86862526D01*
X136844668Y-86865941D01*
X136832810Y-86866500D01*
X134708200Y-86866500D01*
X134640079Y-86846498D01*
X134620853Y-86830157D01*
X134620580Y-86830460D01*
X134615668Y-86826037D01*
X134611253Y-86821134D01*
X134544535Y-86772660D01*
X134462094Y-86712763D01*
X134462093Y-86712762D01*
X134456752Y-86708882D01*
X134450724Y-86706198D01*
X134450722Y-86706197D01*
X134288319Y-86633891D01*
X134288318Y-86633891D01*
X134282288Y-86631206D01*
X134188887Y-86611353D01*
X134101944Y-86592872D01*
X134101939Y-86592872D01*
X134095487Y-86591500D01*
X133904513Y-86591500D01*
X133898061Y-86592872D01*
X133898056Y-86592872D01*
X133811113Y-86611353D01*
X133717712Y-86631206D01*
X133711682Y-86633891D01*
X133711681Y-86633891D01*
X133549278Y-86706197D01*
X133549276Y-86706198D01*
X133543248Y-86708882D01*
X133454507Y-86773357D01*
X133451974Y-86775197D01*
X133385107Y-86799055D01*
X133315955Y-86782975D01*
X133301383Y-86773357D01*
X133238771Y-86725486D01*
X133238770Y-86725485D01*
X133233348Y-86721340D01*
X133227165Y-86718457D01*
X133227162Y-86718455D01*
X133133718Y-86674882D01*
X133064296Y-86642510D01*
X132882260Y-86601820D01*
X132876537Y-86601500D01*
X132739404Y-86601500D01*
X132736008Y-86601869D01*
X132736007Y-86601869D01*
X132700944Y-86605678D01*
X132600563Y-86616583D01*
X132423777Y-86676078D01*
X132263891Y-86772147D01*
X132128364Y-86900308D01*
X132124529Y-86905951D01*
X132029110Y-87046357D01*
X132023520Y-87054582D01*
X132020988Y-87060911D01*
X132020987Y-87060914D01*
X132002237Y-87107793D01*
X131958368Y-87163614D01*
X131918842Y-87176256D01*
X131920498Y-87181896D01*
X131887876Y-87191475D01*
X131886671Y-87192865D01*
X131885000Y-87200548D01*
X131885000Y-88223000D01*
X131864998Y-88291121D01*
X131811342Y-88337614D01*
X131759000Y-88349000D01*
X131503000Y-88349000D01*
X131434879Y-88328998D01*
X131388386Y-88275342D01*
X131377000Y-88223000D01*
X131377000Y-87205115D01*
X131372525Y-87189876D01*
X131371135Y-87188671D01*
X131363452Y-87187000D01*
X131236698Y-87187000D01*
X131230138Y-87187344D01*
X131147670Y-87196011D01*
X131077832Y-87183239D01*
X131025985Y-87134736D01*
X131008500Y-87070701D01*
X131008500Y-83857655D01*
X131989858Y-83857655D01*
X132025104Y-84116638D01*
X132026412Y-84121124D01*
X132026412Y-84121126D01*
X132043845Y-84180934D01*
X132098243Y-84367567D01*
X132207668Y-84604928D01*
X132210231Y-84608837D01*
X132348410Y-84819596D01*
X132348414Y-84819601D01*
X132350976Y-84823509D01*
X132400345Y-84878822D01*
X132508586Y-85000095D01*
X132525018Y-85018506D01*
X132725970Y-85185637D01*
X132729973Y-85188066D01*
X132945422Y-85318804D01*
X132945426Y-85318806D01*
X132949419Y-85321229D01*
X133190455Y-85422303D01*
X133443783Y-85486641D01*
X133448434Y-85487109D01*
X133448438Y-85487110D01*
X133641308Y-85506531D01*
X133660867Y-85508500D01*
X133816354Y-85508500D01*
X133818679Y-85508327D01*
X133818685Y-85508327D01*
X134006000Y-85494407D01*
X134006004Y-85494406D01*
X134010652Y-85494061D01*
X134015200Y-85493032D01*
X134015206Y-85493031D01*
X134201601Y-85450853D01*
X134265577Y-85436377D01*
X134269931Y-85434684D01*
X134504824Y-85343340D01*
X134504827Y-85343339D01*
X134509177Y-85341647D01*
X134516757Y-85337315D01*
X134593196Y-85293626D01*
X134736098Y-85211951D01*
X134941357Y-85050138D01*
X135120443Y-84859763D01*
X135260417Y-84657993D01*
X135266759Y-84648851D01*
X135266761Y-84648848D01*
X135269424Y-84645009D01*
X135293699Y-84595785D01*
X135382960Y-84414781D01*
X135382961Y-84414778D01*
X135385025Y-84410593D01*
X135396367Y-84375162D01*
X135463280Y-84166123D01*
X135464707Y-84161665D01*
X135506721Y-83903693D01*
X135510142Y-83642345D01*
X135474896Y-83383362D01*
X135460473Y-83333877D01*
X135435004Y-83246498D01*
X135401757Y-83132433D01*
X135292332Y-82895072D01*
X135207190Y-82765209D01*
X135151590Y-82680404D01*
X135151586Y-82680399D01*
X135149024Y-82676491D01*
X134974982Y-82481494D01*
X134774030Y-82314363D01*
X134715632Y-82278926D01*
X134554578Y-82181196D01*
X134554574Y-82181194D01*
X134550581Y-82178771D01*
X134309545Y-82077697D01*
X134056217Y-82013359D01*
X134051566Y-82012891D01*
X134051562Y-82012890D01*
X133842271Y-81991816D01*
X133839133Y-81991500D01*
X133683646Y-81991500D01*
X133681321Y-81991673D01*
X133681315Y-81991673D01*
X133494000Y-82005593D01*
X133493996Y-82005594D01*
X133489348Y-82005939D01*
X133484800Y-82006968D01*
X133484794Y-82006969D01*
X133298399Y-82049147D01*
X133234423Y-82063623D01*
X133230071Y-82065315D01*
X133230069Y-82065316D01*
X132995176Y-82156660D01*
X132995173Y-82156661D01*
X132990823Y-82158353D01*
X132763902Y-82288049D01*
X132558643Y-82449862D01*
X132379557Y-82640237D01*
X132230576Y-82854991D01*
X132228510Y-82859181D01*
X132228508Y-82859184D01*
X132202044Y-82912849D01*
X132114975Y-83089407D01*
X132035293Y-83338335D01*
X131993279Y-83596307D01*
X131992786Y-83634003D01*
X131990037Y-83844018D01*
X131989858Y-83857655D01*
X131008500Y-83857655D01*
X131008500Y-82553250D01*
X131010246Y-82532345D01*
X131012770Y-82517344D01*
X131012770Y-82517341D01*
X131013576Y-82512552D01*
X131013729Y-82500000D01*
X131013040Y-82495186D01*
X131013039Y-82495176D01*
X131012157Y-82489017D01*
X131011206Y-82462172D01*
X131021563Y-82317355D01*
X131023039Y-82296718D01*
X131025596Y-82278934D01*
X131066999Y-82088607D01*
X131072063Y-82071359D01*
X131140136Y-81888850D01*
X131147604Y-81872498D01*
X131240952Y-81701542D01*
X131250672Y-81686418D01*
X131367402Y-81530486D01*
X131379175Y-81516900D01*
X131516900Y-81379175D01*
X131530486Y-81367402D01*
X131686418Y-81250672D01*
X131701542Y-81240952D01*
X131872498Y-81147604D01*
X131888850Y-81140136D01*
X132071359Y-81072063D01*
X132088608Y-81066999D01*
X132278936Y-81025596D01*
X132296715Y-81023039D01*
X132458605Y-81011460D01*
X132476565Y-81012207D01*
X132484845Y-81012308D01*
X132493724Y-81013691D01*
X132525286Y-81009564D01*
X132541621Y-81008500D01*
X167450633Y-81008500D01*
X167470018Y-81010000D01*
G37*
%TD.AperFunction*%
%TA.AperFunction,Conductor*%
G36*
X143859921Y-104653502D02*
G01*
X143879147Y-104669843D01*
X143879420Y-104669540D01*
X143884332Y-104673963D01*
X143888747Y-104678866D01*
X143894086Y-104682745D01*
X144020618Y-104774676D01*
X144043248Y-104791118D01*
X144049276Y-104793802D01*
X144049278Y-104793803D01*
X144202194Y-104861885D01*
X144217712Y-104868794D01*
X144290977Y-104884367D01*
X144398056Y-104907128D01*
X144398061Y-104907128D01*
X144404513Y-104908500D01*
X144460406Y-104908500D01*
X144528527Y-104928502D01*
X144549501Y-104945405D01*
X147996343Y-108392247D01*
X148003887Y-108400537D01*
X148008000Y-108407018D01*
X148013777Y-108412443D01*
X148057667Y-108453658D01*
X148060509Y-108456413D01*
X148080230Y-108476134D01*
X148083425Y-108478612D01*
X148092447Y-108486318D01*
X148124679Y-108516586D01*
X148131628Y-108520406D01*
X148142432Y-108526346D01*
X148158956Y-108537199D01*
X148174959Y-108549613D01*
X148215543Y-108567176D01*
X148226173Y-108572383D01*
X148264940Y-108593695D01*
X148272617Y-108595666D01*
X148272622Y-108595668D01*
X148284558Y-108598732D01*
X148303266Y-108605137D01*
X148321855Y-108613181D01*
X148329683Y-108614421D01*
X148329690Y-108614423D01*
X148365524Y-108620099D01*
X148377144Y-108622505D01*
X148412289Y-108631528D01*
X148419970Y-108633500D01*
X148440224Y-108633500D01*
X148459934Y-108635051D01*
X148479943Y-108638220D01*
X148487835Y-108637474D01*
X148523961Y-108634059D01*
X148535819Y-108633500D01*
X149791800Y-108633500D01*
X149859921Y-108653502D01*
X149879147Y-108669843D01*
X149879420Y-108669540D01*
X149884332Y-108673963D01*
X149888747Y-108678866D01*
X150043248Y-108791118D01*
X150049281Y-108793804D01*
X150079910Y-108807441D01*
X150134006Y-108853420D01*
X150154656Y-108921347D01*
X150135304Y-108989656D01*
X150117757Y-109011643D01*
X148999805Y-110129595D01*
X148937493Y-110163621D01*
X148910710Y-110166500D01*
X146778763Y-110166500D01*
X146767579Y-110165973D01*
X146760091Y-110164299D01*
X146752168Y-110164548D01*
X146692033Y-110166438D01*
X146688075Y-110166500D01*
X146660144Y-110166500D01*
X146656229Y-110166995D01*
X146656225Y-110166995D01*
X146656167Y-110167003D01*
X146656138Y-110167006D01*
X146644296Y-110167939D01*
X146600110Y-110169327D01*
X146582744Y-110174372D01*
X146580658Y-110174978D01*
X146561306Y-110178986D01*
X146549068Y-110180532D01*
X146549066Y-110180533D01*
X146541203Y-110181526D01*
X146500086Y-110197806D01*
X146488885Y-110201641D01*
X146446406Y-110213982D01*
X146439587Y-110218015D01*
X146439582Y-110218017D01*
X146428971Y-110224293D01*
X146411221Y-110232990D01*
X146392383Y-110240448D01*
X146385967Y-110245109D01*
X146385966Y-110245110D01*
X146356625Y-110266428D01*
X146346701Y-110272947D01*
X146315460Y-110291422D01*
X146315455Y-110291426D01*
X146308637Y-110295458D01*
X146294313Y-110309782D01*
X146279281Y-110322621D01*
X146262893Y-110334528D01*
X146238509Y-110364003D01*
X146234712Y-110368593D01*
X146226722Y-110377373D01*
X146049500Y-110554595D01*
X145987188Y-110588621D01*
X145960405Y-110591500D01*
X145904513Y-110591500D01*
X145898061Y-110592872D01*
X145898056Y-110592872D01*
X145811113Y-110611353D01*
X145717712Y-110631206D01*
X145711682Y-110633891D01*
X145711681Y-110633891D01*
X145549278Y-110706197D01*
X145549276Y-110706198D01*
X145543248Y-110708882D01*
X145388747Y-110821134D01*
X145384326Y-110826044D01*
X145384325Y-110826045D01*
X145368311Y-110843831D01*
X145260960Y-110963056D01*
X145165473Y-111128444D01*
X145163433Y-111134723D01*
X145163431Y-111134727D01*
X145160559Y-111143566D01*
X145120483Y-111202170D01*
X145055086Y-111229805D01*
X144984225Y-111217247D01*
X144502366Y-110975499D01*
X143954889Y-110700831D01*
X143944001Y-110694672D01*
X143117807Y-110171540D01*
X142922524Y-110047890D01*
X142900369Y-110030064D01*
X142882613Y-110012121D01*
X142882607Y-110012116D01*
X142877269Y-110006722D01*
X142870800Y-110002758D01*
X142870798Y-110002756D01*
X142844550Y-109986671D01*
X142832745Y-109978475D01*
X141959587Y-109295316D01*
X141950117Y-109287116D01*
X141355671Y-108718295D01*
X141076359Y-108451023D01*
X141067753Y-108441926D01*
X141051186Y-108422572D01*
X140300343Y-107545418D01*
X140287947Y-107528187D01*
X140283933Y-107521480D01*
X140280034Y-107514965D01*
X140274693Y-107509567D01*
X140274690Y-107509564D01*
X140240577Y-107475092D01*
X140234415Y-107468398D01*
X140228838Y-107461883D01*
X140228836Y-107461881D01*
X140226370Y-107459000D01*
X140209937Y-107443922D01*
X140205593Y-107439740D01*
X140159413Y-107393074D01*
X140152938Y-107389106D01*
X140146983Y-107384386D01*
X140147016Y-107384344D01*
X140143733Y-107381868D01*
X140143701Y-107381913D01*
X140137531Y-107377490D01*
X140131930Y-107372351D01*
X140074365Y-107340787D01*
X140069187Y-107337783D01*
X140013199Y-107303474D01*
X140005959Y-107301163D01*
X139999056Y-107298003D01*
X139999080Y-107297951D01*
X139995300Y-107296330D01*
X139995279Y-107296382D01*
X139988226Y-107293556D01*
X139981566Y-107289904D01*
X139974226Y-107287946D01*
X139967176Y-107285121D01*
X139968278Y-107282371D01*
X139919303Y-107252605D01*
X139888200Y-107188784D01*
X139896539Y-107118279D01*
X139923334Y-107078636D01*
X141307407Y-105694563D01*
X141369719Y-105660537D01*
X141404513Y-105658631D01*
X141404513Y-105658500D01*
X141595487Y-105658500D01*
X141601939Y-105657128D01*
X141601944Y-105657128D01*
X141688888Y-105638647D01*
X141782288Y-105618794D01*
X141930770Y-105552686D01*
X141950722Y-105543803D01*
X141950724Y-105543802D01*
X141956752Y-105541118D01*
X142111253Y-105428866D01*
X142118833Y-105420448D01*
X142234621Y-105291852D01*
X142234622Y-105291851D01*
X142239040Y-105286944D01*
X142334527Y-105121556D01*
X142393542Y-104939928D01*
X142396990Y-104907128D01*
X142413504Y-104750000D01*
X142415541Y-104750214D01*
X142432816Y-104691379D01*
X142486472Y-104644886D01*
X142538814Y-104633500D01*
X143791800Y-104633500D01*
X143859921Y-104653502D01*
G37*
%TD.AperFunction*%
%TA.AperFunction,Conductor*%
G36*
X152078393Y-106796074D02*
G01*
X152113250Y-106857925D01*
X152116500Y-106886356D01*
X152116500Y-106960711D01*
X152096498Y-107028832D01*
X152079595Y-107049806D01*
X151511556Y-107617845D01*
X151449244Y-107651871D01*
X151378429Y-107646806D01*
X151321593Y-107604259D01*
X151313342Y-107591750D01*
X151257794Y-107495539D01*
X151241056Y-107426544D01*
X151264276Y-107359452D01*
X151305731Y-107322390D01*
X151416101Y-107261085D01*
X151423726Y-107256095D01*
X151630809Y-107098054D01*
X151637636Y-107092014D01*
X151819735Y-106905736D01*
X151825618Y-106898774D01*
X151888629Y-106812206D01*
X151944889Y-106768901D01*
X152015631Y-106762888D01*
X152078393Y-106796074D01*
G37*
%TD.AperFunction*%
%TD*%
M02*
