%TF.GenerationSoftware,KiCad,Pcbnew,6.0.9-8da3e8f707~117~ubuntu22.04.1*%
%TF.CreationDate,2022-12-08T12:31:12-05:00*%
%TF.ProjectId,kicad_circular_tracks_test,6b696361-645f-4636-9972-63756c61725f,rev?*%
%TF.SameCoordinates,Original*%
%TF.FileFunction,Paste,Bot*%
%TF.FilePolarity,Positive*%
%FSLAX46Y46*%
G04 Gerber Fmt 4.6, Leading zero omitted, Abs format (unit mm)*
G04 Created by KiCad (PCBNEW 6.0.9-8da3e8f707~117~ubuntu22.04.1) date 2022-12-08 12:31:12*
%MOMM*%
%LPD*%
G01*
G04 APERTURE LIST*
G04 Aperture macros list*
%AMRoundRect*
0 Rectangle with rounded corners*
0 $1 Rounding radius*
0 $2 $3 $4 $5 $6 $7 $8 $9 X,Y pos of 4 corners*
0 Add a 4 corners polygon primitive as box body*
4,1,4,$2,$3,$4,$5,$6,$7,$8,$9,$2,$3,0*
0 Add four circle primitives for the rounded corners*
1,1,$1+$1,$2,$3*
1,1,$1+$1,$4,$5*
1,1,$1+$1,$6,$7*
1,1,$1+$1,$8,$9*
0 Add four rect primitives between the rounded corners*
20,1,$1+$1,$2,$3,$4,$5,0*
20,1,$1+$1,$4,$5,$6,$7,0*
20,1,$1+$1,$6,$7,$8,$9,0*
20,1,$1+$1,$8,$9,$2,$3,0*%
G04 Aperture macros list end*
%ADD10RoundRect,0.200000X-0.200000X-0.275000X0.200000X-0.275000X0.200000X0.275000X-0.200000X0.275000X0*%
%ADD11RoundRect,0.200000X0.275000X-0.200000X0.275000X0.200000X-0.275000X0.200000X-0.275000X-0.200000X0*%
%ADD12RoundRect,0.225000X-0.250000X0.225000X-0.250000X-0.225000X0.250000X-0.225000X0.250000X0.225000X0*%
%ADD13RoundRect,0.200000X-0.275000X0.200000X-0.275000X-0.200000X0.275000X-0.200000X0.275000X0.200000X0*%
%ADD14RoundRect,0.250000X0.275000X0.275000X-0.275000X0.275000X-0.275000X-0.275000X0.275000X-0.275000X0*%
%ADD15RoundRect,0.062500X0.350000X0.062500X-0.350000X0.062500X-0.350000X-0.062500X0.350000X-0.062500X0*%
%ADD16RoundRect,0.062500X0.062500X0.350000X-0.062500X0.350000X-0.062500X-0.350000X0.062500X-0.350000X0*%
%ADD17RoundRect,0.225000X0.225000X0.250000X-0.225000X0.250000X-0.225000X-0.250000X0.225000X-0.250000X0*%
%ADD18RoundRect,0.200000X0.200000X0.275000X-0.200000X0.275000X-0.200000X-0.275000X0.200000X-0.275000X0*%
%ADD19RoundRect,0.225000X0.250000X-0.225000X0.250000X0.225000X-0.250000X0.225000X-0.250000X-0.225000X0*%
%ADD20RoundRect,0.250000X0.475000X-0.250000X0.475000X0.250000X-0.475000X0.250000X-0.475000X-0.250000X0*%
G04 APERTURE END LIST*
D10*
%TO.C,R12*%
X144600000Y-98000000D03*
X146250000Y-98000000D03*
%TD*%
D11*
%TO.C,R14*%
X159250000Y-95325000D03*
X159250000Y-93675000D03*
%TD*%
D12*
%TO.C,C4*%
X160100000Y-100500000D03*
X160100000Y-102050000D03*
%TD*%
D13*
%TO.C,R10*%
X160100000Y-97475000D03*
X160100000Y-99125000D03*
%TD*%
D14*
%TO.C,U1*%
X150650000Y-100650000D03*
X150650000Y-99350000D03*
X149350000Y-99350000D03*
X149350000Y-100650000D03*
D15*
X151937500Y-98750000D03*
X151937500Y-99250000D03*
X151937500Y-99750000D03*
X151937500Y-100250000D03*
X151937500Y-100750000D03*
X151937500Y-101250000D03*
D16*
X151250000Y-101937500D03*
X150750000Y-101937500D03*
X150250000Y-101937500D03*
X149750000Y-101937500D03*
X149250000Y-101937500D03*
X148750000Y-101937500D03*
D15*
X148062500Y-101250000D03*
X148062500Y-100750000D03*
X148062500Y-100250000D03*
X148062500Y-99750000D03*
X148062500Y-99250000D03*
X148062500Y-98750000D03*
D16*
X148750000Y-98062500D03*
X149250000Y-98062500D03*
X149750000Y-98062500D03*
X150250000Y-98062500D03*
X150750000Y-98062500D03*
X151250000Y-98062500D03*
%TD*%
D17*
%TO.C,C6*%
X146175000Y-94400000D03*
X144625000Y-94400000D03*
%TD*%
D10*
%TO.C,R7*%
X135175000Y-117500000D03*
X136825000Y-117500000D03*
%TD*%
D12*
%TO.C,C3*%
X152908000Y-104381000D03*
X152908000Y-105931000D03*
%TD*%
D10*
%TO.C,R11*%
X144550000Y-99600000D03*
X146200000Y-99600000D03*
%TD*%
%TO.C,R6*%
X144600000Y-96400000D03*
X146250000Y-96400000D03*
%TD*%
D18*
%TO.C,R9*%
X156273000Y-104140000D03*
X154623000Y-104140000D03*
%TD*%
D19*
%TO.C,C1*%
X153900000Y-97675000D03*
X153900000Y-96125000D03*
%TD*%
D13*
%TO.C,R13*%
X157750000Y-93675000D03*
X157750000Y-95325000D03*
%TD*%
D17*
%TO.C,C5*%
X146175000Y-101100000D03*
X144625000Y-101100000D03*
%TD*%
D10*
%TO.C,R8*%
X135175000Y-115900000D03*
X136825000Y-115900000D03*
%TD*%
D20*
%TO.C,C2*%
X155700000Y-97650000D03*
X155700000Y-95750000D03*
%TD*%
M02*
