%TF.GenerationSoftware,KiCad,Pcbnew,6.0.9-8da3e8f707~117~ubuntu22.04.1*%
%TF.CreationDate,2022-12-08T12:56:37-05:00*%
%TF.ProjectId,rotary_input_board,726f7461-7279-45f6-996e-7075745f626f,rev?*%
%TF.SameCoordinates,Original*%
%TF.FileFunction,Legend,Bot*%
%TF.FilePolarity,Positive*%
%FSLAX46Y46*%
G04 Gerber Fmt 4.6, Leading zero omitted, Abs format (unit mm)*
G04 Created by KiCad (PCBNEW 6.0.9-8da3e8f707~117~ubuntu22.04.1) date 2022-12-08 12:56:37*
%MOMM*%
%LPD*%
G01*
G04 APERTURE LIST*
%ADD10C,0.150000*%
%ADD11C,0.120000*%
%ADD12C,0.010000*%
G04 APERTURE END LIST*
D10*
X163219047Y-117452380D02*
X163219047Y-118166666D01*
X163266666Y-118309523D01*
X163361904Y-118404761D01*
X163504761Y-118452380D01*
X163600000Y-118452380D01*
X162266666Y-118452380D02*
X162742857Y-118452380D01*
X162742857Y-117452380D01*
X161361904Y-118357142D02*
X161409523Y-118404761D01*
X161552380Y-118452380D01*
X161647619Y-118452380D01*
X161790476Y-118404761D01*
X161885714Y-118309523D01*
X161933333Y-118214285D01*
X161980952Y-118023809D01*
X161980952Y-117880952D01*
X161933333Y-117690476D01*
X161885714Y-117595238D01*
X161790476Y-117500000D01*
X161647619Y-117452380D01*
X161552380Y-117452380D01*
X161409523Y-117500000D01*
X161361904Y-117547619D01*
X160647619Y-117452380D02*
X160647619Y-118166666D01*
X160695238Y-118309523D01*
X160790476Y-118404761D01*
X160933333Y-118452380D01*
X161028571Y-118452380D01*
X159695238Y-118452380D02*
X160171428Y-118452380D01*
X160171428Y-117452380D01*
X158790476Y-118357142D02*
X158838095Y-118404761D01*
X158980952Y-118452380D01*
X159076190Y-118452380D01*
X159219047Y-118404761D01*
X159314285Y-118309523D01*
X159361904Y-118214285D01*
X159409523Y-118023809D01*
X159409523Y-117880952D01*
X159361904Y-117690476D01*
X159314285Y-117595238D01*
X159219047Y-117500000D01*
X159076190Y-117452380D01*
X158980952Y-117452380D01*
X158838095Y-117500000D01*
X158790476Y-117547619D01*
X158076190Y-117452380D02*
X158076190Y-118166666D01*
X158123809Y-118309523D01*
X158219047Y-118404761D01*
X158361904Y-118452380D01*
X158457142Y-118452380D01*
X157123809Y-118452380D02*
X157600000Y-118452380D01*
X157600000Y-117452380D01*
X156219047Y-118357142D02*
X156266666Y-118404761D01*
X156409523Y-118452380D01*
X156504761Y-118452380D01*
X156647619Y-118404761D01*
X156742857Y-118309523D01*
X156790476Y-118214285D01*
X156838095Y-118023809D01*
X156838095Y-117880952D01*
X156790476Y-117690476D01*
X156742857Y-117595238D01*
X156647619Y-117500000D01*
X156504761Y-117452380D01*
X156409523Y-117452380D01*
X156266666Y-117500000D01*
X156219047Y-117547619D01*
X155504761Y-117452380D02*
X155504761Y-118166666D01*
X155552380Y-118309523D01*
X155647619Y-118404761D01*
X155790476Y-118452380D01*
X155885714Y-118452380D01*
X154552380Y-118452380D02*
X155028571Y-118452380D01*
X155028571Y-117452380D01*
X153647619Y-118357142D02*
X153695238Y-118404761D01*
X153838095Y-118452380D01*
X153933333Y-118452380D01*
X154076190Y-118404761D01*
X154171428Y-118309523D01*
X154219047Y-118214285D01*
X154266666Y-118023809D01*
X154266666Y-117880952D01*
X154219047Y-117690476D01*
X154171428Y-117595238D01*
X154076190Y-117500000D01*
X153933333Y-117452380D01*
X153838095Y-117452380D01*
X153695238Y-117500000D01*
X153647619Y-117547619D01*
D11*
X139700000Y-114808000D02*
X134112000Y-114808000D01*
X134112000Y-114808000D02*
X134112000Y-118618000D01*
X134112000Y-118618000D02*
X139700000Y-118618000D01*
X139700000Y-118618000D02*
X139700000Y-114808000D01*
D10*
X142454190Y-116397380D02*
X142454190Y-115397380D01*
X142025619Y-115492619D02*
X141978000Y-115445000D01*
X141882761Y-115397380D01*
X141644666Y-115397380D01*
X141549428Y-115445000D01*
X141501809Y-115492619D01*
X141454190Y-115587857D01*
X141454190Y-115683095D01*
X141501809Y-115825952D01*
X142073238Y-116397380D01*
X141454190Y-116397380D01*
X140454190Y-116302142D02*
X140501809Y-116349761D01*
X140644666Y-116397380D01*
X140739904Y-116397380D01*
X140882761Y-116349761D01*
X140978000Y-116254523D01*
X141025619Y-116159285D01*
X141073238Y-115968809D01*
X141073238Y-115825952D01*
X141025619Y-115635476D01*
X140978000Y-115540238D01*
X140882761Y-115445000D01*
X140739904Y-115397380D01*
X140644666Y-115397380D01*
X140501809Y-115445000D01*
X140454190Y-115492619D01*
X143168476Y-117007380D02*
X142597047Y-117007380D01*
X142882761Y-118007380D02*
X142882761Y-117007380D01*
X141882761Y-117959761D02*
X141978000Y-118007380D01*
X142168476Y-118007380D01*
X142263714Y-117959761D01*
X142311333Y-117864523D01*
X142311333Y-117483571D01*
X142263714Y-117388333D01*
X142168476Y-117340714D01*
X141978000Y-117340714D01*
X141882761Y-117388333D01*
X141835142Y-117483571D01*
X141835142Y-117578809D01*
X142311333Y-117674047D01*
X141406571Y-118007380D02*
X141406571Y-117340714D01*
X141406571Y-117531190D02*
X141358952Y-117435952D01*
X141311333Y-117388333D01*
X141216095Y-117340714D01*
X141120857Y-117340714D01*
X140787523Y-118007380D02*
X140787523Y-117340714D01*
X140787523Y-117435952D02*
X140739904Y-117388333D01*
X140644666Y-117340714D01*
X140501809Y-117340714D01*
X140406571Y-117388333D01*
X140358952Y-117483571D01*
X140358952Y-118007380D01*
X140358952Y-117483571D02*
X140311333Y-117388333D01*
X140216095Y-117340714D01*
X140073238Y-117340714D01*
X139978000Y-117388333D01*
X139930380Y-117483571D01*
X139930380Y-118007380D01*
%TO.C,R12*%
X141358857Y-98652380D02*
X141692190Y-98176190D01*
X141930285Y-98652380D02*
X141930285Y-97652380D01*
X141549333Y-97652380D01*
X141454095Y-97700000D01*
X141406476Y-97747619D01*
X141358857Y-97842857D01*
X141358857Y-97985714D01*
X141406476Y-98080952D01*
X141454095Y-98128571D01*
X141549333Y-98176190D01*
X141930285Y-98176190D01*
X140406476Y-98652380D02*
X140977904Y-98652380D01*
X140692190Y-98652380D02*
X140692190Y-97652380D01*
X140787428Y-97795238D01*
X140882666Y-97890476D01*
X140977904Y-97938095D01*
X140025523Y-97747619D02*
X139977904Y-97700000D01*
X139882666Y-97652380D01*
X139644571Y-97652380D01*
X139549333Y-97700000D01*
X139501714Y-97747619D01*
X139454095Y-97842857D01*
X139454095Y-97938095D01*
X139501714Y-98080952D01*
X140073142Y-98652380D01*
X139454095Y-98652380D01*
%TO.C,R14*%
X159702380Y-90857142D02*
X159226190Y-90523809D01*
X159702380Y-90285714D02*
X158702380Y-90285714D01*
X158702380Y-90666666D01*
X158750000Y-90761904D01*
X158797619Y-90809523D01*
X158892857Y-90857142D01*
X159035714Y-90857142D01*
X159130952Y-90809523D01*
X159178571Y-90761904D01*
X159226190Y-90666666D01*
X159226190Y-90285714D01*
X159702380Y-91809523D02*
X159702380Y-91238095D01*
X159702380Y-91523809D02*
X158702380Y-91523809D01*
X158845238Y-91428571D01*
X158940476Y-91333333D01*
X158988095Y-91238095D01*
X159035714Y-92666666D02*
X159702380Y-92666666D01*
X158654761Y-92428571D02*
X159369047Y-92190476D01*
X159369047Y-92809523D01*
%TO.C,C4*%
X160266666Y-103957142D02*
X160314285Y-104004761D01*
X160457142Y-104052380D01*
X160552380Y-104052380D01*
X160695238Y-104004761D01*
X160790476Y-103909523D01*
X160838095Y-103814285D01*
X160885714Y-103623809D01*
X160885714Y-103480952D01*
X160838095Y-103290476D01*
X160790476Y-103195238D01*
X160695238Y-103100000D01*
X160552380Y-103052380D01*
X160457142Y-103052380D01*
X160314285Y-103100000D01*
X160266666Y-103147619D01*
X159409523Y-103385714D02*
X159409523Y-104052380D01*
X159647619Y-103004761D02*
X159885714Y-103719047D01*
X159266666Y-103719047D01*
%TO.C,R10*%
X162052380Y-97657142D02*
X161576190Y-97323809D01*
X162052380Y-97085714D02*
X161052380Y-97085714D01*
X161052380Y-97466666D01*
X161100000Y-97561904D01*
X161147619Y-97609523D01*
X161242857Y-97657142D01*
X161385714Y-97657142D01*
X161480952Y-97609523D01*
X161528571Y-97561904D01*
X161576190Y-97466666D01*
X161576190Y-97085714D01*
X162052380Y-98609523D02*
X162052380Y-98038095D01*
X162052380Y-98323809D02*
X161052380Y-98323809D01*
X161195238Y-98228571D01*
X161290476Y-98133333D01*
X161338095Y-98038095D01*
X161052380Y-99228571D02*
X161052380Y-99323809D01*
X161100000Y-99419047D01*
X161147619Y-99466666D01*
X161242857Y-99514285D01*
X161433333Y-99561904D01*
X161671428Y-99561904D01*
X161861904Y-99514285D01*
X161957142Y-99466666D01*
X162004761Y-99419047D01*
X162052380Y-99323809D01*
X162052380Y-99228571D01*
X162004761Y-99133333D01*
X161957142Y-99085714D01*
X161861904Y-99038095D01*
X161671428Y-98990476D01*
X161433333Y-98990476D01*
X161242857Y-99038095D01*
X161147619Y-99085714D01*
X161100000Y-99133333D01*
X161052380Y-99228571D01*
%TO.C,U1*%
X150761904Y-96152380D02*
X150761904Y-96961904D01*
X150714285Y-97057142D01*
X150666666Y-97104761D01*
X150571428Y-97152380D01*
X150380952Y-97152380D01*
X150285714Y-97104761D01*
X150238095Y-97057142D01*
X150190476Y-96961904D01*
X150190476Y-96152380D01*
X149190476Y-97152380D02*
X149761904Y-97152380D01*
X149476190Y-97152380D02*
X149476190Y-96152380D01*
X149571428Y-96295238D01*
X149666666Y-96390476D01*
X149761904Y-96438095D01*
%TO.C,C6*%
X141390666Y-94857142D02*
X141438285Y-94904761D01*
X141581142Y-94952380D01*
X141676380Y-94952380D01*
X141819238Y-94904761D01*
X141914476Y-94809523D01*
X141962095Y-94714285D01*
X142009714Y-94523809D01*
X142009714Y-94380952D01*
X141962095Y-94190476D01*
X141914476Y-94095238D01*
X141819238Y-94000000D01*
X141676380Y-93952380D01*
X141581142Y-93952380D01*
X141438285Y-94000000D01*
X141390666Y-94047619D01*
X140533523Y-93952380D02*
X140724000Y-93952380D01*
X140819238Y-94000000D01*
X140866857Y-94047619D01*
X140962095Y-94190476D01*
X141009714Y-94380952D01*
X141009714Y-94761904D01*
X140962095Y-94857142D01*
X140914476Y-94904761D01*
X140819238Y-94952380D01*
X140628761Y-94952380D01*
X140533523Y-94904761D01*
X140485904Y-94857142D01*
X140438285Y-94761904D01*
X140438285Y-94523809D01*
X140485904Y-94428571D01*
X140533523Y-94380952D01*
X140628761Y-94333333D01*
X140819238Y-94333333D01*
X140914476Y-94380952D01*
X140962095Y-94428571D01*
X141009714Y-94523809D01*
%TO.C,R7*%
X138591666Y-118052380D02*
X138925000Y-117576190D01*
X139163095Y-118052380D02*
X139163095Y-117052380D01*
X138782142Y-117052380D01*
X138686904Y-117100000D01*
X138639285Y-117147619D01*
X138591666Y-117242857D01*
X138591666Y-117385714D01*
X138639285Y-117480952D01*
X138686904Y-117528571D01*
X138782142Y-117576190D01*
X139163095Y-117576190D01*
X138258333Y-117052380D02*
X137591666Y-117052380D01*
X138020238Y-118052380D01*
%TO.C,C3*%
X153265142Y-107529333D02*
X153312761Y-107481714D01*
X153360380Y-107338857D01*
X153360380Y-107243619D01*
X153312761Y-107100761D01*
X153217523Y-107005523D01*
X153122285Y-106957904D01*
X152931809Y-106910285D01*
X152788952Y-106910285D01*
X152598476Y-106957904D01*
X152503238Y-107005523D01*
X152408000Y-107100761D01*
X152360380Y-107243619D01*
X152360380Y-107338857D01*
X152408000Y-107481714D01*
X152455619Y-107529333D01*
X152360380Y-107862666D02*
X152360380Y-108481714D01*
X152741333Y-108148380D01*
X152741333Y-108291238D01*
X152788952Y-108386476D01*
X152836571Y-108434095D01*
X152931809Y-108481714D01*
X153169904Y-108481714D01*
X153265142Y-108434095D01*
X153312761Y-108386476D01*
X153360380Y-108291238D01*
X153360380Y-108005523D01*
X153312761Y-107910285D01*
X153265142Y-107862666D01*
%TO.C,R11*%
X141358857Y-100052380D02*
X141692190Y-99576190D01*
X141930285Y-100052380D02*
X141930285Y-99052380D01*
X141549333Y-99052380D01*
X141454095Y-99100000D01*
X141406476Y-99147619D01*
X141358857Y-99242857D01*
X141358857Y-99385714D01*
X141406476Y-99480952D01*
X141454095Y-99528571D01*
X141549333Y-99576190D01*
X141930285Y-99576190D01*
X140406476Y-100052380D02*
X140977904Y-100052380D01*
X140692190Y-100052380D02*
X140692190Y-99052380D01*
X140787428Y-99195238D01*
X140882666Y-99290476D01*
X140977904Y-99338095D01*
X139454095Y-100052380D02*
X140025523Y-100052380D01*
X139739809Y-100052380D02*
X139739809Y-99052380D01*
X139835047Y-99195238D01*
X139930285Y-99290476D01*
X140025523Y-99338095D01*
%TO.C,R6*%
X141366666Y-96852380D02*
X141700000Y-96376190D01*
X141938095Y-96852380D02*
X141938095Y-95852380D01*
X141557142Y-95852380D01*
X141461904Y-95900000D01*
X141414285Y-95947619D01*
X141366666Y-96042857D01*
X141366666Y-96185714D01*
X141414285Y-96280952D01*
X141461904Y-96328571D01*
X141557142Y-96376190D01*
X141938095Y-96376190D01*
X140509523Y-95852380D02*
X140700000Y-95852380D01*
X140795238Y-95900000D01*
X140842857Y-95947619D01*
X140938095Y-96090476D01*
X140985714Y-96280952D01*
X140985714Y-96661904D01*
X140938095Y-96757142D01*
X140890476Y-96804761D01*
X140795238Y-96852380D01*
X140604761Y-96852380D01*
X140509523Y-96804761D01*
X140461904Y-96757142D01*
X140414285Y-96661904D01*
X140414285Y-96423809D01*
X140461904Y-96328571D01*
X140509523Y-96280952D01*
X140604761Y-96233333D01*
X140795238Y-96233333D01*
X140890476Y-96280952D01*
X140938095Y-96328571D01*
X140985714Y-96423809D01*
%TO.C,R9*%
X155614666Y-106116380D02*
X155948000Y-105640190D01*
X156186095Y-106116380D02*
X156186095Y-105116380D01*
X155805142Y-105116380D01*
X155709904Y-105164000D01*
X155662285Y-105211619D01*
X155614666Y-105306857D01*
X155614666Y-105449714D01*
X155662285Y-105544952D01*
X155709904Y-105592571D01*
X155805142Y-105640190D01*
X156186095Y-105640190D01*
X155138476Y-106116380D02*
X154948000Y-106116380D01*
X154852761Y-106068761D01*
X154805142Y-106021142D01*
X154709904Y-105878285D01*
X154662285Y-105687809D01*
X154662285Y-105306857D01*
X154709904Y-105211619D01*
X154757523Y-105164000D01*
X154852761Y-105116380D01*
X155043238Y-105116380D01*
X155138476Y-105164000D01*
X155186095Y-105211619D01*
X155233714Y-105306857D01*
X155233714Y-105544952D01*
X155186095Y-105640190D01*
X155138476Y-105687809D01*
X155043238Y-105735428D01*
X154852761Y-105735428D01*
X154757523Y-105687809D01*
X154709904Y-105640190D01*
X154662285Y-105544952D01*
%TO.C,C1*%
X154257142Y-94083333D02*
X154304761Y-94035714D01*
X154352380Y-93892857D01*
X154352380Y-93797619D01*
X154304761Y-93654761D01*
X154209523Y-93559523D01*
X154114285Y-93511904D01*
X153923809Y-93464285D01*
X153780952Y-93464285D01*
X153590476Y-93511904D01*
X153495238Y-93559523D01*
X153400000Y-93654761D01*
X153352380Y-93797619D01*
X153352380Y-93892857D01*
X153400000Y-94035714D01*
X153447619Y-94083333D01*
X154352380Y-95035714D02*
X154352380Y-94464285D01*
X154352380Y-94750000D02*
X153352380Y-94750000D01*
X153495238Y-94654761D01*
X153590476Y-94559523D01*
X153638095Y-94464285D01*
%TO.C,R13*%
X158202380Y-90857142D02*
X157726190Y-90523809D01*
X158202380Y-90285714D02*
X157202380Y-90285714D01*
X157202380Y-90666666D01*
X157250000Y-90761904D01*
X157297619Y-90809523D01*
X157392857Y-90857142D01*
X157535714Y-90857142D01*
X157630952Y-90809523D01*
X157678571Y-90761904D01*
X157726190Y-90666666D01*
X157726190Y-90285714D01*
X158202380Y-91809523D02*
X158202380Y-91238095D01*
X158202380Y-91523809D02*
X157202380Y-91523809D01*
X157345238Y-91428571D01*
X157440476Y-91333333D01*
X157488095Y-91238095D01*
X157202380Y-92142857D02*
X157202380Y-92761904D01*
X157583333Y-92428571D01*
X157583333Y-92571428D01*
X157630952Y-92666666D01*
X157678571Y-92714285D01*
X157773809Y-92761904D01*
X158011904Y-92761904D01*
X158107142Y-92714285D01*
X158154761Y-92666666D01*
X158202380Y-92571428D01*
X158202380Y-92285714D01*
X158154761Y-92190476D01*
X158107142Y-92142857D01*
%TO.C,C5*%
X141390666Y-101449142D02*
X141438285Y-101496761D01*
X141581142Y-101544380D01*
X141676380Y-101544380D01*
X141819238Y-101496761D01*
X141914476Y-101401523D01*
X141962095Y-101306285D01*
X142009714Y-101115809D01*
X142009714Y-100972952D01*
X141962095Y-100782476D01*
X141914476Y-100687238D01*
X141819238Y-100592000D01*
X141676380Y-100544380D01*
X141581142Y-100544380D01*
X141438285Y-100592000D01*
X141390666Y-100639619D01*
X140485904Y-100544380D02*
X140962095Y-100544380D01*
X141009714Y-101020571D01*
X140962095Y-100972952D01*
X140866857Y-100925333D01*
X140628761Y-100925333D01*
X140533523Y-100972952D01*
X140485904Y-101020571D01*
X140438285Y-101115809D01*
X140438285Y-101353904D01*
X140485904Y-101449142D01*
X140533523Y-101496761D01*
X140628761Y-101544380D01*
X140866857Y-101544380D01*
X140962095Y-101496761D01*
X141009714Y-101449142D01*
%TO.C,R8*%
X138591666Y-116352380D02*
X138925000Y-115876190D01*
X139163095Y-116352380D02*
X139163095Y-115352380D01*
X138782142Y-115352380D01*
X138686904Y-115400000D01*
X138639285Y-115447619D01*
X138591666Y-115542857D01*
X138591666Y-115685714D01*
X138639285Y-115780952D01*
X138686904Y-115828571D01*
X138782142Y-115876190D01*
X139163095Y-115876190D01*
X138020238Y-115780952D02*
X138115476Y-115733333D01*
X138163095Y-115685714D01*
X138210714Y-115590476D01*
X138210714Y-115542857D01*
X138163095Y-115447619D01*
X138115476Y-115400000D01*
X138020238Y-115352380D01*
X137829761Y-115352380D01*
X137734523Y-115400000D01*
X137686904Y-115447619D01*
X137639285Y-115542857D01*
X137639285Y-115590476D01*
X137686904Y-115685714D01*
X137734523Y-115733333D01*
X137829761Y-115780952D01*
X138020238Y-115780952D01*
X138115476Y-115828571D01*
X138163095Y-115876190D01*
X138210714Y-115971428D01*
X138210714Y-116161904D01*
X138163095Y-116257142D01*
X138115476Y-116304761D01*
X138020238Y-116352380D01*
X137829761Y-116352380D01*
X137734523Y-116304761D01*
X137686904Y-116257142D01*
X137639285Y-116161904D01*
X137639285Y-115971428D01*
X137686904Y-115876190D01*
X137734523Y-115828571D01*
X137829761Y-115780952D01*
%TO.C,C2*%
X156107142Y-93983333D02*
X156154761Y-93935714D01*
X156202380Y-93792857D01*
X156202380Y-93697619D01*
X156154761Y-93554761D01*
X156059523Y-93459523D01*
X155964285Y-93411904D01*
X155773809Y-93364285D01*
X155630952Y-93364285D01*
X155440476Y-93411904D01*
X155345238Y-93459523D01*
X155250000Y-93554761D01*
X155202380Y-93697619D01*
X155202380Y-93792857D01*
X155250000Y-93935714D01*
X155297619Y-93983333D01*
X155297619Y-94364285D02*
X155250000Y-94411904D01*
X155202380Y-94507142D01*
X155202380Y-94745238D01*
X155250000Y-94840476D01*
X155297619Y-94888095D01*
X155392857Y-94935714D01*
X155488095Y-94935714D01*
X155630952Y-94888095D01*
X156202380Y-94316666D01*
X156202380Y-94935714D01*
%TO.C,LOGO101*%
G36*
X168725556Y-85944317D02*
G01*
X168483976Y-86442871D01*
X168102467Y-86858130D01*
X167588875Y-87174210D01*
X167577183Y-87179473D01*
X167450098Y-87230960D01*
X167312297Y-87270732D01*
X167141121Y-87300311D01*
X166913910Y-87321218D01*
X166608006Y-87334972D01*
X166200748Y-87343096D01*
X165669479Y-87347110D01*
X164991540Y-87348534D01*
X162775204Y-87350394D01*
X162251044Y-87985394D01*
X162951460Y-88010434D01*
X163651875Y-88035473D01*
X161873875Y-89208137D01*
X161470154Y-89473219D01*
X161022800Y-89763909D01*
X160639650Y-90009512D01*
X160339898Y-90197852D01*
X160142741Y-90316753D01*
X160067373Y-90354039D01*
X160101596Y-90284162D01*
X160220136Y-90106356D01*
X160404339Y-89848282D01*
X160635159Y-89537336D01*
X161231447Y-88747394D01*
X160811828Y-88721803D01*
X160662819Y-88709827D01*
X160468338Y-88682013D01*
X160392209Y-88652122D01*
X160404443Y-88626581D01*
X160496419Y-88491630D01*
X160658832Y-88272170D01*
X160868183Y-88000380D01*
X161344158Y-87392727D01*
X160756144Y-87346040D01*
X160666176Y-87337413D01*
X160534416Y-87306136D01*
X161459083Y-87306136D01*
X161535751Y-87335628D01*
X161726965Y-87347928D01*
X162060110Y-87350394D01*
X162738255Y-87350394D01*
X163531890Y-86334394D01*
X163680717Y-86144899D01*
X163941560Y-85818147D01*
X164156007Y-85556508D01*
X164305054Y-85382975D01*
X164369700Y-85320544D01*
X164377821Y-85323426D01*
X164483232Y-85395470D01*
X164675603Y-85544484D01*
X164920347Y-85743877D01*
X164976791Y-85790551D01*
X165214450Y-85980936D01*
X165393432Y-86114610D01*
X165478594Y-86165061D01*
X165480438Y-86164822D01*
X165562252Y-86096568D01*
X165723202Y-85926725D01*
X165937883Y-85683971D01*
X166180893Y-85396989D01*
X166426830Y-85094459D01*
X166577117Y-84905293D01*
X165258036Y-83893169D01*
X163938955Y-82881046D01*
X163012249Y-83187205D01*
X162668204Y-83304429D01*
X162365748Y-83414928D01*
X162160905Y-83498505D01*
X162085542Y-83542927D01*
X162113028Y-83577096D01*
X162250242Y-83696383D01*
X162476629Y-83875496D01*
X162762875Y-84090727D01*
X162952122Y-84232775D01*
X163203641Y-84432164D01*
X163376157Y-84582836D01*
X163440209Y-84660031D01*
X163433744Y-84675064D01*
X163352275Y-84797854D01*
X163192608Y-85019485D01*
X162974064Y-85314525D01*
X162715969Y-85657544D01*
X162437645Y-86023110D01*
X162158417Y-86385792D01*
X161897607Y-86720160D01*
X161674540Y-87000782D01*
X161508538Y-87202227D01*
X161469577Y-87252097D01*
X161459083Y-87306136D01*
X160534416Y-87306136D01*
X160056873Y-87192777D01*
X159530853Y-86912486D01*
X159106489Y-86509237D01*
X158802154Y-85995727D01*
X158777380Y-85931362D01*
X158689809Y-85511263D01*
X158680645Y-85026784D01*
X158746722Y-84548664D01*
X158884874Y-84147643D01*
X158966424Y-84005385D01*
X159320240Y-83600442D01*
X159790587Y-83294629D01*
X160353466Y-83100703D01*
X160984875Y-83031421D01*
X161450542Y-83029504D01*
X161650657Y-82567203D01*
X161791547Y-82301437D01*
X162113565Y-81881586D01*
X162505550Y-81523336D01*
X162916155Y-81278956D01*
X163095188Y-81224013D01*
X163426577Y-81167985D01*
X163780851Y-81145961D01*
X163825911Y-81146183D01*
X164433865Y-81222928D01*
X164960507Y-81442926D01*
X165426042Y-81814387D01*
X165505907Y-81903664D01*
X165698331Y-82165191D01*
X165893495Y-82479021D01*
X166065270Y-82798243D01*
X166187528Y-83075949D01*
X166234142Y-83265227D01*
X166241046Y-83290459D01*
X166369919Y-83350948D01*
X166662383Y-83371061D01*
X166946648Y-83380111D01*
X167458809Y-83464740D01*
X167885644Y-83651464D01*
X168271073Y-83956262D01*
X168303922Y-83988484D01*
X168538541Y-84249700D01*
X168678335Y-84494838D01*
X168764769Y-84794287D01*
X168775144Y-84905293D01*
X168819356Y-85378352D01*
X168725556Y-85944317D01*
G37*
D12*
X168725556Y-85944317D02*
X168483976Y-86442871D01*
X168102467Y-86858130D01*
X167588875Y-87174210D01*
X167577183Y-87179473D01*
X167450098Y-87230960D01*
X167312297Y-87270732D01*
X167141121Y-87300311D01*
X166913910Y-87321218D01*
X166608006Y-87334972D01*
X166200748Y-87343096D01*
X165669479Y-87347110D01*
X164991540Y-87348534D01*
X162775204Y-87350394D01*
X162251044Y-87985394D01*
X162951460Y-88010434D01*
X163651875Y-88035473D01*
X161873875Y-89208137D01*
X161470154Y-89473219D01*
X161022800Y-89763909D01*
X160639650Y-90009512D01*
X160339898Y-90197852D01*
X160142741Y-90316753D01*
X160067373Y-90354039D01*
X160101596Y-90284162D01*
X160220136Y-90106356D01*
X160404339Y-89848282D01*
X160635159Y-89537336D01*
X161231447Y-88747394D01*
X160811828Y-88721803D01*
X160662819Y-88709827D01*
X160468338Y-88682013D01*
X160392209Y-88652122D01*
X160404443Y-88626581D01*
X160496419Y-88491630D01*
X160658832Y-88272170D01*
X160868183Y-88000380D01*
X161344158Y-87392727D01*
X160756144Y-87346040D01*
X160666176Y-87337413D01*
X160534416Y-87306136D01*
X161459083Y-87306136D01*
X161535751Y-87335628D01*
X161726965Y-87347928D01*
X162060110Y-87350394D01*
X162738255Y-87350394D01*
X163531890Y-86334394D01*
X163680717Y-86144899D01*
X163941560Y-85818147D01*
X164156007Y-85556508D01*
X164305054Y-85382975D01*
X164369700Y-85320544D01*
X164377821Y-85323426D01*
X164483232Y-85395470D01*
X164675603Y-85544484D01*
X164920347Y-85743877D01*
X164976791Y-85790551D01*
X165214450Y-85980936D01*
X165393432Y-86114610D01*
X165478594Y-86165061D01*
X165480438Y-86164822D01*
X165562252Y-86096568D01*
X165723202Y-85926725D01*
X165937883Y-85683971D01*
X166180893Y-85396989D01*
X166426830Y-85094459D01*
X166577117Y-84905293D01*
X165258036Y-83893169D01*
X163938955Y-82881046D01*
X163012249Y-83187205D01*
X162668204Y-83304429D01*
X162365748Y-83414928D01*
X162160905Y-83498505D01*
X162085542Y-83542927D01*
X162113028Y-83577096D01*
X162250242Y-83696383D01*
X162476629Y-83875496D01*
X162762875Y-84090727D01*
X162952122Y-84232775D01*
X163203641Y-84432164D01*
X163376157Y-84582836D01*
X163440209Y-84660031D01*
X163433744Y-84675064D01*
X163352275Y-84797854D01*
X163192608Y-85019485D01*
X162974064Y-85314525D01*
X162715969Y-85657544D01*
X162437645Y-86023110D01*
X162158417Y-86385792D01*
X161897607Y-86720160D01*
X161674540Y-87000782D01*
X161508538Y-87202227D01*
X161469577Y-87252097D01*
X161459083Y-87306136D01*
X160534416Y-87306136D01*
X160056873Y-87192777D01*
X159530853Y-86912486D01*
X159106489Y-86509237D01*
X158802154Y-85995727D01*
X158777380Y-85931362D01*
X158689809Y-85511263D01*
X158680645Y-85026784D01*
X158746722Y-84548664D01*
X158884874Y-84147643D01*
X158966424Y-84005385D01*
X159320240Y-83600442D01*
X159790587Y-83294629D01*
X160353466Y-83100703D01*
X160984875Y-83031421D01*
X161450542Y-83029504D01*
X161650657Y-82567203D01*
X161791547Y-82301437D01*
X162113565Y-81881586D01*
X162505550Y-81523336D01*
X162916155Y-81278956D01*
X163095188Y-81224013D01*
X163426577Y-81167985D01*
X163780851Y-81145961D01*
X163825911Y-81146183D01*
X164433865Y-81222928D01*
X164960507Y-81442926D01*
X165426042Y-81814387D01*
X165505907Y-81903664D01*
X165698331Y-82165191D01*
X165893495Y-82479021D01*
X166065270Y-82798243D01*
X166187528Y-83075949D01*
X166234142Y-83265227D01*
X166241046Y-83290459D01*
X166369919Y-83350948D01*
X166662383Y-83371061D01*
X166946648Y-83380111D01*
X167458809Y-83464740D01*
X167885644Y-83651464D01*
X168271073Y-83956262D01*
X168303922Y-83988484D01*
X168538541Y-84249700D01*
X168678335Y-84494838D01*
X168764769Y-84794287D01*
X168775144Y-84905293D01*
X168819356Y-85378352D01*
X168725556Y-85944317D01*
%TO.C,kibuzzard-63921CE0*%
G36*
X136255806Y-111252000D02*
G01*
X136450274Y-110960297D01*
X136999155Y-110960297D01*
X137053130Y-111543703D01*
X137118218Y-111543703D01*
X137132024Y-111394478D01*
X137190052Y-111394478D01*
X137191392Y-111431983D01*
X137195410Y-111468297D01*
X137217437Y-111527034D01*
X137267840Y-111550053D01*
X137286037Y-111543703D01*
X137389284Y-111543703D01*
X137453577Y-111543703D01*
X137453577Y-111455597D01*
X137389284Y-111455597D01*
X137389284Y-111543703D01*
X137286037Y-111543703D01*
X137305940Y-111536758D01*
X137328959Y-111502627D01*
X137341063Y-111457780D01*
X137345627Y-111411941D01*
X137346007Y-111394478D01*
X137471040Y-111394478D01*
X137472379Y-111431983D01*
X137476398Y-111468297D01*
X137498424Y-111527034D01*
X137548827Y-111550053D01*
X137586927Y-111536758D01*
X137609946Y-111502627D01*
X137622051Y-111457780D01*
X137626615Y-111411941D01*
X137627409Y-111375428D01*
X137563115Y-111375428D01*
X137562321Y-111416306D01*
X137558551Y-111457184D01*
X137548827Y-111474647D01*
X137539699Y-111460161D01*
X137536127Y-111426823D01*
X137535334Y-111395272D01*
X137536276Y-111356080D01*
X137539104Y-111326613D01*
X137552994Y-111291687D01*
X137582165Y-111280178D01*
X137582165Y-111209534D01*
X137553590Y-111193659D01*
X137541088Y-111155758D01*
X137538112Y-111108728D01*
X137538707Y-111078963D01*
X137541882Y-111046220D01*
X137550415Y-111031734D01*
X137559741Y-111048998D01*
X137563710Y-111089083D01*
X137564702Y-111128572D01*
X137629790Y-111128572D01*
X137627607Y-111076780D01*
X137617884Y-111019233D01*
X137594468Y-110972600D01*
X137551209Y-110953947D01*
X137511719Y-110967639D01*
X137487907Y-111002167D01*
X137476001Y-111045030D01*
X137472627Y-111084122D01*
X137473471Y-111123264D01*
X137476001Y-111155758D01*
X137488105Y-111206161D01*
X137512315Y-111246047D01*
X137481557Y-111295061D01*
X137473669Y-111337675D01*
X137471040Y-111394478D01*
X137346007Y-111394478D01*
X137346421Y-111375428D01*
X137282127Y-111375428D01*
X137281334Y-111416306D01*
X137277563Y-111457184D01*
X137267840Y-111474647D01*
X137258712Y-111460161D01*
X137255140Y-111426823D01*
X137254346Y-111395272D01*
X137255289Y-111356080D01*
X137258116Y-111326613D01*
X137272007Y-111291687D01*
X137301177Y-111280178D01*
X137301177Y-111209534D01*
X137272602Y-111193659D01*
X137260101Y-111155758D01*
X137257124Y-111108728D01*
X137257719Y-111078963D01*
X137260894Y-111046220D01*
X137269427Y-111031734D01*
X137278754Y-111048998D01*
X137282723Y-111089083D01*
X137283715Y-111128572D01*
X137348802Y-111128572D01*
X137346619Y-111076780D01*
X137336896Y-111019233D01*
X137313480Y-110972600D01*
X137270221Y-110953947D01*
X137230732Y-110967639D01*
X137206919Y-111002167D01*
X137195013Y-111045030D01*
X137191640Y-111084122D01*
X137192483Y-111123264D01*
X137195013Y-111155758D01*
X137207118Y-111206161D01*
X137231327Y-111246047D01*
X137200569Y-111295061D01*
X137192682Y-111337675D01*
X137190052Y-111394478D01*
X137132024Y-111394478D01*
X137172193Y-110960297D01*
X137107899Y-110960297D01*
X137087659Y-111252000D01*
X137087262Y-111290497D01*
X137084087Y-111290497D01*
X137083690Y-111252397D01*
X137063449Y-110960297D01*
X136999155Y-110960297D01*
X136450274Y-110960297D01*
X136564751Y-110788582D01*
X138064194Y-110788582D01*
X138064194Y-111715418D01*
X136564751Y-111715418D01*
X136255806Y-111252000D01*
G37*
D11*
%TO.C,R12*%
X145187742Y-98522500D02*
X145662258Y-98522500D01*
X145187742Y-97477500D02*
X145662258Y-97477500D01*
%TO.C,R14*%
X159772500Y-94737258D02*
X159772500Y-94262742D01*
X158727500Y-94737258D02*
X158727500Y-94262742D01*
%TO.C,kibuzzard-63921B01*%
G36*
X159853097Y-94250000D02*
G01*
X160234627Y-93677706D01*
X161391737Y-93677706D01*
X161552075Y-93677706D01*
X161552075Y-93517369D01*
X161391737Y-93517369D01*
X161391737Y-93677706D01*
X160234627Y-93677706D01*
X160570471Y-93173940D01*
X167429529Y-93173940D01*
X168146903Y-94250000D01*
X167429529Y-95326060D01*
X160570471Y-95326060D01*
X159997560Y-94466694D01*
X160901200Y-94466694D01*
X160914991Y-94557280D01*
X160956366Y-94630603D01*
X161021552Y-94679121D01*
X161106781Y-94695294D01*
X161165685Y-94684181D01*
X161391737Y-94684181D01*
X161552075Y-94684181D01*
X161664787Y-94684181D01*
X161825125Y-94684181D01*
X161825125Y-94627031D01*
X161887831Y-94675847D01*
X161952125Y-94696881D01*
X161986948Y-94684181D01*
X162147387Y-94684181D01*
X162307725Y-94684181D01*
X162307725Y-94611156D01*
X162372019Y-94667513D01*
X162437900Y-94696881D01*
X162504575Y-94671481D01*
X162545056Y-94606791D01*
X162558550Y-94527019D01*
X162558550Y-93960281D01*
X162606175Y-93960281D01*
X162716506Y-93960281D01*
X162716506Y-94443675D01*
X162701425Y-94518684D01*
X162652212Y-94542894D01*
X162625622Y-94540512D01*
X162606969Y-94534956D01*
X162606969Y-94681800D01*
X162641497Y-94692516D01*
X162692694Y-94696881D01*
X162807788Y-94663544D01*
X162862159Y-94568294D01*
X162873173Y-94500428D01*
X162876844Y-94420656D01*
X162876844Y-94403194D01*
X162994319Y-94403194D01*
X163007813Y-94519478D01*
X163050278Y-94612744D01*
X163124097Y-94674656D01*
X163232444Y-94696881D01*
X163296161Y-94684181D01*
X163786481Y-94684181D01*
X163946819Y-94684181D01*
X163946819Y-94004731D01*
X163955550Y-93969013D01*
X163984919Y-93958694D01*
X164014684Y-93970997D01*
X164037306Y-93999969D01*
X164037306Y-94684181D01*
X164197644Y-94684181D01*
X164197644Y-94466694D01*
X164269081Y-94466694D01*
X164282873Y-94557280D01*
X164324247Y-94630603D01*
X164389434Y-94679121D01*
X164474663Y-94695294D01*
X164560388Y-94679121D01*
X164625475Y-94630603D01*
X164666552Y-94557280D01*
X164680244Y-94466694D01*
X164680244Y-94031719D01*
X164672566Y-93980919D01*
X164727869Y-93980919D01*
X164749697Y-93975759D01*
X164772319Y-93974569D01*
X164856456Y-94003144D01*
X164888206Y-94080931D01*
X164888206Y-94684181D01*
X165048544Y-94684181D01*
X165151731Y-94684181D01*
X165323181Y-94684181D01*
X165323181Y-93815819D01*
X165643063Y-93815819D01*
X165797050Y-94749269D01*
X165811238Y-94815646D01*
X165836341Y-94875078D01*
X165917700Y-94963184D01*
X166038350Y-94995331D01*
X166062956Y-94994538D01*
X166090738Y-94991362D01*
X166090738Y-94849281D01*
X166078038Y-94851266D01*
X166064544Y-94852456D01*
X165992709Y-94828644D01*
X165954213Y-94765144D01*
X165949847Y-94737362D01*
X165949450Y-94709581D01*
X165953646Y-94684181D01*
X166120900Y-94684181D01*
X166282825Y-94684181D01*
X166362200Y-94333344D01*
X166363788Y-94320644D01*
X166365375Y-94320644D01*
X166390775Y-94384144D01*
X166390775Y-94684181D01*
X166551113Y-94684181D01*
X166551113Y-94403194D01*
X166619375Y-94403194D01*
X166632869Y-94519478D01*
X166675334Y-94612744D01*
X166749153Y-94674656D01*
X166857500Y-94696881D01*
X166974975Y-94673466D01*
X167048794Y-94605600D01*
X167087291Y-94498444D01*
X167095923Y-94431769D01*
X167098800Y-94357156D01*
X166930525Y-94341281D01*
X166927747Y-94414703D01*
X166917428Y-94478203D01*
X166895203Y-94523050D01*
X166857500Y-94539719D01*
X166803525Y-94504397D01*
X166787650Y-94419069D01*
X166813844Y-94315088D01*
X166876550Y-94212694D01*
X166934593Y-94133120D01*
X166984897Y-94059500D01*
X167026172Y-93989452D01*
X167057128Y-93920594D01*
X167076476Y-93850744D01*
X167082925Y-93777719D01*
X167067844Y-93669372D01*
X167023791Y-93582853D01*
X166953544Y-93525306D01*
X166859088Y-93504669D01*
X166747566Y-93526894D01*
X166673747Y-93590394D01*
X166632472Y-93688422D01*
X166619375Y-93814231D01*
X166787650Y-93830106D01*
X166790428Y-93770972D01*
X166800350Y-93716600D01*
X166820988Y-93676912D01*
X166855913Y-93661831D01*
X166901950Y-93690009D01*
X166914650Y-93769781D01*
X166905720Y-93835266D01*
X166878931Y-93898369D01*
X166837061Y-93965441D01*
X166782888Y-94042831D01*
X166717304Y-94136494D01*
X166665016Y-94222219D01*
X166630785Y-94308341D01*
X166619375Y-94403194D01*
X166551113Y-94403194D01*
X166551113Y-93517369D01*
X166390775Y-93517369D01*
X166390775Y-94071406D01*
X166382838Y-94071406D01*
X166373313Y-94042831D01*
X166295525Y-93815819D01*
X166143125Y-93815819D01*
X166266950Y-94098394D01*
X166120900Y-94684181D01*
X165953646Y-94684181D01*
X166097088Y-93815819D01*
X165939925Y-93815819D01*
X165876425Y-94357156D01*
X165873250Y-94417481D01*
X165866900Y-94417481D01*
X165863725Y-94357156D01*
X165800225Y-93815819D01*
X165643063Y-93815819D01*
X165323181Y-93815819D01*
X165323181Y-93517369D01*
X165151731Y-93517369D01*
X165151731Y-94684181D01*
X165048544Y-94684181D01*
X165048544Y-93815819D01*
X164888206Y-93815819D01*
X164888206Y-93912656D01*
X164858838Y-93856300D01*
X164798909Y-93817406D01*
X164727869Y-93803119D01*
X164727869Y-93980919D01*
X164672566Y-93980919D01*
X164666552Y-93941132D01*
X164625475Y-93867809D01*
X164560388Y-93819291D01*
X164474663Y-93803119D01*
X164389434Y-93819291D01*
X164324247Y-93867809D01*
X164282873Y-93941132D01*
X164269081Y-94031719D01*
X164269081Y-94466694D01*
X164197644Y-94466694D01*
X164197644Y-93815819D01*
X164037306Y-93815819D01*
X164037306Y-93888844D01*
X163973012Y-93832091D01*
X163907131Y-93803119D01*
X163840456Y-93828519D01*
X163799975Y-93892812D01*
X163786481Y-93972981D01*
X163786481Y-94684181D01*
X163296161Y-94684181D01*
X163349919Y-94673466D01*
X163423738Y-94605600D01*
X163462234Y-94498444D01*
X163470866Y-94431769D01*
X163473744Y-94357156D01*
X163305469Y-94341281D01*
X163302691Y-94414703D01*
X163292372Y-94478203D01*
X163270147Y-94523050D01*
X163232444Y-94539719D01*
X163178469Y-94504397D01*
X163162594Y-94419069D01*
X163188788Y-94315088D01*
X163251494Y-94212694D01*
X163309537Y-94133120D01*
X163359841Y-94059500D01*
X163401116Y-93989452D01*
X163432072Y-93920594D01*
X163451420Y-93850744D01*
X163457869Y-93777719D01*
X163442788Y-93669372D01*
X163398734Y-93582853D01*
X163328488Y-93525306D01*
X163234031Y-93504669D01*
X163122509Y-93526894D01*
X163048691Y-93590394D01*
X163007416Y-93688422D01*
X162994319Y-93814231D01*
X163162594Y-93830106D01*
X163165372Y-93770972D01*
X163175294Y-93716600D01*
X163195931Y-93676912D01*
X163230856Y-93661831D01*
X163276894Y-93690009D01*
X163289594Y-93769781D01*
X163280664Y-93835266D01*
X163253875Y-93898369D01*
X163212005Y-93965441D01*
X163157831Y-94042831D01*
X163092248Y-94136494D01*
X163039959Y-94222219D01*
X163005729Y-94308341D01*
X162994319Y-94403194D01*
X162876844Y-94403194D01*
X162876844Y-93960281D01*
X162957806Y-93960281D01*
X162957806Y-93815819D01*
X162876844Y-93815819D01*
X162876844Y-93601506D01*
X162716506Y-93601506D01*
X162716506Y-93815819D01*
X162606175Y-93815819D01*
X162606175Y-93960281D01*
X162558550Y-93960281D01*
X162558550Y-93815819D01*
X162398212Y-93815819D01*
X162398212Y-94495269D01*
X162389084Y-94530591D01*
X162360113Y-94541306D01*
X162330347Y-94529003D01*
X162307725Y-94500031D01*
X162307725Y-93815819D01*
X162147387Y-93815819D01*
X162147387Y-94684181D01*
X161986948Y-94684181D01*
X162019594Y-94672275D01*
X162061663Y-94608378D01*
X162075950Y-94527019D01*
X162075950Y-93972981D01*
X162062059Y-93892019D01*
X162020388Y-93828122D01*
X161952125Y-93803119D01*
X161888625Y-93823756D01*
X161825125Y-93872969D01*
X161825125Y-93517369D01*
X161664787Y-93517369D01*
X161664787Y-94684181D01*
X161552075Y-94684181D01*
X161552075Y-93815819D01*
X161391737Y-93815819D01*
X161391737Y-94684181D01*
X161165685Y-94684181D01*
X161192506Y-94679121D01*
X161257594Y-94630603D01*
X161298670Y-94557280D01*
X161312362Y-94466694D01*
X161312362Y-94031719D01*
X161298670Y-93941132D01*
X161257594Y-93867809D01*
X161192506Y-93819291D01*
X161106781Y-93803119D01*
X161021552Y-93819291D01*
X160956366Y-93867809D01*
X160914991Y-93941132D01*
X160901200Y-94031719D01*
X160901200Y-94466694D01*
X159997560Y-94466694D01*
X159853097Y-94250000D01*
G37*
G36*
X164517525Y-93967425D02*
G01*
X164529431Y-94031719D01*
X164529431Y-94466694D01*
X164517525Y-94530988D01*
X164474663Y-94555594D01*
X164431800Y-94530591D01*
X164419894Y-94466694D01*
X164419894Y-94031719D01*
X164431800Y-93967425D01*
X164474663Y-93942819D01*
X164517525Y-93967425D01*
G37*
G36*
X161149644Y-93967425D02*
G01*
X161161550Y-94031719D01*
X161161550Y-94466694D01*
X161149644Y-94530988D01*
X161106781Y-94555594D01*
X161063919Y-94530591D01*
X161052012Y-94466694D01*
X161052012Y-94031719D01*
X161063919Y-93967425D01*
X161106781Y-93942819D01*
X161149644Y-93967425D01*
G37*
G36*
X161904500Y-93968616D02*
G01*
X161915613Y-94006319D01*
X161915613Y-94493681D01*
X161904500Y-94530988D01*
X161875925Y-94546069D01*
X161841397Y-94530988D01*
X161825125Y-94493681D01*
X161825125Y-94006319D01*
X161841397Y-93970600D01*
X161875925Y-93953931D01*
X161904500Y-93968616D01*
G37*
%TO.C,kibuzzard-63921DF1*%
G36*
X166506327Y-105105200D02*
G01*
X166164022Y-105085555D01*
X166145567Y-105085555D01*
X166145567Y-105083173D01*
X166164022Y-105083173D01*
X166506327Y-105064719D01*
X166506327Y-105105200D01*
G37*
G36*
X166506327Y-104527747D02*
G01*
X166164022Y-104508102D01*
X166145567Y-104508102D01*
X166145567Y-104505720D01*
X166164022Y-104505720D01*
X166506327Y-104487266D01*
X166506327Y-104527747D01*
G37*
G36*
X166640570Y-104195860D02*
G01*
X166594433Y-104202929D01*
X166532818Y-104206873D01*
X166457734Y-104208659D01*
X166371191Y-104209255D01*
X166284498Y-104208659D01*
X166208968Y-104206873D01*
X166146758Y-104202929D01*
X166100026Y-104195860D01*
X166061033Y-104167583D01*
X166678967Y-104167583D01*
X166640570Y-104195860D01*
G37*
G36*
X167052300Y-105542487D02*
G01*
X167042428Y-105609040D01*
X167026080Y-105674306D01*
X167003413Y-105737654D01*
X166974647Y-105798476D01*
X166940057Y-105856186D01*
X166899977Y-105910227D01*
X166854794Y-105960079D01*
X166804941Y-106005263D01*
X166750900Y-106045343D01*
X166693190Y-106079933D01*
X166632368Y-106108699D01*
X166569020Y-106131366D01*
X166503754Y-106147714D01*
X166437201Y-106157586D01*
X166370000Y-106160888D01*
X166302799Y-106157586D01*
X166236246Y-106147714D01*
X166170980Y-106131366D01*
X166107632Y-106108699D01*
X166046810Y-106079933D01*
X165989100Y-106045343D01*
X165935059Y-106005263D01*
X165885206Y-105960079D01*
X165840023Y-105910227D01*
X165799943Y-105856186D01*
X165765353Y-105798476D01*
X165736587Y-105737654D01*
X165713920Y-105674306D01*
X165697572Y-105609040D01*
X165687700Y-105542487D01*
X165684398Y-105475286D01*
X165684398Y-105027214D01*
X165932445Y-105027214D01*
X165932445Y-105142705D01*
X166807555Y-105227239D01*
X166807555Y-105124845D01*
X166628961Y-105111748D01*
X166628961Y-105056980D01*
X166807555Y-105043883D01*
X166807555Y-104941489D01*
X165932445Y-105027214D01*
X165684398Y-105027214D01*
X165684398Y-104917677D01*
X165932445Y-104917677D01*
X166064605Y-104917677D01*
X166064605Y-104845048D01*
X166807555Y-104845048D01*
X166807555Y-104746227D01*
X166064605Y-104746227D01*
X166064605Y-104673598D01*
X165932445Y-104673598D01*
X165932445Y-104917677D01*
X165684398Y-104917677D01*
X165684398Y-104449761D01*
X165932445Y-104449761D01*
X165932445Y-104565252D01*
X166807555Y-104649786D01*
X166807555Y-104547392D01*
X166628961Y-104534295D01*
X166628961Y-104479527D01*
X166807555Y-104466430D01*
X166807555Y-104364036D01*
X165932445Y-104449761D01*
X165684398Y-104449761D01*
X165684398Y-104068761D01*
X165932445Y-104068761D01*
X165932445Y-104144961D01*
X165962509Y-104230686D01*
X165999344Y-104259559D01*
X166049722Y-104280692D01*
X166112825Y-104295203D01*
X166187834Y-104304207D01*
X166274006Y-104308895D01*
X166370595Y-104310458D01*
X166470385Y-104308597D01*
X166557821Y-104303016D01*
X166632682Y-104292896D01*
X166694743Y-104277418D01*
X166743633Y-104255838D01*
X166778980Y-104227412D01*
X166807555Y-104146747D01*
X166807555Y-104068761D01*
X165932445Y-104068761D01*
X165684398Y-104068761D01*
X165684398Y-103820714D01*
X165687700Y-103753513D01*
X165697572Y-103686960D01*
X165713920Y-103621694D01*
X165736587Y-103558346D01*
X165765353Y-103497524D01*
X165799943Y-103439814D01*
X165840023Y-103385773D01*
X165885206Y-103335921D01*
X165935059Y-103290737D01*
X165989100Y-103250657D01*
X166046810Y-103216067D01*
X166107632Y-103187301D01*
X166170980Y-103164634D01*
X166236246Y-103148286D01*
X166302799Y-103138414D01*
X166370000Y-103135112D01*
X166437201Y-103138414D01*
X166503754Y-103148286D01*
X166569020Y-103164634D01*
X166632368Y-103187301D01*
X166693190Y-103216067D01*
X166750900Y-103250657D01*
X166804941Y-103290737D01*
X166854794Y-103335921D01*
X166899977Y-103385773D01*
X166940057Y-103439814D01*
X166974647Y-103497524D01*
X167003413Y-103558346D01*
X167026080Y-103621694D01*
X167042428Y-103686960D01*
X167052300Y-103753513D01*
X167055602Y-103820714D01*
X167055602Y-105475286D01*
X167052300Y-105542487D01*
G37*
%TO.C,C4*%
X160610000Y-101134420D02*
X160610000Y-101415580D01*
X159590000Y-101134420D02*
X159590000Y-101415580D01*
%TO.C,R10*%
X160622500Y-98062742D02*
X160622500Y-98537258D01*
X159577500Y-98062742D02*
X159577500Y-98537258D01*
%TO.C,kibuzzard-63921CC8*%
G36*
X137136673Y-112727978D02*
G01*
X137117821Y-112702380D01*
X137113108Y-112671622D01*
X137110479Y-112630545D01*
X137109288Y-112580489D01*
X137108891Y-112522794D01*
X137109288Y-112464999D01*
X137110479Y-112414645D01*
X137113108Y-112373172D01*
X137117821Y-112342017D01*
X137136673Y-112316022D01*
X137136673Y-112727978D01*
G37*
G36*
X136255806Y-112522000D02*
G01*
X136564751Y-112058582D01*
X138064194Y-112058582D01*
X138064194Y-112985418D01*
X136564751Y-112985418D01*
X136256071Y-112522397D01*
X137041423Y-112522397D01*
X137042663Y-112588923D01*
X137046384Y-112647214D01*
X137053130Y-112697121D01*
X137063449Y-112738495D01*
X137077836Y-112771089D01*
X137096787Y-112794653D01*
X137150563Y-112813703D01*
X137202554Y-112813703D01*
X137234304Y-112813703D01*
X137289866Y-112813703D01*
X137331935Y-112563672D01*
X137336301Y-112518428D01*
X137337491Y-112518428D01*
X137337491Y-112813703D01*
X137398610Y-112813703D01*
X137430360Y-112813703D01*
X137464491Y-112813703D01*
X137471635Y-112792272D01*
X137489693Y-112812909D01*
X137519260Y-112820053D01*
X137563313Y-112801598D01*
X137582760Y-112755759D01*
X137587523Y-112701784D01*
X137587523Y-112342216D01*
X137580180Y-112288638D01*
X137555773Y-112242600D01*
X137508941Y-112223947D01*
X137469849Y-112235655D01*
X137445838Y-112265619D01*
X137433734Y-112304314D01*
X137430360Y-112342216D01*
X137430360Y-112439847D01*
X137496241Y-112439847D01*
X137496241Y-112339041D01*
X137498226Y-112318205D01*
X137508941Y-112307291D01*
X137519062Y-112318006D01*
X137520848Y-112339041D01*
X137520848Y-112712103D01*
X137518268Y-112734328D01*
X137506957Y-112743853D01*
X137494455Y-112733733D01*
X137491479Y-112712103D01*
X137491479Y-112603359D01*
X137505766Y-112603359D01*
X137505766Y-112523191D01*
X137430360Y-112523191D01*
X137430360Y-112813703D01*
X137398610Y-112813703D01*
X137398610Y-112230297D01*
X137339079Y-112230297D01*
X137300582Y-112482709D01*
X137296613Y-112517634D01*
X137295423Y-112517634D01*
X137295423Y-112230297D01*
X137234304Y-112230297D01*
X137234304Y-112813703D01*
X137202554Y-112813703D01*
X137202554Y-112230297D01*
X137151754Y-112230297D01*
X137094604Y-112250339D01*
X137075355Y-112274896D01*
X137061266Y-112308481D01*
X137051592Y-112350550D01*
X137045590Y-112400556D01*
X137042464Y-112458004D01*
X137041423Y-112522397D01*
X136256071Y-112522397D01*
X136255806Y-112522000D01*
G37*
%TO.C,U1*%
X152110000Y-102110000D02*
X152110000Y-101635000D01*
X148365000Y-102110000D02*
X147890000Y-102110000D01*
X151635000Y-102110000D02*
X152110000Y-102110000D01*
X147890000Y-97890000D02*
X147890000Y-98365000D01*
X151635000Y-97890000D02*
X152110000Y-97890000D01*
X148365000Y-97890000D02*
X147890000Y-97890000D01*
X147890000Y-102110000D02*
X147890000Y-101635000D01*
%TO.C,kibuzzard-63921D08*%
G36*
X136257922Y-107442000D02*
G01*
X136393653Y-107238403D01*
X137088122Y-107238403D01*
X137136540Y-107238403D01*
X137136540Y-107733703D01*
X137202422Y-107733703D01*
X137274653Y-107733703D01*
X137330215Y-107733703D01*
X137372284Y-107483672D01*
X137376650Y-107438428D01*
X137377840Y-107438428D01*
X137377840Y-107733703D01*
X137438959Y-107733703D01*
X137470709Y-107733703D01*
X137536590Y-107733703D01*
X137536590Y-107150297D01*
X137470709Y-107150297D01*
X137470709Y-107733703D01*
X137438959Y-107733703D01*
X137438959Y-107150297D01*
X137379428Y-107150297D01*
X137340931Y-107402709D01*
X137336962Y-107437634D01*
X137335772Y-107437634D01*
X137335772Y-107150297D01*
X137274653Y-107150297D01*
X137274653Y-107733703D01*
X137202422Y-107733703D01*
X137202422Y-107238403D01*
X137250840Y-107238403D01*
X137250840Y-107150297D01*
X137088122Y-107150297D01*
X137088122Y-107238403D01*
X136393653Y-107238403D01*
X136562634Y-106984932D01*
X138062078Y-106984932D01*
X138062078Y-107899068D01*
X136562634Y-107899068D01*
X136257922Y-107442000D01*
G37*
%TO.C,kibuzzard-63921CFB*%
G36*
X137116035Y-108574681D02*
G01*
X137128338Y-108802884D01*
X137101351Y-108802884D01*
X137114448Y-108574681D01*
X137114448Y-108562378D01*
X137116035Y-108562378D01*
X137116035Y-108574681D01*
G37*
G36*
X136255806Y-108712000D02*
G01*
X136564751Y-108248582D01*
X138064194Y-108248582D01*
X138064194Y-109175418D01*
X136564751Y-109175418D01*
X136450274Y-109003703D01*
X137019991Y-109003703D01*
X137088254Y-109003703D01*
X137096985Y-108884641D01*
X137133498Y-108884641D01*
X137142229Y-109003703D01*
X137210491Y-109003703D01*
X137181955Y-108712397D01*
X137246210Y-108712397D01*
X137247450Y-108778923D01*
X137251171Y-108837214D01*
X137257918Y-108887121D01*
X137268237Y-108928495D01*
X137282623Y-108961089D01*
X137301574Y-108984653D01*
X137355351Y-109003703D01*
X137407341Y-109003703D01*
X137407341Y-108867178D01*
X137447029Y-108867178D01*
X137450005Y-108912620D01*
X137461515Y-108959452D01*
X137485724Y-108995766D01*
X137527198Y-109010053D01*
X137569465Y-108995170D01*
X137594071Y-108955681D01*
X137605779Y-108901111D01*
X137608954Y-108840984D01*
X137544660Y-108831459D01*
X137544263Y-108854280D01*
X137542279Y-108888213D01*
X137537119Y-108918772D01*
X137527198Y-108931472D01*
X137515887Y-108917184D01*
X137513704Y-108875116D01*
X137516085Y-108840538D01*
X137523229Y-108805067D01*
X137536524Y-108765925D01*
X137557360Y-108720334D01*
X137579982Y-108665963D01*
X137597444Y-108605439D01*
X137604191Y-108550472D01*
X137601016Y-108504434D01*
X137589705Y-108460183D01*
X137566687Y-108426845D01*
X137527991Y-108413947D01*
X137483343Y-108427639D01*
X137459729Y-108463953D01*
X137450402Y-108513761D01*
X137448616Y-108567934D01*
X137513704Y-108577459D01*
X137513902Y-108555631D01*
X137515291Y-108527255D01*
X137519062Y-108502648D01*
X137526404Y-108492528D01*
X137535532Y-108508602D01*
X137537516Y-108550472D01*
X137527991Y-108612186D01*
X137515887Y-108647657D01*
X137498623Y-108687791D01*
X137476794Y-108736954D01*
X137460523Y-108781255D01*
X137450402Y-108823671D01*
X137447029Y-108867178D01*
X137407341Y-108867178D01*
X137407341Y-108420297D01*
X137356541Y-108420297D01*
X137299391Y-108440339D01*
X137280143Y-108464896D01*
X137266054Y-108498481D01*
X137256380Y-108540550D01*
X137250377Y-108590556D01*
X137247252Y-108648004D01*
X137246210Y-108712397D01*
X137181955Y-108712397D01*
X137153341Y-108420297D01*
X137076348Y-108420297D01*
X137019991Y-109003703D01*
X136450274Y-109003703D01*
X136255806Y-108712000D01*
G37*
G36*
X137341460Y-108917978D02*
G01*
X137322609Y-108892380D01*
X137317896Y-108861622D01*
X137315266Y-108820545D01*
X137314076Y-108770489D01*
X137313679Y-108712794D01*
X137314076Y-108654999D01*
X137315266Y-108604645D01*
X137317896Y-108563172D01*
X137322609Y-108532017D01*
X137341460Y-108506022D01*
X137341460Y-108917978D01*
G37*
%TO.C,kibuzzard-63921DF1*%
G36*
X133232327Y-105035747D02*
G01*
X132890022Y-105016102D01*
X132871567Y-105016102D01*
X132871567Y-105013720D01*
X132890022Y-105013720D01*
X133232327Y-104995266D01*
X133232327Y-105035747D01*
G37*
G36*
X133366570Y-104703860D02*
G01*
X133320433Y-104710929D01*
X133258818Y-104714873D01*
X133183734Y-104716659D01*
X133097191Y-104717255D01*
X133010498Y-104716659D01*
X132934968Y-104714873D01*
X132872758Y-104710929D01*
X132826026Y-104703860D01*
X132787033Y-104675583D01*
X133404967Y-104675583D01*
X133366570Y-104703860D01*
G37*
G36*
X133778300Y-106050487D02*
G01*
X133768428Y-106117040D01*
X133752080Y-106182306D01*
X133729413Y-106245654D01*
X133700647Y-106306476D01*
X133666057Y-106364186D01*
X133625977Y-106418227D01*
X133580794Y-106468079D01*
X133530941Y-106513263D01*
X133476900Y-106553343D01*
X133419190Y-106587933D01*
X133358368Y-106616699D01*
X133295020Y-106639366D01*
X133229754Y-106655714D01*
X133163201Y-106665586D01*
X133096000Y-106668888D01*
X133028799Y-106665586D01*
X132962246Y-106655714D01*
X132896980Y-106639366D01*
X132833632Y-106616699D01*
X132772810Y-106587933D01*
X132715100Y-106553343D01*
X132661059Y-106513263D01*
X132611206Y-106468079D01*
X132566023Y-106418227D01*
X132525943Y-106364186D01*
X132491353Y-106306476D01*
X132462587Y-106245654D01*
X132439920Y-106182306D01*
X132423572Y-106117040D01*
X132413700Y-106050487D01*
X132410398Y-105983286D01*
X132410398Y-105535214D01*
X132658445Y-105535214D01*
X132658445Y-105650705D01*
X133533555Y-105735239D01*
X133533555Y-105632845D01*
X133354961Y-105619748D01*
X133354961Y-105564980D01*
X133533555Y-105551883D01*
X133533555Y-105449489D01*
X132658445Y-105535214D01*
X132410398Y-105535214D01*
X132410398Y-105425677D01*
X132658445Y-105425677D01*
X132790605Y-105425677D01*
X132790605Y-105353048D01*
X133533555Y-105353048D01*
X133533555Y-105254227D01*
X132790605Y-105254227D01*
X132790605Y-105181598D01*
X132658445Y-105181598D01*
X132658445Y-105425677D01*
X132410398Y-105425677D01*
X132410398Y-104957761D01*
X132658445Y-104957761D01*
X132658445Y-105073252D01*
X133533555Y-105157786D01*
X133533555Y-105055392D01*
X133354961Y-105042295D01*
X133354961Y-104987527D01*
X133533555Y-104974430D01*
X133533555Y-104872036D01*
X132658445Y-104957761D01*
X132410398Y-104957761D01*
X132410398Y-104576761D01*
X132658445Y-104576761D01*
X132658445Y-104652961D01*
X132688509Y-104738686D01*
X132725344Y-104767559D01*
X132775722Y-104788692D01*
X132838825Y-104803203D01*
X132913834Y-104812207D01*
X133000006Y-104816895D01*
X133096595Y-104818458D01*
X133196385Y-104816597D01*
X133283821Y-104811016D01*
X133358682Y-104800896D01*
X133420743Y-104785418D01*
X133469633Y-104763838D01*
X133504980Y-104735412D01*
X133533555Y-104654747D01*
X133533555Y-104576761D01*
X132658445Y-104576761D01*
X132410398Y-104576761D01*
X132410398Y-104328714D01*
X132413700Y-104261513D01*
X132423572Y-104194960D01*
X132439920Y-104129694D01*
X132462587Y-104066346D01*
X132491353Y-104005524D01*
X132525943Y-103947814D01*
X132566023Y-103893773D01*
X132611206Y-103843921D01*
X132661059Y-103798737D01*
X132715100Y-103758657D01*
X132772810Y-103724067D01*
X132833632Y-103695301D01*
X132896980Y-103672634D01*
X132962246Y-103656286D01*
X133028799Y-103646414D01*
X133096000Y-103643112D01*
X133163201Y-103646414D01*
X133229754Y-103656286D01*
X133295020Y-103672634D01*
X133358368Y-103695301D01*
X133419190Y-103724067D01*
X133476900Y-103758657D01*
X133530941Y-103798737D01*
X133580794Y-103843921D01*
X133625977Y-103893773D01*
X133666057Y-103947814D01*
X133700647Y-104005524D01*
X133729413Y-104066346D01*
X133752080Y-104129694D01*
X133768428Y-104194960D01*
X133778300Y-104261513D01*
X133781602Y-104328714D01*
X133781602Y-105983286D01*
X133778300Y-106050487D01*
G37*
G36*
X133232327Y-105613200D02*
G01*
X132890022Y-105593555D01*
X132871567Y-105593555D01*
X132871567Y-105591173D01*
X132890022Y-105591173D01*
X133232327Y-105572719D01*
X133232327Y-105613200D01*
G37*
%TO.C,C6*%
X145540580Y-93890000D02*
X145259420Y-93890000D01*
X145540580Y-94910000D02*
X145259420Y-94910000D01*
%TO.C,R7*%
X135762742Y-118022500D02*
X136237258Y-118022500D01*
X135762742Y-116977500D02*
X136237258Y-116977500D01*
%TO.C,J4*%
X131670000Y-106725000D02*
X132692470Y-106725000D01*
X133760000Y-111865000D02*
X134330000Y-111865000D01*
X134330000Y-111865000D02*
X134330000Y-106725000D01*
X133000000Y-113260000D02*
X134330000Y-113260000D01*
X134330000Y-113260000D02*
X134330000Y-112500000D01*
X133307530Y-106725000D02*
X134330000Y-106725000D01*
X131670000Y-111865000D02*
X132240000Y-111865000D01*
X131670000Y-111865000D02*
X131670000Y-106725000D01*
%TO.C,C3*%
X152398000Y-105015420D02*
X152398000Y-105296580D01*
X153418000Y-105015420D02*
X153418000Y-105296580D01*
%TO.C,kibuzzard-63921CF0*%
G36*
X136255806Y-109982000D02*
G01*
X136564751Y-109518582D01*
X138064194Y-109518582D01*
X138064194Y-110445418D01*
X136564751Y-110445418D01*
X136450274Y-110273703D01*
X137056504Y-110273703D01*
X137190648Y-110273703D01*
X137190648Y-110161784D01*
X137218429Y-110161784D01*
X137225573Y-110219331D01*
X137249782Y-110263186D01*
X137297010Y-110280053D01*
X137344834Y-110261202D01*
X137368249Y-110214966D01*
X137374798Y-110161784D01*
X137374798Y-110137178D01*
X137410516Y-110137178D01*
X137413493Y-110182620D01*
X137425002Y-110229452D01*
X137449212Y-110265766D01*
X137490685Y-110280053D01*
X137532952Y-110265170D01*
X137557559Y-110225681D01*
X137569266Y-110171111D01*
X137572441Y-110110984D01*
X137508148Y-110101459D01*
X137507751Y-110124280D01*
X137505766Y-110158213D01*
X137500607Y-110188772D01*
X137490685Y-110201472D01*
X137479374Y-110187184D01*
X137477191Y-110145116D01*
X137479573Y-110110538D01*
X137486716Y-110075067D01*
X137500012Y-110035925D01*
X137520848Y-109990334D01*
X137543469Y-109935963D01*
X137560932Y-109875439D01*
X137567679Y-109820472D01*
X137564504Y-109774434D01*
X137553193Y-109730183D01*
X137530174Y-109696845D01*
X137491479Y-109683947D01*
X137446830Y-109697639D01*
X137423216Y-109733953D01*
X137413890Y-109783761D01*
X137412104Y-109837934D01*
X137477191Y-109847459D01*
X137477390Y-109825631D01*
X137478779Y-109797255D01*
X137482549Y-109772648D01*
X137489891Y-109762528D01*
X137499019Y-109778602D01*
X137501004Y-109820472D01*
X137491479Y-109882186D01*
X137479374Y-109917657D01*
X137462110Y-109957791D01*
X137440282Y-110006954D01*
X137424010Y-110051255D01*
X137413890Y-110093671D01*
X137410516Y-110137178D01*
X137374798Y-110137178D01*
X137374798Y-109802216D01*
X137367654Y-109749034D01*
X137343643Y-109702798D01*
X137297010Y-109683947D01*
X137257918Y-109696250D01*
X137233907Y-109727603D01*
X137221802Y-109766695D01*
X137218429Y-109802216D01*
X137218429Y-109890322D01*
X137282723Y-109890322D01*
X137282723Y-109799041D01*
X137284509Y-109778403D01*
X137295423Y-109767291D01*
X137305741Y-109778403D01*
X137307329Y-109799041D01*
X137307329Y-110164959D01*
X137305543Y-110185597D01*
X137295423Y-110196709D01*
X137284509Y-110185597D01*
X137282723Y-110164959D01*
X137282723Y-110073678D01*
X137218429Y-110073678D01*
X137218429Y-110161784D01*
X137190648Y-110161784D01*
X137190648Y-109690297D01*
X137124766Y-109690297D01*
X137124766Y-110194328D01*
X137056504Y-110194328D01*
X137056504Y-110273703D01*
X136450274Y-110273703D01*
X136255806Y-109982000D01*
G37*
%TO.C,kibuzzard-63921BF7*%
G36*
X160465946Y-114085865D02*
G01*
X163534054Y-114085865D01*
X163534054Y-115914135D01*
X160465946Y-115914135D01*
X160465946Y-115583406D01*
X160796675Y-115583406D01*
X160968125Y-115583406D01*
X160968125Y-114715044D01*
X161126081Y-114715044D01*
X161267369Y-115583406D01*
X161426119Y-115583406D01*
X161479844Y-115253206D01*
X161861887Y-115253206D01*
X161869726Y-115345083D01*
X161893241Y-115425450D01*
X161931936Y-115491827D01*
X161985316Y-115541734D01*
X162053082Y-115572988D01*
X162134937Y-115583406D01*
X162338138Y-115583406D01*
X162465138Y-115583406D01*
X162636588Y-115583406D01*
X162636588Y-114753144D01*
X162731838Y-114753144D01*
X162740470Y-114844921D01*
X162766366Y-114923403D01*
X162804565Y-114985613D01*
X162850106Y-115028575D01*
X162733425Y-115583406D01*
X162904875Y-115583406D01*
X163001713Y-115091281D01*
X163031875Y-115091281D01*
X163031875Y-115583406D01*
X163203325Y-115583406D01*
X163203325Y-114416594D01*
X163031875Y-114416594D01*
X162938213Y-114426075D01*
X162862542Y-114454517D01*
X162804863Y-114501922D01*
X162764293Y-114567759D01*
X162739951Y-114651500D01*
X162731838Y-114753144D01*
X162636588Y-114753144D01*
X162636588Y-114416594D01*
X162465138Y-114416594D01*
X162465138Y-115583406D01*
X162338138Y-115583406D01*
X162338138Y-114416594D01*
X162163513Y-114416594D01*
X162080665Y-114424432D01*
X162009922Y-114447947D01*
X161952573Y-114488130D01*
X161909909Y-114545975D01*
X161883418Y-114622373D01*
X161874587Y-114718219D01*
X161880045Y-114796998D01*
X161896416Y-114865063D01*
X161928463Y-114922014D01*
X161980950Y-114967456D01*
X161926380Y-115012601D01*
X161889669Y-115078184D01*
X161868833Y-115159841D01*
X161861887Y-115253206D01*
X161479844Y-115253206D01*
X161567406Y-114715044D01*
X161411831Y-114715044D01*
X161357856Y-115218281D01*
X161353094Y-115305594D01*
X161340394Y-115305594D01*
X161335631Y-115218281D01*
X161281656Y-114715044D01*
X161126081Y-114715044D01*
X160968125Y-114715044D01*
X160968125Y-114669006D01*
X161082425Y-114669006D01*
X161082425Y-114559469D01*
X160974475Y-114511050D01*
X160899862Y-114416594D01*
X160796675Y-114416594D01*
X160796675Y-115583406D01*
X160465946Y-115583406D01*
X160465946Y-114085865D01*
G37*
G36*
X162166687Y-115413544D02*
G01*
X162064294Y-115367109D01*
X162045839Y-115310654D01*
X162039688Y-115234156D01*
X162045839Y-115156666D01*
X162064294Y-115100409D01*
X162166687Y-115054769D01*
X162166687Y-115413544D01*
G37*
G36*
X162166687Y-114897606D02*
G01*
X162067072Y-114857919D01*
X162039688Y-114740444D01*
X162067866Y-114624159D01*
X162166687Y-114586456D01*
X162166687Y-114897606D01*
G37*
G36*
X163031875Y-114932531D02*
G01*
X162956469Y-114911497D01*
X162916781Y-114851569D01*
X162904875Y-114759494D01*
X162911721Y-114685774D01*
X162932259Y-114631303D01*
X163031875Y-114586456D01*
X163031875Y-114932531D01*
G37*
%TO.C,J1*%
X167260000Y-111865000D02*
X167830000Y-111865000D01*
X165170000Y-106725000D02*
X166192470Y-106725000D01*
X167830000Y-111865000D02*
X167830000Y-106725000D01*
X166807530Y-106725000D02*
X167830000Y-106725000D01*
X167830000Y-113260000D02*
X167830000Y-112500000D01*
X165170000Y-111865000D02*
X165170000Y-106725000D01*
X165170000Y-111865000D02*
X165740000Y-111865000D01*
X166500000Y-113260000D02*
X167830000Y-113260000D01*
%TO.C,R11*%
X145137742Y-99077500D02*
X145612258Y-99077500D01*
X145137742Y-100122500D02*
X145612258Y-100122500D01*
%TO.C,R6*%
X145187742Y-96922500D02*
X145662258Y-96922500D01*
X145187742Y-95877500D02*
X145662258Y-95877500D01*
%TO.C,R9*%
X155685258Y-104662500D02*
X155210742Y-104662500D01*
X155685258Y-103617500D02*
X155210742Y-103617500D01*
%TO.C,C1*%
X153390000Y-97040580D02*
X153390000Y-96759420D01*
X154410000Y-97040580D02*
X154410000Y-96759420D01*
%TO.C,R13*%
X157227500Y-94262742D02*
X157227500Y-94737258D01*
X158272500Y-94262742D02*
X158272500Y-94737258D01*
%TO.C,kibuzzard-63921E31*%
G36*
X131967784Y-94992428D02*
G01*
X131886523Y-94998381D01*
X131803477Y-94992726D01*
X131769842Y-94964448D01*
X132003205Y-94964448D01*
X131967784Y-94992428D01*
G37*
G36*
X132350570Y-94440276D02*
G01*
X132304433Y-94447345D01*
X132242818Y-94451289D01*
X132167734Y-94453075D01*
X132081191Y-94453670D01*
X131994498Y-94453075D01*
X131918968Y-94451289D01*
X131856758Y-94447345D01*
X131810026Y-94440276D01*
X131771033Y-94411998D01*
X132388967Y-94411998D01*
X132350570Y-94440276D01*
G37*
G36*
X132352653Y-94993619D02*
G01*
X132255617Y-95001358D01*
X132159177Y-94993916D01*
X132121077Y-94964448D01*
X132390158Y-94964448D01*
X132352653Y-94993619D01*
G37*
G36*
X132771779Y-95995005D02*
G01*
X132761770Y-96062483D01*
X132745195Y-96128655D01*
X132722213Y-96192884D01*
X132693047Y-96254551D01*
X132657977Y-96313062D01*
X132617340Y-96367854D01*
X132571529Y-96418399D01*
X132520984Y-96464210D01*
X132466192Y-96504847D01*
X132407680Y-96539917D01*
X132346013Y-96569084D01*
X132281785Y-96592065D01*
X132215612Y-96608640D01*
X132148134Y-96618650D01*
X132080000Y-96621997D01*
X132011866Y-96618650D01*
X131944388Y-96608640D01*
X131878215Y-96592065D01*
X131813987Y-96569084D01*
X131752320Y-96539917D01*
X131693808Y-96504847D01*
X131639016Y-96464210D01*
X131588471Y-96418399D01*
X131542660Y-96367854D01*
X131502023Y-96313062D01*
X131466953Y-96254551D01*
X131437787Y-96192884D01*
X131414805Y-96128655D01*
X131398230Y-96062483D01*
X131388221Y-95995005D01*
X131384873Y-95926870D01*
X131384873Y-95560952D01*
X131632920Y-95560952D01*
X131650482Y-95619590D01*
X131695428Y-95655606D01*
X131753471Y-95673763D01*
X131810323Y-95678823D01*
X131956770Y-95678823D01*
X131956770Y-95580002D01*
X131805561Y-95580002D01*
X131774307Y-95577025D01*
X131757936Y-95560952D01*
X131774009Y-95545771D01*
X131805561Y-95543092D01*
X132365155Y-95543092D01*
X132398492Y-95546962D01*
X132412780Y-95563928D01*
X132397599Y-95582680D01*
X132365155Y-95587145D01*
X132202039Y-95587145D01*
X132202039Y-95565714D01*
X132081786Y-95565714D01*
X132081786Y-95678823D01*
X132517555Y-95678823D01*
X132517555Y-95627627D01*
X132485408Y-95616911D01*
X132516364Y-95589824D01*
X132527080Y-95545473D01*
X132499398Y-95479394D01*
X132430639Y-95450223D01*
X132349677Y-95443080D01*
X131810323Y-95443080D01*
X131729956Y-95454093D01*
X131660900Y-95490705D01*
X131632920Y-95560952D01*
X131384873Y-95560952D01*
X131384873Y-95401408D01*
X131642445Y-95401408D01*
X132349677Y-95401408D01*
X132439271Y-95392180D01*
X132503267Y-95357652D01*
X132527080Y-95284727D01*
X132503565Y-95211503D01*
X132439569Y-95176380D01*
X132349677Y-95166855D01*
X131642445Y-95166855D01*
X131642445Y-95265677D01*
X132349677Y-95265677D01*
X132388372Y-95269546D01*
X132402064Y-95284727D01*
X132388074Y-95299014D01*
X132349677Y-95302586D01*
X131642445Y-95302586D01*
X131642445Y-95401408D01*
X131384873Y-95401408D01*
X131384873Y-94865627D01*
X131642445Y-94865627D01*
X131642445Y-94952542D01*
X131671616Y-95038863D01*
X131751685Y-95084999D01*
X131806379Y-95095492D01*
X131868664Y-95098989D01*
X131924921Y-95096459D01*
X131978202Y-95088869D01*
X132055592Y-95044220D01*
X132134471Y-95089464D01*
X132196458Y-95098394D01*
X132269905Y-95101370D01*
X132337026Y-95097575D01*
X132396706Y-95086190D01*
X132446787Y-95067289D01*
X132485110Y-95040946D01*
X132517555Y-94965639D01*
X132517555Y-94865627D01*
X131642445Y-94865627D01*
X131384873Y-94865627D01*
X131384873Y-94620358D01*
X131642445Y-94620358D01*
X131642445Y-94818002D01*
X131774605Y-94818002D01*
X131774605Y-94719180D01*
X132010348Y-94719180D01*
X132010348Y-94796570D01*
X132138936Y-94796570D01*
X132138936Y-94719180D01*
X132385395Y-94719180D01*
X132385395Y-94818002D01*
X132517555Y-94818002D01*
X132517555Y-94620358D01*
X131642445Y-94620358D01*
X131384873Y-94620358D01*
X131384873Y-94313177D01*
X131642445Y-94313177D01*
X131642445Y-94389377D01*
X131672509Y-94475102D01*
X131709344Y-94503974D01*
X131759722Y-94525108D01*
X131822825Y-94539619D01*
X131897834Y-94548623D01*
X131984006Y-94553311D01*
X132080595Y-94554873D01*
X132180385Y-94553013D01*
X132267821Y-94547432D01*
X132342682Y-94537312D01*
X132404743Y-94521834D01*
X132453633Y-94500254D01*
X132488980Y-94471827D01*
X132517555Y-94391163D01*
X132517555Y-94313177D01*
X131642445Y-94313177D01*
X131384873Y-94313177D01*
X131384873Y-94065130D01*
X131388221Y-93996995D01*
X131398230Y-93929517D01*
X131414805Y-93863345D01*
X131437787Y-93799116D01*
X131466953Y-93737449D01*
X131502023Y-93678938D01*
X131542660Y-93624146D01*
X131588471Y-93573601D01*
X131639016Y-93527790D01*
X131693808Y-93487153D01*
X131752320Y-93452083D01*
X131813987Y-93422916D01*
X131878215Y-93399935D01*
X131944388Y-93383360D01*
X132011866Y-93373350D01*
X132080000Y-93370003D01*
X132148134Y-93373350D01*
X132215612Y-93383360D01*
X132281785Y-93399935D01*
X132346013Y-93422916D01*
X132407680Y-93452083D01*
X132466192Y-93487153D01*
X132520984Y-93527790D01*
X132571529Y-93573601D01*
X132617340Y-93624146D01*
X132657977Y-93678938D01*
X132693047Y-93737449D01*
X132722213Y-93799116D01*
X132745195Y-93863345D01*
X132761770Y-93929517D01*
X132771779Y-93996995D01*
X132775127Y-94065130D01*
X132775127Y-95926870D01*
X132771779Y-95995005D01*
G37*
%TO.C,C5*%
X145540580Y-101610000D02*
X145259420Y-101610000D01*
X145540580Y-100590000D02*
X145259420Y-100590000D01*
%TO.C,R8*%
X135762742Y-115377500D02*
X136237258Y-115377500D01*
X135762742Y-116422500D02*
X136237258Y-116422500D01*
%TO.C,C2*%
X154965000Y-96961252D02*
X154965000Y-96438748D01*
X156435000Y-96961252D02*
X156435000Y-96438748D01*
%TD*%
M02*
