M48
; DRILL file {KiCad 6.0.9-8da3e8f707~117~ubuntu22.04.1} date Thu 08 Dec 2022 12:53:32 PM EST
; FORMAT={-:-/ absolute / inch / decimal}
; #@! TF.CreationDate,2022-12-08T12:53:32-05:00
; #@! TF.GenerationSoftware,Kicad,Pcbnew,6.0.9-8da3e8f707~117~ubuntu22.04.1
; #@! TF.FileFunction,Plated,1,4,PTH
FMAT,2
INCH
; #@! TA.AperFunction,Plated,PTH,ViaDrill
T1C0.0157
; #@! TA.AperFunction,Plated,PTH,ComponentDrill
T2C0.0276
; #@! TA.AperFunction,Plated,PTH,ComponentDrill
T3C0.0394
; #@! TA.AperFunction,Plated,PTH,ComponentDrill
T4C0.0709
%
G90
G05
T1
X5.187Y-3.4252
X5.1969Y-4.0846
X5.2756Y-3.4449
X5.2849Y-3.72
X5.2861Y-3.8885
X5.3051Y-3.5236
X5.3095Y-3.5836
X5.3346Y-3.4843
X5.3518Y-4.3529
X5.3648Y-4.1628
X5.3672Y-4.0521
X5.5019Y-3.4645
X5.5195Y-3.6449
X5.5206Y-4.4696
X5.5413Y-3.6122
X5.561Y-3.5728
X5.561Y-3.6713
X5.5709Y-4.124
X5.6229Y-3.4638
X5.6299Y-4.124
X5.6378Y-4.4882
X5.6496Y-3.7106
X5.6594Y-3.5335
X5.689Y-3.7598
X5.689Y-4.0945
X5.748Y-4.3898
X5.7661Y-3.3672
X5.7677Y-4.3228
X5.7677Y-4.5866
X5.7874Y-4.3996
X5.8071Y-4.5404
X5.811Y-4.4803
X5.8268Y-4.4094
X5.8465Y-4.6161
X5.8695Y-3.2809
X5.876Y-3.9075
X5.876Y-3.9665
X5.9055Y-3.4744
X5.9252Y-4.252
X5.935Y-3.9075
X5.935Y-3.9665
X5.9493Y-4.5876
X5.9511Y-4.5214
X5.9547Y-4.4094
X5.9764Y-4.2205
X6.0138Y-4.0157
X6.0335Y-4.4685
X6.0542Y-4.0157
X6.0827Y-3.752
X6.0827Y-3.9764
X6.0827Y-4.3701
X6.0906Y-3.8189
X6.1024Y-3.937
X6.1319Y-4.3209
X6.1395Y-3.2852
X6.1417Y-3.9173
X6.1732Y-4.5591
X6.1811Y-4.2028
X6.2112Y-3.3557
X6.2115Y-4.5185
X6.2414Y-4.4599
X6.2694Y-3.5239
X6.3425Y-4.0118
X6.3483Y-4.3207
X6.3878Y-3.9862
X6.4103Y-3.6389
X6.4104Y-4.1565
X6.5126Y-3.8016
X6.5922Y-4.0233
X6.5978Y-3.9403
T2
X5.2362Y-4.2291
X5.2362Y-4.2791
X5.2362Y-4.3291
X5.2362Y-4.3791
X5.2362Y-4.4291
X6.5551Y-4.2291
X6.5551Y-4.2791
X6.5551Y-4.3291
X6.5551Y-4.3791
X6.5551Y-4.4291
T3
X5.6339Y-3.8386
X5.6339Y-4.0354
X6.2205Y-3.8386
X6.2205Y-3.937
X6.2205Y-4.0354
T4
G00X5.8898Y-3.7126
M15
G01X5.9213Y-3.7126
M16
G05
G00X5.8898Y-4.1614
M15
G01X5.9213Y-4.1614
M16
G05
T0
M30
