<?xml version="1.0" encoding="UTF-8" standalone="no"?>
<!-- Created with Inkscape (http://www.inkscape.org/) -->

<svg
   width="89.5802mm"
   height="50.992428mm"
   viewBox="0 0 89.580201 50.992428"
   version="1.1"
   id="svg29857"
   inkscape:version="1.2.2 (1:1.2.2+202212051552+b0a8486541)"
   sodipodi:docname="paste stencil - minimal.svg"
   xmlns:inkscape="http://www.inkscape.org/namespaces/inkscape"
   xmlns:sodipodi="http://sodipodi.sourceforge.net/DTD/sodipodi-0.dtd"
   xmlns="http://www.w3.org/2000/svg"
   xmlns:svg="http://www.w3.org/2000/svg">
  <sodipodi:namedview
     id="namedview29859"
     pagecolor="#ffffff"
     bordercolor="#000000"
     borderopacity="0.25"
     inkscape:showpageshadow="2"
     inkscape:pageopacity="0.0"
     inkscape:pagecheckerboard="0"
     inkscape:deskcolor="#d1d1d1"
     inkscape:document-units="mm"
     showgrid="false"
     inkscape:zoom="2.5877449"
     inkscape:cx="110.52094"
     inkscape:cy="27.823454"
     inkscape:window-width="1720"
     inkscape:window-height="1403"
     inkscape:window-x="1720"
     inkscape:window-y="1440"
     inkscape:window-maximized="0"
     inkscape:current-layer="layer1" />
  <defs
     id="defs29854">
    <rect
       x="58.248131"
       y="160.58611"
       width="79.506393"
       height="15.652673"
       id="rect39322" />
    <rect
       x="58.248131"
       y="160.58611"
       width="79.506393"
       height="15.652673"
       id="rect47791" />
  </defs>
  <g
     inkscape:label="Layer 1"
     inkscape:groupmode="layer"
     id="layer1"
     style="display:inline"
     transform="translate(1.7047347,1.8625509)">
    <g
       id="g24961"
       transform="matrix(9.9999996e-7,0,0,9.9999996e-7,-128.87762,-78.612968)"
       style="fill:#000000;fill-opacity:0;stroke:#000000;stroke-width:150000;stroke-linecap:round;stroke-linejoin:round;stroke-opacity:1" />
    <g
       style="fill:#000000;fill-opacity:0;stroke:#000000;stroke-width:1;stroke-linecap:round;stroke-linejoin:round;stroke-opacity:1"
       id="g24963"
       transform="matrix(9.9999996e-7,0,0,9.9999996e-7,-128.87762,-78.612968)" />
    <g
       style="fill:#000000;fill-opacity:1;stroke:#000000;stroke-width:1;stroke-linecap:round;stroke-linejoin:round;stroke-opacity:1"
       id="g24969"
       transform="matrix(9.9999996e-7,0,0,9.9999996e-7,-128.87762,-78.612968)" />
    <g
       id="g24971"
       transform="matrix(9.9999996e-7,0,0,9.9999996e-7,-128.87762,-78.612968)"
       style="fill:#000000;fill-opacity:0;stroke:#000000;stroke-width:150000;stroke-linecap:round;stroke-linejoin:round;stroke-opacity:1" />
    <g
       style="fill:#000000;fill-opacity:1;stroke:#000000;stroke-width:1;stroke-linecap:round;stroke-linejoin:round;stroke-opacity:1"
       id="g24977"
       transform="matrix(9.9999996e-7,0,0,9.9999996e-7,-128.87762,-78.612968)" />
    <g
       id="g24979"
       transform="matrix(9.9999996e-7,0,0,9.9999996e-7,-128.87762,-78.612968)"
       style="fill:#000000;fill-opacity:0;stroke:#000000;stroke-width:150000;stroke-linecap:round;stroke-linejoin:round;stroke-opacity:1" />
    <g
       style="fill:#000000;fill-opacity:1;stroke:#000000;stroke-width:1;stroke-linecap:round;stroke-linejoin:round;stroke-opacity:1"
       id="g24985"
       transform="matrix(9.9999996e-7,0,0,9.9999996e-7,-128.87762,-78.612968)" />
    <g
       id="g24987"
       transform="matrix(9.9999996e-7,0,0,9.9999996e-7,-128.87762,-78.612968)"
       style="fill:#000000;fill-opacity:0;stroke:#000000;stroke-width:150000;stroke-linecap:round;stroke-linejoin:round;stroke-opacity:1" />
    <g
       id="g24989"
       transform="matrix(9.9999996e-7,0,0,9.9999996e-7,-128.87762,-78.612968)"
       style="fill:#000000;fill-opacity:0;stroke:#000000;stroke-width:150000;stroke-linecap:round;stroke-linejoin:round;stroke-opacity:1" />
    <g
       style="fill:#000000;fill-opacity:1;stroke:#000000;stroke-width:1;stroke-linecap:round;stroke-linejoin:round;stroke-opacity:1"
       id="g24995"
       transform="matrix(9.9999996e-7,0,0,9.9999996e-7,-128.87762,-78.612968)" />
    <g
       id="g24997"
       transform="matrix(9.9999996e-7,0,0,9.9999996e-7,-128.87762,-78.612968)"
       style="fill:#000000;fill-opacity:0;stroke:#000000;stroke-width:150000;stroke-linecap:round;stroke-linejoin:round;stroke-opacity:1" />
    <g
       style="fill:#000000;fill-opacity:1;stroke:#000000;stroke-width:1;stroke-linecap:round;stroke-linejoin:round;stroke-opacity:1"
       id="g25003"
       transform="matrix(9.9999996e-7,0,0,9.9999996e-7,-128.87762,-78.612968)" />
    <g
       id="g25005"
       transform="matrix(9.9999996e-7,0,0,9.9999996e-7,-128.87762,-78.612968)"
       style="fill:#000000;fill-opacity:0;stroke:#000000;stroke-width:150000;stroke-linecap:round;stroke-linejoin:round;stroke-opacity:1" />
    <g
       style="fill:#000000;fill-opacity:1;stroke:#000000;stroke-width:1;stroke-linecap:round;stroke-linejoin:round;stroke-opacity:1"
       id="g25011"
       transform="matrix(9.9999996e-7,0,0,9.9999996e-7,-128.87762,-78.612968)" />
    <g
       id="g25013"
       transform="matrix(9.9999996e-7,0,0,9.9999996e-7,-128.87762,-78.612968)"
       style="fill:#000000;fill-opacity:0;stroke:#000000;stroke-width:150000;stroke-linecap:round;stroke-linejoin:round;stroke-opacity:1" />
    <g
       style="fill:#000000;fill-opacity:1;stroke:#000000;stroke-width:1;stroke-linecap:round;stroke-linejoin:round;stroke-opacity:1"
       id="g25019"
       transform="matrix(9.9999996e-7,0,0,9.9999996e-7,-128.87762,-78.612968)" />
    <g
       id="g25021"
       transform="matrix(9.9999996e-7,0,0,9.9999996e-7,-128.87762,-78.612968)"
       style="fill:#000000;fill-opacity:0;stroke:#000000;stroke-width:150000;stroke-linecap:round;stroke-linejoin:round;stroke-opacity:1" />
    <g
       style="fill:#000000;fill-opacity:1;stroke:#000000;stroke-width:1;stroke-linecap:round;stroke-linejoin:round;stroke-opacity:1"
       id="g25027"
       transform="matrix(9.9999996e-7,0,0,9.9999996e-7,-128.87762,-78.612968)" />
    <g
       id="g25029"
       transform="matrix(9.9999996e-7,0,0,9.9999996e-7,-128.87762,-78.612968)"
       style="fill:#000000;fill-opacity:0;stroke:#000000;stroke-width:150000;stroke-linecap:round;stroke-linejoin:round;stroke-opacity:1" />
    <g
       style="fill:#000000;fill-opacity:1;stroke:#000000;stroke-width:1;stroke-linecap:round;stroke-linejoin:round;stroke-opacity:1"
       id="g25035"
       transform="matrix(9.9999996e-7,0,0,9.9999996e-7,-128.87762,-78.612968)" />
    <g
       id="g25037"
       transform="matrix(9.9999996e-7,0,0,9.9999996e-7,-128.87762,-78.612968)"
       style="fill:#000000;fill-opacity:0;stroke:#000000;stroke-width:150000;stroke-linecap:round;stroke-linejoin:round;stroke-opacity:1" />
    <g
       style="fill:#000000;fill-opacity:1;stroke:#000000;stroke-width:1;stroke-linecap:round;stroke-linejoin:round;stroke-opacity:1"
       id="g25043"
       transform="matrix(9.9999996e-7,0,0,9.9999996e-7,-128.87762,-78.612968)" />
    <g
       id="g25045"
       transform="matrix(9.9999996e-7,0,0,9.9999996e-7,-128.87762,-78.612968)"
       style="fill:#000000;fill-opacity:0;stroke:#000000;stroke-width:150000;stroke-linecap:round;stroke-linejoin:round;stroke-opacity:1" />
    <g
       style="fill:#000000;fill-opacity:1;stroke:#000000;stroke-width:1;stroke-linecap:round;stroke-linejoin:round;stroke-opacity:1"
       id="g25051"
       transform="matrix(9.9999996e-7,0,0,9.9999996e-7,-128.87762,-78.612968)" />
    <g
       id="g25053"
       transform="matrix(9.9999996e-7,0,0,9.9999996e-7,-128.87762,-78.612968)"
       style="fill:#000000;fill-opacity:0;stroke:#000000;stroke-width:150000;stroke-linecap:round;stroke-linejoin:round;stroke-opacity:1" />
    <g
       style="fill:#000000;fill-opacity:1;stroke:#000000;stroke-width:1;stroke-linecap:round;stroke-linejoin:round;stroke-opacity:1"
       id="g25059"
       transform="matrix(9.9999996e-7,0,0,9.9999996e-7,-128.87762,-78.612968)" />
    <g
       id="g25061"
       transform="matrix(9.9999996e-7,0,0,9.9999996e-7,-128.87762,-78.612968)"
       style="fill:#000000;fill-opacity:0;stroke:#000000;stroke-width:150000;stroke-linecap:round;stroke-linejoin:round;stroke-opacity:1" />
    <g
       style="fill:#000000;fill-opacity:1;stroke:#000000;stroke-width:1;stroke-linecap:round;stroke-linejoin:round;stroke-opacity:1"
       id="g25067"
       transform="matrix(9.9999996e-7,0,0,9.9999996e-7,-128.87762,-78.612968)" />
    <g
       id="g25069"
       transform="matrix(9.9999996e-7,0,0,9.9999996e-7,-128.87762,-78.612968)"
       style="fill:#000000;fill-opacity:0;stroke:#000000;stroke-width:150000;stroke-linecap:round;stroke-linejoin:round;stroke-opacity:1" />
    <g
       id="g25071"
       transform="matrix(9.9999996e-7,0,0,9.9999996e-7,-128.87762,-78.612968)"
       style="fill:#000000;fill-opacity:0;stroke:#000000;stroke-width:150000;stroke-linecap:round;stroke-linejoin:round;stroke-opacity:1" />
    <g
       id="g25073"
       transform="matrix(9.9999996e-7,0,0,9.9999996e-7,-128.87762,-78.612968)"
       style="fill:#000000;fill-opacity:0;stroke:#000000;stroke-width:150000;stroke-linecap:round;stroke-linejoin:round;stroke-opacity:1" />
    <g
       style="fill:#000000;fill-opacity:1;stroke:#000000;stroke-width:1;stroke-linecap:round;stroke-linejoin:round;stroke-opacity:1"
       id="g25079"
       transform="matrix(9.9999996e-7,0,0,9.9999996e-7,-128.87762,-78.612968)" />
    <g
       id="g25081"
       transform="matrix(9.9999996e-7,0,0,9.9999996e-7,-128.87762,-78.612968)"
       style="fill:#000000;fill-opacity:0;stroke:#000000;stroke-width:150000;stroke-linecap:round;stroke-linejoin:round;stroke-opacity:1" />
    <g
       style="fill:#000000;fill-opacity:1;stroke:#000000;stroke-width:1;stroke-linecap:round;stroke-linejoin:round;stroke-opacity:1"
       id="g25087"
       transform="matrix(9.9999996e-7,0,0,9.9999996e-7,-128.87762,-78.612968)" />
    <g
       id="g25089"
       transform="matrix(9.9999996e-7,0,0,9.9999996e-7,-128.87762,-78.612968)"
       style="fill:#000000;fill-opacity:0;stroke:#000000;stroke-width:150000;stroke-linecap:round;stroke-linejoin:round;stroke-opacity:1" />
    <g
       style="fill:#000000;fill-opacity:1;stroke:#000000;stroke-width:1;stroke-linecap:round;stroke-linejoin:round;stroke-opacity:1"
       id="g25095"
       transform="matrix(9.9999996e-7,0,0,9.9999996e-7,-128.87762,-78.612968)" />
    <g
       id="g25097"
       transform="matrix(9.9999996e-7,0,0,9.9999996e-7,-128.87762,-78.612968)"
       style="fill:#000000;fill-opacity:0;stroke:#000000;stroke-width:150000;stroke-linecap:round;stroke-linejoin:round;stroke-opacity:1" />
    <g
       style="fill:#000000;fill-opacity:1;stroke:#000000;stroke-width:1;stroke-linecap:round;stroke-linejoin:round;stroke-opacity:1"
       id="g25103"
       transform="matrix(9.9999996e-7,0,0,9.9999996e-7,-128.87762,-78.612968)" />
    <g
       id="g25105"
       transform="matrix(9.9999996e-7,0,0,9.9999996e-7,-128.87762,-78.612968)"
       style="fill:#000000;fill-opacity:0;stroke:#000000;stroke-width:150000;stroke-linecap:round;stroke-linejoin:round;stroke-opacity:1" />
    <g
       style="fill:#000000;fill-opacity:1;stroke:#000000;stroke-width:1;stroke-linecap:round;stroke-linejoin:round;stroke-opacity:1"
       id="g25111"
       transform="matrix(9.9999996e-7,0,0,9.9999996e-7,-128.87762,-78.612968)" />
    <g
       id="g25113"
       transform="matrix(9.9999996e-7,0,0,9.9999996e-7,-128.87762,-78.612968)"
       style="fill:#000000;fill-opacity:0;stroke:#000000;stroke-width:150000;stroke-linecap:round;stroke-linejoin:round;stroke-opacity:1" />
    <g
       id="g25115"
       transform="matrix(9.9999996e-7,0,0,9.9999996e-7,-128.87762,-78.612968)"
       style="fill:#000000;fill-opacity:0;stroke:#000000;stroke-width:150000;stroke-linecap:round;stroke-linejoin:round;stroke-opacity:1" />
    <g
       style="fill:#000000;fill-opacity:1;stroke:#000000;stroke-width:1;stroke-linecap:round;stroke-linejoin:round;stroke-opacity:1"
       id="g25121"
       transform="matrix(9.9999996e-7,0,0,9.9999996e-7,-128.87762,-78.612968)" />
    <g
       id="g25123"
       transform="matrix(9.9999996e-7,0,0,9.9999996e-7,-128.87762,-78.612968)"
       style="fill:#000000;fill-opacity:0;stroke:#000000;stroke-width:150000;stroke-linecap:round;stroke-linejoin:round;stroke-opacity:1" />
    <g
       style="fill:#000000;fill-opacity:1;stroke:#000000;stroke-width:1;stroke-linecap:round;stroke-linejoin:round;stroke-opacity:1"
       id="g25129"
       transform="matrix(9.9999996e-7,0,0,9.9999996e-7,-128.87762,-78.612968)" />
    <g
       id="g25131"
       transform="matrix(9.9999996e-7,0,0,9.9999996e-7,-128.87762,-78.612968)"
       style="fill:#000000;fill-opacity:0;stroke:#000000;stroke-width:150000;stroke-linecap:round;stroke-linejoin:round;stroke-opacity:1" />
    <g
       style="fill:#000000;fill-opacity:1;stroke:#000000;stroke-width:1;stroke-linecap:round;stroke-linejoin:round;stroke-opacity:1"
       id="g25137"
       transform="matrix(9.9999996e-7,0,0,9.9999996e-7,-128.87762,-78.612968)" />
    <g
       id="g25139"
       transform="matrix(9.9999996e-7,0,0,9.9999996e-7,-128.87762,-78.612968)"
       style="fill:#000000;fill-opacity:0;stroke:#000000;stroke-width:150000;stroke-linecap:round;stroke-linejoin:round;stroke-opacity:1" />
    <g
       id="g25141"
       transform="matrix(9.9999996e-7,0,0,9.9999996e-7,-128.87762,-78.612968)"
       style="fill:#000000;fill-opacity:0;stroke:#000000;stroke-width:150000;stroke-linecap:round;stroke-linejoin:round;stroke-opacity:1" />
    <g
       style="fill:#000000;fill-opacity:1;stroke:#000000;stroke-width:1;stroke-linecap:round;stroke-linejoin:round;stroke-opacity:1"
       id="g25147"
       transform="matrix(9.9999996e-7,0,0,9.9999996e-7,-128.87762,-78.612968)" />
    <g
       id="g25149"
       transform="matrix(9.9999996e-7,0,0,9.9999996e-7,-128.87762,-78.612968)"
       style="fill:#000000;fill-opacity:0;stroke:#000000;stroke-width:150000;stroke-linecap:round;stroke-linejoin:round;stroke-opacity:1" />
    <g
       style="fill:#000000;fill-opacity:1;stroke:#000000;stroke-width:1;stroke-linecap:round;stroke-linejoin:round;stroke-opacity:1"
       id="g25155"
       transform="matrix(9.9999996e-7,0,0,9.9999996e-7,-128.87762,-78.612968)" />
    <g
       id="g25157"
       transform="matrix(9.9999996e-7,0,0,9.9999996e-7,-128.87762,-78.612968)"
       style="fill:#000000;fill-opacity:0;stroke:#000000;stroke-width:150000;stroke-linecap:round;stroke-linejoin:round;stroke-opacity:1" />
    <g
       style="fill:#000000;fill-opacity:1;stroke:#000000;stroke-width:1;stroke-linecap:round;stroke-linejoin:round;stroke-opacity:1"
       id="g25163"
       transform="matrix(9.9999996e-7,0,0,9.9999996e-7,-128.87762,-78.612968)" />
    <g
       id="g25165"
       transform="matrix(9.9999996e-7,0,0,9.9999996e-7,-128.87762,-78.612968)"
       style="fill:#000000;fill-opacity:0;stroke:#000000;stroke-width:150000;stroke-linecap:round;stroke-linejoin:round;stroke-opacity:1" />
    <g
       id="g25173"
       transform="matrix(9.9999996e-7,0,0,9.9999996e-7,-128.87762,-78.612968)"
       style="fill:#000000;fill-opacity:0;stroke:#000000;stroke-width:150000;stroke-linecap:round;stroke-linejoin:round;stroke-opacity:1" />
    <g
       id="g25175"
       transform="matrix(9.9999996e-7,0,0,9.9999996e-7,-128.87762,-78.612968)"
       style="fill:#000000;fill-opacity:0;stroke:#000000;stroke-width:150000;stroke-linecap:round;stroke-linejoin:round;stroke-opacity:1" />
    <g
       id="g25177"
       transform="matrix(9.9999996e-7,0,0,9.9999996e-7,-128.87762,-78.612968)"
       style="fill:#000000;fill-opacity:0;stroke:#000000;stroke-width:150000;stroke-linecap:round;stroke-linejoin:round;stroke-opacity:1" />
    <g
       id="g25179"
       transform="matrix(9.9999996e-7,0,0,9.9999996e-7,-128.87762,-78.612968)"
       style="fill:#000000;fill-opacity:0;stroke:#000000;stroke-width:150000;stroke-linecap:round;stroke-linejoin:round;stroke-opacity:1" />
    <g
       id="g25181"
       transform="matrix(9.9999996e-7,0,0,9.9999996e-7,-128.87762,-78.612968)"
       style="fill:#000000;fill-opacity:0;stroke:#000000;stroke-width:150000;stroke-linecap:round;stroke-linejoin:round;stroke-opacity:1" />
    <g
       id="g25183"
       transform="matrix(9.9999996e-7,0,0,9.9999996e-7,-128.87762,-78.612968)"
       style="fill:#000000;fill-opacity:0;stroke:#000000;stroke-width:150000;stroke-linecap:round;stroke-linejoin:round;stroke-opacity:1" />
    <g
       id="g25185"
       transform="matrix(9.9999996e-7,0,0,9.9999996e-7,-128.87762,-78.612968)"
       style="fill:#000000;fill-opacity:0;stroke:#000000;stroke-width:150000;stroke-linecap:round;stroke-linejoin:round;stroke-opacity:1" />
    <g
       id="g25187"
       transform="matrix(9.9999996e-7,0,0,9.9999996e-7,-128.87762,-78.612968)"
       style="fill:#000000;fill-opacity:0;stroke:#000000;stroke-width:150000;stroke-linecap:round;stroke-linejoin:round;stroke-opacity:1" />
    <g
       id="g25189"
       transform="matrix(9.9999996e-7,0,0,9.9999996e-7,-128.87762,-78.612968)"
       style="fill:#000000;fill-opacity:0;stroke:#000000;stroke-width:150000;stroke-linecap:round;stroke-linejoin:round;stroke-opacity:1" />
    <g
       id="g25191"
       transform="matrix(9.9999996e-7,0,0,9.9999996e-7,-128.87762,-78.612968)"
       style="fill:#000000;fill-opacity:0;stroke:#000000;stroke-width:150000;stroke-linecap:round;stroke-linejoin:round;stroke-opacity:1" />
    <g
       id="g25193"
       transform="matrix(9.9999996e-7,0,0,9.9999996e-7,-128.87762,-78.612968)"
       style="fill:#000000;fill-opacity:0;stroke:#000000;stroke-width:150000;stroke-linecap:round;stroke-linejoin:round;stroke-opacity:1" />
    <g
       id="g25195"
       transform="matrix(9.9999996e-7,0,0,9.9999996e-7,-128.87762,-78.612968)"
       style="fill:#000000;fill-opacity:0;stroke:#000000;stroke-width:150000;stroke-linecap:round;stroke-linejoin:round;stroke-opacity:1" />
    <g
       id="g25197"
       transform="matrix(9.9999996e-7,0,0,9.9999996e-7,-128.87762,-78.612968)"
       style="fill:#000000;fill-opacity:0;stroke:#000000;stroke-width:150000;stroke-linecap:round;stroke-linejoin:round;stroke-opacity:1" />
    <g
       id="g25199"
       transform="matrix(9.9999996e-7,0,0,9.9999996e-7,-128.87762,-78.612968)"
       style="fill:#000000;fill-opacity:0;stroke:#000000;stroke-width:150000;stroke-linecap:round;stroke-linejoin:round;stroke-opacity:1" />
    <g
       id="g25201"
       transform="matrix(9.9999996e-7,0,0,9.9999996e-7,-128.87762,-78.612968)"
       style="fill:#000000;fill-opacity:0;stroke:#000000;stroke-width:150000;stroke-linecap:round;stroke-linejoin:round;stroke-opacity:1" />
    <g
       id="g25203"
       transform="matrix(9.9999996e-7,0,0,9.9999996e-7,-128.87762,-78.612968)"
       style="fill:#000000;fill-opacity:0;stroke:#000000;stroke-width:150000;stroke-linecap:round;stroke-linejoin:round;stroke-opacity:1" />
    <g
       id="g25205"
       transform="matrix(9.9999996e-7,0,0,9.9999996e-7,-128.87762,-78.612968)"
       style="fill:#000000;fill-opacity:0;stroke:#000000;stroke-width:150000;stroke-linecap:round;stroke-linejoin:round;stroke-opacity:1" />
    <g
       id="g25207"
       transform="matrix(9.9999996e-7,0,0,9.9999996e-7,-128.87762,-78.612968)"
       style="fill:#000000;fill-opacity:0;stroke:#000000;stroke-width:150000;stroke-linecap:round;stroke-linejoin:round;stroke-opacity:1" />
    <g
       id="g25209"
       transform="matrix(9.9999996e-7,0,0,9.9999996e-7,-128.87762,-78.612968)"
       style="fill:#000000;fill-opacity:0;stroke:#000000;stroke-width:150000;stroke-linecap:round;stroke-linejoin:round;stroke-opacity:1" />
    <g
       id="g25211"
       transform="matrix(9.9999996e-7,0,0,9.9999996e-7,-128.87762,-78.612968)"
       style="fill:#000000;fill-opacity:0;stroke:#000000;stroke-width:150000;stroke-linecap:round;stroke-linejoin:round;stroke-opacity:1" />
    <g
       id="g25213"
       transform="matrix(9.9999996e-7,0,0,9.9999996e-7,-128.87762,-78.612968)"
       style="fill:#000000;fill-opacity:0;stroke:#000000;stroke-width:150000;stroke-linecap:round;stroke-linejoin:round;stroke-opacity:1" />
    <g
       id="g25215"
       transform="matrix(9.9999996e-7,0,0,9.9999996e-7,-128.87762,-78.612968)"
       style="fill:#000000;fill-opacity:0;stroke:#000000;stroke-width:150000;stroke-linecap:round;stroke-linejoin:round;stroke-opacity:1" />
    <g
       id="g25217"
       transform="matrix(9.9999996e-7,0,0,9.9999996e-7,-128.87762,-78.612968)"
       style="fill:#000000;fill-opacity:0;stroke:#000000;stroke-width:150000;stroke-linecap:round;stroke-linejoin:round;stroke-opacity:1" />
    <g
       id="g25219"
       transform="matrix(9.9999996e-7,0,0,9.9999996e-7,-128.87762,-78.612968)"
       style="fill:#000000;fill-opacity:0;stroke:#000000;stroke-width:150000;stroke-linecap:round;stroke-linejoin:round;stroke-opacity:1" />
    <g
       id="g25221"
       transform="matrix(9.9999996e-7,0,0,9.9999996e-7,-128.87762,-78.612968)"
       style="fill:#000000;fill-opacity:0;stroke:#000000;stroke-width:150000;stroke-linecap:round;stroke-linejoin:round;stroke-opacity:1" />
    <g
       id="g25223"
       transform="matrix(9.9999996e-7,0,0,9.9999996e-7,-128.87762,-78.612968)"
       style="fill:#000000;fill-opacity:0;stroke:#000000;stroke-width:150000;stroke-linecap:round;stroke-linejoin:round;stroke-opacity:1" />
    <g
       id="g25225"
       transform="matrix(9.9999996e-7,0,0,9.9999996e-7,-128.87762,-78.612968)"
       style="fill:#000000;fill-opacity:0;stroke:#000000;stroke-width:150000;stroke-linecap:round;stroke-linejoin:round;stroke-opacity:1" />
    <g
       id="g25227"
       transform="matrix(9.9999996e-7,0,0,9.9999996e-7,-128.87762,-78.612968)"
       style="fill:#000000;fill-opacity:0;stroke:#000000;stroke-width:150000;stroke-linecap:round;stroke-linejoin:round;stroke-opacity:1" />
    <g
       id="g25229"
       transform="matrix(9.9999996e-7,0,0,9.9999996e-7,-128.87762,-78.612968)"
       style="fill:#000000;fill-opacity:0;stroke:#000000;stroke-width:150000;stroke-linecap:round;stroke-linejoin:round;stroke-opacity:1" />
    <g
       id="g25231"
       transform="matrix(9.9999996e-7,0,0,9.9999996e-7,-128.87762,-78.612968)"
       style="fill:#000000;fill-opacity:0;stroke:#000000;stroke-width:150000;stroke-linecap:round;stroke-linejoin:round;stroke-opacity:1" />
    <g
       id="g25233"
       transform="matrix(9.9999996e-7,0,0,9.9999996e-7,-128.87762,-78.612968)"
       style="fill:#000000;fill-opacity:0;stroke:#000000;stroke-width:150000;stroke-linecap:round;stroke-linejoin:round;stroke-opacity:1" />
    <g
       id="g25235"
       transform="matrix(9.9999996e-7,0,0,9.9999996e-7,-128.87762,-78.612968)"
       style="fill:#000000;fill-opacity:0;stroke:#000000;stroke-width:150000;stroke-linecap:round;stroke-linejoin:round;stroke-opacity:1" />
    <g
       aria-label="Front"
       transform="matrix(0.26458333,0,0,0.26458333,1.5778309,1.1458333e-8)"
       id="text39320"
       style="white-space:pre;shape-inside:url(#rect39322);display:inline;stroke:#000000;stroke-width:0.377953">
      <path
         d="m 59.425781,162.45508 h 5.027344 v 0.99609 h -3.84375 v 2.57813 h 3.46875 v 0.99609 h -3.46875 v 4.17773 h -1.183594 z"
         id="path58311" />
      <path
         d="m 69.210937,165.64844 q -0.18164,-0.10547 -0.398437,-0.15235 -0.210938,-0.0527 -0.46875,-0.0527 -0.914063,0 -1.40625,0.59766 -0.486328,0.59179 -0.486328,1.70507 v 3.45703 h -1.083985 v -6.5625 h 1.083985 v 1.01954 q 0.339844,-0.59766 0.884765,-0.88477 0.544922,-0.29297 1.324219,-0.29297 0.111328,0 0.246094,0.0176 0.134766,0.0117 0.298828,0.041 z"
         id="path58313" />
      <path
         d="m 72.621094,165.39648 q -0.867188,0 -1.371094,0.67969 -0.503906,0.67383 -0.503906,1.85156 0,1.17774 0.498047,1.85743 0.503906,0.67382 1.376953,0.67382 0.861328,0 1.365234,-0.67968 0.503906,-0.67969 0.503906,-1.85157 0,-1.16601 -0.503906,-1.8457 -0.503906,-0.68555 -1.365234,-0.68555 z m 0,-0.91406 q 1.40625,0 2.208984,0.91406 0.802734,0.91407 0.802734,2.53125 0,1.61133 -0.802734,2.53125 -0.802734,0.91407 -2.208984,0.91407 -1.41211,0 -2.214844,-0.91407 -0.796875,-0.91992 -0.796875,-2.53125 0,-1.61718 0.796875,-2.53125 0.802734,-0.91406 2.214844,-0.91406 z"
         id="path58315" />
      <path
         d="m 82.875,167.24219 v 3.96093 h -1.078125 v -3.92578 q 0,-0.93164 -0.363281,-1.39453 -0.363282,-0.46289 -1.089844,-0.46289 -0.873047,0 -1.376953,0.55664 -0.503906,0.55664 -0.503906,1.51758 v 3.70898 h -1.083985 v -6.5625 h 1.083985 v 1.01954 q 0.386718,-0.5918 0.908203,-0.88477 0.527343,-0.29297 1.21289,-0.29297 1.13086,0 1.710938,0.70313 0.580078,0.69726 0.580078,2.05664 z"
         id="path58317" />
      <path
         d="m 86.091797,162.77734 v 1.86328 H 88.3125 v 0.8379 h -2.220703 v 3.5625 q 0,0.80273 0.216797,1.03125 0.222656,0.22851 0.896484,0.22851 H 88.3125 v 0.90234 h -1.107422 q -1.248047,0 -1.722656,-0.46289 -0.47461,-0.46875 -0.47461,-1.69921 v -3.5625 h -0.791015 v -0.8379 h 0.791015 v -1.86328 z"
         id="path58319" />
    </g>
    <rect
       style="fill:none;stroke:#ff0000;stroke-width:0.1;stroke-opacity:1"
       id="rect48393"
       width="89.480202"
       height="50.892429"
       x="0.050000001"
       y="0.050000001"
       transform="translate(-1.7047347,-1.8625509)" />
    <g
       aria-label="Back"
       transform="matrix(0.26458333,0,0,0.26458333,45.631716,0.04883421)"
       id="text47789"
       style="white-space:pre;shape-inside:url(#rect47791);display:inline;stroke:#000000;stroke-width:0.377953">
      <path
         d="m 60.609375,167.02539 v 3.20508 h 1.898437 q 0.955079,0 1.41211,-0.39258 0.46289,-0.39844 0.46289,-1.21289 0,-0.82031 -0.46289,-1.20703 -0.457031,-0.39258 -1.41211,-0.39258 z m 0,-3.59766 v 2.63672 h 1.751953 q 0.867188,0 1.289063,-0.32226 0.427734,-0.32813 0.427734,-0.9961 0,-0.66211 -0.427734,-0.99023 -0.421875,-0.32813 -1.289063,-0.32813 z m -1.183594,-0.97265 h 3.023438 q 1.353515,0 2.085937,0.5625 0.732422,0.5625 0.732422,1.59961 0,0.80273 -0.375,1.27734 -0.375,0.47461 -1.101562,0.5918 0.873046,0.1875 1.353515,0.78515 0.486328,0.5918 0.486328,1.48243 0,1.17187 -0.796875,1.81054 -0.796875,0.63867 -2.267578,0.63867 h -3.140625 z"
         id="path58302" />
      <path
         d="m 70.59375,167.9043 q -1.306641,0 -1.810547,0.29882 -0.503906,0.29883 -0.503906,1.01954 0,0.57421 0.375,0.91406 0.380859,0.33398 1.03125,0.33398 0.896484,0 1.435547,-0.63281 0.544922,-0.63867 0.544922,-1.69336 v -0.24023 z m 2.150391,-0.44532 v 3.74414 h -1.078125 v -0.99609 q -0.369141,0.59766 -0.919922,0.88477 -0.550782,0.28125 -1.347657,0.28125 -1.007812,0 -1.605468,-0.5625 -0.591797,-0.56836 -0.591797,-1.51758 0,-1.10742 0.738281,-1.66992 0.744141,-0.5625 2.214844,-0.5625 h 1.511719 v -0.10547 q 0,-0.74414 -0.492188,-1.14844 -0.486328,-0.41016 -1.371094,-0.41016 -0.5625,0 -1.095703,0.13477 -0.533203,0.13477 -1.02539,0.4043 v -0.9961 q 0.591796,-0.22851 1.148437,-0.33984 0.556641,-0.11719 1.083984,-0.11719 1.423829,0 2.126954,0.73828 0.703125,0.73828 0.703125,2.23828 z"
         id="path58304" />
      <path
         d="m 79.6875,164.89258 v 1.00781 q -0.457031,-0.25195 -0.919922,-0.375 -0.457031,-0.12891 -0.925781,-0.12891 -1.048828,0 -1.628906,0.66797 -0.580079,0.66211 -0.580079,1.86328 0,1.20118 0.580079,1.86914 0.580078,0.66211 1.628906,0.66211 0.46875,0 0.925781,-0.12304 0.462891,-0.12891 0.919922,-0.38086 v 0.99609 q -0.451172,0.21094 -0.9375,0.31641 -0.480469,0.10547 -1.025391,0.10547 -1.482422,0 -2.355468,-0.93164 -0.873047,-0.93164 -0.873047,-2.51368 0,-1.60546 0.878906,-2.52539 0.884766,-0.91992 2.419922,-0.91992 0.498047,0 0.972656,0.10547 0.474609,0.0996 0.919922,0.30469 z"
         id="path58306" />
      <path
         d="m 81.521484,162.08594 h 1.083985 v 5.38476 l 3.216797,-2.83008 h 1.376953 l -3.480469,3.07032 3.626953,3.49218 h -1.40625 l -3.333984,-3.20507 v 3.20507 h -1.083985 z"
         id="path58308" />
    </g>
  </g>
  <g
     inkscape:groupmode="layer"
     id="layer5"
     inkscape:label="Pads"
     style="display:inline"
     transform="translate(1.7047347,1.8625509)">
    <path
       style="fill:#000000;fill-opacity:1;fill-rule:evenodd;stroke:#000000;stroke-width:1e-06;stroke-linecap:round;stroke-linejoin:round;stroke-opacity:1"
       d="m 59.24836,19.076041 0.01522,-0.07654 0.04336,-0.06488 0.06488,-0.04335 0.07654,-0.01522 h 0.4 l 0.07654,0.01522 0.06488,0.04335 0.04336,0.06488 0.01522,0.07654 v 0.55 l -0.01522,0.07654 -0.04336,0.06488 -0.06488,0.04336 -0.07654,0.01522 h -0.4 l -0.07654,-0.01522 -0.06488,-0.04336 -0.04336,-0.06488 -0.01522,-0.07654 z"
       id="path42619" />
    <path
       style="fill:#000000;fill-opacity:1;fill-rule:evenodd;stroke:#000000;stroke-width:1e-06;stroke-linecap:round;stroke-linejoin:round;stroke-opacity:1"
       d="m 60.89836,19.076041 0.01522,-0.07654 0.04336,-0.06488 0.06488,-0.04335 0.07654,-0.01522 h 0.4 l 0.07654,0.01522 0.06488,0.04335 0.04336,0.06488 0.01522,0.07654 v 0.55 l -0.01522,0.07654 -0.04336,0.06488 -0.06488,0.04336 -0.07654,0.01522 h -0.4 l -0.07654,-0.01522 -0.06488,-0.04336 -0.04336,-0.06488 -0.01522,-0.07654 z"
       id="path42621" />
    <path
       style="fill:#000000;fill-opacity:1;fill-rule:evenodd;stroke:#000000;stroke-width:1e-06;stroke-linecap:round;stroke-linejoin:round;stroke-opacity:1"
       d="m 74.02336,17.076041 -0.07654,-0.01522 -0.06488,-0.04336 -0.04336,-0.06488 -0.01522,-0.07654 v -0.4 l 0.01522,-0.07654 0.04336,-0.06488 0.06488,-0.04336 0.07654,-0.01522 h 0.55 l 0.07654,0.01522 0.06488,0.04336 0.04336,0.06488 0.01522,0.07654 v 0.4 l -0.01522,0.07654 -0.04336,0.06488 -0.06488,0.04336 -0.07654,0.01522 z"
       id="path42627" />
    <path
       style="fill:#000000;fill-opacity:1;fill-rule:evenodd;stroke:#000000;stroke-width:1e-06;stroke-linecap:round;stroke-linejoin:round;stroke-opacity:1"
       d="m 74.02336,15.426041 -0.07654,-0.01522 -0.06488,-0.04336 -0.04336,-0.06488 -0.01522,-0.07654 v -0.4 l 0.01522,-0.07654 0.04336,-0.06488 0.06488,-0.04336 0.07654,-0.01522 h 0.55 l 0.07654,0.01522 0.06488,0.04336 0.04336,0.06488 0.01522,0.07654 v 0.4 l -0.01522,0.07654 -0.04336,0.06488 -0.06488,0.04336 -0.07654,0.01522 z"
       id="path42629" />
    <path
       style="fill:#000000;fill-opacity:1;fill-rule:evenodd;stroke:#000000;stroke-width:1e-06;stroke-linecap:round;stroke-linejoin:round;stroke-opacity:1"
       d="m 75.39836,21.401041 0.0861,0.01713 0.073,0.04877 0.04877,0.073 0.01713,0.0861 v 0.45 l -0.01713,0.0861 -0.04877,0.073 -0.073,0.04877 -0.0861,0.01713 h -0.5 l -0.0861,-0.01713 -0.073,-0.04877 -0.04877,-0.073 -0.01713,-0.0861 v -0.45 l 0.01713,-0.0861 0.04877,-0.073 0.073,-0.04877 0.0861,-0.01713 z"
       id="path42639" />
    <path
       style="fill:#000000;fill-opacity:1;fill-rule:evenodd;stroke:#000000;stroke-width:1e-06;stroke-linecap:round;stroke-linejoin:round;stroke-opacity:1"
       d="m 75.39836,22.951041 0.0861,0.01713 0.073,0.04877 0.04877,0.073 0.01713,0.0861 v 0.45 l -0.01713,0.0861 -0.04877,0.073 -0.073,0.04877 -0.0861,0.01713 h -0.5 l -0.0861,-0.01713 -0.073,-0.04877 -0.04877,-0.073 -0.01713,-0.0861 v -0.45 l 0.01713,-0.0861 0.04877,-0.073 0.073,-0.04877 0.0861,-0.01713 z"
       id="path42641" />
    <path
       style="fill:#000000;fill-opacity:1;fill-rule:evenodd;stroke:#000000;stroke-width:1e-06;stroke-linecap:round;stroke-linejoin:round;stroke-opacity:1"
       d="m 75.42336,18.426041 0.07654,0.01522 0.06488,0.04335 0.04336,0.06488 0.01522,0.07654 v 0.4 l -0.01522,0.07654 -0.04336,0.06488 -0.06488,0.04335 -0.07654,0.01522 h -0.55 l -0.07654,-0.01522 -0.06488,-0.04335 -0.04336,-0.06488 -0.01522,-0.07654 v -0.4 l 0.01522,-0.07654 0.04336,-0.06488 0.06488,-0.04335 0.07654,-0.01522 z"
       id="path42647" />
    <path
       style="fill:#000000;fill-opacity:1;fill-rule:evenodd;stroke:#000000;stroke-width:1e-06;stroke-linecap:round;stroke-linejoin:round;stroke-opacity:1"
       d="m 75.42336,20.076041 0.07654,0.01522 0.06488,0.04336 0.04336,0.06488 0.01522,0.07654 v 0.4 l -0.01522,0.07654 -0.04336,0.06488 -0.06488,0.04336 -0.07654,0.01522 h -0.55 l -0.07654,-0.01522 -0.06488,-0.04336 -0.04336,-0.06488 -0.01522,-0.07654 v -0.4 l 0.01522,-0.07654 0.04336,-0.06488 0.06488,-0.04336 0.07654,-0.01522 z"
       id="path42649" />
    <path
       style="fill:#000000;fill-opacity:1;fill-rule:evenodd;stroke:#000000;stroke-width:1e-06;stroke-linecap:round;stroke-linejoin:round;stroke-opacity:1"
       d="m 66.22336,22.276041 -0.01903,0.09567 -0.05419,0.08111 -0.08111,0.05419 -0.09567,0.01903 h -0.55 l -0.09567,-0.01903 -0.08111,-0.05419 -0.05419,-0.08111 -0.01903,-0.09567 v -0.55 l 0.01903,-0.09567 0.05419,-0.08111 0.08111,-0.05419 0.09567,-0.01903 h 0.55 l 0.09567,0.01903 0.08111,0.05419 0.05419,0.08111 0.01903,0.09567 z"
       id="path42657" />
    <path
       style="fill:#000000;fill-opacity:1;fill-rule:evenodd;stroke:#000000;stroke-width:1e-06;stroke-linecap:round;stroke-linejoin:round;stroke-opacity:1"
       d="m 66.22336,20.976041 -0.01903,0.09567 -0.05419,0.08111 -0.08111,0.05419 -0.09567,0.01903 h -0.55 l -0.09567,-0.01903 -0.08111,-0.05419 -0.05419,-0.08111 -0.01903,-0.09567 v -0.55 l 0.01903,-0.09567 0.05419,-0.08111 0.08111,-0.05419 0.09567,-0.01903 h 0.55 l 0.09567,0.01903 0.08111,0.05419 0.05419,0.08111 0.01903,0.09567 z"
       id="path42659" />
    <path
       style="fill:#000000;fill-opacity:1;fill-rule:evenodd;stroke:#000000;stroke-width:1e-06;stroke-linecap:round;stroke-linejoin:round;stroke-opacity:1"
       d="m 64.92336,20.976041 -0.01903,0.09567 -0.05419,0.08111 -0.08111,0.05419 -0.09567,0.01903 h -0.55 l -0.09567,-0.01903 -0.08111,-0.05419 -0.05419,-0.08111 -0.01903,-0.09567 v -0.55 l 0.01903,-0.09567 0.05419,-0.08111 0.08111,-0.05419 0.09567,-0.01903 h 0.55 l 0.09567,0.01903 0.08111,0.05419 0.05419,0.08111 0.01903,0.09567 z"
       id="path42661" />
    <path
       style="fill:#000000;fill-opacity:1;fill-rule:evenodd;stroke:#000000;stroke-width:1e-06;stroke-linecap:round;stroke-linejoin:round;stroke-opacity:1"
       d="m 64.92336,22.276041 -0.01903,0.09567 -0.05419,0.08111 -0.08111,0.05419 -0.09567,0.01903 h -0.55 l -0.09567,-0.01903 -0.08111,-0.05419 -0.05419,-0.08111 -0.01903,-0.09567 v -0.55 l 0.01903,-0.09567 0.05419,-0.08111 0.08111,-0.05419 0.09567,-0.01903 h 0.55 l 0.09567,0.01903 0.08111,0.05419 0.05419,0.08111 0.01903,0.09567 z"
       id="path42663" />
    <path
       style="fill:#000000;fill-opacity:1;fill-rule:evenodd;stroke:#000000;stroke-width:1e-06;stroke-linecap:round;stroke-linejoin:round;stroke-opacity:1"
       d="m 67.39836,20.163541 -0.0048,0.02392 -0.01355,0.02028 -0.02027,0.01355 -0.02392,0.0048 h -0.7 l -0.02392,-0.0048 -0.02027,-0.01355 -0.01355,-0.02028 -0.0048,-0.02392 v -0.125 l 0.0048,-0.02392 0.01355,-0.02028 0.02027,-0.01355 0.02392,-0.0048 h 0.7 l 0.02392,0.0048 0.02027,0.01355 0.01355,0.02028 0.0048,0.02392 z"
       id="path42665" />
    <path
       style="fill:#000000;fill-opacity:1;fill-rule:evenodd;stroke:#000000;stroke-width:1e-06;stroke-linecap:round;stroke-linejoin:round;stroke-opacity:1"
       d="m 67.39836,20.663541 -0.0048,0.02392 -0.01355,0.02028 -0.02027,0.01355 -0.02392,0.0048 h -0.7 l -0.02392,-0.0048 -0.02027,-0.01355 -0.01355,-0.02028 -0.0048,-0.02392 v -0.125 l 0.0048,-0.02392 0.01355,-0.02028 0.02027,-0.01355 0.02392,-0.0048 h 0.7 l 0.02392,0.0048 0.02027,0.01355 0.01355,0.02028 0.0048,0.02392 z"
       id="path42667" />
    <path
       style="fill:#000000;fill-opacity:1;fill-rule:evenodd;stroke:#000000;stroke-width:1e-06;stroke-linecap:round;stroke-linejoin:round;stroke-opacity:1"
       d="m 67.39836,21.163541 -0.0048,0.02392 -0.01355,0.02028 -0.02027,0.01355 -0.02392,0.0048 h -0.7 l -0.02392,-0.0048 -0.02027,-0.01355 -0.01355,-0.02028 -0.0048,-0.02392 v -0.125 l 0.0048,-0.02392 0.01355,-0.02028 0.02027,-0.01355 0.02392,-0.0048 h 0.7 l 0.02392,0.0048 0.02027,0.01355 0.01355,0.02028 0.0048,0.02392 z"
       id="path42669" />
    <path
       style="fill:#000000;fill-opacity:1;fill-rule:evenodd;stroke:#000000;stroke-width:1e-06;stroke-linecap:round;stroke-linejoin:round;stroke-opacity:1"
       d="m 67.39836,21.663541 -0.0048,0.02392 -0.01355,0.02027 -0.02027,0.01355 -0.02392,0.0048 h -0.7 l -0.02392,-0.0048 -0.02027,-0.01355 -0.01355,-0.02027 -0.0048,-0.02392 v -0.125 l 0.0048,-0.02392 0.01355,-0.02027 0.02027,-0.01355 0.02392,-0.0048 h 0.7 l 0.02392,0.0048 0.02027,0.01355 0.01355,0.02027 0.0048,0.02392 z"
       id="path42671" />
    <path
       style="fill:#000000;fill-opacity:1;fill-rule:evenodd;stroke:#000000;stroke-width:1e-06;stroke-linecap:round;stroke-linejoin:round;stroke-opacity:1"
       d="m 67.39836,22.163541 -0.0048,0.02392 -0.01355,0.02027 -0.02027,0.01355 -0.02392,0.0048 h -0.7 l -0.02392,-0.0048 -0.02027,-0.01355 -0.01355,-0.02027 -0.0048,-0.02392 v -0.125 l 0.0048,-0.02392 0.01355,-0.02027 0.02027,-0.01355 0.02392,-0.0048 h 0.7 l 0.02392,0.0048 0.02027,0.01355 0.01355,0.02027 0.0048,0.02392 z"
       id="path42673" />
    <path
       style="fill:#000000;fill-opacity:1;fill-rule:evenodd;stroke:#000000;stroke-width:1e-06;stroke-linecap:round;stroke-linejoin:round;stroke-opacity:1"
       d="m 67.39836,22.663541 -0.0048,0.02392 -0.01355,0.02027 -0.02027,0.01355 -0.02392,0.0048 h -0.7 l -0.02392,-0.0048 -0.02027,-0.01355 -0.01355,-0.02027 -0.0048,-0.02392 v -0.125 l 0.0048,-0.02392 0.01355,-0.02027 0.02027,-0.01355 0.02392,-0.0048 h 0.7 l 0.02392,0.0048 0.02027,0.01355 0.01355,0.02027 0.0048,0.02392 z"
       id="path42675" />
    <path
       style="fill:#000000;fill-opacity:1;fill-rule:evenodd;stroke:#000000;stroke-width:1e-06;stroke-linecap:round;stroke-linejoin:round;stroke-opacity:1"
       d="m 66.42336,23.638541 -0.0048,0.02392 -0.01355,0.02027 -0.02027,0.01355 -0.02392,0.0048 h -0.125 l -0.02392,-0.0048 -0.02027,-0.01355 -0.01355,-0.02027 -0.0048,-0.02392 v -0.7 l 0.0048,-0.02392 0.01355,-0.02027 0.02027,-0.01355 0.02392,-0.0048 h 0.125 l 0.02392,0.0048 0.02027,0.01355 0.01355,0.02027 0.0048,0.02392 z"
       id="path42677" />
    <path
       style="fill:#000000;fill-opacity:1;fill-rule:evenodd;stroke:#000000;stroke-width:1e-06;stroke-linecap:round;stroke-linejoin:round;stroke-opacity:1"
       d="m 65.92336,23.638541 -0.0048,0.02392 -0.01355,0.02027 -0.02027,0.01355 -0.02392,0.0048 h -0.125 l -0.02392,-0.0048 -0.02027,-0.01355 -0.01355,-0.02027 -0.0048,-0.02392 v -0.7 l 0.0048,-0.02392 0.01355,-0.02027 0.02027,-0.01355 0.02392,-0.0048 h 0.125 l 0.02392,0.0048 0.02027,0.01355 0.01355,0.02027 0.0048,0.02392 z"
       id="path42679" />
    <path
       style="fill:#000000;fill-opacity:1;fill-rule:evenodd;stroke:#000000;stroke-width:1e-06;stroke-linecap:round;stroke-linejoin:round;stroke-opacity:1"
       d="m 65.42336,23.638541 -0.0048,0.02392 -0.01355,0.02027 -0.02027,0.01355 -0.02392,0.0048 h -0.125 l -0.02392,-0.0048 -0.02027,-0.01355 -0.01355,-0.02027 -0.0048,-0.02392 v -0.7 l 0.0048,-0.02392 0.01355,-0.02027 0.02027,-0.01355 0.02392,-0.0048 h 0.125 l 0.02392,0.0048 0.02027,0.01355 0.01355,0.02027 0.0048,0.02392 z"
       id="path42681" />
    <path
       style="fill:#000000;fill-opacity:1;fill-rule:evenodd;stroke:#000000;stroke-width:1e-06;stroke-linecap:round;stroke-linejoin:round;stroke-opacity:1"
       d="m 64.92336,23.638541 -0.0048,0.02392 -0.01355,0.02027 -0.02027,0.01355 -0.02392,0.0048 h -0.125 l -0.02392,-0.0048 -0.02027,-0.01355 -0.01355,-0.02027 -0.0048,-0.02392 v -0.7 l 0.0048,-0.02392 0.01355,-0.02027 0.02027,-0.01355 0.02392,-0.0048 h 0.125 l 0.02392,0.0048 0.02027,0.01355 0.01355,0.02027 0.0048,0.02392 z"
       id="path42683" />
    <path
       style="fill:#000000;fill-opacity:1;fill-rule:evenodd;stroke:#000000;stroke-width:1e-06;stroke-linecap:round;stroke-linejoin:round;stroke-opacity:1"
       d="m 64.42336,23.638541 -0.0048,0.02392 -0.01355,0.02027 -0.02027,0.01355 -0.02392,0.0048 h -0.125 l -0.02392,-0.0048 -0.02027,-0.01355 -0.01355,-0.02027 -0.0048,-0.02392 v -0.7 l 0.0048,-0.02392 0.01355,-0.02027 0.02027,-0.01355 0.02392,-0.0048 h 0.125 l 0.02392,0.0048 0.02027,0.01355 0.01355,0.02027 0.0048,0.02392 z"
       id="path42685" />
    <path
       style="fill:#000000;fill-opacity:1;fill-rule:evenodd;stroke:#000000;stroke-width:1e-06;stroke-linecap:round;stroke-linejoin:round;stroke-opacity:1"
       d="m 63.92336,23.638541 -0.0048,0.02392 -0.01355,0.02027 -0.02027,0.01355 -0.02392,0.0048 h -0.125 l -0.02392,-0.0048 -0.02027,-0.01355 -0.01355,-0.02027 -0.0048,-0.02392 v -0.7 l 0.0048,-0.02392 0.01355,-0.02027 0.02027,-0.01355 0.02392,-0.0048 h 0.125 l 0.02392,0.0048 0.02027,0.01355 0.01355,0.02027 0.0048,0.02392 z"
       id="path42687" />
    <path
       style="fill:#000000;fill-opacity:1;fill-rule:evenodd;stroke:#000000;stroke-width:1e-06;stroke-linecap:round;stroke-linejoin:round;stroke-opacity:1"
       d="m 63.52336,22.663541 -0.0048,0.02392 -0.01355,0.02027 -0.02027,0.01355 -0.02392,0.0048 h -0.7 l -0.02392,-0.0048 -0.02027,-0.01355 -0.01355,-0.02027 -0.0048,-0.02392 v -0.125 l 0.0048,-0.02392 0.01355,-0.02027 0.02027,-0.01355 0.02392,-0.0048 h 0.7 l 0.02392,0.0048 0.02027,0.01355 0.01355,0.02027 0.0048,0.02392 z"
       id="path42689" />
    <path
       style="fill:#000000;fill-opacity:1;fill-rule:evenodd;stroke:#000000;stroke-width:1e-06;stroke-linecap:round;stroke-linejoin:round;stroke-opacity:1"
       d="m 63.52336,22.163541 -0.0048,0.02392 -0.01355,0.02027 -0.02027,0.01355 -0.02392,0.0048 h -0.7 l -0.02392,-0.0048 -0.02027,-0.01355 -0.01355,-0.02027 -0.0048,-0.02392 v -0.125 l 0.0048,-0.02392 0.01355,-0.02027 0.02027,-0.01355 0.02392,-0.0048 h 0.7 l 0.02392,0.0048 0.02027,0.01355 0.01355,0.02027 0.0048,0.02392 z"
       id="path42691" />
    <path
       style="fill:#000000;fill-opacity:1;fill-rule:evenodd;stroke:#000000;stroke-width:1e-06;stroke-linecap:round;stroke-linejoin:round;stroke-opacity:1"
       d="m 63.52336,21.663541 -0.0048,0.02392 -0.01355,0.02027 -0.02027,0.01355 -0.02392,0.0048 h -0.7 l -0.02392,-0.0048 -0.02027,-0.01355 -0.01355,-0.02027 -0.0048,-0.02392 v -0.125 l 0.0048,-0.02392 0.01355,-0.02027 0.02027,-0.01355 0.02392,-0.0048 h 0.7 l 0.02392,0.0048 0.02027,0.01355 0.01355,0.02027 0.0048,0.02392 z"
       id="path42693" />
    <path
       style="fill:#000000;fill-opacity:1;fill-rule:evenodd;stroke:#000000;stroke-width:1e-06;stroke-linecap:round;stroke-linejoin:round;stroke-opacity:1"
       d="m 63.52336,21.163541 -0.0048,0.02392 -0.01355,0.02028 -0.02027,0.01355 -0.02392,0.0048 h -0.7 l -0.02392,-0.0048 -0.02027,-0.01355 -0.01355,-0.02028 -0.0048,-0.02392 v -0.125 l 0.0048,-0.02392 0.01355,-0.02028 0.02027,-0.01355 0.02392,-0.0048 h 0.7 l 0.02392,0.0048 0.02027,0.01355 0.01355,0.02028 0.0048,0.02392 z"
       id="path42695" />
    <path
       style="fill:#000000;fill-opacity:1;fill-rule:evenodd;stroke:#000000;stroke-width:1e-06;stroke-linecap:round;stroke-linejoin:round;stroke-opacity:1"
       d="m 63.52336,20.663541 -0.0048,0.02392 -0.01355,0.02028 -0.02027,0.01355 -0.02392,0.0048 h -0.7 l -0.02392,-0.0048 -0.02027,-0.01355 -0.01355,-0.02028 -0.0048,-0.02392 v -0.125 l 0.0048,-0.02392 0.01355,-0.02028 0.02027,-0.01355 0.02392,-0.0048 h 0.7 l 0.02392,0.0048 0.02027,0.01355 0.01355,0.02028 0.0048,0.02392 z"
       id="path42697" />
    <path
       style="fill:#000000;fill-opacity:1;fill-rule:evenodd;stroke:#000000;stroke-width:1e-06;stroke-linecap:round;stroke-linejoin:round;stroke-opacity:1"
       d="m 63.52336,20.163541 -0.0048,0.02392 -0.01355,0.02028 -0.02027,0.01355 -0.02392,0.0048 h -0.7 l -0.02392,-0.0048 -0.02027,-0.01355 -0.01355,-0.02028 -0.0048,-0.02392 v -0.125 l 0.0048,-0.02392 0.01355,-0.02028 0.02027,-0.01355 0.02392,-0.0048 h 0.7 l 0.02392,0.0048 0.02027,0.01355 0.01355,0.02028 0.0048,0.02392 z"
       id="path42699" />
    <path
       style="fill:#000000;fill-opacity:1;fill-rule:evenodd;stroke:#000000;stroke-width:1e-06;stroke-linecap:round;stroke-linejoin:round;stroke-opacity:1"
       d="m 63.92336,19.763541 -0.0048,0.02392 -0.01355,0.02028 -0.02027,0.01355 -0.02392,0.0048 h -0.125 l -0.02392,-0.0048 -0.02027,-0.01355 -0.01355,-0.02028 -0.0048,-0.02392 v -0.7 l 0.0048,-0.02392 0.01355,-0.02028 0.02027,-0.01355 0.02392,-0.0048 h 0.125 l 0.02392,0.0048 0.02027,0.01355 0.01355,0.02028 0.0048,0.02392 z"
       id="path42701" />
    <path
       style="fill:#000000;fill-opacity:1;fill-rule:evenodd;stroke:#000000;stroke-width:1e-06;stroke-linecap:round;stroke-linejoin:round;stroke-opacity:1"
       d="m 64.42336,19.763541 -0.0048,0.02392 -0.01355,0.02028 -0.02027,0.01355 -0.02392,0.0048 h -0.125 l -0.02392,-0.0048 -0.02027,-0.01355 -0.01355,-0.02028 -0.0048,-0.02392 v -0.7 l 0.0048,-0.02392 0.01355,-0.02028 0.02027,-0.01355 0.02392,-0.0048 h 0.125 l 0.02392,0.0048 0.02027,0.01355 0.01355,0.02028 0.0048,0.02392 z"
       id="path42703" />
    <path
       style="fill:#000000;fill-opacity:1;fill-rule:evenodd;stroke:#000000;stroke-width:1e-06;stroke-linecap:round;stroke-linejoin:round;stroke-opacity:1"
       d="m 64.92336,19.763541 -0.0048,0.02392 -0.01355,0.02028 -0.02027,0.01355 -0.02392,0.0048 h -0.125 l -0.02392,-0.0048 -0.02027,-0.01355 -0.01355,-0.02028 -0.0048,-0.02392 v -0.7 l 0.0048,-0.02392 0.01355,-0.02028 0.02027,-0.01355 0.02392,-0.0048 h 0.125 l 0.02392,0.0048 0.02027,0.01355 0.01355,0.02028 0.0048,0.02392 z"
       id="path42705" />
    <path
       style="fill:#000000;fill-opacity:1;fill-rule:evenodd;stroke:#000000;stroke-width:1e-06;stroke-linecap:round;stroke-linejoin:round;stroke-opacity:1"
       d="m 65.42336,19.763541 -0.0048,0.02392 -0.01355,0.02028 -0.02027,0.01355 -0.02392,0.0048 h -0.125 l -0.02392,-0.0048 -0.02027,-0.01355 -0.01355,-0.02028 -0.0048,-0.02392 v -0.7 l 0.0048,-0.02392 0.01355,-0.02028 0.02027,-0.01355 0.02392,-0.0048 h 0.125 l 0.02392,0.0048 0.02027,0.01355 0.01355,0.02028 0.0048,0.02392 z"
       id="path42707" />
    <path
       style="fill:#000000;fill-opacity:1;fill-rule:evenodd;stroke:#000000;stroke-width:1e-06;stroke-linecap:round;stroke-linejoin:round;stroke-opacity:1"
       d="m 65.92336,19.763541 -0.0048,0.02392 -0.01355,0.02028 -0.02027,0.01355 -0.02392,0.0048 h -0.125 l -0.02392,-0.0048 -0.02027,-0.01355 -0.01355,-0.02028 -0.0048,-0.02392 v -0.7 l 0.0048,-0.02392 0.01355,-0.02028 0.02027,-0.01355 0.02392,-0.0048 h 0.125 l 0.02392,0.0048 0.02027,0.01355 0.01355,0.02028 0.0048,0.02392 z"
       id="path42709" />
    <path
       style="fill:#000000;fill-opacity:1;fill-rule:evenodd;stroke:#000000;stroke-width:1e-06;stroke-linecap:round;stroke-linejoin:round;stroke-opacity:1"
       d="m 66.42336,19.763541 -0.0048,0.02392 -0.01355,0.02028 -0.02027,0.01355 -0.02392,0.0048 h -0.125 l -0.02392,-0.0048 -0.02027,-0.01355 -0.01355,-0.02028 -0.0048,-0.02392 v -0.7 l 0.0048,-0.02392 0.01355,-0.02028 0.02027,-0.01355 0.02392,-0.0048 h 0.125 l 0.02392,0.0048 0.02027,0.01355 0.01355,0.02028 0.0048,0.02392 z"
       id="path42711" />
    <path
       style="fill:#000000;fill-opacity:1;fill-rule:evenodd;stroke:#000000;stroke-width:1e-06;stroke-linecap:round;stroke-linejoin:round;stroke-opacity:1"
       d="m 61.67336,16.001041 -0.01713,0.0861 -0.04877,0.07299 -0.073,0.04877 -0.0861,0.01713 h -0.45 l -0.0861,-0.01713 -0.073,-0.04877 -0.04877,-0.07299 -0.01713,-0.0861 v -0.5 l 0.01713,-0.0861 0.04877,-0.073 0.073,-0.04877 0.0861,-0.01713 h 0.45 l 0.0861,0.01713 0.073,0.04877 0.04877,0.073 0.01713,0.0861 z"
       id="path42723" />
    <path
       style="fill:#000000;fill-opacity:1;fill-rule:evenodd;stroke:#000000;stroke-width:1e-06;stroke-linecap:round;stroke-linejoin:round;stroke-opacity:1"
       d="m 60.12336,16.001041 -0.01713,0.0861 -0.04877,0.07299 -0.073,0.04877 -0.0861,0.01713 h -0.45 l -0.0861,-0.01713 -0.073,-0.04877 -0.04877,-0.07299 -0.01713,-0.0861 v -0.5 l 0.01713,-0.0861 0.04877,-0.073 0.073,-0.04877 0.0861,-0.01713 h 0.45 l 0.0861,0.01713 0.073,0.04877 0.04877,0.073 0.01713,0.0861 z"
       id="path42725" />
    <path
       style="fill:#000000;fill-opacity:1;fill-rule:evenodd;stroke:#000000;stroke-width:1e-06;stroke-linecap:round;stroke-linejoin:round;stroke-opacity:1"
       d="m 49.823361,38.57604 0.01522,-0.07654 0.04336,-0.06488 0.06488,-0.04336 0.07654,-0.01522 h 0.4 l 0.07654,0.01522 0.06488,0.04336 0.04336,0.06488 0.01522,0.07654 v 0.55 l -0.01522,0.07654 -0.04336,0.06488 -0.06488,0.04336 -0.07654,0.01522 h -0.4 l -0.07654,-0.01522 -0.06488,-0.04336 -0.04336,-0.06488 -0.01522,-0.07654 z"
       id="path42731" />
    <path
       style="fill:#000000;fill-opacity:1;fill-rule:evenodd;stroke:#000000;stroke-width:1e-06;stroke-linecap:round;stroke-linejoin:round;stroke-opacity:1"
       d="m 51.473361,38.57604 0.01522,-0.07654 0.04336,-0.06488 0.06488,-0.04336 0.07654,-0.01522 h 0.4 l 0.07654,0.01522 0.06488,0.04336 0.04336,0.06488 0.01522,0.07654 v 0.55 l -0.01522,0.07654 -0.04336,0.06488 -0.06488,0.04336 -0.07654,0.01522 h -0.4 l -0.07654,-0.01522 -0.06488,-0.04336 -0.04336,-0.06488 -0.01522,-0.07654 z"
       id="path42733" />
    <path
       style="fill:#000000;fill-opacity:1;fill-rule:evenodd;stroke:#000000;stroke-width:1e-06;stroke-linecap:round;stroke-linejoin:round;stroke-opacity:1"
       d="m 68.20636,25.282041 0.0861,0.01713 0.073,0.04877 0.04877,0.073 0.01713,0.0861 v 0.45 l -0.01713,0.0861 -0.04877,0.073 -0.073,0.04877 -0.0861,0.01713 h -0.5 l -0.0861,-0.01713 -0.073,-0.04877 -0.04877,-0.073 -0.01713,-0.0861 v -0.45 l 0.01713,-0.0861 0.04877,-0.073 0.073,-0.04877 0.0861,-0.01713 z"
       id="path42741" />
    <path
       style="fill:#000000;fill-opacity:1;fill-rule:evenodd;stroke:#000000;stroke-width:1e-06;stroke-linecap:round;stroke-linejoin:round;stroke-opacity:1"
       d="m 68.20636,26.832041 0.0861,0.01713 0.073,0.04877 0.04877,0.073 0.01713,0.0861 v 0.45 l -0.01713,0.0861 -0.04877,0.073 -0.073,0.04877 -0.0861,0.01713 h -0.5 l -0.0861,-0.01713 -0.073,-0.04877 -0.04877,-0.073 -0.01713,-0.0861 v -0.45 l 0.01713,-0.0861 0.04877,-0.073 0.073,-0.04877 0.0861,-0.01713 z"
       id="path42743" />
    <path
       style="fill:#000000;fill-opacity:1;fill-rule:evenodd;stroke:#000000;stroke-width:1e-06;stroke-linecap:round;stroke-linejoin:round;stroke-opacity:1"
       d="m 59.19836,20.676041 0.01522,-0.07654 0.04336,-0.06488 0.06488,-0.04336 0.07654,-0.01522 h 0.4 l 0.07654,0.01522 0.06488,0.04336 0.04336,0.06488 0.01522,0.07654 v 0.55 l -0.01522,0.07654 -0.04336,0.06488 -0.06488,0.04336 -0.07654,0.01522 h -0.4 l -0.07654,-0.01522 -0.06488,-0.04336 -0.04336,-0.06488 -0.01522,-0.07654 z"
       id="path42755" />
    <path
       style="fill:#000000;fill-opacity:1;fill-rule:evenodd;stroke:#000000;stroke-width:1e-06;stroke-linecap:round;stroke-linejoin:round;stroke-opacity:1"
       d="m 60.84836,20.676041 0.01522,-0.07654 0.04336,-0.06488 0.06488,-0.04336 0.07654,-0.01522 h 0.4 l 0.07654,0.01522 0.06488,0.04336 0.04336,0.06488 0.01522,0.07654 v 0.55 l -0.01522,0.07654 -0.04336,0.06488 -0.06488,0.04336 -0.07654,0.01522 h -0.4 l -0.07654,-0.01522 -0.06488,-0.04336 -0.04336,-0.06488 -0.01522,-0.07654 z"
       id="path42757" />
    <path
       style="fill:#000000;fill-opacity:1;fill-rule:evenodd;stroke:#000000;stroke-width:1e-06;stroke-linecap:round;stroke-linejoin:round;stroke-opacity:1"
       d="m 59.24836,17.476041 0.01522,-0.07654 0.04336,-0.06488 0.06488,-0.04336 0.07654,-0.01522 h 0.4 l 0.07654,0.01522 0.06488,0.04336 0.04336,0.06488 0.01522,0.07654 v 0.55 l -0.01522,0.07654 -0.04336,0.06488 -0.06488,0.04335 -0.07654,0.01522 h -0.4 l -0.07654,-0.01522 -0.06488,-0.04335 -0.04336,-0.06488 -0.01522,-0.07654 z"
       id="path42763" />
    <path
       style="fill:#000000;fill-opacity:1;fill-rule:evenodd;stroke:#000000;stroke-width:1e-06;stroke-linecap:round;stroke-linejoin:round;stroke-opacity:1"
       d="m 60.89836,17.476041 0.01522,-0.07654 0.04336,-0.06488 0.06488,-0.04336 0.07654,-0.01522 h 0.4 l 0.07654,0.01522 0.06488,0.04336 0.04336,0.06488 0.01522,0.07654 v 0.55 l -0.01522,0.07654 -0.04336,0.06488 -0.06488,0.04335 -0.07654,0.01522 h -0.4 l -0.07654,-0.01522 -0.06488,-0.04335 -0.04336,-0.06488 -0.01522,-0.07654 z"
       id="path42765" />
    <path
       style="fill:#000000;fill-opacity:1;fill-rule:evenodd;stroke:#000000;stroke-width:1e-06;stroke-linecap:round;stroke-linejoin:round;stroke-opacity:1"
       d="m 71.72136,25.766041 -0.01522,0.07654 -0.04336,0.06488 -0.06488,0.04336 -0.07654,0.01522 h -0.4 l -0.07654,-0.01522 -0.06488,-0.04336 -0.04336,-0.06488 -0.01522,-0.07654 v -0.55 l 0.01522,-0.07654 0.04336,-0.06488 0.06488,-0.04336 0.07654,-0.01522 h 0.4 l 0.07654,0.01522 0.06488,0.04336 0.04336,0.06488 0.01522,0.07654 z"
       id="path42771" />
    <path
       style="fill:#000000;fill-opacity:1;fill-rule:evenodd;stroke:#000000;stroke-width:1e-06;stroke-linecap:round;stroke-linejoin:round;stroke-opacity:1"
       d="m 70.07136,25.766041 -0.01522,0.07654 -0.04336,0.06488 -0.06488,0.04336 -0.07654,0.01522 h -0.4 l -0.07654,-0.01522 -0.06488,-0.04336 -0.04336,-0.06488 -0.01522,-0.07654 v -0.55 l 0.01522,-0.07654 0.04336,-0.06488 0.06488,-0.04336 0.07654,-0.01522 h 0.4 l 0.07654,0.01522 0.06488,0.04336 0.04336,0.06488 0.01522,0.07654 z"
       id="path42773" />
    <path
       style="fill:#000000;fill-opacity:1;fill-rule:evenodd;stroke:#000000;stroke-width:1e-06;stroke-linecap:round;stroke-linejoin:round;stroke-opacity:1"
       d="m 68.69836,19.476041 -0.0861,-0.01713 -0.073,-0.04877 -0.04877,-0.07299 -0.01713,-0.0861 v -0.45 l 0.01713,-0.0861 0.04877,-0.07299 0.073,-0.04877 0.0861,-0.01713 h 0.5 l 0.0861,0.01713 0.073,0.04877 0.04877,0.07299 0.01713,0.0861 v 0.45 l -0.01713,0.0861 -0.04877,0.07299 -0.073,0.04877 -0.0861,0.01713 z"
       id="path42779" />
    <path
       style="fill:#000000;fill-opacity:1;fill-rule:evenodd;stroke:#000000;stroke-width:1e-06;stroke-linecap:round;stroke-linejoin:round;stroke-opacity:1"
       d="m 68.69836,17.926041 -0.0861,-0.01713 -0.073,-0.04877 -0.04877,-0.073 -0.01713,-0.0861 v -0.45 l 0.01713,-0.0861 0.04877,-0.07299 0.073,-0.04877 0.0861,-0.01713 h 0.5 l 0.0861,0.01713 0.073,0.04877 0.04877,0.07299 0.01713,0.0861 v 0.45 l -0.01713,0.0861 -0.04877,0.073 -0.073,0.04877 -0.0861,0.01713 z"
       id="path42781" />
    <path
       style="fill:#000000;fill-opacity:1;fill-rule:evenodd;stroke:#000000;stroke-width:1e-06;stroke-linecap:round;stroke-linejoin:round;stroke-opacity:1"
       d="m 73.07336,14.626041 0.07654,0.01522 0.06488,0.04336 0.04336,0.06488 0.01522,0.07654 v 0.4 l -0.01522,0.07654 -0.04336,0.06488 -0.06488,0.04336 -0.07654,0.01522 h -0.55 l -0.07654,-0.01522 -0.06488,-0.04336 -0.04336,-0.06488 -0.01522,-0.07654 v -0.4 l 0.01522,-0.07654 0.04336,-0.06488 0.06488,-0.04336 0.07654,-0.01522 z"
       id="path42787" />
    <path
       style="fill:#000000;fill-opacity:1;fill-rule:evenodd;stroke:#000000;stroke-width:1e-06;stroke-linecap:round;stroke-linejoin:round;stroke-opacity:1"
       d="m 73.07336,16.276041 0.07654,0.01522 0.06488,0.04336 0.04336,0.06488 0.01522,0.07654 v 0.4 l -0.01522,0.07654 -0.04336,0.06488 -0.06488,0.04336 -0.07654,0.01522 h -0.55 l -0.07654,-0.01522 -0.06488,-0.04336 -0.04336,-0.06488 -0.01522,-0.07654 v -0.4 l 0.01522,-0.07654 0.04336,-0.06488 0.06488,-0.04336 0.07654,-0.01522 z"
       id="path42789" />
    <path
       style="fill:#000000;fill-opacity:1;fill-rule:evenodd;stroke:#000000;stroke-width:1e-06;stroke-linecap:round;stroke-linejoin:round;stroke-opacity:1"
       d="m 61.67336,22.701041 -0.01713,0.0861 -0.04877,0.073 -0.073,0.04877 -0.0861,0.01713 h -0.45 l -0.0861,-0.01713 -0.073,-0.04877 -0.04877,-0.073 -0.01713,-0.0861 v -0.5 l 0.01713,-0.0861 0.04877,-0.073 0.073,-0.04877 0.0861,-0.01713 h 0.45 l 0.0861,0.01713 0.073,0.04877 0.04877,0.073 0.01713,0.0861 z"
       id="path42797" />
    <path
       style="fill:#000000;fill-opacity:1;fill-rule:evenodd;stroke:#000000;stroke-width:1e-06;stroke-linecap:round;stroke-linejoin:round;stroke-opacity:1"
       d="m 60.12336,22.701041 -0.01713,0.0861 -0.04877,0.073 -0.073,0.04877 -0.0861,0.01713 h -0.45 l -0.0861,-0.01713 -0.073,-0.04877 -0.04877,-0.073 -0.01713,-0.0861 v -0.5 l 0.01713,-0.0861 0.04877,-0.073 0.073,-0.04877 0.0861,-0.01713 h 0.45 l 0.0861,0.01713 0.073,0.04877 0.04877,0.073 0.01713,0.0861 z"
       id="path42799" />
    <path
       style="fill:#000000;fill-opacity:1;fill-rule:evenodd;stroke:#000000;stroke-width:1e-06;stroke-linecap:round;stroke-linejoin:round;stroke-opacity:1"
       d="m 49.823361,36.97604 0.01522,-0.07654 0.04336,-0.06488 0.06488,-0.04336 0.07654,-0.01522 h 0.4 l 0.07654,0.01522 0.06488,0.04336 0.04336,0.06488 0.01522,0.07654 v 0.55 l -0.01522,0.07654 -0.04336,0.06488 -0.06488,0.04336 -0.07654,0.01522 h -0.4 l -0.07654,-0.01522 -0.06488,-0.04336 -0.04336,-0.06488 -0.01522,-0.07654 z"
       id="path42805" />
    <path
       style="fill:#000000;fill-opacity:1;fill-rule:evenodd;stroke:#000000;stroke-width:1e-06;stroke-linecap:round;stroke-linejoin:round;stroke-opacity:1"
       d="m 51.473361,36.97604 0.01522,-0.07654 0.04336,-0.06488 0.06488,-0.04336 0.07654,-0.01522 h 0.4 l 0.07654,0.01522 0.06488,0.04336 0.04336,0.06488 0.01522,0.07654 v 0.55 l -0.01522,0.07654 -0.04336,0.06488 -0.06488,0.04336 -0.07654,0.01522 h -0.4 l -0.07654,-0.01522 -0.06488,-0.04336 -0.04336,-0.06488 -0.01522,-0.07654 z"
       id="path42807" />
    <path
       style="fill:#000000;fill-opacity:1;fill-rule:evenodd;stroke:#000000;stroke-width:1e-06;stroke-linecap:round;stroke-linejoin:round;stroke-opacity:1"
       d="m 70.27336,19.501041 -0.09567,-0.01903 -0.08111,-0.05419 -0.05419,-0.08111 -0.01903,-0.09567 v -0.5 l 0.01903,-0.09567 0.05419,-0.08111 0.08111,-0.05419 0.09567,-0.01903 h 0.95 l 0.09567,0.01903 0.08111,0.05419 0.05419,0.08111 0.01903,0.09567 v 0.5 l -0.01903,0.09567 -0.05419,0.08111 -0.08111,0.05419 -0.09567,0.01903 z"
       id="path42813" />
    <path
       style="fill:#000000;fill-opacity:1;fill-rule:evenodd;stroke:#000000;stroke-width:1e-06;stroke-linecap:round;stroke-linejoin:round;stroke-opacity:1"
       d="m 70.27336,17.601041 -0.09567,-0.01903 -0.08111,-0.05419 -0.05419,-0.08111 -0.01903,-0.09567 v -0.5 l 0.01903,-0.09567 0.05419,-0.08111 0.08111,-0.05419 0.09567,-0.01903 h 0.95 l 0.09567,0.01903 0.08111,0.05419 0.05419,0.08111 0.01903,0.09567 v 0.5 l -0.01903,0.09567 -0.05419,0.08111 -0.08111,0.05419 -0.09567,0.01903 z"
       id="path42815" />
    <g
       style="display:inline;fill:#000000;fill-opacity:1;stroke:#000000;stroke-width:1;stroke-linecap:round;stroke-linejoin:round;stroke-opacity:1"
       id="g25171"
       transform="matrix(9.9999996e-7,0,0,9.9999996e-7,-128.87762,-78.612968)">
      <g
         id="g33983">
        <path
           style="fill:#000000;fill-opacity:1;fill-rule:evenodd;stroke:#000000;stroke-width:1;stroke-linecap:round;stroke-linejoin:round;stroke-opacity:1"
           d="m 155257510,84648293 74470,41705 52840,67028 23170,82148 -10040,84760 -135190,416088 -41700,74469 -67030,52841 -82150,23168 -84760,-10032 -487420,-158371 -74470,-41705 -52840,-67028 -23170,-82148 10040,-84760 135190,-416088 41710,-74469 67020,-52841 82150,-23168 84760,10032 z"
           id="path24965"
           transform="translate(-0.91666667,-0.25000001)" />
        <path
           style="fill:#000000;fill-opacity:1;fill-rule:evenodd;stroke:#000000;stroke-width:1;stroke-linecap:round;stroke-linejoin:round;stroke-opacity:1"
           d="m 154770810,86146207 74470,41705 52840,67028 23170,82148 -10040,84760 -135190,416088 -41710,74469 -67030,52841 -82140,23168 -84760,-10032 -487420,-158371 -74470,-41705 -52840,-67028 -23170,-82148 10030,-84760 135200,-416088 41700,-74469 67030,-52841 82150,-23168 84760,10032 z"
           id="path24967"
           transform="translate(-0.91666667,-0.25000001)" />
        <path
           style="fill:#000000;fill-opacity:1;fill-rule:evenodd;stroke:#000000;stroke-width:1;stroke-linecap:round;stroke-linejoin:round;stroke-opacity:1"
           d="m 149743750,116225000 -83710,-16650 -70970,-47420 -47420,-70970 -16650,-83710 v -437500 l 16650,-83710 47420,-70970 70970,-47420 83710,-16650 h 512500 l 83710,16650 70970,47420 47420,70970 16650,83710 v 437500 l -16650,83710 -47420,70970 -70970,47420 -83710,16650 z"
           id="path24973"
           transform="translate(-0.91666667,-0.25000001)" />
        <path
           style="fill:#000000;fill-opacity:1;fill-rule:evenodd;stroke:#000000;stroke-width:1;stroke-linecap:round;stroke-linejoin:round;stroke-opacity:1"
           d="m 149743750,114650000 -83710,-16650 -70970,-47420 -47420,-70970 -16650,-83710 v -437500 l 16650,-83710 47420,-70970 70970,-47420 83710,-16650 h 512500 l 83710,16650 70970,47420 47420,70970 16650,83710 v 437500 l -16650,83710 -47420,70970 -70970,47420 -83710,16650 z"
           id="path24975"
           transform="translate(-0.91666667,-0.25000001)" />
        <path
           style="fill:#000000;fill-opacity:1;fill-rule:evenodd;stroke:#000000;stroke-width:1;stroke-linecap:round;stroke-linejoin:round;stroke-opacity:1"
           d="m 150256250,83775000 83710,16651 70970,47419 47420,70968 16650,83712 v 437500 l -16650,83712 -47420,70968 -70970,47419 -83710,16651 h -512500 l -83710,-16651 -70970,-47419 -47420,-70968 -16650,-83712 v -437500 l 16650,-83712 47420,-70968 70970,-47419 83710,-16651 z"
           id="path24981"
           transform="translate(-0.91666667,-0.25000001)" />
        <path
           style="fill:#000000;fill-opacity:1;fill-rule:evenodd;stroke:#000000;stroke-width:1;stroke-linecap:round;stroke-linejoin:round;stroke-opacity:1"
           d="m 150256250,85350000 83710,16651 70970,47419 47420,70968 16650,83712 v 437500 l -16650,83712 -47420,70968 -70970,47419 -83710,16651 h -512500 l -83710,-16651 -70970,-47419 -47420,-70968 -16650,-83712 v -437500 l 16650,-83712 47420,-70968 70970,-47419 83710,-16651 z"
           id="path24983"
           transform="translate(-0.91666667,-0.25000001)" />
        <path
           style="fill:#000000;fill-opacity:1;fill-rule:evenodd;stroke:#000000;stroke-width:1;stroke-linecap:round;stroke-linejoin:round;stroke-opacity:1"
           d="m 134648290,94742491 41710,-74470 67030,-52841 82140,-23168 84760,10033 416090,135195 74470,41704 52840,67029 23170,82147 -10030,84761 -158370,487416 -41710,74470 -67030,52841 -82140,23168 -84760,-10033 -416090,-135195 -74470,-41704 -52840,-67029 -23170,-82147 10030,-84761 z"
           id="path24991"
           transform="translate(-0.91666667,-0.25000001)" />
        <path
           style="fill:#000000;fill-opacity:1;fill-rule:evenodd;stroke:#000000;stroke-width:1;stroke-linecap:round;stroke-linejoin:round;stroke-opacity:1"
           d="m 136146210,95229193 41700,-74470 67030,-52841 82150,-23168 84760,10033 416090,135195 74470,41704 52840,67029 23160,82147 -10030,84761 -158370,487416 -41700,74470 -67030,52841 -82150,23168 -84760,-10033 -416090,-135195 -74470,-41704 -52840,-67029 -23170,-82147 10040,-84761 z"
           id="path24993"
           transform="translate(-0.91666667,-0.25000001)" />
        <path
           style="fill:#000000;fill-opacity:1;fill-rule:evenodd;stroke:#000000;stroke-width:1;stroke-linecap:round;stroke-linejoin:round;stroke-opacity:1"
           d="m 154770090,115510080 -84760,10030 -82150,-23170 -67020,-52840 -41710,-74470 -135190,-416090 -10040,-84760 23170,-82140 52840,-67030 74470,-41710 487420,-158370 84760,-10030 82150,23170 67030,52840 41700,74470 135190,416090 10040,84760 -23170,82140 -52840,67030 -74470,41710 z"
           id="path24999"
           transform="translate(-0.91666667,-0.25000001)" />
        <path
           style="fill:#000000;fill-opacity:1;fill-rule:evenodd;stroke:#000000;stroke-width:1;stroke-linecap:round;stroke-linejoin:round;stroke-opacity:1"
           d="m 154283390,114012160 -84760,10040 -82150,-23170 -67030,-52840 -41700,-74470 -135200,-416090 -10030,-84760 23170,-82150 52840,-67030 74470,-41700 487420,-158370 84760,-10030 82140,23160 67030,52840 41710,74470 135190,416090 10040,84760 -23170,82150 -52840,67030 -74470,41700 z"
           id="path25001"
           transform="translate(-0.91666667,-0.25000001)" />
        <path
           style="fill:#000000;fill-opacity:1;fill-rule:evenodd;stroke:#000000;stroke-width:1;stroke-linecap:round;stroke-linejoin:round;stroke-opacity:1"
           d="m 162975680,109744130 -62680,57930 -80070,29550 -85290,-3360 -77510,-35730 -353940,-257160 -57940,-62670 -29540,-80080 3350,-85280 35730,-77520 301240,-414620 62680,-57930 80070,-29550 85290,3350 77510,35740 353950,257150 57930,62680 29550,80080 -3360,85280 -35730,77510 z"
           id="path25007"
           transform="translate(-0.91666667,-0.25000001)" />
        <path
           style="fill:#000000;fill-opacity:1;fill-rule:evenodd;stroke:#000000;stroke-width:1;stroke-linecap:round;stroke-linejoin:round;stroke-opacity:1"
           d="m 161701480,108818360 -62680,57940 -80070,29540 -85290,-3350 -77510,-35730 -353950,-257160 -57930,-62670 -29550,-80080 3350,-85290 35740,-77510 301240,-414620 62670,-57940 80080,-29540 85290,3350 77510,35740 353940,257150 57940,62680 29540,80070 -3350,85290 -35730,77510 z"
           id="path25009"
           transform="translate(-0.91666667,-0.25000001)" />
        <path
           style="fill:#000000;fill-opacity:1;fill-rule:evenodd;stroke:#000000;stroke-width:1;stroke-linecap:round;stroke-linejoin:round;stroke-opacity:1"
           d="m 134489920,104770090 -10030,-84760 23170,-82150 52840,-67020 74470,-41710 416090,-135190 84760,-10040 82140,23170 67030,52840 41710,74470 158370,487420 10030,84760 -23170,82150 -52840,67030 -74470,41700 -416090,135190 -84760,10040 -82140,-23170 -67030,-52840 -41710,-74470 z"
           id="path25015"
           transform="translate(-0.91666667,-0.25000001)" />
        <path
           style="fill:#000000;fill-opacity:1;fill-rule:evenodd;stroke:#000000;stroke-width:1;stroke-linecap:round;stroke-linejoin:round;stroke-opacity:1"
           d="m 135987840,104283390 -10040,-84760 23170,-82150 52840,-67030 74470,-41700 416090,-135200 84760,-10030 82150,23170 67030,52840 41700,74470 158370,487420 10030,84760 -23160,82140 -52840,67030 -74470,41710 -416090,135190 -84760,10040 -82150,-23170 -67030,-52840 -41700,-74470 z"
           id="path25017"
           transform="translate(-0.91666667,-0.25000001)" />
        <path
           style="fill:#000000;fill-opacity:1;fill-rule:evenodd;stroke:#000000;stroke-width:1;stroke-linecap:round;stroke-linejoin:round;stroke-opacity:1"
           d="m 165351710,105257510 -41710,74470 -67030,52840 -82140,23170 -84760,-10040 -416090,-135190 -74470,-41700 -52840,-67030 -23170,-82150 10030,-84760 158370,-487420 41710,-74470 67030,-52840 82140,-23170 84760,10040 416090,135190 74470,41710 52840,67020 23170,82150 -10030,84760 z"
           id="path25023"
           transform="translate(-0.91666667,-0.25000001)" />
        <path
           style="fill:#000000;fill-opacity:1;fill-rule:evenodd;stroke:#000000;stroke-width:1;stroke-linecap:round;stroke-linejoin:round;stroke-opacity:1"
           d="m 163853790,104770810 -41700,74470 -67030,52840 -82150,23170 -84760,-10040 -416090,-135190 -74470,-41710 -52840,-67030 -23160,-82140 10030,-84760 158370,-487420 41700,-74470 67030,-52840 82150,-23170 84760,10030 416090,135200 74470,41700 52840,67030 23170,82150 -10040,84760 z"
           id="path25025"
           transform="translate(-0.91666667,-0.25000001)" />
        <path
           style="fill:#000000;fill-opacity:1;fill-rule:evenodd;stroke:#000000;stroke-width:1;stroke-linecap:round;stroke-linejoin:round;stroke-opacity:1"
           d="m 159329500,113276920 -77510,35730 -85280,3360 -80080,-29550 -62680,-57930 -257150,-353950 -35740,-77510 -3350,-85290 29550,-80070 57930,-62680 414620,-301240 77520,-35730 85280,-3350 80080,29540 62670,57940 257160,353940 35730,77510 3360,85290 -29550,80070 -57930,62680 z"
           id="path25031"
           transform="translate(-0.91666667,-0.25000001)" />
        <path
           style="fill:#000000;fill-opacity:1;fill-rule:evenodd;stroke:#000000;stroke-width:1;stroke-linecap:round;stroke-linejoin:round;stroke-opacity:1"
           d="m 158403740,112002720 -77510,35730 -85290,3350 -80070,-29540 -62680,-57940 -257150,-353940 -35740,-77510 -3350,-85290 29540,-80080 57940,-62670 414620,-301240 77510,-35740 85290,-3350 80080,29550 62670,57930 257160,353950 35730,77510 3350,85290 -29540,80070 -57940,62680 z"
           id="path25033"
           transform="translate(-0.91666667,-0.25000001)" />
        <path
           style="fill:#000000;fill-opacity:1;fill-rule:evenodd;stroke:#000000;stroke-width:1;stroke-linecap:round;stroke-linejoin:round;stroke-opacity:1"
           d="m 135271260,107018470 -18550,-75800 11870,-77120 40480,-66720 62940,-46140 362520,-169050 75800,-18550 77130,11870 66710,40490 46140,62930 232440,498470 18550,75800 -11870,77130 -40480,66710 -62930,46140 -362530,169050 -75800,18550 -77120,-11870 -66720,-40490 -46140,-62930 z"
           id="path25039"
           transform="translate(-0.91666667,-0.25000001)" />
        <path
           style="fill:#000000;fill-opacity:1;fill-rule:evenodd;stroke:#000000;stroke-width:1;stroke-linecap:round;stroke-linejoin:round;stroke-opacity:1"
           d="m 136766670,106321150 -18550,-75800 11870,-77120 40480,-66720 62930,-46140 362530,-169050 75800,-18550 77120,11870 66720,40490 46140,62930 232440,498470 18550,75800 -11870,77130 -40480,66710 -62940,46140 -362520,169050 -75800,18550 -77130,-11870 -66710,-40490 -46140,-62930 z"
           id="path25041"
           transform="translate(-0.91666667,-0.25000001)" />
        <path
           style="fill:#000000;fill-opacity:1;fill-rule:evenodd;stroke:#000000;stroke-width:1;stroke-linecap:round;stroke-linejoin:round;stroke-opacity:1"
           d="m 140670500,86723079 77510,-35734 85280,-3351 80080,29542 62680,57938 257150,353944 35740,77512 3350,85287 -29550,80076 -57930,62676 -414620,301240 -77520,35734 -85280,3351 -80080,-29542 -62670,-57938 -257160,-353944 -35730,-77512 -3360,-85287 29550,-80076 57930,-62676 z"
           id="path25047"
           transform="translate(-0.91666667,-0.25000001)" />
        <path
           style="fill:#000000;fill-opacity:1;fill-rule:evenodd;stroke:#000000;stroke-width:1;stroke-linecap:round;stroke-linejoin:round;stroke-opacity:1"
           d="m 141596260,87997281 77510,-35734 85290,-3351 80070,29542 62680,57938 257150,353944 35740,77512 3350,85287 -29540,80076 -57940,62676 -414620,301240 -77510,35734 -85290,3351 -80080,-29542 -62670,-57938 -257160,-353944 -35730,-77512 -3350,-85287 29540,-80076 57940,-62676 z"
           id="path25049"
           transform="translate(-0.91666667,-0.25000001)" />
        <path
           style="fill:#000000;fill-opacity:1;fill-rule:evenodd;stroke:#000000;stroke-width:1;stroke-linecap:round;stroke-linejoin:round;stroke-opacity:1"
           d="m 152170020,116002940 -77980,-3070 -70870,-32670 -52970,-57300 -27010,-73210 -62570,-395080 3060,-77970 32670,-70870 57310,-52970 73210,-27010 543230,-86040 77980,3060 70860,32670 52970,57310 27010,73210 62580,395070 -3070,77980 -32670,70870 -57300,52970 -73210,27010 z"
           id="path25055"
           transform="translate(-0.91666667,-0.25000001)" />
        <path
           style="fill:#000000;fill-opacity:1;fill-rule:evenodd;stroke:#000000;stroke-width:1;stroke-linecap:round;stroke-linejoin:round;stroke-opacity:1"
           d="m 151911900,114373250 -77970,-3060 -70870,-32670 -52970,-57310 -27010,-73210 -62580,-395070 3070,-77980 32670,-70870 57300,-52970 73210,-27010 543230,-86040 77980,3070 70870,32670 52970,57300 27010,73210 62570,395080 -3060,77980 -32670,70860 -57310,52970 -73210,27010 z"
           id="path25057"
           transform="translate(-0.91666667,-0.25000001)" />
        <path
           style="fill:#000000;fill-opacity:1;fill-rule:evenodd;stroke:#000000;stroke-width:1;stroke-linecap:round;stroke-linejoin:round;stroke-opacity:1"
           d="m 165510080,95229907 10030,84761 -23170,82147 -52840,67029 -74470,41704 -416090,135195 -84760,10033 -82140,-23168 -67030,-52841 -41710,-74470 -158370,-487416 -10030,-84761 23170,-82147 52840,-67029 74470,-41704 416090,-135195 84760,-10033 82140,23168 67030,52841 41710,74470 z"
           id="path25063"
           transform="translate(-0.91666667,-0.25000001)" />
        <path
           style="fill:#000000;fill-opacity:1;fill-rule:evenodd;stroke:#000000;stroke-width:1;stroke-linecap:round;stroke-linejoin:round;stroke-opacity:1"
           d="m 164012160,95716609 10040,84761 -23170,82147 -52840,67029 -74470,41704 -416090,135195 -84760,10033 -82150,-23168 -67030,-52841 -41700,-74470 -158370,-487416 -10030,-84761 23160,-82147 52840,-67029 74470,-41704 416090,-135195 84760,-10033 82150,23168 67030,52841 41700,74470 z"
           id="path25065"
           transform="translate(-0.91666667,-0.25000001)" />
        <path
           style="fill:#000000;fill-opacity:1;fill-rule:evenodd;stroke:#000000;stroke-width:1;stroke-linecap:round;stroke-linejoin:round;stroke-opacity:1"
           d="m 137024320,90255873 62680,-57937 80070,-29542 85290,3351 77510,35734 353940,257156 57940,62676 29540,80076 -3350,85287 -35730,77511 -301240,414622 -62680,57937 -80070,29542 -85290,-3351 -77510,-35734 -353950,-257156 -57930,-62676 -29550,-80076 3360,-85287 35730,-77511 z"
           id="path25075"
           transform="translate(-0.91666667,-0.25000001)" />
        <path
           style="fill:#000000;fill-opacity:1;fill-rule:evenodd;stroke:#000000;stroke-width:1;stroke-linecap:round;stroke-linejoin:round;stroke-opacity:1"
           d="m 138298520,91181635 62680,-57937 80070,-29542 85290,3351 77510,35734 353950,257156 57930,62676 29550,80076 -3350,85287 -35740,77511 -301240,414622 -62670,57937 -80080,29542 -85290,-3351 -77510,-35734 -353940,-257156 -57940,-62676 -29540,-80076 3350,-85287 35730,-77511 z"
           id="path25077"
           transform="translate(-0.91666667,-0.25000001)" />
        <path
           style="fill:#000000;fill-opacity:1;fill-rule:evenodd;stroke:#000000;stroke-width:1;stroke-linecap:round;stroke-linejoin:round;stroke-opacity:1"
           d="m 165841900,102463250 -27010,73210 -52970,57300 -70870,32670 -77980,3070 -395070,-62580 -73210,-27010 -57310,-52970 -32670,-70860 -3060,-77980 86040,-543230 27010,-73210 52970,-57310 70870,-32670 77970,-3060 395080,62570 73210,27010 57300,52970 32670,70870 3070,77980 z"
           id="path25083"
           transform="translate(-0.91666667,-0.25000001)" />
        <path
           style="fill:#000000;fill-opacity:1;fill-rule:evenodd;stroke:#000000;stroke-width:1;stroke-linecap:round;stroke-linejoin:round;stroke-opacity:1"
           d="m 164212210,102205130 -27010,73210 -52970,57310 -70860,32670 -77980,3060 -395080,-62570 -73210,-27010 -57300,-52970 -32670,-70870 -3070,-77980 86040,-543230 27010,-73210 52970,-57300 70870,-32670 77980,-3070 395070,62580 73210,27010 57310,52970 32670,70870 3060,77970 z"
           id="path25085"
           transform="translate(-0.91666667,-0.25000001)" />
        <path
           style="fill:#000000;fill-opacity:1;fill-rule:evenodd;stroke:#000000;stroke-width:1;stroke-linecap:round;stroke-linejoin:round;stroke-opacity:1"
           d="m 133775000,99743750 16650,-83712 47420,-70968 70970,-47419 83710,-16651 h 437500 l 83710,16651 70970,47419 47420,70968 16650,83712 v 512500 l -16650,83710 -47420,70970 -70970,47420 -83710,16650 h -437500 l -83710,-16650 -70970,-47420 -47420,-70970 -16650,-83710 z"
           id="path25091"
           transform="translate(-0.91666667,-0.25000001)" />
        <path
           style="fill:#000000;fill-opacity:1;fill-rule:evenodd;stroke:#000000;stroke-width:1;stroke-linecap:round;stroke-linejoin:round;stroke-opacity:1"
           d="m 135350000,99743750 16650,-83712 47420,-70968 70970,-47419 83710,-16651 h 437500 l 83710,16651 70970,47419 47420,70968 16650,83712 v 512500 l -16650,83710 -47420,70970 -70970,47420 -83710,16650 h -437500 l -83710,-16650 -70970,-47420 -47420,-70970 -16650,-83710 z"
           id="path25093"
           transform="translate(-0.91666667,-0.25000001)" />
        <path
           style="fill:#000000;fill-opacity:1;fill-rule:evenodd;stroke:#000000;stroke-width:1;stroke-linecap:round;stroke-linejoin:round;stroke-opacity:1"
           d="m 144742490,115351710 -74470,-41710 -52840,-67030 -23170,-82140 10040,-84760 135190,-416090 41700,-74470 67030,-52840 82150,-23170 84760,10030 487420,158370 74470,41710 52840,67030 23170,82140 -10040,84760 -135190,416090 -41710,74470 -67020,52840 -82150,23170 -84760,-10030 z"
           id="path25099"
           transform="translate(-0.91666667,-0.25000001)" />
        <path
           style="fill:#000000;fill-opacity:1;fill-rule:evenodd;stroke:#000000;stroke-width:1;stroke-linecap:round;stroke-linejoin:round;stroke-opacity:1"
           d="m 145229190,113853790 -74470,-41700 -52840,-67030 -23170,-82150 10040,-84760 135190,-416090 41710,-74470 67030,-52840 82140,-23160 84760,10030 487420,158370 74470,41700 52840,67030 23170,82150 -10030,84760 -135200,416090 -41700,74470 -67030,52840 -82150,23170 -84760,-10040 z"
           id="path25101"
           transform="translate(-0.91666667,-0.25000001)" />
        <path
           style="fill:#000000;fill-opacity:1;fill-rule:evenodd;stroke:#000000;stroke-width:1;stroke-linecap:round;stroke-linejoin:round;stroke-opacity:1"
           d="m 163276920,90670495 35730,77511 3360,85287 -29550,80076 -57930,62676 -353950,257156 -77510,35734 -85290,3351 -80070,-29542 -62680,-57937 -301240,-414622 -35730,-77511 -3350,-85287 29540,-80076 57940,-62676 353940,-257156 77510,-35734 85290,-3351 80070,29542 62680,57937 z"
           id="path25107"
           transform="translate(-0.91666667,-0.25000001)" />
        <path
           style="fill:#000000;fill-opacity:1;fill-rule:evenodd;stroke:#000000;stroke-width:1;stroke-linecap:round;stroke-linejoin:round;stroke-opacity:1"
           d="m 162002720,91596257 35730,77511 3350,85287 -29540,80076 -57940,62676 -353940,257156 -77510,35734 -85290,3351 -80080,-29542 -62670,-57937 -301240,-414622 -35740,-77511 -3350,-85287 29550,-80076 57930,-62676 353950,-257156 77510,-35734 85290,-3351 80070,29542 62680,57937 z"
           id="path25109"
           transform="translate(-0.91666667,-0.25000001)" />
        <path
           style="fill:#000000;fill-opacity:1;fill-rule:evenodd;stroke:#000000;stroke-width:1;stroke-linecap:round;stroke-linejoin:round;stroke-opacity:1"
           d="m 157801170,85783365 61280,48312 38130,68086 9170,77495 -21180,75106 -181600,356403 -48310,61283 -68090,38130 -77490,9172 -75110,-21182 -490050,-249695 -61280,-48312 -38130,-68086 -9180,-77495 21190,-75106 181590,-356403 48310,-61283 68090,-38130 77500,-9172 75100,21182 z"
           id="path25117"
           transform="translate(-0.91666667,-0.25000001)" />
        <path
           style="fill:#000000;fill-opacity:1;fill-rule:evenodd;stroke:#000000;stroke-width:1;stroke-linecap:round;stroke-linejoin:round;stroke-opacity:1"
           d="m 157052080,87253525 61280,48312 38130,68086 9180,77495 -21190,75106 -181590,356403 -48310,61283 -68090,38130 -77490,9172 -75110,-21182 -490050,-249695 -61290,-48312 -38130,-68086 -9170,-77495 21180,-75106 181600,-356403 48310,-61283 68090,-38130 77490,-9172 75110,21182 z"
           id="path25119"
           transform="translate(-0.91666667,-0.25000001)" />
        <path
           style="fill:#000000;fill-opacity:1;fill-rule:evenodd;stroke:#000000;stroke-width:1;stroke-linecap:round;stroke-linejoin:round;stroke-opacity:1"
           d="m 140255870,112975680 -57930,-62680 -29550,-80070 3360,-85290 35730,-77510 257160,-353940 62670,-57940 80080,-29540 85280,3350 77520,35730 414620,301240 57930,62680 29550,80070 -3350,85290 -35740,77510 -257150,353950 -62680,57930 -80080,29550 -85280,-3360 -77510,-35730 z"
           id="path25125"
           transform="translate(-0.91666667,-0.25000001)" />
        <path
           style="fill:#000000;fill-opacity:1;fill-rule:evenodd;stroke:#000000;stroke-width:1;stroke-linecap:round;stroke-linejoin:round;stroke-opacity:1"
           d="m 141181640,111701480 -57940,-62680 -29540,-80070 3350,-85290 35730,-77510 257160,-353950 62670,-57930 80080,-29550 85290,3350 77510,35740 414620,301240 57940,62670 29540,80080 -3350,85290 -35740,77510 -257150,353940 -62680,57940 -80070,29540 -85290,-3350 -77510,-35730 z"
           id="path25127"
           transform="translate(-0.91666667,-0.25000001)" />
        <path
           style="fill:#000000;fill-opacity:1;fill-rule:evenodd;stroke:#000000;stroke-width:1;stroke-linecap:round;stroke-linejoin:round;stroke-opacity:1"
           d="m 138994890,88105977 64880,-43355 76540,-15223 76530,15223 64890,43355 282840,282843 43360,64884 15220,76537 -15220,76537 -43360,64884 -388910,388909 -64880,43355 -76540,15223 -76540,-15223 -64880,-43355 -282840,-282843 -43360,-64884 -15220,-76537 15220,-76537 43360,-64884 z"
           id="path25133"
           transform="translate(-0.91666667,-0.25000001)" />
        <path
           style="fill:#000000;fill-opacity:1;fill-rule:evenodd;stroke:#000000;stroke-width:1;stroke-linecap:round;stroke-linejoin:round;stroke-opacity:1"
           d="m 140161610,89272703 64890,-43355 76530,-15223 76540,15223 64880,43355 282850,282843 43350,64884 15230,76537 -15230,76537 -43350,64884 -388910,388909 -64890,43355 -76530,15223 -76540,-15223 -64880,-43355 -282850,-282843 -43350,-64884 -15220,-76537 15220,-76537 43350,-64884 z"
           id="path25135"
           transform="translate(-0.91666667,-0.25000001)" />
        <path
           style="fill:#000000;fill-opacity:1;fill-rule:evenodd;stroke:#000000;stroke-width:1;stroke-linecap:round;stroke-linejoin:round;stroke-opacity:1"
           d="m 166225000,100256250 -16650,83710 -47420,70970 -70970,47420 -83710,16650 h -437500 l -83710,-16650 -70970,-47420 -47420,-70970 -16650,-83710 v -512500 l 16650,-83712 47420,-70968 70970,-47419 83710,-16651 h 437500 l 83710,16651 70970,47419 47420,70968 16650,83712 z"
           id="path25143"
           transform="translate(-0.91666667,-0.25000001)" />
        <path
           style="fill:#000000;fill-opacity:1;fill-rule:evenodd;stroke:#000000;stroke-width:1;stroke-linecap:round;stroke-linejoin:round;stroke-opacity:1"
           d="m 164650000,100256250 -16650,83710 -47420,70970 -70970,47420 -83710,16650 h -437500 l -83710,-16650 -70970,-47420 -47420,-70970 -16650,-83710 v -512500 l 16650,-83712 47420,-70968 70970,-47419 83710,-16651 h 437500 l 83710,16651 70970,47419 47420,70968 16650,83712 z"
           id="path25145"
           transform="translate(-0.91666667,-0.25000001)" />
        <path
           style="fill:#000000;fill-opacity:1;fill-rule:evenodd;stroke:#000000;stroke-width:1;stroke-linecap:round;stroke-linejoin:round;stroke-opacity:1"
           d="m 136723080,109329500 -35730,-77510 -3360,-85280 29550,-80080 57930,-62680 353950,-257150 77510,-35740 85290,-3350 80070,29550 62680,57930 301240,414620 35730,77520 3350,85280 -29540,80080 -57940,62670 -353940,257160 -77510,35730 -85290,3360 -80070,-29550 -62680,-57930 z"
           id="path25151"
           transform="translate(-0.91666667,-0.25000001)" />
        <path
           style="fill:#000000;fill-opacity:1;fill-rule:evenodd;stroke:#000000;stroke-width:1;stroke-linecap:round;stroke-linejoin:round;stroke-opacity:1"
           d="m 137997280,108403740 -35730,-77510 -3350,-85290 29540,-80070 57940,-62680 353940,-257150 77510,-35740 85290,-3350 80080,29540 62670,57940 301240,414620 35740,77510 3350,85290 -29550,80080 -57930,62670 -353950,257160 -77510,35730 -85290,3350 -80070,-29540 -62680,-57940 z"
           id="path25153"
           transform="translate(-0.91666667,-0.25000001)" />
        <path
           style="fill:#000000;fill-opacity:1;fill-rule:evenodd;stroke:#000000;stroke-width:1;stroke-linecap:round;stroke-linejoin:round;stroke-opacity:1"
           d="m 145229910,84489922 84760,-10032 82150,23168 67020,52841 41710,74469 135190,416088 10040,84760 -23170,82148 -52840,67028 -74470,41705 -487420,158371 -84760,10032 -82150,-23168 -67030,-52841 -41700,-74469 -135190,-416088 -10040,-84760 23170,-82148 52840,-67028 74470,-41705 z"
           id="path25159"
           transform="translate(-0.91666667,-0.25000001)" />
        <path
           style="fill:#000000;fill-opacity:1;fill-rule:evenodd;stroke:#000000;stroke-width:1;stroke-linecap:round;stroke-linejoin:round;stroke-opacity:1"
           d="m 145716610,85987836 84760,-10032 82150,23168 67030,52841 41700,74469 135200,416088 10030,84760 -23170,82148 -52840,67028 -74470,41705 -487420,158371 -84760,10032 -82140,-23168 -67030,-52841 -41710,-74469 -135190,-416088 -10040,-84760 23170,-82148 52840,-67028 74470,-41705 z"
           id="path25161"
           transform="translate(-0.91666667,-0.25000001)" />
        <path
           style="fill:#000000;fill-opacity:1;fill-rule:evenodd;stroke:#000000;stroke-width:1;stroke-linecap:round;stroke-linejoin:round;stroke-opacity:1"
           d="m 159744130,87024319 57930,62676 29550,80076 -3360,85287 -35730,77512 -257160,353944 -62670,57938 -80080,29542 -85280,-3351 -77520,-35734 -414620,-301240 -57930,-62676 -29550,-80076 3350,-85287 35740,-77512 257150,-353944 62680,-57938 80080,-29542 85280,3351 77510,35734 z"
           id="path25167" />
        <path
           style="fill:#000000;fill-opacity:1;fill-rule:evenodd;stroke:#000000;stroke-width:1;stroke-linecap:round;stroke-linejoin:round;stroke-opacity:1"
           d="m 158818360,88298521 57940,62676 29540,80076 -3350,85287 -35730,77512 -257160,353944 -62670,57938 -80080,29542 -85290,-3351 -77510,-35734 -414620,-301240 -57940,-62676 -29540,-80076 3350,-85287 35740,-77512 257150,-353944 62680,-57938 80070,-29542 85290,3351 77510,35734 z"
           id="path25169" />
      </g>
    </g>
  </g>
</svg>
