%TF.GenerationSoftware,KiCad,Pcbnew,6.0.9-8da3e8f707~117~ubuntu22.04.1*%
%TF.CreationDate,2022-12-01T14:43:22-05:00*%
%TF.ProjectId,keyboard_matrix,6b657962-6f61-4726-945f-6d6174726978,rev?*%
%TF.SameCoordinates,Original*%
%TF.FileFunction,Soldermask,Top*%
%TF.FilePolarity,Negative*%
%FSLAX46Y46*%
G04 Gerber Fmt 4.6, Leading zero omitted, Abs format (unit mm)*
G04 Created by KiCad (PCBNEW 6.0.9-8da3e8f707~117~ubuntu22.04.1) date 2022-12-01 14:43:22*
%MOMM*%
%LPD*%
G01*
G04 APERTURE LIST*
%ADD10C,3.200000*%
%ADD11C,3.900000*%
%ADD12C,1.900000*%
%ADD13C,2.000000*%
%ADD14R,1.700000X1.700000*%
%ADD15O,1.700000X1.700000*%
%ADD16C,0.700000*%
%ADD17O,0.800000X1.500000*%
G04 APERTURE END LIST*
D10*
%TO.C,H105*%
X126000000Y-114000000D03*
%TD*%
%TO.C,H104*%
X75000000Y-155000000D03*
%TD*%
%TO.C,H103*%
X75000000Y-65000000D03*
%TD*%
D11*
%TO.C,SW202*%
X99500000Y-97000000D03*
D12*
X105000000Y-97000000D03*
X94000000Y-97000000D03*
D13*
X99500000Y-91500000D03*
X104500000Y-93000000D03*
%TD*%
%TO.C,SW208*%
X207500000Y-91500000D03*
D12*
X202000000Y-97000000D03*
X213000000Y-97000000D03*
D11*
X207500000Y-97000000D03*
D13*
X212500000Y-93000000D03*
%TD*%
D12*
%TO.C,SW201*%
X87000000Y-97000000D03*
X76000000Y-97000000D03*
D13*
X81500000Y-91500000D03*
D11*
X81500000Y-97000000D03*
D13*
X86500000Y-93000000D03*
%TD*%
%TO.C,SW301*%
X86500000Y-137500000D03*
D12*
X81000000Y-132000000D03*
X81000000Y-143000000D03*
D11*
X81000000Y-137500000D03*
D13*
X85000000Y-142500000D03*
%TD*%
D11*
%TO.C,SW307*%
X144000000Y-115000000D03*
D12*
X138500000Y-115000000D03*
X149500000Y-115000000D03*
D13*
X144000000Y-109500000D03*
X149000000Y-111000000D03*
%TD*%
D12*
%TO.C,SW308*%
X153000000Y-132000000D03*
X153000000Y-143000000D03*
D11*
X153000000Y-137500000D03*
D13*
X147500000Y-137500000D03*
X149000000Y-132500000D03*
%TD*%
D12*
%TO.C,SW303*%
X99000000Y-143000000D03*
D13*
X104500000Y-137500000D03*
D12*
X99000000Y-132000000D03*
D11*
X99000000Y-137500000D03*
D13*
X103000000Y-142500000D03*
%TD*%
D14*
%TO.C,J10*%
X85460000Y-64375000D03*
D15*
X88000000Y-64375000D03*
X90540000Y-64375000D03*
X93080000Y-64375000D03*
X95620000Y-64375000D03*
X98160000Y-64375000D03*
%TD*%
D12*
%TO.C,SW312*%
X189000000Y-143000000D03*
D13*
X183500000Y-137500000D03*
D11*
X189000000Y-137500000D03*
D12*
X189000000Y-132000000D03*
D13*
X185000000Y-132500000D03*
%TD*%
D12*
%TO.C,SW304*%
X102500000Y-115000000D03*
X113500000Y-115000000D03*
D11*
X108000000Y-115000000D03*
D13*
X108000000Y-109500000D03*
X113000000Y-111000000D03*
%TD*%
D11*
%TO.C,SW309*%
X162000000Y-115000000D03*
D12*
X156500000Y-115000000D03*
D13*
X162000000Y-109500000D03*
D12*
X167500000Y-115000000D03*
D13*
X167000000Y-111000000D03*
%TD*%
D12*
%TO.C,SW302*%
X95500000Y-115000000D03*
D13*
X90000000Y-109500000D03*
D12*
X84500000Y-115000000D03*
D11*
X90000000Y-115000000D03*
D13*
X95000000Y-111000000D03*
%TD*%
D12*
%TO.C,SW203*%
X112000000Y-97000000D03*
X123000000Y-97000000D03*
D11*
X117500000Y-97000000D03*
D13*
X117500000Y-91500000D03*
X122500000Y-93000000D03*
%TD*%
D10*
%TO.C,H102*%
X215000000Y-65000000D03*
%TD*%
D16*
%TO.C,J11*%
X139230000Y-62425500D03*
X141770000Y-62425500D03*
X143040000Y-62425500D03*
X140500000Y-62425500D03*
X137960000Y-62425500D03*
D17*
X138595000Y-61270500D03*
X139865000Y-61270500D03*
X141135000Y-61270500D03*
X142405000Y-61270500D03*
%TD*%
D11*
%TO.C,SW310*%
X171000000Y-137500000D03*
D12*
X171000000Y-132000000D03*
X171000000Y-143000000D03*
D13*
X165500000Y-137500000D03*
X167000000Y-132500000D03*
%TD*%
D12*
%TO.C,SW306*%
X135000000Y-132000000D03*
D13*
X140500000Y-137500000D03*
D11*
X135000000Y-137500000D03*
D12*
X135000000Y-143000000D03*
D13*
X139000000Y-142500000D03*
%TD*%
D11*
%TO.C,SW313*%
X207000000Y-137385000D03*
D13*
X201500000Y-137385000D03*
D12*
X207000000Y-142885000D03*
X207000000Y-131885000D03*
D13*
X203000000Y-132385000D03*
%TD*%
D10*
%TO.C,H101*%
X215000000Y-155000000D03*
%TD*%
D12*
%TO.C,SW205*%
X159000000Y-97000000D03*
D13*
X153500000Y-91500000D03*
D11*
X153500000Y-97000000D03*
D12*
X148000000Y-97000000D03*
D13*
X158500000Y-93000000D03*
%TD*%
D12*
%TO.C,SW311*%
X174500000Y-115000000D03*
D13*
X180000000Y-109500000D03*
D12*
X185500000Y-115000000D03*
D11*
X180000000Y-115000000D03*
D13*
X185000000Y-111000000D03*
%TD*%
D11*
%TO.C,SW204*%
X135500000Y-97000000D03*
D13*
X135500000Y-91500000D03*
D12*
X141000000Y-97000000D03*
X130000000Y-97000000D03*
D13*
X140500000Y-93000000D03*
%TD*%
D12*
%TO.C,SW206*%
X177000000Y-97000000D03*
D11*
X171500000Y-97000000D03*
D13*
X171500000Y-91500000D03*
D12*
X166000000Y-97000000D03*
D13*
X176500000Y-93000000D03*
%TD*%
%TO.C,SW305*%
X122500000Y-137500000D03*
D12*
X117000000Y-132000000D03*
X117000000Y-143000000D03*
D11*
X117000000Y-137500000D03*
D13*
X121000000Y-142500000D03*
%TD*%
%TO.C,SW207*%
X189500000Y-91500000D03*
D11*
X189500000Y-97000000D03*
D12*
X184000000Y-97000000D03*
X195000000Y-97000000D03*
D13*
X194500000Y-93000000D03*
%TD*%
M02*
