%TF.GenerationSoftware,KiCad,Pcbnew,6.0.9-8da3e8f707~117~ubuntu22.04.1*%
%TF.CreationDate,2022-12-01T14:43:22-05:00*%
%TF.ProjectId,keyboard_matrix,6b657962-6f61-4726-945f-6d6174726978,rev?*%
%TF.SameCoordinates,Original*%
%TF.FileFunction,Legend,Bot*%
%TF.FilePolarity,Positive*%
%FSLAX46Y46*%
G04 Gerber Fmt 4.6, Leading zero omitted, Abs format (unit mm)*
G04 Created by KiCad (PCBNEW 6.0.9-8da3e8f707~117~ubuntu22.04.1) date 2022-12-01 14:43:22*
%MOMM*%
%LPD*%
G01*
G04 APERTURE LIST*
%ADD10C,0.150000*%
%ADD11C,0.010000*%
%ADD12C,0.120000*%
G04 APERTURE END LIST*
D10*
%TO.C,C202*%
X107207142Y-100880952D02*
X107254761Y-100833333D01*
X107302380Y-100690476D01*
X107302380Y-100595238D01*
X107254761Y-100452380D01*
X107159523Y-100357142D01*
X107064285Y-100309523D01*
X106873809Y-100261904D01*
X106730952Y-100261904D01*
X106540476Y-100309523D01*
X106445238Y-100357142D01*
X106350000Y-100452380D01*
X106302380Y-100595238D01*
X106302380Y-100690476D01*
X106350000Y-100833333D01*
X106397619Y-100880952D01*
X106397619Y-101261904D02*
X106350000Y-101309523D01*
X106302380Y-101404761D01*
X106302380Y-101642857D01*
X106350000Y-101738095D01*
X106397619Y-101785714D01*
X106492857Y-101833333D01*
X106588095Y-101833333D01*
X106730952Y-101785714D01*
X107302380Y-101214285D01*
X107302380Y-101833333D01*
X106302380Y-102452380D02*
X106302380Y-102547619D01*
X106350000Y-102642857D01*
X106397619Y-102690476D01*
X106492857Y-102738095D01*
X106683333Y-102785714D01*
X106921428Y-102785714D01*
X107111904Y-102738095D01*
X107207142Y-102690476D01*
X107254761Y-102642857D01*
X107302380Y-102547619D01*
X107302380Y-102452380D01*
X107254761Y-102357142D01*
X107207142Y-102309523D01*
X107111904Y-102261904D01*
X106921428Y-102214285D01*
X106683333Y-102214285D01*
X106492857Y-102261904D01*
X106397619Y-102309523D01*
X106350000Y-102357142D01*
X106302380Y-102452380D01*
X106397619Y-103166666D02*
X106350000Y-103214285D01*
X106302380Y-103309523D01*
X106302380Y-103547619D01*
X106350000Y-103642857D01*
X106397619Y-103690476D01*
X106492857Y-103738095D01*
X106588095Y-103738095D01*
X106730952Y-103690476D01*
X107302380Y-103119047D01*
X107302380Y-103738095D01*
%TO.C,C311*%
X173007142Y-118880952D02*
X173054761Y-118833333D01*
X173102380Y-118690476D01*
X173102380Y-118595238D01*
X173054761Y-118452380D01*
X172959523Y-118357142D01*
X172864285Y-118309523D01*
X172673809Y-118261904D01*
X172530952Y-118261904D01*
X172340476Y-118309523D01*
X172245238Y-118357142D01*
X172150000Y-118452380D01*
X172102380Y-118595238D01*
X172102380Y-118690476D01*
X172150000Y-118833333D01*
X172197619Y-118880952D01*
X172102380Y-119214285D02*
X172102380Y-119833333D01*
X172483333Y-119500000D01*
X172483333Y-119642857D01*
X172530952Y-119738095D01*
X172578571Y-119785714D01*
X172673809Y-119833333D01*
X172911904Y-119833333D01*
X173007142Y-119785714D01*
X173054761Y-119738095D01*
X173102380Y-119642857D01*
X173102380Y-119357142D01*
X173054761Y-119261904D01*
X173007142Y-119214285D01*
X173102380Y-120785714D02*
X173102380Y-120214285D01*
X173102380Y-120500000D02*
X172102380Y-120500000D01*
X172245238Y-120404761D01*
X172340476Y-120309523D01*
X172388095Y-120214285D01*
X173102380Y-121738095D02*
X173102380Y-121166666D01*
X173102380Y-121452380D02*
X172102380Y-121452380D01*
X172245238Y-121357142D01*
X172340476Y-121261904D01*
X172388095Y-121166666D01*
%TO.C,C309*%
X155007142Y-118880952D02*
X155054761Y-118833333D01*
X155102380Y-118690476D01*
X155102380Y-118595238D01*
X155054761Y-118452380D01*
X154959523Y-118357142D01*
X154864285Y-118309523D01*
X154673809Y-118261904D01*
X154530952Y-118261904D01*
X154340476Y-118309523D01*
X154245238Y-118357142D01*
X154150000Y-118452380D01*
X154102380Y-118595238D01*
X154102380Y-118690476D01*
X154150000Y-118833333D01*
X154197619Y-118880952D01*
X154102380Y-119214285D02*
X154102380Y-119833333D01*
X154483333Y-119500000D01*
X154483333Y-119642857D01*
X154530952Y-119738095D01*
X154578571Y-119785714D01*
X154673809Y-119833333D01*
X154911904Y-119833333D01*
X155007142Y-119785714D01*
X155054761Y-119738095D01*
X155102380Y-119642857D01*
X155102380Y-119357142D01*
X155054761Y-119261904D01*
X155007142Y-119214285D01*
X154102380Y-120452380D02*
X154102380Y-120547619D01*
X154150000Y-120642857D01*
X154197619Y-120690476D01*
X154292857Y-120738095D01*
X154483333Y-120785714D01*
X154721428Y-120785714D01*
X154911904Y-120738095D01*
X155007142Y-120690476D01*
X155054761Y-120642857D01*
X155102380Y-120547619D01*
X155102380Y-120452380D01*
X155054761Y-120357142D01*
X155007142Y-120309523D01*
X154911904Y-120261904D01*
X154721428Y-120214285D01*
X154483333Y-120214285D01*
X154292857Y-120261904D01*
X154197619Y-120309523D01*
X154150000Y-120357142D01*
X154102380Y-120452380D01*
X155102380Y-121261904D02*
X155102380Y-121452380D01*
X155054761Y-121547619D01*
X155007142Y-121595238D01*
X154864285Y-121690476D01*
X154673809Y-121738095D01*
X154292857Y-121738095D01*
X154197619Y-121690476D01*
X154150000Y-121642857D01*
X154102380Y-121547619D01*
X154102380Y-121357142D01*
X154150000Y-121261904D01*
X154197619Y-121214285D01*
X154292857Y-121166666D01*
X154530952Y-121166666D01*
X154626190Y-121214285D01*
X154673809Y-121261904D01*
X154721428Y-121357142D01*
X154721428Y-121547619D01*
X154673809Y-121642857D01*
X154626190Y-121690476D01*
X154530952Y-121738095D01*
%TO.C,C306*%
X131119047Y-145457142D02*
X131166666Y-145504761D01*
X131309523Y-145552380D01*
X131404761Y-145552380D01*
X131547619Y-145504761D01*
X131642857Y-145409523D01*
X131690476Y-145314285D01*
X131738095Y-145123809D01*
X131738095Y-144980952D01*
X131690476Y-144790476D01*
X131642857Y-144695238D01*
X131547619Y-144600000D01*
X131404761Y-144552380D01*
X131309523Y-144552380D01*
X131166666Y-144600000D01*
X131119047Y-144647619D01*
X130785714Y-144552380D02*
X130166666Y-144552380D01*
X130500000Y-144933333D01*
X130357142Y-144933333D01*
X130261904Y-144980952D01*
X130214285Y-145028571D01*
X130166666Y-145123809D01*
X130166666Y-145361904D01*
X130214285Y-145457142D01*
X130261904Y-145504761D01*
X130357142Y-145552380D01*
X130642857Y-145552380D01*
X130738095Y-145504761D01*
X130785714Y-145457142D01*
X129547619Y-144552380D02*
X129452380Y-144552380D01*
X129357142Y-144600000D01*
X129309523Y-144647619D01*
X129261904Y-144742857D01*
X129214285Y-144933333D01*
X129214285Y-145171428D01*
X129261904Y-145361904D01*
X129309523Y-145457142D01*
X129357142Y-145504761D01*
X129452380Y-145552380D01*
X129547619Y-145552380D01*
X129642857Y-145504761D01*
X129690476Y-145457142D01*
X129738095Y-145361904D01*
X129785714Y-145171428D01*
X129785714Y-144933333D01*
X129738095Y-144742857D01*
X129690476Y-144647619D01*
X129642857Y-144600000D01*
X129547619Y-144552380D01*
X128357142Y-144552380D02*
X128547619Y-144552380D01*
X128642857Y-144600000D01*
X128690476Y-144647619D01*
X128785714Y-144790476D01*
X128833333Y-144980952D01*
X128833333Y-145361904D01*
X128785714Y-145457142D01*
X128738095Y-145504761D01*
X128642857Y-145552380D01*
X128452380Y-145552380D01*
X128357142Y-145504761D01*
X128309523Y-145457142D01*
X128261904Y-145361904D01*
X128261904Y-145123809D01*
X128309523Y-145028571D01*
X128357142Y-144980952D01*
X128452380Y-144933333D01*
X128642857Y-144933333D01*
X128738095Y-144980952D01*
X128785714Y-145028571D01*
X128833333Y-145123809D01*
%TO.C,C201*%
X89207142Y-100880952D02*
X89254761Y-100833333D01*
X89302380Y-100690476D01*
X89302380Y-100595238D01*
X89254761Y-100452380D01*
X89159523Y-100357142D01*
X89064285Y-100309523D01*
X88873809Y-100261904D01*
X88730952Y-100261904D01*
X88540476Y-100309523D01*
X88445238Y-100357142D01*
X88350000Y-100452380D01*
X88302380Y-100595238D01*
X88302380Y-100690476D01*
X88350000Y-100833333D01*
X88397619Y-100880952D01*
X88397619Y-101261904D02*
X88350000Y-101309523D01*
X88302380Y-101404761D01*
X88302380Y-101642857D01*
X88350000Y-101738095D01*
X88397619Y-101785714D01*
X88492857Y-101833333D01*
X88588095Y-101833333D01*
X88730952Y-101785714D01*
X89302380Y-101214285D01*
X89302380Y-101833333D01*
X88302380Y-102452380D02*
X88302380Y-102547619D01*
X88350000Y-102642857D01*
X88397619Y-102690476D01*
X88492857Y-102738095D01*
X88683333Y-102785714D01*
X88921428Y-102785714D01*
X89111904Y-102738095D01*
X89207142Y-102690476D01*
X89254761Y-102642857D01*
X89302380Y-102547619D01*
X89302380Y-102452380D01*
X89254761Y-102357142D01*
X89207142Y-102309523D01*
X89111904Y-102261904D01*
X88921428Y-102214285D01*
X88683333Y-102214285D01*
X88492857Y-102261904D01*
X88397619Y-102309523D01*
X88350000Y-102357142D01*
X88302380Y-102452380D01*
X89302380Y-103738095D02*
X89302380Y-103166666D01*
X89302380Y-103452380D02*
X88302380Y-103452380D01*
X88445238Y-103357142D01*
X88540476Y-103261904D01*
X88588095Y-103166666D01*
%TO.C,C4*%
X166166666Y-78857142D02*
X166214285Y-78904761D01*
X166357142Y-78952380D01*
X166452380Y-78952380D01*
X166595238Y-78904761D01*
X166690476Y-78809523D01*
X166738095Y-78714285D01*
X166785714Y-78523809D01*
X166785714Y-78380952D01*
X166738095Y-78190476D01*
X166690476Y-78095238D01*
X166595238Y-78000000D01*
X166452380Y-77952380D01*
X166357142Y-77952380D01*
X166214285Y-78000000D01*
X166166666Y-78047619D01*
X165309523Y-78285714D02*
X165309523Y-78952380D01*
X165547619Y-77904761D02*
X165785714Y-78619047D01*
X165166666Y-78619047D01*
%TO.C,C310*%
X177119047Y-145207142D02*
X177166666Y-145254761D01*
X177309523Y-145302380D01*
X177404761Y-145302380D01*
X177547619Y-145254761D01*
X177642857Y-145159523D01*
X177690476Y-145064285D01*
X177738095Y-144873809D01*
X177738095Y-144730952D01*
X177690476Y-144540476D01*
X177642857Y-144445238D01*
X177547619Y-144350000D01*
X177404761Y-144302380D01*
X177309523Y-144302380D01*
X177166666Y-144350000D01*
X177119047Y-144397619D01*
X176785714Y-144302380D02*
X176166666Y-144302380D01*
X176500000Y-144683333D01*
X176357142Y-144683333D01*
X176261904Y-144730952D01*
X176214285Y-144778571D01*
X176166666Y-144873809D01*
X176166666Y-145111904D01*
X176214285Y-145207142D01*
X176261904Y-145254761D01*
X176357142Y-145302380D01*
X176642857Y-145302380D01*
X176738095Y-145254761D01*
X176785714Y-145207142D01*
X175214285Y-145302380D02*
X175785714Y-145302380D01*
X175500000Y-145302380D02*
X175500000Y-144302380D01*
X175595238Y-144445238D01*
X175690476Y-144540476D01*
X175785714Y-144588095D01*
X174595238Y-144302380D02*
X174500000Y-144302380D01*
X174404761Y-144350000D01*
X174357142Y-144397619D01*
X174309523Y-144492857D01*
X174261904Y-144683333D01*
X174261904Y-144921428D01*
X174309523Y-145111904D01*
X174357142Y-145207142D01*
X174404761Y-145254761D01*
X174500000Y-145302380D01*
X174595238Y-145302380D01*
X174690476Y-145254761D01*
X174738095Y-145207142D01*
X174785714Y-145111904D01*
X174833333Y-144921428D01*
X174833333Y-144683333D01*
X174785714Y-144492857D01*
X174738095Y-144397619D01*
X174690476Y-144350000D01*
X174595238Y-144302380D01*
%TO.C,R2*%
X140666666Y-76452380D02*
X141000000Y-75976190D01*
X141238095Y-76452380D02*
X141238095Y-75452380D01*
X140857142Y-75452380D01*
X140761904Y-75500000D01*
X140714285Y-75547619D01*
X140666666Y-75642857D01*
X140666666Y-75785714D01*
X140714285Y-75880952D01*
X140761904Y-75928571D01*
X140857142Y-75976190D01*
X141238095Y-75976190D01*
X140285714Y-75547619D02*
X140238095Y-75500000D01*
X140142857Y-75452380D01*
X139904761Y-75452380D01*
X139809523Y-75500000D01*
X139761904Y-75547619D01*
X139714285Y-75642857D01*
X139714285Y-75738095D01*
X139761904Y-75880952D01*
X140333333Y-76452380D01*
X139714285Y-76452380D01*
%TO.C,C2*%
X152166666Y-75357142D02*
X152214285Y-75404761D01*
X152357142Y-75452380D01*
X152452380Y-75452380D01*
X152595238Y-75404761D01*
X152690476Y-75309523D01*
X152738095Y-75214285D01*
X152785714Y-75023809D01*
X152785714Y-74880952D01*
X152738095Y-74690476D01*
X152690476Y-74595238D01*
X152595238Y-74500000D01*
X152452380Y-74452380D01*
X152357142Y-74452380D01*
X152214285Y-74500000D01*
X152166666Y-74547619D01*
X151785714Y-74547619D02*
X151738095Y-74500000D01*
X151642857Y-74452380D01*
X151404761Y-74452380D01*
X151309523Y-74500000D01*
X151261904Y-74547619D01*
X151214285Y-74642857D01*
X151214285Y-74738095D01*
X151261904Y-74880952D01*
X151833333Y-75452380D01*
X151214285Y-75452380D01*
%TO.C,C307*%
X137007142Y-118880952D02*
X137054761Y-118833333D01*
X137102380Y-118690476D01*
X137102380Y-118595238D01*
X137054761Y-118452380D01*
X136959523Y-118357142D01*
X136864285Y-118309523D01*
X136673809Y-118261904D01*
X136530952Y-118261904D01*
X136340476Y-118309523D01*
X136245238Y-118357142D01*
X136150000Y-118452380D01*
X136102380Y-118595238D01*
X136102380Y-118690476D01*
X136150000Y-118833333D01*
X136197619Y-118880952D01*
X136102380Y-119214285D02*
X136102380Y-119833333D01*
X136483333Y-119500000D01*
X136483333Y-119642857D01*
X136530952Y-119738095D01*
X136578571Y-119785714D01*
X136673809Y-119833333D01*
X136911904Y-119833333D01*
X137007142Y-119785714D01*
X137054761Y-119738095D01*
X137102380Y-119642857D01*
X137102380Y-119357142D01*
X137054761Y-119261904D01*
X137007142Y-119214285D01*
X136102380Y-120452380D02*
X136102380Y-120547619D01*
X136150000Y-120642857D01*
X136197619Y-120690476D01*
X136292857Y-120738095D01*
X136483333Y-120785714D01*
X136721428Y-120785714D01*
X136911904Y-120738095D01*
X137007142Y-120690476D01*
X137054761Y-120642857D01*
X137102380Y-120547619D01*
X137102380Y-120452380D01*
X137054761Y-120357142D01*
X137007142Y-120309523D01*
X136911904Y-120261904D01*
X136721428Y-120214285D01*
X136483333Y-120214285D01*
X136292857Y-120261904D01*
X136197619Y-120309523D01*
X136150000Y-120357142D01*
X136102380Y-120452380D01*
X136102380Y-121119047D02*
X136102380Y-121785714D01*
X137102380Y-121357142D01*
%TO.C,FB1*%
X141833333Y-69078571D02*
X142166666Y-69078571D01*
X142166666Y-69602380D02*
X142166666Y-68602380D01*
X141690476Y-68602380D01*
X140976190Y-69078571D02*
X140833333Y-69126190D01*
X140785714Y-69173809D01*
X140738095Y-69269047D01*
X140738095Y-69411904D01*
X140785714Y-69507142D01*
X140833333Y-69554761D01*
X140928571Y-69602380D01*
X141309523Y-69602380D01*
X141309523Y-68602380D01*
X140976190Y-68602380D01*
X140880952Y-68650000D01*
X140833333Y-68697619D01*
X140785714Y-68792857D01*
X140785714Y-68888095D01*
X140833333Y-68983333D01*
X140880952Y-69030952D01*
X140976190Y-69078571D01*
X141309523Y-69078571D01*
X139785714Y-69602380D02*
X140357142Y-69602380D01*
X140071428Y-69602380D02*
X140071428Y-68602380D01*
X140166666Y-68745238D01*
X140261904Y-68840476D01*
X140357142Y-68888095D01*
%TO.C,C203*%
X125207142Y-100880952D02*
X125254761Y-100833333D01*
X125302380Y-100690476D01*
X125302380Y-100595238D01*
X125254761Y-100452380D01*
X125159523Y-100357142D01*
X125064285Y-100309523D01*
X124873809Y-100261904D01*
X124730952Y-100261904D01*
X124540476Y-100309523D01*
X124445238Y-100357142D01*
X124350000Y-100452380D01*
X124302380Y-100595238D01*
X124302380Y-100690476D01*
X124350000Y-100833333D01*
X124397619Y-100880952D01*
X124397619Y-101261904D02*
X124350000Y-101309523D01*
X124302380Y-101404761D01*
X124302380Y-101642857D01*
X124350000Y-101738095D01*
X124397619Y-101785714D01*
X124492857Y-101833333D01*
X124588095Y-101833333D01*
X124730952Y-101785714D01*
X125302380Y-101214285D01*
X125302380Y-101833333D01*
X124302380Y-102452380D02*
X124302380Y-102547619D01*
X124350000Y-102642857D01*
X124397619Y-102690476D01*
X124492857Y-102738095D01*
X124683333Y-102785714D01*
X124921428Y-102785714D01*
X125111904Y-102738095D01*
X125207142Y-102690476D01*
X125254761Y-102642857D01*
X125302380Y-102547619D01*
X125302380Y-102452380D01*
X125254761Y-102357142D01*
X125207142Y-102309523D01*
X125111904Y-102261904D01*
X124921428Y-102214285D01*
X124683333Y-102214285D01*
X124492857Y-102261904D01*
X124397619Y-102309523D01*
X124350000Y-102357142D01*
X124302380Y-102452380D01*
X124302380Y-103119047D02*
X124302380Y-103738095D01*
X124683333Y-103404761D01*
X124683333Y-103547619D01*
X124730952Y-103642857D01*
X124778571Y-103690476D01*
X124873809Y-103738095D01*
X125111904Y-103738095D01*
X125207142Y-103690476D01*
X125254761Y-103642857D01*
X125302380Y-103547619D01*
X125302380Y-103261904D01*
X125254761Y-103166666D01*
X125207142Y-103119047D01*
%TO.C,C204*%
X143207142Y-100880952D02*
X143254761Y-100833333D01*
X143302380Y-100690476D01*
X143302380Y-100595238D01*
X143254761Y-100452380D01*
X143159523Y-100357142D01*
X143064285Y-100309523D01*
X142873809Y-100261904D01*
X142730952Y-100261904D01*
X142540476Y-100309523D01*
X142445238Y-100357142D01*
X142350000Y-100452380D01*
X142302380Y-100595238D01*
X142302380Y-100690476D01*
X142350000Y-100833333D01*
X142397619Y-100880952D01*
X142397619Y-101261904D02*
X142350000Y-101309523D01*
X142302380Y-101404761D01*
X142302380Y-101642857D01*
X142350000Y-101738095D01*
X142397619Y-101785714D01*
X142492857Y-101833333D01*
X142588095Y-101833333D01*
X142730952Y-101785714D01*
X143302380Y-101214285D01*
X143302380Y-101833333D01*
X142302380Y-102452380D02*
X142302380Y-102547619D01*
X142350000Y-102642857D01*
X142397619Y-102690476D01*
X142492857Y-102738095D01*
X142683333Y-102785714D01*
X142921428Y-102785714D01*
X143111904Y-102738095D01*
X143207142Y-102690476D01*
X143254761Y-102642857D01*
X143302380Y-102547619D01*
X143302380Y-102452380D01*
X143254761Y-102357142D01*
X143207142Y-102309523D01*
X143111904Y-102261904D01*
X142921428Y-102214285D01*
X142683333Y-102214285D01*
X142492857Y-102261904D01*
X142397619Y-102309523D01*
X142350000Y-102357142D01*
X142302380Y-102452380D01*
X142635714Y-103642857D02*
X143302380Y-103642857D01*
X142254761Y-103404761D02*
X142969047Y-103166666D01*
X142969047Y-103785714D01*
%TO.C,C305*%
X113119047Y-145207142D02*
X113166666Y-145254761D01*
X113309523Y-145302380D01*
X113404761Y-145302380D01*
X113547619Y-145254761D01*
X113642857Y-145159523D01*
X113690476Y-145064285D01*
X113738095Y-144873809D01*
X113738095Y-144730952D01*
X113690476Y-144540476D01*
X113642857Y-144445238D01*
X113547619Y-144350000D01*
X113404761Y-144302380D01*
X113309523Y-144302380D01*
X113166666Y-144350000D01*
X113119047Y-144397619D01*
X112785714Y-144302380D02*
X112166666Y-144302380D01*
X112500000Y-144683333D01*
X112357142Y-144683333D01*
X112261904Y-144730952D01*
X112214285Y-144778571D01*
X112166666Y-144873809D01*
X112166666Y-145111904D01*
X112214285Y-145207142D01*
X112261904Y-145254761D01*
X112357142Y-145302380D01*
X112642857Y-145302380D01*
X112738095Y-145254761D01*
X112785714Y-145207142D01*
X111547619Y-144302380D02*
X111452380Y-144302380D01*
X111357142Y-144350000D01*
X111309523Y-144397619D01*
X111261904Y-144492857D01*
X111214285Y-144683333D01*
X111214285Y-144921428D01*
X111261904Y-145111904D01*
X111309523Y-145207142D01*
X111357142Y-145254761D01*
X111452380Y-145302380D01*
X111547619Y-145302380D01*
X111642857Y-145254761D01*
X111690476Y-145207142D01*
X111738095Y-145111904D01*
X111785714Y-144921428D01*
X111785714Y-144683333D01*
X111738095Y-144492857D01*
X111690476Y-144397619D01*
X111642857Y-144350000D01*
X111547619Y-144302380D01*
X110309523Y-144302380D02*
X110785714Y-144302380D01*
X110833333Y-144778571D01*
X110785714Y-144730952D01*
X110690476Y-144683333D01*
X110452380Y-144683333D01*
X110357142Y-144730952D01*
X110309523Y-144778571D01*
X110261904Y-144873809D01*
X110261904Y-145111904D01*
X110309523Y-145207142D01*
X110357142Y-145254761D01*
X110452380Y-145302380D01*
X110690476Y-145302380D01*
X110785714Y-145254761D01*
X110833333Y-145207142D01*
%TO.C,C205*%
X161207142Y-100880952D02*
X161254761Y-100833333D01*
X161302380Y-100690476D01*
X161302380Y-100595238D01*
X161254761Y-100452380D01*
X161159523Y-100357142D01*
X161064285Y-100309523D01*
X160873809Y-100261904D01*
X160730952Y-100261904D01*
X160540476Y-100309523D01*
X160445238Y-100357142D01*
X160350000Y-100452380D01*
X160302380Y-100595238D01*
X160302380Y-100690476D01*
X160350000Y-100833333D01*
X160397619Y-100880952D01*
X160397619Y-101261904D02*
X160350000Y-101309523D01*
X160302380Y-101404761D01*
X160302380Y-101642857D01*
X160350000Y-101738095D01*
X160397619Y-101785714D01*
X160492857Y-101833333D01*
X160588095Y-101833333D01*
X160730952Y-101785714D01*
X161302380Y-101214285D01*
X161302380Y-101833333D01*
X160302380Y-102452380D02*
X160302380Y-102547619D01*
X160350000Y-102642857D01*
X160397619Y-102690476D01*
X160492857Y-102738095D01*
X160683333Y-102785714D01*
X160921428Y-102785714D01*
X161111904Y-102738095D01*
X161207142Y-102690476D01*
X161254761Y-102642857D01*
X161302380Y-102547619D01*
X161302380Y-102452380D01*
X161254761Y-102357142D01*
X161207142Y-102309523D01*
X161111904Y-102261904D01*
X160921428Y-102214285D01*
X160683333Y-102214285D01*
X160492857Y-102261904D01*
X160397619Y-102309523D01*
X160350000Y-102357142D01*
X160302380Y-102452380D01*
X160302380Y-103690476D02*
X160302380Y-103214285D01*
X160778571Y-103166666D01*
X160730952Y-103214285D01*
X160683333Y-103309523D01*
X160683333Y-103547619D01*
X160730952Y-103642857D01*
X160778571Y-103690476D01*
X160873809Y-103738095D01*
X161111904Y-103738095D01*
X161207142Y-103690476D01*
X161254761Y-103642857D01*
X161302380Y-103547619D01*
X161302380Y-103309523D01*
X161254761Y-103214285D01*
X161207142Y-103166666D01*
%TO.C,C1*%
X152166666Y-72857142D02*
X152214285Y-72904761D01*
X152357142Y-72952380D01*
X152452380Y-72952380D01*
X152595238Y-72904761D01*
X152690476Y-72809523D01*
X152738095Y-72714285D01*
X152785714Y-72523809D01*
X152785714Y-72380952D01*
X152738095Y-72190476D01*
X152690476Y-72095238D01*
X152595238Y-72000000D01*
X152452380Y-71952380D01*
X152357142Y-71952380D01*
X152214285Y-72000000D01*
X152166666Y-72047619D01*
X151214285Y-72952380D02*
X151785714Y-72952380D01*
X151500000Y-72952380D02*
X151500000Y-71952380D01*
X151595238Y-72095238D01*
X151690476Y-72190476D01*
X151785714Y-72238095D01*
%TO.C,C308*%
X159119047Y-145207142D02*
X159166666Y-145254761D01*
X159309523Y-145302380D01*
X159404761Y-145302380D01*
X159547619Y-145254761D01*
X159642857Y-145159523D01*
X159690476Y-145064285D01*
X159738095Y-144873809D01*
X159738095Y-144730952D01*
X159690476Y-144540476D01*
X159642857Y-144445238D01*
X159547619Y-144350000D01*
X159404761Y-144302380D01*
X159309523Y-144302380D01*
X159166666Y-144350000D01*
X159119047Y-144397619D01*
X158785714Y-144302380D02*
X158166666Y-144302380D01*
X158500000Y-144683333D01*
X158357142Y-144683333D01*
X158261904Y-144730952D01*
X158214285Y-144778571D01*
X158166666Y-144873809D01*
X158166666Y-145111904D01*
X158214285Y-145207142D01*
X158261904Y-145254761D01*
X158357142Y-145302380D01*
X158642857Y-145302380D01*
X158738095Y-145254761D01*
X158785714Y-145207142D01*
X157547619Y-144302380D02*
X157452380Y-144302380D01*
X157357142Y-144350000D01*
X157309523Y-144397619D01*
X157261904Y-144492857D01*
X157214285Y-144683333D01*
X157214285Y-144921428D01*
X157261904Y-145111904D01*
X157309523Y-145207142D01*
X157357142Y-145254761D01*
X157452380Y-145302380D01*
X157547619Y-145302380D01*
X157642857Y-145254761D01*
X157690476Y-145207142D01*
X157738095Y-145111904D01*
X157785714Y-144921428D01*
X157785714Y-144683333D01*
X157738095Y-144492857D01*
X157690476Y-144397619D01*
X157642857Y-144350000D01*
X157547619Y-144302380D01*
X156642857Y-144730952D02*
X156738095Y-144683333D01*
X156785714Y-144635714D01*
X156833333Y-144540476D01*
X156833333Y-144492857D01*
X156785714Y-144397619D01*
X156738095Y-144350000D01*
X156642857Y-144302380D01*
X156452380Y-144302380D01*
X156357142Y-144350000D01*
X156309523Y-144397619D01*
X156261904Y-144492857D01*
X156261904Y-144540476D01*
X156309523Y-144635714D01*
X156357142Y-144683333D01*
X156452380Y-144730952D01*
X156642857Y-144730952D01*
X156738095Y-144778571D01*
X156785714Y-144826190D01*
X156833333Y-144921428D01*
X156833333Y-145111904D01*
X156785714Y-145207142D01*
X156738095Y-145254761D01*
X156642857Y-145302380D01*
X156452380Y-145302380D01*
X156357142Y-145254761D01*
X156309523Y-145207142D01*
X156261904Y-145111904D01*
X156261904Y-144921428D01*
X156309523Y-144826190D01*
X156357142Y-144778571D01*
X156452380Y-144730952D01*
%TO.C,C304*%
X101007142Y-118880952D02*
X101054761Y-118833333D01*
X101102380Y-118690476D01*
X101102380Y-118595238D01*
X101054761Y-118452380D01*
X100959523Y-118357142D01*
X100864285Y-118309523D01*
X100673809Y-118261904D01*
X100530952Y-118261904D01*
X100340476Y-118309523D01*
X100245238Y-118357142D01*
X100150000Y-118452380D01*
X100102380Y-118595238D01*
X100102380Y-118690476D01*
X100150000Y-118833333D01*
X100197619Y-118880952D01*
X100102380Y-119214285D02*
X100102380Y-119833333D01*
X100483333Y-119500000D01*
X100483333Y-119642857D01*
X100530952Y-119738095D01*
X100578571Y-119785714D01*
X100673809Y-119833333D01*
X100911904Y-119833333D01*
X101007142Y-119785714D01*
X101054761Y-119738095D01*
X101102380Y-119642857D01*
X101102380Y-119357142D01*
X101054761Y-119261904D01*
X101007142Y-119214285D01*
X100102380Y-120452380D02*
X100102380Y-120547619D01*
X100150000Y-120642857D01*
X100197619Y-120690476D01*
X100292857Y-120738095D01*
X100483333Y-120785714D01*
X100721428Y-120785714D01*
X100911904Y-120738095D01*
X101007142Y-120690476D01*
X101054761Y-120642857D01*
X101102380Y-120547619D01*
X101102380Y-120452380D01*
X101054761Y-120357142D01*
X101007142Y-120309523D01*
X100911904Y-120261904D01*
X100721428Y-120214285D01*
X100483333Y-120214285D01*
X100292857Y-120261904D01*
X100197619Y-120309523D01*
X100150000Y-120357142D01*
X100102380Y-120452380D01*
X100435714Y-121642857D02*
X101102380Y-121642857D01*
X100054761Y-121404761D02*
X100769047Y-121166666D01*
X100769047Y-121785714D01*
%TO.C,U1*%
X143761904Y-75152380D02*
X143761904Y-75961904D01*
X143714285Y-76057142D01*
X143666666Y-76104761D01*
X143571428Y-76152380D01*
X143380952Y-76152380D01*
X143285714Y-76104761D01*
X143238095Y-76057142D01*
X143190476Y-75961904D01*
X143190476Y-75152380D01*
X142190476Y-76152380D02*
X142761904Y-76152380D01*
X142476190Y-76152380D02*
X142476190Y-75152380D01*
X142571428Y-75295238D01*
X142666666Y-75390476D01*
X142761904Y-75438095D01*
%TO.C,R3*%
X154666666Y-77452380D02*
X155000000Y-76976190D01*
X155238095Y-77452380D02*
X155238095Y-76452380D01*
X154857142Y-76452380D01*
X154761904Y-76500000D01*
X154714285Y-76547619D01*
X154666666Y-76642857D01*
X154666666Y-76785714D01*
X154714285Y-76880952D01*
X154761904Y-76928571D01*
X154857142Y-76976190D01*
X155238095Y-76976190D01*
X154333333Y-76452380D02*
X153714285Y-76452380D01*
X154047619Y-76833333D01*
X153904761Y-76833333D01*
X153809523Y-76880952D01*
X153761904Y-76928571D01*
X153714285Y-77023809D01*
X153714285Y-77261904D01*
X153761904Y-77357142D01*
X153809523Y-77404761D01*
X153904761Y-77452380D01*
X154190476Y-77452380D01*
X154285714Y-77404761D01*
X154333333Y-77357142D01*
%TO.C,C302*%
X83007142Y-118880952D02*
X83054761Y-118833333D01*
X83102380Y-118690476D01*
X83102380Y-118595238D01*
X83054761Y-118452380D01*
X82959523Y-118357142D01*
X82864285Y-118309523D01*
X82673809Y-118261904D01*
X82530952Y-118261904D01*
X82340476Y-118309523D01*
X82245238Y-118357142D01*
X82150000Y-118452380D01*
X82102380Y-118595238D01*
X82102380Y-118690476D01*
X82150000Y-118833333D01*
X82197619Y-118880952D01*
X82102380Y-119214285D02*
X82102380Y-119833333D01*
X82483333Y-119500000D01*
X82483333Y-119642857D01*
X82530952Y-119738095D01*
X82578571Y-119785714D01*
X82673809Y-119833333D01*
X82911904Y-119833333D01*
X83007142Y-119785714D01*
X83054761Y-119738095D01*
X83102380Y-119642857D01*
X83102380Y-119357142D01*
X83054761Y-119261904D01*
X83007142Y-119214285D01*
X82102380Y-120452380D02*
X82102380Y-120547619D01*
X82150000Y-120642857D01*
X82197619Y-120690476D01*
X82292857Y-120738095D01*
X82483333Y-120785714D01*
X82721428Y-120785714D01*
X82911904Y-120738095D01*
X83007142Y-120690476D01*
X83054761Y-120642857D01*
X83102380Y-120547619D01*
X83102380Y-120452380D01*
X83054761Y-120357142D01*
X83007142Y-120309523D01*
X82911904Y-120261904D01*
X82721428Y-120214285D01*
X82483333Y-120214285D01*
X82292857Y-120261904D01*
X82197619Y-120309523D01*
X82150000Y-120357142D01*
X82102380Y-120452380D01*
X82197619Y-121166666D02*
X82150000Y-121214285D01*
X82102380Y-121309523D01*
X82102380Y-121547619D01*
X82150000Y-121642857D01*
X82197619Y-121690476D01*
X82292857Y-121738095D01*
X82388095Y-121738095D01*
X82530952Y-121690476D01*
X83102380Y-121119047D01*
X83102380Y-121738095D01*
%TO.C,R1*%
X140686666Y-72022380D02*
X141020000Y-71546190D01*
X141258095Y-72022380D02*
X141258095Y-71022380D01*
X140877142Y-71022380D01*
X140781904Y-71070000D01*
X140734285Y-71117619D01*
X140686666Y-71212857D01*
X140686666Y-71355714D01*
X140734285Y-71450952D01*
X140781904Y-71498571D01*
X140877142Y-71546190D01*
X141258095Y-71546190D01*
X139734285Y-72022380D02*
X140305714Y-72022380D01*
X140020000Y-72022380D02*
X140020000Y-71022380D01*
X140115238Y-71165238D01*
X140210476Y-71260476D01*
X140305714Y-71308095D01*
%TO.C,C303*%
X95119047Y-145207142D02*
X95166666Y-145254761D01*
X95309523Y-145302380D01*
X95404761Y-145302380D01*
X95547619Y-145254761D01*
X95642857Y-145159523D01*
X95690476Y-145064285D01*
X95738095Y-144873809D01*
X95738095Y-144730952D01*
X95690476Y-144540476D01*
X95642857Y-144445238D01*
X95547619Y-144350000D01*
X95404761Y-144302380D01*
X95309523Y-144302380D01*
X95166666Y-144350000D01*
X95119047Y-144397619D01*
X94785714Y-144302380D02*
X94166666Y-144302380D01*
X94500000Y-144683333D01*
X94357142Y-144683333D01*
X94261904Y-144730952D01*
X94214285Y-144778571D01*
X94166666Y-144873809D01*
X94166666Y-145111904D01*
X94214285Y-145207142D01*
X94261904Y-145254761D01*
X94357142Y-145302380D01*
X94642857Y-145302380D01*
X94738095Y-145254761D01*
X94785714Y-145207142D01*
X93547619Y-144302380D02*
X93452380Y-144302380D01*
X93357142Y-144350000D01*
X93309523Y-144397619D01*
X93261904Y-144492857D01*
X93214285Y-144683333D01*
X93214285Y-144921428D01*
X93261904Y-145111904D01*
X93309523Y-145207142D01*
X93357142Y-145254761D01*
X93452380Y-145302380D01*
X93547619Y-145302380D01*
X93642857Y-145254761D01*
X93690476Y-145207142D01*
X93738095Y-145111904D01*
X93785714Y-144921428D01*
X93785714Y-144683333D01*
X93738095Y-144492857D01*
X93690476Y-144397619D01*
X93642857Y-144350000D01*
X93547619Y-144302380D01*
X92880952Y-144302380D02*
X92261904Y-144302380D01*
X92595238Y-144683333D01*
X92452380Y-144683333D01*
X92357142Y-144730952D01*
X92309523Y-144778571D01*
X92261904Y-144873809D01*
X92261904Y-145111904D01*
X92309523Y-145207142D01*
X92357142Y-145254761D01*
X92452380Y-145302380D01*
X92738095Y-145302380D01*
X92833333Y-145254761D01*
X92880952Y-145207142D01*
%TO.C,C3*%
X166166666Y-76357142D02*
X166214285Y-76404761D01*
X166357142Y-76452380D01*
X166452380Y-76452380D01*
X166595238Y-76404761D01*
X166690476Y-76309523D01*
X166738095Y-76214285D01*
X166785714Y-76023809D01*
X166785714Y-75880952D01*
X166738095Y-75690476D01*
X166690476Y-75595238D01*
X166595238Y-75500000D01*
X166452380Y-75452380D01*
X166357142Y-75452380D01*
X166214285Y-75500000D01*
X166166666Y-75547619D01*
X165833333Y-75452380D02*
X165214285Y-75452380D01*
X165547619Y-75833333D01*
X165404761Y-75833333D01*
X165309523Y-75880952D01*
X165261904Y-75928571D01*
X165214285Y-76023809D01*
X165214285Y-76261904D01*
X165261904Y-76357142D01*
X165309523Y-76404761D01*
X165404761Y-76452380D01*
X165690476Y-76452380D01*
X165785714Y-76404761D01*
X165833333Y-76357142D01*
%TO.C,C206*%
X179207142Y-100880952D02*
X179254761Y-100833333D01*
X179302380Y-100690476D01*
X179302380Y-100595238D01*
X179254761Y-100452380D01*
X179159523Y-100357142D01*
X179064285Y-100309523D01*
X178873809Y-100261904D01*
X178730952Y-100261904D01*
X178540476Y-100309523D01*
X178445238Y-100357142D01*
X178350000Y-100452380D01*
X178302380Y-100595238D01*
X178302380Y-100690476D01*
X178350000Y-100833333D01*
X178397619Y-100880952D01*
X178397619Y-101261904D02*
X178350000Y-101309523D01*
X178302380Y-101404761D01*
X178302380Y-101642857D01*
X178350000Y-101738095D01*
X178397619Y-101785714D01*
X178492857Y-101833333D01*
X178588095Y-101833333D01*
X178730952Y-101785714D01*
X179302380Y-101214285D01*
X179302380Y-101833333D01*
X178302380Y-102452380D02*
X178302380Y-102547619D01*
X178350000Y-102642857D01*
X178397619Y-102690476D01*
X178492857Y-102738095D01*
X178683333Y-102785714D01*
X178921428Y-102785714D01*
X179111904Y-102738095D01*
X179207142Y-102690476D01*
X179254761Y-102642857D01*
X179302380Y-102547619D01*
X179302380Y-102452380D01*
X179254761Y-102357142D01*
X179207142Y-102309523D01*
X179111904Y-102261904D01*
X178921428Y-102214285D01*
X178683333Y-102214285D01*
X178492857Y-102261904D01*
X178397619Y-102309523D01*
X178350000Y-102357142D01*
X178302380Y-102452380D01*
X178302380Y-103642857D02*
X178302380Y-103452380D01*
X178350000Y-103357142D01*
X178397619Y-103309523D01*
X178540476Y-103214285D01*
X178730952Y-103166666D01*
X179111904Y-103166666D01*
X179207142Y-103214285D01*
X179254761Y-103261904D01*
X179302380Y-103357142D01*
X179302380Y-103547619D01*
X179254761Y-103642857D01*
X179207142Y-103690476D01*
X179111904Y-103738095D01*
X178873809Y-103738095D01*
X178778571Y-103690476D01*
X178730952Y-103642857D01*
X178683333Y-103547619D01*
X178683333Y-103357142D01*
X178730952Y-103261904D01*
X178778571Y-103214285D01*
X178873809Y-103166666D01*
%TO.C,R4*%
X154666666Y-78952380D02*
X155000000Y-78476190D01*
X155238095Y-78952380D02*
X155238095Y-77952380D01*
X154857142Y-77952380D01*
X154761904Y-78000000D01*
X154714285Y-78047619D01*
X154666666Y-78142857D01*
X154666666Y-78285714D01*
X154714285Y-78380952D01*
X154761904Y-78428571D01*
X154857142Y-78476190D01*
X155238095Y-78476190D01*
X153809523Y-78285714D02*
X153809523Y-78952380D01*
X154047619Y-77904761D02*
X154285714Y-78619047D01*
X153666666Y-78619047D01*
%TO.C,C312*%
X195119047Y-145107142D02*
X195166666Y-145154761D01*
X195309523Y-145202380D01*
X195404761Y-145202380D01*
X195547619Y-145154761D01*
X195642857Y-145059523D01*
X195690476Y-144964285D01*
X195738095Y-144773809D01*
X195738095Y-144630952D01*
X195690476Y-144440476D01*
X195642857Y-144345238D01*
X195547619Y-144250000D01*
X195404761Y-144202380D01*
X195309523Y-144202380D01*
X195166666Y-144250000D01*
X195119047Y-144297619D01*
X194785714Y-144202380D02*
X194166666Y-144202380D01*
X194500000Y-144583333D01*
X194357142Y-144583333D01*
X194261904Y-144630952D01*
X194214285Y-144678571D01*
X194166666Y-144773809D01*
X194166666Y-145011904D01*
X194214285Y-145107142D01*
X194261904Y-145154761D01*
X194357142Y-145202380D01*
X194642857Y-145202380D01*
X194738095Y-145154761D01*
X194785714Y-145107142D01*
X193214285Y-145202380D02*
X193785714Y-145202380D01*
X193500000Y-145202380D02*
X193500000Y-144202380D01*
X193595238Y-144345238D01*
X193690476Y-144440476D01*
X193785714Y-144488095D01*
X192833333Y-144297619D02*
X192785714Y-144250000D01*
X192690476Y-144202380D01*
X192452380Y-144202380D01*
X192357142Y-144250000D01*
X192309523Y-144297619D01*
X192261904Y-144392857D01*
X192261904Y-144488095D01*
X192309523Y-144630952D01*
X192880952Y-145202380D01*
X192261904Y-145202380D01*
%TO.C,C208*%
X215207142Y-100880952D02*
X215254761Y-100833333D01*
X215302380Y-100690476D01*
X215302380Y-100595238D01*
X215254761Y-100452380D01*
X215159523Y-100357142D01*
X215064285Y-100309523D01*
X214873809Y-100261904D01*
X214730952Y-100261904D01*
X214540476Y-100309523D01*
X214445238Y-100357142D01*
X214350000Y-100452380D01*
X214302380Y-100595238D01*
X214302380Y-100690476D01*
X214350000Y-100833333D01*
X214397619Y-100880952D01*
X214397619Y-101261904D02*
X214350000Y-101309523D01*
X214302380Y-101404761D01*
X214302380Y-101642857D01*
X214350000Y-101738095D01*
X214397619Y-101785714D01*
X214492857Y-101833333D01*
X214588095Y-101833333D01*
X214730952Y-101785714D01*
X215302380Y-101214285D01*
X215302380Y-101833333D01*
X214302380Y-102452380D02*
X214302380Y-102547619D01*
X214350000Y-102642857D01*
X214397619Y-102690476D01*
X214492857Y-102738095D01*
X214683333Y-102785714D01*
X214921428Y-102785714D01*
X215111904Y-102738095D01*
X215207142Y-102690476D01*
X215254761Y-102642857D01*
X215302380Y-102547619D01*
X215302380Y-102452380D01*
X215254761Y-102357142D01*
X215207142Y-102309523D01*
X215111904Y-102261904D01*
X214921428Y-102214285D01*
X214683333Y-102214285D01*
X214492857Y-102261904D01*
X214397619Y-102309523D01*
X214350000Y-102357142D01*
X214302380Y-102452380D01*
X214730952Y-103357142D02*
X214683333Y-103261904D01*
X214635714Y-103214285D01*
X214540476Y-103166666D01*
X214492857Y-103166666D01*
X214397619Y-103214285D01*
X214350000Y-103261904D01*
X214302380Y-103357142D01*
X214302380Y-103547619D01*
X214350000Y-103642857D01*
X214397619Y-103690476D01*
X214492857Y-103738095D01*
X214540476Y-103738095D01*
X214635714Y-103690476D01*
X214683333Y-103642857D01*
X214730952Y-103547619D01*
X214730952Y-103357142D01*
X214778571Y-103261904D01*
X214826190Y-103214285D01*
X214921428Y-103166666D01*
X215111904Y-103166666D01*
X215207142Y-103214285D01*
X215254761Y-103261904D01*
X215302380Y-103357142D01*
X215302380Y-103547619D01*
X215254761Y-103642857D01*
X215207142Y-103690476D01*
X215111904Y-103738095D01*
X214921428Y-103738095D01*
X214826190Y-103690476D01*
X214778571Y-103642857D01*
X214730952Y-103547619D01*
%TO.C,C301*%
X77119047Y-145207142D02*
X77166666Y-145254761D01*
X77309523Y-145302380D01*
X77404761Y-145302380D01*
X77547619Y-145254761D01*
X77642857Y-145159523D01*
X77690476Y-145064285D01*
X77738095Y-144873809D01*
X77738095Y-144730952D01*
X77690476Y-144540476D01*
X77642857Y-144445238D01*
X77547619Y-144350000D01*
X77404761Y-144302380D01*
X77309523Y-144302380D01*
X77166666Y-144350000D01*
X77119047Y-144397619D01*
X76785714Y-144302380D02*
X76166666Y-144302380D01*
X76500000Y-144683333D01*
X76357142Y-144683333D01*
X76261904Y-144730952D01*
X76214285Y-144778571D01*
X76166666Y-144873809D01*
X76166666Y-145111904D01*
X76214285Y-145207142D01*
X76261904Y-145254761D01*
X76357142Y-145302380D01*
X76642857Y-145302380D01*
X76738095Y-145254761D01*
X76785714Y-145207142D01*
X75547619Y-144302380D02*
X75452380Y-144302380D01*
X75357142Y-144350000D01*
X75309523Y-144397619D01*
X75261904Y-144492857D01*
X75214285Y-144683333D01*
X75214285Y-144921428D01*
X75261904Y-145111904D01*
X75309523Y-145207142D01*
X75357142Y-145254761D01*
X75452380Y-145302380D01*
X75547619Y-145302380D01*
X75642857Y-145254761D01*
X75690476Y-145207142D01*
X75738095Y-145111904D01*
X75785714Y-144921428D01*
X75785714Y-144683333D01*
X75738095Y-144492857D01*
X75690476Y-144397619D01*
X75642857Y-144350000D01*
X75547619Y-144302380D01*
X74261904Y-145302380D02*
X74833333Y-145302380D01*
X74547619Y-145302380D02*
X74547619Y-144302380D01*
X74642857Y-144445238D01*
X74738095Y-144540476D01*
X74833333Y-144588095D01*
%TO.C,FB2*%
X163333333Y-69078571D02*
X163666666Y-69078571D01*
X163666666Y-69602380D02*
X163666666Y-68602380D01*
X163190476Y-68602380D01*
X162476190Y-69078571D02*
X162333333Y-69126190D01*
X162285714Y-69173809D01*
X162238095Y-69269047D01*
X162238095Y-69411904D01*
X162285714Y-69507142D01*
X162333333Y-69554761D01*
X162428571Y-69602380D01*
X162809523Y-69602380D01*
X162809523Y-68602380D01*
X162476190Y-68602380D01*
X162380952Y-68650000D01*
X162333333Y-68697619D01*
X162285714Y-68792857D01*
X162285714Y-68888095D01*
X162333333Y-68983333D01*
X162380952Y-69030952D01*
X162476190Y-69078571D01*
X162809523Y-69078571D01*
X161857142Y-68697619D02*
X161809523Y-68650000D01*
X161714285Y-68602380D01*
X161476190Y-68602380D01*
X161380952Y-68650000D01*
X161333333Y-68697619D01*
X161285714Y-68792857D01*
X161285714Y-68888095D01*
X161333333Y-69030952D01*
X161904761Y-69602380D01*
X161285714Y-69602380D01*
%TO.C,C207*%
X197207142Y-100880952D02*
X197254761Y-100833333D01*
X197302380Y-100690476D01*
X197302380Y-100595238D01*
X197254761Y-100452380D01*
X197159523Y-100357142D01*
X197064285Y-100309523D01*
X196873809Y-100261904D01*
X196730952Y-100261904D01*
X196540476Y-100309523D01*
X196445238Y-100357142D01*
X196350000Y-100452380D01*
X196302380Y-100595238D01*
X196302380Y-100690476D01*
X196350000Y-100833333D01*
X196397619Y-100880952D01*
X196397619Y-101261904D02*
X196350000Y-101309523D01*
X196302380Y-101404761D01*
X196302380Y-101642857D01*
X196350000Y-101738095D01*
X196397619Y-101785714D01*
X196492857Y-101833333D01*
X196588095Y-101833333D01*
X196730952Y-101785714D01*
X197302380Y-101214285D01*
X197302380Y-101833333D01*
X196302380Y-102452380D02*
X196302380Y-102547619D01*
X196350000Y-102642857D01*
X196397619Y-102690476D01*
X196492857Y-102738095D01*
X196683333Y-102785714D01*
X196921428Y-102785714D01*
X197111904Y-102738095D01*
X197207142Y-102690476D01*
X197254761Y-102642857D01*
X197302380Y-102547619D01*
X197302380Y-102452380D01*
X197254761Y-102357142D01*
X197207142Y-102309523D01*
X197111904Y-102261904D01*
X196921428Y-102214285D01*
X196683333Y-102214285D01*
X196492857Y-102261904D01*
X196397619Y-102309523D01*
X196350000Y-102357142D01*
X196302380Y-102452380D01*
X196302380Y-103119047D02*
X196302380Y-103785714D01*
X197302380Y-103357142D01*
%TO.C,C313*%
X213119047Y-145357142D02*
X213166666Y-145404761D01*
X213309523Y-145452380D01*
X213404761Y-145452380D01*
X213547619Y-145404761D01*
X213642857Y-145309523D01*
X213690476Y-145214285D01*
X213738095Y-145023809D01*
X213738095Y-144880952D01*
X213690476Y-144690476D01*
X213642857Y-144595238D01*
X213547619Y-144500000D01*
X213404761Y-144452380D01*
X213309523Y-144452380D01*
X213166666Y-144500000D01*
X213119047Y-144547619D01*
X212785714Y-144452380D02*
X212166666Y-144452380D01*
X212500000Y-144833333D01*
X212357142Y-144833333D01*
X212261904Y-144880952D01*
X212214285Y-144928571D01*
X212166666Y-145023809D01*
X212166666Y-145261904D01*
X212214285Y-145357142D01*
X212261904Y-145404761D01*
X212357142Y-145452380D01*
X212642857Y-145452380D01*
X212738095Y-145404761D01*
X212785714Y-145357142D01*
X211214285Y-145452380D02*
X211785714Y-145452380D01*
X211500000Y-145452380D02*
X211500000Y-144452380D01*
X211595238Y-144595238D01*
X211690476Y-144690476D01*
X211785714Y-144738095D01*
X210880952Y-144452380D02*
X210261904Y-144452380D01*
X210595238Y-144833333D01*
X210452380Y-144833333D01*
X210357142Y-144880952D01*
X210309523Y-144928571D01*
X210261904Y-145023809D01*
X210261904Y-145261904D01*
X210309523Y-145357142D01*
X210357142Y-145404761D01*
X210452380Y-145452380D01*
X210738095Y-145452380D01*
X210833333Y-145404761D01*
X210880952Y-145357142D01*
%TO.C,kibuzzard-6388D403*%
G36*
X206940212Y-153765175D02*
G01*
X206808847Y-153618331D01*
X206713200Y-153393700D01*
X206669985Y-153197556D01*
X206644056Y-152960489D01*
X206635412Y-152682500D01*
X206971963Y-152682500D01*
X206981487Y-152995237D01*
X207010062Y-153234950D01*
X207057688Y-153401637D01*
X207169606Y-153548084D01*
X207333913Y-153596900D01*
X207498219Y-153548084D01*
X207610137Y-153401637D01*
X207657763Y-153234950D01*
X207686338Y-152995237D01*
X207695862Y-152682500D01*
X207686338Y-152369762D01*
X207657763Y-152130050D01*
X207610137Y-151963362D01*
X207498219Y-151816916D01*
X207333913Y-151768100D01*
X207169606Y-151816916D01*
X207057688Y-151963362D01*
X207010062Y-152130050D01*
X206981487Y-152369762D01*
X206971963Y-152682500D01*
X206635412Y-152682500D01*
X206644056Y-152404511D01*
X206669985Y-152167444D01*
X206713200Y-151971300D01*
X206808847Y-151746669D01*
X206940212Y-151599825D01*
X207113250Y-151518862D01*
X207333913Y-151491875D01*
X207554575Y-151518862D01*
X207727613Y-151599825D01*
X207858978Y-151746669D01*
X207954625Y-151971300D01*
X207997840Y-152167444D01*
X208023769Y-152404511D01*
X208032413Y-152682500D01*
X208023769Y-152960489D01*
X207997840Y-153197556D01*
X207954625Y-153393700D01*
X207858978Y-153618331D01*
X207727613Y-153765175D01*
X207554575Y-153846138D01*
X207333913Y-153873125D01*
X207113250Y-153846138D01*
X206940212Y-153765175D01*
G37*
G36*
X194611687Y-153396875D02*
G01*
X194618037Y-153396875D01*
X194970462Y-152190375D01*
X195316537Y-152190375D01*
X194767262Y-153809625D01*
X195027612Y-154539875D01*
X194678362Y-154539875D01*
X193919537Y-152190375D01*
X194281487Y-152190375D01*
X194611687Y-153396875D01*
G37*
G36*
X183508712Y-153000000D02*
G01*
X183515062Y-153000000D01*
X183708737Y-151523625D01*
X184124662Y-151523625D01*
X184245312Y-153841375D01*
X183934162Y-153841375D01*
X183880187Y-151872875D01*
X183870662Y-151872875D01*
X183689687Y-153301625D01*
X183388062Y-153301625D01*
X183191212Y-151872875D01*
X183188037Y-151872875D01*
X183140412Y-153841375D01*
X182800687Y-153841375D01*
X182918162Y-151523625D01*
X183318212Y-151523625D01*
X183508712Y-153000000D01*
G37*
G36*
X192697515Y-153786342D02*
G01*
X192563812Y-153677862D01*
X192470326Y-153517525D01*
X192414235Y-153296863D01*
X192395538Y-153015875D01*
X192744787Y-153015875D01*
X192765425Y-153302419D01*
X192827337Y-153488950D01*
X192931319Y-153591344D01*
X193078162Y-153625475D01*
X193284537Y-153584200D01*
X193284537Y-152526925D01*
X193169444Y-152445962D01*
X193021012Y-152418975D01*
X192899172Y-152452709D01*
X192813050Y-152553913D01*
X192761853Y-152736872D01*
X192744787Y-153015875D01*
X192395538Y-153015875D01*
X192411589Y-152739650D01*
X192459743Y-152520575D01*
X192540000Y-152358650D01*
X192653418Y-152247525D01*
X192801056Y-152180850D01*
X192982912Y-152158625D01*
X193137694Y-152176087D01*
X193284537Y-152228475D01*
X193284537Y-151460125D01*
X193633787Y-151460125D01*
X193633787Y-153771525D01*
X193470804Y-153827969D01*
X193290887Y-153861836D01*
X193094037Y-153873125D01*
X193078162Y-153871558D01*
X192874257Y-153851429D01*
X192697515Y-153786342D01*
G37*
G36*
X186648787Y-153873125D02*
G01*
X186451938Y-153861836D01*
X186272021Y-153827969D01*
X186109037Y-153771525D01*
X186109037Y-153584200D01*
X186458287Y-153584200D01*
X186664662Y-153625475D01*
X186811506Y-153591344D01*
X186915487Y-153488950D01*
X186977400Y-153302419D01*
X186998037Y-153015875D01*
X186980972Y-152736872D01*
X186929775Y-152553913D01*
X186843653Y-152452709D01*
X186721812Y-152418975D01*
X186573381Y-152445962D01*
X186458287Y-152526925D01*
X186458287Y-153584200D01*
X186109037Y-153584200D01*
X186109037Y-151460125D01*
X186458287Y-151460125D01*
X186458287Y-152228475D01*
X186605131Y-152176087D01*
X186759912Y-152158625D01*
X186941769Y-152180850D01*
X187089407Y-152247525D01*
X187202825Y-152358650D01*
X187283082Y-152520575D01*
X187331236Y-152739650D01*
X187347287Y-153015875D01*
X187328590Y-153296863D01*
X187272499Y-153517525D01*
X187179012Y-153677862D01*
X187045310Y-153786342D01*
X186868568Y-153851429D01*
X186664662Y-153871558D01*
X186648787Y-153873125D01*
G37*
G36*
X180298787Y-153873125D02*
G01*
X180101937Y-153861836D01*
X179922021Y-153827969D01*
X179759037Y-153771525D01*
X179759037Y-153584200D01*
X180108287Y-153584200D01*
X180314662Y-153625475D01*
X180461506Y-153591344D01*
X180565487Y-153488950D01*
X180627400Y-153302419D01*
X180648037Y-153015875D01*
X180630972Y-152736872D01*
X180579775Y-152553913D01*
X180493653Y-152452709D01*
X180371812Y-152418975D01*
X180223381Y-152445962D01*
X180108287Y-152526925D01*
X180108287Y-153584200D01*
X179759037Y-153584200D01*
X179759037Y-151460125D01*
X180108287Y-151460125D01*
X180108287Y-152228475D01*
X180255131Y-152176087D01*
X180409912Y-152158625D01*
X180591769Y-152180850D01*
X180739407Y-152247525D01*
X180852825Y-152358650D01*
X180933082Y-152520575D01*
X180981236Y-152739650D01*
X180997287Y-153015875D01*
X180978590Y-153296863D01*
X180922499Y-153517525D01*
X180829012Y-153677862D01*
X180695310Y-153786342D01*
X180518568Y-153851429D01*
X180314662Y-153871558D01*
X180298787Y-153873125D01*
G37*
G36*
X205393635Y-152978833D02*
G01*
X205252700Y-152873000D01*
X205153040Y-152720953D01*
X205093244Y-152518811D01*
X205073313Y-152266575D01*
X205419387Y-152266575D01*
X205442803Y-152510653D01*
X205513050Y-152671387D01*
X205632509Y-152760684D01*
X205803563Y-152790450D01*
X205987712Y-152768225D01*
X205987712Y-151793500D01*
X205803563Y-151768100D01*
X205632509Y-151797469D01*
X205513050Y-151885575D01*
X205442803Y-152039562D01*
X205419387Y-152266575D01*
X205073313Y-152266575D01*
X205092715Y-152018749D01*
X205150924Y-151821369D01*
X205247937Y-151674437D01*
X205387285Y-151573014D01*
X205572493Y-151512160D01*
X205803563Y-151491875D01*
X205986301Y-151498931D01*
X206166218Y-151520097D01*
X206343313Y-151555375D01*
X206343313Y-153841375D01*
X205987712Y-153841375D01*
X205987712Y-153047625D01*
X205803563Y-153063500D01*
X205577256Y-153042333D01*
X205393635Y-152978833D01*
G37*
G36*
X198043862Y-152539625D02*
G01*
X198050212Y-152539625D01*
X198050212Y-151523625D01*
X198405813Y-151523625D01*
X198405813Y-153841375D01*
X198050212Y-153841375D01*
X198050212Y-152730125D01*
X198043862Y-152730125D01*
X197488237Y-153841375D01*
X197104062Y-153841375D01*
X197726363Y-152628525D01*
X197119937Y-151523625D01*
X197500937Y-151523625D01*
X198043862Y-152539625D01*
G37*
G36*
X177790537Y-151780800D02*
G01*
X177365087Y-151780800D01*
X177365087Y-153841375D01*
X176584037Y-153841375D01*
X176584037Y-153584200D01*
X177009487Y-153584200D01*
X177009487Y-151523625D01*
X177790537Y-151523625D01*
X177790537Y-151780800D01*
G37*
G36*
X201545887Y-151847475D02*
G01*
X201545887Y-152158625D01*
X200999788Y-151853825D01*
X200993437Y-151857000D01*
X200993437Y-153841375D01*
X200637838Y-153841375D01*
X200637838Y-151523625D01*
X200990263Y-151523625D01*
X201545887Y-151847475D01*
G37*
G36*
X171383387Y-151847475D02*
G01*
X171383387Y-152158625D01*
X170837287Y-151853825D01*
X170830937Y-151857000D01*
X170830937Y-153841375D01*
X170475338Y-153841375D01*
X170475338Y-151523625D01*
X170827762Y-151523625D01*
X171383387Y-151847475D01*
G37*
G36*
X191086379Y-153782814D02*
G01*
X190957262Y-153669925D01*
X190865540Y-153506942D01*
X190810507Y-153288925D01*
X190792163Y-153015875D01*
X191147762Y-153015875D01*
X191165622Y-153306784D01*
X191219200Y-153487362D01*
X191314847Y-153581422D01*
X191458912Y-153612775D01*
X191602978Y-153581422D01*
X191698625Y-153487362D01*
X191752203Y-153306784D01*
X191770062Y-153015875D01*
X191752203Y-152724966D01*
X191698625Y-152544387D01*
X191602978Y-152450328D01*
X191458912Y-152418975D01*
X191314847Y-152450328D01*
X191219200Y-152544387D01*
X191165622Y-152724966D01*
X191147762Y-153015875D01*
X190792163Y-153015875D01*
X190810507Y-152742825D01*
X190865540Y-152524808D01*
X190957262Y-152361825D01*
X191086379Y-152248936D01*
X191253596Y-152181203D01*
X191458912Y-152158625D01*
X191664229Y-152181203D01*
X191831446Y-152248936D01*
X191960562Y-152361825D01*
X192052285Y-152524808D01*
X192107318Y-152742825D01*
X192125662Y-153015875D01*
X192107318Y-153288925D01*
X192052285Y-153506942D01*
X191960562Y-153669925D01*
X191831446Y-153782814D01*
X191664229Y-153850547D01*
X191458912Y-153873125D01*
X191253596Y-153850547D01*
X191086379Y-153782814D01*
G37*
G36*
X181561379Y-153782814D02*
G01*
X181432262Y-153669925D01*
X181340540Y-153506942D01*
X181285507Y-153288925D01*
X181267162Y-153015875D01*
X181622762Y-153015875D01*
X181640622Y-153306784D01*
X181694200Y-153487362D01*
X181789847Y-153581422D01*
X181933912Y-153612775D01*
X182077978Y-153581422D01*
X182173625Y-153487362D01*
X182227203Y-153306784D01*
X182245062Y-153015875D01*
X182227203Y-152724966D01*
X182173625Y-152544387D01*
X182077978Y-152450328D01*
X181933912Y-152418975D01*
X181789847Y-152450328D01*
X181694200Y-152544387D01*
X181640622Y-152724966D01*
X181622762Y-153015875D01*
X181267162Y-153015875D01*
X181285507Y-152742825D01*
X181340540Y-152524808D01*
X181432262Y-152361825D01*
X181561379Y-152248936D01*
X181728596Y-152181203D01*
X181933912Y-152158625D01*
X182139229Y-152181203D01*
X182306446Y-152248936D01*
X182435562Y-152361825D01*
X182527285Y-152524808D01*
X182582318Y-152742825D01*
X182600662Y-153015875D01*
X182582318Y-153288925D01*
X182527285Y-153506942D01*
X182435562Y-153669925D01*
X182306446Y-153782814D01*
X182139229Y-153850547D01*
X181933912Y-153873125D01*
X181728596Y-153850547D01*
X181561379Y-153782814D01*
G37*
G36*
X174958437Y-153009525D02*
G01*
X174965816Y-152888875D01*
X175301337Y-152888875D01*
X175866487Y-152888875D01*
X175839500Y-152660275D01*
X175783937Y-152514225D01*
X175695831Y-152435644D01*
X175571212Y-152409450D01*
X175371187Y-152518987D01*
X175320387Y-152666228D01*
X175301337Y-152888875D01*
X174965816Y-152888875D01*
X174975018Y-152738415D01*
X175024760Y-152521986D01*
X175107662Y-152360237D01*
X175224432Y-152248231D01*
X175375774Y-152181026D01*
X175561687Y-152158625D01*
X175765417Y-152182437D01*
X175932104Y-152253875D01*
X176061750Y-152372937D01*
X176154354Y-152539625D01*
X176209917Y-152753937D01*
X176228437Y-153015875D01*
X176213534Y-153243309D01*
X176168825Y-153435753D01*
X176094310Y-153593207D01*
X175989989Y-153715671D01*
X175855861Y-153803145D01*
X175691927Y-153855630D01*
X175498187Y-153873125D01*
X175276731Y-153853281D01*
X175044162Y-153793750D01*
X175044162Y-153530225D01*
X175261650Y-153594519D01*
X175456913Y-153615950D01*
X175627172Y-153588566D01*
X175750600Y-153506412D01*
X175829578Y-153359172D01*
X175866487Y-153136525D01*
X174964787Y-153136525D01*
X174958437Y-153009525D01*
G37*
G36*
X203533437Y-153009525D02*
G01*
X203540816Y-152888875D01*
X203876338Y-152888875D01*
X204441488Y-152888875D01*
X204414500Y-152660275D01*
X204358938Y-152514225D01*
X204270831Y-152435644D01*
X204146212Y-152409450D01*
X203946187Y-152518987D01*
X203895387Y-152666228D01*
X203876338Y-152888875D01*
X203540816Y-152888875D01*
X203550018Y-152738415D01*
X203599760Y-152521986D01*
X203682663Y-152360237D01*
X203799432Y-152248231D01*
X203950774Y-152181026D01*
X204136687Y-152158625D01*
X204340417Y-152182437D01*
X204507104Y-152253875D01*
X204636750Y-152372937D01*
X204729354Y-152539625D01*
X204784917Y-152753937D01*
X204803438Y-153015875D01*
X204788534Y-153243309D01*
X204743825Y-153435753D01*
X204669310Y-153593207D01*
X204564989Y-153715671D01*
X204430861Y-153803145D01*
X204266927Y-153855630D01*
X204073188Y-153873125D01*
X203851731Y-153853281D01*
X203619163Y-153793750D01*
X203619163Y-153530225D01*
X203836650Y-153594519D01*
X204031912Y-153615950D01*
X204202172Y-153588566D01*
X204325600Y-153506412D01*
X204404578Y-153359172D01*
X204441488Y-153136525D01*
X203539787Y-153136525D01*
X203533437Y-153009525D01*
G37*
G36*
X195595938Y-153009525D02*
G01*
X195603316Y-152888875D01*
X195938837Y-152888875D01*
X196503987Y-152888875D01*
X196477000Y-152660275D01*
X196421437Y-152514225D01*
X196333331Y-152435644D01*
X196208712Y-152409450D01*
X196008687Y-152518987D01*
X195957888Y-152666228D01*
X195938837Y-152888875D01*
X195603316Y-152888875D01*
X195612518Y-152738415D01*
X195662260Y-152521986D01*
X195745162Y-152360237D01*
X195861932Y-152248231D01*
X196013274Y-152181026D01*
X196199187Y-152158625D01*
X196402917Y-152182437D01*
X196569604Y-152253875D01*
X196699250Y-152372937D01*
X196791854Y-152539625D01*
X196847417Y-152753937D01*
X196865937Y-153015875D01*
X196845653Y-153277812D01*
X196784799Y-153492125D01*
X196683375Y-153658812D01*
X196541382Y-153777875D01*
X196358819Y-153849312D01*
X196135687Y-153873125D01*
X195914231Y-153853281D01*
X195681662Y-153793750D01*
X195681662Y-153530225D01*
X195899150Y-153594519D01*
X196094413Y-153615950D01*
X196264672Y-153588566D01*
X196388100Y-153506412D01*
X196467078Y-153359172D01*
X196503987Y-153136525D01*
X195602287Y-153136525D01*
X195595938Y-153009525D01*
G37*
G36*
X172399387Y-153587375D02*
G01*
X172405737Y-153587375D01*
X172713712Y-152190375D01*
X173075662Y-152190375D01*
X172631162Y-153841375D01*
X172186662Y-153841375D01*
X171742162Y-152190375D01*
X172091412Y-152190375D01*
X172399387Y-153587375D01*
G37*
G36*
X189461485Y-153827969D02*
G01*
X189284037Y-153771525D01*
X189284037Y-153584200D01*
X189630112Y-153584200D01*
X189839662Y-153625475D01*
X190071437Y-153550862D01*
X190153987Y-153339725D01*
X190128191Y-153196056D01*
X190050800Y-153095250D01*
X189916259Y-153035719D01*
X189719013Y-153015875D01*
X189630112Y-153015875D01*
X189630112Y-153584200D01*
X189284037Y-153584200D01*
X189284037Y-152787275D01*
X189297619Y-152565025D01*
X189338365Y-152397808D01*
X189406275Y-152285625D01*
X189585266Y-152190375D01*
X189877762Y-152158625D01*
X190048507Y-152169914D01*
X190226307Y-152203781D01*
X190411163Y-152260225D01*
X190411163Y-152533275D01*
X190227013Y-152469775D01*
X190055562Y-152431675D01*
X189896812Y-152418975D01*
X189679325Y-152477712D01*
X189630112Y-152723775D01*
X189630112Y-152777750D01*
X189719013Y-152777750D01*
X189955550Y-152793801D01*
X190148696Y-152841956D01*
X190298450Y-152922212D01*
X190442516Y-153098822D01*
X190490537Y-153339725D01*
X190448072Y-153565150D01*
X190320675Y-153733425D01*
X190191735Y-153811036D01*
X190031397Y-153857603D01*
X189839662Y-153873125D01*
X189646693Y-153861836D01*
X189461485Y-153827969D01*
G37*
G36*
X209173296Y-152173442D02*
G01*
X209358504Y-152217892D01*
X209524662Y-152291975D01*
X209524662Y-153841375D01*
X209175412Y-153841375D01*
X209175412Y-152488825D01*
X208959513Y-152418975D01*
X208724562Y-152482475D01*
X208661063Y-152714250D01*
X208661063Y-153841375D01*
X208318163Y-153841375D01*
X208318163Y-152730125D01*
X208351103Y-152448344D01*
X208449925Y-152276100D01*
X208566165Y-152210836D01*
X208739203Y-152171678D01*
X208969038Y-152158625D01*
X209173296Y-152173442D01*
G37*
G36*
X178517612Y-153549275D02*
G01*
X178733512Y-153612775D01*
X178947825Y-153550862D01*
X179006563Y-153317500D01*
X179006563Y-152190375D01*
X179346287Y-152190375D01*
X179346287Y-153317500D01*
X179313744Y-153587375D01*
X179216112Y-153755650D01*
X179103929Y-153820914D01*
X178940946Y-153860072D01*
X178727162Y-153873125D01*
X178522904Y-153858308D01*
X178337696Y-153813858D01*
X178171537Y-153739775D01*
X178171537Y-152190375D01*
X178520787Y-152190375D01*
X178517612Y-153549275D01*
G37*
G36*
X187938600Y-152165229D02*
G01*
X188151705Y-152185041D01*
X188361255Y-152218061D01*
X188567249Y-152264289D01*
X188769687Y-152323725D01*
X188769687Y-153841375D01*
X188420438Y-153841375D01*
X188423613Y-152514225D01*
X188198893Y-152463072D01*
X187965001Y-152432381D01*
X187721937Y-152422150D01*
X187721937Y-152158625D01*
X187938600Y-152165229D01*
G37*
G36*
X203047662Y-153034925D02*
G01*
X202095162Y-153034925D01*
X202095162Y-152771400D01*
X203047662Y-152771400D01*
X203047662Y-153034925D01*
G37*
%TO.C,kibuzzard-6388C61B*%
G36*
X82819467Y-67385298D02*
G01*
X82793141Y-67562774D01*
X82749546Y-67736815D01*
X82689102Y-67905745D01*
X82612391Y-68067937D01*
X82520152Y-68221829D01*
X82413272Y-68365939D01*
X82292783Y-68498879D01*
X82159843Y-68619368D01*
X82015733Y-68726247D01*
X81861841Y-68818487D01*
X81699649Y-68895198D01*
X81530719Y-68955642D01*
X81356678Y-68999237D01*
X81179202Y-69025563D01*
X81000000Y-69034367D01*
X80820798Y-69025563D01*
X80643322Y-68999237D01*
X80469281Y-68955642D01*
X80300351Y-68895198D01*
X80138159Y-68818487D01*
X79984267Y-68726247D01*
X79840157Y-68619368D01*
X79707217Y-68498879D01*
X79586728Y-68365939D01*
X79479848Y-68221829D01*
X79387609Y-68067937D01*
X79310898Y-67905745D01*
X79250454Y-67736815D01*
X79206859Y-67562774D01*
X79180533Y-67385298D01*
X79171729Y-67206096D01*
X79171729Y-66011237D01*
X79833187Y-66011237D01*
X79833187Y-66319212D01*
X82166813Y-66544638D01*
X82166813Y-66271587D01*
X81690562Y-66236662D01*
X81690562Y-66090613D01*
X82166813Y-66055688D01*
X82166813Y-65782637D01*
X79833187Y-66011237D01*
X79171729Y-66011237D01*
X79171729Y-65719137D01*
X79833187Y-65719137D01*
X80185612Y-65719137D01*
X80185612Y-65525462D01*
X82166813Y-65525462D01*
X82166813Y-65261937D01*
X80185612Y-65261937D01*
X80185612Y-65068262D01*
X79833187Y-65068262D01*
X79833187Y-65719137D01*
X79171729Y-65719137D01*
X79171729Y-64471362D01*
X79833187Y-64471362D01*
X79833187Y-64779337D01*
X82166813Y-65004762D01*
X82166813Y-64731712D01*
X81690562Y-64696787D01*
X81690562Y-64550737D01*
X82166813Y-64515812D01*
X82166813Y-64242762D01*
X79833187Y-64471362D01*
X79171729Y-64471362D01*
X79171729Y-63455362D01*
X79833187Y-63455362D01*
X79833187Y-63658562D01*
X79913356Y-63887162D01*
X80011583Y-63964156D01*
X80145925Y-64020512D01*
X80314200Y-64059208D01*
X80514225Y-64083219D01*
X80744016Y-64095720D01*
X81001588Y-64099887D01*
X81267692Y-64094927D01*
X81500856Y-64080044D01*
X81700484Y-64053056D01*
X81865981Y-64011781D01*
X81996355Y-63954234D01*
X82090613Y-63878431D01*
X82166813Y-63663325D01*
X82166813Y-63455362D01*
X79833187Y-63455362D01*
X79171729Y-63455362D01*
X79171729Y-62793904D01*
X79180533Y-62614702D01*
X79206859Y-62437226D01*
X79250454Y-62263185D01*
X79310898Y-62094255D01*
X79387609Y-61932063D01*
X79479848Y-61778171D01*
X79586728Y-61634061D01*
X79707217Y-61501121D01*
X79840157Y-61380632D01*
X79984267Y-61273753D01*
X80138159Y-61181513D01*
X80300351Y-61104802D01*
X80469281Y-61044358D01*
X80643322Y-61000763D01*
X80820798Y-60974437D01*
X81000000Y-60965633D01*
X81179202Y-60974437D01*
X81356678Y-61000763D01*
X81530719Y-61044358D01*
X81699649Y-61104802D01*
X81861841Y-61181513D01*
X82015733Y-61273753D01*
X82159843Y-61380632D01*
X82292783Y-61501121D01*
X82413272Y-61634061D01*
X82520152Y-61778171D01*
X82612391Y-61932063D01*
X82689102Y-62094255D01*
X82749546Y-62263185D01*
X82793141Y-62437226D01*
X82819467Y-62614702D01*
X82828271Y-62793904D01*
X82828271Y-67206096D01*
X82819467Y-67385298D01*
G37*
G36*
X81721519Y-63794294D02*
G01*
X81598488Y-63813145D01*
X81434181Y-63823662D01*
X81233958Y-63828425D01*
X81003175Y-63830012D01*
X80771995Y-63828425D01*
X80570581Y-63823662D01*
X80404687Y-63813145D01*
X80280069Y-63794294D01*
X80176088Y-63718887D01*
X81823913Y-63718887D01*
X81721519Y-63794294D01*
G37*
G36*
X81363538Y-64679325D02*
G01*
X80450725Y-64626937D01*
X80401513Y-64626937D01*
X80401513Y-64620587D01*
X80450725Y-64620587D01*
X81363538Y-64571375D01*
X81363538Y-64679325D01*
G37*
G36*
X81363538Y-66219200D02*
G01*
X80450725Y-66166812D01*
X80401513Y-66166812D01*
X80401513Y-66160462D01*
X80450725Y-66160462D01*
X81363538Y-66111250D01*
X81363538Y-66219200D01*
G37*
%TO.C,kibuzzard-6388C579*%
G36*
X98250000Y-66193728D02*
G01*
X99170485Y-66807385D01*
X99170485Y-69806272D01*
X97329515Y-69806272D01*
X97329515Y-68499710D01*
X97660244Y-68499710D01*
X97695169Y-68584244D01*
X97784862Y-68631075D01*
X97900353Y-68650919D01*
X98012669Y-68655285D01*
X98012669Y-68525110D01*
X97934881Y-68525110D01*
X97844394Y-68521538D01*
X97809469Y-68501297D01*
X97824550Y-68483835D01*
X97867413Y-68475103D01*
X97933294Y-68472722D01*
X98225394Y-68472722D01*
X98286909Y-68477088D01*
X98311119Y-68498122D01*
X98284925Y-68525903D01*
X98225394Y-68534635D01*
X98225394Y-68655285D01*
X98839756Y-68655285D01*
X98839756Y-68372710D01*
X98669894Y-68372710D01*
X98669894Y-68527491D01*
X98415100Y-68527491D01*
X98452009Y-68506457D01*
X98466694Y-68463197D01*
X98430975Y-68388585D01*
X98340091Y-68353660D01*
X98225394Y-68344135D01*
X97949169Y-68344135D01*
X97855109Y-68348500D01*
X97760653Y-68368344D01*
X97688422Y-68414778D01*
X97660244Y-68499710D01*
X97329515Y-68499710D01*
X97329515Y-68196497D01*
X97672944Y-68196497D01*
X98839756Y-68304447D01*
X98839756Y-68175860D01*
X98256350Y-68135378D01*
X98179356Y-68134585D01*
X98179356Y-68128235D01*
X98255556Y-68127441D01*
X98839756Y-68086960D01*
X98839756Y-67958372D01*
X97672944Y-68066322D01*
X97672944Y-68196497D01*
X97329515Y-68196497D01*
X97329515Y-66807385D01*
X98250000Y-66193728D01*
G37*
%TO.C,kibuzzard-6388C567*%
G36*
X95600000Y-66195845D02*
G01*
X96514135Y-66805268D01*
X96514135Y-69804155D01*
X94685865Y-69804155D01*
X94685865Y-68753181D01*
X95016594Y-68753181D01*
X96183406Y-68753181D01*
X96183406Y-68621418D01*
X95016594Y-68621418D01*
X95016594Y-68753181D01*
X94685865Y-68753181D01*
X94685865Y-68557918D01*
X95016594Y-68557918D01*
X96183406Y-68557918D01*
X96183406Y-68438856D01*
X95678581Y-68361862D01*
X95608731Y-68353924D01*
X95608731Y-68351543D01*
X96183406Y-68351543D01*
X96183406Y-68229306D01*
X95016594Y-68229306D01*
X95016594Y-68340431D01*
X95516656Y-68424568D01*
X95607144Y-68433299D01*
X95607144Y-68435681D01*
X95016594Y-68435681D01*
X95016594Y-68557918D01*
X94685865Y-68557918D01*
X94685865Y-68084843D01*
X95016594Y-68084843D01*
X96007194Y-68084843D01*
X96007194Y-68181681D01*
X96183406Y-68181681D01*
X96183406Y-67856243D01*
X96007194Y-67856243D01*
X96007194Y-67953081D01*
X95016594Y-67953081D01*
X95016594Y-68084843D01*
X94685865Y-68084843D01*
X94685865Y-66805268D01*
X95600000Y-66195845D01*
G37*
%TO.C,kibuzzard-6388C552*%
G36*
X93100000Y-66191612D02*
G01*
X94026835Y-66809502D01*
X94026835Y-69808388D01*
X92173165Y-69808388D01*
X92173165Y-68734395D01*
X92503894Y-68734395D01*
X92533659Y-68818930D01*
X92612637Y-68868142D01*
X92721778Y-68891558D01*
X92842031Y-68897908D01*
X92861081Y-68769320D01*
X92815441Y-68768526D01*
X92747575Y-68764558D01*
X92686456Y-68754239D01*
X92661056Y-68734395D01*
X92689631Y-68711773D01*
X92773769Y-68707408D01*
X92842924Y-68712170D01*
X92913866Y-68726458D01*
X92992149Y-68753048D01*
X93083331Y-68794720D01*
X93192075Y-68839964D01*
X93313122Y-68874889D01*
X93423056Y-68888383D01*
X93515131Y-68882033D01*
X93603634Y-68859411D01*
X93670309Y-68813373D01*
X93696106Y-68735983D01*
X93668722Y-68646686D01*
X93596094Y-68599458D01*
X93496478Y-68580805D01*
X93388131Y-68577233D01*
X93369081Y-68707408D01*
X93412738Y-68707805D01*
X93469491Y-68710583D01*
X93518703Y-68718123D01*
X93538944Y-68732808D01*
X93506797Y-68751064D01*
X93423056Y-68755033D01*
X93299628Y-68735983D01*
X93228687Y-68711773D01*
X93148419Y-68677245D01*
X93050093Y-68633589D01*
X92961491Y-68601045D01*
X92876659Y-68580805D01*
X92789644Y-68574058D01*
X92698759Y-68580011D01*
X92605097Y-68603030D01*
X92532469Y-68651448D01*
X92503894Y-68734395D01*
X92173165Y-68734395D01*
X92173165Y-68494683D01*
X92516594Y-68494683D01*
X93683406Y-68494683D01*
X93683406Y-68393083D01*
X93643322Y-68278783D01*
X93594209Y-68240286D01*
X93527037Y-68212108D01*
X93442900Y-68192760D01*
X93342888Y-68180755D01*
X93227992Y-68174504D01*
X93099206Y-68172420D01*
X92966154Y-68174901D01*
X92849572Y-68182342D01*
X92749758Y-68195836D01*
X92667009Y-68216473D01*
X92601823Y-68245247D01*
X92554694Y-68283148D01*
X92516594Y-68390701D01*
X92516594Y-68494683D01*
X92173165Y-68494683D01*
X92173165Y-68100983D01*
X92516594Y-68100983D01*
X93683406Y-67986683D01*
X93683406Y-67832695D01*
X92516594Y-67719983D01*
X92516594Y-67856508D01*
X92754719Y-67873970D01*
X92754719Y-67946995D01*
X92516594Y-67964458D01*
X92516594Y-68100983D01*
X92173165Y-68100983D01*
X92173165Y-66809502D01*
X93100000Y-66191612D01*
G37*
G36*
X93214002Y-68308151D02*
G01*
X93314709Y-68310533D01*
X93397656Y-68315791D01*
X93459966Y-68325217D01*
X93511956Y-68362920D01*
X92688044Y-68362920D01*
X92739241Y-68325217D01*
X92800756Y-68315791D01*
X92882909Y-68310533D01*
X92983021Y-68308151D01*
X93098412Y-68307358D01*
X93214002Y-68308151D01*
G37*
G36*
X93374638Y-67908895D02*
G01*
X93399244Y-67908895D01*
X93399244Y-67912070D01*
X93374638Y-67912070D01*
X92918231Y-67936676D01*
X92918231Y-67882701D01*
X93374638Y-67908895D01*
G37*
%TO.C,kibuzzard-6388C535*%
G36*
X90500000Y-66191612D02*
G01*
X91426835Y-66809502D01*
X91426835Y-69808388D01*
X89573165Y-69808388D01*
X89573165Y-68661370D01*
X89903894Y-68661370D01*
X89933659Y-68745905D01*
X90012637Y-68795117D01*
X90121778Y-68818533D01*
X90242031Y-68824883D01*
X90261081Y-68696295D01*
X90215441Y-68695501D01*
X90147575Y-68691533D01*
X90086456Y-68681214D01*
X90061056Y-68661370D01*
X90089631Y-68638748D01*
X90173769Y-68634383D01*
X90242924Y-68639145D01*
X90313866Y-68653433D01*
X90392149Y-68680023D01*
X90483331Y-68721695D01*
X90592075Y-68766939D01*
X90713122Y-68801864D01*
X90823056Y-68815358D01*
X90915131Y-68809008D01*
X91003634Y-68786386D01*
X91070309Y-68740348D01*
X91096106Y-68662958D01*
X91068722Y-68573661D01*
X90996094Y-68526433D01*
X90896478Y-68507780D01*
X90788131Y-68504208D01*
X90769081Y-68634383D01*
X90812738Y-68634780D01*
X90869491Y-68637558D01*
X90918703Y-68645098D01*
X90938944Y-68659783D01*
X90906797Y-68678039D01*
X90823056Y-68682008D01*
X90699628Y-68662958D01*
X90628687Y-68638748D01*
X90548419Y-68604220D01*
X90450093Y-68560564D01*
X90361491Y-68528020D01*
X90276659Y-68507780D01*
X90189644Y-68501033D01*
X90098759Y-68506986D01*
X90005097Y-68530005D01*
X89932469Y-68578423D01*
X89903894Y-68661370D01*
X89573165Y-68661370D01*
X89573165Y-68274020D01*
X89903894Y-68274020D01*
X89941597Y-68369667D01*
X90034069Y-68416498D01*
X90140431Y-68429595D01*
X90859569Y-68429595D01*
X90965931Y-68415308D01*
X91058403Y-68367286D01*
X91096106Y-68274020D01*
X91071500Y-68195836D01*
X91008794Y-68147814D01*
X90930609Y-68123605D01*
X90859569Y-68116858D01*
X90683356Y-68116858D01*
X90683356Y-68245445D01*
X90865919Y-68245445D01*
X90907194Y-68249017D01*
X90929419Y-68270845D01*
X90907194Y-68291483D01*
X90865919Y-68294658D01*
X90134081Y-68294658D01*
X90092806Y-68291086D01*
X90070581Y-68270845D01*
X90092806Y-68249017D01*
X90134081Y-68245445D01*
X90316644Y-68245445D01*
X90316644Y-68116858D01*
X90140431Y-68116858D01*
X90025337Y-68131145D01*
X89937628Y-68179564D01*
X89903894Y-68274020D01*
X89573165Y-68274020D01*
X89573165Y-68061295D01*
X89916594Y-68061295D01*
X91083406Y-68061295D01*
X91083406Y-67929533D01*
X90075344Y-67929533D01*
X90075344Y-67793008D01*
X89916594Y-67793008D01*
X89916594Y-68061295D01*
X89573165Y-68061295D01*
X89573165Y-66809502D01*
X90500000Y-66191612D01*
G37*
%TO.C,kibuzzard-6388C51A*%
G36*
X85500000Y-66191612D02*
G01*
X86426835Y-66809502D01*
X86426835Y-69808388D01*
X84573165Y-69808388D01*
X84573165Y-68718520D01*
X84903894Y-68718520D01*
X84940803Y-68806626D01*
X85032481Y-68845520D01*
X85140431Y-68855045D01*
X85859569Y-68855045D01*
X85966725Y-68840361D01*
X86058800Y-68791545D01*
X86096106Y-68697883D01*
X86072691Y-68619698D01*
X86012762Y-68571676D01*
X85935372Y-68547467D01*
X85859569Y-68540720D01*
X85664306Y-68540720D01*
X85664306Y-68672483D01*
X85865919Y-68672483D01*
X85907591Y-68676451D01*
X85929419Y-68697883D01*
X85907987Y-68718123D01*
X85865919Y-68721695D01*
X85119794Y-68721695D01*
X85075344Y-68716536D01*
X85056294Y-68693914D01*
X85076534Y-68668911D01*
X85119794Y-68662958D01*
X85337281Y-68662958D01*
X85337281Y-68691533D01*
X85497619Y-68691533D01*
X85497619Y-68540720D01*
X84916594Y-68540720D01*
X84916594Y-68608983D01*
X84959456Y-68623270D01*
X84918181Y-68659386D01*
X84903894Y-68718520D01*
X84573165Y-68718520D01*
X84573165Y-68477220D01*
X84916594Y-68477220D01*
X86083406Y-68477220D01*
X86083406Y-68358158D01*
X85578581Y-68281164D01*
X85508731Y-68273226D01*
X85508731Y-68270845D01*
X86083406Y-68270845D01*
X86083406Y-68148608D01*
X84916594Y-68148608D01*
X84916594Y-68259733D01*
X85416656Y-68343870D01*
X85507144Y-68352601D01*
X85507144Y-68354983D01*
X84916594Y-68354983D01*
X84916594Y-68477220D01*
X84573165Y-68477220D01*
X84573165Y-68085108D01*
X84916594Y-68085108D01*
X86083406Y-68085108D01*
X86083406Y-67983508D01*
X86043322Y-67869208D01*
X85994209Y-67830711D01*
X85927037Y-67802533D01*
X85842900Y-67783185D01*
X85742888Y-67771180D01*
X85627992Y-67764929D01*
X85499206Y-67762845D01*
X85366154Y-67765326D01*
X85249572Y-67772767D01*
X85149758Y-67786261D01*
X85067009Y-67806898D01*
X85001823Y-67835672D01*
X84954694Y-67873573D01*
X84916594Y-67981126D01*
X84916594Y-68085108D01*
X84573165Y-68085108D01*
X84573165Y-66809502D01*
X85500000Y-66191612D01*
G37*
G36*
X85614002Y-67898576D02*
G01*
X85714709Y-67900958D01*
X85797656Y-67906216D01*
X85859966Y-67915642D01*
X85911956Y-67953345D01*
X85088044Y-67953345D01*
X85139241Y-67915642D01*
X85200756Y-67906216D01*
X85282909Y-67900958D01*
X85383021Y-67898576D01*
X85498412Y-67897783D01*
X85614002Y-67898576D01*
G37*
%TO.C,kibuzzard-6388C4FD*%
G36*
X88000000Y-66191612D02*
G01*
X88926835Y-66809502D01*
X88926835Y-69808388D01*
X87073165Y-69808388D01*
X87073165Y-68777655D01*
X87403894Y-68777655D01*
X87430484Y-68853855D01*
X87498747Y-68899892D01*
X87588441Y-68924101D01*
X87680119Y-68933230D01*
X87753144Y-68934817D01*
X87753144Y-68806230D01*
X87671387Y-68804642D01*
X87589631Y-68797101D01*
X87554706Y-68777655D01*
X87583678Y-68759398D01*
X87650353Y-68752255D01*
X87713456Y-68750667D01*
X87791839Y-68752552D01*
X87850775Y-68758208D01*
X87920625Y-68785989D01*
X87943644Y-68844330D01*
X88084931Y-68844330D01*
X88116681Y-68787180D01*
X88192484Y-68762176D01*
X88286544Y-68756223D01*
X88346075Y-68757414D01*
X88411559Y-68763764D01*
X88440531Y-68780830D01*
X88406003Y-68799483D01*
X88325834Y-68807420D01*
X88246856Y-68809405D01*
X88246856Y-68939580D01*
X88350441Y-68935214D01*
X88465534Y-68915767D01*
X88558800Y-68868936D01*
X88596106Y-68782417D01*
X88568722Y-68703439D01*
X88499666Y-68655814D01*
X88413941Y-68632001D01*
X88335756Y-68625255D01*
X88257473Y-68626941D01*
X88192484Y-68632001D01*
X88091678Y-68656211D01*
X88011906Y-68704630D01*
X87913878Y-68643114D01*
X87828649Y-68627338D01*
X87715044Y-68622080D01*
X87640034Y-68624758D01*
X87567406Y-68632795D01*
X87449931Y-68676848D01*
X87403894Y-68777655D01*
X87073165Y-68777655D01*
X87073165Y-68587155D01*
X87416594Y-68587155D01*
X87592806Y-68587155D01*
X87592806Y-68458567D01*
X87416594Y-68458567D01*
X87416594Y-68587155D01*
X87073165Y-68587155D01*
X87073165Y-68215680D01*
X87403894Y-68215680D01*
X87430484Y-68291880D01*
X87498747Y-68337917D01*
X87588441Y-68362126D01*
X87680119Y-68371255D01*
X87753144Y-68372842D01*
X87753144Y-68244255D01*
X87671387Y-68242667D01*
X87589631Y-68235126D01*
X87554706Y-68215680D01*
X87583678Y-68197423D01*
X87650353Y-68190280D01*
X87713456Y-68188692D01*
X87791839Y-68190577D01*
X87850775Y-68196233D01*
X87920625Y-68224014D01*
X87943644Y-68282355D01*
X88084931Y-68282355D01*
X88116681Y-68225205D01*
X88192484Y-68200201D01*
X88286544Y-68194248D01*
X88346075Y-68195439D01*
X88411559Y-68201789D01*
X88440531Y-68218855D01*
X88406003Y-68237508D01*
X88325834Y-68245445D01*
X88246856Y-68247430D01*
X88246856Y-68377605D01*
X88350441Y-68373239D01*
X88465534Y-68353792D01*
X88558800Y-68306961D01*
X88596106Y-68220442D01*
X88568722Y-68141464D01*
X88499666Y-68093839D01*
X88413941Y-68070026D01*
X88335756Y-68063280D01*
X88257473Y-68064966D01*
X88192484Y-68070026D01*
X88091678Y-68094236D01*
X88011906Y-68142655D01*
X87913878Y-68081139D01*
X87828649Y-68065363D01*
X87715044Y-68060105D01*
X87640034Y-68062783D01*
X87567406Y-68070820D01*
X87449931Y-68114873D01*
X87403894Y-68215680D01*
X87073165Y-68215680D01*
X87073165Y-67916436D01*
X87416594Y-67916436D01*
X88583406Y-68024386D01*
X88583406Y-67895798D01*
X88000000Y-67855317D01*
X87923006Y-67854523D01*
X87923006Y-67848173D01*
X87999206Y-67847380D01*
X88583406Y-67806898D01*
X88583406Y-67678311D01*
X87416594Y-67786261D01*
X87416594Y-67916436D01*
X87073165Y-67916436D01*
X87073165Y-66809502D01*
X88000000Y-66191612D01*
G37*
%TO.C,kibuzzard-6388C475*%
G36*
X129335988Y-64844745D02*
G01*
X129156046Y-64818053D01*
X128979587Y-64773852D01*
X128808310Y-64712569D01*
X128643865Y-64634792D01*
X128487835Y-64541271D01*
X128341723Y-64432907D01*
X128206936Y-64310743D01*
X128084772Y-64175956D01*
X128077991Y-64166813D01*
X130179137Y-64166813D01*
X130315662Y-64166813D01*
X130344237Y-64081088D01*
X130416469Y-64163637D01*
X130534737Y-64192213D01*
X130710950Y-64118394D01*
X130788737Y-63935038D01*
X130807787Y-63719138D01*
X130918912Y-63719138D01*
X130943519Y-63958056D01*
X131035594Y-64128713D01*
X131230062Y-64192213D01*
X131425325Y-64129506D01*
X131518987Y-63958850D01*
X131544387Y-63719138D01*
X131544387Y-63506412D01*
X131719012Y-63506412D01*
X131729133Y-63685403D01*
X131759494Y-63844550D01*
X131809897Y-63978098D01*
X131880144Y-64080294D01*
X132080962Y-64166813D01*
X132347662Y-64166813D01*
X132474662Y-64166813D01*
X133001712Y-64166813D01*
X133001712Y-63001588D01*
X133176337Y-63001588D01*
X133181298Y-63267692D01*
X133196181Y-63500856D01*
X133223169Y-63700484D01*
X133264444Y-63865981D01*
X133321991Y-63996355D01*
X133397794Y-64090613D01*
X133612900Y-64166813D01*
X133820862Y-64166813D01*
X133820862Y-61833187D01*
X133617662Y-61833187D01*
X133389062Y-61913356D01*
X133312069Y-62011583D01*
X133255712Y-62145925D01*
X133217017Y-62314200D01*
X133193006Y-62514225D01*
X133180505Y-62744016D01*
X133176337Y-63001588D01*
X133001712Y-63001588D01*
X133001712Y-61833187D01*
X132474662Y-61833187D01*
X132474662Y-62185612D01*
X132738187Y-62185612D01*
X132738187Y-62814262D01*
X132531812Y-62814262D01*
X132531812Y-63157162D01*
X132738187Y-63157162D01*
X132738187Y-63814387D01*
X132474662Y-63814387D01*
X132474662Y-64166813D01*
X132347662Y-64166813D01*
X132347662Y-61833187D01*
X132115887Y-61833187D01*
X131885700Y-61910975D01*
X131762669Y-62124494D01*
X131734689Y-62270345D01*
X131725362Y-62436437D01*
X131732109Y-62586456D01*
X131752350Y-62728538D01*
X131871412Y-62934913D01*
X131750762Y-63145256D01*
X131726950Y-63310555D01*
X131719012Y-63506412D01*
X131544387Y-63506412D01*
X131544387Y-61833187D01*
X131280862Y-61833187D01*
X131280862Y-63719138D01*
X131270544Y-63822325D01*
X131230062Y-63858838D01*
X131191962Y-63821531D01*
X131182437Y-63719138D01*
X131182437Y-61833187D01*
X130918912Y-61833187D01*
X130918912Y-63719138D01*
X130807787Y-63719138D01*
X130807787Y-62280862D01*
X130778419Y-62066550D01*
X130680787Y-61882400D01*
X130493462Y-61807787D01*
X130337094Y-61854619D01*
X130241050Y-61974475D01*
X130192631Y-62129256D01*
X130179137Y-62280862D01*
X130179137Y-62671387D01*
X130442662Y-62671387D01*
X130442662Y-62268162D01*
X130450600Y-62184819D01*
X130493462Y-62141162D01*
X130533944Y-62184025D01*
X130541087Y-62268162D01*
X130541087Y-63760413D01*
X130530769Y-63849313D01*
X130485525Y-63887412D01*
X130435519Y-63846931D01*
X130423612Y-63760413D01*
X130423612Y-63325438D01*
X130480762Y-63325438D01*
X130480762Y-63004762D01*
X130179137Y-63004762D01*
X130179137Y-64166813D01*
X128077991Y-64166813D01*
X127976408Y-64029844D01*
X127882887Y-63873814D01*
X127805111Y-63709369D01*
X127743827Y-63538092D01*
X127699626Y-63361633D01*
X127672934Y-63181692D01*
X127664008Y-63000000D01*
X127672934Y-62818308D01*
X127699626Y-62638367D01*
X127743827Y-62461908D01*
X127805111Y-62290631D01*
X127882887Y-62126186D01*
X127976408Y-61970156D01*
X128084772Y-61824044D01*
X128206936Y-61689257D01*
X128341723Y-61567093D01*
X128487835Y-61458729D01*
X128643865Y-61365208D01*
X128808310Y-61287431D01*
X128979587Y-61226148D01*
X129156046Y-61181947D01*
X129335988Y-61155255D01*
X129517679Y-61146329D01*
X134482321Y-61146329D01*
X134664012Y-61155255D01*
X134843954Y-61181947D01*
X135020413Y-61226148D01*
X135191690Y-61287431D01*
X135356135Y-61365208D01*
X135512165Y-61458729D01*
X135658277Y-61567093D01*
X135793064Y-61689257D01*
X135915228Y-61824044D01*
X136023592Y-61970156D01*
X136117113Y-62126186D01*
X136194889Y-62290631D01*
X136256173Y-62461908D01*
X136300374Y-62638367D01*
X136327066Y-62818308D01*
X136335992Y-63000000D01*
X136327066Y-63181692D01*
X136300374Y-63361633D01*
X136256173Y-63538092D01*
X136194889Y-63709369D01*
X136117113Y-63873814D01*
X136023592Y-64029844D01*
X135915228Y-64175956D01*
X135793064Y-64310743D01*
X135658277Y-64432907D01*
X135512165Y-64541271D01*
X135356135Y-64634792D01*
X135191690Y-64712569D01*
X135020413Y-64773852D01*
X134843954Y-64818053D01*
X134664012Y-64844745D01*
X134482321Y-64853671D01*
X129517679Y-64853671D01*
X129335988Y-64844745D01*
G37*
G36*
X133557337Y-63823913D02*
G01*
X133481931Y-63721519D01*
X133463080Y-63598488D01*
X133452562Y-63434181D01*
X133447800Y-63233958D01*
X133446212Y-63003175D01*
X133447800Y-62771995D01*
X133452562Y-62570581D01*
X133463080Y-62404687D01*
X133481931Y-62280069D01*
X133557337Y-62176088D01*
X133557337Y-63823913D01*
G37*
G36*
X132084137Y-63827087D02*
G01*
X132006350Y-63727075D01*
X131985712Y-63468312D01*
X132005556Y-63211138D01*
X132084137Y-63109537D01*
X132084137Y-63827087D01*
G37*
G36*
X132084137Y-62795212D02*
G01*
X132009525Y-62700756D01*
X131993650Y-62484062D01*
X132008731Y-62262606D01*
X132084137Y-62172912D01*
X132084137Y-62795212D01*
G37*
%TO.C,kibuzzard-6388C408*%
G36*
X173412389Y-79500000D02*
G01*
X174938505Y-77210825D01*
X179566950Y-77210825D01*
X180208300Y-77210825D01*
X180208300Y-76569475D01*
X179566950Y-76569475D01*
X179566950Y-77210825D01*
X174938505Y-77210825D01*
X176281883Y-75195758D01*
X203718117Y-75195758D01*
X206587611Y-79500000D01*
X203718117Y-83804242D01*
X176281883Y-83804242D01*
X173990239Y-80366775D01*
X177604800Y-80366775D01*
X177659966Y-80729122D01*
X177825462Y-81022413D01*
X178086209Y-81216484D01*
X178427125Y-81281175D01*
X178662736Y-81236725D01*
X179566950Y-81236725D01*
X180208300Y-81236725D01*
X180659150Y-81236725D01*
X181300500Y-81236725D01*
X181300500Y-81008125D01*
X181551325Y-81203387D01*
X181808500Y-81287525D01*
X181947790Y-81236725D01*
X182589550Y-81236725D01*
X183230900Y-81236725D01*
X183230900Y-80944625D01*
X183488075Y-81170050D01*
X183751600Y-81287525D01*
X184018300Y-81185925D01*
X184180225Y-80927162D01*
X184234200Y-80608075D01*
X184234200Y-78341125D01*
X184424700Y-78341125D01*
X184866025Y-78341125D01*
X184866025Y-80274700D01*
X184805700Y-80574738D01*
X184608850Y-80671575D01*
X184502487Y-80662050D01*
X184427875Y-80639825D01*
X184427875Y-81227200D01*
X184565988Y-81270063D01*
X184770775Y-81287525D01*
X185231150Y-81154175D01*
X185448638Y-80773175D01*
X185492691Y-80501713D01*
X185507375Y-80182625D01*
X185507375Y-80112775D01*
X185977275Y-80112775D01*
X186031250Y-80577912D01*
X186201113Y-80950975D01*
X186496388Y-81198625D01*
X186929775Y-81287525D01*
X187184637Y-81236725D01*
X189145925Y-81236725D01*
X189787275Y-81236725D01*
X189787275Y-78518925D01*
X189822200Y-78376050D01*
X189939675Y-78334775D01*
X190058738Y-78383987D01*
X190149225Y-78499875D01*
X190149225Y-81236725D01*
X190790575Y-81236725D01*
X190790575Y-80366775D01*
X191076325Y-80366775D01*
X191131491Y-80729122D01*
X191296988Y-81022413D01*
X191557734Y-81216484D01*
X191898650Y-81281175D01*
X192241550Y-81216484D01*
X192501900Y-81022413D01*
X192666206Y-80729122D01*
X192720975Y-80366775D01*
X192720975Y-78626875D01*
X192690261Y-78423675D01*
X192911475Y-78423675D01*
X192998788Y-78403037D01*
X193089275Y-78398275D01*
X193425825Y-78512575D01*
X193552825Y-78823725D01*
X193552825Y-81236725D01*
X194194175Y-81236725D01*
X194606925Y-81236725D01*
X195292725Y-81236725D01*
X195292725Y-77763275D01*
X196572250Y-77763275D01*
X197188200Y-81497075D01*
X197244953Y-81762584D01*
X197345363Y-82000312D01*
X197670800Y-82352738D01*
X198153400Y-82481325D01*
X198251825Y-82478150D01*
X198362950Y-82465450D01*
X198362950Y-81897125D01*
X198312150Y-81905063D01*
X198258175Y-81909825D01*
X197970838Y-81814575D01*
X197816850Y-81560575D01*
X197799388Y-81449450D01*
X197797800Y-81338325D01*
X197814583Y-81236725D01*
X198483600Y-81236725D01*
X199131300Y-81236725D01*
X199448800Y-79833375D01*
X199455150Y-79782575D01*
X199461500Y-79782575D01*
X199563100Y-80036575D01*
X199563100Y-81236725D01*
X200204450Y-81236725D01*
X200204450Y-80112775D01*
X200477500Y-80112775D01*
X200531475Y-80577912D01*
X200701338Y-80950975D01*
X200996613Y-81198625D01*
X201430000Y-81287525D01*
X201899900Y-81193863D01*
X202195175Y-80922400D01*
X202349163Y-80493775D01*
X202383691Y-80227075D01*
X202395200Y-79928625D01*
X201722100Y-79865125D01*
X201710988Y-80158813D01*
X201669713Y-80412812D01*
X201580813Y-80592200D01*
X201430000Y-80658875D01*
X201214100Y-80517588D01*
X201150600Y-80176275D01*
X201255375Y-79760350D01*
X201506200Y-79350775D01*
X201738372Y-79032481D01*
X201939588Y-78738000D01*
X202104688Y-78457806D01*
X202228513Y-78182375D01*
X202305903Y-77902975D01*
X202331700Y-77610875D01*
X202271375Y-77177487D01*
X202095163Y-76831413D01*
X201814175Y-76601225D01*
X201436350Y-76518675D01*
X200990263Y-76607575D01*
X200694988Y-76861575D01*
X200529888Y-77253687D01*
X200477500Y-77756925D01*
X201150600Y-77820425D01*
X201161713Y-77583887D01*
X201201400Y-77366400D01*
X201283950Y-77207650D01*
X201423650Y-77147325D01*
X201607800Y-77260037D01*
X201658600Y-77579125D01*
X201622881Y-77841062D01*
X201515725Y-78093475D01*
X201348244Y-78361762D01*
X201131550Y-78671325D01*
X200869216Y-79045975D01*
X200660063Y-79388875D01*
X200523141Y-79733362D01*
X200477500Y-80112775D01*
X200204450Y-80112775D01*
X200204450Y-76569475D01*
X199563100Y-76569475D01*
X199563100Y-78785625D01*
X199531350Y-78785625D01*
X199493250Y-78671325D01*
X199182100Y-77763275D01*
X198572500Y-77763275D01*
X199067800Y-78893575D01*
X198483600Y-81236725D01*
X197814583Y-81236725D01*
X198388350Y-77763275D01*
X197759700Y-77763275D01*
X197505700Y-79928625D01*
X197493000Y-80169925D01*
X197467600Y-80169925D01*
X197454900Y-79928625D01*
X197200900Y-77763275D01*
X196572250Y-77763275D01*
X195292725Y-77763275D01*
X195292725Y-76569475D01*
X194606925Y-76569475D01*
X194606925Y-81236725D01*
X194194175Y-81236725D01*
X194194175Y-77763275D01*
X193552825Y-77763275D01*
X193552825Y-78150625D01*
X193435350Y-77925200D01*
X193195638Y-77769625D01*
X192911475Y-77712475D01*
X192911475Y-78423675D01*
X192690261Y-78423675D01*
X192666206Y-78264528D01*
X192501900Y-77971237D01*
X192241550Y-77777166D01*
X191898650Y-77712475D01*
X191557734Y-77777166D01*
X191296988Y-77971237D01*
X191131491Y-78264528D01*
X191076325Y-78626875D01*
X191076325Y-80366775D01*
X190790575Y-80366775D01*
X190790575Y-77763275D01*
X190149225Y-77763275D01*
X190149225Y-78055375D01*
X189892050Y-77828362D01*
X189628525Y-77712475D01*
X189361825Y-77814075D01*
X189199900Y-78071250D01*
X189145925Y-78391925D01*
X189145925Y-81236725D01*
X187184637Y-81236725D01*
X187399675Y-81193863D01*
X187694950Y-80922400D01*
X187848938Y-80493775D01*
X187883466Y-80227075D01*
X187894975Y-79928625D01*
X187221875Y-79865125D01*
X187210763Y-80158813D01*
X187169488Y-80412812D01*
X187080588Y-80592200D01*
X186929775Y-80658875D01*
X186713875Y-80517588D01*
X186650375Y-80176275D01*
X186755150Y-79760350D01*
X187005975Y-79350775D01*
X187238147Y-79032481D01*
X187439363Y-78738000D01*
X187604463Y-78457806D01*
X187728288Y-78182375D01*
X187805678Y-77902975D01*
X187831475Y-77610875D01*
X187771150Y-77177487D01*
X187594938Y-76831413D01*
X187313950Y-76601225D01*
X186936125Y-76518675D01*
X186490038Y-76607575D01*
X186194763Y-76861575D01*
X186029663Y-77253687D01*
X185977275Y-77756925D01*
X186650375Y-77820425D01*
X186661488Y-77583887D01*
X186701175Y-77366400D01*
X186783725Y-77207650D01*
X186923425Y-77147325D01*
X187107575Y-77260037D01*
X187158375Y-77579125D01*
X187122656Y-77841062D01*
X187015500Y-78093475D01*
X186848019Y-78361762D01*
X186631325Y-78671325D01*
X186368991Y-79045975D01*
X186159838Y-79388875D01*
X186022916Y-79733362D01*
X185977275Y-80112775D01*
X185507375Y-80112775D01*
X185507375Y-78341125D01*
X185831225Y-78341125D01*
X185831225Y-77763275D01*
X185507375Y-77763275D01*
X185507375Y-76906025D01*
X184866025Y-76906025D01*
X184866025Y-77763275D01*
X184424700Y-77763275D01*
X184424700Y-78341125D01*
X184234200Y-78341125D01*
X184234200Y-77763275D01*
X183592850Y-77763275D01*
X183592850Y-80481075D01*
X183556337Y-80622363D01*
X183440450Y-80665225D01*
X183321388Y-80616013D01*
X183230900Y-80500125D01*
X183230900Y-77763275D01*
X182589550Y-77763275D01*
X182589550Y-81236725D01*
X181947790Y-81236725D01*
X182078375Y-81189100D01*
X182246650Y-80933512D01*
X182303800Y-80608075D01*
X182303800Y-78391925D01*
X182248238Y-78068075D01*
X182081550Y-77812487D01*
X181808500Y-77712475D01*
X181554500Y-77795025D01*
X181300500Y-77991875D01*
X181300500Y-76569475D01*
X180659150Y-76569475D01*
X180659150Y-81236725D01*
X180208300Y-81236725D01*
X180208300Y-77763275D01*
X179566950Y-77763275D01*
X179566950Y-81236725D01*
X178662736Y-81236725D01*
X178770025Y-81216484D01*
X179030375Y-81022413D01*
X179194681Y-80729122D01*
X179249450Y-80366775D01*
X179249450Y-78626875D01*
X179194681Y-78264528D01*
X179030375Y-77971237D01*
X178770025Y-77777166D01*
X178427125Y-77712475D01*
X178086209Y-77777166D01*
X177825462Y-77971237D01*
X177659966Y-78264528D01*
X177604800Y-78626875D01*
X177604800Y-80366775D01*
X173990239Y-80366775D01*
X173412389Y-79500000D01*
G37*
G36*
X192070100Y-78369700D02*
G01*
X192117725Y-78626875D01*
X192117725Y-80366775D01*
X192070100Y-80623950D01*
X191898650Y-80722375D01*
X191727200Y-80622363D01*
X191679575Y-80366775D01*
X191679575Y-78626875D01*
X191727200Y-78369700D01*
X191898650Y-78271275D01*
X192070100Y-78369700D01*
G37*
G36*
X178598575Y-78369700D02*
G01*
X178646200Y-78626875D01*
X178646200Y-80366775D01*
X178598575Y-80623950D01*
X178427125Y-80722375D01*
X178255675Y-80622363D01*
X178208050Y-80366775D01*
X178208050Y-78626875D01*
X178255675Y-78369700D01*
X178427125Y-78271275D01*
X178598575Y-78369700D01*
G37*
G36*
X181618000Y-78374463D02*
G01*
X181662450Y-78525275D01*
X181662450Y-80474725D01*
X181618000Y-80623950D01*
X181503700Y-80684275D01*
X181365588Y-80623950D01*
X181300500Y-80474725D01*
X181300500Y-78525275D01*
X181365588Y-78382400D01*
X181503700Y-78315725D01*
X181618000Y-78374463D01*
G37*
%TO.C,LOGO101*%
G36*
X195651277Y-70202590D02*
G01*
X195409697Y-70701144D01*
X195028188Y-71116403D01*
X194514596Y-71432483D01*
X194502904Y-71437746D01*
X194375819Y-71489233D01*
X194238018Y-71529005D01*
X194066842Y-71558584D01*
X193839631Y-71579491D01*
X193533727Y-71593245D01*
X193126469Y-71601369D01*
X192595200Y-71605383D01*
X191917261Y-71606807D01*
X189700925Y-71608667D01*
X189176765Y-72243667D01*
X189877181Y-72268707D01*
X190577596Y-72293746D01*
X188799596Y-73466410D01*
X188395875Y-73731492D01*
X187948521Y-74022182D01*
X187565371Y-74267785D01*
X187265619Y-74456125D01*
X187068462Y-74575026D01*
X186993094Y-74612312D01*
X187027317Y-74542435D01*
X187145857Y-74364629D01*
X187330060Y-74106555D01*
X187560880Y-73795609D01*
X188157168Y-73005667D01*
X187737549Y-72980076D01*
X187588540Y-72968100D01*
X187394059Y-72940286D01*
X187317930Y-72910395D01*
X187330164Y-72884854D01*
X187422140Y-72749903D01*
X187584553Y-72530443D01*
X187793904Y-72258653D01*
X188269879Y-71651000D01*
X187681865Y-71604313D01*
X187591897Y-71595686D01*
X187460137Y-71564409D01*
X188384804Y-71564409D01*
X188461472Y-71593901D01*
X188652686Y-71606201D01*
X188985831Y-71608667D01*
X189663976Y-71608667D01*
X190457611Y-70592667D01*
X190606438Y-70403172D01*
X190867281Y-70076420D01*
X191081728Y-69814781D01*
X191230775Y-69641248D01*
X191295421Y-69578817D01*
X191303542Y-69581699D01*
X191408953Y-69653743D01*
X191601324Y-69802757D01*
X191846068Y-70002150D01*
X191902512Y-70048824D01*
X192140171Y-70239209D01*
X192319153Y-70372883D01*
X192404315Y-70423334D01*
X192406159Y-70423095D01*
X192487973Y-70354841D01*
X192648923Y-70184998D01*
X192863604Y-69942244D01*
X193106614Y-69655262D01*
X193352551Y-69352732D01*
X193502838Y-69163566D01*
X192183757Y-68151442D01*
X190864676Y-67139319D01*
X189937970Y-67445478D01*
X189593925Y-67562702D01*
X189291469Y-67673201D01*
X189086626Y-67756778D01*
X189011263Y-67801200D01*
X189038749Y-67835369D01*
X189175963Y-67954656D01*
X189402350Y-68133769D01*
X189688596Y-68349000D01*
X189877843Y-68491048D01*
X190129362Y-68690437D01*
X190301878Y-68841109D01*
X190365930Y-68918304D01*
X190359465Y-68933337D01*
X190277996Y-69056127D01*
X190118329Y-69277758D01*
X189899785Y-69572798D01*
X189641690Y-69915817D01*
X189363366Y-70281383D01*
X189084138Y-70644065D01*
X188823328Y-70978433D01*
X188600261Y-71259055D01*
X188434259Y-71460500D01*
X188395298Y-71510370D01*
X188384804Y-71564409D01*
X187460137Y-71564409D01*
X186982594Y-71451050D01*
X186456574Y-71170759D01*
X186032210Y-70767510D01*
X185727875Y-70254000D01*
X185703101Y-70189635D01*
X185615530Y-69769536D01*
X185606366Y-69285057D01*
X185672443Y-68806937D01*
X185810595Y-68405916D01*
X185892145Y-68263658D01*
X186245961Y-67858715D01*
X186716308Y-67552902D01*
X187279187Y-67358976D01*
X187910596Y-67289694D01*
X188376263Y-67287777D01*
X188576378Y-66825476D01*
X188717268Y-66559710D01*
X189039286Y-66139859D01*
X189431271Y-65781609D01*
X189841876Y-65537229D01*
X190020909Y-65482286D01*
X190352298Y-65426258D01*
X190706572Y-65404234D01*
X190751632Y-65404456D01*
X191359586Y-65481201D01*
X191886228Y-65701199D01*
X192351763Y-66072660D01*
X192431628Y-66161937D01*
X192624052Y-66423464D01*
X192819216Y-66737294D01*
X192990991Y-67056516D01*
X193113249Y-67334222D01*
X193159863Y-67523500D01*
X193166767Y-67548732D01*
X193295640Y-67609221D01*
X193588104Y-67629334D01*
X193872369Y-67638384D01*
X194384530Y-67723013D01*
X194811365Y-67909737D01*
X195196794Y-68214535D01*
X195229643Y-68246757D01*
X195464262Y-68507973D01*
X195604056Y-68753111D01*
X195690490Y-69052560D01*
X195700865Y-69163566D01*
X195745077Y-69636625D01*
X195651277Y-70202590D01*
G37*
D11*
X195651277Y-70202590D02*
X195409697Y-70701144D01*
X195028188Y-71116403D01*
X194514596Y-71432483D01*
X194502904Y-71437746D01*
X194375819Y-71489233D01*
X194238018Y-71529005D01*
X194066842Y-71558584D01*
X193839631Y-71579491D01*
X193533727Y-71593245D01*
X193126469Y-71601369D01*
X192595200Y-71605383D01*
X191917261Y-71606807D01*
X189700925Y-71608667D01*
X189176765Y-72243667D01*
X189877181Y-72268707D01*
X190577596Y-72293746D01*
X188799596Y-73466410D01*
X188395875Y-73731492D01*
X187948521Y-74022182D01*
X187565371Y-74267785D01*
X187265619Y-74456125D01*
X187068462Y-74575026D01*
X186993094Y-74612312D01*
X187027317Y-74542435D01*
X187145857Y-74364629D01*
X187330060Y-74106555D01*
X187560880Y-73795609D01*
X188157168Y-73005667D01*
X187737549Y-72980076D01*
X187588540Y-72968100D01*
X187394059Y-72940286D01*
X187317930Y-72910395D01*
X187330164Y-72884854D01*
X187422140Y-72749903D01*
X187584553Y-72530443D01*
X187793904Y-72258653D01*
X188269879Y-71651000D01*
X187681865Y-71604313D01*
X187591897Y-71595686D01*
X187460137Y-71564409D01*
X188384804Y-71564409D01*
X188461472Y-71593901D01*
X188652686Y-71606201D01*
X188985831Y-71608667D01*
X189663976Y-71608667D01*
X190457611Y-70592667D01*
X190606438Y-70403172D01*
X190867281Y-70076420D01*
X191081728Y-69814781D01*
X191230775Y-69641248D01*
X191295421Y-69578817D01*
X191303542Y-69581699D01*
X191408953Y-69653743D01*
X191601324Y-69802757D01*
X191846068Y-70002150D01*
X191902512Y-70048824D01*
X192140171Y-70239209D01*
X192319153Y-70372883D01*
X192404315Y-70423334D01*
X192406159Y-70423095D01*
X192487973Y-70354841D01*
X192648923Y-70184998D01*
X192863604Y-69942244D01*
X193106614Y-69655262D01*
X193352551Y-69352732D01*
X193502838Y-69163566D01*
X192183757Y-68151442D01*
X190864676Y-67139319D01*
X189937970Y-67445478D01*
X189593925Y-67562702D01*
X189291469Y-67673201D01*
X189086626Y-67756778D01*
X189011263Y-67801200D01*
X189038749Y-67835369D01*
X189175963Y-67954656D01*
X189402350Y-68133769D01*
X189688596Y-68349000D01*
X189877843Y-68491048D01*
X190129362Y-68690437D01*
X190301878Y-68841109D01*
X190365930Y-68918304D01*
X190359465Y-68933337D01*
X190277996Y-69056127D01*
X190118329Y-69277758D01*
X189899785Y-69572798D01*
X189641690Y-69915817D01*
X189363366Y-70281383D01*
X189084138Y-70644065D01*
X188823328Y-70978433D01*
X188600261Y-71259055D01*
X188434259Y-71460500D01*
X188395298Y-71510370D01*
X188384804Y-71564409D01*
X187460137Y-71564409D01*
X186982594Y-71451050D01*
X186456574Y-71170759D01*
X186032210Y-70767510D01*
X185727875Y-70254000D01*
X185703101Y-70189635D01*
X185615530Y-69769536D01*
X185606366Y-69285057D01*
X185672443Y-68806937D01*
X185810595Y-68405916D01*
X185892145Y-68263658D01*
X186245961Y-67858715D01*
X186716308Y-67552902D01*
X187279187Y-67358976D01*
X187910596Y-67289694D01*
X188376263Y-67287777D01*
X188576378Y-66825476D01*
X188717268Y-66559710D01*
X189039286Y-66139859D01*
X189431271Y-65781609D01*
X189841876Y-65537229D01*
X190020909Y-65482286D01*
X190352298Y-65426258D01*
X190706572Y-65404234D01*
X190751632Y-65404456D01*
X191359586Y-65481201D01*
X191886228Y-65701199D01*
X192351763Y-66072660D01*
X192431628Y-66161937D01*
X192624052Y-66423464D01*
X192819216Y-66737294D01*
X192990991Y-67056516D01*
X193113249Y-67334222D01*
X193159863Y-67523500D01*
X193166767Y-67548732D01*
X193295640Y-67609221D01*
X193588104Y-67629334D01*
X193872369Y-67638384D01*
X194384530Y-67723013D01*
X194811365Y-67909737D01*
X195196794Y-68214535D01*
X195229643Y-68246757D01*
X195464262Y-68507973D01*
X195604056Y-68753111D01*
X195690490Y-69052560D01*
X195700865Y-69163566D01*
X195745077Y-69636625D01*
X195651277Y-70202590D01*
D12*
%TO.C,SW202*%
X97250000Y-99500000D02*
X96750000Y-100000000D01*
X98400000Y-93900000D02*
X98400000Y-92200000D01*
X102000000Y-103500000D02*
G75*
G03*
X102000000Y-103500000I0J0D01*
G01*
%TO.C,SW208*%
X206400000Y-93900000D02*
X206400000Y-92200000D01*
X205250000Y-99500000D02*
X204750000Y-100000000D01*
X210000000Y-103500000D02*
G75*
G03*
X210000000Y-103500000I0J0D01*
G01*
%TO.C,SW201*%
X80400000Y-93900000D02*
X80400000Y-92200000D01*
X79250000Y-99500000D02*
X78750000Y-100000000D01*
X84000000Y-103500000D02*
G75*
G03*
X84000000Y-103500000I0J0D01*
G01*
%TO.C,SW301*%
X78500000Y-135250000D02*
X78000000Y-134750000D01*
X84100000Y-136400000D02*
X85800000Y-136400000D01*
X74500000Y-140000000D02*
G75*
G03*
X74500000Y-140000000I0J0D01*
G01*
%TO.C,SW307*%
X142800000Y-111800000D02*
X142800000Y-110200000D01*
X146150000Y-121650000D02*
X146650000Y-121150000D01*
X141500000Y-118000000D02*
G75*
G03*
X141500000Y-118000000I0J0D01*
G01*
%TO.C,SW308*%
X149900000Y-138600000D02*
X148200000Y-138600000D01*
X159100000Y-134400000D02*
X159600000Y-134900000D01*
X156100000Y-140200000D02*
G75*
G03*
X156100000Y-140200000I0J0D01*
G01*
%TO.C,SW303*%
X102100000Y-136400000D02*
X103800000Y-136400000D01*
X96500000Y-135250000D02*
X96000000Y-134750000D01*
X92500000Y-140000000D02*
G75*
G03*
X92500000Y-140000000I0J0D01*
G01*
%TO.C,SW312*%
X185900000Y-138600000D02*
X184200000Y-138600000D01*
X195100000Y-134400000D02*
X195600000Y-134900000D01*
X192100000Y-140200000D02*
G75*
G03*
X192100000Y-140200000I0J0D01*
G01*
%TO.C,SW304*%
X110150000Y-121650000D02*
X110650000Y-121150000D01*
X106800000Y-111800000D02*
X106800000Y-110200000D01*
X105500000Y-118000000D02*
G75*
G03*
X105500000Y-118000000I0J0D01*
G01*
%TO.C,SW309*%
X164150000Y-121650000D02*
X164650000Y-121150000D01*
X160800000Y-111800000D02*
X160800000Y-110200000D01*
X159500000Y-118000000D02*
G75*
G03*
X159500000Y-118000000I0J0D01*
G01*
%TO.C,SW302*%
X92150000Y-121650000D02*
X92650000Y-121150000D01*
X88800000Y-111800000D02*
X88800000Y-110200000D01*
X87500000Y-118000000D02*
G75*
G03*
X87500000Y-118000000I0J0D01*
G01*
%TO.C,SW203*%
X116400000Y-93900000D02*
X116400000Y-92200000D01*
X115250000Y-99500000D02*
X114750000Y-100000000D01*
X120000000Y-103500000D02*
G75*
G03*
X120000000Y-103500000I0J0D01*
G01*
%TO.C,SW310*%
X167900000Y-138600000D02*
X166200000Y-138600000D01*
X177100000Y-134400000D02*
X177600000Y-134900000D01*
X174100000Y-140200000D02*
G75*
G03*
X174100000Y-140200000I0J0D01*
G01*
%TO.C,SW306*%
X132500000Y-135250000D02*
X132000000Y-134750000D01*
X138100000Y-136400000D02*
X139800000Y-136400000D01*
X128500000Y-140000000D02*
G75*
G03*
X128500000Y-140000000I0J0D01*
G01*
%TO.C,SW313*%
X213100000Y-134285000D02*
X213600000Y-134785000D01*
X203900000Y-138485000D02*
X202200000Y-138485000D01*
X210100000Y-140085000D02*
G75*
G03*
X210100000Y-140085000I0J0D01*
G01*
%TO.C,SW205*%
X151250000Y-99500000D02*
X150750000Y-100000000D01*
X152400000Y-93900000D02*
X152400000Y-92200000D01*
X156000000Y-103500000D02*
G75*
G03*
X156000000Y-103500000I0J0D01*
G01*
%TO.C,SW311*%
X182150000Y-121650000D02*
X182650000Y-121150000D01*
X178800000Y-111800000D02*
X178800000Y-110200000D01*
X177500000Y-118000000D02*
G75*
G03*
X177500000Y-118000000I0J0D01*
G01*
%TO.C,SW204*%
X133250000Y-99500000D02*
X132750000Y-100000000D01*
X134400000Y-93900000D02*
X134400000Y-92200000D01*
X138000000Y-103500000D02*
G75*
G03*
X138000000Y-103500000I0J0D01*
G01*
%TO.C,SW206*%
X169250000Y-99500000D02*
X168750000Y-100000000D01*
X170400000Y-93900000D02*
X170400000Y-92200000D01*
X174000000Y-103500000D02*
G75*
G03*
X174000000Y-103500000I0J0D01*
G01*
%TO.C,SW305*%
X114500000Y-135250000D02*
X114000000Y-134750000D01*
X120100000Y-136400000D02*
X121800000Y-136400000D01*
X110500000Y-140000000D02*
G75*
G03*
X110500000Y-140000000I0J0D01*
G01*
%TO.C,SW207*%
X188400000Y-93900000D02*
X188400000Y-92200000D01*
X187250000Y-99500000D02*
X186750000Y-100000000D01*
X192000000Y-103500000D02*
G75*
G03*
X192000000Y-103500000I0J0D01*
G01*
%TO.C,C202*%
X104090000Y-102711252D02*
X104090000Y-101288748D01*
X105910000Y-102711252D02*
X105910000Y-101288748D01*
%TO.C,C311*%
X173590000Y-119288748D02*
X173590000Y-120711252D01*
X175410000Y-119288748D02*
X175410000Y-120711252D01*
%TO.C,C309*%
X157410000Y-119288748D02*
X157410000Y-120711252D01*
X155590000Y-119288748D02*
X155590000Y-120711252D01*
%TO.C,C306*%
X129288748Y-142340000D02*
X130711252Y-142340000D01*
X129288748Y-144160000D02*
X130711252Y-144160000D01*
%TO.C,C201*%
X87910000Y-102711252D02*
X87910000Y-101288748D01*
X86090000Y-102711252D02*
X86090000Y-101288748D01*
%TO.C,C4*%
X163211252Y-77590000D02*
X161788748Y-77590000D01*
X163211252Y-79410000D02*
X161788748Y-79410000D01*
%TO.C,C310*%
X175288748Y-143910000D02*
X176711252Y-143910000D01*
X175288748Y-142090000D02*
X176711252Y-142090000D01*
%TO.C,R2*%
X140737258Y-75022500D02*
X140262742Y-75022500D01*
X140737258Y-73977500D02*
X140262742Y-73977500D01*
%TO.C,C2*%
X148711252Y-74090000D02*
X147288748Y-74090000D01*
X148711252Y-75910000D02*
X147288748Y-75910000D01*
%TO.C,C307*%
X137590000Y-119288748D02*
X137590000Y-120711252D01*
X139410000Y-119288748D02*
X139410000Y-120711252D01*
%TO.C,FB1*%
X140772936Y-66765000D02*
X141227064Y-66765000D01*
X140772936Y-68235000D02*
X141227064Y-68235000D01*
%TO.C,C203*%
X122090000Y-102711252D02*
X122090000Y-101288748D01*
X123910000Y-102711252D02*
X123910000Y-101288748D01*
%TO.C,C204*%
X140090000Y-102711252D02*
X140090000Y-101288748D01*
X141910000Y-102711252D02*
X141910000Y-101288748D01*
%TO.C,C305*%
X111288748Y-142090000D02*
X112711252Y-142090000D01*
X111288748Y-143910000D02*
X112711252Y-143910000D01*
%TO.C,C205*%
X158090000Y-102711252D02*
X158090000Y-101288748D01*
X159910000Y-102711252D02*
X159910000Y-101288748D01*
%TO.C,C1*%
X148711252Y-73410000D02*
X147288748Y-73410000D01*
X148711252Y-71590000D02*
X147288748Y-71590000D01*
%TO.C,C308*%
X157288748Y-143910000D02*
X158711252Y-143910000D01*
X157288748Y-142090000D02*
X158711252Y-142090000D01*
%TO.C,C304*%
X101590000Y-119288748D02*
X101590000Y-120711252D01*
X103410000Y-119288748D02*
X103410000Y-120711252D01*
%TO.C,U1*%
X146635000Y-76890000D02*
X147110000Y-76890000D01*
X143365000Y-76890000D02*
X142890000Y-76890000D01*
X142890000Y-76890000D02*
X142890000Y-77365000D01*
X147110000Y-81110000D02*
X147110000Y-80635000D01*
X143365000Y-81110000D02*
X142890000Y-81110000D01*
X142890000Y-81110000D02*
X142890000Y-80635000D01*
X146635000Y-81110000D02*
X147110000Y-81110000D01*
%TO.C,R3*%
X152237258Y-77522500D02*
X151762742Y-77522500D01*
X152237258Y-76477500D02*
X151762742Y-76477500D01*
%TO.C,C302*%
X85410000Y-119288748D02*
X85410000Y-120711252D01*
X83590000Y-119288748D02*
X83590000Y-120711252D01*
%TO.C,R1*%
X140757258Y-73522500D02*
X140282742Y-73522500D01*
X140757258Y-72477500D02*
X140282742Y-72477500D01*
%TO.C,C303*%
X93288748Y-143910000D02*
X94711252Y-143910000D01*
X93288748Y-142090000D02*
X94711252Y-142090000D01*
%TO.C,C3*%
X163211252Y-76910000D02*
X161788748Y-76910000D01*
X163211252Y-75090000D02*
X161788748Y-75090000D01*
%TO.C,C206*%
X177910000Y-102711252D02*
X177910000Y-101288748D01*
X176090000Y-102711252D02*
X176090000Y-101288748D01*
%TO.C,R4*%
X151762742Y-79022500D02*
X152237258Y-79022500D01*
X151762742Y-77977500D02*
X152237258Y-77977500D01*
%TO.C,C312*%
X193288748Y-142090000D02*
X194711252Y-142090000D01*
X193288748Y-143910000D02*
X194711252Y-143910000D01*
%TO.C,C208*%
X212090000Y-102711252D02*
X212090000Y-101288748D01*
X213910000Y-102711252D02*
X213910000Y-101288748D01*
%TO.C,C301*%
X75288748Y-143910000D02*
X76711252Y-143910000D01*
X75288748Y-142090000D02*
X76711252Y-142090000D01*
%TO.C,FB2*%
X162272936Y-68235000D02*
X162727064Y-68235000D01*
X162272936Y-66765000D02*
X162727064Y-66765000D01*
%TO.C,C207*%
X194090000Y-102711252D02*
X194090000Y-101288748D01*
X195910000Y-102711252D02*
X195910000Y-101288748D01*
%TO.C,C313*%
X211288748Y-143910000D02*
X212711252Y-143910000D01*
X211288748Y-142090000D02*
X212711252Y-142090000D01*
%TD*%
M02*
