M48
; DRILL file {KiCad 6.0.9-8da3e8f707~117~ubuntu22.04.1} date Thu 01 Dec 2022 02:43:20 PM EST
; FORMAT={-:-/ absolute / inch / decimal}
; #@! TF.CreationDate,2022-12-01T14:43:20-05:00
; #@! TF.GenerationSoftware,Kicad,Pcbnew,6.0.9-8da3e8f707~117~ubuntu22.04.1
; #@! TF.FileFunction,NonPlated,1,2,NPTH
FMAT,2
INCH
; #@! TA.AperFunction,NonPlated,NPTH,ComponentDrill
T1C0.0276
; #@! TA.AperFunction,NonPlated,NPTH,ComponentDrill
T2C0.0748
; #@! TA.AperFunction,NonPlated,NPTH,ComponentDrill
T3C0.1260
; #@! TA.AperFunction,NonPlated,NPTH,ComponentDrill
T4C0.1535
%
G90
G05
T1
X5.4315Y-2.4577
X5.4815Y-2.4577
X5.5315Y-2.4577
X5.5815Y-2.4577
X5.6315Y-2.4577
T2
X2.9921Y-3.8189
X3.189Y-5.1969
X3.189Y-5.6299
X3.3268Y-4.5276
X3.4252Y-3.8189
X3.7008Y-3.8189
X3.7598Y-4.5276
X3.8976Y-5.1969
X3.8976Y-5.6299
X4.0354Y-4.5276
X4.1339Y-3.8189
X4.4094Y-3.8189
X4.4685Y-4.5276
X4.6063Y-5.1969
X4.6063Y-5.6299
X4.8425Y-3.8189
X5.1181Y-3.8189
X5.315Y-5.1969
X5.315Y-5.6299
X5.4528Y-4.5276
X5.5512Y-3.8189
X5.8268Y-3.8189
X5.8858Y-4.5276
X6.0236Y-5.1969
X6.0236Y-5.6299
X6.1614Y-4.5276
X6.2598Y-3.8189
X6.5354Y-3.8189
X6.5945Y-4.5276
X6.7323Y-5.1969
X6.7323Y-5.6299
X6.8701Y-4.5276
X6.9685Y-3.8189
X7.2441Y-3.8189
X7.3031Y-4.5276
X7.4409Y-5.1969
X7.4409Y-5.6299
X7.6772Y-3.8189
X7.9528Y-3.8189
X8.1496Y-5.1923
X8.1496Y-5.6254
X8.3858Y-3.8189
T3
X2.9528Y-2.5591
X2.9528Y-6.1024
X4.9606Y-4.4882
X8.4646Y-2.5591
X8.4646Y-6.1024
T4
X3.189Y-5.4134
X3.2087Y-3.8189
X3.5433Y-4.5276
X3.8976Y-5.4134
X3.9173Y-3.8189
X4.252Y-4.5276
X4.6063Y-5.4134
X4.626Y-3.8189
X5.315Y-5.4134
X5.3346Y-3.8189
X5.6693Y-4.5276
X6.0236Y-5.4134
X6.0433Y-3.8189
X6.378Y-4.5276
X6.7323Y-5.4134
X6.752Y-3.8189
X7.0866Y-4.5276
X7.4409Y-5.4134
X7.4606Y-3.8189
X8.1496Y-5.4089
X8.1693Y-3.8189
T0
M30
