M48
; DRILL file {KiCad 6.0.9-8da3e8f707~117~ubuntu22.04.1} date Thu 01 Dec 2022 02:43:20 PM EST
; FORMAT={-:-/ absolute / inch / decimal}
; #@! TF.CreationDate,2022-12-01T14:43:20-05:00
; #@! TF.GenerationSoftware,Kicad,Pcbnew,6.0.9-8da3e8f707~117~ubuntu22.04.1
; #@! TF.FileFunction,Plated,1,2,PTH
FMAT,2
INCH
; #@! TA.AperFunction,Plated,PTH,ViaDrill
T1C0.0157
; #@! TA.AperFunction,Plated,PTH,ViaDrill
T2C0.0197
; #@! TA.AperFunction,Plated,PTH,ComponentDrill
T3C0.0394
; #@! TA.AperFunction,Plated,PTH,ComponentDrill
T4C0.0472
%
G90
G05
T1
X2.8642Y-3.7402
X2.9035Y-4.5571
X2.9035Y-4.7146
X2.9035Y-4.8819
X2.9331Y-5.8366
X2.9921Y-3.7402
X3.0906Y-4.5571
X3.0906Y-4.7146
X3.0906Y-4.8819
X3.1201Y-5.8366
X3.1201Y-6.0138
X3.2185Y-4.3012
X3.2972Y-3.4547
X3.2972Y-3.622
X3.2972Y-5.8366
X3.2972Y-6.0138
X3.3169Y-4.3012
X3.4449Y-4.3012
X3.4744Y-5.8366
X3.4744Y-6.0138
X3.5039Y-4.8819
X3.5925Y-3.4547
X3.5925Y-3.622
X3.6122Y-4.1339
X3.622Y-4.3012
X3.7106Y-4.1339
X3.7303Y-4.3012
X3.7303Y-4.6358
X3.7303Y-4.8031
X3.7402Y-5.128
X3.8287Y-4.3012
X3.8386Y-3.0118
X3.8386Y-3.1791
X3.8386Y-4.1339
X3.8652Y-4.2589
X3.8976Y-4.6358
X3.8976Y-4.8031
X3.9075Y-5.8366
X3.9075Y-6.0138
X3.9173Y-5.7087
X3.9178Y-5.5443
X3.9764Y-2.5394
X4.0059Y-3.4547
X4.0059Y-3.622
X4.0157Y-5.7087
X4.0161Y-5.5443
X4.0231Y-4.1412
X4.0453Y-2.7953
X4.0453Y-3.0118
X4.0453Y-3.1791
X4.0453Y-4.3012
X4.0846Y-5.8366
X4.0846Y-6.0138
X4.124Y-4.1339
X4.1831Y-2.5394
X4.1831Y-2.7264
X4.1929Y-4.1339
X4.2224Y-3.0118
X4.2224Y-3.1791
X4.2421Y-3.4547
X4.2421Y-3.622
X4.2618Y-5.8366
X4.2618Y-6.0138
X4.3307Y-4.3012
X4.3602Y-2.5394
X4.3602Y-2.7264
X4.4193Y-3.0118
X4.4193Y-3.1791
X4.439Y-4.1339
X4.4488Y-4.6358
X4.4488Y-4.8031
X4.5374Y-4.3012
X4.5571Y-2.5394
X4.5571Y-2.7264
X4.6161Y-4.6358
X4.6161Y-4.8031
X4.626Y-3.0118
X4.626Y-3.1791
X4.6358Y-5.5443
X4.7047Y-4.3012
X4.7244Y-4.1339
X4.7244Y-5.8465
X4.7244Y-6.0236
X4.7343Y-3.4547
X4.7343Y-3.6024
X4.7638Y-2.5394
X4.7638Y-2.7264
X4.7835Y-4.6358
X4.7835Y-4.8031
X4.8031Y-3.0118
X4.8031Y-3.1791
X4.813Y-5.7087
X4.8524Y-5.3346
X4.8819Y-4.3012
X4.9016Y-5.8465
X4.9016Y-6.0236
X4.9311Y-4.1339
X4.9409Y-2.5394
X4.9409Y-2.7264
X4.9508Y-4.6358
X4.9508Y-4.8031
X5.0Y-3.0118
X5.0Y-3.1791
X5.0492Y-4.3012
X5.0787Y-5.8465
X5.0787Y-6.0236
X5.0984Y-4.1339
X5.1378Y-2.7264
X5.1476Y-4.8031
X5.1476Y-4.9705
X5.1575Y-4.7244
X5.2067Y-3.1791
X5.2132Y-3.528
X5.2264Y-4.3012
X5.2756Y-4.1339
X5.3051Y-4.6358
X5.3051Y-4.8031
X5.3346Y-4.7343
X5.3445Y-2.874
X5.3445Y-5.5443
X5.3445Y-5.7087
X5.374Y-4.6457
X5.374Y-4.813
X5.3832Y-4.2713
X5.3839Y-3.1791
X5.4045Y-2.9315
X5.4341Y-2.874
X5.4429Y-4.1339
X5.468Y-2.8302
X5.4724Y-2.6575
X5.4724Y-4.3012
X5.5118Y-5.7087
X5.5413Y-4.8917
X5.5413Y-5.0591
X5.561Y-3.4843
X5.561Y-4.3012
X5.5709Y-2.5689
X5.6036Y-2.5471
X5.6063Y-3.2647
X5.6107Y-3.1885
X5.6112Y-2.7428
X5.6201Y-4.1339
X5.6203Y-2.824
X5.6299Y-2.874
X5.6398Y-2.7854
X5.6496Y-3.2579
X5.6496Y-5.4035
X5.6693Y-2.5492
X5.6791Y-2.7362
X5.7077Y-2.8536
X5.7087Y-4.8917
X5.7087Y-5.0591
X5.7087Y-5.3445
X5.7087Y-5.5512
X5.7185Y-3.3957
X5.7185Y-3.7106
X5.7283Y-2.7756
X5.7294Y-3.2307
X5.7294Y-3.2895
X5.7382Y-5.4921
X5.7579Y-3.3268
X5.7776Y-4.1339
X5.7874Y-2.5492
X5.7874Y-2.6673
X5.7884Y-3.364
X5.8543Y-3.4327
X5.8563Y-3.9665
X5.8661Y-4.6358
X5.8661Y-4.8031
X5.8995Y-3.5177
X5.9154Y-4.3012
X5.9547Y-3.5039
X5.9547Y-4.1339
X5.9941Y-2.5492
X5.9941Y-2.6673
X5.9941Y-4.3012
X6.0039Y-5.5413
X6.0039Y-5.7087
X6.0335Y-4.6358
X6.0335Y-4.8031
X6.122Y-3.5039
X6.122Y-3.6024
X6.122Y-4.3602
X6.1319Y-4.3012
X6.1713Y-2.5492
X6.1713Y-2.6673
X6.2402Y-5.7087
X6.2992Y-3.5039
X6.2992Y-3.6024
X6.3091Y-4.1339
X6.3091Y-5.1969
X6.3091Y-5.3051
X6.3091Y-5.3937
X6.3878Y-4.1339
X6.4075Y-5.1969
X6.4075Y-5.3051
X6.4567Y-4.3209
X6.4582Y-4.1318
X6.4961Y-3.5039
X6.5285Y-4.2589
X6.5846Y-4.6358
X6.5846Y-4.8031
X6.6339Y-5.5512
X6.6535Y-4.439
X6.6831Y-3.5039
X6.7126Y-4.3012
X6.7224Y-5.5413
X6.7224Y-5.7087
X6.7431Y-4.6358
X6.7431Y-4.8031
X6.7717Y-4.4291
X6.8248Y-4.1487
X6.8307Y-4.4587
X6.8602Y-3.4843
X6.8602Y-3.6516
X6.939Y-5.7087
X6.9783Y-4.8917
X6.9783Y-5.0591
X6.998Y-4.2717
X7.1063Y-4.1339
X7.1457Y-4.8917
X7.1457Y-5.0591
X7.1457Y-5.2657
X7.1457Y-5.4331
X7.1654Y-3.4843
X7.1654Y-3.6516
X7.185Y-4.2717
X7.2343Y-3.3268
X7.2638Y-3.3661
X7.2638Y-4.1339
X7.2638Y-4.6358
X7.2638Y-4.8031
X7.3917Y-4.1339
X7.3917Y-4.2618
X7.4311Y-4.6358
X7.4311Y-4.8031
X7.4803Y-4.2618
X7.5492Y-4.1339
X7.5689Y-3.3268
X7.5689Y-3.4843
X7.5689Y-3.6516
X7.5787Y-4.2618
X7.628Y-5.7185
X7.628Y-5.876
X7.687Y-4.2618
X7.7362Y-3.3366
X7.7854Y-4.124
X7.874Y-4.124
X7.9035Y-5.4921
X7.9232Y-5.1378
X7.9724Y-4.124
X8.0118Y-4.1831
X8.0807Y-4.124
X8.1201Y-3.3268
X8.1988Y-4.0846
X8.1988Y-4.124
X8.3563Y-3.8878
X8.5827Y-3.8681
T2
X5.6791Y-3.0807
X5.6791Y-3.1398
X5.7382Y-3.0807
X5.7382Y-3.1398
T3
X3.3646Y-2.5344
X3.4646Y-2.5344
X3.5646Y-2.5344
X3.6646Y-2.5344
X3.7646Y-2.5344
X3.8646Y-2.5344
T4
X3.2087Y-3.6024
X3.3465Y-5.6102
X3.4055Y-3.6614
X3.4055Y-5.4134
X3.5433Y-4.311
X3.7402Y-4.3701
X3.9173Y-3.6024
X4.0551Y-5.6102
X4.1142Y-3.6614
X4.1142Y-5.4134
X4.252Y-4.311
X4.4488Y-4.3701
X4.626Y-3.6024
X4.7638Y-5.6102
X4.8228Y-3.6614
X4.8228Y-5.4134
X5.3346Y-3.6024
X5.4724Y-5.6102
X5.5315Y-3.6614
X5.5315Y-5.4134
X5.6693Y-4.311
X5.8071Y-5.4134
X5.8661Y-4.3701
X5.8661Y-5.2165
X6.0433Y-3.6024
X6.2402Y-3.6614
X6.378Y-4.311
X6.5157Y-5.4134
X6.5748Y-4.3701
X6.5748Y-5.2165
X6.752Y-3.6024
X6.9488Y-3.6614
X7.0866Y-4.311
X7.2244Y-5.4134
X7.2835Y-4.3701
X7.2835Y-5.2165
X7.4606Y-3.6024
X7.6575Y-3.6614
X7.9331Y-5.4089
X7.9921Y-5.212
X8.1693Y-3.6024
X8.3661Y-3.6614
T0
M30
