%TF.GenerationSoftware,KiCad,Pcbnew,6.0.9-8da3e8f707~117~ubuntu22.04.1*%
%TF.CreationDate,2022-12-01T14:43:22-05:00*%
%TF.ProjectId,keyboard_matrix,6b657962-6f61-4726-945f-6d6174726978,rev?*%
%TF.SameCoordinates,Original*%
%TF.FileFunction,Legend,Top*%
%TF.FilePolarity,Positive*%
%FSLAX46Y46*%
G04 Gerber Fmt 4.6, Leading zero omitted, Abs format (unit mm)*
G04 Created by KiCad (PCBNEW 6.0.9-8da3e8f707~117~ubuntu22.04.1) date 2022-12-01 14:43:22*
%MOMM*%
%LPD*%
G01*
G04 APERTURE LIST*
%ADD10C,0.150000*%
%ADD11C,0.120000*%
%ADD12C,0.200000*%
G04 APERTURE END LIST*
D10*
%TO.C,H105*%
X124285714Y-110652380D02*
X124285714Y-109652380D01*
X124285714Y-110128571D02*
X124857142Y-110128571D01*
X124857142Y-110652380D02*
X124857142Y-109652380D01*
X125857142Y-110652380D02*
X125285714Y-110652380D01*
X125571428Y-110652380D02*
X125571428Y-109652380D01*
X125476190Y-109795238D01*
X125380952Y-109890476D01*
X125285714Y-109938095D01*
X126476190Y-109652380D02*
X126571428Y-109652380D01*
X126666666Y-109700000D01*
X126714285Y-109747619D01*
X126761904Y-109842857D01*
X126809523Y-110033333D01*
X126809523Y-110271428D01*
X126761904Y-110461904D01*
X126714285Y-110557142D01*
X126666666Y-110604761D01*
X126571428Y-110652380D01*
X126476190Y-110652380D01*
X126380952Y-110604761D01*
X126333333Y-110557142D01*
X126285714Y-110461904D01*
X126238095Y-110271428D01*
X126238095Y-110033333D01*
X126285714Y-109842857D01*
X126333333Y-109747619D01*
X126380952Y-109700000D01*
X126476190Y-109652380D01*
X127714285Y-109652380D02*
X127238095Y-109652380D01*
X127190476Y-110128571D01*
X127238095Y-110080952D01*
X127333333Y-110033333D01*
X127571428Y-110033333D01*
X127666666Y-110080952D01*
X127714285Y-110128571D01*
X127761904Y-110223809D01*
X127761904Y-110461904D01*
X127714285Y-110557142D01*
X127666666Y-110604761D01*
X127571428Y-110652380D01*
X127333333Y-110652380D01*
X127238095Y-110604761D01*
X127190476Y-110557142D01*
%TO.C,SW202*%
X103154761Y-99285714D02*
X103202380Y-99142857D01*
X103202380Y-98904761D01*
X103154761Y-98809523D01*
X103107142Y-98761904D01*
X103011904Y-98714285D01*
X102916666Y-98714285D01*
X102821428Y-98761904D01*
X102773809Y-98809523D01*
X102726190Y-98904761D01*
X102678571Y-99095238D01*
X102630952Y-99190476D01*
X102583333Y-99238095D01*
X102488095Y-99285714D01*
X102392857Y-99285714D01*
X102297619Y-99238095D01*
X102250000Y-99190476D01*
X102202380Y-99095238D01*
X102202380Y-98857142D01*
X102250000Y-98714285D01*
X102202380Y-98380952D02*
X103202380Y-98142857D01*
X102488095Y-97952380D01*
X103202380Y-97761904D01*
X102202380Y-97523809D01*
X102297619Y-97190476D02*
X102250000Y-97142857D01*
X102202380Y-97047619D01*
X102202380Y-96809523D01*
X102250000Y-96714285D01*
X102297619Y-96666666D01*
X102392857Y-96619047D01*
X102488095Y-96619047D01*
X102630952Y-96666666D01*
X103202380Y-97238095D01*
X103202380Y-96619047D01*
X102202380Y-96000000D02*
X102202380Y-95904761D01*
X102250000Y-95809523D01*
X102297619Y-95761904D01*
X102392857Y-95714285D01*
X102583333Y-95666666D01*
X102821428Y-95666666D01*
X103011904Y-95714285D01*
X103107142Y-95761904D01*
X103154761Y-95809523D01*
X103202380Y-95904761D01*
X103202380Y-96000000D01*
X103154761Y-96095238D01*
X103107142Y-96142857D01*
X103011904Y-96190476D01*
X102821428Y-96238095D01*
X102583333Y-96238095D01*
X102392857Y-96190476D01*
X102297619Y-96142857D01*
X102250000Y-96095238D01*
X102202380Y-96000000D01*
X102297619Y-95285714D02*
X102250000Y-95238095D01*
X102202380Y-95142857D01*
X102202380Y-94904761D01*
X102250000Y-94809523D01*
X102297619Y-94761904D01*
X102392857Y-94714285D01*
X102488095Y-94714285D01*
X102630952Y-94761904D01*
X103202380Y-95333333D01*
X103202380Y-94714285D01*
%TO.C,SW208*%
X211404761Y-99285714D02*
X211452380Y-99142857D01*
X211452380Y-98904761D01*
X211404761Y-98809523D01*
X211357142Y-98761904D01*
X211261904Y-98714285D01*
X211166666Y-98714285D01*
X211071428Y-98761904D01*
X211023809Y-98809523D01*
X210976190Y-98904761D01*
X210928571Y-99095238D01*
X210880952Y-99190476D01*
X210833333Y-99238095D01*
X210738095Y-99285714D01*
X210642857Y-99285714D01*
X210547619Y-99238095D01*
X210500000Y-99190476D01*
X210452380Y-99095238D01*
X210452380Y-98857142D01*
X210500000Y-98714285D01*
X210452380Y-98380952D02*
X211452380Y-98142857D01*
X210738095Y-97952380D01*
X211452380Y-97761904D01*
X210452380Y-97523809D01*
X210547619Y-97190476D02*
X210500000Y-97142857D01*
X210452380Y-97047619D01*
X210452380Y-96809523D01*
X210500000Y-96714285D01*
X210547619Y-96666666D01*
X210642857Y-96619047D01*
X210738095Y-96619047D01*
X210880952Y-96666666D01*
X211452380Y-97238095D01*
X211452380Y-96619047D01*
X210452380Y-96000000D02*
X210452380Y-95904761D01*
X210500000Y-95809523D01*
X210547619Y-95761904D01*
X210642857Y-95714285D01*
X210833333Y-95666666D01*
X211071428Y-95666666D01*
X211261904Y-95714285D01*
X211357142Y-95761904D01*
X211404761Y-95809523D01*
X211452380Y-95904761D01*
X211452380Y-96000000D01*
X211404761Y-96095238D01*
X211357142Y-96142857D01*
X211261904Y-96190476D01*
X211071428Y-96238095D01*
X210833333Y-96238095D01*
X210642857Y-96190476D01*
X210547619Y-96142857D01*
X210500000Y-96095238D01*
X210452380Y-96000000D01*
X210880952Y-95095238D02*
X210833333Y-95190476D01*
X210785714Y-95238095D01*
X210690476Y-95285714D01*
X210642857Y-95285714D01*
X210547619Y-95238095D01*
X210500000Y-95190476D01*
X210452380Y-95095238D01*
X210452380Y-94904761D01*
X210500000Y-94809523D01*
X210547619Y-94761904D01*
X210642857Y-94714285D01*
X210690476Y-94714285D01*
X210785714Y-94761904D01*
X210833333Y-94809523D01*
X210880952Y-94904761D01*
X210880952Y-95095238D01*
X210928571Y-95190476D01*
X210976190Y-95238095D01*
X211071428Y-95285714D01*
X211261904Y-95285714D01*
X211357142Y-95238095D01*
X211404761Y-95190476D01*
X211452380Y-95095238D01*
X211452380Y-94904761D01*
X211404761Y-94809523D01*
X211357142Y-94761904D01*
X211261904Y-94714285D01*
X211071428Y-94714285D01*
X210976190Y-94761904D01*
X210928571Y-94809523D01*
X210880952Y-94904761D01*
%TO.C,SW201*%
X85154761Y-99285714D02*
X85202380Y-99142857D01*
X85202380Y-98904761D01*
X85154761Y-98809523D01*
X85107142Y-98761904D01*
X85011904Y-98714285D01*
X84916666Y-98714285D01*
X84821428Y-98761904D01*
X84773809Y-98809523D01*
X84726190Y-98904761D01*
X84678571Y-99095238D01*
X84630952Y-99190476D01*
X84583333Y-99238095D01*
X84488095Y-99285714D01*
X84392857Y-99285714D01*
X84297619Y-99238095D01*
X84250000Y-99190476D01*
X84202380Y-99095238D01*
X84202380Y-98857142D01*
X84250000Y-98714285D01*
X84202380Y-98380952D02*
X85202380Y-98142857D01*
X84488095Y-97952380D01*
X85202380Y-97761904D01*
X84202380Y-97523809D01*
X84297619Y-97190476D02*
X84250000Y-97142857D01*
X84202380Y-97047619D01*
X84202380Y-96809523D01*
X84250000Y-96714285D01*
X84297619Y-96666666D01*
X84392857Y-96619047D01*
X84488095Y-96619047D01*
X84630952Y-96666666D01*
X85202380Y-97238095D01*
X85202380Y-96619047D01*
X84202380Y-96000000D02*
X84202380Y-95904761D01*
X84250000Y-95809523D01*
X84297619Y-95761904D01*
X84392857Y-95714285D01*
X84583333Y-95666666D01*
X84821428Y-95666666D01*
X85011904Y-95714285D01*
X85107142Y-95761904D01*
X85154761Y-95809523D01*
X85202380Y-95904761D01*
X85202380Y-96000000D01*
X85154761Y-96095238D01*
X85107142Y-96142857D01*
X85011904Y-96190476D01*
X84821428Y-96238095D01*
X84583333Y-96238095D01*
X84392857Y-96190476D01*
X84297619Y-96142857D01*
X84250000Y-96095238D01*
X84202380Y-96000000D01*
X85202380Y-94714285D02*
X85202380Y-95285714D01*
X85202380Y-95000000D02*
X84202380Y-95000000D01*
X84345238Y-95095238D01*
X84440476Y-95190476D01*
X84488095Y-95285714D01*
%TO.C,SW301*%
X71904761Y-139785714D02*
X71952380Y-139642857D01*
X71952380Y-139404761D01*
X71904761Y-139309523D01*
X71857142Y-139261904D01*
X71761904Y-139214285D01*
X71666666Y-139214285D01*
X71571428Y-139261904D01*
X71523809Y-139309523D01*
X71476190Y-139404761D01*
X71428571Y-139595238D01*
X71380952Y-139690476D01*
X71333333Y-139738095D01*
X71238095Y-139785714D01*
X71142857Y-139785714D01*
X71047619Y-139738095D01*
X71000000Y-139690476D01*
X70952380Y-139595238D01*
X70952380Y-139357142D01*
X71000000Y-139214285D01*
X70952380Y-138880952D02*
X71952380Y-138642857D01*
X71238095Y-138452380D01*
X71952380Y-138261904D01*
X70952380Y-138023809D01*
X70952380Y-137738095D02*
X70952380Y-137119047D01*
X71333333Y-137452380D01*
X71333333Y-137309523D01*
X71380952Y-137214285D01*
X71428571Y-137166666D01*
X71523809Y-137119047D01*
X71761904Y-137119047D01*
X71857142Y-137166666D01*
X71904761Y-137214285D01*
X71952380Y-137309523D01*
X71952380Y-137595238D01*
X71904761Y-137690476D01*
X71857142Y-137738095D01*
X70952380Y-136500000D02*
X70952380Y-136404761D01*
X71000000Y-136309523D01*
X71047619Y-136261904D01*
X71142857Y-136214285D01*
X71333333Y-136166666D01*
X71571428Y-136166666D01*
X71761904Y-136214285D01*
X71857142Y-136261904D01*
X71904761Y-136309523D01*
X71952380Y-136404761D01*
X71952380Y-136500000D01*
X71904761Y-136595238D01*
X71857142Y-136642857D01*
X71761904Y-136690476D01*
X71571428Y-136738095D01*
X71333333Y-136738095D01*
X71142857Y-136690476D01*
X71047619Y-136642857D01*
X71000000Y-136595238D01*
X70952380Y-136500000D01*
X71952380Y-135214285D02*
X71952380Y-135785714D01*
X71952380Y-135500000D02*
X70952380Y-135500000D01*
X71095238Y-135595238D01*
X71190476Y-135690476D01*
X71238095Y-135785714D01*
%TO.C,SW307*%
X147654761Y-117285714D02*
X147702380Y-117142857D01*
X147702380Y-116904761D01*
X147654761Y-116809523D01*
X147607142Y-116761904D01*
X147511904Y-116714285D01*
X147416666Y-116714285D01*
X147321428Y-116761904D01*
X147273809Y-116809523D01*
X147226190Y-116904761D01*
X147178571Y-117095238D01*
X147130952Y-117190476D01*
X147083333Y-117238095D01*
X146988095Y-117285714D01*
X146892857Y-117285714D01*
X146797619Y-117238095D01*
X146750000Y-117190476D01*
X146702380Y-117095238D01*
X146702380Y-116857142D01*
X146750000Y-116714285D01*
X146702380Y-116380952D02*
X147702380Y-116142857D01*
X146988095Y-115952380D01*
X147702380Y-115761904D01*
X146702380Y-115523809D01*
X146702380Y-115238095D02*
X146702380Y-114619047D01*
X147083333Y-114952380D01*
X147083333Y-114809523D01*
X147130952Y-114714285D01*
X147178571Y-114666666D01*
X147273809Y-114619047D01*
X147511904Y-114619047D01*
X147607142Y-114666666D01*
X147654761Y-114714285D01*
X147702380Y-114809523D01*
X147702380Y-115095238D01*
X147654761Y-115190476D01*
X147607142Y-115238095D01*
X146702380Y-114000000D02*
X146702380Y-113904761D01*
X146750000Y-113809523D01*
X146797619Y-113761904D01*
X146892857Y-113714285D01*
X147083333Y-113666666D01*
X147321428Y-113666666D01*
X147511904Y-113714285D01*
X147607142Y-113761904D01*
X147654761Y-113809523D01*
X147702380Y-113904761D01*
X147702380Y-114000000D01*
X147654761Y-114095238D01*
X147607142Y-114142857D01*
X147511904Y-114190476D01*
X147321428Y-114238095D01*
X147083333Y-114238095D01*
X146892857Y-114190476D01*
X146797619Y-114142857D01*
X146750000Y-114095238D01*
X146702380Y-114000000D01*
X146702380Y-113333333D02*
X146702380Y-112666666D01*
X147702380Y-113095238D01*
%TO.C,SW308*%
X162904761Y-139785714D02*
X162952380Y-139642857D01*
X162952380Y-139404761D01*
X162904761Y-139309523D01*
X162857142Y-139261904D01*
X162761904Y-139214285D01*
X162666666Y-139214285D01*
X162571428Y-139261904D01*
X162523809Y-139309523D01*
X162476190Y-139404761D01*
X162428571Y-139595238D01*
X162380952Y-139690476D01*
X162333333Y-139738095D01*
X162238095Y-139785714D01*
X162142857Y-139785714D01*
X162047619Y-139738095D01*
X162000000Y-139690476D01*
X161952380Y-139595238D01*
X161952380Y-139357142D01*
X162000000Y-139214285D01*
X161952380Y-138880952D02*
X162952380Y-138642857D01*
X162238095Y-138452380D01*
X162952380Y-138261904D01*
X161952380Y-138023809D01*
X161952380Y-137738095D02*
X161952380Y-137119047D01*
X162333333Y-137452380D01*
X162333333Y-137309523D01*
X162380952Y-137214285D01*
X162428571Y-137166666D01*
X162523809Y-137119047D01*
X162761904Y-137119047D01*
X162857142Y-137166666D01*
X162904761Y-137214285D01*
X162952380Y-137309523D01*
X162952380Y-137595238D01*
X162904761Y-137690476D01*
X162857142Y-137738095D01*
X161952380Y-136500000D02*
X161952380Y-136404761D01*
X162000000Y-136309523D01*
X162047619Y-136261904D01*
X162142857Y-136214285D01*
X162333333Y-136166666D01*
X162571428Y-136166666D01*
X162761904Y-136214285D01*
X162857142Y-136261904D01*
X162904761Y-136309523D01*
X162952380Y-136404761D01*
X162952380Y-136500000D01*
X162904761Y-136595238D01*
X162857142Y-136642857D01*
X162761904Y-136690476D01*
X162571428Y-136738095D01*
X162333333Y-136738095D01*
X162142857Y-136690476D01*
X162047619Y-136642857D01*
X162000000Y-136595238D01*
X161952380Y-136500000D01*
X162380952Y-135595238D02*
X162333333Y-135690476D01*
X162285714Y-135738095D01*
X162190476Y-135785714D01*
X162142857Y-135785714D01*
X162047619Y-135738095D01*
X162000000Y-135690476D01*
X161952380Y-135595238D01*
X161952380Y-135404761D01*
X162000000Y-135309523D01*
X162047619Y-135261904D01*
X162142857Y-135214285D01*
X162190476Y-135214285D01*
X162285714Y-135261904D01*
X162333333Y-135309523D01*
X162380952Y-135404761D01*
X162380952Y-135595238D01*
X162428571Y-135690476D01*
X162476190Y-135738095D01*
X162571428Y-135785714D01*
X162761904Y-135785714D01*
X162857142Y-135738095D01*
X162904761Y-135690476D01*
X162952380Y-135595238D01*
X162952380Y-135404761D01*
X162904761Y-135309523D01*
X162857142Y-135261904D01*
X162761904Y-135214285D01*
X162571428Y-135214285D01*
X162476190Y-135261904D01*
X162428571Y-135309523D01*
X162380952Y-135404761D01*
%TO.C,SW303*%
X89904761Y-139785714D02*
X89952380Y-139642857D01*
X89952380Y-139404761D01*
X89904761Y-139309523D01*
X89857142Y-139261904D01*
X89761904Y-139214285D01*
X89666666Y-139214285D01*
X89571428Y-139261904D01*
X89523809Y-139309523D01*
X89476190Y-139404761D01*
X89428571Y-139595238D01*
X89380952Y-139690476D01*
X89333333Y-139738095D01*
X89238095Y-139785714D01*
X89142857Y-139785714D01*
X89047619Y-139738095D01*
X89000000Y-139690476D01*
X88952380Y-139595238D01*
X88952380Y-139357142D01*
X89000000Y-139214285D01*
X88952380Y-138880952D02*
X89952380Y-138642857D01*
X89238095Y-138452380D01*
X89952380Y-138261904D01*
X88952380Y-138023809D01*
X88952380Y-137738095D02*
X88952380Y-137119047D01*
X89333333Y-137452380D01*
X89333333Y-137309523D01*
X89380952Y-137214285D01*
X89428571Y-137166666D01*
X89523809Y-137119047D01*
X89761904Y-137119047D01*
X89857142Y-137166666D01*
X89904761Y-137214285D01*
X89952380Y-137309523D01*
X89952380Y-137595238D01*
X89904761Y-137690476D01*
X89857142Y-137738095D01*
X88952380Y-136500000D02*
X88952380Y-136404761D01*
X89000000Y-136309523D01*
X89047619Y-136261904D01*
X89142857Y-136214285D01*
X89333333Y-136166666D01*
X89571428Y-136166666D01*
X89761904Y-136214285D01*
X89857142Y-136261904D01*
X89904761Y-136309523D01*
X89952380Y-136404761D01*
X89952380Y-136500000D01*
X89904761Y-136595238D01*
X89857142Y-136642857D01*
X89761904Y-136690476D01*
X89571428Y-136738095D01*
X89333333Y-136738095D01*
X89142857Y-136690476D01*
X89047619Y-136642857D01*
X89000000Y-136595238D01*
X88952380Y-136500000D01*
X88952380Y-135833333D02*
X88952380Y-135214285D01*
X89333333Y-135547619D01*
X89333333Y-135404761D01*
X89380952Y-135309523D01*
X89428571Y-135261904D01*
X89523809Y-135214285D01*
X89761904Y-135214285D01*
X89857142Y-135261904D01*
X89904761Y-135309523D01*
X89952380Y-135404761D01*
X89952380Y-135690476D01*
X89904761Y-135785714D01*
X89857142Y-135833333D01*
%TO.C,SW312*%
X198904761Y-139785714D02*
X198952380Y-139642857D01*
X198952380Y-139404761D01*
X198904761Y-139309523D01*
X198857142Y-139261904D01*
X198761904Y-139214285D01*
X198666666Y-139214285D01*
X198571428Y-139261904D01*
X198523809Y-139309523D01*
X198476190Y-139404761D01*
X198428571Y-139595238D01*
X198380952Y-139690476D01*
X198333333Y-139738095D01*
X198238095Y-139785714D01*
X198142857Y-139785714D01*
X198047619Y-139738095D01*
X198000000Y-139690476D01*
X197952380Y-139595238D01*
X197952380Y-139357142D01*
X198000000Y-139214285D01*
X197952380Y-138880952D02*
X198952380Y-138642857D01*
X198238095Y-138452380D01*
X198952380Y-138261904D01*
X197952380Y-138023809D01*
X197952380Y-137738095D02*
X197952380Y-137119047D01*
X198333333Y-137452380D01*
X198333333Y-137309523D01*
X198380952Y-137214285D01*
X198428571Y-137166666D01*
X198523809Y-137119047D01*
X198761904Y-137119047D01*
X198857142Y-137166666D01*
X198904761Y-137214285D01*
X198952380Y-137309523D01*
X198952380Y-137595238D01*
X198904761Y-137690476D01*
X198857142Y-137738095D01*
X198952380Y-136166666D02*
X198952380Y-136738095D01*
X198952380Y-136452380D02*
X197952380Y-136452380D01*
X198095238Y-136547619D01*
X198190476Y-136642857D01*
X198238095Y-136738095D01*
X198047619Y-135785714D02*
X198000000Y-135738095D01*
X197952380Y-135642857D01*
X197952380Y-135404761D01*
X198000000Y-135309523D01*
X198047619Y-135261904D01*
X198142857Y-135214285D01*
X198238095Y-135214285D01*
X198380952Y-135261904D01*
X198952380Y-135833333D01*
X198952380Y-135214285D01*
%TO.C,SW304*%
X111654761Y-117285714D02*
X111702380Y-117142857D01*
X111702380Y-116904761D01*
X111654761Y-116809523D01*
X111607142Y-116761904D01*
X111511904Y-116714285D01*
X111416666Y-116714285D01*
X111321428Y-116761904D01*
X111273809Y-116809523D01*
X111226190Y-116904761D01*
X111178571Y-117095238D01*
X111130952Y-117190476D01*
X111083333Y-117238095D01*
X110988095Y-117285714D01*
X110892857Y-117285714D01*
X110797619Y-117238095D01*
X110750000Y-117190476D01*
X110702380Y-117095238D01*
X110702380Y-116857142D01*
X110750000Y-116714285D01*
X110702380Y-116380952D02*
X111702380Y-116142857D01*
X110988095Y-115952380D01*
X111702380Y-115761904D01*
X110702380Y-115523809D01*
X110702380Y-115238095D02*
X110702380Y-114619047D01*
X111083333Y-114952380D01*
X111083333Y-114809523D01*
X111130952Y-114714285D01*
X111178571Y-114666666D01*
X111273809Y-114619047D01*
X111511904Y-114619047D01*
X111607142Y-114666666D01*
X111654761Y-114714285D01*
X111702380Y-114809523D01*
X111702380Y-115095238D01*
X111654761Y-115190476D01*
X111607142Y-115238095D01*
X110702380Y-114000000D02*
X110702380Y-113904761D01*
X110750000Y-113809523D01*
X110797619Y-113761904D01*
X110892857Y-113714285D01*
X111083333Y-113666666D01*
X111321428Y-113666666D01*
X111511904Y-113714285D01*
X111607142Y-113761904D01*
X111654761Y-113809523D01*
X111702380Y-113904761D01*
X111702380Y-114000000D01*
X111654761Y-114095238D01*
X111607142Y-114142857D01*
X111511904Y-114190476D01*
X111321428Y-114238095D01*
X111083333Y-114238095D01*
X110892857Y-114190476D01*
X110797619Y-114142857D01*
X110750000Y-114095238D01*
X110702380Y-114000000D01*
X111035714Y-112809523D02*
X111702380Y-112809523D01*
X110654761Y-113047619D02*
X111369047Y-113285714D01*
X111369047Y-112666666D01*
%TO.C,SW309*%
X165654761Y-117035714D02*
X165702380Y-116892857D01*
X165702380Y-116654761D01*
X165654761Y-116559523D01*
X165607142Y-116511904D01*
X165511904Y-116464285D01*
X165416666Y-116464285D01*
X165321428Y-116511904D01*
X165273809Y-116559523D01*
X165226190Y-116654761D01*
X165178571Y-116845238D01*
X165130952Y-116940476D01*
X165083333Y-116988095D01*
X164988095Y-117035714D01*
X164892857Y-117035714D01*
X164797619Y-116988095D01*
X164750000Y-116940476D01*
X164702380Y-116845238D01*
X164702380Y-116607142D01*
X164750000Y-116464285D01*
X164702380Y-116130952D02*
X165702380Y-115892857D01*
X164988095Y-115702380D01*
X165702380Y-115511904D01*
X164702380Y-115273809D01*
X164702380Y-114988095D02*
X164702380Y-114369047D01*
X165083333Y-114702380D01*
X165083333Y-114559523D01*
X165130952Y-114464285D01*
X165178571Y-114416666D01*
X165273809Y-114369047D01*
X165511904Y-114369047D01*
X165607142Y-114416666D01*
X165654761Y-114464285D01*
X165702380Y-114559523D01*
X165702380Y-114845238D01*
X165654761Y-114940476D01*
X165607142Y-114988095D01*
X164702380Y-113750000D02*
X164702380Y-113654761D01*
X164750000Y-113559523D01*
X164797619Y-113511904D01*
X164892857Y-113464285D01*
X165083333Y-113416666D01*
X165321428Y-113416666D01*
X165511904Y-113464285D01*
X165607142Y-113511904D01*
X165654761Y-113559523D01*
X165702380Y-113654761D01*
X165702380Y-113750000D01*
X165654761Y-113845238D01*
X165607142Y-113892857D01*
X165511904Y-113940476D01*
X165321428Y-113988095D01*
X165083333Y-113988095D01*
X164892857Y-113940476D01*
X164797619Y-113892857D01*
X164750000Y-113845238D01*
X164702380Y-113750000D01*
X165702380Y-112940476D02*
X165702380Y-112750000D01*
X165654761Y-112654761D01*
X165607142Y-112607142D01*
X165464285Y-112511904D01*
X165273809Y-112464285D01*
X164892857Y-112464285D01*
X164797619Y-112511904D01*
X164750000Y-112559523D01*
X164702380Y-112654761D01*
X164702380Y-112845238D01*
X164750000Y-112940476D01*
X164797619Y-112988095D01*
X164892857Y-113035714D01*
X165130952Y-113035714D01*
X165226190Y-112988095D01*
X165273809Y-112940476D01*
X165321428Y-112845238D01*
X165321428Y-112654761D01*
X165273809Y-112559523D01*
X165226190Y-112511904D01*
X165130952Y-112464285D01*
%TO.C,SW302*%
X93654761Y-117285714D02*
X93702380Y-117142857D01*
X93702380Y-116904761D01*
X93654761Y-116809523D01*
X93607142Y-116761904D01*
X93511904Y-116714285D01*
X93416666Y-116714285D01*
X93321428Y-116761904D01*
X93273809Y-116809523D01*
X93226190Y-116904761D01*
X93178571Y-117095238D01*
X93130952Y-117190476D01*
X93083333Y-117238095D01*
X92988095Y-117285714D01*
X92892857Y-117285714D01*
X92797619Y-117238095D01*
X92750000Y-117190476D01*
X92702380Y-117095238D01*
X92702380Y-116857142D01*
X92750000Y-116714285D01*
X92702380Y-116380952D02*
X93702380Y-116142857D01*
X92988095Y-115952380D01*
X93702380Y-115761904D01*
X92702380Y-115523809D01*
X92702380Y-115238095D02*
X92702380Y-114619047D01*
X93083333Y-114952380D01*
X93083333Y-114809523D01*
X93130952Y-114714285D01*
X93178571Y-114666666D01*
X93273809Y-114619047D01*
X93511904Y-114619047D01*
X93607142Y-114666666D01*
X93654761Y-114714285D01*
X93702380Y-114809523D01*
X93702380Y-115095238D01*
X93654761Y-115190476D01*
X93607142Y-115238095D01*
X92702380Y-114000000D02*
X92702380Y-113904761D01*
X92750000Y-113809523D01*
X92797619Y-113761904D01*
X92892857Y-113714285D01*
X93083333Y-113666666D01*
X93321428Y-113666666D01*
X93511904Y-113714285D01*
X93607142Y-113761904D01*
X93654761Y-113809523D01*
X93702380Y-113904761D01*
X93702380Y-114000000D01*
X93654761Y-114095238D01*
X93607142Y-114142857D01*
X93511904Y-114190476D01*
X93321428Y-114238095D01*
X93083333Y-114238095D01*
X92892857Y-114190476D01*
X92797619Y-114142857D01*
X92750000Y-114095238D01*
X92702380Y-114000000D01*
X92797619Y-113285714D02*
X92750000Y-113238095D01*
X92702380Y-113142857D01*
X92702380Y-112904761D01*
X92750000Y-112809523D01*
X92797619Y-112761904D01*
X92892857Y-112714285D01*
X92988095Y-112714285D01*
X93130952Y-112761904D01*
X93702380Y-113333333D01*
X93702380Y-112714285D01*
%TO.C,SW203*%
X121154761Y-99285714D02*
X121202380Y-99142857D01*
X121202380Y-98904761D01*
X121154761Y-98809523D01*
X121107142Y-98761904D01*
X121011904Y-98714285D01*
X120916666Y-98714285D01*
X120821428Y-98761904D01*
X120773809Y-98809523D01*
X120726190Y-98904761D01*
X120678571Y-99095238D01*
X120630952Y-99190476D01*
X120583333Y-99238095D01*
X120488095Y-99285714D01*
X120392857Y-99285714D01*
X120297619Y-99238095D01*
X120250000Y-99190476D01*
X120202380Y-99095238D01*
X120202380Y-98857142D01*
X120250000Y-98714285D01*
X120202380Y-98380952D02*
X121202380Y-98142857D01*
X120488095Y-97952380D01*
X121202380Y-97761904D01*
X120202380Y-97523809D01*
X120297619Y-97190476D02*
X120250000Y-97142857D01*
X120202380Y-97047619D01*
X120202380Y-96809523D01*
X120250000Y-96714285D01*
X120297619Y-96666666D01*
X120392857Y-96619047D01*
X120488095Y-96619047D01*
X120630952Y-96666666D01*
X121202380Y-97238095D01*
X121202380Y-96619047D01*
X120202380Y-96000000D02*
X120202380Y-95904761D01*
X120250000Y-95809523D01*
X120297619Y-95761904D01*
X120392857Y-95714285D01*
X120583333Y-95666666D01*
X120821428Y-95666666D01*
X121011904Y-95714285D01*
X121107142Y-95761904D01*
X121154761Y-95809523D01*
X121202380Y-95904761D01*
X121202380Y-96000000D01*
X121154761Y-96095238D01*
X121107142Y-96142857D01*
X121011904Y-96190476D01*
X120821428Y-96238095D01*
X120583333Y-96238095D01*
X120392857Y-96190476D01*
X120297619Y-96142857D01*
X120250000Y-96095238D01*
X120202380Y-96000000D01*
X120202380Y-95333333D02*
X120202380Y-94714285D01*
X120583333Y-95047619D01*
X120583333Y-94904761D01*
X120630952Y-94809523D01*
X120678571Y-94761904D01*
X120773809Y-94714285D01*
X121011904Y-94714285D01*
X121107142Y-94761904D01*
X121154761Y-94809523D01*
X121202380Y-94904761D01*
X121202380Y-95190476D01*
X121154761Y-95285714D01*
X121107142Y-95333333D01*
%TO.C,SW310*%
X180904761Y-139785714D02*
X180952380Y-139642857D01*
X180952380Y-139404761D01*
X180904761Y-139309523D01*
X180857142Y-139261904D01*
X180761904Y-139214285D01*
X180666666Y-139214285D01*
X180571428Y-139261904D01*
X180523809Y-139309523D01*
X180476190Y-139404761D01*
X180428571Y-139595238D01*
X180380952Y-139690476D01*
X180333333Y-139738095D01*
X180238095Y-139785714D01*
X180142857Y-139785714D01*
X180047619Y-139738095D01*
X180000000Y-139690476D01*
X179952380Y-139595238D01*
X179952380Y-139357142D01*
X180000000Y-139214285D01*
X179952380Y-138880952D02*
X180952380Y-138642857D01*
X180238095Y-138452380D01*
X180952380Y-138261904D01*
X179952380Y-138023809D01*
X179952380Y-137738095D02*
X179952380Y-137119047D01*
X180333333Y-137452380D01*
X180333333Y-137309523D01*
X180380952Y-137214285D01*
X180428571Y-137166666D01*
X180523809Y-137119047D01*
X180761904Y-137119047D01*
X180857142Y-137166666D01*
X180904761Y-137214285D01*
X180952380Y-137309523D01*
X180952380Y-137595238D01*
X180904761Y-137690476D01*
X180857142Y-137738095D01*
X180952380Y-136166666D02*
X180952380Y-136738095D01*
X180952380Y-136452380D02*
X179952380Y-136452380D01*
X180095238Y-136547619D01*
X180190476Y-136642857D01*
X180238095Y-136738095D01*
X179952380Y-135547619D02*
X179952380Y-135452380D01*
X180000000Y-135357142D01*
X180047619Y-135309523D01*
X180142857Y-135261904D01*
X180333333Y-135214285D01*
X180571428Y-135214285D01*
X180761904Y-135261904D01*
X180857142Y-135309523D01*
X180904761Y-135357142D01*
X180952380Y-135452380D01*
X180952380Y-135547619D01*
X180904761Y-135642857D01*
X180857142Y-135690476D01*
X180761904Y-135738095D01*
X180571428Y-135785714D01*
X180333333Y-135785714D01*
X180142857Y-135738095D01*
X180047619Y-135690476D01*
X180000000Y-135642857D01*
X179952380Y-135547619D01*
%TO.C,SW306*%
X125904761Y-139785714D02*
X125952380Y-139642857D01*
X125952380Y-139404761D01*
X125904761Y-139309523D01*
X125857142Y-139261904D01*
X125761904Y-139214285D01*
X125666666Y-139214285D01*
X125571428Y-139261904D01*
X125523809Y-139309523D01*
X125476190Y-139404761D01*
X125428571Y-139595238D01*
X125380952Y-139690476D01*
X125333333Y-139738095D01*
X125238095Y-139785714D01*
X125142857Y-139785714D01*
X125047619Y-139738095D01*
X125000000Y-139690476D01*
X124952380Y-139595238D01*
X124952380Y-139357142D01*
X125000000Y-139214285D01*
X124952380Y-138880952D02*
X125952380Y-138642857D01*
X125238095Y-138452380D01*
X125952380Y-138261904D01*
X124952380Y-138023809D01*
X124952380Y-137738095D02*
X124952380Y-137119047D01*
X125333333Y-137452380D01*
X125333333Y-137309523D01*
X125380952Y-137214285D01*
X125428571Y-137166666D01*
X125523809Y-137119047D01*
X125761904Y-137119047D01*
X125857142Y-137166666D01*
X125904761Y-137214285D01*
X125952380Y-137309523D01*
X125952380Y-137595238D01*
X125904761Y-137690476D01*
X125857142Y-137738095D01*
X124952380Y-136500000D02*
X124952380Y-136404761D01*
X125000000Y-136309523D01*
X125047619Y-136261904D01*
X125142857Y-136214285D01*
X125333333Y-136166666D01*
X125571428Y-136166666D01*
X125761904Y-136214285D01*
X125857142Y-136261904D01*
X125904761Y-136309523D01*
X125952380Y-136404761D01*
X125952380Y-136500000D01*
X125904761Y-136595238D01*
X125857142Y-136642857D01*
X125761904Y-136690476D01*
X125571428Y-136738095D01*
X125333333Y-136738095D01*
X125142857Y-136690476D01*
X125047619Y-136642857D01*
X125000000Y-136595238D01*
X124952380Y-136500000D01*
X124952380Y-135309523D02*
X124952380Y-135500000D01*
X125000000Y-135595238D01*
X125047619Y-135642857D01*
X125190476Y-135738095D01*
X125380952Y-135785714D01*
X125761904Y-135785714D01*
X125857142Y-135738095D01*
X125904761Y-135690476D01*
X125952380Y-135595238D01*
X125952380Y-135404761D01*
X125904761Y-135309523D01*
X125857142Y-135261904D01*
X125761904Y-135214285D01*
X125523809Y-135214285D01*
X125428571Y-135261904D01*
X125380952Y-135309523D01*
X125333333Y-135404761D01*
X125333333Y-135595238D01*
X125380952Y-135690476D01*
X125428571Y-135738095D01*
X125523809Y-135785714D01*
%TO.C,SW313*%
X216904761Y-139670714D02*
X216952380Y-139527857D01*
X216952380Y-139289761D01*
X216904761Y-139194523D01*
X216857142Y-139146904D01*
X216761904Y-139099285D01*
X216666666Y-139099285D01*
X216571428Y-139146904D01*
X216523809Y-139194523D01*
X216476190Y-139289761D01*
X216428571Y-139480238D01*
X216380952Y-139575476D01*
X216333333Y-139623095D01*
X216238095Y-139670714D01*
X216142857Y-139670714D01*
X216047619Y-139623095D01*
X216000000Y-139575476D01*
X215952380Y-139480238D01*
X215952380Y-139242142D01*
X216000000Y-139099285D01*
X215952380Y-138765952D02*
X216952380Y-138527857D01*
X216238095Y-138337380D01*
X216952380Y-138146904D01*
X215952380Y-137908809D01*
X215952380Y-137623095D02*
X215952380Y-137004047D01*
X216333333Y-137337380D01*
X216333333Y-137194523D01*
X216380952Y-137099285D01*
X216428571Y-137051666D01*
X216523809Y-137004047D01*
X216761904Y-137004047D01*
X216857142Y-137051666D01*
X216904761Y-137099285D01*
X216952380Y-137194523D01*
X216952380Y-137480238D01*
X216904761Y-137575476D01*
X216857142Y-137623095D01*
X216952380Y-136051666D02*
X216952380Y-136623095D01*
X216952380Y-136337380D02*
X215952380Y-136337380D01*
X216095238Y-136432619D01*
X216190476Y-136527857D01*
X216238095Y-136623095D01*
X215952380Y-135718333D02*
X215952380Y-135099285D01*
X216333333Y-135432619D01*
X216333333Y-135289761D01*
X216380952Y-135194523D01*
X216428571Y-135146904D01*
X216523809Y-135099285D01*
X216761904Y-135099285D01*
X216857142Y-135146904D01*
X216904761Y-135194523D01*
X216952380Y-135289761D01*
X216952380Y-135575476D01*
X216904761Y-135670714D01*
X216857142Y-135718333D01*
%TO.C,SW205*%
X157154761Y-99285714D02*
X157202380Y-99142857D01*
X157202380Y-98904761D01*
X157154761Y-98809523D01*
X157107142Y-98761904D01*
X157011904Y-98714285D01*
X156916666Y-98714285D01*
X156821428Y-98761904D01*
X156773809Y-98809523D01*
X156726190Y-98904761D01*
X156678571Y-99095238D01*
X156630952Y-99190476D01*
X156583333Y-99238095D01*
X156488095Y-99285714D01*
X156392857Y-99285714D01*
X156297619Y-99238095D01*
X156250000Y-99190476D01*
X156202380Y-99095238D01*
X156202380Y-98857142D01*
X156250000Y-98714285D01*
X156202380Y-98380952D02*
X157202380Y-98142857D01*
X156488095Y-97952380D01*
X157202380Y-97761904D01*
X156202380Y-97523809D01*
X156297619Y-97190476D02*
X156250000Y-97142857D01*
X156202380Y-97047619D01*
X156202380Y-96809523D01*
X156250000Y-96714285D01*
X156297619Y-96666666D01*
X156392857Y-96619047D01*
X156488095Y-96619047D01*
X156630952Y-96666666D01*
X157202380Y-97238095D01*
X157202380Y-96619047D01*
X156202380Y-96000000D02*
X156202380Y-95904761D01*
X156250000Y-95809523D01*
X156297619Y-95761904D01*
X156392857Y-95714285D01*
X156583333Y-95666666D01*
X156821428Y-95666666D01*
X157011904Y-95714285D01*
X157107142Y-95761904D01*
X157154761Y-95809523D01*
X157202380Y-95904761D01*
X157202380Y-96000000D01*
X157154761Y-96095238D01*
X157107142Y-96142857D01*
X157011904Y-96190476D01*
X156821428Y-96238095D01*
X156583333Y-96238095D01*
X156392857Y-96190476D01*
X156297619Y-96142857D01*
X156250000Y-96095238D01*
X156202380Y-96000000D01*
X156202380Y-94761904D02*
X156202380Y-95238095D01*
X156678571Y-95285714D01*
X156630952Y-95238095D01*
X156583333Y-95142857D01*
X156583333Y-94904761D01*
X156630952Y-94809523D01*
X156678571Y-94761904D01*
X156773809Y-94714285D01*
X157011904Y-94714285D01*
X157107142Y-94761904D01*
X157154761Y-94809523D01*
X157202380Y-94904761D01*
X157202380Y-95142857D01*
X157154761Y-95238095D01*
X157107142Y-95285714D01*
%TO.C,SW311*%
X183654761Y-117285714D02*
X183702380Y-117142857D01*
X183702380Y-116904761D01*
X183654761Y-116809523D01*
X183607142Y-116761904D01*
X183511904Y-116714285D01*
X183416666Y-116714285D01*
X183321428Y-116761904D01*
X183273809Y-116809523D01*
X183226190Y-116904761D01*
X183178571Y-117095238D01*
X183130952Y-117190476D01*
X183083333Y-117238095D01*
X182988095Y-117285714D01*
X182892857Y-117285714D01*
X182797619Y-117238095D01*
X182750000Y-117190476D01*
X182702380Y-117095238D01*
X182702380Y-116857142D01*
X182750000Y-116714285D01*
X182702380Y-116380952D02*
X183702380Y-116142857D01*
X182988095Y-115952380D01*
X183702380Y-115761904D01*
X182702380Y-115523809D01*
X182702380Y-115238095D02*
X182702380Y-114619047D01*
X183083333Y-114952380D01*
X183083333Y-114809523D01*
X183130952Y-114714285D01*
X183178571Y-114666666D01*
X183273809Y-114619047D01*
X183511904Y-114619047D01*
X183607142Y-114666666D01*
X183654761Y-114714285D01*
X183702380Y-114809523D01*
X183702380Y-115095238D01*
X183654761Y-115190476D01*
X183607142Y-115238095D01*
X183702380Y-113666666D02*
X183702380Y-114238095D01*
X183702380Y-113952380D02*
X182702380Y-113952380D01*
X182845238Y-114047619D01*
X182940476Y-114142857D01*
X182988095Y-114238095D01*
X183702380Y-112714285D02*
X183702380Y-113285714D01*
X183702380Y-113000000D02*
X182702380Y-113000000D01*
X182845238Y-113095238D01*
X182940476Y-113190476D01*
X182988095Y-113285714D01*
%TO.C,SW204*%
X139154761Y-99285714D02*
X139202380Y-99142857D01*
X139202380Y-98904761D01*
X139154761Y-98809523D01*
X139107142Y-98761904D01*
X139011904Y-98714285D01*
X138916666Y-98714285D01*
X138821428Y-98761904D01*
X138773809Y-98809523D01*
X138726190Y-98904761D01*
X138678571Y-99095238D01*
X138630952Y-99190476D01*
X138583333Y-99238095D01*
X138488095Y-99285714D01*
X138392857Y-99285714D01*
X138297619Y-99238095D01*
X138250000Y-99190476D01*
X138202380Y-99095238D01*
X138202380Y-98857142D01*
X138250000Y-98714285D01*
X138202380Y-98380952D02*
X139202380Y-98142857D01*
X138488095Y-97952380D01*
X139202380Y-97761904D01*
X138202380Y-97523809D01*
X138297619Y-97190476D02*
X138250000Y-97142857D01*
X138202380Y-97047619D01*
X138202380Y-96809523D01*
X138250000Y-96714285D01*
X138297619Y-96666666D01*
X138392857Y-96619047D01*
X138488095Y-96619047D01*
X138630952Y-96666666D01*
X139202380Y-97238095D01*
X139202380Y-96619047D01*
X138202380Y-96000000D02*
X138202380Y-95904761D01*
X138250000Y-95809523D01*
X138297619Y-95761904D01*
X138392857Y-95714285D01*
X138583333Y-95666666D01*
X138821428Y-95666666D01*
X139011904Y-95714285D01*
X139107142Y-95761904D01*
X139154761Y-95809523D01*
X139202380Y-95904761D01*
X139202380Y-96000000D01*
X139154761Y-96095238D01*
X139107142Y-96142857D01*
X139011904Y-96190476D01*
X138821428Y-96238095D01*
X138583333Y-96238095D01*
X138392857Y-96190476D01*
X138297619Y-96142857D01*
X138250000Y-96095238D01*
X138202380Y-96000000D01*
X138535714Y-94809523D02*
X139202380Y-94809523D01*
X138154761Y-95047619D02*
X138869047Y-95285714D01*
X138869047Y-94666666D01*
%TO.C,SW206*%
X175154761Y-99285714D02*
X175202380Y-99142857D01*
X175202380Y-98904761D01*
X175154761Y-98809523D01*
X175107142Y-98761904D01*
X175011904Y-98714285D01*
X174916666Y-98714285D01*
X174821428Y-98761904D01*
X174773809Y-98809523D01*
X174726190Y-98904761D01*
X174678571Y-99095238D01*
X174630952Y-99190476D01*
X174583333Y-99238095D01*
X174488095Y-99285714D01*
X174392857Y-99285714D01*
X174297619Y-99238095D01*
X174250000Y-99190476D01*
X174202380Y-99095238D01*
X174202380Y-98857142D01*
X174250000Y-98714285D01*
X174202380Y-98380952D02*
X175202380Y-98142857D01*
X174488095Y-97952380D01*
X175202380Y-97761904D01*
X174202380Y-97523809D01*
X174297619Y-97190476D02*
X174250000Y-97142857D01*
X174202380Y-97047619D01*
X174202380Y-96809523D01*
X174250000Y-96714285D01*
X174297619Y-96666666D01*
X174392857Y-96619047D01*
X174488095Y-96619047D01*
X174630952Y-96666666D01*
X175202380Y-97238095D01*
X175202380Y-96619047D01*
X174202380Y-96000000D02*
X174202380Y-95904761D01*
X174250000Y-95809523D01*
X174297619Y-95761904D01*
X174392857Y-95714285D01*
X174583333Y-95666666D01*
X174821428Y-95666666D01*
X175011904Y-95714285D01*
X175107142Y-95761904D01*
X175154761Y-95809523D01*
X175202380Y-95904761D01*
X175202380Y-96000000D01*
X175154761Y-96095238D01*
X175107142Y-96142857D01*
X175011904Y-96190476D01*
X174821428Y-96238095D01*
X174583333Y-96238095D01*
X174392857Y-96190476D01*
X174297619Y-96142857D01*
X174250000Y-96095238D01*
X174202380Y-96000000D01*
X174202380Y-94809523D02*
X174202380Y-95000000D01*
X174250000Y-95095238D01*
X174297619Y-95142857D01*
X174440476Y-95238095D01*
X174630952Y-95285714D01*
X175011904Y-95285714D01*
X175107142Y-95238095D01*
X175154761Y-95190476D01*
X175202380Y-95095238D01*
X175202380Y-94904761D01*
X175154761Y-94809523D01*
X175107142Y-94761904D01*
X175011904Y-94714285D01*
X174773809Y-94714285D01*
X174678571Y-94761904D01*
X174630952Y-94809523D01*
X174583333Y-94904761D01*
X174583333Y-95095238D01*
X174630952Y-95190476D01*
X174678571Y-95238095D01*
X174773809Y-95285714D01*
%TO.C,SW305*%
X107904761Y-139785714D02*
X107952380Y-139642857D01*
X107952380Y-139404761D01*
X107904761Y-139309523D01*
X107857142Y-139261904D01*
X107761904Y-139214285D01*
X107666666Y-139214285D01*
X107571428Y-139261904D01*
X107523809Y-139309523D01*
X107476190Y-139404761D01*
X107428571Y-139595238D01*
X107380952Y-139690476D01*
X107333333Y-139738095D01*
X107238095Y-139785714D01*
X107142857Y-139785714D01*
X107047619Y-139738095D01*
X107000000Y-139690476D01*
X106952380Y-139595238D01*
X106952380Y-139357142D01*
X107000000Y-139214285D01*
X106952380Y-138880952D02*
X107952380Y-138642857D01*
X107238095Y-138452380D01*
X107952380Y-138261904D01*
X106952380Y-138023809D01*
X106952380Y-137738095D02*
X106952380Y-137119047D01*
X107333333Y-137452380D01*
X107333333Y-137309523D01*
X107380952Y-137214285D01*
X107428571Y-137166666D01*
X107523809Y-137119047D01*
X107761904Y-137119047D01*
X107857142Y-137166666D01*
X107904761Y-137214285D01*
X107952380Y-137309523D01*
X107952380Y-137595238D01*
X107904761Y-137690476D01*
X107857142Y-137738095D01*
X106952380Y-136500000D02*
X106952380Y-136404761D01*
X107000000Y-136309523D01*
X107047619Y-136261904D01*
X107142857Y-136214285D01*
X107333333Y-136166666D01*
X107571428Y-136166666D01*
X107761904Y-136214285D01*
X107857142Y-136261904D01*
X107904761Y-136309523D01*
X107952380Y-136404761D01*
X107952380Y-136500000D01*
X107904761Y-136595238D01*
X107857142Y-136642857D01*
X107761904Y-136690476D01*
X107571428Y-136738095D01*
X107333333Y-136738095D01*
X107142857Y-136690476D01*
X107047619Y-136642857D01*
X107000000Y-136595238D01*
X106952380Y-136500000D01*
X106952380Y-135261904D02*
X106952380Y-135738095D01*
X107428571Y-135785714D01*
X107380952Y-135738095D01*
X107333333Y-135642857D01*
X107333333Y-135404761D01*
X107380952Y-135309523D01*
X107428571Y-135261904D01*
X107523809Y-135214285D01*
X107761904Y-135214285D01*
X107857142Y-135261904D01*
X107904761Y-135309523D01*
X107952380Y-135404761D01*
X107952380Y-135642857D01*
X107904761Y-135738095D01*
X107857142Y-135785714D01*
%TO.C,SW207*%
X193154761Y-99285714D02*
X193202380Y-99142857D01*
X193202380Y-98904761D01*
X193154761Y-98809523D01*
X193107142Y-98761904D01*
X193011904Y-98714285D01*
X192916666Y-98714285D01*
X192821428Y-98761904D01*
X192773809Y-98809523D01*
X192726190Y-98904761D01*
X192678571Y-99095238D01*
X192630952Y-99190476D01*
X192583333Y-99238095D01*
X192488095Y-99285714D01*
X192392857Y-99285714D01*
X192297619Y-99238095D01*
X192250000Y-99190476D01*
X192202380Y-99095238D01*
X192202380Y-98857142D01*
X192250000Y-98714285D01*
X192202380Y-98380952D02*
X193202380Y-98142857D01*
X192488095Y-97952380D01*
X193202380Y-97761904D01*
X192202380Y-97523809D01*
X192297619Y-97190476D02*
X192250000Y-97142857D01*
X192202380Y-97047619D01*
X192202380Y-96809523D01*
X192250000Y-96714285D01*
X192297619Y-96666666D01*
X192392857Y-96619047D01*
X192488095Y-96619047D01*
X192630952Y-96666666D01*
X193202380Y-97238095D01*
X193202380Y-96619047D01*
X192202380Y-96000000D02*
X192202380Y-95904761D01*
X192250000Y-95809523D01*
X192297619Y-95761904D01*
X192392857Y-95714285D01*
X192583333Y-95666666D01*
X192821428Y-95666666D01*
X193011904Y-95714285D01*
X193107142Y-95761904D01*
X193154761Y-95809523D01*
X193202380Y-95904761D01*
X193202380Y-96000000D01*
X193154761Y-96095238D01*
X193107142Y-96142857D01*
X193011904Y-96190476D01*
X192821428Y-96238095D01*
X192583333Y-96238095D01*
X192392857Y-96190476D01*
X192297619Y-96142857D01*
X192250000Y-96095238D01*
X192202380Y-96000000D01*
X192202380Y-95333333D02*
X192202380Y-94666666D01*
X193202380Y-95095238D01*
%TO.C,kibuzzard-6388C06F*%
G36*
X178987830Y-69438988D02*
G01*
X197675562Y-69438988D01*
X201012170Y-80561012D01*
X182324437Y-80561012D01*
X181706265Y-78500438D01*
X184308812Y-78500438D01*
X185061287Y-78500438D01*
X185061287Y-74395163D01*
X185092244Y-74147513D01*
X185194637Y-74052263D01*
X185301794Y-74142750D01*
X185337512Y-74385637D01*
X185337512Y-78500438D01*
X186080462Y-78500438D01*
X186080462Y-77157413D01*
X186413838Y-77157413D01*
X186506706Y-77843213D01*
X186809125Y-78371850D01*
X187375862Y-78576638D01*
X187585855Y-78500438D01*
X188661737Y-78500438D01*
X189452312Y-78500438D01*
X189452312Y-77324100D01*
X190957262Y-77324100D01*
X191009055Y-77840831D01*
X191164431Y-78238500D01*
X191435298Y-78492103D01*
X191833563Y-78576638D01*
X192237184Y-78493889D01*
X192514600Y-78245644D01*
X192675334Y-77853333D01*
X192728912Y-77338387D01*
X192728912Y-76633537D01*
X192014537Y-76633537D01*
X192014537Y-77343150D01*
X191981200Y-77624138D01*
X191843087Y-77728913D01*
X191716881Y-77626519D01*
X191690687Y-77347913D01*
X191690687Y-76385888D01*
X192995613Y-76385888D01*
X193995738Y-76385888D01*
X193995738Y-75481012D01*
X192995613Y-75481012D01*
X192995613Y-76385888D01*
X191690687Y-76385888D01*
X191690687Y-76071562D01*
X192728912Y-76071562D01*
X192728912Y-74518988D01*
X192633662Y-73873669D01*
X192340769Y-73395037D01*
X191833563Y-73214062D01*
X191435298Y-73309908D01*
X191164431Y-73597444D01*
X191009055Y-74019520D01*
X190957262Y-74518988D01*
X190957262Y-77324100D01*
X189452312Y-77324100D01*
X189452312Y-75700087D01*
X189849386Y-75616744D01*
X190145256Y-75395288D01*
X190353616Y-75058936D01*
X190488156Y-74630906D01*
X190561380Y-74135011D01*
X190585787Y-73595063D01*
X190557212Y-73064639D01*
X190548465Y-73014038D01*
X194491037Y-73014038D01*
X194900612Y-73014038D01*
X194900612Y-78500438D01*
X195691188Y-78500438D01*
X195691188Y-71499562D01*
X195148263Y-71499562D01*
X194907756Y-72037725D01*
X194491037Y-72375862D01*
X194491037Y-73014038D01*
X190548465Y-73014038D01*
X190471487Y-72568744D01*
X190321469Y-72135952D01*
X190100012Y-71794837D01*
X189799975Y-71573381D01*
X189414212Y-71499562D01*
X188661737Y-71499562D01*
X188661737Y-78500438D01*
X187585855Y-78500438D01*
X187940219Y-78371850D01*
X188237875Y-77843213D01*
X188328362Y-77157413D01*
X188328362Y-72842587D01*
X188249781Y-72171075D01*
X187964031Y-71635294D01*
X187375862Y-71423362D01*
X186809125Y-71635294D01*
X186506706Y-72171075D01*
X186413838Y-72842587D01*
X186413838Y-77157413D01*
X186080462Y-77157413D01*
X186080462Y-74233237D01*
X186051887Y-73833188D01*
X185913775Y-73402181D01*
X185566112Y-73214062D01*
X185289887Y-73330744D01*
X185061287Y-73556963D01*
X185061287Y-73290262D01*
X184308812Y-73290262D01*
X184308812Y-78500438D01*
X181706265Y-78500438D01*
X178987830Y-69438988D01*
G37*
G36*
X187516356Y-72549694D02*
G01*
X187537787Y-72842587D01*
X187537787Y-77157413D01*
X187516356Y-77447925D01*
X187385388Y-77576513D01*
X187252037Y-77462213D01*
X187223462Y-77157413D01*
X187223462Y-72842587D01*
X187252037Y-72547313D01*
X187385388Y-72423487D01*
X187516356Y-72549694D01*
G37*
G36*
X189671388Y-72680663D02*
G01*
X189757112Y-73075950D01*
X189776162Y-73595063D01*
X189757112Y-74111794D01*
X189671388Y-74502319D01*
X189452312Y-74652338D01*
X189452312Y-72528263D01*
X189671388Y-72680663D01*
G37*
G36*
X191990725Y-74149894D02*
G01*
X192014537Y-74442788D01*
X192014537Y-75319088D01*
X191690687Y-75319088D01*
X191690687Y-74442788D01*
X191721644Y-74154656D01*
X191843087Y-74052263D01*
X191990725Y-74149894D01*
G37*
D11*
%TO.C,J10*%
X90160000Y-63332071D02*
X90160000Y-62935000D01*
X85080000Y-63265000D02*
X85080000Y-62935000D01*
X94350000Y-62935000D02*
X94350000Y-60275000D01*
X96000000Y-63332071D02*
X96000000Y-62935000D01*
X85620000Y-60275000D02*
X85620000Y-54275000D01*
X97780000Y-54275000D02*
X98540000Y-54275000D01*
X93460000Y-63332071D02*
X93460000Y-62935000D01*
X98540000Y-54275000D02*
X98540000Y-60275000D01*
X87620000Y-63332071D02*
X87620000Y-62935000D01*
X90920000Y-54275000D02*
X90920000Y-60275000D01*
X90160000Y-60275000D02*
X90160000Y-54275000D01*
X96000000Y-54275000D02*
X96000000Y-60275000D01*
X90920000Y-63332071D02*
X90920000Y-62935000D01*
X87620000Y-60275000D02*
X87620000Y-54275000D01*
X86730000Y-62935000D02*
X86730000Y-60275000D01*
X84190000Y-65645000D02*
X84190000Y-64375000D01*
X85840000Y-63265000D02*
X85840000Y-62935000D01*
X85740000Y-60275000D02*
X85740000Y-54275000D01*
X92700000Y-60275000D02*
X92700000Y-54275000D01*
X85840000Y-54275000D02*
X85840000Y-60275000D01*
X97780000Y-63332071D02*
X97780000Y-62935000D01*
X95240000Y-60275000D02*
X95240000Y-54275000D01*
X96890000Y-62935000D02*
X96890000Y-60275000D01*
X92700000Y-54275000D02*
X93460000Y-54275000D01*
X95240000Y-63332071D02*
X95240000Y-62935000D01*
X98540000Y-63332071D02*
X98540000Y-62935000D01*
X85460000Y-65645000D02*
X84190000Y-65645000D01*
X89270000Y-62935000D02*
X89270000Y-60275000D01*
X93460000Y-54275000D02*
X93460000Y-60275000D01*
X95240000Y-54275000D02*
X96000000Y-54275000D01*
X99490000Y-62935000D02*
X99490000Y-60275000D01*
X88380000Y-63332071D02*
X88380000Y-62935000D01*
X99490000Y-60275000D02*
X84130000Y-60275000D01*
X84130000Y-62935000D02*
X99490000Y-62935000D01*
X85140000Y-60275000D02*
X85140000Y-54275000D01*
X91810000Y-62935000D02*
X91810000Y-60275000D01*
X84130000Y-60275000D02*
X84130000Y-62935000D01*
X85080000Y-60275000D02*
X85080000Y-54275000D01*
X97780000Y-60275000D02*
X97780000Y-54275000D01*
X85500000Y-60275000D02*
X85500000Y-54275000D01*
X92700000Y-63332071D02*
X92700000Y-62935000D01*
X87620000Y-54275000D02*
X88380000Y-54275000D01*
X90160000Y-54275000D02*
X90920000Y-54275000D01*
X88380000Y-54275000D02*
X88380000Y-60275000D01*
X85260000Y-60275000D02*
X85260000Y-54275000D01*
X85380000Y-60275000D02*
X85380000Y-54275000D01*
X85080000Y-54275000D02*
X85840000Y-54275000D01*
D12*
%TO.C,J11*%
X137960000Y-60901500D02*
X137960000Y-61790500D01*
X139230000Y-60901500D02*
X139230000Y-61790500D01*
X139230000Y-60901500D02*
G75*
G03*
X137960000Y-60901500I-635000J0D01*
G01*
%TD*%
M02*
