%TF.GenerationSoftware,KiCad,Pcbnew,6.0.9-8da3e8f707~116~ubuntu22.04.1*%
%TF.CreationDate,2022-11-15T19:10:22-05:00*%
%TF.ProjectId,kicad_circular_tracks_test,6b696361-645f-4636-9972-63756c61725f,rev?*%
%TF.SameCoordinates,Original*%
%TF.FileFunction,Paste,Top*%
%TF.FilePolarity,Positive*%
%FSLAX46Y46*%
G04 Gerber Fmt 4.6, Leading zero omitted, Abs format (unit mm)*
G04 Created by KiCad (PCBNEW 6.0.9-8da3e8f707~116~ubuntu22.04.1) date 2022-11-15 19:10:22*
%MOMM*%
%LPD*%
G01*
G04 APERTURE LIST*
G04 Aperture macros list*
%AMRoundRect*
0 Rectangle with rounded corners*
0 $1 Rounding radius*
0 $2 $3 $4 $5 $6 $7 $8 $9 X,Y pos of 4 corners*
0 Add a 4 corners polygon primitive as box body*
4,1,4,$2,$3,$4,$5,$6,$7,$8,$9,$2,$3,0*
0 Add four circle primitives for the rounded corners*
1,1,$1+$1,$2,$3*
1,1,$1+$1,$4,$5*
1,1,$1+$1,$6,$7*
1,1,$1+$1,$8,$9*
0 Add four rect primitives between the rounded corners*
20,1,$1+$1,$2,$3,$4,$5,0*
20,1,$1+$1,$4,$5,$6,$7,0*
20,1,$1+$1,$6,$7,$8,$9,0*
20,1,$1+$1,$8,$9,$2,$3,0*%
G04 Aperture macros list end*
%ADD10RoundRect,0.218750X-0.176111X0.287229X-0.311306X-0.128858X0.176111X-0.287229X0.311306X0.128858X0*%
%ADD11RoundRect,0.218750X0.256250X-0.218750X0.256250X0.218750X-0.256250X0.218750X-0.256250X-0.218750X0*%
%ADD12RoundRect,0.218750X-0.256250X0.218750X-0.256250X-0.218750X0.256250X-0.218750X0.256250X0.218750X0*%
%ADD13RoundRect,0.218750X-0.287229X-0.176111X0.128858X-0.311306X0.287229X0.176111X-0.128858X0.311306X0*%
%ADD14RoundRect,0.218750X0.311306X-0.128858X0.176111X0.287229X-0.311306X0.128858X-0.176111X-0.287229X0*%
%ADD15RoundRect,0.218750X0.327592X0.078733X-0.026352X0.335889X-0.327592X-0.078733X0.026352X-0.335889X0*%
%ADD16RoundRect,0.218750X-0.128858X-0.311306X0.287229X-0.176111X0.128858X0.311306X-0.287229X0.176111X0*%
%ADD17RoundRect,0.218750X0.287229X0.176111X-0.128858X0.311306X-0.287229X-0.176111X0.128858X-0.311306X0*%
%ADD18RoundRect,0.218750X0.335889X-0.026352X0.078733X0.327592X-0.335889X0.026352X-0.078733X-0.327592X0*%
%ADD19RoundRect,0.200000X-0.065042X-0.333758X0.297482X-0.164711X0.065042X0.333758X-0.297482X0.164711X0*%
%ADD20RoundRect,0.218750X-0.335889X0.026352X-0.078733X-0.327592X0.335889X-0.026352X0.078733X0.327592X0*%
%ADD21RoundRect,0.200000X0.302901X-0.154518X0.240327X0.240557X-0.302901X0.154518X-0.240327X-0.240557X0*%
%ADD22RoundRect,0.218750X0.128858X0.311306X-0.287229X0.176111X-0.128858X-0.311306X0.287229X-0.176111X0*%
%ADD23RoundRect,0.218750X-0.327592X-0.078733X0.026352X-0.335889X0.327592X0.078733X-0.026352X0.335889X0*%
%ADD24RoundRect,0.200000X0.240557X0.240327X-0.154518X0.302901X-0.240557X-0.240327X0.154518X-0.302901X0*%
%ADD25RoundRect,0.218750X-0.218750X-0.256250X0.218750X-0.256250X0.218750X0.256250X-0.218750X0.256250X0*%
%ADD26RoundRect,0.218750X0.176111X-0.287229X0.311306X0.128858X-0.176111X0.287229X-0.311306X-0.128858X0*%
%ADD27RoundRect,0.218750X0.026352X0.335889X-0.327592X0.078733X-0.026352X-0.335889X0.327592X-0.078733X0*%
%ADD28RoundRect,0.200000X-0.154229X0.303049X-0.335825X-0.053354X0.154229X-0.303049X0.335825X0.053354X0*%
%ADD29RoundRect,0.218750X0.078733X-0.327592X0.335889X0.026352X-0.078733X0.327592X-0.335889X-0.026352X0*%
%ADD30RoundRect,0.200000X-0.335876X-0.053033X-0.053033X-0.335876X0.335876X0.053033X0.053033X0.335876X0*%
%ADD31RoundRect,0.218750X0.218750X0.256250X-0.218750X0.256250X-0.218750X-0.256250X0.218750X-0.256250X0*%
%ADD32RoundRect,0.218750X-0.026352X-0.335889X0.327592X-0.078733X0.026352X0.335889X-0.327592X0.078733X0*%
%ADD33RoundRect,0.218750X-0.311306X0.128858X-0.176111X-0.287229X0.311306X-0.128858X0.176111X0.287229X0*%
%ADD34RoundRect,0.218750X-0.078733X0.327592X-0.335889X-0.026352X0.078733X-0.327592X0.335889X0.026352X0*%
G04 APERTURE END LIST*
D10*
%TO.C,D12*%
X154878605Y-84985195D03*
X154391903Y-86483109D03*
%TD*%
D11*
%TO.C,D1*%
X150000000Y-115787500D03*
X150000000Y-114212500D03*
%TD*%
D12*
%TO.C,D11*%
X150000000Y-84212500D03*
X150000000Y-85787500D03*
%TD*%
D13*
%TO.C,D7*%
X134985195Y-95121394D03*
X136483109Y-95608096D03*
%TD*%
D14*
%TO.C,D20*%
X154878605Y-115014804D03*
X154391903Y-113516890D03*
%TD*%
D15*
%TO.C,D18*%
X162772355Y-109279659D03*
X161498153Y-108353897D03*
%TD*%
D16*
%TO.C,D5*%
X134985195Y-104878605D03*
X136483109Y-104391903D03*
%TD*%
D17*
%TO.C,D17*%
X165014804Y-104878605D03*
X163516890Y-104391903D03*
%TD*%
D18*
%TO.C,D19*%
X159279659Y-112772355D03*
X158353897Y-111498153D03*
%TD*%
D19*
%TO.C,R2*%
X135750000Y-107098660D03*
X137245408Y-106401340D03*
%TD*%
D20*
%TO.C,D9*%
X140720340Y-87227644D03*
X141646102Y-88501846D03*
%TD*%
D21*
%TO.C,R1*%
X152379058Y-115564843D03*
X152120942Y-113935157D03*
%TD*%
D22*
%TO.C,D15*%
X165014804Y-95121394D03*
X163516890Y-95608096D03*
%TD*%
D23*
%TO.C,D8*%
X137227644Y-90720340D03*
X138501846Y-91646102D03*
%TD*%
D24*
%TO.C,R5*%
X165489843Y-102129058D03*
X163860157Y-101870942D03*
%TD*%
D25*
%TO.C,D6*%
X134212500Y-100000000D03*
X135787500Y-100000000D03*
%TD*%
D26*
%TO.C,D2*%
X145121394Y-115014804D03*
X145608096Y-113516890D03*
%TD*%
D27*
%TO.C,D14*%
X162772355Y-90720340D03*
X161498153Y-91646102D03*
%TD*%
D28*
%TO.C,R4*%
X157374542Y-86014920D03*
X156625458Y-87485080D03*
%TD*%
D29*
%TO.C,D3*%
X140720340Y-112772355D03*
X141646102Y-111498153D03*
%TD*%
D30*
%TO.C,R3*%
X139083274Y-88583274D03*
X140250000Y-89750000D03*
%TD*%
D31*
%TO.C,D16*%
X165787500Y-100000000D03*
X164212500Y-100000000D03*
%TD*%
D32*
%TO.C,D4*%
X137227644Y-109279659D03*
X138501846Y-108353897D03*
%TD*%
D33*
%TO.C,D10*%
X145121394Y-84985195D03*
X145608096Y-86483109D03*
%TD*%
D34*
%TO.C,D13*%
X159279659Y-87227644D03*
X158353897Y-88501846D03*
%TD*%
M02*
