%TF.GenerationSoftware,KiCad,Pcbnew,6.0.9-8da3e8f707~116~ubuntu22.04.1*%
%TF.CreationDate,2022-11-15T19:10:22-05:00*%
%TF.ProjectId,kicad_circular_tracks_test,6b696361-645f-4636-9972-63756c61725f,rev?*%
%TF.SameCoordinates,Original*%
%TF.FileFunction,Legend,Bot*%
%TF.FilePolarity,Positive*%
%FSLAX46Y46*%
G04 Gerber Fmt 4.6, Leading zero omitted, Abs format (unit mm)*
G04 Created by KiCad (PCBNEW 6.0.9-8da3e8f707~116~ubuntu22.04.1) date 2022-11-15 19:10:22*
%MOMM*%
%LPD*%
G01*
G04 APERTURE LIST*
%ADD10C,0.150000*%
%ADD11C,0.120000*%
G04 APERTURE END LIST*
D10*
X145892857Y-117702380D02*
X145892857Y-116702380D01*
X145464285Y-116797619D02*
X145416666Y-116750000D01*
X145321428Y-116702380D01*
X145083333Y-116702380D01*
X144988095Y-116750000D01*
X144940476Y-116797619D01*
X144892857Y-116892857D01*
X144892857Y-116988095D01*
X144940476Y-117130952D01*
X145511904Y-117702380D01*
X144892857Y-117702380D01*
X143892857Y-117607142D02*
X143940476Y-117654761D01*
X144083333Y-117702380D01*
X144178571Y-117702380D01*
X144321428Y-117654761D01*
X144416666Y-117559523D01*
X144464285Y-117464285D01*
X144511904Y-117273809D01*
X144511904Y-117130952D01*
X144464285Y-116940476D01*
X144416666Y-116845238D01*
X144321428Y-116750000D01*
X144178571Y-116702380D01*
X144083333Y-116702380D01*
X143940476Y-116750000D01*
X143892857Y-116797619D01*
X142845238Y-116702380D02*
X142273809Y-116702380D01*
X142559523Y-117702380D02*
X142559523Y-116702380D01*
X141559523Y-117654761D02*
X141654761Y-117702380D01*
X141845238Y-117702380D01*
X141940476Y-117654761D01*
X141988095Y-117559523D01*
X141988095Y-117178571D01*
X141940476Y-117083333D01*
X141845238Y-117035714D01*
X141654761Y-117035714D01*
X141559523Y-117083333D01*
X141511904Y-117178571D01*
X141511904Y-117273809D01*
X141988095Y-117369047D01*
X141083333Y-117702380D02*
X141083333Y-117035714D01*
X141083333Y-117226190D02*
X141035714Y-117130952D01*
X140988095Y-117083333D01*
X140892857Y-117035714D01*
X140797619Y-117035714D01*
X140464285Y-117702380D02*
X140464285Y-117035714D01*
X140464285Y-117130952D02*
X140416666Y-117083333D01*
X140321428Y-117035714D01*
X140178571Y-117035714D01*
X140083333Y-117083333D01*
X140035714Y-117178571D01*
X140035714Y-117702380D01*
X140035714Y-117178571D02*
X139988095Y-117083333D01*
X139892857Y-117035714D01*
X139750000Y-117035714D01*
X139654761Y-117083333D01*
X139607142Y-117178571D01*
X139607142Y-117702380D01*
X161623809Y-112951666D02*
X161147619Y-112951666D01*
X161719047Y-113237380D02*
X161385714Y-112237380D01*
X161052380Y-113237380D01*
X160385714Y-112713571D02*
X160242857Y-112761190D01*
X160195238Y-112808809D01*
X160147619Y-112904047D01*
X160147619Y-113046904D01*
X160195238Y-113142142D01*
X160242857Y-113189761D01*
X160338095Y-113237380D01*
X160719047Y-113237380D01*
X160719047Y-112237380D01*
X160385714Y-112237380D01*
X160290476Y-112285000D01*
X160242857Y-112332619D01*
X160195238Y-112427857D01*
X160195238Y-112523095D01*
X160242857Y-112618333D01*
X160290476Y-112665952D01*
X160385714Y-112713571D01*
X160719047Y-112713571D01*
X159290476Y-112570714D02*
X159290476Y-113237380D01*
X159528571Y-112189761D02*
X159766666Y-112904047D01*
X159147619Y-112904047D01*
X158766666Y-112713571D02*
X158433333Y-112713571D01*
X158290476Y-113237380D02*
X158766666Y-113237380D01*
X158766666Y-112237380D01*
X158290476Y-112237380D01*
X157861904Y-113237380D02*
X157861904Y-112237380D01*
X157290476Y-113237380D01*
X157290476Y-112237380D01*
X156052380Y-112856428D02*
X155290476Y-112856428D01*
X153719047Y-112713571D02*
X153576190Y-112761190D01*
X153528571Y-112808809D01*
X153480952Y-112904047D01*
X153480952Y-113046904D01*
X153528571Y-113142142D01*
X153576190Y-113189761D01*
X153671428Y-113237380D01*
X154052380Y-113237380D01*
X154052380Y-112237380D01*
X153719047Y-112237380D01*
X153623809Y-112285000D01*
X153576190Y-112332619D01*
X153528571Y-112427857D01*
X153528571Y-112523095D01*
X153576190Y-112618333D01*
X153623809Y-112665952D01*
X153719047Y-112713571D01*
X154052380Y-112713571D01*
X153195238Y-112237380D02*
X152861904Y-113237380D01*
X152528571Y-112237380D01*
X152195238Y-113237380D02*
X152195238Y-112237380D01*
X152195238Y-112713571D02*
X151623809Y-112713571D01*
X151623809Y-113237380D02*
X151623809Y-112237380D01*
X159838095Y-114799761D02*
X159695238Y-114847380D01*
X159457142Y-114847380D01*
X159361904Y-114799761D01*
X159314285Y-114752142D01*
X159266666Y-114656904D01*
X159266666Y-114561666D01*
X159314285Y-114466428D01*
X159361904Y-114418809D01*
X159457142Y-114371190D01*
X159647619Y-114323571D01*
X159742857Y-114275952D01*
X159790476Y-114228333D01*
X159838095Y-114133095D01*
X159838095Y-114037857D01*
X159790476Y-113942619D01*
X159742857Y-113895000D01*
X159647619Y-113847380D01*
X159409523Y-113847380D01*
X159266666Y-113895000D01*
X158885714Y-114561666D02*
X158409523Y-114561666D01*
X158980952Y-114847380D02*
X158647619Y-113847380D01*
X158314285Y-114847380D01*
X157980952Y-114847380D02*
X157980952Y-113847380D01*
X157647619Y-114561666D01*
X157314285Y-113847380D01*
X157314285Y-114847380D01*
X156838095Y-114847380D02*
X156838095Y-113847380D01*
X156600000Y-113847380D01*
X156457142Y-113895000D01*
X156361904Y-113990238D01*
X156314285Y-114085476D01*
X156266666Y-114275952D01*
X156266666Y-114418809D01*
X156314285Y-114609285D01*
X156361904Y-114704523D01*
X156457142Y-114799761D01*
X156600000Y-114847380D01*
X156838095Y-114847380D01*
X155314285Y-114847380D02*
X155885714Y-114847380D01*
X155600000Y-114847380D02*
X155600000Y-113847380D01*
X155695238Y-113990238D01*
X155790476Y-114085476D01*
X155885714Y-114133095D01*
X154695238Y-113847380D02*
X154600000Y-113847380D01*
X154504761Y-113895000D01*
X154457142Y-113942619D01*
X154409523Y-114037857D01*
X154361904Y-114228333D01*
X154361904Y-114466428D01*
X154409523Y-114656904D01*
X154457142Y-114752142D01*
X154504761Y-114799761D01*
X154600000Y-114847380D01*
X154695238Y-114847380D01*
X154790476Y-114799761D01*
X154838095Y-114752142D01*
X154885714Y-114656904D01*
X154933333Y-114466428D01*
X154933333Y-114228333D01*
X154885714Y-114037857D01*
X154838095Y-113942619D01*
X154790476Y-113895000D01*
X154695238Y-113847380D01*
X153933333Y-114847380D02*
X153933333Y-113847380D01*
X153695238Y-113847380D01*
X153552380Y-113895000D01*
X153457142Y-113990238D01*
X153409523Y-114085476D01*
X153361904Y-114275952D01*
X153361904Y-114418809D01*
X153409523Y-114609285D01*
X153457142Y-114704523D01*
X153552380Y-114799761D01*
X153695238Y-114847380D01*
X153933333Y-114847380D01*
X159980952Y-116362142D02*
X160028571Y-116409761D01*
X160171428Y-116457380D01*
X160266666Y-116457380D01*
X160409523Y-116409761D01*
X160504761Y-116314523D01*
X160552380Y-116219285D01*
X160600000Y-116028809D01*
X160600000Y-115885952D01*
X160552380Y-115695476D01*
X160504761Y-115600238D01*
X160409523Y-115505000D01*
X160266666Y-115457380D01*
X160171428Y-115457380D01*
X160028571Y-115505000D01*
X159980952Y-115552619D01*
X159552380Y-116457380D02*
X159552380Y-115457380D01*
X159123809Y-116457380D02*
X159123809Y-115933571D01*
X159171428Y-115838333D01*
X159266666Y-115790714D01*
X159409523Y-115790714D01*
X159504761Y-115838333D01*
X159552380Y-115885952D01*
X158219047Y-116457380D02*
X158219047Y-115933571D01*
X158266666Y-115838333D01*
X158361904Y-115790714D01*
X158552380Y-115790714D01*
X158647619Y-115838333D01*
X158219047Y-116409761D02*
X158314285Y-116457380D01*
X158552380Y-116457380D01*
X158647619Y-116409761D01*
X158695238Y-116314523D01*
X158695238Y-116219285D01*
X158647619Y-116124047D01*
X158552380Y-116076428D01*
X158314285Y-116076428D01*
X158219047Y-116028809D01*
X157742857Y-116457380D02*
X157742857Y-115790714D01*
X157742857Y-115981190D02*
X157695238Y-115885952D01*
X157647619Y-115838333D01*
X157552380Y-115790714D01*
X157457142Y-115790714D01*
X156980952Y-116457380D02*
X157076190Y-116409761D01*
X157123809Y-116314523D01*
X157123809Y-115457380D01*
X156600000Y-116457380D02*
X156600000Y-115790714D01*
X156600000Y-115457380D02*
X156647619Y-115505000D01*
X156600000Y-115552619D01*
X156552380Y-115505000D01*
X156600000Y-115457380D01*
X156600000Y-115552619D01*
X155742857Y-116409761D02*
X155838095Y-116457380D01*
X156028571Y-116457380D01*
X156123809Y-116409761D01*
X156171428Y-116314523D01*
X156171428Y-115933571D01*
X156123809Y-115838333D01*
X156028571Y-115790714D01*
X155838095Y-115790714D01*
X155742857Y-115838333D01*
X155695238Y-115933571D01*
X155695238Y-116028809D01*
X156171428Y-116124047D01*
X155266666Y-115790714D02*
X155266666Y-116790714D01*
X155266666Y-115838333D02*
X155171428Y-115790714D01*
X154980952Y-115790714D01*
X154885714Y-115838333D01*
X154838095Y-115885952D01*
X154790476Y-115981190D01*
X154790476Y-116266904D01*
X154838095Y-116362142D01*
X154885714Y-116409761D01*
X154980952Y-116457380D01*
X155171428Y-116457380D01*
X155266666Y-116409761D01*
X154219047Y-116457380D02*
X154314285Y-116409761D01*
X154361904Y-116314523D01*
X154361904Y-115457380D01*
X153457142Y-116409761D02*
X153552380Y-116457380D01*
X153742857Y-116457380D01*
X153838095Y-116409761D01*
X153885714Y-116314523D01*
X153885714Y-115933571D01*
X153838095Y-115838333D01*
X153742857Y-115790714D01*
X153552380Y-115790714D01*
X153457142Y-115838333D01*
X153409523Y-115933571D01*
X153409523Y-116028809D01*
X153885714Y-116124047D01*
X153076190Y-116457380D02*
X152552380Y-115790714D01*
X153076190Y-115790714D02*
X152552380Y-116457380D01*
X162695238Y-117162619D02*
X162647619Y-117115000D01*
X162552380Y-117067380D01*
X162314285Y-117067380D01*
X162219047Y-117115000D01*
X162171428Y-117162619D01*
X162123809Y-117257857D01*
X162123809Y-117353095D01*
X162171428Y-117495952D01*
X162742857Y-118067380D01*
X162123809Y-118067380D01*
X161504761Y-117067380D02*
X161409523Y-117067380D01*
X161314285Y-117115000D01*
X161266666Y-117162619D01*
X161219047Y-117257857D01*
X161171428Y-117448333D01*
X161171428Y-117686428D01*
X161219047Y-117876904D01*
X161266666Y-117972142D01*
X161314285Y-118019761D01*
X161409523Y-118067380D01*
X161504761Y-118067380D01*
X161600000Y-118019761D01*
X161647619Y-117972142D01*
X161695238Y-117876904D01*
X161742857Y-117686428D01*
X161742857Y-117448333D01*
X161695238Y-117257857D01*
X161647619Y-117162619D01*
X161600000Y-117115000D01*
X161504761Y-117067380D01*
X160790476Y-117162619D02*
X160742857Y-117115000D01*
X160647619Y-117067380D01*
X160409523Y-117067380D01*
X160314285Y-117115000D01*
X160266666Y-117162619D01*
X160219047Y-117257857D01*
X160219047Y-117353095D01*
X160266666Y-117495952D01*
X160838095Y-118067380D01*
X160219047Y-118067380D01*
X159266666Y-118067380D02*
X159838095Y-118067380D01*
X159552380Y-118067380D02*
X159552380Y-117067380D01*
X159647619Y-117210238D01*
X159742857Y-117305476D01*
X159838095Y-117353095D01*
X158838095Y-117686428D02*
X158076190Y-117686428D01*
X157409523Y-117067380D02*
X157314285Y-117067380D01*
X157219047Y-117115000D01*
X157171428Y-117162619D01*
X157123809Y-117257857D01*
X157076190Y-117448333D01*
X157076190Y-117686428D01*
X157123809Y-117876904D01*
X157171428Y-117972142D01*
X157219047Y-118019761D01*
X157314285Y-118067380D01*
X157409523Y-118067380D01*
X157504761Y-118019761D01*
X157552380Y-117972142D01*
X157600000Y-117876904D01*
X157647619Y-117686428D01*
X157647619Y-117448333D01*
X157600000Y-117257857D01*
X157552380Y-117162619D01*
X157504761Y-117115000D01*
X157409523Y-117067380D01*
X156742857Y-117067380D02*
X156123809Y-117067380D01*
X156457142Y-117448333D01*
X156314285Y-117448333D01*
X156219047Y-117495952D01*
X156171428Y-117543571D01*
X156123809Y-117638809D01*
X156123809Y-117876904D01*
X156171428Y-117972142D01*
X156219047Y-118019761D01*
X156314285Y-118067380D01*
X156600000Y-118067380D01*
X156695238Y-118019761D01*
X156742857Y-117972142D01*
X155695238Y-117686428D02*
X154933333Y-117686428D01*
X154504761Y-117162619D02*
X154457142Y-117115000D01*
X154361904Y-117067380D01*
X154123809Y-117067380D01*
X154028571Y-117115000D01*
X153980952Y-117162619D01*
X153933333Y-117257857D01*
X153933333Y-117353095D01*
X153980952Y-117495952D01*
X154552380Y-118067380D01*
X153933333Y-118067380D01*
X153600000Y-117067380D02*
X152933333Y-117067380D01*
X153361904Y-118067380D01*
X151885714Y-117400714D02*
X151647619Y-118067380D01*
X151409523Y-117400714D01*
X150504761Y-118067380D02*
X151076190Y-118067380D01*
X150790476Y-118067380D02*
X150790476Y-117067380D01*
X150885714Y-117210238D01*
X150980952Y-117305476D01*
X151076190Y-117353095D01*
%TO.C,R12*%
X141242857Y-98652380D02*
X141576190Y-98176190D01*
X141814285Y-98652380D02*
X141814285Y-97652380D01*
X141433333Y-97652380D01*
X141338095Y-97700000D01*
X141290476Y-97747619D01*
X141242857Y-97842857D01*
X141242857Y-97985714D01*
X141290476Y-98080952D01*
X141338095Y-98128571D01*
X141433333Y-98176190D01*
X141814285Y-98176190D01*
X140290476Y-98652380D02*
X140861904Y-98652380D01*
X140576190Y-98652380D02*
X140576190Y-97652380D01*
X140671428Y-97795238D01*
X140766666Y-97890476D01*
X140861904Y-97938095D01*
X139909523Y-97747619D02*
X139861904Y-97700000D01*
X139766666Y-97652380D01*
X139528571Y-97652380D01*
X139433333Y-97700000D01*
X139385714Y-97747619D01*
X139338095Y-97842857D01*
X139338095Y-97938095D01*
X139385714Y-98080952D01*
X139957142Y-98652380D01*
X139338095Y-98652380D01*
%TO.C,R14*%
X159702380Y-90857142D02*
X159226190Y-90523809D01*
X159702380Y-90285714D02*
X158702380Y-90285714D01*
X158702380Y-90666666D01*
X158750000Y-90761904D01*
X158797619Y-90809523D01*
X158892857Y-90857142D01*
X159035714Y-90857142D01*
X159130952Y-90809523D01*
X159178571Y-90761904D01*
X159226190Y-90666666D01*
X159226190Y-90285714D01*
X159702380Y-91809523D02*
X159702380Y-91238095D01*
X159702380Y-91523809D02*
X158702380Y-91523809D01*
X158845238Y-91428571D01*
X158940476Y-91333333D01*
X158988095Y-91238095D01*
X159035714Y-92666666D02*
X159702380Y-92666666D01*
X158654761Y-92428571D02*
X159369047Y-92190476D01*
X159369047Y-92809523D01*
%TO.C,C4*%
X161966666Y-101057142D02*
X162014285Y-101104761D01*
X162157142Y-101152380D01*
X162252380Y-101152380D01*
X162395238Y-101104761D01*
X162490476Y-101009523D01*
X162538095Y-100914285D01*
X162585714Y-100723809D01*
X162585714Y-100580952D01*
X162538095Y-100390476D01*
X162490476Y-100295238D01*
X162395238Y-100200000D01*
X162252380Y-100152380D01*
X162157142Y-100152380D01*
X162014285Y-100200000D01*
X161966666Y-100247619D01*
X161109523Y-100485714D02*
X161109523Y-101152380D01*
X161347619Y-100104761D02*
X161585714Y-100819047D01*
X160966666Y-100819047D01*
%TO.C,R10*%
X162742857Y-99052380D02*
X163076190Y-98576190D01*
X163314285Y-99052380D02*
X163314285Y-98052380D01*
X162933333Y-98052380D01*
X162838095Y-98100000D01*
X162790476Y-98147619D01*
X162742857Y-98242857D01*
X162742857Y-98385714D01*
X162790476Y-98480952D01*
X162838095Y-98528571D01*
X162933333Y-98576190D01*
X163314285Y-98576190D01*
X161790476Y-99052380D02*
X162361904Y-99052380D01*
X162076190Y-99052380D02*
X162076190Y-98052380D01*
X162171428Y-98195238D01*
X162266666Y-98290476D01*
X162361904Y-98338095D01*
X161171428Y-98052380D02*
X161076190Y-98052380D01*
X160980952Y-98100000D01*
X160933333Y-98147619D01*
X160885714Y-98242857D01*
X160838095Y-98433333D01*
X160838095Y-98671428D01*
X160885714Y-98861904D01*
X160933333Y-98957142D01*
X160980952Y-99004761D01*
X161076190Y-99052380D01*
X161171428Y-99052380D01*
X161266666Y-99004761D01*
X161314285Y-98957142D01*
X161361904Y-98861904D01*
X161409523Y-98671428D01*
X161409523Y-98433333D01*
X161361904Y-98242857D01*
X161314285Y-98147619D01*
X161266666Y-98100000D01*
X161171428Y-98052380D01*
%TO.C,U1*%
X150761904Y-96152380D02*
X150761904Y-96961904D01*
X150714285Y-97057142D01*
X150666666Y-97104761D01*
X150571428Y-97152380D01*
X150380952Y-97152380D01*
X150285714Y-97104761D01*
X150238095Y-97057142D01*
X150190476Y-96961904D01*
X150190476Y-96152380D01*
X149190476Y-97152380D02*
X149761904Y-97152380D01*
X149476190Y-97152380D02*
X149476190Y-96152380D01*
X149571428Y-96295238D01*
X149666666Y-96390476D01*
X149761904Y-96438095D01*
%TO.C,C6*%
X143066666Y-94857142D02*
X143114285Y-94904761D01*
X143257142Y-94952380D01*
X143352380Y-94952380D01*
X143495238Y-94904761D01*
X143590476Y-94809523D01*
X143638095Y-94714285D01*
X143685714Y-94523809D01*
X143685714Y-94380952D01*
X143638095Y-94190476D01*
X143590476Y-94095238D01*
X143495238Y-94000000D01*
X143352380Y-93952380D01*
X143257142Y-93952380D01*
X143114285Y-94000000D01*
X143066666Y-94047619D01*
X142209523Y-93952380D02*
X142400000Y-93952380D01*
X142495238Y-94000000D01*
X142542857Y-94047619D01*
X142638095Y-94190476D01*
X142685714Y-94380952D01*
X142685714Y-94761904D01*
X142638095Y-94857142D01*
X142590476Y-94904761D01*
X142495238Y-94952380D01*
X142304761Y-94952380D01*
X142209523Y-94904761D01*
X142161904Y-94857142D01*
X142114285Y-94761904D01*
X142114285Y-94523809D01*
X142161904Y-94428571D01*
X142209523Y-94380952D01*
X142304761Y-94333333D01*
X142495238Y-94333333D01*
X142590476Y-94380952D01*
X142638095Y-94428571D01*
X142685714Y-94523809D01*
%TO.C,R7*%
X138591666Y-118052380D02*
X138925000Y-117576190D01*
X139163095Y-118052380D02*
X139163095Y-117052380D01*
X138782142Y-117052380D01*
X138686904Y-117100000D01*
X138639285Y-117147619D01*
X138591666Y-117242857D01*
X138591666Y-117385714D01*
X138639285Y-117480952D01*
X138686904Y-117528571D01*
X138782142Y-117576190D01*
X139163095Y-117576190D01*
X138258333Y-117052380D02*
X137591666Y-117052380D01*
X138020238Y-118052380D01*
%TO.C,J4*%
X133333333Y-114087380D02*
X133333333Y-114801666D01*
X133380952Y-114944523D01*
X133476190Y-115039761D01*
X133619047Y-115087380D01*
X133714285Y-115087380D01*
X132428571Y-114420714D02*
X132428571Y-115087380D01*
X132666666Y-114039761D02*
X132904761Y-114754047D01*
X132285714Y-114754047D01*
%TO.C,C3*%
X153265142Y-107529333D02*
X153312761Y-107481714D01*
X153360380Y-107338857D01*
X153360380Y-107243619D01*
X153312761Y-107100761D01*
X153217523Y-107005523D01*
X153122285Y-106957904D01*
X152931809Y-106910285D01*
X152788952Y-106910285D01*
X152598476Y-106957904D01*
X152503238Y-107005523D01*
X152408000Y-107100761D01*
X152360380Y-107243619D01*
X152360380Y-107338857D01*
X152408000Y-107481714D01*
X152455619Y-107529333D01*
X152360380Y-107862666D02*
X152360380Y-108481714D01*
X152741333Y-108148380D01*
X152741333Y-108291238D01*
X152788952Y-108386476D01*
X152836571Y-108434095D01*
X152931809Y-108481714D01*
X153169904Y-108481714D01*
X153265142Y-108434095D01*
X153312761Y-108386476D01*
X153360380Y-108291238D01*
X153360380Y-108005523D01*
X153312761Y-107910285D01*
X153265142Y-107862666D01*
%TO.C,J1*%
X164333333Y-111952380D02*
X164333333Y-112666666D01*
X164380952Y-112809523D01*
X164476190Y-112904761D01*
X164619047Y-112952380D01*
X164714285Y-112952380D01*
X163333333Y-112952380D02*
X163904761Y-112952380D01*
X163619047Y-112952380D02*
X163619047Y-111952380D01*
X163714285Y-112095238D01*
X163809523Y-112190476D01*
X163904761Y-112238095D01*
%TO.C,R11*%
X143017857Y-100052380D02*
X143351190Y-99576190D01*
X143589285Y-100052380D02*
X143589285Y-99052380D01*
X143208333Y-99052380D01*
X143113095Y-99100000D01*
X143065476Y-99147619D01*
X143017857Y-99242857D01*
X143017857Y-99385714D01*
X143065476Y-99480952D01*
X143113095Y-99528571D01*
X143208333Y-99576190D01*
X143589285Y-99576190D01*
X142065476Y-100052380D02*
X142636904Y-100052380D01*
X142351190Y-100052380D02*
X142351190Y-99052380D01*
X142446428Y-99195238D01*
X142541666Y-99290476D01*
X142636904Y-99338095D01*
X141113095Y-100052380D02*
X141684523Y-100052380D01*
X141398809Y-100052380D02*
X141398809Y-99052380D01*
X141494047Y-99195238D01*
X141589285Y-99290476D01*
X141684523Y-99338095D01*
%TO.C,R6*%
X141366666Y-96852380D02*
X141700000Y-96376190D01*
X141938095Y-96852380D02*
X141938095Y-95852380D01*
X141557142Y-95852380D01*
X141461904Y-95900000D01*
X141414285Y-95947619D01*
X141366666Y-96042857D01*
X141366666Y-96185714D01*
X141414285Y-96280952D01*
X141461904Y-96328571D01*
X141557142Y-96376190D01*
X141938095Y-96376190D01*
X140509523Y-95852380D02*
X140700000Y-95852380D01*
X140795238Y-95900000D01*
X140842857Y-95947619D01*
X140938095Y-96090476D01*
X140985714Y-96280952D01*
X140985714Y-96661904D01*
X140938095Y-96757142D01*
X140890476Y-96804761D01*
X140795238Y-96852380D01*
X140604761Y-96852380D01*
X140509523Y-96804761D01*
X140461904Y-96757142D01*
X140414285Y-96661904D01*
X140414285Y-96423809D01*
X140461904Y-96328571D01*
X140509523Y-96280952D01*
X140604761Y-96233333D01*
X140795238Y-96233333D01*
X140890476Y-96280952D01*
X140938095Y-96328571D01*
X140985714Y-96423809D01*
%TO.C,R9*%
X155614666Y-106116380D02*
X155948000Y-105640190D01*
X156186095Y-106116380D02*
X156186095Y-105116380D01*
X155805142Y-105116380D01*
X155709904Y-105164000D01*
X155662285Y-105211619D01*
X155614666Y-105306857D01*
X155614666Y-105449714D01*
X155662285Y-105544952D01*
X155709904Y-105592571D01*
X155805142Y-105640190D01*
X156186095Y-105640190D01*
X155138476Y-106116380D02*
X154948000Y-106116380D01*
X154852761Y-106068761D01*
X154805142Y-106021142D01*
X154709904Y-105878285D01*
X154662285Y-105687809D01*
X154662285Y-105306857D01*
X154709904Y-105211619D01*
X154757523Y-105164000D01*
X154852761Y-105116380D01*
X155043238Y-105116380D01*
X155138476Y-105164000D01*
X155186095Y-105211619D01*
X155233714Y-105306857D01*
X155233714Y-105544952D01*
X155186095Y-105640190D01*
X155138476Y-105687809D01*
X155043238Y-105735428D01*
X154852761Y-105735428D01*
X154757523Y-105687809D01*
X154709904Y-105640190D01*
X154662285Y-105544952D01*
%TO.C,C1*%
X154257142Y-94083333D02*
X154304761Y-94035714D01*
X154352380Y-93892857D01*
X154352380Y-93797619D01*
X154304761Y-93654761D01*
X154209523Y-93559523D01*
X154114285Y-93511904D01*
X153923809Y-93464285D01*
X153780952Y-93464285D01*
X153590476Y-93511904D01*
X153495238Y-93559523D01*
X153400000Y-93654761D01*
X153352380Y-93797619D01*
X153352380Y-93892857D01*
X153400000Y-94035714D01*
X153447619Y-94083333D01*
X154352380Y-95035714D02*
X154352380Y-94464285D01*
X154352380Y-94750000D02*
X153352380Y-94750000D01*
X153495238Y-94654761D01*
X153590476Y-94559523D01*
X153638095Y-94464285D01*
%TO.C,R13*%
X158202380Y-90857142D02*
X157726190Y-90523809D01*
X158202380Y-90285714D02*
X157202380Y-90285714D01*
X157202380Y-90666666D01*
X157250000Y-90761904D01*
X157297619Y-90809523D01*
X157392857Y-90857142D01*
X157535714Y-90857142D01*
X157630952Y-90809523D01*
X157678571Y-90761904D01*
X157726190Y-90666666D01*
X157726190Y-90285714D01*
X158202380Y-91809523D02*
X158202380Y-91238095D01*
X158202380Y-91523809D02*
X157202380Y-91523809D01*
X157345238Y-91428571D01*
X157440476Y-91333333D01*
X157488095Y-91238095D01*
X157202380Y-92142857D02*
X157202380Y-92761904D01*
X157583333Y-92428571D01*
X157583333Y-92571428D01*
X157630952Y-92666666D01*
X157678571Y-92714285D01*
X157773809Y-92761904D01*
X158011904Y-92761904D01*
X158107142Y-92714285D01*
X158154761Y-92666666D01*
X158202380Y-92571428D01*
X158202380Y-92285714D01*
X158154761Y-92190476D01*
X158107142Y-92142857D01*
%TO.C,C5*%
X142066666Y-101457142D02*
X142114285Y-101504761D01*
X142257142Y-101552380D01*
X142352380Y-101552380D01*
X142495238Y-101504761D01*
X142590476Y-101409523D01*
X142638095Y-101314285D01*
X142685714Y-101123809D01*
X142685714Y-100980952D01*
X142638095Y-100790476D01*
X142590476Y-100695238D01*
X142495238Y-100600000D01*
X142352380Y-100552380D01*
X142257142Y-100552380D01*
X142114285Y-100600000D01*
X142066666Y-100647619D01*
X141161904Y-100552380D02*
X141638095Y-100552380D01*
X141685714Y-101028571D01*
X141638095Y-100980952D01*
X141542857Y-100933333D01*
X141304761Y-100933333D01*
X141209523Y-100980952D01*
X141161904Y-101028571D01*
X141114285Y-101123809D01*
X141114285Y-101361904D01*
X141161904Y-101457142D01*
X141209523Y-101504761D01*
X141304761Y-101552380D01*
X141542857Y-101552380D01*
X141638095Y-101504761D01*
X141685714Y-101457142D01*
%TO.C,R8*%
X138591666Y-116352380D02*
X138925000Y-115876190D01*
X139163095Y-116352380D02*
X139163095Y-115352380D01*
X138782142Y-115352380D01*
X138686904Y-115400000D01*
X138639285Y-115447619D01*
X138591666Y-115542857D01*
X138591666Y-115685714D01*
X138639285Y-115780952D01*
X138686904Y-115828571D01*
X138782142Y-115876190D01*
X139163095Y-115876190D01*
X138020238Y-115780952D02*
X138115476Y-115733333D01*
X138163095Y-115685714D01*
X138210714Y-115590476D01*
X138210714Y-115542857D01*
X138163095Y-115447619D01*
X138115476Y-115400000D01*
X138020238Y-115352380D01*
X137829761Y-115352380D01*
X137734523Y-115400000D01*
X137686904Y-115447619D01*
X137639285Y-115542857D01*
X137639285Y-115590476D01*
X137686904Y-115685714D01*
X137734523Y-115733333D01*
X137829761Y-115780952D01*
X138020238Y-115780952D01*
X138115476Y-115828571D01*
X138163095Y-115876190D01*
X138210714Y-115971428D01*
X138210714Y-116161904D01*
X138163095Y-116257142D01*
X138115476Y-116304761D01*
X138020238Y-116352380D01*
X137829761Y-116352380D01*
X137734523Y-116304761D01*
X137686904Y-116257142D01*
X137639285Y-116161904D01*
X137639285Y-115971428D01*
X137686904Y-115876190D01*
X137734523Y-115828571D01*
X137829761Y-115780952D01*
%TO.C,C2*%
X156107142Y-93983333D02*
X156154761Y-93935714D01*
X156202380Y-93792857D01*
X156202380Y-93697619D01*
X156154761Y-93554761D01*
X156059523Y-93459523D01*
X155964285Y-93411904D01*
X155773809Y-93364285D01*
X155630952Y-93364285D01*
X155440476Y-93411904D01*
X155345238Y-93459523D01*
X155250000Y-93554761D01*
X155202380Y-93697619D01*
X155202380Y-93792857D01*
X155250000Y-93935714D01*
X155297619Y-93983333D01*
X155297619Y-94364285D02*
X155250000Y-94411904D01*
X155202380Y-94507142D01*
X155202380Y-94745238D01*
X155250000Y-94840476D01*
X155297619Y-94888095D01*
X155392857Y-94935714D01*
X155488095Y-94935714D01*
X155630952Y-94888095D01*
X156202380Y-94316666D01*
X156202380Y-94935714D01*
D11*
%TO.C,R12*%
X145187742Y-98522500D02*
X145662258Y-98522500D01*
X145187742Y-97477500D02*
X145662258Y-97477500D01*
%TO.C,R14*%
X159772500Y-94737258D02*
X159772500Y-94262742D01*
X158727500Y-94737258D02*
X158727500Y-94262742D01*
%TO.C,C4*%
X160610000Y-101134420D02*
X160610000Y-101415580D01*
X159590000Y-101134420D02*
X159590000Y-101415580D01*
%TO.C,R10*%
X160622500Y-98062742D02*
X160622500Y-98537258D01*
X159577500Y-98062742D02*
X159577500Y-98537258D01*
%TO.C,U1*%
X152110000Y-102110000D02*
X152110000Y-101635000D01*
X148365000Y-102110000D02*
X147890000Y-102110000D01*
X151635000Y-102110000D02*
X152110000Y-102110000D01*
X147890000Y-97890000D02*
X147890000Y-98365000D01*
X151635000Y-97890000D02*
X152110000Y-97890000D01*
X148365000Y-97890000D02*
X147890000Y-97890000D01*
X147890000Y-102110000D02*
X147890000Y-101635000D01*
%TO.C,C6*%
X145540580Y-93890000D02*
X145259420Y-93890000D01*
X145540580Y-94910000D02*
X145259420Y-94910000D01*
%TO.C,R7*%
X135762742Y-118022500D02*
X136237258Y-118022500D01*
X135762742Y-116977500D02*
X136237258Y-116977500D01*
%TO.C,J4*%
X131670000Y-106725000D02*
X132692470Y-106725000D01*
X133760000Y-111865000D02*
X134330000Y-111865000D01*
X134330000Y-111865000D02*
X134330000Y-106725000D01*
X133000000Y-113260000D02*
X134330000Y-113260000D01*
X134330000Y-113260000D02*
X134330000Y-112500000D01*
X133307530Y-106725000D02*
X134330000Y-106725000D01*
X131670000Y-111865000D02*
X132240000Y-111865000D01*
X131670000Y-111865000D02*
X131670000Y-106725000D01*
%TO.C,C3*%
X152398000Y-105015420D02*
X152398000Y-105296580D01*
X153418000Y-105015420D02*
X153418000Y-105296580D01*
%TO.C,J1*%
X167260000Y-111865000D02*
X167830000Y-111865000D01*
X165170000Y-106725000D02*
X166192470Y-106725000D01*
X167830000Y-111865000D02*
X167830000Y-106725000D01*
X166807530Y-106725000D02*
X167830000Y-106725000D01*
X167830000Y-113260000D02*
X167830000Y-112500000D01*
X165170000Y-111865000D02*
X165170000Y-106725000D01*
X165170000Y-111865000D02*
X165740000Y-111865000D01*
X166500000Y-113260000D02*
X167830000Y-113260000D01*
%TO.C,R11*%
X145137742Y-99077500D02*
X145612258Y-99077500D01*
X145137742Y-100122500D02*
X145612258Y-100122500D01*
%TO.C,R6*%
X145187742Y-96922500D02*
X145662258Y-96922500D01*
X145187742Y-95877500D02*
X145662258Y-95877500D01*
%TO.C,R9*%
X155685258Y-104662500D02*
X155210742Y-104662500D01*
X155685258Y-103617500D02*
X155210742Y-103617500D01*
%TO.C,C1*%
X153390000Y-97040580D02*
X153390000Y-96759420D01*
X154410000Y-97040580D02*
X154410000Y-96759420D01*
%TO.C,R13*%
X157227500Y-94262742D02*
X157227500Y-94737258D01*
X158272500Y-94262742D02*
X158272500Y-94737258D01*
%TO.C,C5*%
X145540580Y-101610000D02*
X145259420Y-101610000D01*
X145540580Y-100590000D02*
X145259420Y-100590000D01*
%TO.C,R8*%
X135762742Y-115377500D02*
X136237258Y-115377500D01*
X135762742Y-116422500D02*
X136237258Y-116422500D01*
%TO.C,C2*%
X154965000Y-96961252D02*
X154965000Y-96438748D01*
X156435000Y-96961252D02*
X156435000Y-96438748D01*
%TD*%
M02*
