%TF.GenerationSoftware,KiCad,Pcbnew,6.0.9-8da3e8f707~117~ubuntu22.04.1*%
%TF.CreationDate,2022-12-08T14:13:31-05:00*%
%TF.ProjectId,keyboard_matrix,6b657962-6f61-4726-945f-6d6174726978,rev?*%
%TF.SameCoordinates,Original*%
%TF.FileFunction,Soldermask,Bot*%
%TF.FilePolarity,Negative*%
%FSLAX46Y46*%
G04 Gerber Fmt 4.6, Leading zero omitted, Abs format (unit mm)*
G04 Created by KiCad (PCBNEW 6.0.9-8da3e8f707~117~ubuntu22.04.1) date 2022-12-08 14:13:31*
%MOMM*%
%LPD*%
G01*
G04 APERTURE LIST*
G04 Aperture macros list*
%AMRoundRect*
0 Rectangle with rounded corners*
0 $1 Rounding radius*
0 $2 $3 $4 $5 $6 $7 $8 $9 X,Y pos of 4 corners*
0 Add a 4 corners polygon primitive as box body*
4,1,4,$2,$3,$4,$5,$6,$7,$8,$9,$2,$3,0*
0 Add four circle primitives for the rounded corners*
1,1,$1+$1,$2,$3*
1,1,$1+$1,$4,$5*
1,1,$1+$1,$6,$7*
1,1,$1+$1,$8,$9*
0 Add four rect primitives between the rounded corners*
20,1,$1+$1,$2,$3,$4,$5,0*
20,1,$1+$1,$4,$5,$6,$7,0*
20,1,$1+$1,$6,$7,$8,$9,0*
20,1,$1+$1,$8,$9,$2,$3,0*%
G04 Aperture macros list end*
%ADD10R,1.700000X1.700000*%
%ADD11O,1.700000X1.700000*%
%ADD12C,3.200000*%
%ADD13C,3.900000*%
%ADD14R,0.900000X1.200000*%
%ADD15C,1.900000*%
%ADD16C,2.000000*%
%ADD17R,1.600000X0.820000*%
%ADD18R,1.200000X0.900000*%
%ADD19R,0.820000X1.600000*%
%ADD20C,0.700000*%
%ADD21O,0.800000X1.500000*%
%ADD22RoundRect,0.250000X0.650000X-0.412500X0.650000X0.412500X-0.650000X0.412500X-0.650000X-0.412500X0*%
%ADD23RoundRect,0.250000X-0.650000X0.412500X-0.650000X-0.412500X0.650000X-0.412500X0.650000X0.412500X0*%
%ADD24RoundRect,0.250000X-0.412500X-0.650000X0.412500X-0.650000X0.412500X0.650000X-0.412500X0.650000X0*%
%ADD25RoundRect,0.250000X0.450000X-0.350000X0.450000X0.350000X-0.450000X0.350000X-0.450000X-0.350000X0*%
%ADD26RoundRect,0.250000X0.412500X0.650000X-0.412500X0.650000X-0.412500X-0.650000X0.412500X-0.650000X0*%
%ADD27RoundRect,0.200000X0.200000X0.275000X-0.200000X0.275000X-0.200000X-0.275000X0.200000X-0.275000X0*%
%ADD28RoundRect,0.250000X-0.350000X-0.450000X0.350000X-0.450000X0.350000X0.450000X-0.350000X0.450000X0*%
%ADD29RoundRect,0.150000X0.587500X0.150000X-0.587500X0.150000X-0.587500X-0.150000X0.587500X-0.150000X0*%
%ADD30RoundRect,0.062500X0.350000X0.062500X-0.350000X0.062500X-0.350000X-0.062500X0.350000X-0.062500X0*%
%ADD31RoundRect,0.062500X0.062500X0.350000X-0.062500X0.350000X-0.062500X-0.350000X0.062500X-0.350000X0*%
%ADD32R,2.600000X2.600000*%
%ADD33R,1.000000X1.500000*%
%ADD34RoundRect,0.250000X-0.450000X0.350000X-0.450000X-0.350000X0.450000X-0.350000X0.450000X0.350000X0*%
%ADD35RoundRect,0.200000X-0.200000X-0.275000X0.200000X-0.275000X0.200000X0.275000X-0.200000X0.275000X0*%
G04 APERTURE END LIST*
D10*
%TO.C,J10*%
X85460000Y-64375000D03*
D11*
X88000000Y-64375000D03*
X90540000Y-64375000D03*
X93080000Y-64375000D03*
X95620000Y-64375000D03*
X98160000Y-64375000D03*
%TD*%
D12*
%TO.C,H104*%
X75000000Y-155000000D03*
%TD*%
%TO.C,H103*%
X75000000Y-65000000D03*
%TD*%
D13*
%TO.C,SW202*%
X99500000Y-97000000D03*
D14*
X97500000Y-93000000D03*
D15*
X105000000Y-97000000D03*
X94000000Y-97000000D03*
D16*
X99500000Y-91500000D03*
D17*
X102100000Y-102450000D03*
X102100000Y-100950000D03*
X96900000Y-100950000D03*
X96900000Y-102450000D03*
D14*
X94200000Y-93000000D03*
D16*
X104500000Y-93000000D03*
%TD*%
%TO.C,SW208*%
X207500000Y-91500000D03*
D15*
X202000000Y-97000000D03*
X213000000Y-97000000D03*
D14*
X205500000Y-93000000D03*
D13*
X207500000Y-97000000D03*
D17*
X210100000Y-102450000D03*
X210100000Y-100950000D03*
X204900000Y-100950000D03*
X204900000Y-102450000D03*
D14*
X202200000Y-93000000D03*
D16*
X212500000Y-93000000D03*
%TD*%
D12*
%TO.C,H105*%
X126000000Y-114000000D03*
%TD*%
D15*
%TO.C,SW201*%
X87000000Y-97000000D03*
D14*
X79500000Y-93000000D03*
D15*
X76000000Y-97000000D03*
D16*
X81500000Y-91500000D03*
D13*
X81500000Y-97000000D03*
D17*
X84100000Y-102450000D03*
X84100000Y-100950000D03*
X78900000Y-100950000D03*
X78900000Y-102450000D03*
D14*
X76200000Y-93000000D03*
D16*
X86500000Y-93000000D03*
%TD*%
D18*
%TO.C,SW301*%
X85000000Y-135500000D03*
D16*
X86500000Y-137500000D03*
D15*
X81000000Y-132000000D03*
X81000000Y-143000000D03*
D13*
X81000000Y-137500000D03*
D19*
X75550000Y-140100000D03*
X77050000Y-140100000D03*
X77050000Y-134900000D03*
X75550000Y-134900000D03*
D18*
X85000000Y-132200000D03*
D16*
X85000000Y-142500000D03*
%TD*%
D14*
%TO.C,SW307*%
X142000000Y-111000000D03*
D13*
X144000000Y-115000000D03*
D15*
X138500000Y-115000000D03*
X149500000Y-115000000D03*
D16*
X144000000Y-109500000D03*
D17*
X141400000Y-118950000D03*
X141400000Y-120450000D03*
X146600000Y-120450000D03*
X146600000Y-118950000D03*
D14*
X138700000Y-111000000D03*
D16*
X149000000Y-111000000D03*
%TD*%
D15*
%TO.C,SW308*%
X153000000Y-132000000D03*
X153000000Y-143000000D03*
D13*
X153000000Y-137500000D03*
D16*
X147500000Y-137500000D03*
D18*
X149000000Y-139500000D03*
D19*
X156950000Y-140100000D03*
X158450000Y-140100000D03*
X158450000Y-134900000D03*
X156950000Y-134900000D03*
D18*
X149000000Y-142800000D03*
D16*
X149000000Y-132500000D03*
%TD*%
D15*
%TO.C,SW303*%
X99000000Y-143000000D03*
D16*
X104500000Y-137500000D03*
D18*
X103000000Y-135500000D03*
D15*
X99000000Y-132000000D03*
D13*
X99000000Y-137500000D03*
D19*
X93550000Y-140100000D03*
X95050000Y-140100000D03*
X95050000Y-134900000D03*
X93550000Y-134900000D03*
D18*
X103000000Y-132200000D03*
D16*
X103000000Y-142500000D03*
%TD*%
D15*
%TO.C,SW312*%
X189000000Y-143000000D03*
D16*
X183500000Y-137500000D03*
D13*
X189000000Y-137500000D03*
D18*
X185000000Y-139500000D03*
D15*
X189000000Y-132000000D03*
D19*
X192950000Y-140100000D03*
X194450000Y-140100000D03*
X194450000Y-134900000D03*
X192950000Y-134900000D03*
D18*
X185000000Y-142800000D03*
D16*
X185000000Y-132500000D03*
%TD*%
D14*
%TO.C,SW304*%
X106000000Y-111000000D03*
D15*
X102500000Y-115000000D03*
X113500000Y-115000000D03*
D13*
X108000000Y-115000000D03*
D16*
X108000000Y-109500000D03*
D17*
X105400000Y-118950000D03*
X105400000Y-120450000D03*
X110600000Y-120450000D03*
X110600000Y-118950000D03*
D14*
X102700000Y-111000000D03*
D16*
X113000000Y-111000000D03*
%TD*%
D13*
%TO.C,SW309*%
X162000000Y-115000000D03*
D15*
X156500000Y-115000000D03*
D16*
X162000000Y-109500000D03*
D15*
X167500000Y-115000000D03*
D14*
X160000000Y-111000000D03*
D17*
X159400000Y-118950000D03*
X159400000Y-120450000D03*
X164600000Y-120450000D03*
X164600000Y-118950000D03*
D14*
X156700000Y-111000000D03*
D16*
X167000000Y-111000000D03*
%TD*%
D15*
%TO.C,SW302*%
X95500000Y-115000000D03*
D16*
X90000000Y-109500000D03*
D15*
X84500000Y-115000000D03*
D13*
X90000000Y-115000000D03*
D14*
X88000000Y-111000000D03*
D17*
X87400000Y-118950000D03*
X87400000Y-120450000D03*
X92600000Y-120450000D03*
X92600000Y-118950000D03*
D14*
X84700000Y-111000000D03*
D16*
X95000000Y-111000000D03*
%TD*%
D15*
%TO.C,SW203*%
X112000000Y-97000000D03*
X123000000Y-97000000D03*
D13*
X117500000Y-97000000D03*
D16*
X117500000Y-91500000D03*
D14*
X115500000Y-93000000D03*
D17*
X120100000Y-102450000D03*
X120100000Y-100950000D03*
X114900000Y-100950000D03*
X114900000Y-102450000D03*
D14*
X112200000Y-93000000D03*
D16*
X122500000Y-93000000D03*
%TD*%
D12*
%TO.C,H102*%
X215000000Y-65000000D03*
%TD*%
D20*
%TO.C,J11*%
X139230000Y-62425500D03*
X141770000Y-62425500D03*
X143040000Y-62425500D03*
X140500000Y-62425500D03*
X137960000Y-62425500D03*
D21*
X138595000Y-61270500D03*
X139865000Y-61270500D03*
X141135000Y-61270500D03*
X142405000Y-61270500D03*
%TD*%
D18*
%TO.C,SW310*%
X167000000Y-139500000D03*
D13*
X171000000Y-137500000D03*
D15*
X171000000Y-132000000D03*
X171000000Y-143000000D03*
D16*
X165500000Y-137500000D03*
D19*
X174950000Y-140100000D03*
X176450000Y-140100000D03*
X176450000Y-134900000D03*
X174950000Y-134900000D03*
D18*
X167000000Y-142800000D03*
D16*
X167000000Y-132500000D03*
%TD*%
D15*
%TO.C,SW306*%
X135000000Y-132000000D03*
D16*
X140500000Y-137500000D03*
D18*
X139000000Y-135500000D03*
D13*
X135000000Y-137500000D03*
D15*
X135000000Y-143000000D03*
D19*
X129550000Y-140100000D03*
X131050000Y-140100000D03*
X131050000Y-134900000D03*
X129550000Y-134900000D03*
D18*
X139000000Y-132200000D03*
D16*
X139000000Y-142500000D03*
%TD*%
D18*
%TO.C,SW313*%
X203000000Y-139385000D03*
D13*
X207000000Y-137385000D03*
D16*
X201500000Y-137385000D03*
D15*
X207000000Y-142885000D03*
X207000000Y-131885000D03*
D19*
X210950000Y-139985000D03*
X212450000Y-139985000D03*
X212450000Y-134785000D03*
X210950000Y-134785000D03*
D18*
X203000000Y-142685000D03*
D16*
X203000000Y-132385000D03*
%TD*%
D12*
%TO.C,H101*%
X215000000Y-155000000D03*
%TD*%
D15*
%TO.C,SW205*%
X159000000Y-97000000D03*
D16*
X153500000Y-91500000D03*
D13*
X153500000Y-97000000D03*
D14*
X151500000Y-93000000D03*
D15*
X148000000Y-97000000D03*
D17*
X156100000Y-102450000D03*
X156100000Y-100950000D03*
X150900000Y-100950000D03*
X150900000Y-102450000D03*
D14*
X148200000Y-93000000D03*
D16*
X158500000Y-93000000D03*
%TD*%
D14*
%TO.C,SW311*%
X178000000Y-111000000D03*
D15*
X174500000Y-115000000D03*
D16*
X180000000Y-109500000D03*
D15*
X185500000Y-115000000D03*
D13*
X180000000Y-115000000D03*
D17*
X177400000Y-118950000D03*
X177400000Y-120450000D03*
X182600000Y-120450000D03*
X182600000Y-118950000D03*
D14*
X174700000Y-111000000D03*
D16*
X185000000Y-111000000D03*
%TD*%
D13*
%TO.C,SW204*%
X135500000Y-97000000D03*
D16*
X135500000Y-91500000D03*
D14*
X133500000Y-93000000D03*
D15*
X141000000Y-97000000D03*
X130000000Y-97000000D03*
D17*
X138100000Y-102450000D03*
X138100000Y-100950000D03*
X132900000Y-100950000D03*
X132900000Y-102450000D03*
D14*
X130200000Y-93000000D03*
D16*
X140500000Y-93000000D03*
%TD*%
D15*
%TO.C,SW206*%
X177000000Y-97000000D03*
D13*
X171500000Y-97000000D03*
D16*
X171500000Y-91500000D03*
D15*
X166000000Y-97000000D03*
D14*
X169500000Y-93000000D03*
D17*
X174100000Y-102450000D03*
X174100000Y-100950000D03*
X168900000Y-100950000D03*
X168900000Y-102450000D03*
D14*
X166200000Y-93000000D03*
D16*
X176500000Y-93000000D03*
%TD*%
D18*
%TO.C,SW305*%
X121000000Y-135500000D03*
D16*
X122500000Y-137500000D03*
D15*
X117000000Y-132000000D03*
X117000000Y-143000000D03*
D13*
X117000000Y-137500000D03*
D19*
X111550000Y-140100000D03*
X113050000Y-140100000D03*
X113050000Y-134900000D03*
X111550000Y-134900000D03*
D18*
X121000000Y-132200000D03*
D16*
X121000000Y-142500000D03*
%TD*%
%TO.C,SW207*%
X189500000Y-91500000D03*
D13*
X189500000Y-97000000D03*
D15*
X184000000Y-97000000D03*
D14*
X187500000Y-93000000D03*
D15*
X195000000Y-97000000D03*
D17*
X192100000Y-102450000D03*
X192100000Y-100950000D03*
X186900000Y-100950000D03*
X186900000Y-102450000D03*
D14*
X184200000Y-93000000D03*
D16*
X194500000Y-93000000D03*
%TD*%
D22*
%TO.C,C202*%
X105000000Y-103562500D03*
X105000000Y-100437500D03*
%TD*%
D23*
%TO.C,C311*%
X174500000Y-118437500D03*
X174500000Y-121562500D03*
%TD*%
%TO.C,C309*%
X156500000Y-118437500D03*
X156500000Y-121562500D03*
%TD*%
D24*
%TO.C,C306*%
X128437500Y-143250000D03*
X131562500Y-143250000D03*
%TD*%
D22*
%TO.C,C201*%
X87000000Y-103562500D03*
X87000000Y-100437500D03*
%TD*%
D25*
%TO.C,R101*%
X104250000Y-81000000D03*
X104250000Y-79000000D03*
%TD*%
D26*
%TO.C,C4*%
X91712500Y-77000000D03*
X88587500Y-77000000D03*
%TD*%
D24*
%TO.C,C310*%
X174437500Y-143000000D03*
X177562500Y-143000000D03*
%TD*%
D27*
%TO.C,R2*%
X141325000Y-74500000D03*
X139675000Y-74500000D03*
%TD*%
D26*
%TO.C,C2*%
X149562500Y-75000000D03*
X146437500Y-75000000D03*
%TD*%
D23*
%TO.C,C307*%
X138500000Y-118437500D03*
X138500000Y-121562500D03*
%TD*%
D28*
%TO.C,FB1*%
X140000000Y-67500000D03*
X142000000Y-67500000D03*
%TD*%
D22*
%TO.C,C203*%
X123000000Y-103562500D03*
X123000000Y-100437500D03*
%TD*%
%TO.C,C204*%
X141000000Y-103562500D03*
X141000000Y-100437500D03*
%TD*%
D29*
%TO.C,Q101*%
X101437500Y-79050000D03*
X101437500Y-80950000D03*
X99562500Y-80000000D03*
%TD*%
D24*
%TO.C,C305*%
X110437500Y-143000000D03*
X113562500Y-143000000D03*
%TD*%
D22*
%TO.C,C205*%
X159000000Y-103562500D03*
X159000000Y-100437500D03*
%TD*%
D26*
%TO.C,C1*%
X149562500Y-72500000D03*
X146437500Y-72500000D03*
%TD*%
D24*
%TO.C,C308*%
X156437500Y-143000000D03*
X159562500Y-143000000D03*
%TD*%
D23*
%TO.C,C304*%
X102500000Y-118437500D03*
X102500000Y-121562500D03*
%TD*%
D30*
%TO.C,U1*%
X146937500Y-77750000D03*
X146937500Y-78250000D03*
X146937500Y-78750000D03*
X146937500Y-79250000D03*
X146937500Y-79750000D03*
X146937500Y-80250000D03*
D31*
X146250000Y-80937500D03*
X145750000Y-80937500D03*
X145250000Y-80937500D03*
X144750000Y-80937500D03*
X144250000Y-80937500D03*
X143750000Y-80937500D03*
D30*
X143062500Y-80250000D03*
X143062500Y-79750000D03*
X143062500Y-79250000D03*
X143062500Y-78750000D03*
X143062500Y-78250000D03*
X143062500Y-77750000D03*
D31*
X143750000Y-77062500D03*
X144250000Y-77062500D03*
X144750000Y-77062500D03*
X145250000Y-77062500D03*
X145750000Y-77062500D03*
X146250000Y-77062500D03*
D32*
X145000000Y-79000000D03*
%TD*%
D27*
%TO.C,R3*%
X152825000Y-77000000D03*
X151175000Y-77000000D03*
%TD*%
D33*
%TO.C,JP101*%
X101150000Y-84250000D03*
X99850000Y-84250000D03*
%TD*%
D23*
%TO.C,C302*%
X84500000Y-118437500D03*
X84500000Y-121562500D03*
%TD*%
D27*
%TO.C,R1*%
X141345000Y-73000000D03*
X139695000Y-73000000D03*
%TD*%
D24*
%TO.C,C303*%
X92437500Y-143000000D03*
X95562500Y-143000000D03*
%TD*%
D26*
%TO.C,C3*%
X91712500Y-74500000D03*
X88587500Y-74500000D03*
%TD*%
D22*
%TO.C,C206*%
X177000000Y-103562500D03*
X177000000Y-100437500D03*
%TD*%
D34*
%TO.C,R102*%
X96750000Y-79000000D03*
X96750000Y-81000000D03*
%TD*%
D35*
%TO.C,R4*%
X151175000Y-78500000D03*
X152825000Y-78500000D03*
%TD*%
D24*
%TO.C,C312*%
X192437500Y-143000000D03*
X195562500Y-143000000D03*
%TD*%
D22*
%TO.C,C208*%
X213000000Y-103562500D03*
X213000000Y-100437500D03*
%TD*%
D24*
%TO.C,C301*%
X74437500Y-143000000D03*
X77562500Y-143000000D03*
%TD*%
D34*
%TO.C,FB2*%
X102650000Y-66500000D03*
X102650000Y-68500000D03*
%TD*%
D22*
%TO.C,C207*%
X195000000Y-103562500D03*
X195000000Y-100437500D03*
%TD*%
D24*
%TO.C,C313*%
X210437500Y-143000000D03*
X213562500Y-143000000D03*
%TD*%
M02*
