<?xml version="1.0" encoding="UTF-8" standalone="no"?>
<svg
   xmlns:dc="http://purl.org/dc/elements/1.1/"
   xmlns:cc="http://creativecommons.org/ns#"
   xmlns:rdf="http://www.w3.org/1999/02/22-rdf-syntax-ns#"
   xmlns:svg="http://www.w3.org/2000/svg"
   xmlns="http://www.w3.org/2000/svg"
   xmlns:sodipodi="http://sodipodi.sourceforge.net/DTD/sodipodi-0.dtd"
   xmlns:inkscape="http://www.inkscape.org/namespaces/inkscape"
   version="1.1"
   width="11.942338cm"
   height="8.942337cm"
   viewBox="0 0 1.1942338e+08 89423374"
   id="svg1347"
   sodipodi:docname="stencil.svg"
   inkscape:version="0.92.5 (2060ec1f9f, 2020-04-08)">
  <metadata
     id="metadata1353">
    <rdf:RDF>
      <cc:Work
         rdf:about="">
        <dc:format>image/svg+xml</dc:format>
        <dc:type
           rdf:resource="http://purl.org/dc/dcmitype/StillImage" />
        <dc:title>SVG Picture created as kicad_circular_tracks_test-B_Paste.svg date 2021/04/03 09:44:48 </dc:title>
      </cc:Work>
    </rdf:RDF>
  </metadata>
  <defs
     id="defs1351" />
  <sodipodi:namedview
     pagecolor="#ffffff"
     bordercolor="#666666"
     borderopacity="1"
     objecttolerance="10"
     gridtolerance="10"
     guidetolerance="10"
     inkscape:pageopacity="0"
     inkscape:pageshadow="2"
     inkscape:window-width="2483"
     inkscape:window-height="1157"
     id="namedview1349"
     showgrid="false"
     inkscape:zoom="1.6819586"
     inkscape:cx="-254.2866"
     inkscape:cy="265.17803"
     inkscape:window-x="0"
     inkscape:window-y="27"
     inkscape:window-maximized="0"
     inkscape:current-layer="svg1347"
     fit-margin-top="0"
     fit-margin-left="0"
     fit-margin-right="0"
     fit-margin-bottom="0"
     scale-x="100000" />
  <title
     id="title1183">SVG Picture created as kicad_circular_tracks_test-B_Paste.svg date 2021/04/03 09:44:48 </title>
  <desc
     id="desc1185">Picture generated by PCBNEW </desc>
  <g
     style="fill:#000000;fill-opacity:1;stroke:#000000;stroke-linecap:round;stroke-linejoin:round;stroke-opacity:1"
     id="g1187"
     transform="translate(-75247216,-27013028)" />
  <g
     id="g2582"
     transform="translate(-11877210,45071303)">
    <path
       inkscape:connector-curvature="0"
       id="path1259"
       d="m 24413800,15220256 -19030,-95671 -54190,-81106 -81110,-54193 -95670,-19030 h -630000 l -95670,19030 -81110,54193 -54190,81106 -19030,95671 v 630000 l 19030,95671 54190,81106 81110,54193 95670,19030 h 630000 l 95670,-19030 81110,-54193 54190,-81106 19030,-95671 z"
       style="fill:#0000ff;fill-opacity:1;fill-rule:evenodd;stroke:#000000;stroke-width:1;stroke-linecap:round;stroke-linejoin:round;stroke-opacity:1" />
    <path
       inkscape:connector-curvature="0"
       id="path1265"
       d="m 26198800,14222756 -4760,-23918 -13550,-20276 -20270,-13548 -23920,-4758 h -700000 l -23920,4758 -20270,13548 -13550,20276 -4760,23918 v 125000 l 4760,23918 13550,20276 20270,13548 23920,4758 h 700000 l 23920,-4758 20270,-13548 13550,-20276 4760,-23918 z"
       style="fill:#0000ff;fill-opacity:1;fill-rule:evenodd;stroke:#000000;stroke-width:1;stroke-linecap:round;stroke-linejoin:round;stroke-opacity:1" />
    <path
       inkscape:connector-curvature="0"
       id="path1267"
       d="m 26198800,14722756 -4760,-23918 -13550,-20276 -20270,-13548 -23920,-4758 h -700000 l -23920,4758 -20270,13548 -13550,20276 -4760,23918 v 125000 l 4760,23918 13550,20276 20270,13548 23920,4758 h 700000 l 23920,-4758 20270,-13548 13550,-20276 4760,-23918 z"
       style="fill:#0000ff;fill-opacity:1;fill-rule:evenodd;stroke:#000000;stroke-width:1;stroke-linecap:round;stroke-linejoin:round;stroke-opacity:1" />
    <path
       inkscape:connector-curvature="0"
       id="path1269"
       d="m 26198800,15222756 -4760,-23918 -13550,-20276 -20270,-13548 -23920,-4758 h -700000 l -23920,4758 -20270,13548 -13550,20276 -4760,23918 v 125000 l 4760,23918 13550,20276 20270,13548 23920,4758 h 700000 l 23920,-4758 20270,-13548 13550,-20276 4760,-23918 z"
       style="fill:#0000ff;fill-opacity:1;fill-rule:evenodd;stroke:#000000;stroke-width:1;stroke-linecap:round;stroke-linejoin:round;stroke-opacity:1" />
    <path
       inkscape:connector-curvature="0"
       id="path1271"
       d="m 26198800,15722756 -4760,-23920 -13550,-20270 -20270,-13550 -23920,-4760 h -700000 l -23920,4760 -20270,13550 -13550,20270 -4760,23920 v 125000 l 4760,23920 13550,20270 20270,13550 23920,4760 h 700000 l 23920,-4760 20270,-13550 13550,-20270 4760,-23920 z"
       style="fill:#0000ff;fill-opacity:1;fill-rule:evenodd;stroke:#000000;stroke-width:1;stroke-linecap:round;stroke-linejoin:round;stroke-opacity:1" />
    <path
       inkscape:connector-curvature="0"
       id="path1273"
       d="m 26198800,16222756 -4760,-23920 -13550,-20270 -20270,-13550 -23920,-4760 h -700000 l -23920,4760 -20270,13550 -13550,20270 -4760,23920 v 125000 l 4760,23920 13550,20270 20270,13550 23920,4760 h 700000 l 23920,-4760 20270,-13550 13550,-20270 4760,-23920 z"
       style="fill:#0000ff;fill-opacity:1;fill-rule:evenodd;stroke:#000000;stroke-width:1;stroke-linecap:round;stroke-linejoin:round;stroke-opacity:1" />
    <path
       inkscape:connector-curvature="0"
       id="path1275"
       d="m 26198800,16722756 -4760,-23920 -13550,-20270 -20270,-13550 -23920,-4760 h -700000 l -23920,4760 -20270,13550 -13550,20270 -4760,23920 v 125000 l 4760,23920 13550,20270 20270,13550 23920,4760 h 700000 l 23920,-4760 20270,-13550 13550,-20270 4760,-23920 z"
       style="fill:#0000ff;fill-opacity:1;fill-rule:evenodd;stroke:#000000;stroke-width:1;stroke-linecap:round;stroke-linejoin:round;stroke-opacity:1" />
    <path
       inkscape:connector-curvature="0"
       id="path1277"
       d="m 25223800,17122756 -4760,-23920 -13550,-20270 -20270,-13550 -23920,-4760 h -125000 l -23920,4760 -20270,13550 -13550,20270 -4760,23920 v 700000 l 4760,23920 13550,20270 20270,13550 23920,4760 h 125000 l 23920,-4760 20270,-13550 13550,-20270 4760,-23920 z"
       style="fill:#0000ff;fill-opacity:1;fill-rule:evenodd;stroke:#000000;stroke-width:1;stroke-linecap:round;stroke-linejoin:round;stroke-opacity:1" />
    <path
       inkscape:connector-curvature="0"
       id="path1279"
       d="m 24723800,17122756 -4760,-23920 -13550,-20270 -20270,-13550 -23920,-4760 h -125000 l -23920,4760 -20270,13550 -13550,20270 -4760,23920 v 700000 l 4760,23920 13550,20270 20270,13550 23920,4760 h 125000 l 23920,-4760 20270,-13550 13550,-20270 4760,-23920 z"
       style="fill:#0000ff;fill-opacity:1;fill-rule:evenodd;stroke:#000000;stroke-width:1;stroke-linecap:round;stroke-linejoin:round;stroke-opacity:1" />
    <path
       inkscape:connector-curvature="0"
       id="path1281"
       d="m 24223800,17122756 -4760,-23920 -13550,-20270 -20270,-13550 -23920,-4760 h -125000 l -23920,4760 -20270,13550 -13550,20270 -4760,23920 v 700000 l 4760,23920 13550,20270 20270,13550 23920,4760 h 125000 l 23920,-4760 20270,-13550 13550,-20270 4760,-23920 z"
       style="fill:#0000ff;fill-opacity:1;fill-rule:evenodd;stroke:#000000;stroke-width:1;stroke-linecap:round;stroke-linejoin:round;stroke-opacity:1" />
    <path
       inkscape:connector-curvature="0"
       id="path1283"
       d="m 23723800,17122756 -4760,-23920 -13550,-20270 -20270,-13550 -23920,-4760 h -125000 l -23920,4760 -20270,13550 -13550,20270 -4760,23920 v 700000 l 4760,23920 13550,20270 20270,13550 23920,4760 h 125000 l 23920,-4760 20270,-13550 13550,-20270 4760,-23920 z"
       style="fill:#0000ff;fill-opacity:1;fill-rule:evenodd;stroke:#000000;stroke-width:1;stroke-linecap:round;stroke-linejoin:round;stroke-opacity:1" />
    <path
       inkscape:connector-curvature="0"
       id="path1285"
       d="m 23223800,17122756 -4760,-23920 -13550,-20270 -20270,-13550 -23920,-4760 h -125000 l -23920,4760 -20270,13550 -13550,20270 -4760,23920 v 700000 l 4760,23920 13550,20270 20270,13550 23920,4760 h 125000 l 23920,-4760 20270,-13550 13550,-20270 4760,-23920 z"
       style="fill:#0000ff;fill-opacity:1;fill-rule:evenodd;stroke:#000000;stroke-width:1;stroke-linecap:round;stroke-linejoin:round;stroke-opacity:1" />
    <path
       inkscape:connector-curvature="0"
       id="path1287"
       d="m 22723800,17122756 -4760,-23920 -13550,-20270 -20270,-13550 -23920,-4760 h -125000 l -23920,4760 -20270,13550 -13550,20270 -4760,23920 v 700000 l 4760,23920 13550,20270 20270,13550 23920,4760 h 125000 l 23920,-4760 20270,-13550 13550,-20270 4760,-23920 z"
       style="fill:#0000ff;fill-opacity:1;fill-rule:evenodd;stroke:#000000;stroke-width:1;stroke-linecap:round;stroke-linejoin:round;stroke-opacity:1" />
    <path
       inkscape:connector-curvature="0"
       id="path1289"
       d="m 22323800,16722756 -4760,-23920 -13550,-20270 -20270,-13550 -23920,-4760 h -700000 l -23920,4760 -20270,13550 -13550,20270 -4760,23920 v 125000 l 4760,23920 13550,20270 20270,13550 23920,4760 h 700000 l 23920,-4760 20270,-13550 13550,-20270 4760,-23920 z"
       style="fill:#0000ff;fill-opacity:1;fill-rule:evenodd;stroke:#000000;stroke-width:1;stroke-linecap:round;stroke-linejoin:round;stroke-opacity:1" />
    <path
       inkscape:connector-curvature="0"
       id="path1291"
       d="m 22323800,16222756 -4760,-23920 -13550,-20270 -20270,-13550 -23920,-4760 h -700000 l -23920,4760 -20270,13550 -13550,20270 -4760,23920 v 125000 l 4760,23920 13550,20270 20270,13550 23920,4760 h 700000 l 23920,-4760 20270,-13550 13550,-20270 4760,-23920 z"
       style="fill:#0000ff;fill-opacity:1;fill-rule:evenodd;stroke:#000000;stroke-width:1;stroke-linecap:round;stroke-linejoin:round;stroke-opacity:1" />
    <path
       inkscape:connector-curvature="0"
       id="path1293"
       d="m 22323800,15722756 -4760,-23920 -13550,-20270 -20270,-13550 -23920,-4760 h -700000 l -23920,4760 -20270,13550 -13550,20270 -4760,23920 v 125000 l 4760,23920 13550,20270 20270,13550 23920,4760 h 700000 l 23920,-4760 20270,-13550 13550,-20270 4760,-23920 z"
       style="fill:#0000ff;fill-opacity:1;fill-rule:evenodd;stroke:#000000;stroke-width:1;stroke-linecap:round;stroke-linejoin:round;stroke-opacity:1" />
    <path
       inkscape:connector-curvature="0"
       id="path1295"
       d="m 22323800,15222756 -4760,-23918 -13550,-20276 -20270,-13548 -23920,-4758 h -700000 l -23920,4758 -20270,13548 -13550,20276 -4760,23918 v 125000 l 4760,23918 13550,20276 20270,13548 23920,4758 h 700000 l 23920,-4758 20270,-13548 13550,-20276 4760,-23918 z"
       style="fill:#0000ff;fill-opacity:1;fill-rule:evenodd;stroke:#000000;stroke-width:1;stroke-linecap:round;stroke-linejoin:round;stroke-opacity:1" />
    <path
       inkscape:connector-curvature="0"
       id="path1297"
       d="m 22323800,14722756 -4760,-23918 -13550,-20276 -20270,-13548 -23920,-4758 h -700000 l -23920,4758 -20270,13548 -13550,20276 -4760,23918 v 125000 l 4760,23918 13550,20276 20270,13548 23920,4758 h 700000 l 23920,-4758 20270,-13548 13550,-20276 4760,-23918 z"
       style="fill:#0000ff;fill-opacity:1;fill-rule:evenodd;stroke:#000000;stroke-width:1;stroke-linecap:round;stroke-linejoin:round;stroke-opacity:1" />
    <path
       inkscape:connector-curvature="0"
       id="path1299"
       d="m 22323800,14222756 -4760,-23918 -13550,-20276 -20270,-13548 -23920,-4758 h -700000 l -23920,4758 -20270,13548 -13550,20276 -4760,23918 v 125000 l 4760,23918 13550,20276 20270,13548 23920,4758 h 700000 l 23920,-4758 20270,-13548 13550,-20276 4760,-23918 z"
       style="fill:#0000ff;fill-opacity:1;fill-rule:evenodd;stroke:#000000;stroke-width:1;stroke-linecap:round;stroke-linejoin:round;stroke-opacity:1" />
    <path
       inkscape:connector-curvature="0"
       id="path1301"
       d="m 22723800,13247756 -4760,-23918 -13550,-20276 -20270,-13548 -23920,-4758 h -125000 l -23920,4758 -20270,13548 -13550,20276 -4760,23918 v 700000 l 4760,23918 13550,20276 20270,13548 23920,4758 h 125000 l 23920,-4758 20270,-13548 13550,-20276 4760,-23918 z"
       style="fill:#0000ff;fill-opacity:1;fill-rule:evenodd;stroke:#000000;stroke-width:1;stroke-linecap:round;stroke-linejoin:round;stroke-opacity:1" />
    <path
       inkscape:connector-curvature="0"
       id="path1303"
       d="m 23223800,13247756 -4760,-23918 -13550,-20276 -20270,-13548 -23920,-4758 h -125000 l -23920,4758 -20270,13548 -13550,20276 -4760,23918 v 700000 l 4760,23918 13550,20276 20270,13548 23920,4758 h 125000 l 23920,-4758 20270,-13548 13550,-20276 4760,-23918 z"
       style="fill:#0000ff;fill-opacity:1;fill-rule:evenodd;stroke:#000000;stroke-width:1;stroke-linecap:round;stroke-linejoin:round;stroke-opacity:1" />
    <path
       inkscape:connector-curvature="0"
       id="path1305"
       d="m 23723800,13247756 -4760,-23918 -13550,-20276 -20270,-13548 -23920,-4758 h -125000 l -23920,4758 -20270,13548 -13550,20276 -4760,23918 v 700000 l 4760,23918 13550,20276 20270,13548 23920,4758 h 125000 l 23920,-4758 20270,-13548 13550,-20276 4760,-23918 z"
       style="fill:#0000ff;fill-opacity:1;fill-rule:evenodd;stroke:#000000;stroke-width:1;stroke-linecap:round;stroke-linejoin:round;stroke-opacity:1" />
    <path
       inkscape:connector-curvature="0"
       id="path1307"
       d="m 24223800,13247756 -4760,-23918 -13550,-20276 -20270,-13548 -23920,-4758 h -125000 l -23920,4758 -20270,13548 -13550,20276 -4760,23918 v 700000 l 4760,23918 13550,20276 20270,13548 23920,4758 h 125000 l 23920,-4758 20270,-13548 13550,-20276 4760,-23918 z"
       style="fill:#0000ff;fill-opacity:1;fill-rule:evenodd;stroke:#000000;stroke-width:1;stroke-linecap:round;stroke-linejoin:round;stroke-opacity:1" />
    <path
       inkscape:connector-curvature="0"
       id="path1309"
       d="m 24723800,13247756 -4760,-23918 -13550,-20276 -20270,-13548 -23920,-4758 h -125000 l -23920,4758 -20270,13548 -13550,20276 -4760,23918 v 700000 l 4760,23918 13550,20276 20270,13548 23920,4758 h 125000 l 23920,-4758 20270,-13548 13550,-20276 4760,-23918 z"
       style="fill:#0000ff;fill-opacity:1;fill-rule:evenodd;stroke:#000000;stroke-width:1;stroke-linecap:round;stroke-linejoin:round;stroke-opacity:1" />
    <path
       inkscape:connector-curvature="0"
       id="path1311"
       d="m 25223800,13247756 -4760,-23918 -13550,-20276 -20270,-13548 -23920,-4758 h -125000 l -23920,4758 -20270,13548 -13550,20276 -4760,23918 v 700000 l 4760,23918 13550,20276 20270,13548 23920,4758 h 125000 l 23920,-4758 20270,-13548 13550,-20276 4760,-23918 z"
       style="fill:#0000ff;fill-opacity:1;fill-rule:evenodd;stroke:#000000;stroke-width:1;stroke-linecap:round;stroke-linejoin:round;stroke-opacity:1" />
  </g>
  <g
     style="fill:#000000;fill-opacity:1;stroke:#000000;stroke-linecap:round;stroke-linejoin:round;stroke-opacity:1"
     transform="translate(-26332907,-26648591)"
     id="g819" />
</svg>
